<?xml version="1.0" encoding="UTF-8" standalone="no"?>
<svg
   width="70"
   height="60"
   viewBox="0 0 70 60"
   version="1.1"
   id="svg1"
   sodipodi:docname="com.kaioa.lorem-ipsum.svg"
   inkscape:version="1.4-dev (e93d6aa925, 2023-06-29, custom)"
   xml:space="preserve"
   xmlns:inkscape="http://www.inkscape.org/namespaces/inkscape"
   xmlns:sodipodi="http://sodipodi.sourceforge.net/DTD/sodipodi-0.dtd"
   xmlns:xlink="http://www.w3.org/1999/xlink"
   xmlns="http://www.w3.org/2000/svg"
   xmlns:svg="http://www.w3.org/2000/svg"><sodipodi:namedview
     id="namedview1"
     pagecolor="#ffffff"
     bordercolor="#000000"
     borderopacity="0.25"
     inkscape:showpageshadow="2"
     inkscape:pageopacity="0.0"
     inkscape:pagecheckerboard="0"
     inkscape:deskcolor="#d1d1d1"
     showgrid="false"
     inkscape:zoom="3.0093752"
     inkscape:cx="46.18899"
     inkscape:cy="34.226374"
     inkscape:current-layer="layer1"><inkscape:grid
       id="grid2"
       units="px"
       originx="0"
       originy="0"
       spacingx="1"
       spacingy="1"
       empcolor="#0099e5"
       empopacity="0.30196078"
       color="#3f84a6"
       opacity="0.14901961"
       empspacing="5"
       dotted="false"
       gridanglex="30"
       gridanglez="30"
       visible="false" /></sodipodi:namedview><defs
     id="defs1" /><g
     inkscape:label="com.kaioa.lorem-ipsum"
     inkscape:groupmode="layer"
     id="layer1">&#10;     <image
   preserveAspectRatio="none"
   inkscape:svg-dpi="192"
   width="70"
   height="60"
   xlink:href="_notepad-page-icon.svg"
   id="image1"
   x="0"
   y="0"
   sodipodi:insensitive="true" />&#10;       <text
   xml:space="preserve"
   style="font-weight:bold;font-size:24px;line-height:1.8;font-family:sans-serif;-inkscape-font-specification:'sans-serif, Bold';font-variant-ligatures:none;text-decoration-color:#000000;fill:#000000;stroke-linecap:square;stroke-linejoin:round;stroke-miterlimit:10;-inkscape-stroke:none"
   x="1.8607141"
   y="2.5098004"
   id="text2"><tspan
     sodipodi:role="line"
     id="tspan1"
     x="1.8607141"
     y="2.5098004" /></text><g
   id="text3"
   style="font-size:18.6667px;line-height:1.07;font-family:'Kaushan Script';-inkscape-font-specification:'Kaushan Script, Normal';font-variant-ligatures:none;stroke-linecap:square;stroke-linejoin:round;stroke-miterlimit:10"
   aria-label="Lorem&#10;ipsum"><path
     d="m 21.937244,23.442863 q 0.466668,0.802668 0.466668,1.549336 0,0.168 -0.03733,0.298667 -0.01867,0.149334 -0.056,0.298667 -0.317334,-0.03733 -0.672001,-0.056 -0.336001,-0.01867 -0.709335,-0.01867 -0.448,0 -0.914668,0.01867 -0.448001,0.03733 -1.008002,0.09333 -0.560001,0.056 -1.250669,0.149333 -0.690668,0.09333 -1.605336,0.242667 -0.429334,-0.149333 -0.858668,-0.597334 -0.429334,-0.429334 -0.802668,-1.045335 0.186667,-0.410668 0.466667,-1.008002 0.280001,-0.616001 0.653335,-1.47467 0.373334,-0.877334 0.821335,-2.03467 0.466667,-1.176002 0.989335,-2.706671 0.336,-1.008002 0.578667,-1.773337 0.242667,-0.765335 0.429335,-1.474669 0.205333,-0.728002 0.392,-1.512003 0.186667,-0.784001 0.410668,-1.81067 0.746668,0.149334 1.288002,0.560001 0.560001,0.392001 1.064002,1.138669 -0.149334,0.242667 -0.392001,0.784001 -0.242667,0.541335 -0.578668,1.325336 -0.317333,0.765335 -0.709334,1.75467 -0.392001,0.970668 -0.821335,2.09067 -0.410667,1.101336 -0.802668,2.072004 -0.392001,0.970668 -0.709335,1.75467 -0.298667,0.784001 -0.485334,1.344002 -0.186667,0.560001 -0.186667,0.840002 0.298667,-0.01867 0.541334,-0.03733 0.242667,-0.01867 0.504001,-0.056 0.261334,-0.056 0.560001,-0.112 0.317334,-0.07467 0.746668,-0.186667 0.373334,-0.09333 0.690668,-0.149334 0.317334,-0.07467 0.616001,-0.112 0.317334,-0.056 0.634668,-0.07467 0.336001,-0.03733 0.746668,-0.07467 z m 3.677339,1.717336 q -1.064002,-0.112 -1.69867,-0.933335 -0.634668,-0.821335 -0.634668,-2.09067 0,-0.746668 0.224001,-1.549337 0.224,-0.802668 0.634667,-1.549336 0.410668,-0.765334 0.970669,-1.437336 0.560001,-0.672001 1.213335,-1.157335 1.026669,-0.765335 1.92267,-0.765335 0.597335,0.317334 1.176003,1.325336 0.09333,0 0.168,0 0.07467,-0.01867 0.168,-0.01867 0.989335,0 0.989335,1.75467 0,1.176002 -0.392,2.240004 -0.373334,1.045335 -1.064002,1.904004 -0.672002,0.858668 -1.624003,1.456002 -0.933335,0.578668 -2.053337,0.821335 z m 0.952001,-5.880011 q -0.317334,0.429335 -0.597334,0.933335 -0.280001,0.504001 -0.485334,1.026669 -0.205334,0.504001 -0.317334,0.989335 -0.112,0.466668 -0.112,0.840002 0,0.448 0.149333,0.858668 0.149334,0.410667 0.336001,0.466667 0.840001,-0.186667 1.530669,-0.690668 0.709335,-0.522667 1.213336,-1.288002 0.522667,-0.765335 0.802668,-1.736003 0.298667,-0.970668 0.298667,-2.072004 0,-0.485334 -0.056,-0.765334 -0.056,-0.280001 -0.186667,-0.485335 -0.821335,0.242667 -1.474669,0.784002 -0.634668,0.541334 -1.101336,1.138668 z m 4.629341,4.853343 q 0.09333,-0.541335 0.317334,-1.41867 0.242667,-0.896001 0.560001,-1.885336 0.317334,-1.008002 0.672001,-2.016004 0.354667,-1.008002 0.690668,-1.81067 0.242667,-0.578668 0.429334,-0.896002 0.186667,-0.336 0.410667,-0.560001 0.261334,0.03733 0.541335,0.130667 0.28,0.09333 0.541334,0.224001 0.261334,0.130667 0.466668,0.28 0.205333,0.130667 0.317333,0.261334 -0.504,0.597334 -0.896001,1.362669 -0.373334,0.765335 -0.765335,1.960004 1.008002,-0.896002 1.773337,-1.717337 0.784001,-0.821335 1.456002,-1.829336 0.112001,-0.09333 0.392001,-0.09333 0.261334,0 0.504001,0.09333 0.242667,0.07467 0.336001,0.224 -0.336001,0.896002 -0.336001,1.773337 0,0.821334 0.242667,1.232002 -0.01867,0.112 -0.261334,0.429334 -0.224,0.317334 -0.504001,0.597334 -0.504001,-0.261334 -0.896001,-0.709334 -0.392001,-0.466668 -0.578668,-1.008002 -0.877335,0.616001 -1.493336,1.213335 -0.616001,0.578668 -1.064002,1.306669 -0.429334,0.709335 -0.746668,1.64267 -0.298667,0.933335 -0.578668,2.221337 -0.168,-0.01867 -0.410667,-0.130667 -0.224,-0.09333 -0.466668,-0.242667 -0.224,-0.149333 -0.410667,-0.317334 -0.186667,-0.168 -0.242667,-0.317333 z m 14.653358,-7.35468 q -0.07467,1.157335 -0.410668,1.997337 -0.336,0.821334 -0.970668,1.456002 -0.616001,0.616001 -1.512003,1.120002 -0.896001,0.504001 -2.09067,0.970669 0,0.112 -0.01867,0.242667 0,0.112 0,0.242667 0,0.242667 0.03733,0.504001 0.03733,0.261334 0.130666,0.485334 0.09333,0.224 0.261334,0.373334 0.168001,0.130667 0.429334,0.130667 0.504001,0 0.989335,-0.224001 0.485335,-0.224 0.914669,-0.541334 0.448001,-0.336 0.821335,-0.709334 0.392,-0.392001 0.690667,-0.709335 0.186667,0.168 0.317334,0.317334 -0.840001,1.120002 -1.848003,1.86667 -0.989335,0.728001 -1.885337,0.933335 -1.288002,-0.149334 -2.016003,-0.933335 -0.709335,-0.802668 -0.709335,-1.92267 0,-0.765335 0.205334,-1.549336 0.224,-0.802669 0.597334,-1.53067 0.392001,-0.746668 0.896002,-1.400002 0.522667,-0.653335 1.101335,-1.138669 0.597335,-0.485334 1.213336,-0.765335 0.634667,-0.28 1.250669,-0.28 0.858668,0.112 1.605336,1.064002 z m -1.288003,0.616001 q -0.504,0.07467 -1.045335,0.410667 -0.541334,0.336001 -1.026668,0.896002 -0.466668,0.560001 -0.858668,1.306669 -0.392001,0.746668 -0.616002,1.605336 1.493336,-0.746668 2.482672,-1.829337 0.989335,-1.101335 1.064001,-2.389337 z m 12.936013,1.381336 q -0.298667,0.01867 -0.728001,0.392 -0.429334,0.354668 -0.933335,0.933335 -0.485335,0.560001 -1.026669,1.250669 -0.522668,0.690668 -1.026668,1.381336 -0.485335,0.672001 -0.914669,1.269336 -0.429334,0.597334 -0.728001,0.952001 -0.410667,-0.168 -0.709335,-0.485334 -0.298667,-0.336 -0.429334,-0.821335 0.09333,-0.578667 0.261334,-1.194668 0.168,-0.634668 0.429334,-1.30667 0.280001,-0.672001 0.672001,-1.400002 0.410668,-0.746668 0.989335,-1.568003 -0.28,0.01867 -0.765334,0.410668 -0.485334,0.373334 -1.045335,0.989335 -0.560001,0.597334 -1.157336,1.362669 -0.597334,0.746668 -1.120002,1.474669 -0.690668,0.970669 -1.157335,1.69867 -0.448001,0.728001 -0.653335,0.858668 -0.485334,-0.354667 -0.672001,-0.765335 -0.186667,-0.410667 -0.280001,-0.914668 0.01867,-0.448001 0.130667,-1.120002 0.130667,-0.672001 0.354668,-1.381336 0.429334,-1.362669 1.101335,-2.706671 0.690668,-1.344003 1.325336,-2.464005 0.522667,0.112 0.933335,0.354667 0.429334,0.242668 0.896001,0.709335 -0.186667,0.578668 -0.578667,1.232002 -0.392001,0.634668 -0.821335,1.344003 -0.429334,0.709334 -0.784002,1.456002 -0.354667,0.746668 -0.466667,1.512003 0.522667,-0.746668 1.232002,-1.717336 0.728001,-0.970669 1.474669,-1.829337 0.765335,-0.858668 1.512003,-1.456003 0.746668,-0.597334 1.344003,-0.597334 0.224,0 0.485334,0.07467 0.261334,0.07467 0.485334,0.186667 0.224,0.112 0.373334,0.224 0.149334,0.09333 0.168,0.149334 -0.09333,0.373334 -0.448,1.026668 -0.336001,0.634668 -0.728002,1.344003 -0.392001,0.709334 -0.728001,1.381336 -0.336001,0.653334 -0.392001,1.045335 0.914668,-1.250669 1.717337,-2.258671 0.802668,-1.026668 1.512002,-1.75467 0.709335,-0.728001 1.306669,-1.120002 0.616001,-0.392001 1.157336,-0.392001 0.373334,0 0.690668,0.205334 0.336,0.186667 0.466667,0.560001 -0.168,0.560001 -0.560001,1.344003 -0.373334,0.784001 -0.765335,1.661336 -0.392,0.858668 -0.709334,1.69867 -0.298667,0.840001 -0.298667,1.512002 0,0.392001 0.112,0.522668 0.112,0.112 0.317334,0.112 0.224,0 0.410667,-0.07467 0.205334,-0.09333 0.298667,-0.09333 0.112001,0.07467 0.130667,0.186667 0.01867,0.112 0.01867,0.205334 -0.373334,0.298667 -0.765335,0.485334 -0.392,0.205334 -0.877335,0.205334 -0.448,0 -0.746668,-0.149334 -0.28,-0.149334 -0.466667,-0.410667 -0.186667,-0.261334 -0.261334,-0.597335 -0.07467,-0.336 -0.07467,-0.728001 0,-0.634668 0.168001,-1.250669 0.168,-0.634668 0.392,-1.194669 0.242667,-0.578668 0.504001,-1.064002 0.261334,-0.504001 0.448001,-0.896001 z"
     id="path1" /><path
     d="m 14.937232,43.229566 q 0,-0.168 0.01867,-0.410667 0.03733,-0.261334 0.112,-0.672002 0.07467,-0.429334 0.186667,-1.026668 0.130667,-0.597335 0.317334,-1.437336 0.03733,-0.186667 0.168001,-0.597334 0.130667,-0.410668 0.336,-0.858669 0.224001,-0.466667 0.522668,-0.896001 0.317334,-0.429334 0.746668,-0.634668 0.317334,0.07467 0.840001,0.392001 0.522668,0.298667 0.896002,0.840001 -0.429334,0.485334 -0.728001,0.970669 -0.280001,0.485334 -0.522668,1.008001 -0.224,0.522668 -0.429334,1.082669 -0.186667,0.560001 -0.429334,1.176002 -0.205334,0.522668 -0.373334,1.082669 -0.168,0.541334 -0.186667,0.952001 0,0.336001 -0.01867,0.466668 0,0.149334 -0.09333,0.149334 -0.07467,0 -0.298668,-0.09333 -0.224,-0.09333 -0.466667,-0.28 -0.224,-0.205334 -0.410667,-0.504001 -0.186667,-0.298668 -0.186667,-0.709335 z m 3.565339,-8.101348 q 0,-0.112 0.056,-0.336001 -0.09333,-0.09333 -0.168,-0.28 -0.056,-0.186667 -0.056,-0.336001 0,-0.168 0.03733,-0.448 0.056,-0.298668 0.130667,-0.634668 0.07467,-0.336001 0.186667,-0.690668 0.112001,-0.373334 0.224001,-0.672001 0.224,0 0.541334,0.130666 0.336001,0.112001 0.672001,0.317334 0.336001,0.186667 0.616001,0.429334 0.280001,0.224001 0.429334,0.429335 -0.205333,0.205333 -0.541334,0.578667 -0.336,0.354668 -0.653334,0.765335 -0.317334,0.392001 -0.578668,0.746668 -0.261334,0.354667 -0.336001,0.504001 -0.224,-0.03733 -0.392,-0.186667 -0.168001,-0.168 -0.168001,-0.317334 z m -0.541333,15.530695 q -0.261334,-0.07467 -0.298667,-0.560001 -0.07467,-0.242667 -0.112,-0.578668 -0.01867,-0.336001 -0.01867,-0.765335 0,-0.392 0.130667,-1.082668 0.130667,-0.672002 0.354667,-1.53067 0.242667,-0.858668 0.578668,-1.848003 0.336001,-1.008002 0.746668,-2.03467 0.504001,-1.288003 0.877335,-2.221338 0.373334,-0.952001 0.616001,-1.642669 0.261334,-0.690668 0.410668,-1.138669 0.168,-0.448001 0.261333,-0.765335 0.07467,-0.224 0.224001,-0.541334 0.149333,-0.317334 0.336,-0.634668 0.205334,-0.336001 0.410668,-0.616001 0.205333,-0.298667 0.373334,-0.448001 0.653334,0.09333 1.232002,0.336001 0.578668,0.242667 0.709335,0.466667 -0.261334,0.242667 -0.597335,0.765335 -0.336,0.504001 -0.653334,1.120002 -0.317334,0.597334 -0.578668,1.232002 -0.261334,0.634668 -0.392001,1.120002 0.186667,-0.317334 0.485334,-0.690668 0.298668,-0.373334 0.914669,-1.026668 0.690668,-0.709335 1.288002,-1.082669 0.616001,-0.392001 1.064002,-0.392001 0.709335,0 1.157335,0.392001 0.466668,0.392001 0.466668,1.008002 0,1.344002 -0.448001,2.669338 -0.448001,1.306669 -1.288002,2.370671 -0.317334,0.410667 -0.746668,0.784001 -0.429334,0.373335 -0.896002,0.672002 -0.466667,0.28 -0.914668,0.448001 -0.448001,0.168 -0.802668,0.168 -0.336001,0 -0.597335,-0.130667 -0.242667,-0.149334 -0.336,-0.354667 0.728001,-0.429334 1.418669,-1.194669 0.690668,-0.765335 1.269336,-1.75467 0.597334,-1.008002 1.026668,-2.165337 0.448001,-1.157336 0.672001,-2.352005 -0.709334,0.373334 -1.288002,0.821335 -0.560001,0.429334 -1.120002,1.138669 -0.672001,0.821335 -1.064002,1.325336 -0.392001,0.504001 -0.653334,0.858668 -0.242668,0.354667 -0.410668,0.672001 -0.149333,0.298667 -0.336,0.746668 -0.261334,0.597335 -0.616002,1.58667 -0.336,0.970668 -0.709334,2.184004 -0.354667,1.213335 -0.728001,2.576004 -0.354668,1.381336 -0.690668,2.744005 -0.205334,-0.03733 -0.354668,-0.298667 -0.149333,-0.168 -0.224,-0.242667 -0.056,-0.07467 -0.149334,-0.112 z M 34.966603,37.050888 q -0.01867,0.354667 -0.130667,0.746668 -0.09333,0.373334 -0.242667,0.690668 -0.149334,0.298667 -0.317334,0.504001 -0.168,0.205334 -0.317334,0.205334 -0.205334,-0.01867 -0.242667,-0.280001 0,-0.056 0.03733,-0.168 0.056,-0.130667 0.112001,-0.280001 0.056,-0.149333 0.09333,-0.298667 0.056,-0.149333 0.056,-0.261334 0,-0.261333 -0.130667,-0.429334 -0.112,-0.186667 -0.317334,-0.186667 -0.746668,0 -1.138668,0.933335 -0.392001,0.933335 -0.392001,2.744005 0,0.186667 0.01867,0.224001 0.392,-0.01867 0.690668,-0.01867 0.317334,-0.01867 0.616001,-0.01867 0.01867,0.03733 0.01867,0.149334 0,0.168 -0.07467,0.242667 -0.429334,0.09333 -0.690668,0.168 -0.242667,0.056 -0.373334,0.112 -0.130667,0.056 -0.168001,0.130667 -0.01867,0.056 -0.01867,0.168001 0,0.149333 0,0.298667 0.01867,0.149333 0.01867,0.373334 0,1.568003 -0.858668,2.520004 -0.840001,0.952002 -2.352004,1.101336 -0.261334,-0.01867 -0.541334,-0.149334 -0.280001,-0.130667 -0.541335,-0.336 -0.242667,-0.205334 -0.429334,-0.466668 -0.186667,-0.242667 -0.261334,-0.504001 0,-0.709334 0.298668,-1.344002 0.298667,-0.653335 0.802668,-1.138669 0.522667,-0.504001 1.213335,-0.802668 0.709335,-0.317334 1.53067,-0.373334 0,-0.466668 -0.09333,-0.914668 -0.09333,-0.448001 -0.205334,-0.858669 -0.09333,-0.429334 -0.186667,-0.821334 -0.09333,-0.410668 -0.09333,-0.802669 0,-0.504001 0.205334,-0.989335 0.205333,-0.504001 0.541334,-0.914668 0.336001,-0.429334 0.784001,-0.728001 0.448001,-0.298668 0.933335,-0.410668 0.205334,0.056 0.541335,0.336001 0.354667,0.261334 0.690668,0.597334 0.336,0.336001 0.597334,0.690668 0.261334,0.336001 0.317334,0.560001 z m -6.160011,8.512016 q 0.448001,-0.186667 0.840001,-0.541335 0.410668,-0.354667 0.709335,-0.802668 0.298667,-0.448001 0.466667,-0.952002 0.186667,-0.504001 0.186667,-0.989335 -0.373334,0.056 -0.821334,0.354668 -0.448001,0.28 -0.840002,0.690667 -0.392001,0.392001 -0.653334,0.821335 -0.261334,0.429334 -0.261334,0.746668 0,0.410668 0.373334,0.672002 z M 40.062624,44.069568 Q 39.707957,43.7709 39.57729,43.322899 q -0.112,-0.448 -0.112,-0.765334 0,-0.392001 0.09333,-0.672001 -0.07467,0 -0.336001,0.298667 -0.261334,0.298667 -0.578668,0.709334 -0.298667,0.410668 -0.597334,0.802669 -0.298667,0.392 -0.448001,0.578667 -0.242667,0.261334 -0.466667,0.410668 -0.205334,0.149333 -0.336001,0.168 -0.298667,-0.01867 -0.634668,-0.130667 -0.317334,-0.09333 -0.616001,-0.28 -0.280001,-0.186667 -0.504001,-0.448001 -0.205334,-0.261334 -0.28,-0.597335 0,-0.522667 0.01867,-0.858668 0.03733,-0.336001 0.130667,-0.728001 0.168,-0.709335 0.485334,-1.605336 0.336001,-0.896002 0.765335,-1.75467 0.429334,-0.877335 0.952002,-1.624003 0.541334,-0.765335 1.138669,-1.194669 0.168,0 0.392,0.03733 0.224001,0.01867 0.448001,0.09333 0.242667,0.07467 0.448001,0.186667 0.224,0.09333 0.373334,0.261334 -0.168,0.186667 -0.858668,1.250669 -0.672002,1.064001 -1.512003,3.061338 -0.09333,0.205334 -0.224,0.597335 -0.130667,0.392001 -0.261334,0.821335 -0.130667,0.429334 -0.224001,0.840001 -0.07467,0.410668 -0.07467,0.653335 0,0.149333 0.03733,0.224 0.056,0.07467 0.09333,0.112 0.280001,-0.112 0.709335,-0.616001 0.429334,-0.504001 1.194669,-1.549336 0.186667,-0.261334 0.429334,-0.597334 0.261334,-0.336001 0.522668,-0.709335 0.261333,-0.392001 0.485334,-0.802668 0.242667,-0.410667 0.392,-0.821335 0.07467,-0.224 0.186667,-0.522668 0.130667,-0.317333 0.298668,-0.653334 0.186667,-0.336001 0.410667,-0.672001 0.242667,-0.354668 0.560001,-0.653335 0.242667,0 0.522668,0.056 0.28,0.056 0.522667,0.149334 0.261334,0.07467 0.448001,0.186667 0.186667,0.09333 0.280001,0.205334 -0.336001,0.821334 -0.746668,1.624003 -0.410668,0.802668 -0.765335,1.586669 -0.354667,0.765335 -0.597334,1.53067 -0.242668,0.765334 -0.242668,1.493336 0,0.392 0.056,0.690668 0.07467,0.28 0.149333,0.485334 0.07467,0.186667 0.130667,0.317334 0.07467,0.130667 0.07467,0.224 0,0.01867 -0.03733,0.056 -0.01867,0.01867 -0.03733,0.01867 -0.130667,0 -0.336001,-0.056 -0.205333,-0.056 -0.466667,-0.168001 -0.242667,-0.09333 -0.504001,-0.224 -0.242667,-0.130667 -0.466668,-0.28 z m 14.85869,-5.32001 q -0.298667,0.01867 -0.728002,0.392001 -0.429334,0.354667 -0.933335,0.933335 -0.485334,0.560001 -1.026668,1.250669 -0.522668,0.690667 -1.026669,1.381335 -0.485334,0.672002 -0.914668,1.269336 -0.429334,0.597334 -0.728001,0.952002 -0.410668,-0.168001 -0.709335,-0.485334 -0.298667,-0.336001 -0.429334,-0.821335 0.09333,-0.578668 0.261334,-1.194669 0.168,-0.634668 0.429334,-1.306669 0.28,-0.672001 0.672001,-1.400003 0.410668,-0.746668 0.989335,-1.568003 -0.28,0.01867 -0.765334,0.410668 -0.485335,0.373334 -1.045336,0.989335 -0.560001,0.597334 -1.157335,1.362669 -0.597335,0.746668 -1.120002,1.474669 -0.690668,0.970669 -1.157336,1.69867 -0.448,0.728002 -0.653334,0.858668 -0.485334,-0.354667 -0.672001,-0.765334 -0.186667,-0.410668 -0.280001,-0.914669 0.01867,-0.448 0.130667,-1.120002 0.130667,-0.672001 0.354667,-1.381335 0.429335,-1.36267 1.101336,-2.706672 0.690668,-1.344002 1.325335,-2.464004 0.522668,0.112 0.933335,0.354667 0.429335,0.242667 0.896002,0.709334 -0.186667,0.578668 -0.578668,1.232003 -0.392,0.634667 -0.821334,1.344002 -0.429335,0.709335 -0.784002,1.456003 -0.354667,0.746668 -0.466667,1.512002 0.522667,-0.746668 1.232002,-1.717336 0.728001,-0.970668 1.474669,-1.829337 0.765335,-0.858668 1.512003,-1.456002 0.746668,-0.597335 1.344002,-0.597335 0.224001,0 0.485335,0.07467 0.261333,0.07467 0.485334,0.186667 0.224,0.112 0.373334,0.224001 0.149333,0.09333 0.168,0.149333 -0.09333,0.373334 -0.448001,1.026669 -0.336,0.634668 -0.728001,1.344002 -0.392001,0.709335 -0.728001,1.381336 -0.336001,0.653334 -0.392001,1.045335 0.914668,-1.250669 1.717336,-2.258671 0.802668,-1.026668 1.512003,-1.754669 0.709335,-0.728002 1.306669,-1.120002 0.616001,-0.392001 1.157336,-0.392001 0.373334,0 0.690667,0.205334 0.336001,0.186667 0.466668,0.560001 -0.168,0.560001 -0.560001,1.344002 -0.373334,0.784001 -0.765335,1.661336 -0.392,0.858669 -0.709334,1.69867 -0.298668,0.840002 -0.298668,1.512003 0,0.392001 0.112001,0.522667 0.112,0.112001 0.317334,0.112001 0.224,0 0.410667,-0.07467 0.205334,-0.09333 0.298667,-0.09333 0.112,0.07467 0.130667,0.186667 0.01867,0.112001 0.01867,0.205334 -0.373334,0.298667 -0.765335,0.485334 -0.392001,0.205334 -0.877335,0.205334 -0.448001,0 -0.746668,-0.149334 -0.28,-0.149333 -0.466667,-0.410667 -0.186667,-0.261334 -0.261334,-0.597334 -0.07467,-0.336001 -0.07467,-0.728002 0,-0.634668 0.168,-1.250669 0.168001,-0.634668 0.392001,-1.194669 0.242667,-0.578667 0.504001,-1.064001 0.261334,-0.504001 0.448001,-0.896002 z"
     id="path2" /></g></g></svg>
