<?xml version="1.0" encoding="UTF-8" standalone="no"?>
<svg
   width="70"
   height="60"
   viewBox="0 0 70 60"
   version="1.1"
   id="svg1"
   sodipodi:docname="effect.voronoi-fill.svg"
   inkscape:version="1.4-dev (de72ba3c18, 2023-06-27, custom)"
   xmlns:inkscape="http://www.inkscape.org/namespaces/inkscape"
   xmlns:sodipodi="http://sodipodi.sourceforge.net/DTD/sodipodi-0.dtd"
   xmlns="http://www.w3.org/2000/svg"
   xmlns:svg="http://www.w3.org/2000/svg">
  <sodipodi:namedview
     id="namedview1"
     pagecolor="#ffffff"
     bordercolor="#000000"
     borderopacity="0.25"
     inkscape:showpageshadow="2"
     inkscape:pageopacity="0.0"
     inkscape:pagecheckerboard="0"
     inkscape:deskcolor="#d1d1d1"
     showgrid="false"
     inkscape:zoom="1"
     inkscape:cx="56"
     inkscape:cy="5"
     inkscape:current-layer="layer1">
    <inkscape:grid
       id="grid1"
       units="px"
       originx="0"
       originy="0"
       spacingx="1"
       spacingy="1"
       empcolor="#0099e5"
       empopacity="0.30196078"
       color="#3f84a6"
       opacity="0.14901961"
       empspacing="5"
       dotted="false"
       gridanglex="30"
       gridanglez="30"
       visible="false" />
  </sodipodi:namedview>
  <defs
     id="defs1">
    <pattern
       id="Voronoi3671"
       width="66.0"
       height="55.999996"
       patternUnits="userSpaceOnUse"
       patternTransform="translate(2, 2)">
      <path
         d="M 8.757,3.348 9.483,0.000 M 50.234,0.000 50.519,2.394 M 43.913,6.992 44.187,0.000 M 43.913,6.992 47.190,9.384 M 47.190,9.384 50.519,2.394 M 47.190,9.384 47.210,9.497 M 10.740,0.000 16.183,7.075 M 16.183,7.075 18.031,6.953 M 16.732,0.000 18.031,6.953 M 8.757,3.348 9.633,8.707 M 9.633,8.707 16.183,7.075 M 8.347,9.725 9.633,8.707 M 6.169,10.095 8.347,9.725 M 34.485,9.212 40.173,0.000 M 34.485,9.212 43.913,6.992 M 37.974,12.785 47.210,9.497 M 33.757,9.915 34.485,9.212 M 33.757,9.915 37.974,12.785 M 18.031,6.953 23.710,9.719 M 23.710,9.719 24.554,0.000 M 31.331,10.187 31.608,0.000 M 31.331,10.187 33.757,9.915 M 8.347,9.725 12.123,16.649 M 23.710,9.719 24.028,10.082 M 50.519,2.394 58.430,12.488 M 58.430,12.488 60.834,11.151 M 4.120,17.297 6.169,10.095 M 24.028,10.082 28.876,11.275 M 28.876,11.275 31.331,10.187 M 28.876,11.275 29.096,12.758 M 12.123,16.649 18.768,16.997 M 18.768,16.997 24.028,10.082 M 47.210,9.497 51.284,16.068 M 37.974,12.785 43.555,19.159 M 43.555,19.159 51.284,16.068 M 51.284,16.068 54.846,16.605 M 54.846,16.605 58.430,12.488 M 18.512,22.037 18.768,16.997 M 4.120,17.297 5.050,21.838 M 24.757,24.518 29.096,12.758 M 42.225,22.307 43.555,19.159 M 24.757,24.518 33.773,23.815 M 29.096,12.758 33.773,23.815 M 5.050,21.838 7.522,23.013 M 7.522,23.013 12.123,16.649 M 33.773,23.815 34.556,24.683 M 34.556,24.683 35.113,24.965 M 35.113,24.965 42.225,22.307 M 42.225,22.307 44.811,26.754 M 44.811,26.754 45.727,27.185 M 18.512,22.037 22.641,26.378 M 22.641,26.378 24.757,24.518 M 45.727,27.185 47.148,30.289 M 7.522,23.013 9.816,26.209 M 9.816,26.209 18.512,22.037 M 35.113,24.965 35.726,29.677 M 45.727,27.185 57.541,25.411 M 54.846,16.605 57.541,25.411 M 35.726,29.677 41.604,31.846 M 41.604,31.846 44.811,26.754 M 57.541,25.411 58.424,26.640 M 47.148,30.289 54.677,30.899 M 54.677,30.899 58.424,26.640 M 54.332,31.471 54.677,30.899 M 58.424,26.640 64.017,29.090 M 9.816,26.209 10.102,31.346 M 64.017,29.090 66.000,28.939 M 60.834,11.151 66.000,20.547 M 1.402,38.260 2.249,32.053 M 2.249,32.053 8.856,32.849 M 22.641,26.378 23.118,32.440 M 23.118,32.440 23.225,32.483 M 23.225,32.483 34.556,24.683 M 8.856,32.849 8.976,32.821 M 8.976,32.821 10.102,31.346 M 10.102,31.346 21.718,33.034 M 21.718,33.034 23.118,32.440 M 1.402,38.260 2.608,39.340 M 2.608,39.340 8.856,32.849 M 19.261,38.493 21.718,33.034 M 41.604,31.846 43.088,37.007 M 0.000,31.679 2.249,32.053 M 0.000,37.226 1.402,38.260 M 2.444,40.322 2.608,39.340 M 32.406,36.740 35.726,29.677 M 32.406,36.740 43.088,37.007 M 0.616,41.871 2.444,40.322 M 8.976,32.821 10.877,39.967 M 48.890,38.319 54.332,31.471 M 10.877,39.967 12.048,40.774 M 12.048,40.774 19.261,38.493 M 0.000,0.327 8.757,3.348 M 0.000,7.183 6.169,10.095 M 47.148,30.289 47.489,38.465 M 47.489,38.465 48.890,38.319 M 60.085,40.235 64.017,29.090 M 60.085,40.235 62.626,41.755 M 12.048,40.774 12.642,41.910 M 23.225,32.483 30.486,38.103 M 30.486,38.103 32.406,36.740 M 43.088,37.007 45.918,39.146 M 45.918,39.146 47.489,38.465 M 54.332,31.471 58.078,41.221 M 58.078,41.221 60.085,40.235 M 0.000,23.394 5.050,21.838 M 30.486,38.103 30.500,38.773 M 19.261,38.493 20.030,43.208 M 2.444,40.322 6.929,43.348 M 6.929,43.348 10.877,39.967 M 12.642,41.910 15.844,44.298 M 15.844,44.298 20.030,43.208 M 30.500,38.773 35.901,43.419 M 48.890,38.319 56.332,42.344 M 56.332,42.344 58.078,41.221 M 0.616,41.871 1.955,46.043 M 27.624,44.098 30.500,38.773 M 20.030,43.208 22.773,45.551 M 22.773,45.551 27.624,44.098 M 56.124,45.737 56.332,42.344 M 35.112,48.439 35.901,43.419 M 35.901,43.419 43.930,44.461 M 43.930,44.461 45.918,39.146 M 27.624,44.098 28.935,47.185 M 28.935,47.185 35.112,48.439 M 1.955,46.043 5.956,47.330 M 5.956,47.330 6.929,43.348 M 43.930,44.461 44.276,46.670 M 15.494,49.581 15.844,44.298 M 10.741,50.071 12.642,41.910 M 10.741,50.071 15.494,49.581 M 20.350,50.699 22.773,45.551 M 15.494,49.581 18.702,51.144 M 18.702,51.144 20.350,50.699 M 28.935,47.185 28.998,52.152 M 35.112,48.439 37.026,52.147 M 56.124,45.737 64.794,51.162 M 62.626,41.755 64.794,51.162 M 28.998,52.152 31.671,53.702 M 31.671,53.702 37.026,52.147 M 37.026,52.147 38.051,52.458 M 38.051,52.458 44.276,46.670 M 5.956,47.330 7.849,51.521 M 7.849,51.521 10.741,50.071 M 20.350,50.699 24.714,54.166 M 24.714,54.166 28.998,52.152 M 44.276,46.670 51.002,52.589 M 51.002,52.589 56.124,45.737 M 38.051,52.458 39.387,56.000 M 51.002,52.589 51.626,56.000 M 0.000,41.853 0.616,41.871 M 0.000,16.057 4.120,17.297 M 0.000,31.426 0.000,31.426 M 0.000,47.080 1.955,46.043 M 6.226,56.000 7.849,51.521 M 16.947,56.000 18.702,51.144 M 24.554,56.000 24.714,54.166 M 31.608,56.000 31.671,53.702 M 64.794,51.162 66.000,52.588 M 62.626,41.755 66.000,41.853 M 60.834,11.151 66.000,7.360 "
         style="stroke:#000000;stroke-width:1.0"
         id="path1" />
    </pattern>
  </defs>
  <g
     inkscape:label="effect.voronoi-fill"
     inkscape:groupmode="layer"
     id="layer1">
    <rect
       style="fill:url(#Voronoi3671);fill-rule:evenodd;stroke-width:1;stroke-miterlimit:5.5"
       id="rect1"
       width="66"
       height="55.999996"
       x="1.9999998"
       y="1.9999999" />
  </g>
</svg>
