<?xml version="1.0" encoding="UTF-8" standalone="no"?>
<svg
   width="70"
   height="60"
   viewBox="0 0 70 60"
   version="1.1"
   id="svg1"
   sodipodi:docname="effect.extrude.svg"
   inkscape:version="1.4-dev (e93d6aa925, 2023-06-29)"
   xmlns:inkscape="http://www.inkscape.org/namespaces/inkscape"
   xmlns:sodipodi="http://sodipodi.sourceforge.net/DTD/sodipodi-0.dtd"
   xmlns="http://www.w3.org/2000/svg"
   xmlns:svg="http://www.w3.org/2000/svg">
  <sodipodi:namedview
     id="namedview1"
     pagecolor="#ffffff"
     bordercolor="#000000"
     borderopacity="0.25"
     inkscape:showpageshadow="2"
     inkscape:pageopacity="0.0"
     inkscape:pagecheckerboard="0"
     inkscape:deskcolor="#d1d1d1"
     inkscape:zoom="2.7622559"
     inkscape:cx="170.15078"
     inkscape:cy="76.386841"
     inkscape:current-layer="layer1" />
  <defs
     id="defs1" />
  <g
     inkscape:label="effect.extrude"
     inkscape:groupmode="layer"
     id="layer1">
    <g
       id="g1"
       transform="matrix(0.53605266,0,0,0.5357508,-12.914333,11.671467)"
       style="stroke-width:1.86602">
      <path
         id="path1"
         style="fill:#e0e0e0;fill-rule:evenodd;stroke:#000000;stroke-width:1.86602;stroke-linecap:round;stroke-miterlimit:3.3"
         inkscape:transform-center-x="0.055294447"
         inkscape:transform-center-y="0.13662695"
         d="m 66.776874,-6.00397 9.894401,20.7288 22.77808,3.00163 -16.662974,15.81272 4.183192,22.58395 -20.192675,-10.956 -20.192675,10.956 4.183193,-22.58395 -16.662975,-15.81272 22.778081,-3.00163 z" />
      <g
         id="g40"
         transform="translate(7.19609,-172.27123)"
         style="stroke-width:1.86602">
        <path
           d="m 59.5808,166.267 9.8944,20.729 33.4998,5.544 -13.961,-29.257 -29.4332,2.984"
           style="fill:#000000;fill-opacity:0.3;stroke:#000000;stroke-width:1.86602px;stroke-linejoin:round;stroke-opacity:0.6"
           id="path31" />
        <path
           d="m 69.4752,186.996 22.7781,3.002 42.8607,6.779 -32.139,-4.237 -33.4998,-5.544"
           style="fill:#000000;fill-opacity:0.3;stroke:#000000;stroke-width:1.86602px;stroke-linejoin:round;stroke-opacity:0.6"
           id="path32" />
        <path
           d="m 92.2533,189.998 -16.663,15.812 36.0127,13.285 23.511,-22.318 -42.8607,-6.779"
           style="fill:#000000;fill-opacity:0.3;stroke:#000000;stroke-width:1.86602px;stroke-linejoin:round;stroke-opacity:0.6"
           id="path33" />
        <path
           d="m 75.5903,205.81 4.1832,22.584 37.7315,22.577 -5.902,-31.876 -36.0127,-13.285"
           style="fill:#000000;fill-opacity:0.3;stroke:#000000;stroke-width:1.86602px;stroke-linejoin:round;stroke-opacity:0.6"
           id="path34" />
        <path
           d="M 79.7735,228.394 59.5808,217.438 89.014,235.507 117.505,250.971 79.7735,228.394"
           style="fill:#000000;fill-opacity:0.3;stroke:#000000;stroke-width:1.86602px;stroke-linejoin:round;stroke-opacity:0.6"
           id="path35" />
        <path
           d="M 59.5808,217.438 39.3881,228.394 60.5226,250.971 89.014,235.507 59.5808,217.438"
           style="fill:#000000;fill-opacity:0.3;stroke:#000000;stroke-width:1.86602px;stroke-linejoin:round;stroke-opacity:0.6"
           id="path36" />
        <path
           d="M 39.3881,228.394 43.5713,205.81 66.425,219.095 60.5226,250.971 39.3881,228.394"
           style="fill:#000000;fill-opacity:0.3;stroke:#000000;stroke-width:1.86602px;stroke-linejoin:round;stroke-opacity:0.6"
           id="path37" />
        <path
           d="M 43.5713,205.81 26.9084,189.998 42.914,196.777 66.425,219.095 43.5713,205.81"
           style="fill:#000000;fill-opacity:0.3;stroke:#000000;stroke-width:1.86602px;stroke-linejoin:round;stroke-opacity:0.6"
           id="path38" />
        <path
           d="m 26.9084,189.998 22.778,-3.002 25.3669,5.544 -32.1393,4.237 -16.0056,-6.779"
           style="fill:#000000;fill-opacity:0.3;stroke:#000000;stroke-width:1.86602px;stroke-linejoin:round;stroke-opacity:0.6"
           id="path39" />
        <path
           d="M 49.6864,186.996 59.5808,166.267 89.014,163.283 75.0533,192.54 49.6864,186.996"
           style="fill:#000000;fill-opacity:0.3;stroke:#000000;stroke-width:1.86602px;stroke-linejoin:round;stroke-opacity:0.6"
           id="path40" />
      </g>
      <path
         id="path2"
         style="fill:#e0e0e0;fill-rule:evenodd;stroke:#000000;stroke-width:1.62614;stroke-linecap:round;stroke-miterlimit:3.3"
         inkscape:transform-center-x="0.078021465"
         inkscape:transform-center-y="0.19282956"
         d="m 96.21009,-8.98823 13.9608,29.2571 32.1393,4.23656 -23.5111,22.3185 5.90238,31.8755 -28.4914,-15.4636 -28.4914,15.4635 5.90238,-31.8754 -23.511,-22.3185 32.1393,-4.23656 z" />
    </g>
  </g>
</svg>
