<?xml version="1.0" encoding="UTF-8" standalone="no"?>
<svg
   width="70"
   height="60"
   viewBox="0 0 70 60"
   version="1.1"
   id="svg1"
   sodipodi:docname="effect.interpolate.svg"
   inkscape:version="1.4-dev (e93d6aa925, 2023-06-29)"
   xmlns:inkscape="http://www.inkscape.org/namespaces/inkscape"
   xmlns:sodipodi="http://sodipodi.sourceforge.net/DTD/sodipodi-0.dtd"
   xmlns="http://www.w3.org/2000/svg"
   xmlns:svg="http://www.w3.org/2000/svg">
  <sodipodi:namedview
     id="namedview1"
     pagecolor="#ffffff"
     bordercolor="#000000"
     borderopacity="0.25"
     inkscape:showpageshadow="2"
     inkscape:pageopacity="0.0"
     inkscape:pagecheckerboard="0"
     inkscape:deskcolor="#d1d1d1"
     inkscape:zoom="1"
     inkscape:cx="79"
     inkscape:cy="1"
     inkscape:current-layer="layer1" />
  <defs
     id="defs1" />
  <g
     inkscape:label="effect.interpolate"
     inkscape:groupmode="layer"
     id="layer1">
    <g
       id="g71"
       transform="matrix(0.53399145,0,0,0.53320479,-43.315432,-210.76978)"
       style="stroke-width:1.87407">
      <path
         id="path44"
         style="fill:none;fill-rule:evenodd;stroke:#000000;stroke-width:1.87407;stroke-linecap:round;stroke-miterlimit:3.3"
         d="m 118,422.5 a 7.5,7.5 0 0 1 -7.5,7.5 7.5,7.5 0 0 1 -7.5,-7.5 7.5,7.5 0 0 1 7.5,-7.5 7.5,7.5 0 0 1 7.5,7.5 z m -28,27.5 20,-15 20,15 m -20,10.07639 V 430.42361 M 100,490 l -10,-5 20,-25 15,25 10,-5" />
      <path
         id="path48"
         style="fill:none;fill-rule:evenodd;stroke:#000000;stroke-width:1.87407;stroke-linecap:round;stroke-miterlimit:3.3"
         d="m 198,422.5 a 7.5,7.5 0 0 1 -7.5,7.5 7.5,7.5 0 0 1 -7.5,-7.5 7.5,7.5 0 0 1 7.5,-7.5 7.5,7.5 0 0 1 7.5,7.5 z m -18,37.5 10,-25 10,25 m -10,0.0764 V 430.42361 M 197,490 h -11 l 4,-30 3,30 h 10" />
      <g
         id="g70"
         style="stroke-width:1.87407">
        <path
           d="m 198,422.5 c 0,1.989 -0.79,3.897 -2.197,5.303 -1.406,1.407 -3.314,2.197 -5.303,2.197 -1.989,0 -3.897,-0.79 -5.303,-2.197 C 183.79,426.397 183,424.489 183,422.5 c 0,-1.989 0.79,-3.897 2.197,-5.303 1.406,-1.407 3.314,-2.197 5.303,-2.197 1.989,0 3.897,0.79 5.303,2.197 1.407,1.406 2.197,3.314 2.197,5.303 z m -18,37.5 10,-25 10,25 m -10,0.076 V 430.424 M 197,490 h -11 l 4,-30 3,30 h 10"
           style="fill:none;fill-rule:evenodd;stroke:#000000;stroke-width:1.87407;stroke-linecap:round;stroke-miterlimit:3.3"
           id="path67" />
        <path
           d="m 171.333,422.5 c 0,1.989 -0.79,3.897 -2.196,5.303 -1.407,1.407 -3.315,2.197 -5.304,2.197 -1.989,0 -3.896,-0.79 -5.303,-2.197 -1.406,-1.406 -2.197,-3.314 -2.197,-5.303 0,-1.989 0.791,-3.897 2.197,-5.303 1.407,-1.407 3.314,-2.197 5.303,-2.197 1.989,0 3.897,0.79 5.304,2.197 1.406,1.406 2.196,3.314 2.196,5.303 z M 150,456.667 163.333,435 l 13.334,21.667 m -13.334,3.409 V 430.424 M 164.667,490 154,488.333 163.333,460 l 7,28.333 10,-1.666"
           style="fill:none;fill-rule:evenodd;stroke:#000000;stroke-width:1.87407;stroke-linecap:round;stroke-miterlimit:3.3"
           id="path68" />
        <path
           d="m 144.667,422.5 c 0,1.989 -0.791,3.897 -2.197,5.303 -1.407,1.407 -3.314,2.197 -5.303,2.197 -1.989,0 -3.897,-0.79 -5.304,-2.197 -1.406,-1.406 -2.196,-3.314 -2.196,-5.303 0,-1.989 0.79,-3.897 2.196,-5.303 1.407,-1.407 3.315,-2.197 5.304,-2.197 1.989,0 3.896,0.79 5.303,2.197 1.406,1.406 2.197,3.314 2.197,5.303 z M 120,453.333 136.667,435 l 16.666,18.333 m -16.666,6.743 V 430.424 M 132.333,490 122,486.667 136.667,460 l 11,26.667 10,-3.334"
           style="fill:none;fill-rule:evenodd;stroke:#000000;stroke-width:1.87407;stroke-linecap:round;stroke-miterlimit:3.3"
           id="path69" />
        <path
           d="m 118,422.5 c 0,1.989 -0.79,3.897 -2.197,5.303 -1.406,1.407 -3.314,2.197 -5.303,2.197 -1.989,0 -3.897,-0.79 -5.303,-2.197 C 103.79,426.397 103,424.489 103,422.5 c 0,-1.989 0.79,-3.897 2.197,-5.303 1.406,-1.407 3.314,-2.197 5.303,-2.197 1.989,0 3.897,0.79 5.303,2.197 1.407,1.406 2.197,3.314 2.197,5.303 z m -28,27.5 20,-15 20,15 m -20,10.076 V 430.424 M 100,490 l -10,-5 20,-25 15,25 10,-5"
           style="fill:none;fill-rule:evenodd;stroke:#000000;stroke-width:1.87407;stroke-linecap:round;stroke-miterlimit:3.3"
           id="path70" />
      </g>
    </g>
  </g>
</svg>
