<?xml version="1.0" encoding="UTF-8" standalone="no"?><svg
   width="70"
   height="60"
   viewBox="0 0 70 60"
   version="1.1"
   id="svg1"
   sodipodi:docname="effect.long-shadow.svg"
   inkscape:version="1.4-dev (de72ba3c18, 2023-06-27, custom)"
   xmlns:inkscape="http://www.inkscape.org/namespaces/inkscape"
   xmlns:sodipodi="http://sodipodi.sourceforge.net/DTD/sodipodi-0.dtd"
   xmlns="http://www.w3.org/2000/svg"
   xmlns:svg="http://www.w3.org/2000/svg">
  <sodipodi:namedview
     id="namedview1"
     pagecolor="#ffffff"
     bordercolor="#000000"
     borderopacity="0.25"
     inkscape:showpageshadow="2"
     inkscape:pageopacity="0.0"
     inkscape:pagecheckerboard="0"
     inkscape:deskcolor="#d1d1d1"
     showgrid="true"
     inkscape:zoom="3.9333333"
     inkscape:cx="-9.4067797"
     inkscape:cy="30"
     inkscape:current-layer="layer1">
    <inkscape:grid
       id="grid1"
       units="px"
       originx="0"
       originy="0"
       spacingx="1"
       spacingy="1"
       empcolor="#0099e5"
       empopacity="0.30196078"
       color="#3f84a6"
       opacity="0.14901961"
       empspacing="5"
       dotted="false"
       gridanglex="30"
       gridanglez="30"
       visible="true" />
  </sodipodi:namedview>
  <defs
     id="defs1" />
  <g
     inkscape:label="effect.long-shadow"
     inkscape:groupmode="layer"
     id="layer1">
    <g
       id="g207"
       transform="matrix(0.43929276,0,0,0.43929276,-111.28962,-135.88013)"
       style="stroke-width:2.27638">
      <g
         style="fill:#000000;fill-opacity:1;fill-rule:evenodd;stroke:#000000;stroke-width:2.27638;stroke-miterlimit:5.5"
         id="g206">
        <path
           d="m 361,426 -16.693,-12 7.071,7.071 16.693,12 z"
           id="path179"
           style="stroke-width:2.27638" />
        <path
           d="m 344.307,414 -7.774,19.197 7.071,7.071 7.774,-19.197 z"
           id="path180"
           style="stroke-width:2.27638" />
        <path
           d="m 336.533,433.197 -9.833,-18.054 7.071,7.071 9.833,18.054 z"
           id="path181"
           style="stroke-width:2.27638" />
        <path
           d="m 326.7,415.143 -15.334,13.923 7.071,7.071 15.334,-13.923 z"
           id="path182"
           style="stroke-width:2.27638" />
        <path
           d="m 311.366,429.066 -1.026,-20.533 7.071,7.071 1.026,20.533 z"
           id="path183"
           style="stroke-width:2.27638" />
        <path
           d="m 310.34,408.533 -19.856,5.891 7.071,7.071 19.856,-5.891 z"
           id="path184"
           style="stroke-width:2.27638" />
        <path
           d="m 290.484,414.424 7.985,-18.945 7.071,7.071 -7.985,18.945 z"
           id="path185"
           style="stroke-width:2.27638" />
        <path
           d="m 298.469,395.479 -20.446,-3.307 7.071,7.071 20.446,3.307 z"
           id="path186"
           style="stroke-width:2.27638" />
        <path
           d="m 278.023,392.172 15.414,-13.604 7.071,7.071 -15.414,13.604 z"
           id="path187"
           style="stroke-width:2.27638" />
        <path
           d="m 293.437,378.568 -16.986,-11.851 7.071,7.071 16.986,11.851 z"
           id="path188"
           style="stroke-width:2.27638" />
        <path
           d="m 276.451,366.717 19.79,-5.569 7.071,7.071 -19.79,5.569 z"
           id="path189"
           style="stroke-width:2.27638" />
        <path
           d="m 296.241,361.148 -10.162,-18.048 7.071,7.071 10.162,18.048 z"
           id="path190"
           style="stroke-width:2.27638" />
        <path
           d="m 286.079,343.1 20.246,3.569 7.071,7.071 -20.246,-3.569 z"
           id="path191"
           style="stroke-width:2.27638" />
        <path
           d="M 306.325,346.669 305,326 l 7.071,7.071 1.325,20.669 z"
           id="path192"
           style="stroke-width:2.27638" />
        <path
           d="m 305,326 16.693,12 7.071,7.071 -16.693,-12 z"
           id="path193"
           style="stroke-width:2.27638" />
        <path
           d="m 321.693,338 7.774,-19.197 7.071,7.071 -7.774,19.197 z"
           id="path194"
           style="stroke-width:2.27638" />
        <path
           d="m 329.467,318.803 9.833,18.054 7.071,7.071 -9.833,-18.054 z"
           id="path195"
           style="stroke-width:2.27638" />
        <path
           d="m 339.3,336.857 15.334,-13.923 7.071,7.071 -15.334,13.923 z"
           id="path196"
           style="stroke-width:2.27638" />
        <path
           d="m 354.634,322.934 1.026,20.533 7.071,7.071 -1.026,-20.533 z"
           id="path197"
           style="stroke-width:2.27638" />
        <path
           d="m 355.66,343.467 19.856,-5.891 7.071,7.071 -19.856,5.891 z"
           id="path198"
           style="stroke-width:2.27638" />
        <path
           d="m 375.516,337.576 -7.985,18.945 7.071,7.071 7.985,-18.945 z"
           id="path199"
           style="stroke-width:2.27638" />
        <path
           d="m 367.531,356.521 20.446,3.307 7.071,7.071 -20.446,-3.307 z"
           id="path200"
           style="stroke-width:2.27638" />
        <path
           d="m 387.977,359.828 -15.414,13.604 7.071,7.071 15.414,-13.604 z"
           id="path201"
           style="stroke-width:2.27638" />
        <path
           d="m 372.563,373.432 16.986,11.851 7.071,7.071 -16.986,-11.851 z"
           id="path202"
           style="stroke-width:2.27638" />
        <path
           d="m 389.549,385.283 -19.79,5.569 7.071,7.071 19.79,-5.569 z"
           id="path203"
           style="stroke-width:2.27638" />
        <path
           d="m 369.759,390.852 10.162,18.048 7.071,7.071 -10.162,-18.048 z"
           id="path204"
           style="stroke-width:2.27638" />
        <path
           d="m 379.921,408.9 -20.246,-3.569 7.071,7.071 20.246,3.569 z"
           id="path205"
           style="stroke-width:2.27638" />
        <path
           d="M 359.675,405.331 361,426 l 7.071,7.071 -1.325,-20.669 z"
           id="path206"
           style="stroke-width:2.27638" />
      </g>
      <path
         sodipodi:type="star"
         style="fill:#f0f0f0;fill-rule:evenodd;stroke:#000000;stroke-width:2.27638;stroke-miterlimit:5.5"
         id="path8"
         inkscape:flatsided="false"
         sodipodi:sides="14"
         sodipodi:cx="333"
         sodipodi:cy="376"
         sodipodi:r1="57.306194"
         sodipodi:r2="39.646557"
         sodipodi:arg1="1.060308"
         sodipodi:arg2="1.281585"
         inkscape:rounded="0"
         inkscape:randomized="0"
         d="m 361,426 -16.69294,-12 -7.77412,19.19719 -9.83322,-18.05443 -15.33358,13.92301 -1.0259,-20.53295 -19.85605,5.89121 7.98461,-18.94467 -20.44578,-3.30743 15.41366,-13.60416 -16.98597,-11.85098 19.78986,-5.56919 -10.16188,-18.0473 20.24642,3.56883 L 305,326 l 16.69294,12 7.77412,-19.19719 9.83322,18.05443 15.33358,-13.92301 1.0259,20.53295 19.85605,-5.89121 -7.98461,18.94467 20.44578,3.30743 -15.41366,13.60416 16.98597,11.85098 -19.78986,5.56919 10.16188,18.0473 -20.24642,-3.56883 z"
         inkscape:transform-center-x="-2.0817816"
         inkscape:transform-center-y="-3.4544184" />
    </g>
  </g>
</svg>
