<?xml version="1.0" encoding="UTF-8" standalone="no"?>
<svg
   width="70"
   height="60"
   viewBox="0 0 70 60"
   version="1.1"
   id="svg1"
   sodipodi:docname="effect.merge-styles.svg"
   inkscape:version="1.4-dev (de72ba3c18, 2023-06-27, custom)"
   xmlns:inkscape="http://www.inkscape.org/namespaces/inkscape"
   xmlns:sodipodi="http://sodipodi.sourceforge.net/DTD/sodipodi-0.dtd"
   xmlns="http://www.w3.org/2000/svg"
   xmlns:svg="http://www.w3.org/2000/svg">
  <sodipodi:namedview
     id="namedview1"
     pagecolor="#ffffff"
     bordercolor="#000000"
     borderopacity="0.25"
     inkscape:showpageshadow="2"
     inkscape:pageopacity="0.0"
     inkscape:pagecheckerboard="0"
     inkscape:deskcolor="#d1d1d1"
     showgrid="true"
     inkscape:zoom="16.78712"
     inkscape:cx="36.873508"
     inkscape:cy="32.107949"
     inkscape:current-layer="layer1">
    <inkscape:grid
       id="grid1"
       units="px"
       originx="0"
       originy="0"
       spacingx="1"
       spacingy="1"
       empcolor="#0099e5"
       empopacity="0.30196078"
       color="#3f84a6"
       opacity="0.14901961"
       empspacing="5"
       dotted="false"
       gridanglex="30"
       gridanglez="30"
       visible="true" />
  </sodipodi:namedview>
  <defs
     id="defs1" />
  <g
     inkscape:label="effect.merge-styles"
     inkscape:groupmode="layer"
     id="layer1">
    <path
       style="fill:#5a9cfe;fill-rule:evenodd;stroke-miterlimit:5.5"
       d="M 35,21 H 17 l 4,32 14,4 z"
       id="path1"
       sodipodi:nodetypes="ccccc" />
    <path
       style="fill:#0b5cd5;fill-rule:evenodd;stroke-miterlimit:5.5"
       d="M 35,21 H 53 L 49,53 35,57 Z"
       id="path2"
       sodipodi:nodetypes="ccccc" />
    <path
       d="m 32.910832,48.633035 h -1.617367 q -1.930056,0 -3.137689,-1.078175 -1.196851,-1.067392 -1.196851,-3.09436 v -1.606479 q 0,-1.822115 -0.894942,-2.84638 -0.894943,-1.035048 -2.738739,-1.035048 h -0.549905 v -1.681951 h 0.549905 q 1.843796,0 2.738739,-1.024266 0.894942,-1.035047 0.894942,-2.857162 v -1.60648 q 0,-2.026967 1.196851,-3.09436 1.207633,-1.078174 3.137689,-1.078174 h 1.617367 v 1.487881 h -1.229199 q -1.466411,0 -2.134922,0.679249 -0.657729,0.67925 -0.657729,2.188694 v 1.886805 q 0,1.498662 -0.830248,2.522927 -0.830248,1.013484 -2.307442,1.60648 v 0.258762 q 1.477194,0.592996 2.307442,1.617262 0.830248,1.013483 0.830248,2.512145 v 1.886805 q 0,1.509445 0.657729,2.188694 0.668511,0.67925 2.134922,0.67925 h 1.229199 z m 14.168125,-9.660442 h -0.549904 q -1.843798,0 -2.73874,1.035048 -0.894942,1.024265 -0.894942,2.84638 V 44.4605 q 0,2.026968 -1.207634,3.09436 -1.19685,1.078175 -3.126907,1.078175 h -1.617366 v -1.487881 h 1.229198 q 1.466412,0 2.124141,-0.67925 0.668511,-0.679249 0.668511,-2.188694 v -1.886805 q 0,-1.498662 0.830248,-2.512145 0.830247,-1.024266 2.307441,-1.617262 v -0.258762 q -1.477194,-0.592996 -2.307441,-1.60648 -0.830248,-1.024265 -0.830248,-2.522927 v -1.886805 q 0,-1.509444 -0.668511,-2.188694 -0.657729,-0.679249 -2.124141,-0.679249 H 36.943464 V 27.6302 h 1.617366 q 1.930057,0 3.126907,1.078174 1.207634,1.067393 1.207634,3.09436 v 1.60648 q 0,1.822115 0.894942,2.857162 0.894942,1.024266 2.73874,1.024266 h 0.549904 z"
       id="text1"
       style="fill:#ffffff;stroke:#ffffff;stroke-width:0.3;stroke-linecap:square;stroke-linejoin:miter;stroke-miterlimit:10;stroke-dasharray:none"
       aria-label="{}" />
    <path
       d="m 19.156251,7.4312384 q 0,-0.3264434 0.124359,-0.6140245 0.12436,-0.2953535 0.341989,-0.5052099 0.217628,-0.2176289 0.50521,-0.3419883 0.295353,-0.1321319 0.621796,-0.1321319 h 6.046975 q 0.326443,0 0.614025,0.1321319 0.295353,0.1243594 0.512982,0.3419883 0.217629,0.2098564 0.341988,0.5052099 0.12436,0.2875811 0.12436,0.6140245 V 8.8691437 H 26.79658 V 7.4312384 h -6.046975 v 7.9589996 h 6.046975 v -1.430132 h 1.593355 v 1.430132 q 0,0.326444 -0.12436,0.621797 -0.124359,0.287581 -0.341988,0.50521 -0.217629,0.217629 -0.512982,0.341989 -0.287582,0.124359 -0.614025,0.124359 h -6.046975 q -0.326443,0 -0.621796,-0.124359 -0.287582,-0.12436 -0.50521,-0.341989 -0.217629,-0.217629 -0.341989,-0.50521 -0.124359,-0.295353 -0.124359,-0.621797 z m 13.376405,4.7800636 q -0.326443,0 -0.621797,-0.124359 -0.287581,-0.132132 -0.50521,-0.341989 -0.217629,-0.217629 -0.341988,-0.50521 -0.12436,-0.295353 -0.12436,-0.621797 V 7.4312384 q 0,-0.3264434 0.12436,-0.6140245 0.124359,-0.2953535 0.341988,-0.5052099 0.217629,-0.2176289 0.50521,-0.3419883 0.295354,-0.1321319 0.621797,-0.1321319 h 5.409633 q 0.326443,0 0.614024,0.1321319 0.295354,0.1243594 0.512983,0.3419883 0.217629,0.2098564 0.341988,0.5052099 0.124359,0.2875811 0.124359,0.6140245 V 8.8691437 H 37.942289 V 7.4312384 h -5.409633 v 3.1867086 h 5.409633 q 0.326443,0 0.614024,0.12436 0.295354,0.124359 0.512983,0.341988 0.217629,0.217629 0.341988,0.512982 0.124359,0.287582 0.124359,0.614025 v 3.178936 q 0,0.326444 -0.124359,0.621797 -0.124359,0.287581 -0.341988,0.50521 -0.217629,0.217629 -0.512983,0.341989 -0.287581,0.124359 -0.614024,0.124359 h -5.565082 q -0.326444,0 -0.621797,-0.124359 -0.287581,-0.12436 -0.50521,-0.341989 -0.217629,-0.217629 -0.341988,-0.50521 -0.12436,-0.295353 -0.12436,-0.621797 v -1.430132 h 1.593355 v 1.430132 h 5.565082 v -3.178936 z m 11.46438,0 q -0.326443,0 -0.621797,-0.124359 -0.287581,-0.132132 -0.50521,-0.341989 -0.217629,-0.217629 -0.341988,-0.50521 -0.124359,-0.295353 -0.124359,-0.621797 V 7.4312384 q 0,-0.3264434 0.124359,-0.6140245 0.124359,-0.2953535 0.341988,-0.5052099 0.217629,-0.2176289 0.50521,-0.3419883 0.295354,-0.1321319 0.621797,-0.1321319 h 5.409633 q 0.326443,0 0.614025,0.1321319 0.295353,0.1243594 0.512982,0.3419883 0.217629,0.2098564 0.341988,0.5052099 0.12436,0.2875811 0.12436,0.6140245 V 8.8691437 H 49.406669 V 7.4312384 h -5.409633 v 3.1867086 h 5.409633 q 0.326443,0 0.614025,0.12436 0.295353,0.124359 0.512982,0.341988 0.217629,0.217629 0.341988,0.512982 0.12436,0.287582 0.12436,0.614025 v 3.178936 q 0,0.326444 -0.12436,0.621797 -0.124359,0.287581 -0.341988,0.50521 -0.217629,0.217629 -0.512982,0.341989 -0.287582,0.124359 -0.614025,0.124359 h -5.565082 q -0.326443,0 -0.621797,-0.124359 -0.287581,-0.12436 -0.50521,-0.341989 -0.217629,-0.217629 -0.341988,-0.50521 -0.124359,-0.295353 -0.124359,-0.621797 v -1.430132 h 1.593354 v 1.430132 h 5.565082 v -3.178936 z"
       id="text2"
       style="stroke-linecap:square;stroke-linejoin:round;stroke-miterlimit:10"
       aria-label="CSS" />
  </g>
</svg>
