<?xml version="1.0" encoding="UTF-8" standalone="no"?>
<svg
   width="70"
   height="60"
   viewBox="0 0 70 60"
   version="1.1"
   id="svg1"
   sodipodi:docname="org.inkscape.filter.interp-att-g.svg"
   inkscape:version="1.4-dev (de72ba3c18, 2023-06-27, custom)"
   xmlns:inkscape="http://www.inkscape.org/namespaces/inkscape"
   xmlns:sodipodi="http://sodipodi.sourceforge.net/DTD/sodipodi-0.dtd"
   xmlns="http://www.w3.org/2000/svg"
   xmlns:svg="http://www.w3.org/2000/svg">
  <sodipodi:namedview
     id="namedview1"
     pagecolor="#ffffff"
     bordercolor="#000000"
     borderopacity="0.25"
     inkscape:showpageshadow="2"
     inkscape:pageopacity="0.0"
     inkscape:pagecheckerboard="0"
     inkscape:deskcolor="#d1d1d1"
     showgrid="false"
     inkscape:zoom="1"
     inkscape:cx="64"
     inkscape:cy="33"
     inkscape:current-layer="layer1">
    <inkscape:grid
       id="grid1"
       units="px"
       originx="0"
       originy="0"
       spacingx="1"
       spacingy="1"
       empcolor="#0099e5"
       empopacity="0.30196078"
       color="#3f84a6"
       opacity="0.14901961"
       empspacing="5"
       dotted="false"
       gridanglex="30"
       gridanglez="30"
       visible="false" />
  </sodipodi:namedview>
  <defs
     id="defs1" />
  <g
     inkscape:label="org.inkscape.filter.interp-att-g"
     inkscape:groupmode="layer"
     id="layer1">
    <g
       id="g20"
       transform="matrix(0.26929036,0,0,0.26928415,-108.74364,-13.309194)"
       style="stroke-width:3.71351">
      <path
         id="ellipse5"
         transform="translate(190,-1)"
         inkscape:transform-center-x="25.252525"
         inkscape:transform-center-y="-30.30303"
         d="m 398.98592,138.99718 c 0,39.72716 -14.52867,71.93239 -32.4507,71.93239 -17.92203,0 -32.45071,-32.20523 -32.45071,-71.93239 0,-39.727168 14.52868,-71.932399 32.45071,-71.932399 17.92203,0 32.4507,32.205231 32.4507,71.932399 z"
         style="fill:#ff0000;fill-rule:evenodd;stroke:#ffffff;stroke-width:1.11405;stroke-miterlimit:5.5" />
      <path
         transform="rotate(-32.9286,438.08816,-162.84999)"
         style="display:inline;fill:#ff1900;fill-rule:evenodd;stroke:#ffffff;stroke-width:1.11405;stroke-miterlimit:5.5"
         id="path10"
         d="m 398.98592,138.99718 c 0,39.72716 -14.52867,71.93239 -32.4507,71.93239 -17.92203,0 -32.45071,-32.20523 -32.45071,-71.93239 0,-39.727168 14.52868,-71.932399 32.45071,-71.932399 17.92203,0 32.4507,32.205231 32.4507,71.932399 z" />
      <path
         transform="rotate(-65.8572,439.00796,11.912961)"
         style="display:inline;fill:#ff3300;fill-rule:evenodd;stroke:#ffffff;stroke-width:1.11405;stroke-miterlimit:5.5"
         id="path11"
         d="m 398.98592,138.99718 c 0,39.72716 -14.52867,71.93239 -32.4507,71.93239 -17.92203,0 -32.45071,-32.20523 -32.45071,-71.93239 0,-39.727168 14.52868,-71.932399 32.45071,-71.932399 17.92203,0 32.4507,32.205231 32.4507,71.932399 z" />
      <path
         transform="rotate(-98.7858,439.35134,77.15473)"
         style="display:inline;fill:#ff4c00;fill-rule:evenodd;stroke:#ffffff;stroke-width:1.11405;stroke-miterlimit:5.5"
         id="path12"
         d="m 398.98592,138.99718 c 0,39.72716 -14.52867,71.93239 -32.4507,71.93239 -17.92203,0 -32.45071,-32.20523 -32.45071,-71.93239 0,-39.727168 14.52868,-71.932399 32.45071,-71.932399 17.92203,0 32.4507,32.205231 32.4507,71.932399 z" />
      <path
         transform="rotate(-131.7144,439.55589,116.01925)"
         style="display:inline;fill:#ff6600;fill-rule:evenodd;stroke:#ffffff;stroke-width:1.11405;stroke-miterlimit:5.5"
         id="path13"
         d="m 398.98592,138.99718 c 0,39.72716 -14.52867,71.93239 -32.4507,71.93239 -17.92203,0 -32.45071,-32.20523 -32.45071,-71.93239 0,-39.727168 14.52868,-71.932399 32.45071,-71.932399 17.92203,0 32.4507,32.205231 32.4507,71.932399 z" />
      <path
         transform="rotate(-164.643,439.71259,145.79179)"
         style="display:inline;fill:#ff7f00;fill-rule:evenodd;stroke:#ffffff;stroke-width:1.11405;stroke-miterlimit:5.5"
         id="path14"
         d="m 398.98592,138.99718 c 0,39.72716 -14.52867,71.93239 -32.4507,71.93239 -17.92203,0 -32.45071,-32.20523 -32.45071,-71.93239 0,-39.727168 14.52868,-71.932399 32.45071,-71.932399 17.92203,0 32.4507,32.205231 32.4507,71.932399 z" />
      <path
         transform="rotate(162.4284,439.85728,173.28267)"
         style="display:inline;fill:#ff9900;fill-rule:evenodd;stroke:#ffffff;stroke-width:1.11405;stroke-miterlimit:5.5"
         id="path15"
         d="m 398.98592,138.99718 c 0,39.72716 -14.52867,71.93239 -32.4507,71.93239 -17.92203,0 -32.45071,-32.20523 -32.45071,-71.93239 0,-39.727168 14.52868,-71.932399 32.45071,-71.932399 17.92203,0 32.4507,32.205231 32.4507,71.932399 z" />
      <path
         transform="rotate(129.4998,440.01582,203.40511)"
         style="display:inline;fill:#ffb200;fill-rule:evenodd;stroke:#ffffff;stroke-width:1.11405;stroke-miterlimit:5.5"
         id="path16"
         d="m 398.98592,138.99718 c 0,39.72716 -14.52867,71.93239 -32.4507,71.93239 -17.92203,0 -32.45071,-32.20523 -32.45071,-71.93239 0,-39.727168 14.52868,-71.932399 32.45071,-71.932399 17.92203,0 32.4507,32.205231 32.4507,71.932399 z" />
      <path
         transform="rotate(96.5712,440.22571,243.28475)"
         style="display:inline;fill:#ffcc00;fill-rule:evenodd;stroke:#ffffff;stroke-width:1.11405;stroke-miterlimit:5.5"
         id="path17"
         d="m 398.98592,138.99718 c 0,39.72716 -14.52867,71.93239 -32.4507,71.93239 -17.92203,0 -32.45071,-32.20523 -32.45071,-71.93239 0,-39.727168 14.52868,-71.932399 32.45071,-71.932399 17.92203,0 32.4507,32.205231 32.4507,71.932399 z" />
      <path
         transform="rotate(63.6426,440.58575,311.69221)"
         style="display:inline;fill:#ffe500;fill-rule:evenodd;stroke:#ffffff;stroke-width:1.11405;stroke-miterlimit:5.5"
         id="path18"
         d="m 398.98592,138.99718 c 0,39.72716 -14.52867,71.93239 -32.4507,71.93239 -17.92203,0 -32.45071,-32.20523 -32.45071,-71.93239 0,-39.727168 14.52868,-71.932399 32.45071,-71.932399 17.92203,0 32.4507,32.205231 32.4507,71.932399 z" />
      <path
         transform="rotate(30.714,441.60057,504.5091)"
         style="display:inline;fill:#ffff00;fill-rule:evenodd;stroke:#ffffff;stroke-width:1.11405;stroke-miterlimit:5.5"
         id="path19"
         d="m 398.98592,138.99718 c 0,39.72716 -14.52867,71.93239 -32.4507,71.93239 -17.92203,0 -32.45071,-32.20523 -32.45071,-71.93239 0,-39.727168 14.52868,-71.932399 32.45071,-71.932399 17.92203,0 32.4507,32.205231 32.4507,71.932399 z" />
    </g>
  </g>
</svg>
