<?xml version="1.0" encoding="UTF-8" standalone="no"?><svg
   width="70"
   height="60"
   viewBox="0 0 70 60"
   version="1.1"
   id="svg1"
   sodipodi:docname="org.inkscape.filter.number-nodes.svg"
   inkscape:version="1.4-dev (de72ba3c18, 2023-06-27, custom)"
   xmlns:inkscape="http://www.inkscape.org/namespaces/inkscape"
   xmlns:sodipodi="http://sodipodi.sourceforge.net/DTD/sodipodi-0.dtd"
   xmlns="http://www.w3.org/2000/svg"
   xmlns:svg="http://www.w3.org/2000/svg">
  <sodipodi:namedview
     id="namedview1"
     pagecolor="#ffffff"
     bordercolor="#000000"
     borderopacity="0.25"
     inkscape:showpageshadow="2"
     inkscape:pageopacity="0.0"
     inkscape:pagecheckerboard="0"
     inkscape:deskcolor="#d1d1d1"
     showgrid="false"
     inkscape:zoom="1"
     inkscape:cx="65"
     inkscape:cy="33"
     inkscape:current-layer="svg1" />
  <defs
     id="defs1" />
  <path
     style="fill:none;fill-rule:evenodd;stroke:#a8cbfe;stroke-width:1;stroke-miterlimit:5.5;stroke-dasharray:none;stroke-opacity:0.62272727"
     d="M 6.0665823,53.017716 16.908985,34.817969 35.108732,21.394043 54.72968,12.164412"
     id="path8"
     sodipodi:nodetypes="cccc" />
  <g
     inkscape:label="org.inkscape.filter.number-nodes"
     inkscape:groupmode="layer"
     id="layer1">
    <g
       id="g8"
       transform="translate(0,1)"
       style="fill:#202020">
      <g
         id="g4"
         style="fill:#202020">
        <path
           id="circle1"
           d="m 7.6956587,52.275867 a 1.5,1.5 0 0 1 -1.5,1.5 1.5,1.5 0 0 1 -1.5,-1.5 1.5,1.5 0 0 1 1.5,-1.5 1.5,1.5 0 0 1 1.5,1.5 z"
           style="fill:#202020" />
        <path
           id="circle2"
           d="m 18.538061,34.076122 a 1.5,1.5 0 0 1 -1.5,1.5 1.5,1.5 0 0 1 -1.5,-1.5 1.5,1.5 0 0 1 1.5,-1.5 1.5,1.5 0 0 1 1.5,1.5 z"
           style="fill:#202020" />
        <path
           id="circle3"
           d="m 36.350578,20.523119 a 1.5,1.5 0 0 1 -1.5,1.5 1.5,1.5 0 0 1 -1.5,-1.5 1.5,1.5 0 0 1 1.5,-1.5 1.5,1.5 0 0 1 1.5,1.5 z"
           style="fill:#202020" />
        <path
           id="circle4"
           d="m 56.229679,11.035336 a 1.5,1.5 0 0 1 -1.5,1.5 1.5,1.5 0 0 1 -1.5,-1.5 1.5,1.5 0 0 1 1.5,-1.5000005 1.5,1.5 0 0 1 1.5,1.5000005 z"
           style="fill:#202020" />
      </g>
      <g
         id="g7"
         style="fill:#202020">
        <path
           d="M 12.988627,50.775867 H 9.0530806 V 50.03368 H 10.566752 V 45.160633 H 9.0530806 v -0.664062 q 0.3076171,0 0.6591796,-0.04883 0.3515628,-0.05371 0.5322268,-0.151367 0.224609,-0.12207 0.351562,-0.307617 0.131836,-0.19043 0.151367,-0.507812 h 0.756836 v 6.552734 h 1.484375 z"
           id="text4"
           style="font-size:10px;fill:#202020"
           aria-label="1" />
        <path
           d="m 24.246069,32.576122 h -4.921875 v -1.020508 q 0.512695,-0.439453 1.025391,-0.878906 0.517578,-0.439453 0.961914,-0.874023 0.9375,-0.908203 1.284179,-1.44043 0.34668,-0.537109 0.34668,-1.157226 0,-0.566407 -0.375977,-0.88379 -0.371093,-0.322265 -1.040039,-0.322265 -0.444336,0 -0.961914,0.15625 -0.517578,0.15625 -1.010742,0.478515 h -0.04883 v -1.02539 q 0.34668,-0.170899 0.922852,-0.3125 0.581054,-0.141602 1.123046,-0.141602 1.118165,0 1.75293,0.541992 0.634766,0.53711 0.634766,1.459961 0,0.415039 -0.107422,0.776368 -0.102539,0.356445 -0.307617,0.678711 -0.19043,0.302734 -0.449219,0.595703 -0.253906,0.292968 -0.620117,0.649414 -0.522461,0.512695 -1.079102,0.996093 -0.55664,0.478516 -1.040039,0.888672 h 3.911133 z"
           id="text5"
           style="font-size:10px;fill:#202020"
           aria-label="2" />
        <path
           d="m 41.418938,15.522142 q 0.234375,0.209961 0.385742,0.527344 0.151367,0.317383 0.151367,0.820313 0,0.498047 -0.180664,0.913086 -0.180664,0.415039 -0.507813,0.722656 -0.36621,0.341797 -0.864257,0.507812 -0.493164,0.161133 -1.083985,0.161133 -0.605468,0 -1.191406,-0.146484 -0.585937,-0.141602 -0.961914,-0.3125 v -1.020508 h 0.07324 q 0.415039,0.273437 0.976563,0.454102 0.561523,0.180664 1.083984,0.180664 0.307617,0 0.654297,-0.102539 0.34668,-0.10254 0.561523,-0.302735 0.22461,-0.214844 0.332032,-0.473633 0.112304,-0.258789 0.112304,-0.654297 0,-0.390625 -0.126953,-0.644531 -0.12207,-0.258789 -0.341797,-0.405273 -0.219726,-0.151367 -0.532226,-0.205078 -0.3125,-0.05859 -0.673828,-0.05859 h -0.439454 v -0.810547 h 0.341797 q 0.742188,0 1.181641,-0.307617 0.444336,-0.3125 0.444336,-0.908203 0,-0.263672 -0.112305,-0.458985 -0.112304,-0.200195 -0.3125,-0.327148 -0.209961,-0.126953 -0.449219,-0.175781 -0.239257,-0.04883 -0.541992,-0.04883 -0.463867,0 -0.986328,0.166015 -0.522461,0.166016 -0.986328,0.46875 h -0.04883 V 12.06023 q 0.34668,-0.170898 0.922851,-0.3125 0.581055,-0.146484 1.123047,-0.146484 0.532227,0 0.9375,0.09766 0.405274,0.09766 0.732422,0.3125 0.351563,0.234375 0.532227,0.566406 0.180664,0.332032 0.180664,0.776368 0,0.605468 -0.429688,1.05957 -0.424804,0.449219 -1.005859,0.566406 v 0.06836 q 0.234375,0.03906 0.537109,0.166015 0.302735,0.122071 0.512696,0.307617 z"
           id="text6"
           style="font-size:10px;fill:#202020"
           aria-label="3" />
        <path
           d="m 64.103703,8.4894366 h -1.079102 v 2.0458984 h -0.9375 V 8.4894366 H 58.605656 V 7.3663898 l 3.520507,-4.1015625 h 0.898438 v 4.4433593 h 1.079102 z m -2.016602,-0.78125 v -3.28125 l -2.817383,3.28125 z"
           id="text7"
           style="font-size:10px;fill:#202020"
           aria-label="4" />
      </g>
    </g>
  </g>
</svg>
