<?xml version="1.0" encoding="UTF-8" standalone="no"?>
<svg
   width="70"
   height="60"
   viewBox="0 0 70 60"
   version="1.1"
   id="svg1"
   sodipodi:docname="org.inkscape.web.slicer.export.svg"
   inkscape:version="1.4-dev (c7ae68bff4, 2023-06-30, custom)"
   xmlns:inkscape="http://www.inkscape.org/namespaces/inkscape"
   xmlns:sodipodi="http://sodipodi.sourceforge.net/DTD/sodipodi-0.dtd"
   xmlns="http://www.w3.org/2000/svg"
   xmlns:svg="http://www.w3.org/2000/svg">
  <sodipodi:namedview
     id="namedview1"
     pagecolor="#ffffff"
     bordercolor="#000000"
     borderopacity="0.25"
     inkscape:showpageshadow="2"
     inkscape:pageopacity="0.0"
     inkscape:pagecheckerboard="0"
     inkscape:deskcolor="#d1d1d1"
     showgrid="true"
     inkscape:zoom="4.7831922"
     inkscape:cx="53.938873"
     inkscape:cy="27.387568"
     inkscape:current-layer="layer1">
    <inkscape:grid
       id="grid1"
       units="px"
       originx="0"
       originy="0"
       spacingx="1"
       spacingy="1"
       empcolor="#0099e5"
       empopacity="0.30196078"
       color="#3f84a6"
       opacity="0.14901961"
       empspacing="5"
       dotted="false"
       gridanglex="30"
       gridanglez="30"
       visible="true" />
  </sodipodi:namedview>
  <defs
     id="defs1" />
  <g
     inkscape:label="org.inkscape.web.slicer.export"
     inkscape:groupmode="layer"
     id="layer1">
    <g
       id="g2">
      <rect
         style="fill:#c0c0c0;fill-rule:evenodd;stroke:none;stroke-linecap:round;stroke-miterlimit:3.3"
         id="rect1"
         width="25"
         height="20"
         x="9"
         y="9" />
      <rect
         style="fill:#c0c0c0;fill-rule:evenodd;stroke:none;stroke-linecap:round;stroke-miterlimit:3.3"
         id="rect2"
         width="25"
         height="20"
         x="36"
         y="9" />
      <rect
         style="fill:#c0c0c0;fill-rule:evenodd;stroke:none;stroke-linecap:round;stroke-miterlimit:3.3"
         id="rect3"
         width="25"
         height="20"
         x="9"
         y="31" />
      <rect
         style="fill:#c0c0c0;fill-rule:evenodd;stroke:none;stroke-linecap:round;stroke-miterlimit:3.3"
         id="rect4"
         width="25"
         height="20"
         x="36"
         y="31" />
    </g>
    <rect
       style="fill:#ffffff;fill-rule:evenodd;stroke-linecap:round;stroke-miterlimit:3.3"
       id="rect5"
       width="12"
       height="15"
       x="50"
       y="38" />
    <path
       style="fill:#000000;stroke-width:0.999997"
       d="m 48.607444,53.999762 c -0.355984,-0.02668 -0.641007,-0.374166 -0.604246,-0.726717 0,-4.892913 0,-9.785829 0,-14.678741 0.03806,-0.342275 0.366947,-0.623807 0.712035,-0.591822 1.181598,-6.89e-4 2.363195,-0.0014 3.544793,-0.0021 0,1.747488 0,3.494976 0,5.242464 2.494783,0 4.989566,0 7.484349,0 0,-1.747461 0,-3.49492 0,-5.24238 0.750798,0 1.501595,0 2.252392,0 0.668848,0.668849 1.337697,1.337701 2.006543,2.006553 -6.68e-4,4.468651 -0.0015,8.937301 -0.0021,13.405952 -0.041,0.340315 -0.368165,0.619633 -0.712032,0.587594 -4.893888,-5.2e-5 -9.787911,0.0016 -14.681699,-7.99e-4 z m 11.572407,-1.274427 c 0.313901,-0.03963 0.557179,-0.350522 0.522471,-0.664626 0.0038,-1.562001 0.007,-3.124065 7.08e-4,-4.686048 -0.01335,-0.319652 -0.315948,-0.598425 -0.63774,-0.56798 -2.720087,-0.0046 -5.440215,-0.0052 -8.160298,4.28e-4 -0.348579,-0.01685 -0.641382,0.32666 -0.605011,0.667075 -0.0017,1.574849 -0.0054,3.149812 0.0048,4.724603 0.03638,0.308184 0.334534,0.560431 0.646373,0.528939 2.714279,0.0047 5.428598,0.0062 8.142873,2.67e-4 0.02862,-5.34e-4 0.05734,-5.34e-4 0.0858,-0.0027 z m -3.035284,-9.972276 c -0.244751,-0.05244 -0.204076,-0.333438 -0.203858,-0.520598 0.0013,-1.178321 -0.007,-2.356845 0.0046,-3.53504 0.03062,-0.207031 0.263366,-0.231746 0.43156,-0.212686 0.461036,0.0028 0.924195,-0.0048 1.384306,0.0048 0.215397,0.0521 0.205996,0.294013 0.196739,0.46816 -2.93e-4,1.194952 0.0088,2.390148 -0.0031,3.58495 -0.02299,0.148341 -0.175796,0.239325 -0.317561,0.214765 -0.497555,-0.0017 -0.995438,0.0064 -1.492782,-0.0044 z"
       id="path3" />
  </g>
</svg>
