<?xml version="1.0" encoding="UTF-8" standalone="no"?>
<svg
   width="70"
   height="60"
   viewBox="0 0 70 60"
   version="1.1"
   id="svg1"
   sodipodi:docname="org.inkscape.generate.pdf-latex.svg"
   xml:space="preserve"
   inkscape:version="1.4-dev (f25ce46d5c, 2023-06-29)"
   xmlns:inkscape="http://www.inkscape.org/namespaces/inkscape"
   xmlns:sodipodi="http://sodipodi.sourceforge.net/DTD/sodipodi-0.dtd"
   xmlns="http://www.w3.org/2000/svg"
   xmlns:svg="http://www.w3.org/2000/svg"><sodipodi:namedview
     id="namedview1"
     pagecolor="#ffffff"
     bordercolor="#000000"
     borderopacity="0.25"
     inkscape:showpageshadow="2"
     inkscape:pageopacity="0.0"
     inkscape:pagecheckerboard="0"
     inkscape:deskcolor="#d1d1d1"
     showgrid="true"
     inkscape:zoom="2.425362"
     inkscape:cx="-15.667764"
     inkscape:cy="28.861671"
     inkscape:current-layer="layer1"><inkscape:grid
       id="grid1"
       units="px"
       originx="0"
       originy="0"
       spacingx="1"
       spacingy="1"
       empcolor="#0099e5"
       empopacity="0.30196078"
       color="#3f84a6"
       opacity="0.14901961"
       empspacing="5"
       dotted="false"
       gridanglex="30"
       gridanglez="30"
       visible="true" /></sodipodi:namedview><defs
     id="defs1" /><g
     inkscape:label="org.inkscape.generate.pdf-latex"
     inkscape:groupmode="layer"
     id="layer1"><path
       style="fill:#000000;stroke-width:0.999999"
       d="m 35.096562,41.896788 c 0.0012,-0.198707 -0.068,-0.467878 0.224336,-0.376046 0.67858,-0.0205 1.416795,0.06527 2.026469,-0.277811 0.209713,-0.522046 0.109658,-1.118686 0.153226,-1.671418 0.01311,-3.964025 0.02725,-7.928533 -0.01871,-11.892368 0.183255,-0.702214 -0.527326,-1.066822 -1.133069,-1.003684 -0.417341,-0.01331 -0.834829,-0.02136 -1.25224,-0.032 0,-0.246234 0,-0.492468 0,-0.738702 0.589623,0 1.17925,0 1.768874,0 -0.171184,-1.190992 -0.15848,-2.475946 -0.8045,-3.533492 -0.568165,-0.877639 -1.699056,-1.037207 -2.660078,-1.047645 -0.788919,-0.01143 -1.592679,-0.092 -2.372484,0.04808 -0.461534,0.326886 -0.193361,1.102894 -0.293064,1.606003 -0.01983,3.902839 -0.02083,7.806047 0.0029,11.708871 -0.0542,0.531889 0.03031,1.228316 0.706627,1.26894 0.923555,0.153426 1.864857,0.119427 2.797644,0.162534 -0.01046,0.230226 -0.02089,0.460453 -0.03135,0.690679 -2.942232,-0.05539 -5.885748,-0.03885 -8.828047,0.0012 -0.312135,0.136703 -0.28393,-0.08765 -0.268093,-0.326464 -8.84e-4,-0.19768 -0.06517,-0.457008 0.224248,-0.372456 0.92558,-0.04945 1.874852,0.02801 2.773691,-0.228196 0.588047,-0.130306 0.406884,-0.851262 0.46775,-1.294867 0.04373,-3.605805 0.01718,-7.21227 0.01842,-10.818319 -0.02437,-0.741843 0.03379,-1.497597 -0.119573,-2.227166 -0.377992,-0.394096 -1.07235,-0.17801 -1.577611,-0.243914 -1.065426,0.0488 -2.230699,-0.07293 -3.163742,0.545313 -0.891387,0.656832 -1.017088,1.84735 -1.170305,2.859717 -0.178747,0.385703 0.156025,1.380616 -0.503478,1.240386 -0.2955,0.07593 -0.16375,-0.218339 -0.166861,-0.395756 0.133361,-1.661037 0.266719,-3.322072 0.400078,-4.983108 4.900666,0 9.801332,0 14.702,0 0.151871,1.76637 0.304548,3.532671 0.455455,5.299124 3.436479,0.07533 6.874881,0.04752 10.312264,0.06531 0.274398,6.78e-4 0.548796,0.0014 0.823194,0.002 0.225653,1.797771 0.445717,3.59626 0.677213,5.393287 -0.374477,0.0534 -0.743073,-0.02698 -0.669953,-0.512677 -0.172572,-1.222962 -0.392477,-2.62702 -1.438716,-3.429413 -1.10936,-0.81236 -2.553804,-0.698341 -3.854642,-0.723527 -1.076643,0.0054 -2.156866,-0.02724 -3.230945,0.05343 -0.560517,0.168833 -0.309613,0.93343 -0.389186,1.384313 -0.01771,1.755646 -0.02042,3.511419 -0.03101,5.267124 1.158611,-0.02171 2.326261,0.0632 3.476092,-0.105087 0.721188,-0.117029 1.204648,-0.803781 1.244067,-1.505889 0.06557,-0.389916 0.05946,-0.785723 0.06079,-1.179585 0.19677,0 0.39354,0 0.59031,0 0,2.128694 0,4.257387 0,6.38608 -0.19677,0 -0.39354,0 -0.59031,0 -0.0018,-0.823397 0.02413,-1.775981 -0.628027,-2.382599 -0.698306,-0.542695 -1.638238,-0.390396 -2.463364,-0.433311 -0.552641,-7.96e-4 -1.105282,-9.43e-4 -1.657923,-0.0015 0.01011,2.199255 -0.0256,4.399281 0.02899,6.597896 -0.142905,0.76358 0.647402,0.772048 1.183605,0.748411 1.503881,0.02234 3.015337,0.08717 4.514683,-0.05544 1.101685,-0.119278 2.25356,-0.58821 2.834978,-1.585271 0.546869,-0.896753 0.74287,-1.949732 0.963208,-2.961751 -0.353207,-0.05779 -0.715769,-0.02529 -1.07329,-0.03379 0,-0.245135 0,-0.490271 0,-0.735406 1.022404,-0.09338 2.153051,-0.203425 2.907373,-0.978541 0.984348,-1.13871 1.758261,-2.439804 2.619119,-3.670895 0.626974,-0.928978 1.253952,-1.857956 1.880927,-2.786934 -1.523123,-2.356695 -3.071874,-4.698304 -4.67175,-7.003582 -0.545208,-0.580531 -1.418148,-0.520909 -2.148443,-0.548252 -0.248891,0.04646 -0.38636,-0.0185 -0.318858,-0.288435 0.01759,-0.173954 -0.08921,-0.472308 0.192285,-0.382371 2.154029,0 4.308058,0 6.462087,0 8e-6,0.217248 2e-5,0.434496 3.2e-5,0.651744 -0.54704,0.07972 -1.176543,0.172315 -1.521842,0.648681 0.06696,0.563081 0.599577,1.015197 0.856774,1.52671 0.787843,1.181281 1.557413,2.376232 2.381894,3.532113 0.969629,-1.331482 1.876399,-2.710512 2.785577,-4.084333 0.412237,-0.526778 0.0041,-1.27927 -0.582196,-1.450286 -0.160692,-0.189197 -0.715354,0.0054 -0.700334,-0.294169 0.0218,-0.174628 -0.0435,-0.436391 0.03205,-0.557293 1.903352,0 3.806704,0 5.710059,0 0,0.225329 0,0.450657 0,0.675986 -1.051231,0.08958 -2.20623,0.202218 -2.981742,1.002662 -0.758684,0.902704 -1.389854,1.907463 -2.077371,2.865245 -0.578268,0.851647 -1.187986,1.684828 -1.719012,2.566659 1.476527,2.334188 3.034078,4.617034 4.550266,6.925887 0.42895,0.575519 0.769847,1.371769 1.552847,1.514845 0.540413,0.106026 1.09306,0.104951 1.640972,0.135315 -0.05209,0.233162 0.159354,0.798691 -0.224708,0.700525 -2.124297,-0.05922 -4.252571,-0.09666 -6.376117,0.0074 3e-5,-0.239298 5.6e-5,-0.478596 1.09e-4,-0.717895 0.544312,-0.07833 1.193361,-0.130627 1.520519,-0.634011 -0.05595,-0.510753 -0.542626,-0.951282 -0.788453,-1.425874 -1.026216,-1.553485 -2.02791,-3.126233 -3.11592,-4.636761 -1.160402,1.636251 -2.284402,3.300236 -3.376425,4.983117 -0.398202,0.435263 -0.264431,1.1305 0.248054,1.402734 0.297668,0.202219 0.657352,0.257601 1.004404,0.315687 0,0.246612 0,0.493224 0,0.739836 -1.354662,0 -2.709324,0 -4.063989,0 -0.296243,1.806706 -0.592485,3.613412 -0.888727,5.420118 -4.609957,0 -9.219917,0 -13.829873,0 0,-0.125217 0,-0.250435 0,-0.375652 z M 4.8834242,36.48521 C 4.8828349,36.287374 4.8178732,36.027574 5.107593,36.108899 5.752092,36.064039 6.431017,36.129929 7.034398,35.865001 7.508291,35.49847 7.228198,34.781512 7.3198,34.261279 7.33745,30.117965 7.36681,25.974024 7.323,21.830941 7.222319,21.148653 6.428439,21.18083 5.902725,21.152607 c -0.339689,-0.01517 -0.679538,-0.02656 -1.0192981,-0.04002 3e-6,-0.218259 3e-6,-0.436518 5.9e-6,-0.654777 2.5580112,0 5.1160182,0 7.6740292,0 -3e-6,0.218376 -6e-6,0.436753 -6e-6,0.655129 -0.858296,0.04904 -1.737804,-0.02376 -2.573105,0.206902 -0.202539,0.106756 -0.521668,0.262717 -0.459382,0.539761 -8.84e-4,4.480219 -0.04663,8.960728 0.0041,13.440726 -0.16058,0.734088 0.638342,0.819521 1.171357,0.779181 1.454329,-2.68e-4 2.989268,0.15659 4.351738,-0.459433 1.158186,-0.494959 1.833087,-1.678358 2.093693,-2.86257 0.175983,-0.698169 0.243275,-1.41605 0.318372,-2.130266 0.199828,0 0.399657,0 0.599485,0 -0.212716,2.066483 -0.43105,4.132382 -0.649603,6.198254 -4.176888,0.0091 -8.353779,0.01818 -12.5306702,0.02728 0,-0.122519 0,-0.245038 0,-0.367557 z m 6.0104288,-4.784684 c -0.03083,-0.223619 -0.01709,-0.402672 0.256387,-0.321988 0.766689,0.0113 1.520634,-0.495806 1.712811,-1.253179 1.329939,-3.266575 2.563078,-6.572588 3.937723,-9.820794 0.2858,-0.676997 0.937866,-0.07805 0.956734,0.427611 1.435004,3.429209 2.721225,6.919508 4.187148,10.33563 0.268249,0.392459 0.836567,0.283871 1.256256,0.310549 0.249755,-0.05209 0.367147,0.02811 0.304107,0.288619 -0.0122,0.170415 0.08097,0.446188 -0.192289,0.355539 -1.510065,0 -3.020128,0 -4.53019,0 0,-0.210282 0,-0.420564 0,-0.630846 0.426139,-0.04172 0.91378,0.03871 1.265025,-0.250729 0.148456,-0.493861 -0.257259,-1.003854 -0.37918,-1.490287 -0.193293,-0.497534 -0.387703,-0.994632 -0.581459,-1.491985 -1.595127,1.61e-4 -3.190251,2.68e-4 -4.785374,4.42e-4 -0.302795,0.80546 -0.67572,1.59048 -0.885466,2.426373 0.0279,0.545492 0.592411,0.798651 1.074528,0.797125 0.217595,-0.0025 0.05704,0.336134 0.106093,0.485682 0.0694,0.270369 -0.289339,0.112605 -0.448679,0.154238 -1.084725,0 -2.16945,0 -3.254175,0 0,-0.10733 0,-0.214659 0,-0.321988 z m 7.933407,-4.181005 c -0.696753,-1.796126 -1.404149,-3.588629 -2.137638,-5.370007 -0.742172,1.778834 -1.429853,3.580253 -2.137635,5.373094 1.371662,0.07377 2.750821,0.05276 4.124628,0.0167 l 0.114007,-0.0094 z"
       id="path1" /></g></svg>
