<?xml version="1.0" encoding="UTF-8" standalone="no"?>
<svg
   width="70"
   height="60"
   viewBox="0 0 70 60"
   version="1.1"
   id="svg1"
   sodipodi:docname="org.inkscape.text.lowercase.svg"
   inkscape:version="1.4-dev (e93d6aa925, 2023-06-29, custom)"
   xmlns:inkscape="http://www.inkscape.org/namespaces/inkscape"
   xmlns:sodipodi="http://sodipodi.sourceforge.net/DTD/sodipodi-0.dtd"
   xmlns:xlink="http://www.w3.org/1999/xlink"
   xmlns="http://www.w3.org/2000/svg"
   xmlns:svg="http://www.w3.org/2000/svg">
  <sodipodi:namedview
     id="namedview1"
     pagecolor="#ffffff"
     bordercolor="#000000"
     borderopacity="0.25"
     inkscape:showpageshadow="2"
     inkscape:pageopacity="0.0"
     inkscape:pagecheckerboard="0"
     inkscape:deskcolor="#d1d1d1"
     inkscape:zoom="2.116588"
     inkscape:cx="-31.182261"
     inkscape:cy="38.269139"
     inkscape:current-layer="layer1" />
  <defs
     id="defs1" />
  <g
     inkscape:label="org.inkscape.text.lowercase"
     inkscape:groupmode="layer"
     id="layer1">
    <image
       preserveAspectRatio="none"
       inkscape:svg-dpi="192"
       width="70"
       height="60"
       xlink:href="_notepad-page-icon.svg"
       id="image1"
       x="0"
       y="0"
       sodipodi:insensitive="true" />
    <g
       id="text3"
       style="font-size:18.6667px;line-height:1.07;font-family:'Kaushan Script';-inkscape-font-specification:'Kaushan Script, Normal';font-variant-ligatures:none;stroke-linecap:square;stroke-linejoin:round;stroke-miterlimit:10"
       aria-label="abcd&#10;wxyz">
      <path
         d="m 25.869345,17.384011 q 0.186667,0 0.429334,0.07467 0.261334,0.056 0.466668,0.168 0.205334,0.09333 0.336001,0.205334 0.149333,0.112 0.149333,0.205333 -0.373334,0.784002 -0.690668,1.58667 -0.317334,0.784001 -0.541334,1.512003 -0.224,0.728001 -0.354667,1.362669 -0.112001,0.634668 -0.112001,1.101335 0,0.522668 0.112001,0.877335 0.112,0.336001 0.373334,0.485334 -0.224001,0.149334 -0.578668,0.242667 -0.354667,0.09333 -0.634668,0.09333 -1.008002,0 -1.008002,-1.381336 0,-1.064002 0.709335,-2.912005 -0.373334,0.858668 -0.858668,1.624003 -0.485335,0.746668 -0.989335,1.325335 -0.504001,0.578668 -1.026669,0.952002 -0.504001,0.354667 -0.933335,0.429334 -0.690668,-0.03733 -1.120002,-0.653334 Q 19.168,24.048023 19.168,23.077354 q 0,-1.045335 0.448001,-2.20267 0.448001,-1.157336 1.138668,-2.146671 0.709335,-0.989335 1.53067,-1.642669 0.821335,-0.672002 1.586669,-0.709335 0.186667,0.056 0.410668,0.224 0.242667,0.168001 0.448001,0.392001 0.224,0.224001 0.373334,0.466668 0.149333,0.224 0.168,0.392 -0.746668,0.112001 -1.549336,0.728002 -0.784002,0.616001 -1.437336,1.493336 -0.634668,0.858668 -1.045335,1.848003 -0.410668,0.989335 -0.410668,1.848003 0,0.354668 0.261334,0.448001 0.541334,-0.112 1.250669,-0.914668 0.709335,-0.821335 1.717336,-2.520005 0.186667,-0.336 0.410668,-0.746668 0.242667,-0.410667 0.485334,-0.858668 0.242667,-0.448001 0.466668,-0.896002 0.242667,-0.466667 0.448,-0.896001 z m 3.901339,7.672014 q 0.858668,-0.578668 1.680003,-1.47467 0.821335,-0.914668 1.493336,-1.960003 0.672001,-1.064002 1.138669,-2.202671 0.466667,-1.138669 0.634668,-2.184004 0,-0.224 -0.242667,-0.298667 -0.261334,0 -0.728002,0.466668 -0.448001,0.448 -1.008002,1.157335 -0.541334,0.709335 -1.120002,1.58667 -0.560001,0.877334 -1.026668,1.754669 -0.466668,0.858669 -0.802668,1.624003 -0.317334,0.746668 -0.354668,1.213336 -0.186667,0 -0.317333,-0.373334 -0.03733,-0.09333 -0.130667,-0.186667 -0.09333,-0.112 -0.298668,-0.261334 -0.09333,-0.07467 -0.186667,-0.168 -0.09333,-0.112001 -0.130666,-0.186667 -0.07467,-0.149334 -0.07467,-0.485335 0,-1.101335 0.28,-2.482671 0.280001,-1.381335 0.728002,-2.818671 0.466667,-1.437336 1.082668,-2.818672 0.616001,-1.400003 1.269336,-2.557338 0.672001,-1.157336 1.344002,-1.960004 0.672001,-0.8026678 1.269336,-1.0640016 0.186667,0.056 0.448001,0.186667 0.261333,0.1306669 0.522667,0.2986672 0.261334,0.1680004 0.485334,0.3360004 0.242668,0.168001 0.354668,0.298667 -2.053337,1.661337 -3.56534,4.274675 -1.493336,2.594671 -2.445338,6.141344 0.522668,-0.970668 1.176002,-1.86667 0.653335,-0.914668 1.288003,-1.605336 0.653334,-0.690668 1.232002,-1.101335 0.597334,-0.410668 0.989335,-0.410668 0.298667,0.07467 0.578668,0.261334 0.28,0.186667 0.504001,0.466668 0.224,0.261333 0.373334,0.578667 0.149333,0.298667 0.186667,0.634668 -0.01867,0.784001 -0.280001,1.680003 -0.242667,0.877335 -0.672001,1.736003 -0.410667,0.858668 -0.952002,1.64267 -0.522667,0.784001 -1.120002,1.381336 -0.578667,0.578667 -1.176002,0.933335 -0.578668,0.354667 -1.101335,0.354667 -0.224001,0 -0.466668,-0.056 -0.224,-0.03733 -0.429334,-0.130667 -0.186667,-0.07467 -0.317334,-0.168 -0.112,-0.09333 -0.112,-0.186667 z m 7.20535,-3.416006 q 0,-1.064002 0.429334,-2.053337 0.448001,-1.008002 1.157335,-1.773337 0.728002,-0.784001 1.64267,-1.250669 0.933335,-0.485334 1.92267,-0.485334 0.970669,0 1.493336,0.485334 0.522668,0.485334 0.522668,1.381336 0,0.429334 -0.130667,0.840001 -0.112,0.392001 -0.317334,0.709335 -0.186667,0.317334 -0.448001,0.522668 -0.261334,0.186667 -0.522667,0.186667 -0.224001,0 -0.466668,-0.130667 -0.224,-0.149334 -0.373334,-0.373334 1.250669,-1.138669 1.250669,-2.072004 0,-0.541334 -0.429334,-0.541334 -0.373334,0 -0.933335,0.354667 -0.560001,0.354667 -1.082669,0.933335 -0.802668,0.896002 -1.232002,1.997337 -0.410667,1.082669 -0.410667,2.277337 0,1.512003 0.672001,1.81067 0.28,-0.03733 0.653334,-0.168 0.373334,-0.130667 0.802669,-0.336001 0.429334,-0.224 0.877334,-0.504001 0.466668,-0.28 0.896002,-0.597334 0.07467,0.056 0.130667,0.168 0.056,0.112001 0.056,0.205334 -0.317334,0.392001 -0.728001,0.765335 -0.410668,0.373334 -0.858668,0.690668 -0.448001,0.298667 -0.877335,0.504001 -0.410668,0.224 -0.728002,0.28 -0.616001,-0.056 -1.157335,-0.392001 -0.541334,-0.317333 -0.952002,-0.840001 -0.392001,-0.522668 -0.634668,-1.194669 -0.224,-0.672001 -0.224,-1.400002 z m 11.797356,-5.43201 q 0.373334,0 0.858668,0.224 0.485334,0.224001 0.858668,0.578668 -0.09333,-0.746668 -0.242667,-1.400003 -0.130667,-0.672001 -0.410667,-1.381335 -0.261334,-0.709335 -0.709335,-1.549337 -0.448001,-0.840001 -1.120002,-1.92267 0.056,-0.168 0.242667,-0.392 0.205334,-0.224001 0.448001,-0.4106679 0.261334,-0.2053337 0.522668,-0.3546673 0.28,-0.1493336 0.522667,-0.186667 0.522668,0.5786677 0.989335,1.4560022 0.466668,0.858669 0.821335,1.86667 0.354667,0.989336 0.541334,2.053338 0.205334,1.064001 0.205334,2.03467 0,0.970668 -0.224,1.997337 -0.205334,1.026668 -0.597335,2.016003 -0.373334,0.970669 -0.877335,1.848004 -0.504,0.877335 -1.101335,1.568003 -0.578668,0.690668 -1.213335,1.120002 -0.634668,0.448 -1.269336,0.560001 -1.288002,-0.149334 -1.97867,-0.840002 -0.672001,-0.672001 -0.672001,-1.86667 0,-0.634668 0.186667,-1.381336 0.205333,-0.746668 0.522667,-1.474669 0.336001,-0.746668 0.765335,-1.437336 0.448001,-0.709335 0.933335,-1.269336 0.504001,-0.560001 1.008002,-0.952001 0.504001,-0.392001 0.989335,-0.504001 z m -1.904004,8.978683 q 0.653335,-0.224001 1.306669,-0.989335 0.653335,-0.765335 1.176003,-1.792004 0.522667,-1.045335 0.840001,-2.221337 0.336001,-1.194669 0.336001,-2.296004 0,-0.317334 0,-0.392001 0,-0.07467 -0.01867,-0.149334 -0.448001,0.186667 -0.952002,0.634668 -0.504001,0.448001 -1.008002,1.045336 -0.504,0.578667 -0.952001,1.269335 -0.448001,0.690668 -0.802668,1.381336 -0.354668,0.690668 -0.560001,1.325336 -0.205334,0.634667 -0.205334,1.120002 0,0.933335 0.840001,1.064002 z"
         id="path1" />
      <path
         d="m 19.597334,44.133393 q 0,-0.373334 0.07467,-1.045335 0.09333,-0.672001 0.224,-1.456002 0.149334,-0.784002 0.317334,-1.605337 0.186667,-0.821334 0.373334,-1.474669 0.242667,-0.877335 0.746668,-1.344002 0.522668,-0.485335 1.288002,-0.485335 0.410668,0 0.802669,0.130667 0.410667,0.130667 0.485334,0.336001 -0.541335,0.448001 -0.877335,1.120002 -0.317334,0.653334 -0.522668,1.418669 -0.186667,0.746668 -0.298667,1.549336 -0.09333,0.784002 -0.205334,1.47467 0.616001,-0.821335 1.157336,-1.47467 0.560001,-0.672001 0.989335,-1.064002 0.578668,-0.541334 0.784001,-0.896001 0.205334,-0.373334 0.354668,-0.802668 0.112,-0.336001 0.261333,-0.784002 0.168001,-0.448001 0.541335,-0.821335 0.07467,-0.01867 0.317334,-0.01867 0.186667,0 0.392,0.01867 0.224001,0.01867 0.410668,0.07467 0.186667,0.056 0.317334,0.130667 0.130667,0.07467 0.149333,0.186667 -0.298667,0.392001 -0.560001,1.232002 -0.261334,0.821335 -0.466667,1.81067 -0.205334,0.989335 -0.373334,1.978671 -0.168001,0.970668 -0.298667,1.642669 0.07467,-0.03733 0.336,-0.298667 0.261334,-0.261334 0.578668,-0.653335 0.336,-0.392 0.690668,-0.858668 0.373334,-0.466667 0.653334,-0.914668 0.354668,-0.541334 0.578668,-1.008002 0.242667,-0.485334 0.410667,-1.026668 0.186667,-0.541335 0.336001,-1.194669 0.149334,-0.672001 0.317334,-1.58667 0.112,-0.149333 0.485334,-0.242667 0.392001,-0.112 0.709335,-0.112 0.28,0 0.410667,0.09333 -0.09333,1.045336 -0.354667,1.86667 -0.242667,0.821335 -0.672001,1.605337 -0.429334,0.765334 -1.064002,1.549336 -0.634668,0.765335 -1.493336,1.680003 -0.354668,0.373334 -0.784002,0.821335 -0.410667,0.448 -0.821335,0.840001 -0.392,0.373334 -0.746668,0.634668 -0.336,0.261334 -0.522667,0.261334 -0.429334,0 -0.709335,-0.336001 -0.28,-0.336 -0.28,-0.858668 0,-0.541334 0.03733,-0.933335 0.056,-0.410667 0.168,-0.858668 0.112001,-0.410668 0.168001,-0.690668 0.07467,-0.280001 0.112,-0.485334 0.056,-0.205334 0.07467,-0.354668 0.01867,-0.149333 0.03733,-0.298667 -0.149333,0.07467 -0.392001,0.317334 -0.242667,0.224 -0.504,0.541334 -0.261334,0.298668 -0.522668,0.616001 -0.261334,0.317334 -0.429334,0.541335 -0.354668,0.485334 -0.616001,0.858668 -0.261334,0.373334 -0.504001,0.709335 -0.224001,0.336 -0.448001,0.690667 -0.224,0.336001 -0.522668,0.728002 -0.597334,-0.186667 -0.858668,-0.560001 -0.242667,-0.373334 -0.242667,-0.914669 z m 17.490703,0.653335 q -0.205334,0.317334 -0.653335,0.504001 -0.429334,0.205334 -0.821335,0.242667 -0.317333,-0.373334 -0.709334,-1.008002 -0.392001,-0.653334 -0.746668,-1.512003 -0.952002,0.858669 -1.904004,1.568003 -0.952001,0.690668 -1.773336,1.176002 -0.205334,-0.03733 -0.336001,-0.224 -0.130667,-0.186667 -0.149333,-0.485334 0.373334,-0.205334 0.877335,-0.541335 0.522667,-0.336 1.045335,-0.728001 0.541334,-0.410667 1.026668,-0.840001 0.504001,-0.448001 0.858668,-0.858669 -0.317333,-0.746668 -0.597334,-1.530669 -0.261334,-0.802668 -0.466667,-1.530669 -0.186667,-0.746668 -0.298668,-1.344003 -0.112,-0.616001 -0.112,-0.989335 0,-0.261334 0.056,-0.336001 0.07467,-0.09333 0.317334,-0.09333 0.186667,0 0.448001,0.03733 0.28,0.03733 0.560001,0.09333 0.28,0.056 0.560001,0.130667 0.280001,0.056 0.485334,0.130667 -0.03733,0.205333 -0.03733,0.354667 0,0.149334 0,0.429334 0,0.728001 0.112,1.493336 0.130667,0.746668 0.410667,1.624003 0.765335,-0.877335 1.41867,-1.941337 0.653334,-1.082668 1.325335,-2.576004 0.466668,0.09333 0.802668,0.28 0.336001,0.168 0.429335,0.373334 -0.205334,0.858668 -1.157336,2.165337 -0.952002,1.306669 -2.426671,2.781339 0.261334,0.709334 0.634668,1.512002 0.373334,0.784002 0.821335,1.64267 z M 46.16008,42.00539 q -0.429334,1.362669 -0.858669,2.482671 -0.429334,1.120002 -0.914668,2.053337 -0.485334,0.952002 -1.045335,1.736003 -0.560001,0.802668 -1.232002,1.512003 -0.858668,0.896001 -1.773337,1.362669 -0.914668,0.485334 -1.829336,0.485334 -0.466668,0 -0.933335,-0.112 -0.448001,-0.09333 -0.840002,-0.280001 -0.410667,-0.168 -0.709335,-0.410667 -0.317333,-0.224001 -0.448,-0.485334 0,-0.224001 0.261333,-0.392001 0.224001,0.205334 0.373334,0.317334 0.149334,0.112 0.298668,0.186667 0.130667,0.07467 0.298667,0.09333 0.149333,0.01867 0.354667,0.01867 1.064002,0 2.072004,-0.634668 1.026668,-0.616001 1.92267,-1.773336 0.914668,-1.138669 1.661336,-2.781339 0.746668,-1.624003 1.269336,-3.640006 -0.242667,0.373334 -0.597334,0.914668 -0.354668,0.541334 -0.784002,1.082669 -0.429334,0.522667 -0.896001,0.952001 -0.448001,0.429335 -0.877335,0.578668 -0.298668,-0.01867 -0.634668,-0.130667 -0.317334,-0.09333 -0.616001,-0.28 -0.280001,-0.186667 -0.504001,-0.448001 -0.224001,-0.261334 -0.298667,-0.597334 0,-0.541335 0.03733,-0.858669 0.03733,-0.336 0.130667,-0.728001 0.168,-0.709335 0.485334,-1.605336 0.336001,-0.896002 0.765335,-1.75467 0.448001,-0.877335 0.970668,-1.624003 0.541335,-0.765335 1.120002,-1.194669 0.149334,0 0.373334,0.03733 0.224001,0.01867 0.466668,0.09333 0.242667,0.07467 0.466667,0.186667 0.224001,0.09333 0.392001,0.261334 -0.205334,0.186667 -0.896002,1.250669 -0.690668,1.064002 -1.530669,3.061339 -0.09333,0.205333 -0.224,0.597334 -0.130667,0.392001 -0.261334,0.821335 -0.112,0.429334 -0.205334,0.840001 -0.09333,0.410668 -0.09333,0.653335 0,0.149334 0.03733,0.224 0.056,0.07467 0.09333,0.112001 0.336001,-0.056 0.896002,-0.541335 0.560001,-0.504001 1.269336,-1.549336 0.448,-0.672001 0.821334,-1.325336 0.373334,-0.672001 0.728002,-1.344002 0.373334,-0.672001 0.765334,-1.381336 0.392001,-0.709334 0.840002,-1.456002 0.242667,0 0.522668,0.056 0.28,0.056 0.541334,0.149333 0.261334,0.07467 0.448001,0.186667 0.205333,0.09333 0.298667,0.205334 -0.578668,1.232002 -1.082669,2.408004 -0.504001,1.176002 -0.896001,2.408005 z m 1.43734,2.632004 q 0,-0.298667 0.522668,-0.952001 0.522668,-0.672002 1.381336,-1.512003 0.877335,-0.858668 1.997337,-1.792003 1.138668,-0.952002 2.352004,-1.829337 -0.784001,-0.168 -1.250669,-0.242667 -0.448001,-0.07467 -0.728001,-0.07467 -0.541335,0 -0.970669,0.149334 -0.429334,0.149333 -0.840001,0.485334 -0.858668,-0.746668 -0.858668,-1.717336 0,-0.298668 0.01867,-0.354668 0.317334,-0.317334 0.746668,-0.485334 0.448001,-0.168 0.933335,-0.168 0.522668,0 1.064002,0.168 0.541335,0.168 1.064002,0.373334 0.522668,0.186667 0.970669,0.354667 0.466667,0.168001 0.821334,0.168001 0.205334,0 0.448001,-0.056 0.261334,-0.056 0.429334,-0.149334 0.168001,0.130667 0.298668,0.522668 0.149333,0.392 0.149333,0.765334 -0.578668,0.224001 -1.400002,0.784002 -0.802668,0.560001 -1.64267,1.288002 -0.840002,0.728001 -1.64267,1.549336 -0.784001,0.821335 -1.306669,1.549336 0.392001,0.168001 1.064002,0.168001 0.429334,0 0.877335,-0.07467 0.448001,-0.07467 0.858668,-0.205334 0.429335,-0.130667 0.784002,-0.298667 0.354667,-0.186667 0.597334,-0.392001 0.877335,0.560001 0.877335,1.64267 0,0.149333 -0.01867,0.242667 0,0.09333 -0.01867,0.224 -0.858668,0.541335 -1.86667,0.541335 -0.504001,0 -1.008002,-0.112001 -0.504001,-0.09333 -0.989335,-0.205333 -0.466668,-0.112001 -0.896002,-0.205334 -0.410667,-0.112 -0.765335,-0.112 -0.896001,0 -1.456002,0.840001 -0.242667,-0.09333 -0.410668,-0.336 -0.149333,-0.242667 -0.186667,-0.541335 z"
         id="path2" />
    </g>
  </g>
</svg>
