<?xml version="1.0" encoding="UTF-8" standalone="no"?>
<svg
   width="70"
   height="60"
   viewBox="0 0 70 60"
   version="1.1"
   id="svg1"
   sodipodi:docname="org.inkscape.text-split.svg"
   inkscape:version="1.4-dev (e93d6aa925, 2023-06-29, custom)"
   xmlns:inkscape="http://www.inkscape.org/namespaces/inkscape"
   xmlns:sodipodi="http://sodipodi.sourceforge.net/DTD/sodipodi-0.dtd"
   xmlns:xlink="http://www.w3.org/1999/xlink"
   xmlns="http://www.w3.org/2000/svg"
   xmlns:svg="http://www.w3.org/2000/svg">
  <sodipodi:namedview
     id="namedview1"
     pagecolor="#ffffff"
     bordercolor="#000000"
     borderopacity="0.25"
     inkscape:showpageshadow="2"
     inkscape:pageopacity="0.0"
     inkscape:pagecheckerboard="0"
     inkscape:deskcolor="#d1d1d1"
     inkscape:zoom="3.8823032"
     inkscape:cx="71.3494"
     inkscape:cy="66.970556"
     inkscape:current-layer="layer1"
     showgrid="false" />
  <defs
     id="defs1">
    <marker
       style="overflow:visible"
       id="Scissors"
       refX="0"
       refY="0"
       orient="auto"
       inkscape:stockid="Scissors"
       markerWidth="15.24917661"
       markerHeight="9.08572692"
       viewBox="0 0 15.24917661 9.08572692"
       inkscape:isstock="true"
       inkscape:collect="always"
       preserveAspectRatio="xMidYMid">
      <path
         style="fill:context-stroke"
         d="M 9.0898857,-3.6061018 C 8.1198849,-4.7769976 6.3697607,-4.7358294 5.0623558,-4.2327734 l -8.2124046,3.0779029 c -2.3882933,-1.3067135 -4.7482873,-0.9325372 -4.7482873,-1.5687873 0,-0.4973164 0.4566662,-0.3883222 0.3883068,-1.6831941 -0.065635,-1.2432767 -1.3635771,-2.1630796 -2.5903987,-2.0816435 -1.227271,-0.00735 -2.499439,0.9331613 -2.510341,2.2300611 -0.09143,1.3063864 1.007209,2.5196896 2.306764,2.6052316 1.5223406,0.2266616 4.218258,-0.6955566 5.482945,1.57086006 -0.9422847,1.73825774 -2.6140244,1.74307674 -4.1255107,1.65607034 -1.2548743,-0.072235 -2.7620933,0.2873979 -3.3606483,1.5208605 -0.578367,1.1820862 -0.0112,2.8646022 1.316749,3.226412 1.3401912,0.4918277 3.1806689,-0.129711 3.4993722,-1.6707242 0.2456585,-1.187823 -0.5953659,-1.7459574 -0.2725074,-2.1771537 0.2436135,-0.32536 1.7907806,-0.1368452 4.5471053,-1.3748244 L 5.6763468,4.2330688 C 6.8000164,4.5467672 8.1730685,4.5362646 9.1684433,3.4313614 l -9.22008423,-3.48508362 z m -18.3078016,-1.900504 c 1.294559,0.7227998 1.1888392,2.6835702 -0.1564272,3.0632889 -1.2165179,0.423661 -2.7710269,-0.7589694 -2.3831779,-2.0774648 0.227148,-1.0818519 1.653387,-1.480632 2.5396051,-0.9858241 z m 0.056264,8.0173649 c 1.3508301,0.4988648 1.1214429,2.7844356 -0.2522207,3.091609 -0.9110594,0.3163391 -2.2135494,-0.1387976 -2.3056964,-1.2121394 -0.177609,-1.305055 1.356085,-2.4841482 2.5579171,-1.8794696 z"
         transform="scale(0.7)"
         id="path29" />
    </marker>
  </defs>
  <g
     inkscape:label="org.inkscape.text-split"
     inkscape:groupmode="layer"
     id="layer1">
    <image
       preserveAspectRatio="none"
       inkscape:svg-dpi="192"
       width="70"
       height="60"
       xlink:href="_notepad-page-icon.svg"
       id="image1"
       x="0"
       y="0"
       sodipodi:insensitive="true" />
    <path
       style="fill:none;fill-rule:evenodd;stroke:#000000;stroke-width:2;stroke-linejoin:round;stroke-miterlimit:5.5;marker-end:url(#Scissors)"
       d="m 36.707148,30.077282 4.320976,-4.837537"
       id="path1"
       sodipodi:nodetypes="cc" />
    <path
       d="m 17.710931,17.676034 q 0.186667,0 0.429334,0.07467 0.261333,0.056 0.466667,0.168001 0.205334,0.09333 0.336001,0.205333 0.149333,0.112001 0.149333,0.205334 -0.373334,0.784002 -0.690668,1.58667 -0.317333,0.784001 -0.541334,1.512002 -0.224,0.728002 -0.354667,1.362669 -0.112,0.634668 -0.112,1.101336 0,0.522667 0.112,0.877335 0.112,0.336 0.373334,0.485334 -0.224001,0.149334 -0.578668,0.242667 -0.354667,0.09333 -0.634668,0.09333 -1.008002,0 -1.008002,-1.381336 0,-1.064002 0.709335,-2.912006 -0.373334,0.858669 -0.858668,1.624003 -0.485334,0.746668 -0.989335,1.325336 -0.504001,0.578668 -1.026669,0.952002 -0.504001,0.354667 -0.933335,0.429334 -0.690668,-0.03733 -1.120002,-0.653335 -0.429334,-0.634667 -0.429334,-1.605336 0,-1.045335 0.448001,-2.20267 0.448001,-1.157336 1.138669,-2.146671 0.709334,-0.989335 1.530669,-1.64267 0.821335,-0.672001 1.58667,-0.709334 0.186667,0.056 0.410667,0.224 0.242667,0.168 0.448001,0.392001 0.224,0.224 0.373334,0.466667 0.149333,0.224001 0.168,0.392001 -0.746668,0.112 -1.549336,0.728001 -0.784001,0.616002 -1.437336,1.493336 -0.634668,0.858669 -1.045335,1.848004 -0.410668,0.989335 -0.410668,1.848003 0,0.354667 0.261334,0.448001 0.541335,-0.112 1.250669,-0.914668 0.709335,-0.821335 1.717337,-2.520005 0.186667,-0.336001 0.410667,-0.746668 0.242667,-0.410667 0.485334,-0.858668 0.242667,-0.448001 0.466668,-0.896002 0.242667,-0.466667 0.448001,-0.896001 z m 3.901338,7.672013 q 0.858668,-0.578667 1.680003,-1.474669 0.821335,-0.914668 1.493336,-1.960003 0.672001,-1.064002 1.138669,-2.202671 0.466668,-1.138669 0.634668,-2.184004 0,-0.224 -0.242667,-0.298667 -0.261334,0 -0.728002,0.466667 -0.448,0.448001 -1.008001,1.157336 -0.541335,0.709334 -1.120002,1.586669 -0.560001,0.877335 -1.026669,1.75467 -0.466667,0.858668 -0.802668,1.624003 -0.317334,0.746668 -0.354667,1.213336 -0.186667,0 -0.317334,-0.373334 -0.03733,-0.09333 -0.130667,-0.186667 -0.09333,-0.112001 -0.298667,-0.261334 -0.09333,-0.07467 -0.186667,-0.168001 -0.09333,-0.112 -0.130667,-0.186667 -0.07467,-0.149333 -0.07467,-0.485334 0,-1.101335 0.28,-2.482671 0.280001,-1.381336 0.728002,-2.818672 0.466667,-1.437336 1.082668,-2.818671 0.616001,-1.400003 1.269336,-2.557338 0.672001,-1.157336 1.344002,-1.960004 0.672002,-0.8026681 1.269336,-1.0640019 0.186667,0.056 0.448001,0.186667 0.261334,0.1306669 0.522667,0.2986669 0.261334,0.168001 0.485335,0.336001 0.242667,0.168 0.354667,0.298667 -2.053337,1.661336 -3.56534,4.274675 -1.493336,2.594671 -2.445338,6.141344 0.522668,-0.970668 1.176003,-1.86667 0.653334,-0.914668 1.288002,-1.605336 0.653334,-0.690668 1.232002,-1.101336 0.597335,-0.410667 0.989335,-0.410667 0.298667,0.07467 0.578668,0.261334 0.28,0.186667 0.504001,0.466667 0.224,0.261334 0.373334,0.578668 0.149333,0.298667 0.186667,0.634668 -0.01867,0.784001 -0.280001,1.680003 -0.242667,0.877335 -0.672001,1.736003 -0.410667,0.858668 -0.952002,1.64267 -0.522667,0.784001 -1.120002,1.381335 -0.578667,0.578668 -1.176002,0.933335 -0.578667,0.354668 -1.101335,0.354668 -0.224,0 -0.466668,-0.056 -0.224,-0.03733 -0.429334,-0.130667 -0.186667,-0.07467 -0.317334,-0.168001 -0.112,-0.09333 -0.112,-0.186667 z m 7.20535,-3.416006 q 0,-1.064002 0.429334,-2.053337 0.448001,-1.008002 1.157336,-1.773336 0.728001,-0.784002 1.642669,-1.250669 0.933335,-0.485334 1.92267,-0.485334 0.970669,0 1.493336,0.485334 0.522668,0.485334 0.522668,1.381336 0,0.429334 -0.130667,0.840001 -0.112,0.392001 -0.317334,0.709335 -0.186667,0.317334 -0.448001,0.522667 -0.261333,0.186667 -0.522667,0.186667 -0.224001,0 -0.466668,-0.130667 -0.224,-0.149333 -0.373334,-0.373334 1.250669,-1.138668 1.250669,-2.072003 0,-0.541335 -0.429334,-0.541335 -0.373334,0 -0.933335,0.354668 -0.560001,0.354667 -1.082669,0.933335 -0.802668,0.896001 -1.232002,1.997337 -0.410667,1.082668 -0.410667,2.277337 0,1.512003 0.672001,1.81067 0.280001,-0.03733 0.653335,-0.168 0.373334,-0.130667 0.802668,-0.336001 0.429334,-0.224 0.877335,-0.504001 0.466667,-0.28 0.896001,-0.597334 0.07467,0.056 0.130667,0.168 0.056,0.112 0.056,0.205334 -0.317334,0.392 -0.728001,0.765335 -0.410668,0.373334 -0.858668,0.690667 -0.448001,0.298668 -0.877335,0.504001 -0.410668,0.224001 -0.728002,0.280001 -0.616001,-0.056 -1.157335,-0.392001 -0.541334,-0.317334 -0.952002,-0.840001 -0.392,-0.522668 -0.634667,-1.194669 -0.224001,-0.672001 -0.224001,-1.400003 z"
       id="text3"
       style="font-size:18.6667px;line-height:1.07;font-family:'Kaushan Script';-inkscape-font-specification:'Kaushan Script, Normal';font-variant-ligatures:none;fill:#606060;stroke-linecap:square;stroke-linejoin:round;stroke-miterlimit:10"
       aria-label="abc" />
    <path
       d="m 49.387002,36.82191 q -0.205333,0.317334 -0.653334,0.504001 -0.429334,0.205334 -0.821335,0.242667 -0.317334,-0.373334 -0.709335,-1.008002 -0.392,-0.653334 -0.746668,-1.512002 -0.952001,0.858668 -1.904003,1.568002 -0.952002,0.690668 -1.773337,1.176003 -0.205333,-0.03733 -0.336,-0.224001 -0.130667,-0.186667 -0.149334,-0.485334 0.373334,-0.205334 0.877335,-0.541334 0.522668,-0.336001 1.045335,-0.728002 0.541335,-0.410667 1.026669,-0.840001 0.504001,-0.448001 0.858668,-0.858668 -0.317334,-0.746668 -0.597334,-1.53067 -0.261334,-0.802668 -0.466668,-1.530669 -0.186667,-0.746668 -0.298667,-1.344003 -0.112,-0.616001 -0.112,-0.989335 0,-0.261334 0.056,-0.336 0.07467,-0.09333 0.317334,-0.09333 0.186667,0 0.448,0.03733 0.280001,0.03733 0.560001,0.09333 0.280001,0.056 0.560001,0.130667 0.280001,0.056 0.485335,0.130667 -0.03733,0.205334 -0.03733,0.354667 0,0.149334 0,0.429334 0,0.728002 0.112,1.493336 0.130667,0.746668 0.410668,1.624003 0.765335,-0.877335 1.418669,-1.941337 0.653335,-1.082668 1.325336,-2.576004 0.466667,0.09333 0.802668,0.28 0.336001,0.168001 0.429334,0.373334 -0.205334,0.858668 -1.157335,2.165337 -0.952002,1.306669 -2.426671,2.781339 0.261333,0.709334 0.634667,1.512003 0.373334,0.784001 0.821335,1.642669 z m 9.072043,-2.781338 q -0.429334,1.362669 -0.858668,2.482671 -0.429334,1.120002 -0.914668,2.053337 -0.485335,0.952002 -1.045336,1.736003 -0.560001,0.802668 -1.232002,1.512003 -0.858668,0.896001 -1.773336,1.362669 -0.914669,0.485334 -1.829337,0.485334 -0.466667,0 -0.933335,-0.112 -0.448001,-0.09333 -0.840002,-0.280001 -0.410667,-0.168 -0.709334,-0.410667 -0.317334,-0.224 -0.448001,-0.485334 0,-0.224001 0.261334,-0.392001 0.224,0.205334 0.373334,0.317334 0.149333,0.112 0.298667,0.186667 0.130667,0.07467 0.298667,0.09333 0.149334,0.01867 0.354668,0.01867 1.064002,0 2.072003,-0.634668 1.026669,-0.616001 1.92267,-1.773336 0.914669,-1.138669 1.661337,-2.781338 0.746668,-1.624003 1.269335,-3.640007 -0.242667,0.373334 -0.597334,0.914668 -0.354667,0.541335 -0.784001,1.082669 -0.429335,0.522668 -0.896002,0.952002 -0.448001,0.429334 -0.877335,0.578667 -0.298667,-0.01867 -0.634668,-0.130667 -0.317334,-0.09333 -0.616001,-0.28 -0.28,-0.186667 -0.504001,-0.448001 -0.224,-0.261334 -0.298667,-0.597334 0,-0.541335 0.03733,-0.858668 0.03733,-0.336001 0.130667,-0.728002 0.168001,-0.709334 0.485335,-1.605336 0.336,-0.896002 0.765334,-1.75467 0.448001,-0.877335 0.970669,-1.624003 0.541334,-0.765334 1.120002,-1.194669 0.149333,0 0.373334,0.03733 0.224,0.01867 0.466667,0.09333 0.242667,0.07467 0.466668,0.186667 0.224,0.09333 0.392,0.261334 -0.205333,0.186667 -0.896001,1.250669 -0.690668,1.064002 -1.53067,3.061339 -0.09333,0.205334 -0.224,0.597334 -0.130667,0.392001 -0.261334,0.821335 -0.112,0.429334 -0.205334,0.840002 -0.09333,0.410667 -0.09333,0.653334 0,0.149334 0.03733,0.224001 0.056,0.07467 0.09333,0.112 0.336,-0.056 0.896001,-0.541335 0.560001,-0.504 1.269336,-1.549336 0.448001,-0.672001 0.821335,-1.325335 0.373334,-0.672002 0.728001,-1.344003 0.373334,-0.672001 0.765335,-1.381336 0.392001,-0.709334 0.840001,-1.456002 0.242668,0 0.522668,0.056 0.280001,0.056 0.541334,0.149333 0.261334,0.07467 0.448001,0.186667 0.205334,0.09333 0.298667,0.205334 -0.578667,1.232002 -1.082668,2.408004 -0.504001,1.176003 -0.896002,2.408005 z m 1.437341,2.632005 q 0,-0.298668 0.522667,-0.952002 0.522668,-0.672001 1.381336,-1.512003 0.877335,-0.858668 1.997337,-1.792003 1.138669,-0.952002 2.352004,-1.829337 -0.784001,-0.168 -1.250668,-0.242667 -0.448001,-0.07467 -0.728002,-0.07467 -0.541334,0 -0.970668,0.149334 -0.429334,0.149334 -0.840002,0.485334 -0.858668,-0.746668 -0.858668,-1.717336 0,-0.298667 0.01867,-0.354668 0.317334,-0.317333 0.746668,-0.485334 0.448001,-0.168 0.933335,-0.168 0.522667,0 1.064002,0.168 0.541334,0.168001 1.064002,0.373334 0.522667,0.186667 0.970668,0.354668 0.466668,0.168 0.821335,0.168 0.205334,0 0.448001,-0.056 0.261334,-0.056 0.429334,-0.149334 0.168,0.130667 0.298667,0.522668 0.149334,0.392 0.149334,0.765334 -0.578668,0.224001 -1.400003,0.784002 -0.802668,0.560001 -1.64267,1.288002 -0.840001,0.728001 -1.642669,1.549336 -0.784002,0.821335 -1.306669,1.549336 0.392001,0.168001 1.064002,0.168001 0.429334,0 0.877335,-0.07467 0.448,-0.07467 0.858668,-0.205334 0.429334,-0.130667 0.784001,-0.298667 0.354668,-0.186667 0.597335,-0.392001 0.877335,0.560001 0.877335,1.64267 0,0.149334 -0.01867,0.242667 0,0.09333 -0.01867,0.224 -0.858668,0.541335 -1.86667,0.541335 -0.504001,0 -1.008002,-0.112 -0.504001,-0.09333 -0.989335,-0.205334 -0.466667,-0.112 -0.896001,-0.205334 -0.410668,-0.112 -0.765335,-0.112 -0.896002,0 -1.456003,0.840001 -0.242667,-0.09333 -0.410667,-0.336 -0.149334,-0.242667 -0.186667,-0.541334 z"
       id="text2"
       style="font-size:18.6667px;line-height:1.07;font-family:'Kaushan Script';-inkscape-font-specification:'Kaushan Script, Normal';font-variant-ligatures:none;fill:#606060;stroke-linecap:square;stroke-linejoin:round;stroke-miterlimit:10"
       aria-label="xyz" />
  </g>
</svg>
