<?xml version="1.0" encoding="UTF-8" standalone="no"?>
<svg
   width="70"
   height="60"
   viewBox="0 0 70 60"
   version="1.1"
   id="svg1"
   sodipodi:docname="org.inkscape.webdesign.interactive-mockup.svg"
   xml:space="preserve"
   inkscape:version="1.4-dev (e93d6aa925, 2023-06-29)"
   xmlns:inkscape="http://www.inkscape.org/namespaces/inkscape"
   xmlns:sodipodi="http://sodipodi.sourceforge.net/DTD/sodipodi-0.dtd"
   xmlns:xlink="http://www.w3.org/1999/xlink"
   xmlns="http://www.w3.org/2000/svg"
   xmlns:svg="http://www.w3.org/2000/svg"><sodipodi:namedview
     id="namedview1"
     pagecolor="#ffffff"
     bordercolor="#000000"
     borderopacity="0.25"
     inkscape:showpageshadow="2"
     inkscape:pageopacity="0.0"
     inkscape:pagecheckerboard="0"
     inkscape:deskcolor="#d1d1d1"
     showgrid="false"
     inkscape:zoom="1"
     inkscape:cx="35"
     inkscape:cy="59"
     inkscape:current-layer="layer1"><inkscape:grid
       id="grid1"
       units="px"
       originx="0"
       originy="0"
       spacingx="1"
       spacingy="1"
       empcolor="#0099e5"
       empopacity="0.30196078"
       color="#3f84a6"
       opacity="0.14901961"
       empspacing="5"
       dotted="false"
       gridanglex="30"
       gridanglez="30"
       visible="false" /></sodipodi:namedview><defs
     id="defs1"><linearGradient
       id="linearGradient1"
       inkscape:collect="always"><stop
         style="stop-color:#c0c0c0;stop-opacity:0;"
         offset="0"
         id="stop2" /><stop
         style="stop-color:#d5d5d5;stop-opacity:1;"
         offset="1"
         id="stop1" /></linearGradient><linearGradient
       inkscape:collect="always"
       xlink:href="#linearGradient1"
       id="linearGradient2"
       x1="30"
       y1="9.5"
       x2="30"
       y2="30.5"
       gradientUnits="userSpaceOnUse"
       gradientTransform="translate(5,4)" /></defs><g
     inkscape:label="org.inkscape.webdesign.interactive-mockup"
     inkscape:groupmode="layer"
     id="layer1"><rect
       style="fill:url(#linearGradient2);fill-rule:evenodd;stroke:#7f7f7f;stroke-width:1;stroke-linecap:square;stroke-linejoin:round;stroke-miterlimit:1.7;stroke-dasharray:none"
       id="rect1"
       width="40"
       height="20"
       x="15"
       y="14"
       ry="2" /><g
       id="g42"
       transform="matrix(1.4476902,0,0,1.4475546,-606.64759,-518.10146)"
       style="stroke-width:0.690787"><g
         id="g36"
         transform="matrix(0.56317129,-0.3251471,0.3251471,0.56317129,52.196295,321.53895)"
         style="stroke-width:0.849815;stroke-dasharray:none"><path
           id="path33"
           style="fill:#ffffff;stroke:#000000;stroke-width:0.849815;stroke-linecap:round;stroke-linejoin:round;stroke-miterlimit:2.8;stroke-dasharray:none"
           d="m 478,373.5 c -0.831,0 -1.5,0.669 -1.5,1.5 v 10.66406 l -1.60938,-2.78711 c -0.48474,-0.83961 -1.55101,-1.12537 -2.39062,-0.64062 -0.83961,0.48475 -1.12537,1.55101 -0.64062,2.39062 1.99529,3.18692 3.60569,5.63465 4.63476,7.25391 0.36033,0.54859 1.17771,1.75987 1.50586,3.11914 h 8 c 1.08585,-2.09431 2.37876,-4.72358 2.5,-7 v -6 c 0,-0.831 -0.669,-1.5 -1.5,-1.5 -0.831,0 -1.5,0.669 -1.5,1.5 v -1 c 0,-0.831 -0.669,-1.5 -1.5,-1.5 -0.831,0 -1.5,0.669 -1.5,1.5 v -1 c 0,-0.831 -0.669,-1.5 -1.5,-1.5 -0.831,0 -1.5,0.669 -1.5,1.5 v -5 c 0,-0.831 -0.669,-1.5 -1.5,-1.5 z"
           sodipodi:nodetypes="ssccscccccsscsscsscss" /><path
           style="fill:#ffffff;stroke:#000000;stroke-width:0.849815;stroke-linecap:round;stroke-linejoin:round;stroke-miterlimit:2.8;stroke-dasharray:none"
           d="m 479.5,380 v 4"
           id="path34" /><path
           style="fill:#ffffff;stroke:#000000;stroke-width:0.849815;stroke-linecap:round;stroke-linejoin:round;stroke-miterlimit:2.8;stroke-dasharray:none"
           d="m 482.5,381 v 3.5"
           id="path35"
           sodipodi:nodetypes="cc" /><path
           style="fill:#ffffff;stroke:#000000;stroke-width:0.849815;stroke-linecap:round;stroke-linejoin:round;stroke-miterlimit:2.8;stroke-dasharray:none"
           d="M 485.5,381.4 V 385"
           id="path36"
           sodipodi:nodetypes="cc" /></g><g
         id="g41"
         transform="matrix(0.80128678,-0.46262314,0.46262314,0.80128678,-76.20534,276.04572)"
         style="stroke-width:0.746597"><path
           style="fill:#17a2b8;stroke:#000000;stroke-width:0.746597;stroke-miterlimit:2.8"
           d="m 431.5,371 v 2"
           id="path37"
           sodipodi:nodetypes="cc" /><path
           style="fill:#17a2b8;stroke:#000000;stroke-width:0.746597;stroke-miterlimit:2.8"
           d="m 436,375.5 h -2"
           id="path38"
           sodipodi:nodetypes="cc" /><path
           style="fill:#17a2b8;stroke:#000000;stroke-width:0.746597;stroke-miterlimit:2.8"
           d="m 429,375.5 h -2"
           id="path39"
           sodipodi:nodetypes="cc" /><path
           style="fill:#17a2b8;stroke:#000000;stroke-width:0.746597;stroke-miterlimit:2.8"
           d="m 429.65464,373.64743 -1.41422,-1.41422"
           id="path40"
           sodipodi:nodetypes="cc" /><path
           style="fill:#17a2b8;stroke:#000000;stroke-width:0.746597;stroke-miterlimit:2.8"
           d="m 433.35407,373.64775 1.41422,-1.41422"
           id="path41"
           sodipodi:nodetypes="cc" /></g></g></g></svg>
