<?xml version="1.0" encoding="UTF-8" standalone="no"?>
<svg
   width="70"
   height="60"
   viewBox="0 0 70 60"
   version="1.1"
   id="svg1"
   sodipodi:docname="org.inkscape.replace-font.svg"
   inkscape:version="1.4-dev (de72ba3c18, 2023-06-27, custom)"
   xmlns:inkscape="http://www.inkscape.org/namespaces/inkscape"
   xmlns:sodipodi="http://sodipodi.sourceforge.net/DTD/sodipodi-0.dtd"
   xmlns="http://www.w3.org/2000/svg"
   xmlns:svg="http://www.w3.org/2000/svg">
  <sodipodi:namedview
     id="namedview1"
     pagecolor="#ffffff"
     bordercolor="#000000"
     borderopacity="0.25"
     inkscape:showpageshadow="2"
     inkscape:pageopacity="0.0"
     inkscape:pagecheckerboard="0"
     inkscape:deskcolor="#d1d1d1"
     inkscape:zoom="2.1753593"
     inkscape:cx="114.00416"
     inkscape:cy="-28.501039"
     inkscape:current-layer="layer1"
     showgrid="false">
    <inkscape:grid
       id="grid2"
       units="px"
       originx="0"
       originy="0"
       spacingx="1"
       spacingy="1"
       empcolor="#0099e5"
       empopacity="0.30196078"
       color="#3f84a6"
       opacity="0.14901961"
       empspacing="5"
       dotted="false"
       gridanglex="30"
       gridanglez="30"
       visible="false" />
  </sodipodi:namedview>
  <defs
     id="defs1">
    <marker
       style="overflow:visible"
       id="Triangle"
       refX="0"
       refY="0"
       orient="auto-start-reverse"
       inkscape:stockid="Triangle arrow"
       markerWidth="4.324"
       markerHeight="4.99884393"
       viewBox="0 0 5.3244081 6.15538509"
       inkscape:isstock="true"
       inkscape:collect="always"
       preserveAspectRatio="xMidYMid">
      <path
         transform="scale(0.5)"
         style="fill:context-stroke;fill-rule:evenodd;stroke:context-stroke;stroke-width:1pt"
         d="M 5.77,0 -2.88,5 V -5 Z"
         id="path135" />
    </marker>
  </defs>
  <g
     inkscape:label="org.inkscape.replace-font"
     inkscape:groupmode="layer"
     id="layer1">
    <path
       d="m 27.807352,8.8659033 0.214224,-0.03895 q 0.311598,1.5579925 0.311598,2.6485865 0,5.725622 -5.336123,9.425853 -3.408109,2.375939 -6.738317,2.375939 -1.635892,0 -2.551212,-0.954271 -0.973745,-1.03217 -0.973745,-2.668061 0,-2.473313 1.480092,-5.08295 1.947491,-3.408108 5.745097,-5.6282471 3.641807,-2.1422394 8.02366,-2.1422394 1.850116,0 3.836556,0.4284479 0.467397,0.097374 3.330208,0.8179459 2.142239,0.5258224 4.070255,0.5258224 3.174409,0 5.589297,-1.6748416 -0.623197,1.5774671 -1.343768,2.3369883 -1.363244,1.4606176 -3.408108,1.4606176 -1.11007,0 -2.356464,-0.408973 Q 36.960556,10.034397 35.363614,9.333301 32.617653,8.0869072 31.13756,7.6974091 29.092695,7.1326369 27.242579,7.1326369 q -3.797606,0 -7.264138,2.2006641 -3.563908,2.278564 -5.433498,5.394548 -1.519043,2.512263 -1.519043,4.907676 0,1.557992 0.876371,2.512262 0.837421,0.895846 2.122764,0.895846 3.038085,0 7.458888,-4.654502 3.077035,-3.252309 3.933931,-5.861946 0.428447,-1.343768 0.428447,-2.6291119 0,-0.3505482 -0.03895,-1.0321698 z m 11.00332,2.5317377 0.116849,0.194749 q -1.90854,1.129544 -3.174409,2.142239 -2.745961,2.298039 -4.596077,5.647722 1.285344,-0.311598 3.447058,-1.616417 0.272648,-0.370023 1.110069,-1.674842 0.681622,-1.090594 1.324294,-1.090594 0.292123,0 0.292123,0.331073 0,0.486873 -0.701096,1.129544 -0.389498,0.389499 -1.441143,1.18797 -0.545297,0.408973 -0.642672,0.95427 -0.0779,0.428448 -0.0779,1.187969 v 0.447923 q -0.01947,1.616417 -0.740046,2.434363 -1.324293,1.460617 -3.700231,2.044864 0.720571,-0.623196 1.265868,-1.304818 0.408973,-0.525822 1.519043,-2.570687 l 1.324293,-2.414888 q -0.350548,0.155799 -1.382718,0.681621 -0.740046,0.350549 -1.869591,0.759522 -2.784911,5.472447 -6.465668,8.666331 -5.414023,4.693452 -11.87969,4.693452 -5.4919231,0 -5.4919231,-3.135459 0,-1.012695 0.6816216,-1.733267 0.7205714,-0.798471 1.7527413,-0.798471 0.5842472,0 0.9542702,0.370023 0.408973,0.389498 0.408973,0.973746 0,0.603722 -0.467398,1.051644 -0.5258221,0.467398 -1.1295441,0.467398 -0.1363243,0 -0.389498,-0.03895 -0.1947491,-0.01947 -0.3505483,-0.01947 -0.6231969,0 -0.6231969,0.525823 0,1.03217 1.402193,1.616417 1.1684943,0.486872 2.9212353,0.486872 3.408108,0 6.212494,-1.830641 1.869591,-1.226919 3.992355,-3.93393 0.642672,-0.837421 4.440278,-6.231969 -5.024525,1.460618 -8.452108,5.219274 -2.122764,2.414888 -2.590162,5.375073 h -0.253173 q 0.506347,-3.700231 3.330208,-6.368293 2.843336,-2.687537 8.374208,-4.732402 3.154935,-3.758656 6.348819,-5.95932 2.97966,-2.083815 5.199799,-3.135459 z"
       id="text1"
       style="stroke-linecap:square;stroke-linejoin:round;stroke-miterlimit:10"
       aria-label="F" />
    <path
       d="M 56.111228,32.696945 H 44.672651 v 6.380083 h 9.828366 v 2.673558 H 44.672651 V 52.6423 H 41.664897 V 30.023386 h 14.446331 z"
       id="text2"
       style="stroke-linecap:square;stroke-linejoin:round;stroke-miterlimit:10"
       aria-label="F" />
    <path
       style="fill:none;fill-rule:evenodd;stroke:#000000;stroke-width:1;stroke-linejoin:round;stroke-miterlimit:5.5;stroke-dasharray:none;marker-end:url(#Triangle)"
       id="path2"
       sodipodi:arc-type="arc"
       sodipodi:type="arc"
       sodipodi:cx="34.5"
       sodipodi:cy="38.5"
       sodipodi:rx="7.5"
       sodipodi:ry="7.5"
       sodipodi:start="1.5707963"
       sodipodi:end="3.1415927"
       d="M 34.5,46 A 7.5,7.5 0 0 1 29.196699,43.803301 7.5,7.5 0 0 1 27,38.5"
       sodipodi:open="true" />
    <path
       style="fill:none;fill-rule:evenodd;stroke:#000000;stroke-width:1;stroke-linejoin:round;stroke-miterlimit:5.5;stroke-dasharray:none;marker-end:url(#Triangle)"
       id="path3"
       sodipodi:arc-type="arc"
       sodipodi:type="arc"
       sodipodi:cx="-44.50058"
       sodipodi:cy="-21.616138"
       sodipodi:rx="7.5"
       sodipodi:ry="7.5"
       sodipodi:start="1.5707963"
       sodipodi:end="3.1415927"
       d="m -44.50058,-14.116138 a 7.5,7.5 0 0 1 -5.303301,-2.1967 7.5,7.5 0 0 1 -2.196699,-5.3033"
       sodipodi:open="true"
       transform="scale(-1)" />
  </g>
</svg>
