<?xml version="1.0" encoding="UTF-8" standalone="no"?>
<svg
   width="70"
   height="60"
   viewBox="0 0 70 60"
   version="1.1"
   id="svg1"
   sodipodi:docname="org.inkscape.typography.layers-to-svg-font.svg"
   inkscape:version="1.4-dev (e93d6aa925, 2023-06-29)"
   xmlns:inkscape="http://www.inkscape.org/namespaces/inkscape"
   xmlns:sodipodi="http://sodipodi.sourceforge.net/DTD/sodipodi-0.dtd"
   xmlns:xlink="http://www.w3.org/1999/xlink"
   xmlns="http://www.w3.org/2000/svg"
   xmlns:svg="http://www.w3.org/2000/svg">
  <sodipodi:namedview
     id="namedview1"
     pagecolor="#ffffff"
     bordercolor="#000000"
     borderopacity="0.25"
     inkscape:showpageshadow="2"
     inkscape:pageopacity="0.0"
     inkscape:pagecheckerboard="0"
     inkscape:deskcolor="#d1d1d1"
     inkscape:zoom="3.9333333"
     inkscape:cx="66.355932"
     inkscape:cy="33.559322"
     inkscape:current-layer="layer1" />
  <defs
     id="defs1" />
  <g
     inkscape:label="org.inkscape.typography.layers-to-svg-font"
     inkscape:groupmode="layer"
     id="layer1">
    <path
       d="m 49.760247,18.06434 0.214224,-0.03895 q 0.311598,1.557993 0.311598,2.648587 0,5.725622 -5.336123,9.425853 -3.408109,2.375939 -6.738317,2.375939 -1.635892,0 -2.551212,-0.954271 -0.973745,-1.03217 -0.973745,-2.668061 0,-2.473313 1.480092,-5.08295 1.947491,-3.408108 5.745097,-5.628247 Q 45.553668,16 49.935521,16 q 1.850116,0 3.836556,0.428448 0.467397,0.09737 3.330208,0.817946 2.142239,0.525822 4.070255,0.525822 3.174409,0 5.589297,-1.674841 -0.623197,1.577467 -1.343768,2.336988 -1.363244,1.460618 -3.408108,1.460618 -1.11007,0 -2.356464,-0.408973 -0.740046,-0.253174 -2.336988,-0.95427 -2.745961,-1.246394 -4.226054,-1.635892 -2.044865,-0.564772 -3.894981,-0.564772 -3.797606,0 -7.264138,2.200664 -3.563908,2.278564 -5.433498,5.394548 -1.519043,2.512263 -1.519043,4.907676 0,1.557992 0.876371,2.512262 0.837421,0.895846 2.122764,0.895846 3.038085,0 7.458888,-4.654502 3.077035,-3.252309 3.933931,-5.861946 0.428447,-1.343768 0.428447,-2.629112 0,-0.350548 -0.03895,-1.03217 z m 11.00332,2.531738 0.116849,0.194749 q -1.90854,1.129544 -3.174409,2.142239 -2.745961,2.298039 -4.596077,5.647722 1.285344,-0.311598 3.447058,-1.616417 0.272648,-0.370023 1.110069,-1.674842 0.681622,-1.090594 1.324294,-1.090594 0.292123,0 0.292123,0.331073 0,0.486873 -0.701096,1.129544 -0.389498,0.389499 -1.441143,1.18797 -0.545297,0.408973 -0.642672,0.95427 -0.0779,0.428448 -0.0779,1.187969 v 0.447923 q -0.01947,1.616417 -0.740046,2.434363 -1.324293,1.460617 -3.700231,2.044864 0.720571,-0.623196 1.265868,-1.304818 0.408973,-0.525822 1.519043,-2.570687 l 1.324293,-2.414888 q -0.350548,0.155799 -1.382718,0.681621 -0.740046,0.350549 -1.869591,0.759522 -2.784911,5.472447 -6.465668,8.666331 -5.414023,4.693452 -11.87969,4.693452 Q 29,42.427444 29,39.291985 q 0,-1.012695 0.681622,-1.733267 0.720571,-0.798471 1.752741,-0.798471 0.584247,0 0.95427,0.370023 0.408973,0.389498 0.408973,0.973746 0,0.603722 -0.467398,1.051644 -0.525822,0.467398 -1.129544,0.467398 -0.136324,0 -0.389498,-0.03895 -0.194749,-0.01947 -0.350548,-0.01947 -0.623197,0 -0.623197,0.525823 0,1.03217 1.402193,1.616417 1.168494,0.486872 2.921235,0.486872 3.408108,0 6.212494,-1.830641 1.869591,-1.226919 3.992355,-3.93393 0.642672,-0.837421 4.440278,-6.231969 -5.024525,1.460618 -8.452108,5.219274 -2.122764,2.414888 -2.590162,5.375073 h -0.253173 q 0.506347,-3.700231 3.330208,-6.368293 2.843336,-2.687537 8.374208,-4.732402 3.154935,-3.758656 6.348819,-5.95932 2.97966,-2.083815 5.199799,-3.135459 z"
       id="text1"
       style="stroke-linecap:square;stroke-linejoin:round;stroke-miterlimit:10"
       aria-label="F" />
    <g
       id="g1"
       transform="translate(-37,2)">
      <rect
         style="fill:#ffffff;fill-rule:evenodd;stroke:#000000;stroke-width:1.13751;stroke-linecap:round;stroke-miterlimit:3.3"
         id="rect1"
         width="10.168057"
         height="10.168057"
         x="-19.540951"
         y="68.551361"
         transform="matrix(0.90404565,-0.42743591,0.90404565,0.42743591,0,0)" />
      <use
         x="0"
         y="0"
         xlink:href="#rect1"
         id="use2"
         transform="translate(0,-3)" />
      <use
         x="0"
         y="0"
         xlink:href="#use2"
         id="use3"
         transform="translate(0,-3)" />
      <use
         x="0"
         y="0"
         xlink:href="#use3"
         id="use4"
         transform="translate(0,-3)" />
      <use
         x="0"
         y="0"
         xlink:href="#use4"
         id="use5"
         transform="translate(0,-3)" />
      <use
         x="0"
         y="0"
         xlink:href="#use5"
         id="use6"
         transform="translate(0,-3)" />
    </g>
    <path
       style="fill:#0b5cd5;fill-rule:evenodd;stroke:none;stroke-width:2;stroke-linecap:butt;stroke-linejoin:miter;stroke-miterlimit:1.7;stroke-dasharray:none"
       d="m 18.75934,24.106104 c 2.546549,-4.45646 4.45646,-4.326524 8.276283,-4.326524 v 3.689887 l 7.003008,-5.729734 -7.003008,-5.093097 v 3.183185 c -6.366371,0 -8.276283,5.093097 -8.276283,8.276283 z"
       id="path4"
       sodipodi:nodetypes="ccccccc" />
  </g>
</svg>
