<?xml version="1.0" encoding="UTF-8" standalone="no"?><svg
   width="70"
   height="60"
   viewBox="0 0 70 60"
   version="1.1"
   id="svg1"
   sodipodi:docname="org.ekips.filter.spirograph.svg"
   inkscape:version="1.4-dev (de72ba3c18, 2023-06-27, custom)"
   xmlns:inkscape="http://www.inkscape.org/namespaces/inkscape"
   xmlns:sodipodi="http://sodipodi.sourceforge.net/DTD/sodipodi-0.dtd"
   xmlns="http://www.w3.org/2000/svg"
   xmlns:svg="http://www.w3.org/2000/svg">
  <sodipodi:namedview
     id="namedview1"
     pagecolor="#ffffff"
     bordercolor="#000000"
     borderopacity="0.25"
     inkscape:showpageshadow="2"
     inkscape:pageopacity="0.0"
     inkscape:pagecheckerboard="0"
     inkscape:deskcolor="#d1d1d1"
     showgrid="true"
     inkscape:zoom="5.4706079"
     inkscape:cx="49.903047"
     inkscape:cy="27.236461"
     inkscape:current-layer="layer1">
    <inkscape:grid
       id="grid1"
       units="px"
       originx="0"
       originy="0"
       spacingx="1"
       spacingy="1"
       empcolor="#0099e5"
       empopacity="0.30196078"
       color="#3f84a6"
       opacity="0.14901961"
       empspacing="5"
       dotted="false"
       gridanglex="30"
       gridanglez="30"
       visible="true" />
  </sodipodi:namedview>
  <defs
     id="defs1" />
  <g
     inkscape:label="org.ekips.filter.spirograph"
     inkscape:groupmode="layer"
     id="layer1">
    <path
       style="fill:none;stroke:#000000;stroke-width:0.999999"
       d="m 60.687284,29.96982 c 0,-0.55994 -0.34934,-1.11925 -1.02577,-1.58465 -0.67663,-0.4652 -1.67994,-0.83521 -2.94743,-1.03241 -1.2675,-0.19699 -2.79834,-0.2203 -4.49817,-0.021 -1.70005,0.19955 -3.56782,0.62196 -5.49185,1.27859 -1.92381,0.65683 -3.90261,1.54765 -5.82257,2.64294 -1.91997,1.09529 -3.78003,2.39484 -5.48136,3.83148 -1.70134,1.43686 -3.24309,3.00997 -4.55508,4.62457 -1.31199,1.61481 -2.39359,3.27004 -3.21271,4.85684 -0.81889,1.58679 -1.37531,3.10386 -1.67823,4.44425 -0.30291,1.34041 -0.35296,2.50307 -0.19766,3.39881 0.15531,0.89595 0.51492,1.52412 1.00116,1.8272 0.48646,0.30328 1.09829,0.28104 1.74156,-0.0834 0.64326,-0.36445 1.31669,-1.07112 1.9251,-2.09283 0.60839,-1.02172 1.1509,-2.35806 1.54688,-3.94185 0.39597,-1.58381 0.64476,-3.414 0.6946,-5.39241 0.0496,-1.97819 -0.10033,-4.10354 -0.46485,-6.26012 -0.36453,-2.15657 -0.94341,-4.3433 -1.71182,-6.44384 -0.76841,-2.10033 -1.72572,-4.11338 -2.80988,-5.9378 -1.08396,-1.82441 -2.29412,-3.45955 -3.54066,-4.83395 -1.24631,-1.3742 -2.52814,-2.48724 -3.7413,-3.30598 -1.21317,-0.81896 -2.3568,-1.34361 -3.32887,-1.58401 -0.97207,-0.24019 -1.7715,-0.19656 -2.31465,0.0821 -0.54315,0.27869 -0.82895,0.79158 -0.805,1.45868 0.0239,0.66688 0.35811,1.48712 1.01507,2.36339 0.65675,0.87607 1.63609,1.8071 2.90722,2.69428 1.27092,0.88697 2.83342,1.72902 4.61626,2.44146 1.78305,0.71245 3.78581,1.29442 5.9075,1.68946 2.1219,0.39505 4.36148,0.60251 6.60168,0.60251 2.24021,0 4.47977,-0.20746 6.60169,-0.60251 2.12169,-0.39504 4.12444,-0.97701 5.90749,-1.68946 1.78284,-0.71244 3.34534,-1.55449 4.61626,-2.44146 1.27113,-0.88718 2.25048,-1.81821 2.90722,-2.69428 0.65696,-0.87627 0.9911,-1.69651 1.01507,-2.36339 0.0239,-0.6671 -0.26184,-1.17999 -0.805,-1.45868 -0.54315,-0.27869 -1.34258,-0.32232 -2.31465,-0.0821 -0.97207,0.2404 -2.11571,0.76505 -3.32887,1.58401 -1.21315,0.81874 -2.49498,1.93178 -3.74131,3.30598 -1.24652,1.3744 -2.4567,3.00954 -3.54064,4.83395 -1.08417,1.82442 -2.04148,3.83747 -2.80989,5.9378 -0.76841,2.10054 -1.34729,4.28727 -1.71182,6.44384 -0.36453,2.15658 -0.51448,4.28193 -0.46485,6.26012 0.0498,1.97841 0.29864,3.8086 0.69461,5.39241 0.39597,1.58379 0.93848,2.92013 1.54688,3.94185 0.6084,1.02171 1.28183,1.72838 1.9251,2.09283 0.64327,0.36446 1.25508,0.3867 1.74155,0.0834 0.48625,-0.30308 0.84586,-0.93125 1.00116,-1.8272 0.15531,-0.89574 0.10526,-2.0584 -0.19767,-3.39881 -0.30291,-1.34039 -0.85932,-2.85746 -1.67823,-4.44425 -0.81911,-1.5868 -1.9007,-3.24203 -3.2127,-4.85684 -1.31199,-1.6146 -2.85374,-3.18771 -4.55507,-4.62457 -1.70133,-1.43664 -3.5614,-2.73619 -5.48136,-3.83148 -1.91997,-1.09529 -3.89876,-1.98611 -5.82258,-2.64294 -1.92403,-0.65663 -3.79179,-1.07904 -5.49184,-1.27859 -1.69984,-0.19934 -3.23068,-0.17603 -4.49818,0.021 -1.26749,0.1972 -2.2708,0.56721 -2.94744,1.03241 -0.6764204,0.4654 -1.0257604,1.02471 -1.0257604,1.58465 0,0.55995 0.34934,1.11925 1.0257604,1.58466 0.67664,0.46519 1.67995,0.83521 2.94744,1.03241 1.2675,0.19699 2.79834,0.2203 4.49818,0.021 1.70005,-0.19955 3.56781,-0.62197 5.49184,-1.27859 1.92382,-0.65683 3.90261,-1.54765 5.82258,-2.64294 1.91996,-1.09529 3.78003,-2.39484 5.48136,-3.83149 1.70133,-1.43686 3.24308,-3.00996 4.55507,-4.62456 1.312,-1.61481 2.39359,-3.27005 3.2127,-4.85684 0.81891,-1.58679 1.37532,-3.10386 1.67823,-4.44426 0.30293,-1.3404 0.35298,-2.50307 0.19767,-3.39881 -0.1553,-0.89594 -0.51491,-1.52411 -1.00116,-1.82719 -0.48647,-0.30328 -1.09828,-0.28104 -1.74155,0.0834 -0.64327,0.36445 -1.3167,1.07112 -1.9251,2.09283 -0.6084,1.02172 -1.15091,2.35805 -1.54688,3.94185 -0.39597,1.58381 -0.64477,3.414 -0.69461,5.3924 -0.0496,1.9782 0.10032,4.10354 0.46485,6.26012 0.36453,2.15658 0.94341,4.34331 1.71182,6.44385 0.76841,2.10032 1.72572,4.11338 2.80989,5.9378 1.08394,1.82441 2.29412,3.45954 3.54064,4.83395 1.24633,1.37419 2.52816,2.48724 3.74131,3.30598 1.21316,0.81895 2.3568,1.34361 3.32887,1.58401 0.97207,0.24019 1.7715,0.19656 2.31465,-0.0821 0.54316,-0.27869 0.82896,-0.79158 0.805,-1.45868 -0.0239,-0.66688 -0.35811,-1.48712 -1.01507,-2.3634 -0.65674,-0.87606 -1.63609,-1.80709 -2.90722,-2.69427 -1.27092,-0.88697 -2.83342,-1.72902 -4.61626,-2.44146 -1.78305,-0.71245 -3.7858,-1.29442 -5.90749,-1.68946 -2.12192,-0.39505 -4.36148,-0.60251 -6.60169,-0.60251 -2.2402,0 -4.47978,0.20746 -6.60168,0.60251 -2.12169,0.39504 -4.12445,0.97701 -5.9075,1.68946 -1.78284,0.71244 -3.34534,1.55449 -4.61626,2.44146 -1.27113,0.88718 -2.25047,1.81821 -2.90722,2.69427 -0.65696,0.87628 -0.99111,1.69652 -1.01507,2.3634 -0.0239,0.6671 0.26185,1.17999 0.805,1.45868 0.54315,0.27869 1.34258,0.32232 2.31465,0.0821 0.97207,-0.2404 2.1157,-0.76506 3.32887,-1.58401 1.21316,-0.81874 2.49499,-1.93179 3.7413,-3.30598 1.24654,-1.37441 2.4567,-3.00954 3.54066,-4.83395 1.08416,-1.82442 2.04147,-3.83748 2.80988,-5.9378 0.76841,-2.10054 1.34729,-4.28727 1.71182,-6.44385 0.36452,-2.15658 0.51448,-4.28192 0.46485,-6.26012 -0.0498,-1.9784 -0.29863,-3.80859 -0.6946,-5.3924 -0.39598,-1.5838 -0.93849,-2.92013 -1.54688,-3.94185 -0.60841,-1.02171 -1.28184,-1.72838 -1.9251,-2.09283 -0.64327,-0.36446 -1.2551,-0.3867 -1.74156,-0.0834 -0.48624,0.30308 -0.84585,0.93125 -1.00116,1.82719 -0.1553,0.89574 -0.10525,2.05841 0.19766,3.39881 0.30292,1.3404 0.85934,2.85747 1.67823,4.44426 0.81912,1.58679 1.90072,3.24203 3.21271,4.85684 1.31199,1.6146 2.85374,3.1877 4.55508,4.62456 1.70133,1.43665 3.56139,2.7362 5.48136,3.83149 1.91996,1.09529 3.89876,1.98611 5.82257,2.64294 1.92403,0.65662 3.7918,1.07904 5.49185,1.27859 1.69983,0.19934 3.23067,0.17603 4.49817,-0.021 1.26749,-0.1972 2.2708,-0.56722 2.94743,-1.03241 0.67643,-0.46541 1.02577,-1.02471 1.02577,-1.58466 z"
       id="path3425" />
  </g>
</svg>
