<?xml version="1.0" encoding="UTF-8" standalone="no"?>
<svg
   width="70"
   height="60"
   viewBox="0 0 70 60"
   version="1.1"
   id="svg1"
   sodipodi:docname="org.evilmad.text.hershey.svg"
   inkscape:version="1.4-dev (de72ba3c18, 2023-06-27, custom)"
   xmlns:inkscape="http://www.inkscape.org/namespaces/inkscape"
   xmlns:sodipodi="http://sodipodi.sourceforge.net/DTD/sodipodi-0.dtd"
   xmlns="http://www.w3.org/2000/svg"
   xmlns:svg="http://www.w3.org/2000/svg">
  <sodipodi:namedview
     id="namedview1"
     pagecolor="#ffffff"
     bordercolor="#000000"
     borderopacity="0.25"
     inkscape:showpageshadow="2"
     inkscape:pageopacity="0.0"
     inkscape:pagecheckerboard="0"
     inkscape:deskcolor="#d1d1d1"
     inkscape:zoom="1"
     inkscape:cx="92"
     inkscape:cy="46"
     inkscape:current-layer="layer1" />
  <defs
     id="defs1" />
  <g
     inkscape:label="org.evilmad.text.hershey"
     inkscape:groupmode="layer"
     id="layer1">
    <g
       id="g13"
       transform="translate(-3,-1)">
      <path
         d="m 16.52804,9.48004 -6.048,15.888 m 6.048,-15.888 6.048,15.888 m -9.84,-5.28 h 7.584"
         style="fill:none;stroke:#000000;stroke-width:0.0100008in;stroke-linecap:round;stroke-linejoin:round"
         id="path1" />
      <path
         d="m 26.34404,9.48004 v 15.888 m 0,-8.304 1.536,-1.536 1.488,-0.744 h 2.28 l 1.512,0.744 1.512,1.536 0.744,2.256 v 1.512 l -0.744,2.268 -1.512,1.512 -1.512,0.756 h -2.28 l -1.488,-0.756 -1.536,-1.512"
         style="fill:none;stroke:#000000;stroke-width:0.0100008in;stroke-linecap:round;stroke-linejoin:round"
         id="path2" />
      <path
         d="m 49.02404,17.06404 -1.512,-1.536 -1.512,-0.744 h -2.28 l -1.488,0.744 -1.536,1.536 -0.744,2.256 v 1.512 l 0.744,2.268 1.536,1.512 1.488,0.756 h 2.28 l 1.512,-0.756 1.512,-1.512"
         style="fill:none;stroke:#000000;stroke-width:0.0100008in;stroke-linecap:round;stroke-linejoin:round"
         id="path3" />
    </g>
    <g
       transform="translate(-24.54396,51.36804)"
       id="g12"
       style="fill:none;stroke:#000000;stroke-linecap:round;stroke-linejoin:round">
      <path
         d="m 284,536 62,31 95,95 V 0"
         style="stroke-width:0.4167in"
         transform="matrix(0.024,0,0,-0.024,41.568,0)"
         id="path10" />
      <path
         d="m 220,504 v 32 l 32,62 32,32 62,32 h 126 l 64,-32 31,-32 31,-62 V 472 L 567,410 504,315 189,0 h 441"
         style="stroke-width:0.4167in"
         transform="matrix(0.024,0,0,-0.024,56.688,0)"
         id="path11" />
      <path
         d="M 252,662 H 598 L 410,410 h 94 l 63,-32 31,-32 32,-94 V 189 L 598,94.5 536,31.5 441,0 H 346 L 252,31.5 220,63 189,126"
         style="stroke-width:0.4167in"
         transform="matrix(0.024,0,0,-0.024,71.808,0)"
         id="path12" />
    </g>
  </g>
</svg>
