<?xml version="1.0" encoding="UTF-8" standalone="no"?>
<svg
   width="70"
   height="60"
   viewBox="0 0 70 60"
   version="1.1"
   id="svg1"
   sodipodi:docname="org.inkscape.visualise.measure-length.svg"
   inkscape:version="1.4-dev (de72ba3c18, 2023-06-27, custom)"
   xmlns:inkscape="http://www.inkscape.org/namespaces/inkscape"
   xmlns:sodipodi="http://sodipodi.sourceforge.net/DTD/sodipodi-0.dtd"
   xmlns="http://www.w3.org/2000/svg"
   xmlns:svg="http://www.w3.org/2000/svg">
  <sodipodi:namedview
     id="namedview1"
     pagecolor="#ffffff"
     bordercolor="#000000"
     borderopacity="0.25"
     inkscape:showpageshadow="2"
     inkscape:pageopacity="0.0"
     inkscape:pagecheckerboard="0"
     inkscape:deskcolor="#d1d1d1"
     inkscape:zoom="1"
     inkscape:cx="138"
     inkscape:cy="40"
     inkscape:current-layer="layer1" />
  <defs
     id="defs1" />
  <g
     inkscape:label="org.inkscape.visualise.measure-length"
     inkscape:groupmode="layer"
     id="layer1">
    <path
       style="fill:none;fill-rule:evenodd;stroke:#d26576;stroke-width:2;stroke-linejoin:round;stroke-miterlimit:5.5;stroke-dasharray:none"
       d="M 0.10466051,30.695457 C 6.1600785,26.908664 13.372866,23.672686 20.465321,26.754734 c 6.901966,3.439789 13.013793,8.503808 20.64119,10.410257 4.503682,1.125684 9.25227,0.867428 13.689238,-1.30237 5.692886,-2.783977 11.615116,-9.262176 15.197586,-9.215346"
       id="path1"
       sodipodi:nodetypes="csssc" />
    <path
       style="font-size:12px;text-align:center;stroke-width:1"
       d="m 24.730886,19.942388 q -0.28444,0.539045 -0.640764,0.912935 -0.35356,0.375349 -0.765722,0.553674 -0.417843,0.182396 -0.886996,0.153946 -0.469153,-0.02845 -0.980555,-0.298301 -0.143746,-0.07585 -0.262153,-0.159536 -0.119867,-0.08092 -0.201878,-0.166605 l 0.278606,-0.527988 0.02765,0.01455 q 0.05828,0.08377 0.184374,0.199776 0.127546,0.113251 0.307229,0.208061 0.610919,0.322366 1.149007,0.139807 0.542309,-0.183865 0.937467,-0.798782 -0.338769,0.01915 -0.600453,-0.03412 -0.261682,-0.05327 -0.529826,-0.194755 -0.25432,-0.134196 -0.435388,-0.293356 -0.178305,-0.1577 -0.30978,-0.410846 -0.154283,-0.296988 -0.141563,-0.622477 0.01548,-0.32403 0.206569,-0.686157 0.332578,-0.63027 0.95582,-0.80677 0.62324,-0.176499 1.220338,0.138575 0.298548,0.157538 0.503273,0.385721 0.206183,0.225421 0.299191,0.51128 0.113898,0.353427 0.04997,0.782655 -0.06246,0.426464 -0.364415,0.99868 z m -0.495673,-0.413519 q 0.226095,-0.428473 0.274753,-0.734997 0.04865,-0.306527 -0.0303,-0.531957 -0.06428,-0.192953 -0.185843,-0.324244 -0.120101,-0.134052 -0.294254,-0.225952 -0.398067,-0.210044 -0.76155,-0.08379 -0.360721,0.127721 -0.598484,0.578308 -0.138571,0.262614 -0.151461,0.467856 -0.01288,0.205245 0.0984,0.422995 0.07918,0.151335 0.212405,0.260511 0.134686,0.106415 0.317134,0.202683 0.215619,0.113774 0.467398,0.172417 0.251774,0.05866 0.50363,0.05018 0.0334,-0.0566 0.06534,-0.110421 0.03616,-0.05513 0.08284,-0.143593 z m 3.492247,3.191965 q -0.146094,0.290381 -0.385649,0.502251 -0.239552,0.211871 -0.515142,0.300644 -0.299366,0.09431 -0.631959,0.05993 -0.328396,-0.03576 -0.694165,-0.219782 -0.340638,-0.171383 -0.619625,-0.402715 -0.28039,-0.228541 -0.447604,-0.438629 l 0.296406,-0.589137 0.03908,0.01968 q 0.155905,0.260381 0.411063,0.518213 0.256562,0.255041 0.552526,0.403946 0.198241,0.09974 0.410616,0.13661 0.215168,0.03827 0.430596,-0.02828 0.183258,-0.05825 0.32897,-0.194874 0.148505,-0.135218 0.259482,-0.355795 0.10817,-0.214993 0.107231,-0.400904 0.0019,-0.184507 -0.08442,-0.339879 -0.09181,-0.179147 -0.280147,-0.326387 -0.184142,-0.148623 -0.441016,-0.277865 -0.245708,-0.123616 -0.491519,-0.2053 -0.243018,-0.08028 -0.424611,-0.129655 l 1.077454,-2.141555 2.501739,1.258668 -0.245834,0.48862 -1.962859,-0.987548 -0.556287,1.10568 q 0.12568,0.04924 0.254135,0.106866 0.128454,0.05763 0.220595,0.103987 0.337847,0.169973 0.562428,0.356445 0.225989,0.183677 0.365141,0.435628 0.146108,0.265949 0.146747,0.570672 6.43e-4,0.304725 -0.183385,0.670492 z m 1.081087,2.163814 -0.672745,-0.324724 0.387223,-0.802227 0.672745,0.324723 z m 4.66848,0.512134 q -0.296717,0.644486 -0.910813,0.857255 -0.609951,0.211237 -1.226045,-0.07241 -0.312307,-0.14378 -0.523387,-0.357956 -0.21108,-0.214171 -0.319404,-0.494584 -0.135675,-0.348061 -0.09004,-0.798459 0.04847,-0.44909 0.300752,-0.997044 0.25881,-0.56215 0.578043,-0.94164 0.322072,-0.378183 0.74166,-0.594479 0.397549,-0.205797 0.874538,-0.202974 0.478297,-1.5e-5 1.003538,0.241804 0.167509,0.07712 0.27454,0.143599 0.107032,0.06648 0.206443,0.156981 l -0.24966,0.542275 -0.02838,-0.01309 q -0.05989,-0.07919 -0.204729,-0.190601 -0.140693,-0.112943 -0.308201,-0.190068 -0.610416,-0.28103 -1.150287,-0.06506 -0.538565,0.213135 -0.897517,0.835849 0.305151,-0.035 0.569107,-0.0029 0.268101,0.03053 0.57189,0.170392 0.269717,0.124179 0.450608,0.269392 0.185036,0.143687 0.331534,0.393502 0.170111,0.288214 0.17347,0.609767 0.0062,0.322861 -0.167646,0.700467 z m -0.586803,-0.242633 q 0.121561,-0.264041 0.121786,-0.473831 0.0031,-0.208481 -0.116969,-0.41859 -0.08877,-0.15098 -0.234693,-0.25257 -0.145921,-0.101589 -0.319107,-0.18133 -0.241327,-0.111105 -0.474727,-0.14974 -0.233401,-0.03863 -0.506913,-0.02004 -0.03443,0.05985 -0.06473,0.118161 -0.02899,0.05548 -0.0695,0.14349 -0.206529,0.448583 -0.235931,0.751613 -0.02525,0.301497 0.0673,0.526477 0.07309,0.18505 0.196112,0.313949 0.127172,0.127364 0.306038,0.209716 0.411674,0.189537 0.762351,0.04818 0.351983,-0.144192 0.568964,-0.61549 z m 4.061376,0.949492 q 0.08476,0.182723 0.09355,0.407637 0.0088,0.224914 -0.118346,0.520684 -0.125897,0.292898 -0.337061,0.491311 -0.211162,0.198413 -0.481316,0.296623 -0.301767,0.108437 -0.636632,0.08017 -0.330757,-0.02991 -0.678218,-0.179244 -0.356072,-0.153053 -0.66363,-0.387313 -0.308792,-0.231391 -0.486702,-0.426935 l 0.257971,-0.600154 0.04309,0.01848 q 0.174963,0.265723 0.459522,0.513913 0.28456,0.248191 0.591816,0.38026 0.180907,0.07776 0.410711,0.105081 0.229802,0.02733 0.406756,-0.03609 0.1864,-0.06957 0.314991,-0.194609 0.131462,-0.123803 0.231441,-0.356399 0.09874,-0.229725 0.08827,-0.411136 -0.0064,-0.183049 -0.09856,-0.324739 -0.09096,-0.144562 -0.261159,-0.255144 -0.168966,-0.113457 -0.381463,-0.204788 l -0.25844,-0.111084 0.204895,-0.476678 0.201009,0.0864 q 0.436476,0.187611 0.772678,0.117788 0.340305,-0.07146 0.490889,-0.421789 0.06665,-0.155065 0.04998,-0.298313 -0.01545,-0.146124 -0.101082,-0.271389 -0.09139,-0.127734 -0.219748,-0.21693 -0.128364,-0.08919 -0.3064,-0.165719 -0.272797,-0.117261 -0.622022,-0.15169 -0.349221,-0.03444 -0.698546,0.02634 l -0.02871,-0.01235 0.257971,-0.600153 q 0.24708,-0.01287 0.621717,0.0495 0.378744,0.06074 0.697487,0.19774 0.313,0.134535 0.526652,0.294416 0.213654,0.159875 0.351738,0.368923 0.147506,0.226703 0.169821,0.467638 0.02231,0.240934 -0.09001,0.502246 -0.153054,0.356071 -0.520539,0.514509 -0.363379,0.156799 -0.734718,0.07884 l -0.0173,0.0402 q 0.127959,0.08222 0.273905,0.233404 0.147178,0.148315 0.223752,0.310509 z m 7.116548,5.146951 -0.551467,-0.202904 0.686411,-1.865605 q 0.07771,-0.211199 0.129487,-0.415288 0.05471,-0.20301 0.03628,-0.343008 -0.02106,-0.150955 -0.123449,-0.261898 -0.102389,-0.11094 -0.33999,-0.198361 -0.231734,-0.08526 -0.506639,-0.05319 -0.273826,0.02914 -0.571393,0.122811 -0.01604,0.0707 -0.04361,0.163797 -0.02654,0.09015 -0.05889,0.178159 l -0.771673,2.097338 -0.551467,-0.202904 0.686412,-1.865604 q 0.07986,-0.217068 0.130562,-0.418223 0.05471,-0.203009 0.03628,-0.343006 -0.02106,-0.150957 -0.124527,-0.258965 -0.10239,-0.110941 -0.339991,-0.198363 -0.225868,-0.0831 -0.495678,-0.05582 -0.266879,0.02836 -0.556424,0.118328 l -0.900104,2.446406 -0.551468,-0.202904 1.205537,-3.276541 0.551467,0.202903 -0.133832,0.363734 q 0.33692,-0.119159 0.636371,-0.14553 0.302384,-0.02529 0.592785,0.08155 0.334402,0.123032 0.51433,0.349098 0.182863,0.227141 0.205526,0.518566 0.43801,-0.158564 0.759073,-0.180314 0.322143,-0.02468 0.63601,0.09079 0.539733,0.19859 0.674058,0.621016 0.138336,0.420576 -0.07752,1.007244 z m 5.780632,1.824874 -0.561191,-0.174214 0.589369,-1.898495 q 0.0667,-0.21493 0.107848,-0.421427 0.04418,-0.205558 0.01855,-0.344421 -0.02881,-0.149674 -0.136779,-0.255191 -0.10797,-0.10552 -0.34976,-0.180578 -0.235814,-0.07323 -0.508706,-0.02701 -0.271961,0.04321 -0.564307,0.152089 -0.01231,0.07145 -0.03512,0.165827 -0.0218,0.09141 -0.04963,0.180958 l -0.662578,2.134314 -0.561192,-0.174213 0.58937,-1.898496 q 0.06861,-0.220886 0.108849,-0.424391 0.04418,-0.20556 0.01855,-0.344423 -0.0288,-0.14967 -0.137704,-0.252205 -0.107971,-0.10552 -0.349761,-0.180578 -0.229859,-0.07132 -0.497898,-0.0302 -0.265063,0.04208 -0.549587,0.14684 l -0.772855,2.489536 -0.561192,-0.174213 1.035108,-3.334306 0.561192,0.174213 -0.114907,0.370148 q 0.330333,-0.136361 0.628027,-0.178126 0.300679,-0.04084 0.596199,0.0509 0.340296,0.105645 0.531635,0.322133 0.194323,0.217418 0.231972,0.507289 0.429258,-0.180923 0.748773,-0.219187 0.320443,-0.04125 0.639844,0.05791 0.549251,0.170506 0.705161,0.585458 0.159823,0.412889 -0.02551,1.0099 z"
       id="text1"
       aria-label="95.63 mm" />
  </g>
</svg>
