<?xml version="1.0" encoding="UTF-8" standalone="no"?>
<svg
   width="70"
   height="60"
   viewBox="0 0 70 60"
   version="1.1"
   id="svg1"
   sodipodi:docname="org.inkscape.output.export-slices.svg"
   inkscape:version="1.4-dev (f25ce46d5c, 2023-06-29)"
   xml:space="preserve"
   xmlns:inkscape="http://www.inkscape.org/namespaces/inkscape"
   xmlns:sodipodi="http://sodipodi.sourceforge.net/DTD/sodipodi-0.dtd"
   xmlns:xlink="http://www.w3.org/1999/xlink"
   xmlns="http://www.w3.org/2000/svg"
   xmlns:svg="http://www.w3.org/2000/svg"><sodipodi:namedview
     id="namedview1"
     pagecolor="#ffffff"
     bordercolor="#000000"
     borderopacity="0.25"
     inkscape:showpageshadow="2"
     inkscape:pageopacity="0.0"
     inkscape:pagecheckerboard="0"
     inkscape:deskcolor="#d1d1d1"
     showgrid="false"
     inkscape:zoom="1"
     inkscape:cx="62"
     inkscape:cy="41"
     inkscape:current-layer="layer1"><inkscape:grid
       id="grid1"
       units="px"
       originx="0"
       originy="0"
       spacingx="1"
       spacingy="1"
       empcolor="#0099e5"
       empopacity="0.30196078"
       color="#3f84a6"
       opacity="0.14901961"
       empspacing="5"
       dotted="false"
       gridanglex="30"
       gridanglez="30"
       visible="false" /></sodipodi:namedview><defs
     id="defs1" /><g
     inkscape:label="org.inkscape.output.export-slices"
     inkscape:groupmode="layer"
     id="layer1"><path
       style="fill:none;fill-rule:evenodd;stroke:#606060;stroke-width:0.999999;stroke-miterlimit:3.3"
       d="m 15.847224,38.89531 c 0.416974,-0.442518 0.925704,-0.937483 1.583687,-0.894385 0.890807,0.04034 1.660575,0.742205 2.573446,0.582752 0.776837,-0.172102 1.2005,-0.917301 1.789,-1.380838 0.400706,-0.358078 0.977949,-0.474677 1.488525,-0.311603 0.711917,0.179605 1.394143,0.659964 2.15653,0.506141 0.821552,-0.203319 1.23854,-1.025804 1.900854,-1.479035 0.448655,-0.345594 1.061164,-0.336199 1.570234,-0.141801 0.656451,0.211303 1.336572,0.626623 2.046551,0.410586 0.936998,-0.313721 1.335752,-1.4245 2.299924,-1.688548 0.775751,-0.178215 1.474522,0.320098 2.199664,0.500579 0.511593,0.161546 1.087568,0.03895 1.486797,-0.320146 0.586237,-0.464913 1.011731,-1.209659 1.789899,-1.376426 1.000538,-0.171296 1.839301,0.70184 2.83741,0.569827 0.750357,-0.124652 1.187469,-0.815185 1.721554,-1.282287 0.379047,-0.371102 0.927891,-0.589176 1.456694,-0.457904 0.772929,0.145573 1.483331,0.696615 2.298794,0.546909 0.792157,-0.182136 1.213996,-0.952823 1.82592,-1.414767 0.41071,-0.351341 0.994539,-0.431366 1.499839,-0.260546 0.703265,0.191364 1.394404,0.664225 2.150319,0.478435 0.972115,-0.278237 1.370172,-1.421714 2.341656,-1.701147 0.752209,-0.189638 1.451401,0.288269 2.150111,0.477376"
       title="sin(x)"
       id="path1" /><use
       x="0"
       y="0"
       xlink:href="#path1"
       id="use1"
       transform="translate(0,4.2760712)" /><g
       id="g17"
       transform="translate(-3,-1)"><path
         style="fill:none;fill-opacity:1;fill-rule:evenodd;stroke:#000000;stroke-width:2;stroke-linecap:square;stroke-miterlimit:1.7;stroke-dasharray:none"
         d="m 18,35 v 13 l 39,-8 c 1.914823,-0.397104 3,-1 3,-3 V 27 C 54.133125,19.415388 46.701279,16.32115 39,14"
         id="path11"
         sodipodi:nodetypes="cccccc" /><path
         style="fill:#000000;fill-opacity:1;fill-rule:evenodd;stroke:#000000;stroke-width:2;stroke-linecap:square;stroke-linejoin:round;stroke-miterlimit:1.7;stroke-dasharray:none"
         d="m 18,34 1,1 37,-7.696989 C 52.047615,23.019758 44.051264,18.553247 37.165938,17.114999 Z"
         id="path12"
         sodipodi:nodetypes="ccccc" /></g></g></svg>
