<?xml version="1.0" encoding="UTF-8" standalone="no"?>
<svg
   width="70"
   height="60"
   viewBox="0 0 70 60"
   version="1.1"
   id="svg1"
   sodipodi:docname="org.inkscape.text.uppercase.svg"
   inkscape:version="1.4-dev (e93d6aa925, 2023-06-29, custom)"
   xmlns:inkscape="http://www.inkscape.org/namespaces/inkscape"
   xmlns:sodipodi="http://sodipodi.sourceforge.net/DTD/sodipodi-0.dtd"
   xmlns:xlink="http://www.w3.org/1999/xlink"
   xmlns="http://www.w3.org/2000/svg"
   xmlns:svg="http://www.w3.org/2000/svg">
  <sodipodi:namedview
     id="namedview1"
     pagecolor="#ffffff"
     bordercolor="#000000"
     borderopacity="0.25"
     inkscape:showpageshadow="2"
     inkscape:pageopacity="0.0"
     inkscape:pagecheckerboard="0"
     inkscape:deskcolor="#d1d1d1"
     inkscape:zoom="2.9651899"
     inkscape:cx="-14.838847"
     inkscape:cy="64.751334"
     inkscape:current-layer="layer1" />
  <defs
     id="defs1" />
  <g
     inkscape:label="org.inkscape.text.uppercase"
     inkscape:groupmode="layer"
     id="layer1">
    <image
       preserveAspectRatio="none"
       inkscape:svg-dpi="192"
       width="70"
       height="60"
       xlink:href="_notepad-page-icon.svg"
       id="image1"
       x="0"
       y="0"
       sodipodi:insensitive="true" />
    <g
       id="text3"
       style="font-size:18.6667px;line-height:1.07;font-family:'Kaushan Script';-inkscape-font-specification:'Kaushan Script, Normal';font-variant-ligatures:none;stroke-linecap:square;stroke-linejoin:round;stroke-miterlimit:10"
       aria-label="ABC&#10;XYZ">
      <path
         d="M 19.344002,25.344027 Q 18.448,25.082693 18.093333,24.821359 q -0.336,-0.261333 -0.336,-0.653334 0,-0.298667 0.168,-0.840002 0.168,-0.541334 0.485334,-1.269335 0.336001,-0.746668 0.784001,-1.64267 0.466668,-0.896001 1.045336,-1.92267 -0.485335,-0.01867 -0.877335,-0.01867 -0.373334,-0.01867 -0.616001,-0.01867 0.112,-0.280001 0.634667,-0.485335 0.522668,-0.205333 1.381336,-0.354667 0.728002,-1.213335 1.549336,-2.314671 0.840002,-1.101335 1.680003,-2.016003 0.840002,-0.933335 1.680003,-1.624003 0.840002,-0.709335 1.605337,-1.120002 0.01867,-0.130667 0.01867,-0.224001 0.01867,-0.09333 0.01867,-0.130667 0.261334,0 0.690668,0.130667 0.448001,0.130667 0.858668,0.317334 0.429334,0.186667 0.746668,0.392001 0.336001,0.186667 0.373334,0.317334 -0.616001,1.082668 -1.213335,3.248006 -0.597335,2.14667 -0.989335,5.152009 -0.09333,0.746668 -0.168001,1.69867 -0.056,0.952001 -0.056,2.128004 0,0.410667 0,0.840001 0,0.429334 0.03733,0.896002 -0.03733,0.01867 -0.07467,0.01867 -0.03733,0 -0.149334,0 -0.261334,0 -0.616001,-0.09333 -0.336001,-0.07467 -0.672001,-0.205334 -0.317334,-0.112 -0.560001,-0.261334 -0.224001,-0.149333 -0.280001,-0.261333 -0.01867,-0.242668 -0.01867,-0.485335 0,-0.224 0,-0.485334 0,-1.157335 0.07467,-2.352004 0.09333,-1.194669 0.298668,-2.464005 -0.261334,-0.01867 -0.690668,-0.03733 -0.429334,-0.03733 -0.970669,-0.056 -0.522667,-0.01867 -1.138668,-0.03733 -0.597335,-0.03733 -1.176003,-0.056 -0.448,0.840002 -0.840001,1.680003 -0.392001,0.821335 -0.672001,1.661337 -0.317334,0.896001 -0.522668,1.792003 -0.186667,0.896002 -0.242667,1.680003 z M 26.549348,14.12534 q 0.07467,-0.261334 0.168001,-0.709334 0.112,-0.466668 0.205333,-0.970669 -0.466667,0.168 -1.045335,0.616001 -0.560001,0.448001 -1.176002,1.120002 -0.597334,0.653335 -1.232002,1.493336 -0.616001,0.821335 -1.194669,1.75467 1.568003,-0.130667 3.56534,-0.168 0.149333,-0.784002 0.317334,-1.549336 0.186667,-0.784002 0.392,-1.58667 z m 16.800034,-0.485334 q 0,1.157335 -0.634668,2.072004 -0.634668,0.896001 -1.736003,1.493336 0.709335,0.485334 1.120002,1.194669 0.429334,0.690667 0.429334,1.530669 0,1.008002 -0.616001,1.997337 -0.597334,0.970668 -1.605336,1.736003 -1.008002,0.746668 -2.296004,1.213336 -1.288003,0.466667 -2.632005,0.466667 -1.456003,0 -2.557338,-0.560001 -1.082669,-0.541334 -1.69867,-1.549336 0.186667,-0.560001 0.485335,-1.381336 0.317333,-0.840001 0.690667,-1.75467 0.373334,-0.933335 0.746668,-1.848003 0.392001,-0.914668 0.728002,-1.64267 0.709334,-1.586669 1.269335,-2.632004 0.560001,-1.045336 1.026669,-1.661337 -1.026669,0.317334 -1.86667,0.728002 -0.840002,0.392 -1.232002,0.765334 -0.168001,-0.112 -0.354668,-0.336 -0.168,-0.224001 -0.336,-0.485335 -0.149334,-0.28 -0.261334,-0.560001 -0.09333,-0.28 -0.112,-0.504001 0.485334,-0.336 1.250669,-0.634667 0.784001,-0.317334 1.698669,-0.541335 0.914669,-0.224 1.86667,-0.354667 0.970669,-0.130667 1.848004,-0.130667 2.240004,0 3.509339,0.896002 1.269336,0.896001 1.269336,2.482671 z m -7.112013,4.461341 q -0.354667,-0.168 -0.653334,-0.504001 -0.429334,0.952002 -0.821335,1.86667 -0.373334,0.914669 -0.672001,1.69867 -0.298668,0.784002 -0.485335,1.362669 -0.186667,0.578668 -0.205333,0.840002 0.261334,0.149333 0.616001,0.224 0.373334,0.07467 0.914668,0.07467 1.269336,0 2.426671,-0.354667 1.157336,-0.354668 2.034671,-0.952002 0.877335,-0.616001 1.400002,-1.400003 0.522668,-0.784001 0.522668,-1.642669 0,-1.232002 -1.064002,-1.773337 -1.456003,0.597335 -3.285339,0.597335 -0.261334,0 -0.410668,0 -0.130667,0 -0.317334,-0.03733 z m 3.62134,-6.477345 q -0.392001,0 -0.840001,0.056 -0.429335,0.03733 -0.914669,0.130667 0.07467,0.07467 0.112,0.168001 0.056,0.07467 0.09333,0.168 -0.168,0.224 -0.410667,0.653334 -0.242668,0.429335 -0.541335,1.008002 -0.298667,0.560001 -0.634668,1.250669 -0.317333,0.690668 -0.653334,1.418669 0.317334,-0.07467 0.765335,-0.112 0.466667,-0.056 0.914668,-0.056 0.242667,0 0.466667,0.01867 0.242668,0.01867 0.466668,0.056 0.896002,-0.149334 1.605336,-0.429334 0.728002,-0.298667 1.250669,-0.672001 0.522668,-0.392001 0.802668,-0.858669 0.280001,-0.466667 0.280001,-0.989335 0,-0.896001 -0.709335,-1.344002 -0.709334,-0.466668 -2.053337,-0.466668 z m 4.816006,8.642683 q 0,-1.306669 0.298668,-2.557338 0.317334,-1.269336 0.877335,-2.389338 0.560001,-1.138669 1.325335,-2.072004 0.784002,-0.952002 1.69867,-1.642669 0.933335,-0.690668 1.97867,-1.064002 1.045336,-0.392001 2.146671,-0.392001 1.288002,0 1.997337,0.541334 0.728001,0.541335 0.728001,1.512003 0,0.373334 -0.112,0.765335 -0.09333,0.392 -0.298667,0.784001 -0.186667,0.373334 -0.448001,0.728001 -0.261334,0.354668 -0.578668,0.616002 -0.485334,-0.07467 -0.840001,-0.429335 -0.354668,-0.373334 -0.448001,-0.858668 0.653334,-0.541334 1.026668,-1.120002 0.392001,-0.597334 0.392001,-1.082668 0,-0.821335 -1.026668,-0.821335 -0.429335,0 -0.896002,0.186667 -0.448001,0.168 -0.914668,0.485334 -0.466668,0.317334 -0.914669,0.765335 -0.429334,0.448 -0.802668,0.989335 -2.594671,3.73334 -2.594671,7.63468 0,1.381336 0.429334,2.221338 0.429334,0.840001 1.138669,0.989335 0.802668,-0.186667 2.03467,-1.026669 1.232002,-0.840001 2.688005,-2.184004 0.186667,0.186667 0.224,0.392001 -0.541334,0.709335 -1.120002,1.362669 -0.578667,0.653335 -1.157335,1.194669 -0.560001,0.541334 -1.120002,0.952002 -0.541335,0.410667 -1.008002,0.634667 -2.314671,-0.03733 -3.50934,-1.325335 -1.194669,-1.288003 -1.194669,-3.78934 z"
         id="path1" />
      <path
         d="m 28.696019,43.973395 q -0.168,0.168 -0.504001,0.373334 -0.317334,0.224 -0.690668,0.392001 -0.373334,0.186667 -0.765335,0.317334 -0.373334,0.149333 -0.616001,0.168 -0.242667,0 -0.429334,-0.186667 -0.186667,-0.186667 -0.392001,-0.858668 -0.205333,-0.653335 -0.485334,-1.904004 -0.261334,-1.269335 -0.672001,-3.434673 -1.064002,1.101336 -1.97867,2.128004 -0.914669,1.026669 -1.568003,1.904004 -0.653335,0.877335 -1.026669,1.530669 -0.373334,0.653335 -0.373334,0.989335 -0.224,-0.01867 -0.466667,-0.168 -0.224,-0.149334 -0.410667,-0.354667 Q 18.130667,44.664063 18,44.421396 17.887999,44.178729 17.887999,43.954728 17.944,43.749395 18.168,43.376061 q 0.224,-0.373334 0.560001,-0.802669 0.709335,-0.914668 2.016004,-2.109337 1.325335,-1.213335 3.192005,-2.669338 -1.213335,-6.029344 -3.434673,-6.029344 0.224001,-0.541334 0.709335,-0.952002 0.504001,-0.410667 1.064002,-0.504001 0.616001,0 1.008002,0.168001 0.392001,0.149333 0.709334,0.784001 0.317334,0.634668 0.634668,1.92267 0.317334,1.269336 0.802668,3.490673 0.616001,-0.653334 1.176002,-1.325336 0.578668,-0.690667 1.064002,-1.325335 0.485335,-0.634668 0.858669,-1.176002 0.373334,-0.541335 0.578667,-0.933335 0.205334,-0.354668 0.205334,-0.728002 0,-0.336 -0.205334,-0.877335 0.597335,0.354668 0.896002,0.672002 0.317334,0.298667 0.541334,0.840001 -0.03733,0.448001 -0.261334,0.896002 -0.205333,0.448 -0.746668,1.082668 -0.522667,0.616001 -1.456002,1.53067 -0.933335,0.914668 -2.445338,2.277337 0.354667,1.680003 0.690668,2.837339 0.336001,1.157335 0.690668,1.904003 0.354667,0.728001 0.765335,1.120002 0.410667,0.373334 0.914668,0.504001 z m 7.858673,-6.514678 q 1.400002,-1.53067 2.501338,-3.248006 1.120002,-1.717337 2.072003,-3.864007 0.485334,0.056 0.933335,0.261334 0.448001,0.205333 0.709335,0.466667 -1.026669,1.232002 -1.86667,2.240004 -0.821335,1.008002 -1.512003,1.904004 -0.690668,0.877334 -1.288002,1.698669 -0.578668,0.802668 -1.138669,1.624003 -0.28,0.952002 -0.522668,1.92267 -0.242667,0.970669 -0.429334,1.86667 -0.186667,0.877335 -0.298667,1.624003 -0.09333,0.765335 -0.09333,1.306669 -0.205334,0 -0.653335,-0.09333 -0.448001,-0.07467 -0.914668,-0.186667 -0.466668,-0.112 -0.858668,-0.224001 -0.373334,-0.112 -0.448001,-0.186667 0.298667,-0.504001 0.578668,-1.232002 0.298667,-0.746668 0.578667,-1.549336 0.280001,-0.821335 0.541335,-1.64267 0.261333,-0.840001 0.485334,-1.549336 -0.466668,-1.456002 -0.914669,-2.725338 -0.429334,-1.288002 -0.840001,-2.314671 -0.410667,-1.045335 -0.784002,-1.792003 -0.373334,-0.746668 -0.709334,-1.138669 0.186667,-0.07467 0.560001,-0.149333 0.392001,-0.07467 0.840001,-0.149334 0.466668,-0.07467 0.933335,-0.112 0.485335,-0.056 0.858669,-0.07467 0,0.466668 0.07467,1.138669 0.09333,0.672001 0.224001,1.437336 0.149333,0.765334 0.336,1.549336 0.186667,0.784001 0.373334,1.437336 0.186667,0.653334 0.354668,1.138668 0.186667,0.466668 0.317334,0.616002 z m 7.578681,-4.088008 q -0.07467,-0.261334 -0.130667,-0.597334 -0.03733,-0.354668 -0.03733,-1.026669 0,-0.429334 0.01867,-0.858668 0.01867,-0.448001 0.168,-0.765335 0.914669,0.168001 1.941337,0.317334 1.045336,0.130667 2.128004,0.242667 1.082669,0.112001 2.165337,0.186667 1.082669,0.056 2.090671,0.056 1.381336,0 2.221337,-0.112 0.298667,0.410668 0.373334,0.970669 0.07467,0.560001 0.07467,1.045335 -2.146671,0.877335 -4.069341,2.240004 -1.92267,1.344002 -3.490673,2.818672 -1.568002,1.474669 -2.706671,2.912005 -1.138669,1.437336 -1.69867,2.501338 0.336001,-0.056 0.690668,-0.09333 0.354667,-0.056 0.765335,-0.09333 0.410667,-0.03733 0.914668,-0.07467 0.504001,-0.03733 1.157335,-0.07467 0.914669,-0.056 1.605337,-0.186667 0.690668,-0.149333 1.176002,-0.298667 0.485334,-0.168 0.765334,-0.298667 0.298668,-0.149334 0.429335,-0.242667 0.07467,0.168 0.168,0.504001 0.112,0.336 0.186667,0.746668 0.09333,0.392 0.149334,0.802668 0.056,0.429334 0.056,0.784001 0,0.186667 -0.01867,0.242667 0,0.07467 -0.01867,0.149334 -0.840001,-0.056 -1.69867,-0.130667 -0.840001,-0.07467 -1.680003,-0.07467 -1.120002,0 -2.333337,0.112 -1.194669,0.130667 -2.314671,0.373334 -1.101335,0.261334 -2.03467,0.653335 -0.914669,0.392001 -1.47467,0.933335 -0.149333,-0.485334 -0.317334,-0.840002 -0.149333,-0.336 -0.149333,-0.821334 0,-0.485335 0.186667,-0.784002 0.205334,-0.28 0.541334,-0.466667 1.120002,-1.605337 2.538671,-3.173339 1.437336,-1.58667 3.061339,-3.061339 1.624003,-1.47467 3.360006,-2.800005 1.736003,-1.344003 3.472007,-2.445338 -1.120002,-0.056 -2.370671,-0.056 -0.877335,0 -1.736003,0.03733 -0.858669,0.03733 -1.624003,0.130667 -0.765335,0.07467 -1.41867,0.242667 -0.634667,0.149334 -1.082668,0.373334 z"
         id="path2" />
    </g>
  </g>
</svg>
