<?xml version="1.0" encoding="UTF-8" standalone="no"?>
<svg
   width="70"
   height="60"
   viewBox="0 0 70 60"
   version="1.1"
   id="svg1"
   sodipodi:docname="org.inkscape.text.extract.svg"
   inkscape:version="1.4-dev (de72ba3c18, 2023-06-27, custom)"
   xmlns:inkscape="http://www.inkscape.org/namespaces/inkscape"
   xmlns:sodipodi="http://sodipodi.sourceforge.net/DTD/sodipodi-0.dtd"
   xmlns:xlink="http://www.w3.org/1999/xlink"
   xmlns="http://www.w3.org/2000/svg"
   xmlns:svg="http://www.w3.org/2000/svg">
  <sodipodi:namedview
     id="namedview1"
     pagecolor="#ffffff"
     bordercolor="#000000"
     borderopacity="0.25"
     inkscape:showpageshadow="2"
     inkscape:pageopacity="0.0"
     inkscape:pagecheckerboard="0"
     inkscape:deskcolor="#d1d1d1"
     showgrid="false"
     inkscape:zoom="9.2873396"
     inkscape:cx="55.128812"
     inkscape:cy="40.700568"
     inkscape:current-layer="layer1">
    <inkscape:grid
       id="grid1"
       units="px"
       originx="0"
       originy="0"
       spacingx="1"
       spacingy="1"
       empcolor="#0099e5"
       empopacity="0.30196078"
       color="#3f84a6"
       opacity="0.14901961"
       empspacing="5"
       dotted="false"
       gridanglex="30"
       gridanglez="30"
       visible="false" />
  </sodipodi:namedview>
  <defs
     id="defs1" />
  <g
     inkscape:label="org.inkscape.text.extract"
     inkscape:groupmode="layer"
     id="layer1">
    <image
       preserveAspectRatio="none"
       inkscape:svg-dpi="192"
       width="70"
       height="60"
       xlink:href="_notepad-page-icon.svg"
       id="image1"
       x="0"
       y="0"
       sodipodi:insensitive="true" />
    <rect
       style="fill:#ffffff;fill-rule:evenodd;stroke:none;stroke-width:1;stroke-linejoin:round;stroke-miterlimit:5.5;stroke-opacity:1"
       id="rect1"
       width="55"
       height="40"
       x="7.4999995"
       y="10.5"
       ry="2"
       rx="2" />
    <path
       id="rect2"
       style="fill:#a0a0a0;fill-rule:evenodd;stroke:none;stroke-width:0.999977;stroke-linejoin:round;stroke-miterlimit:5.5"
       d="m 9.5,10.5 h 51.000004 c 1.108,0 2,0.892 2,2 V 18 H 7.5 v -5.5 c 0,-1.108 0.892,-2 2,-2 z"
       sodipodi:nodetypes="sssccss" />
    <g
       id="text2"
       style="font-size:9.33333px;line-height:1.1;-inkscape-font-specification:'sans-serif, Normal';font-variant-ligatures:none;stroke-linecap:square;stroke-linejoin:round;stroke-miterlimit:10"
       aria-label="abc&#10;def"
       transform="translate(-3)">
      <path
         d="m 19.798826,30 h -0.852213 v -0.542318 q -0.113932,0.07747 -0.309895,0.21875 -0.191407,0.136719 -0.373698,0.21875 Q 18.048827,30 17.770832,30.068359 q -0.277994,0.07292 -0.651692,0.07292 -0.688151,0 -1.166666,-0.455729 -0.478516,-0.455729 -0.478516,-1.162109 0,-0.578776 0.246094,-0.934244 0.250651,-0.360026 0.710937,-0.565104 0.464844,-0.205078 1.116536,-0.277995 0.651693,-0.07292 1.399088,-0.109375 v -0.132162 q 0,-0.291666 -0.104817,-0.483072 -0.100261,-0.191406 -0.291667,-0.300781 -0.182292,-0.104818 -0.4375,-0.141276 -0.255208,-0.03646 -0.533203,-0.03646 -0.337239,0 -0.751953,0.09115 -0.414713,0.08659 -0.85677,0.255208 h -0.04557 v -0.870442 q 0.250651,-0.06836 0.724609,-0.150391 0.473958,-0.08203 0.934244,-0.08203 0.537761,0 0.934245,0.09115 0.401041,0.08659 0.692708,0.300781 0.287109,0.209635 0.4375,0.542318 0.15039,0.332682 0.15039,0.824869 z m -0.852213,-1.253255 v -1.417317 q -0.391927,0.02279 -0.92513,0.06836 -0.528645,0.04557 -0.838541,0.132162 -0.369141,0.104817 -0.597005,0.328125 -0.227865,0.21875 -0.227865,0.606119 0,0.4375 0.264323,0.660807 0.264323,0.21875 0.806641,0.21875 0.451171,0 0.824869,-0.173177 0.373698,-0.177734 0.692708,-0.423829 z m 6.981769,-1.330728 q 0,0.63802 -0.182292,1.148437 -0.177734,0.510416 -0.483073,0.85677 -0.323567,0.360026 -0.710937,0.542318 -0.38737,0.177734 -0.852213,0.177734 -0.432943,0 -0.75651,-0.104818 -0.323568,-0.10026 -0.638021,-0.273437 L 22.250649,30 h -0.802083 v -7.091143 h 0.85677 v 2.533853 q 0.360026,-0.296224 0.765625,-0.483073 0.405599,-0.191406 0.911458,-0.191406 0.902343,0 1.421874,0.692708 0.524089,0.692708 0.524089,1.955078 z m -0.884115,0.02279 q 0,-0.911458 -0.300781,-1.380859 -0.300781,-0.473958 -0.970703,-0.473958 -0.373697,0 -0.75651,0.164062 -0.382812,0.159505 -0.710937,0.414714 v 2.916665 q 0.364583,0.164063 0.624349,0.227865 0.264323,0.0638 0.597005,0.0638 0.710937,0 1.111979,-0.464844 0.405598,-0.469401 0.405598,-1.467447 z m 5.983722,2.242187 Q 30.599604,29.886068 30.212234,30 q -0.382813,0.113932 -0.815755,0.113932 -0.551432,0 -1.011718,-0.159505 -0.460287,-0.164062 -0.788412,-0.492187 -0.332682,-0.328125 -0.514973,-0.829427 -0.182292,-0.501302 -0.182292,-1.171224 0,-1.248697 0.683593,-1.959634 0.688151,-0.710938 1.813802,-0.710938 0.4375,0 0.85677,0.123047 0.423828,0.123047 0.77474,0.300781 v 0.952474 h -0.04557 q -0.391927,-0.305338 -0.811198,-0.469401 -0.414713,-0.164062 -0.811197,-0.164062 -0.729167,0 -1.152995,0.492187 -0.41927,0.48763 -0.41927,1.435546 0,0.920573 0.410156,1.417318 0.414713,0.492187 1.162109,0.492187 0.259765,0 0.528645,-0.06836 0.26888,-0.06836 0.483073,-0.177735 0.186849,-0.0957 0.350911,-0.20052 0.164063,-0.109375 0.259766,-0.186849 h 0.04557 z"
         id="path5" />
      <path
         d="M 19.972004,40.266663 H 19.115233 V 39.73346 q -0.369141,0.319011 -0.770182,0.496745 -0.401042,0.177734 -0.870442,0.177734 -0.911458,0 -1.449219,-0.701822 -0.533203,-0.701823 -0.533203,-1.945963 0,-0.647135 0.182292,-1.152995 0.186849,-0.505859 0.501302,-0.861327 0.309896,-0.346354 0.720052,-0.528646 0.414713,-0.182292 0.85677,-0.182292 0.401042,0 0.710937,0.08659 0.309896,0.08203 0.651693,0.259765 V 33.17552 h 0.856771 z m -0.856771,-1.253254 v -2.921223 q -0.346354,-0.154948 -0.619791,-0.214193 -0.273438,-0.05924 -0.597005,-0.05924 -0.720052,0 -1.121094,0.501302 -0.401041,0.501302 -0.401041,1.421875 0,0.9069 0.309895,1.380859 0.309896,0.4694 0.99349,0.4694 0.364583,0 0.738281,-0.159505 0.373697,-0.164062 0.697265,-0.41927 z m 6.804034,-1.203125 h -3.75065 q 0,0.469401 0.141276,0.820312 0.141276,0.346354 0.38737,0.569662 0.236979,0.218749 0.560547,0.328124 0.328124,0.109375 0.720051,0.109375 0.519532,0 1.04362,-0.205078 0.528646,-0.209635 0.751953,-0.410156 h 0.04557 v 0.934245 q -0.432943,0.182291 -0.884115,0.305338 -0.451171,0.123047 -0.947916,0.123047 -1.266927,0 -1.977864,-0.683594 -0.710937,-0.68815 -0.710937,-1.95052 0,-1.248697 0.679036,-1.982421 0.683594,-0.733724 1.795572,-0.733724 1.029948,0 1.585937,0.601563 0.560547,0.601562 0.560547,1.708983 z m -0.833984,-0.65625 q -0.0046,-0.674479 -0.341797,-1.043619 -0.332682,-0.369141 -1.016276,-0.369141 -0.68815,0 -1.098306,0.405599 -0.405599,0.405599 -0.460287,1.007161 z m 4.871743,-3.149087 h -0.04557 q -0.141276,-0.04102 -0.36914,-0.08203 -0.227865,-0.04557 -0.401042,-0.04557 -0.551432,0 -0.802083,0.246093 -0.246093,0.241537 -0.246093,0.879557 v 0.173177 h 1.544921 v 0.720052 h -1.517578 v 4.370441 h -0.85677 V 35.896222 H 26.684892 V 35.17617 h 0.578776 v -0.168619 q 0,-0.906901 0.451171,-1.389974 0.451172,-0.48763 1.303385,-0.48763 0.28711,0 0.514974,0.02734 0.232422,0.02734 0.423828,0.0638 z"
         id="path6" />
    </g>
    <circle
       style="fill:#000000;fill-rule:evenodd;stroke:none;stroke-width:1;stroke-linejoin:round;stroke-miterlimit:5.5"
       id="path3"
       cx="12.999999"
       cy="14.5"
       r="2" />
    <path
       style="fill:#000000;fill-rule:evenodd;stroke:#6f6f6f;stroke-width:1;stroke-linejoin:round;stroke-miterlimit:5.5;stroke-opacity:1"
       d="M 7.9999996,18.5 H 61.999997"
       id="path4" />
    <rect
       style="fill:none;fill-rule:evenodd;stroke:#6f6f6f;stroke-width:1;stroke-linejoin:round;stroke-miterlimit:5.5;stroke-opacity:1"
       id="rect3"
       width="55"
       height="40"
       x="7.4999995"
       y="10.5"
       ry="2"
       rx="2" />
  </g>
</svg>
