<?xml version="1.0" encoding="UTF-8" standalone="no"?>
<svg
   width="70"
   height="60"
   viewBox="0 0 70 60"
   version="1.1"
   id="svg1"
   sodipodi:docname="org.inkscape.effects.inset-shadow.svg"
   inkscape:version="1.4-dev (f25ce46d5c, 2023-06-29)"
   xmlns:inkscape="http://www.inkscape.org/namespaces/inkscape"
   xmlns:sodipodi="http://sodipodi.sourceforge.net/DTD/sodipodi-0.dtd"
   xmlns="http://www.w3.org/2000/svg"
   xmlns:svg="http://www.w3.org/2000/svg">
  <sodipodi:namedview
     id="namedview1"
     pagecolor="#ffffff"
     bordercolor="#000000"
     borderopacity="0.25"
     inkscape:showpageshadow="2"
     inkscape:pageopacity="0.0"
     inkscape:pagecheckerboard="0"
     inkscape:deskcolor="#d1d1d1"
     showgrid="true"
     inkscape:zoom="6.081277"
     inkscape:cx="86.82387"
     inkscape:cy="57.718141"
     inkscape:current-layer="layer1">
    <inkscape:grid
       id="grid42"
       units="px"
       originx="0"
       originy="0"
       spacingx="1"
       spacingy="1"
       empcolor="#0099e5"
       empopacity="0.30196078"
       color="#3f84a6"
       opacity="0.14901961"
       empspacing="5"
       dotted="false"
       gridanglex="30"
       gridanglez="30"
       visible="true" />
  </sodipodi:namedview>
  <defs
     id="defs1">
    <clipPath
       id="clipPath5716">
      <path
         sodipodi:type="star"
         style="fill:#000000;fill-opacity:1;fill-rule:evenodd;stroke:none;stroke-width:2.01239;stroke-linecap:round;stroke-linejoin:round;stroke-miterlimit:1.7;stroke-dasharray:none;stroke-dashoffset:0"
         inkscape:flatsided="false"
         sodipodi:sides="21"
         sodipodi:cx="24.533201"
         sodipodi:cy="21.181671"
         sodipodi:r1="29.737629"
         sodipodi:r2="35.828468"
         sodipodi:arg1="0.94750205"
         sodipodi:arg2="1.0971017"
         inkscape:rounded="0"
         inkscape:randomized="0"
         d="m 41.891446,45.327435 -1.014114,7.737595 -6.874153,-3.693891 -3.249756,7.094919 -5.47996,-5.555973 -5.196643,5.82183 -3.598848,-6.924384 -6.6817856,4.031445 -1.3979639,-7.677532 -7.57322137,1.882848 0.92713597,-7.748498 -7.7917436,-0.433048 3.1698558,-7.130975 -7.3179353,-2.710466 5.1309199,-5.879835 -6.1938959,-4.747046 6.636079,-4.106245 -4.5195023,-6.3618316 7.551594,-1.9677975 -2.4435309,-7.41133975 7.7961164,0.34549758 -0.1504409,-7.80231803 7.3479197,2.6280937 2.156016,-7.5000264 6.246828,4.6771725 4.270902,-6.5313245 4.590679,6.3106639 6.006299,-4.9822849 2.526627,7.3834242 7.20801,-2.9905483 0.238073,7.8001359 7.769259,-0.7330882 -2.071634,7.523771 7.640174,1.5895101 -4.197268,6.5788863 6.832226,3.770873 -5.949956,5.049438 5.417205,5.617178 -7.173964,3.071326 3.520842,6.964372 -7.760534,0.820312 1.311636,7.69275 z"
         inkscape:transform-center-x="-0.033120065"
         inkscape:transform-center-y="0.066369401"
         transform="matrix(0.49692059,0,0,0.49692059,22.559938,19.985892)"
         id="path1" />
    </clipPath>
    <filter
       x="-0.29779206"
       y="-0.29818621"
       height="1.5954527"
       width="1.5951256"
       id="filter4755">
      <feGaussianBlur
         stdDeviation="5.2"
         id="feGaussianBlur1" />
    </filter>
    <clipPath
       id="clipPath2505">
      <path
         sodipodi:type="star"
         style="fill:#000000;fill-opacity:1;fill-rule:evenodd;stroke:none;stroke-width:2.01239;stroke-linecap:round;stroke-linejoin:round;stroke-miterlimit:1.7;stroke-dasharray:none;stroke-dashoffset:0"
         inkscape:flatsided="false"
         sodipodi:sides="21"
         sodipodi:cx="24.533201"
         sodipodi:cy="21.181671"
         sodipodi:r1="29.737629"
         sodipodi:r2="35.828468"
         sodipodi:arg1="0.94750205"
         sodipodi:arg2="1.0971017"
         inkscape:rounded="0"
         inkscape:randomized="0"
         d="m 41.891446,45.327435 -1.014114,7.737595 -6.874153,-3.693891 -3.249756,7.094919 -5.47996,-5.555973 -5.196643,5.82183 -3.598848,-6.924384 -6.6817856,4.031445 -1.3979639,-7.677532 -7.57322137,1.882848 0.92713597,-7.748498 -7.7917436,-0.433048 3.1698558,-7.130975 -7.3179353,-2.710466 5.1309199,-5.879835 -6.1938959,-4.747046 6.636079,-4.106245 -4.5195023,-6.3618316 7.551594,-1.9677975 -2.4435309,-7.41133975 7.7961164,0.34549758 -0.1504409,-7.80231803 7.3479197,2.6280937 2.156016,-7.5000264 6.246828,4.6771725 4.270902,-6.5313245 4.590679,6.3106639 6.006299,-4.9822849 2.526627,7.3834242 7.20801,-2.9905483 0.238073,7.8001359 7.769259,-0.7330882 -2.071634,7.523771 7.640174,1.5895101 -4.197268,6.5788863 6.832226,3.770873 -5.949956,5.049438 5.417205,5.617178 -7.173964,3.071326 3.520842,6.964372 -7.760534,0.820312 1.311636,7.69275 z"
         inkscape:transform-center-x="-0.033120065"
         inkscape:transform-center-y="0.066369401"
         transform="matrix(0.49692059,0,0,0.49692059,22.559938,19.985892)"
         id="path7" />
    </clipPath>
    <filter
       x="-0.29779206"
       y="-0.29818621"
       height="1.5954527"
       width="1.5951256"
       id="filter9282">
      <feGaussianBlur
         stdDeviation="5.2"
         id="feGaussianBlur7" />
    </filter>
    <clipPath
       id="clipPath1064">
      <path
         sodipodi:type="star"
         style="fill:#000000;fill-opacity:1;fill-rule:evenodd;stroke:none;stroke-width:0.60229;stroke-linecap:round;stroke-linejoin:round;stroke-miterlimit:1.7;stroke-dasharray:none;stroke-dashoffset:0"
         inkscape:flatsided="false"
         sodipodi:sides="21"
         sodipodi:cx="24.533201"
         sodipodi:cy="21.181671"
         sodipodi:r1="29.737629"
         sodipodi:r2="35.828468"
         sodipodi:arg1="0.94750205"
         sodipodi:arg2="1.0971017"
         inkscape:rounded="0"
         inkscape:randomized="0"
         d="m 41.891446,45.327435 -1.014114,7.737595 -6.874153,-3.693891 -3.249756,7.094919 -5.47996,-5.555973 -5.196643,5.82183 -3.598848,-6.924384 -6.6817856,4.031445 -1.3979639,-7.677532 -7.57322137,1.882848 0.92713597,-7.748498 -7.7917436,-0.433048 3.1698558,-7.130975 -7.3179353,-2.710466 5.1309199,-5.879835 -6.1938959,-4.747046 6.636079,-4.106245 -4.5195023,-6.3618316 7.551594,-1.9677975 -2.4435309,-7.41133975 7.7961164,0.34549758 -0.1504409,-7.80231803 7.3479197,2.6280937 2.156016,-7.5000264 6.246828,4.6771725 4.270902,-6.5313245 4.590679,6.3106639 6.006299,-4.9822849 2.526627,7.3834242 7.20801,-2.9905483 0.238073,7.8001359 7.769259,-0.7330882 -2.071634,7.523771 7.640174,1.5895101 -4.197268,6.5788863 6.832226,3.770873 -5.949956,5.049438 5.417205,5.617178 -7.173964,3.071326 3.520842,6.964372 -7.760534,0.820312 1.311636,7.69275 z"
         inkscape:transform-center-x="-0.11066183"
         inkscape:transform-center-y="0.22175623"
         transform="matrix(1.6603268,0,0,1.6603268,-47.458226,37.01315)"
         id="path12" />
    </clipPath>
    <filter
       x="-0.48322539"
       y="-0.48396692"
       height="1.9656286"
       width="1.9653015"
       id="filter8">
      <feGaussianBlur
         stdDeviation="5.2"
         id="feGaussianBlur12" />
    </filter>
    <clipPath
       id="clipPath9139">
      <path
         sodipodi:type="star"
         style="fill:none;fill-opacity:1;fill-rule:evenodd;stroke:#000000;stroke-width:1.73009;stroke-linecap:round;stroke-linejoin:round;stroke-miterlimit:1.7;stroke-dasharray:none;stroke-dashoffset:0"
         inkscape:flatsided="false"
         sodipodi:sides="21"
         sodipodi:cx="24.533201"
         sodipodi:cy="21.181671"
         sodipodi:r1="29.737629"
         sodipodi:r2="35.828468"
         sodipodi:arg1="0.94750205"
         sodipodi:arg2="1.0971017"
         inkscape:rounded="0"
         inkscape:randomized="0"
         d="m 41.891446,45.327435 -1.014114,7.737595 -6.874153,-3.693891 -3.249756,7.094919 -5.47996,-5.555973 -5.196643,5.82183 -3.598848,-6.924384 -6.6817856,4.031445 -1.3979639,-7.677532 -7.57322137,1.882848 0.92713597,-7.748498 -7.7917436,-0.433048 3.1698558,-7.130975 -7.3179353,-2.710466 5.1309199,-5.879835 -6.1938959,-4.747046 6.636079,-4.106245 -4.5195023,-6.3618316 7.551594,-1.9677975 -2.4435309,-7.41133975 7.7961164,0.34549758 -0.1504409,-7.80231803 7.3479197,2.6280937 2.156016,-7.5000264 6.246828,4.6771725 4.270902,-6.5313245 4.590679,6.3106639 6.006299,-4.9822849 2.526627,7.3834242 7.20801,-2.9905483 0.238073,7.8001359 7.769259,-0.7330882 -2.071634,7.523771 7.640174,1.5895101 -4.197268,6.5788863 6.832226,3.770873 -5.949956,5.049438 5.417205,5.617178 -7.173964,3.071326 3.520842,6.964372 -7.760534,0.820312 1.311636,7.69275 z"
         inkscape:transform-center-x="-0.038524233"
         inkscape:transform-center-y="0.077202224"
         transform="matrix(0.57800214,0,0,0.57800214,0.36490472,111.17258)"
         id="path17" />
    </clipPath>
    <filter
       x="-0.29779206"
       y="-0.29818621"
       height="1.5954527"
       width="1.5951256"
       id="filter8519">
      <feGaussianBlur
         stdDeviation="5.2"
         id="feGaussianBlur17" />
    </filter>
    <clipPath
       id="clipPath8253">
      <path
         style="opacity:1;fill:#ffffff;fill-rule:evenodd;stroke:#000000;stroke-linecap:round;stroke-linejoin:round;stroke-miterlimit:1.7"
         d="m 74.658576,98.954247 h 26.826474 c 3.22474,0 5.82084,2.596093 5.82084,5.820833 v 10.88244 c 0,3.22474 -2.5961,5.82084 -5.82084,5.82084 H 74.658576 c -3.224744,0 -5.820838,-2.5961 -5.820838,-5.82084 v -10.88244 c 0,-3.22474 2.596094,-5.820833 5.820838,-5.820833 z"
         id="path27" />
    </clipPath>
    <filter
       x="-inf"
       y="-inf"
       height="inf"
       width="inf"
       id="filter7931">
      <feGaussianBlur
         stdDeviation="5.2"
         id="feGaussianBlur27" />
    </filter>
  </defs>
  <g
     inkscape:label="org.inkscape.effects.inset-shadow"
     inkscape:groupmode="layer"
     id="layer1">
    <g
       clip-path="url(#clipPath2505)"
       id="g12"
       style="opacity:1"
       transform="translate(0.3288783,-0.3288783)">
      <g
         id="g11">
        <path
           sodipodi:type="star"
           style="fill:none;stroke:#ffffff;stroke-width:10;stroke-opacity:1;filter:url(#filter9282)"
           inkscape:flatsided="false"
           sodipodi:sides="21"
           sodipodi:cx="24.533201"
           sodipodi:cy="21.181671"
           sodipodi:r1="29.737629"
           sodipodi:r2="35.828468"
           sodipodi:arg1="0.94750205"
           sodipodi:arg2="1.0971017"
           inkscape:rounded="0"
           inkscape:randomized="0"
           d="m 41.891446,45.327435 -1.014114,7.737595 -6.874153,-3.693891 -3.249756,7.094919 -5.47996,-5.555973 -5.196643,5.82183 -3.598848,-6.924384 -6.6817856,4.031445 -1.3979639,-7.677532 -7.57322137,1.882848 0.92713597,-7.748498 -7.7917436,-0.433048 3.1698558,-7.130975 -7.3179353,-2.710466 5.1309199,-5.879835 -6.1938959,-4.747046 6.636079,-4.106245 -4.5195023,-6.3618316 7.551594,-1.9677975 -2.4435309,-7.41133975 7.7961164,0.34549758 -0.1504409,-7.80231803 7.3479197,2.6280937 2.156016,-7.5000264 6.246828,4.6771725 4.270902,-6.5313245 4.590679,6.3106639 6.006299,-4.9822849 2.526627,7.3834242 7.20801,-2.9905483 0.238073,7.8001359 7.769259,-0.7330882 -2.071634,7.523771 7.640174,1.5895101 -4.197268,6.5788863 6.832226,3.770873 -5.949956,5.049438 5.417205,5.617178 -7.173964,3.071326 3.520842,6.964372 -7.760534,0.820312 1.311636,7.69275 z"
           inkscape:transform-center-x="-0.033120065"
           inkscape:transform-center-y="0.066369401"
           transform="matrix(0.49692059,0,0,0.49692059,22.559938,19.985892)"
           id="path8" />
        <path
           sodipodi:type="star"
           style="fill:none;stroke:#aaaaaa;stroke-width:10;stroke-opacity:1;filter:url(#filter9282)"
           inkscape:flatsided="false"
           sodipodi:sides="21"
           sodipodi:cx="24.533201"
           sodipodi:cy="21.181671"
           sodipodi:r1="29.737629"
           sodipodi:r2="35.828468"
           sodipodi:arg1="0.94750205"
           sodipodi:arg2="1.0971017"
           inkscape:rounded="0"
           inkscape:randomized="0"
           d="m 41.891446,45.327435 -1.014114,7.737595 -6.874153,-3.693891 -3.249756,7.094919 -5.47996,-5.555973 -5.196643,5.82183 -3.598848,-6.924384 -6.6817856,4.031445 -1.3979639,-7.677532 -7.57322137,1.882848 0.92713597,-7.748498 -7.7917436,-0.433048 3.1698558,-7.130975 -7.3179353,-2.710466 5.1309199,-5.879835 -6.1938959,-4.747046 6.636079,-4.106245 -4.5195023,-6.3618316 7.551594,-1.9677975 -2.4435309,-7.41133975 7.7961164,0.34549758 -0.1504409,-7.80231803 7.3479197,2.6280937 2.156016,-7.5000264 6.246828,4.6771725 4.270902,-6.5313245 4.590679,6.3106639 6.006299,-4.9822849 2.526627,7.3834242 7.20801,-2.9905483 0.238073,7.8001359 7.769259,-0.7330882 -2.071634,7.523771 7.640174,1.5895101 -4.197268,6.5788863 6.832226,3.770873 -5.949956,5.049438 5.417205,5.617178 -7.173964,3.071326 3.520842,6.964372 -7.760534,0.820312 1.311636,7.69275 z"
           inkscape:transform-center-x="-0.033120065"
           inkscape:transform-center-y="0.066369401"
           transform="matrix(0.49692059,0,0,0.49692059,22.559938,19.985892)"
           id="path9" />
        <path
           sodipodi:type="star"
           style="fill:none;stroke:#555555;stroke-width:10;stroke-opacity:1;filter:url(#filter9282)"
           inkscape:flatsided="false"
           sodipodi:sides="21"
           sodipodi:cx="24.533201"
           sodipodi:cy="21.181671"
           sodipodi:r1="29.737629"
           sodipodi:r2="35.828468"
           sodipodi:arg1="0.94750205"
           sodipodi:arg2="1.0971017"
           inkscape:rounded="0"
           inkscape:randomized="0"
           d="m 41.891446,45.327435 -1.014114,7.737595 -6.874153,-3.693891 -3.249756,7.094919 -5.47996,-5.555973 -5.196643,5.82183 -3.598848,-6.924384 -6.6817856,4.031445 -1.3979639,-7.677532 -7.57322137,1.882848 0.92713597,-7.748498 -7.7917436,-0.433048 3.1698558,-7.130975 -7.3179353,-2.710466 5.1309199,-5.879835 -6.1938959,-4.747046 6.636079,-4.106245 -4.5195023,-6.3618316 7.551594,-1.9677975 -2.4435309,-7.41133975 7.7961164,0.34549758 -0.1504409,-7.80231803 7.3479197,2.6280937 2.156016,-7.5000264 6.246828,4.6771725 4.270902,-6.5313245 4.590679,6.3106639 6.006299,-4.9822849 2.526627,7.3834242 7.20801,-2.9905483 0.238073,7.8001359 7.769259,-0.7330882 -2.071634,7.523771 7.640174,1.5895101 -4.197268,6.5788863 6.832226,3.770873 -5.949956,5.049438 5.417205,5.617178 -7.173964,3.071326 3.520842,6.964372 -7.760534,0.820312 1.311636,7.69275 z"
           inkscape:transform-center-x="-0.033120065"
           inkscape:transform-center-y="0.066369401"
           transform="matrix(0.49692059,0,0,0.49692059,22.559938,19.985892)"
           id="path10" />
        <path
           sodipodi:type="star"
           style="fill:none;stroke:#000000;stroke-width:10;stroke-opacity:1;filter:url(#filter9282)"
           inkscape:flatsided="false"
           sodipodi:sides="21"
           sodipodi:cx="24.533201"
           sodipodi:cy="21.181671"
           sodipodi:r1="29.737629"
           sodipodi:r2="35.828468"
           sodipodi:arg1="0.94750205"
           sodipodi:arg2="1.0971017"
           inkscape:rounded="0"
           inkscape:randomized="0"
           d="m 41.891446,45.327435 -1.014114,7.737595 -6.874153,-3.693891 -3.249756,7.094919 -5.47996,-5.555973 -5.196643,5.82183 -3.598848,-6.924384 -6.6817856,4.031445 -1.3979639,-7.677532 -7.57322137,1.882848 0.92713597,-7.748498 -7.7917436,-0.433048 3.1698558,-7.130975 -7.3179353,-2.710466 5.1309199,-5.879835 -6.1938959,-4.747046 6.636079,-4.106245 -4.5195023,-6.3618316 7.551594,-1.9677975 -2.4435309,-7.41133975 7.7961164,0.34549758 -0.1504409,-7.80231803 7.3479197,2.6280937 2.156016,-7.5000264 6.246828,4.6771725 4.270902,-6.5313245 4.590679,6.3106639 6.006299,-4.9822849 2.526627,7.3834242 7.20801,-2.9905483 0.238073,7.8001359 7.769259,-0.7330882 -2.071634,7.523771 7.640174,1.5895101 -4.197268,6.5788863 6.832226,3.770873 -5.949956,5.049438 5.417205,5.617178 -7.173964,3.071326 3.520842,6.964372 -7.760534,0.820312 1.311636,7.69275 z"
           inkscape:transform-center-x="-0.033120065"
           inkscape:transform-center-y="0.066369401"
           transform="matrix(0.49692059,0,0,0.49692059,22.559938,19.985892)"
           id="path11" />
      </g>
    </g>
  </g>
</svg>
