<?xml version="1.0" encoding="UTF-8" standalone="no"?><svg
   width="70"
   height="60"
   viewBox="0 0 70 60"
   version="1.1"
   id="svg1"
   sodipodi:docname="org.inkscape.render.calendar.svg"
   inkscape:version="1.4-dev (de72ba3c18, 2023-06-27, custom)"
   xmlns:inkscape="http://www.inkscape.org/namespaces/inkscape"
   xmlns:sodipodi="http://sodipodi.sourceforge.net/DTD/sodipodi-0.dtd"
   xmlns="http://www.w3.org/2000/svg"
   xmlns:svg="http://www.w3.org/2000/svg">
  <sodipodi:namedview
     id="namedview1"
     pagecolor="#ffffff"
     bordercolor="#000000"
     borderopacity="0.25"
     inkscape:showpageshadow="2"
     inkscape:pageopacity="0.0"
     inkscape:pagecheckerboard="0"
     inkscape:deskcolor="#d1d1d1"
     showgrid="true"
     inkscape:zoom="8.6917105"
     inkscape:cx="53.154094"
     inkscape:cy="33.480176"
     inkscape:current-layer="layer1">
    <inkscape:grid
       id="grid1"
       units="px"
       originx="0"
       originy="0"
       spacingx="1"
       spacingy="1"
       empcolor="#0099e5"
       empopacity="0.30196078"
       color="#3f84a6"
       opacity="0.14901961"
       empspacing="5"
       dotted="false"
       gridanglex="30"
       gridanglez="30"
       visible="true" />
  </sodipodi:namedview>
  <defs
     id="defs1" />
  <g
     inkscape:label="org.inkscape.render.calendar"
     inkscape:groupmode="layer"
     id="layer1">
    <g
       id="g208"
       transform="matrix(0.20287106,0,0,0.20287106,-75.563896,-0.772525)"
       style="stroke-width:4.92924">
      <path
         d="m 497.4618,37.658683 q -1.59944,-1.913059 -4.5788,-1.913059 -4.07701,0 -5.55101,3.042078 -0.84676,1.75625 -1.00357,5.582368 h -8.68717 q 0.21954,-5.8019 2.10123,-9.377125 3.57523,-6.805471 12.70146,-6.805471 7.21317,0 11.47835,4.014287 4.26518,3.982926 4.26518,10.568866 0,5.049221 -3.01071,8.969424 -1.97578,2.603014 -6.49186,5.8019 l -3.57522,2.540291 q -3.3557,2.383483 -4.61016,3.449778 -1.2231,1.066296 -2.06987,2.477568 h 19.85191 v 7.871767 h -31.14209 q 0.12544,-4.892413 2.10123,-8.938062 1.91306,-4.547435 9.03214,-9.628017 6.17824,-4.421989 7.99722,-6.335048 2.79118,-2.979354 2.79118,-6.523217 0,-2.885269 -1.59944,-4.798328 z m 31.07936,37.351691 q -8.68716,0 -12.19967,-6.084155 -3.48114,-6.084154 -3.48114,-17.342976 0,-11.258822 3.48114,-17.374338 3.51251,-6.115516 12.19967,-6.115516 8.68717,0 12.19968,6.115516 3.48114,6.115516 3.48114,17.374338 0,11.258822 -3.51251,17.342976 -3.48114,6.084155 -12.16831,6.084155 z m 5.2374,-11.446992 q 1.2231,-4.139734 1.2231,-11.980139 0,-8.216745 -1.25447,-12.168309 -1.2231,-3.951564 -5.20603,-3.951564 -3.98292,0 -5.26875,3.951564 -1.28582,3.951564 -1.28582,12.168309 0,7.840405 1.28582,12.011501 1.28583,4.139734 5.26875,4.139734 3.98293,0 5.2374,-4.171096 z m 35.12501,-25.904699 q -1.59944,-1.913059 -4.5788,-1.913059 -4.07701,0 -5.551,3.042078 -0.84677,1.75625 -1.00357,5.582368 h -8.68717 q 0.21953,-5.8019 2.10123,-9.377125 3.57522,-6.805471 12.70145,-6.805471 7.21317,0 11.47835,4.014287 4.26519,3.982926 4.26519,10.568866 0,5.049221 -3.01072,8.969424 -1.97578,2.603014 -6.49186,5.8019 l -3.57522,2.540291 q -3.35569,2.383483 -4.61016,3.449778 -1.2231,1.066296 -2.06987,2.477568 h 19.85191 v 7.871767 h -31.14209 q 0.12545,-4.892413 2.10123,-8.938062 1.91306,-4.547435 9.03215,-9.628017 6.17824,-4.421989 7.99721,-6.335048 2.79118,-2.979354 2.79118,-6.523217 0,-2.885269 -1.59944,-4.798328 z m 25.68517,-0.18817 q -1.50536,2.007144 -1.44264,5.362838 h -8.34219 q 0.12545,-3.387055 1.16038,-6.429133 1.09766,-2.665737 3.44978,-4.923774 1.75625,-1.599443 4.1711,-2.446207 2.41484,-0.846763 5.92734,-0.846763 6.52322,0 10.50615,3.387055 4.01428,3.355693 4.01428,9.032147 0,4.014287 -2.38348,6.77411 -1.50536,1.724889 -3.13616,2.352121 1.2231,0 3.5125,2.101229 3.41842,3.167524 3.41842,8.655807 0,5.770538 -4.01429,10.161165 -3.98293,4.359266 -11.82333,4.359266 -9.65938,0 -13.42278,-6.303686 -1.97578,-3.355694 -2.19531,-8.781254 h 8.78125 q 0,2.728461 0.87813,4.516073 1.6308,3.292971 5.92735,3.292971 2.63437,0 4.57879,-1.787613 1.97578,-1.818974 1.97578,-5.206029 0,-4.484712 -3.63794,-5.990069 -2.06987,-0.846764 -6.52322,-0.846764 v -6.397771 q 4.35927,-0.06272 6.08415,-0.846764 2.97936,-1.317188 2.97936,-5.331475 0,-2.603015 -1.53672,-4.233819 -1.50536,-1.630804 -4.26518,-1.630804 -3.16753,0 -4.64152,2.007143 z"
         id="text2521"
         style="font-weight:bold;font-size:64.2286px;font-family:Helvetica;-inkscape-font-specification:'Helvetica, Bold';text-align:center;text-anchor:middle;fill:#808080;stroke-width:4.92924"
         aria-label="2023" />
      <path
         d="M 512.01488,100.27561 V 89.497684 h 3.21978 v 10.725656 q 0,1.96533 -0.6795,3.11525 -1.14992,1.94442 -4.15018,1.94442 -3.00025,0 -4.02473,-1.56808 -1.02448,-1.57853 -1.02448,-4.296536 v -0.355431 h 3.04207 v 0.355431 q 0.0418,1.787606 0.38679,2.519376 0.35544,0.72132 1.50536,0.72132 1.13947,0 1.50536,-0.79449 0.21953,-0.47043 0.21953,-1.58899 z m 6.59638,-5.53009 q 1.18129,-1.505355 4.0561,-1.505355 1.87124,0 3.32432,0.742224 1.45309,0.742223 1.45309,2.801633 v 5.226928 q 0,0.5436 0.0209,1.31719 0.0314,0.58541 0.17771,0.79449 0.14636,0.20908 0.43907,0.34498 v 0.43906 h -3.2407 q -0.1359,-0.34498 -0.18817,-0.64814 -0.0523,-0.30316 -0.0836,-0.68995 -0.61678,0.66904 -1.42173,1.13947 -0.96175,0.55405 -2.1744,0.55405 -1.54717,0 -2.56119,-0.87812 -1.00357,-0.88858 -1.00357,-2.50893 0,-2.101224 1.62034,-3.042072 0.88858,-0.512239 2.61347,-0.73177 l 1.01402,-0.125446 q 0.82586,-0.104538 1.18129,-0.261346 0.63768,-0.271801 0.63768,-0.846763 0,-0.700408 -0.49133,-0.961755 -0.48087,-0.2718 -1.42172,-0.2718 -1.05584,0 -1.4949,0.522693 -0.31362,0.386793 -0.41816,1.045386 h -2.87481 q 0.0941,-1.494902 0.83631,-2.456657 z m 2.21622,8.00765 q 0.41815,0.34498 1.02448,0.34498 0.96175,0 1.7667,-0.56451 0.8154,-0.5645 0.84676,-2.05941 v -1.108105 q -0.28225,0.177716 -0.57496,0.292708 -0.28226,0.104539 -0.78404,0.198623 l -0.66905,0.125447 q -0.94084,0.167257 -1.34855,0.407697 -0.68995,0.4077 -0.68995,1.26492 0,0.76313 0.42861,1.09765 z m 14.62494,-7.035441 q -1.5158,0 -2.08031,1.285824 -0.29271,0.679501 -0.29271,1.735341 v 6.167776 h -2.9689 V 93.532873 h 2.87481 v 1.662163 q 0.57497,-0.878124 1.08721,-1.264917 0.91993,-0.689954 2.33121,-0.689954 1.7667,0 2.88526,0.930393 1.12902,0.919939 1.12902,3.06298 v 7.673132 h -3.05253 v -6.930908 q 0,-0.899032 -0.24044,-1.379909 -0.43906,-0.878124 -1.67262,-0.878124 z m 15.0222,7.579051 q -0.0418,0.0523 -0.20908,0.31361 -0.16726,0.26135 -0.39725,0.45997 -0.7004,0.62723 -1.359,0.85722 -0.64814,0.22998 -1.52626,0.22998 -2.52983,0 -3.40796,-1.81897 -0.49133,-1.00357 -0.49133,-2.95844 v -6.868185 h 3.05253 v 6.868185 q 0,0.97221 0.22998,1.46354 0.4077,0.86767 1.59944,0.86767 1.52627,0 2.09077,-1.23356 0.29271,-0.66904 0.29271,-1.766698 v -6.199137 h 3.02117 v 11.394705 h -2.89572 z m 6.19913,-8.55126 q 1.18129,-1.505355 4.0561,-1.505355 1.87124,0 3.32433,0.742224 1.45308,0.742223 1.45308,2.801633 v 5.226928 q 0,0.5436 0.0209,1.31719 0.0314,0.58541 0.17772,0.79449 0.14635,0.20908 0.43906,0.34498 v 0.43906 h -3.2407 q -0.1359,-0.34498 -0.18817,-0.64814 -0.0523,-0.30316 -0.0836,-0.68995 -0.61678,0.66904 -1.42172,1.13947 -0.96176,0.55405 -2.1744,0.55405 -1.54718,0 -2.5612,-0.87812 -1.00357,-0.88858 -1.00357,-2.50893 0,-2.101224 1.62035,-3.042072 0.88858,-0.512239 2.61346,-0.73177 l 1.01403,-0.125446 q 0.82585,-0.104538 1.18128,-0.261346 0.63769,-0.271801 0.63769,-0.846763 0,-0.700408 -0.49133,-0.961755 -0.48088,-0.2718 -1.42173,-0.2718 -1.05584,0 -1.4949,0.522693 -0.31362,0.386793 -0.41815,1.045386 h -2.87481 q 0.0941,-1.494902 0.8363,-2.456657 z m 2.21622,8.00765 q 0.41816,0.34498 1.02448,0.34498 0.96175,0 1.7667,-0.56451 0.8154,-0.5645 0.84676,-2.05941 v -1.108105 q -0.28225,0.177716 -0.57496,0.292708 -0.28225,0.104539 -0.78404,0.198623 l -0.66904,0.125447 q -0.94085,0.167257 -1.34855,0.407697 -0.68996,0.4077 -0.68996,1.26492 0,0.76313 0.42861,1.09765 z m 14.99083,-6.491841 q -1.79806,0 -2.41484,1.170833 -0.34497,0.658593 -0.34497,2.028048 v 5.44646 h -3.00026 V 93.511965 h 2.84345 v 1.986233 q 0.68995,-1.139471 1.20219,-1.557625 0.83631,-0.700408 2.1744,-0.700408 0.0836,0 0.1359,0.01045 0.0627,0 0.26135,0.01045 v 3.052527 q -0.28225,-0.03136 -0.50179,-0.04182 -0.21953,-0.01045 -0.35543,-0.01045 z m 7.23407,5.655541 2.35212,-8.404905 h 3.16752 l -3.90974,11.206535 q -1.12902,3.2407 -1.78761,4.01428 -0.65859,0.78404 -2.63437,0.78404 -0.39725,0 -0.63769,-0.0104 -0.24044,0 -0.72131,-0.0314 v -2.38348 l 0.37633,0.0209 q 0.43907,0.0209 0.83631,-0.0314 0.39725,-0.0523 0.66905,-0.24044 0.26135,-0.17771 0.48088,-0.74222 0.22998,-0.56451 0.18817,-0.68996 l -4.18155,-11.896485 h 3.31388 z"
         id="text2522"
         style="font-weight:bold;font-size:21.4095px;font-family:Helvetica;-inkscape-font-specification:'Helvetica, Bold';text-align:center;text-anchor:middle;fill:#686868;stroke-width:4.92924"
         aria-label="January" />
      <path
         d="m 439.87787,122.39564 1.50537,-0.14636 q 0.1359,0.75791 0.54883,1.11334 0.41815,0.35544 1.12379,0.35544 0.74746,0 1.1238,-0.31362 0.38156,-0.31885 0.38156,-0.74223 0,-0.2718 -0.16203,-0.45997 -0.15681,-0.1934 -0.55406,-0.33453 -0.2718,-0.0941 -1.23879,-0.33452 -1.24401,-0.30839 -1.7458,-0.75791 -0.70564,-0.63246 -0.70564,-1.54195 0,-0.58542 0.3293,-1.09243 0.33453,-0.51224 0.95653,-0.77882 0.62724,-0.26657 1.51059,-0.26657 1.44264,0 2.16919,0.63246 0.73177,0.63246 0.76836,1.6883 l -1.54718,0.0679 q -0.0993,-0.59064 -0.42861,-0.84676 -0.32407,-0.26135 -0.97744,-0.26135 -0.67428,0 -1.05584,0.27703 -0.24567,0.17771 -0.24567,0.47565 0,0.2718 0.22999,0.4652 0.29271,0.24567 1.42173,0.51224 1.12902,0.26658 1.66739,0.55406 0.54361,0.28225 0.84677,0.77881 0.30839,0.49134 0.30839,1.21788 0,0.6586 -0.36589,1.23357 -0.36588,0.57496 -1.03493,0.85722 -0.66905,0.27702 -1.6674,0.27702 -1.45309,0 -2.23191,-0.66905 -0.77881,-0.67427 -0.9304,-1.9601 z m 11.17523,2.49325 v -0.83108 q -0.30316,0.44429 -0.79973,0.70041 -0.49133,0.25612 -1.04016,0.25612 -0.55928,0 -1.00357,-0.24567 -0.44429,-0.24566 -0.64292,-0.68995 -0.19862,-0.4443 -0.19862,-1.22834 v -3.51251 h 1.46877 v 2.55075 q 0,1.17084 0.0784,1.43741 0.0836,0.26135 0.29793,0.41816 0.21431,0.15158 0.5436,0.15158 0.37635,0 0.67428,-0.20385 0.29794,-0.20908 0.4077,-0.51224 0.10977,-0.30839 0.10977,-1.50014 v -2.34167 h 1.46877 v 5.55102 z m 7.93451,0 h -1.46877 v -2.83301 q 0,-0.89903 -0.0941,-1.16038 -0.0941,-0.26657 -0.30839,-0.41293 -0.20907,-0.14635 -0.50701,-0.14635 -0.38157,0 -0.68473,0.20908 -0.30316,0.20907 -0.41816,0.55405 -0.10976,0.34498 -0.10976,1.27538 v 2.51416 h -1.46878 v -5.55102 h 1.36424 v 0.8154 q 0.72654,-0.94085 1.82943,-0.94085 0.48611,0 0.88858,0.17772 0.40248,0.17249 0.60633,0.44429 0.20908,0.2718 0.28748,0.61678 0.0836,0.34498 0.0836,0.98789 z"
         id="text2523"
         style="font-weight:bold;font-size:10.7048px;font-family:arial;-inkscape-font-specification:'arial, Bold';text-align:center;text-anchor:middle;fill:#909090;stroke-width:4.92924"
         aria-label="Sun" />
      <path
         d="m 471.47469,124.88889 v -7.66271 h 2.31554 l 1.39037,5.22695 1.37469,-5.22695 h 2.32077 v 7.66271 h -1.43741 v -6.0319 l -1.52105,6.0319 h -1.48968 l -1.51581,-6.0319 v 6.0319 z m 8.58789,-2.85391 q 0,-0.73178 0.36066,-1.41651 0.36066,-0.68473 1.01925,-1.04539 0.66383,-0.36066 1.47923,-0.36066 1.2597,0 2.06465,0.82063 0.80495,0.81541 0.80495,2.06465 0,1.2597 -0.81541,2.09078 -0.81017,0.82586 -2.04374,0.82586 -0.76313,0 -1.45832,-0.34498 -0.68995,-0.34498 -1.05061,-1.0088 -0.36066,-0.66905 -0.36066,-1.62558 z m 1.50536,0.0784 q 0,0.82586 0.39202,1.26492 0.39202,0.43907 0.96699,0.43907 0.57496,0 0.96176,-0.43907 0.39202,-0.43906 0.39202,-1.27537 0,-0.81541 -0.39202,-1.25447 -0.3868,-0.43907 -0.96176,-0.43907 -0.57497,0 -0.96699,0.43907 -0.39202,0.43906 -0.39202,1.26492 z m 10.42254,2.77551 h -1.46877 v -2.83301 q 0,-0.89903 -0.0941,-1.16038 -0.0941,-0.26657 -0.30839,-0.41293 -0.20908,-0.14635 -0.50702,-0.14635 -0.38157,0 -0.68473,0.20908 -0.30316,0.20907 -0.41816,0.55405 -0.10976,0.34498 -0.10976,1.27538 v 2.51416 h -1.46878 v -5.55102 h 1.36424 v 0.8154 q 0.72655,-0.94085 1.82943,-0.94085 0.48611,0 0.88858,0.17772 0.40248,0.17249 0.60633,0.44429 0.20908,0.2718 0.28748,0.61678 0.0836,0.34498 0.0836,0.98789 z"
         id="text2524"
         style="font-weight:bold;font-size:10.7048px;font-family:arial;-inkscape-font-specification:'arial, Bold';text-align:center;text-anchor:middle;fill:#909090;stroke-width:4.92924"
         aria-label="Mon" />
      <path
         d="m 507.21384,124.88889 v -6.36643 h -2.27372 v -1.29628 h 6.0894 v 1.29628 h -2.2685 v 6.36643 z m 7.66272,0 v -0.83108 q -0.30317,0.44429 -0.79973,0.70041 -0.49133,0.25612 -1.04016,0.25612 -0.55928,0 -1.00358,-0.24567 -0.44429,-0.24566 -0.64291,-0.68995 -0.19863,-0.4443 -0.19863,-1.22834 v -3.51251 h 1.46878 v 2.55075 q 0,1.17084 0.0784,1.43741 0.0836,0.26135 0.29794,0.41816 0.2143,0.15158 0.5436,0.15158 0.37634,0 0.67428,-0.20385 0.29794,-0.20908 0.4077,-0.51224 0.10977,-0.30839 0.10977,-1.50014 v -2.34167 h 1.46877 v 5.55102 z m 6.09985,-1.76671 1.46355,0.24567 q -0.28226,0.80495 -0.89381,1.22833 -0.60633,0.41816 -1.52104,0.41816 -1.44787,0 -2.14306,-0.94608 -0.54883,-0.75791 -0.54883,-1.91306 0,-1.37992 0.72132,-2.15873 0.72132,-0.78405 1.82421,-0.78405 1.23879,0 1.95488,0.82063 0.71609,0.81541 0.68473,2.50371 h -3.67977 q 0.0157,0.65337 0.35543,1.01926 0.33975,0.36066 0.84677,0.36066 0.34497,0 0.58019,-0.18817 0.23521,-0.18817 0.35543,-0.60633 z m 0.0836,-1.48445 q -0.0157,-0.63769 -0.3293,-0.96699 -0.31361,-0.33452 -0.76313,-0.33452 -0.48088,0 -0.7945,0.3502 -0.31362,0.35021 -0.30839,0.95131 z"
         id="text2525"
         style="font-weight:bold;font-size:10.7048px;font-family:arial;-inkscape-font-specification:'arial, Bold';text-align:center;text-anchor:middle;fill:#909090;stroke-width:4.92924"
         aria-label="Tue" />
      <path
         d="m 536.60753,124.88889 -1.82943,-7.66271 h 1.58377 l 1.15515,5.26354 1.40083,-5.26354 h 1.83988 l 1.34333,5.3524 1.17607,-5.3524 h 1.55763 l -1.8608,7.66271 h -1.64126 l -1.52627,-5.72874 -1.52104,5.72874 z m 12.02722,-1.76671 1.46355,0.24567 q -0.28226,0.80495 -0.89381,1.22833 -0.60633,0.41816 -1.52104,0.41816 -1.44787,0 -2.14305,-0.94608 -0.54883,-0.75791 -0.54883,-1.91306 0,-1.37992 0.72132,-2.15873 0.72131,-0.78405 1.8242,-0.78405 1.23879,0 1.95488,0.82063 0.7161,0.81541 0.68473,2.50371 h -3.67977 q 0.0157,0.65337 0.35543,1.01926 0.33975,0.36066 0.84677,0.36066 0.34498,0 0.58019,-0.18817 0.23521,-0.18817 0.35543,-0.60633 z m 0.0836,-1.48445 q -0.0157,-0.63769 -0.32929,-0.96699 -0.31362,-0.33452 -0.76314,-0.33452 -0.48088,0 -0.7945,0.3502 -0.31361,0.35021 -0.30839,0.95131 z m 7.74635,3.25116 h -1.36424 v -0.8154 q -0.33975,0.47565 -0.80495,0.71086 -0.45997,0.22999 -0.9304,0.22999 -0.95653,0 -1.64126,-0.76836 -0.6795,-0.77359 -0.6795,-2.15351 0,-1.41127 0.66382,-2.14305 0.66382,-0.737 1.67785,-0.737 0.9304,0 1.6099,0.77359 v -2.75983 h 1.46878 z m -3.92022,-2.89573 q 0,0.88858 0.24567,1.28583 0.35543,0.57497 0.99312,0.57497 0.50701,0 0.86245,-0.42861 0.35543,-0.43384 0.35543,-1.29106 0,-0.95653 -0.34498,-1.37469 -0.34498,-0.42338 -0.88335,-0.42338 -0.5227,0 -0.87813,0.41815 -0.35021,0.41293 -0.35021,1.23879 z"
         id="text2526"
         style="font-weight:bold;font-size:10.7048px;font-family:arial;-inkscape-font-specification:'arial, Bold';text-align:center;text-anchor:middle;fill:#909090;stroke-width:4.92924"
         aria-label="Wed" />
      <path
         d="m 570.75246,124.88889 v -6.36643 h -2.27372 v -1.29628 h 6.0894 v 1.29628 h -2.2685 v 6.36643 z m 6.26712,-7.66271 v 2.81733 q 0.71086,-0.83109 1.69876,-0.83109 0.50701,0 0.91472,0.18817 0.4077,0.18817 0.61155,0.48088 0.20908,0.29271 0.28225,0.64814 0.0784,0.35544 0.0784,1.10289 v 3.25639 h -1.46878 v -2.93232 q 0,-0.8729 -0.0836,-1.10811 -0.0836,-0.23521 -0.29793,-0.37112 -0.20908,-0.14112 -0.52793,-0.14112 -0.36588,0 -0.65336,0.17771 -0.28749,0.17772 -0.42339,0.53838 -0.13067,0.35543 -0.13067,1.05584 v 2.78074 h -1.46878 v -7.66271 z m 8.72901,7.66271 v -0.83108 q -0.30316,0.44429 -0.79972,0.70041 -0.49134,0.25612 -1.04017,0.25612 -0.55928,0 -1.00357,-0.24567 -0.44429,-0.24566 -0.64292,-0.68995 -0.19862,-0.4443 -0.19862,-1.22834 v -3.51251 h 1.46877 v 2.55075 q 0,1.17084 0.0784,1.43741 0.0836,0.26135 0.29793,0.41816 0.21431,0.15158 0.54361,0.15158 0.37634,0 0.67427,-0.20385 0.29794,-0.20908 0.4077,-0.51224 0.10977,-0.30839 0.10977,-1.50014 v -2.34167 h 1.46877 v 5.55102 z"
         id="text2527"
         style="font-weight:bold;font-size:10.7048px;font-family:arial;-inkscape-font-specification:'arial, Bold';text-align:center;text-anchor:middle;fill:#909090;stroke-width:4.92924"
         aria-label="Thu" />
      <path
         d="m 604.12125,124.88889 v -7.66271 h 5.25309 v 1.29628 h -3.70591 v 1.81376 h 3.19889 v 1.29628 h -3.19889 v 3.25639 z m 7.92406,0 h -1.46877 v -5.55102 h 1.36423 v 0.78927 q 0.35021,-0.55928 0.62724,-0.737 0.28225,-0.17772 0.63768,-0.17772 0.50179,0 0.96699,0.27703 l -0.45474,1.2806 q -0.37112,-0.24044 -0.68996,-0.24044 -0.30839,0 -0.5227,0.17249 -0.2143,0.16727 -0.33975,0.61156 -0.12022,0.44429 -0.12022,1.86079 z m 2.75983,-6.3037 v -1.35901 h 1.46878 v 1.35901 z m 0,6.3037 v -5.55102 h 1.46878 v 5.55102 z"
         id="text2528"
         style="font-weight:bold;font-size:10.7048px;font-family:arial;-inkscape-font-specification:'arial, Bold';text-align:center;text-anchor:middle;fill:#909090;stroke-width:4.92924"
         aria-label="Fri" />
      <path
         d="m 634.34335,122.39564 1.50536,-0.14636 q 0.1359,0.75791 0.54883,1.11334 0.41816,0.35544 1.1238,0.35544 0.74745,0 1.12379,-0.31362 0.38157,-0.31885 0.38157,-0.74223 0,-0.2718 -0.16204,-0.45997 -0.1568,-0.1934 -0.55405,-0.33453 -0.2718,-0.0941 -1.23879,-0.33452 -1.24401,-0.30839 -1.7458,-0.75791 -0.70564,-0.63246 -0.70564,-1.54195 0,-0.58542 0.3293,-1.09243 0.33452,-0.51224 0.95653,-0.77882 0.62723,-0.26657 1.51059,-0.26657 1.44264,0 2.16918,0.63246 0.73178,0.63246 0.76837,1.6883 l -1.54718,0.0679 q -0.0993,-0.59064 -0.42861,-0.84676 -0.32407,-0.26135 -0.97744,-0.26135 -0.67428,0 -1.05585,0.27703 -0.24566,0.17771 -0.24566,0.47565 0,0.2718 0.22998,0.4652 0.29271,0.24567 1.42173,0.51224 1.12903,0.26658 1.6674,0.55406 0.5436,0.28225 0.84677,0.77881 0.30839,0.49134 0.30839,1.21788 0,0.6586 -0.36589,1.23357 -0.36588,0.57496 -1.03493,0.85722 -0.66905,0.27702 -1.6674,0.27702 -1.4531,0 -2.23191,-0.66905 -0.77882,-0.67427 -0.9304,-1.9601 z m 8.61925,-1.36424 -1.33288,-0.24044 q 0.22476,-0.80495 0.77359,-1.19174 0.54883,-0.3868 1.63081,-0.3868 0.98267,0 1.46355,0.23522 0.48088,0.22998 0.67427,0.59064 0.19863,0.35543 0.19863,1.31197 l -0.0157,1.71444 q 0,0.73177 0.0679,1.08198 0.0732,0.34497 0.26657,0.74222 h -1.45309 q -0.0575,-0.14635 -0.14113,-0.43383 -0.0366,-0.13068 -0.0523,-0.17249 -0.37634,0.36588 -0.80495,0.54883 -0.42861,0.18294 -0.91471,0.18294 -0.85722,0 -1.35379,-0.4652 -0.49133,-0.4652 -0.49133,-1.17606 0,-0.47043 0.22476,-0.83632 0.22476,-0.37111 0.62723,-0.56451 0.40771,-0.19862 1.17084,-0.34498 1.02971,-0.19339 1.42696,-0.36066 v -0.14635 q 0,-0.42338 -0.20908,-0.6011 -0.20908,-0.18294 -0.78927,-0.18294 -0.39202,0 -0.61155,0.15681 -0.21953,0.15158 -0.35543,0.53837 z m 1.96533,1.19175 q -0.28226,0.0941 -0.89381,0.22476 -0.61155,0.13067 -0.79972,0.25612 -0.28749,0.20385 -0.28749,0.51747 0,0.30839 0.22999,0.53314 0.22999,0.22476 0.58542,0.22476 0.39725,0 0.75791,-0.26134 0.26657,-0.19863 0.3502,-0.48611 0.0575,-0.18817 0.0575,-0.71609 z m 5.43603,-2.88528 v 1.17084 h -1.00357 v 2.23713 q 0,0.67951 0.0261,0.7945 0.0314,0.10977 0.13068,0.18294 0.10453,0.0732 0.25089,0.0732 0.20385,0 0.59064,-0.14113 l 0.12545,1.13948 q -0.51224,0.21953 -1.16038,0.21953 -0.39725,0 -0.71609,-0.13067 -0.31885,-0.1359 -0.47043,-0.34498 -0.14636,-0.21431 -0.20385,-0.57497 -0.047,-0.25612 -0.047,-1.03493 v -2.42008 h -0.67428 v -1.17084 h 0.67428 V 118.235 l 1.474,-0.85722 v 1.96011 z"
         id="text2529"
         style="font-weight:bold;font-size:10.7048px;font-family:arial;-inkscape-font-specification:'arial, Bold';text-align:center;text-anchor:middle;fill:#909090;stroke-width:4.92924"
         aria-label="Sat" />
      <path
         d="m 451.2112,149.86667 h -2.28939 v -7.84038 h -2.67357 v -1.52104 q 1.05845,-0.047 1.48184,-0.14112 0.67427,-0.14897 1.09765,-0.59587 0.29009,-0.30578 0.43906,-0.8154 0.0862,-0.30578 0.0862,-0.45474 h 1.85817 z"
         id="text2530"
         style="font-weight:bold;font-size:16.0571px;font-family:Helvetica;-inkscape-font-specification:'Helvetica, Bold';text-align:center;text-anchor:middle;fill:#e01b24;stroke-width:4.92924"
         aria-label="1" />
      <path
         d="m 482.83155,140.81103 q -0.39986,-0.47826 -1.1447,-0.47826 -1.01925,0 -1.38774,0.76051 -0.21169,0.43906 -0.2509,1.39559 h -2.17178 q 0.0549,-1.45047 0.5253,-2.34427 0.89381,-1.70137 3.17536,-1.70137 1.80329,0 2.86958,1.00357 1.06629,0.99573 1.06629,2.64221 0,1.2623 -0.75268,2.24235 -0.49394,0.65075 -1.62296,1.45047 l -0.8938,0.63507 q -0.83892,0.59587 -1.15254,0.86244 -0.30577,0.26658 -0.51746,0.61939 h 4.96296 v 1.96794 h -7.7855 q 0.0314,-1.2231 0.52531,-2.23451 0.47826,-1.13686 2.25803,-2.407 1.54455,-1.10549 1.99929,-1.58375 0.6978,-0.74484 0.6978,-1.6308 0,-0.72132 -0.39986,-1.19958 z"
         id="text2531"
         style="font-weight:bold;font-size:16.0571px;font-family:Helvetica;-inkscape-font-specification:'Helvetica, Bold';text-align:center;text-anchor:middle;stroke-width:4.92924"
         aria-label="2" />
      <path
         d="m 512.43688,140.76399 q -0.37633,0.50178 -0.36065,1.3407 h -2.08554 q 0.0314,-0.84676 0.29009,-1.60728 0.27441,-0.66643 0.86244,-1.23094 0.43906,-0.39986 1.04277,-0.61155 0.60371,-0.21169 1.48183,-0.21169 1.6308,0 2.62653,0.84676 1.00357,0.83893 1.00357,2.25803 0,1.00357 -0.59587,1.69353 -0.37634,0.43122 -0.78404,0.58803 0.30578,0 0.87813,0.5253 0.8546,0.79188 0.8546,2.16395 0,1.44263 -1.00357,2.54028 -0.99573,1.08981 -2.95582,1.08981 -2.41484,0 -3.35569,-1.57591 -0.49394,-0.83892 -0.54882,-2.19531 h 2.1953 q 0,0.68211 0.21953,1.12901 0.4077,0.82324 1.48184,0.82324 0.65859,0 1.14469,-0.4469 0.49394,-0.45474 0.49394,-1.3015 0,-1.12118 -0.90948,-1.49751 -0.51746,-0.21169 -1.6308,-0.21169 v -1.59944 q 1.08981,-0.0157 1.52104,-0.21169 0.74483,-0.3293 0.74483,-1.33287 0,-0.65075 -0.38418,-1.05845 -0.37634,-0.4077 -1.06629,-0.4077 -0.79188,0 -1.16038,0.50179 z"
         id="text2532"
         style="font-weight:bold;font-size:16.0571px;font-family:Helvetica;-inkscape-font-specification:'Helvetica, Bold';text-align:center;text-anchor:middle;stroke-width:4.92924"
         aria-label="3" />
      <path
         d="m 549.87482,145.67206 v 1.74841 H 548.589 v 2.4462 h -2.18747 v -2.4462 h -4.50038 v -1.95226 l 4.17893,-6.89953 h 2.50892 v 7.10338 z m -6.31934,0 h 2.84605 v -4.90807 z"
         id="text2533"
         style="font-weight:bold;font-size:16.0571px;font-family:Helvetica;-inkscape-font-specification:'Helvetica, Bold';text-align:center;text-anchor:middle;stroke-width:4.92924"
         aria-label="4" />
      <path
         d="m 577.87288,144.22159 q -0.4077,0 -0.70563,0.10193 -0.52531,0.18817 -0.79188,0.69779 l -2.00714,-0.0941 0.79972,-6.28015 h 6.26446 v 1.89738 h -4.64934 l -0.4077,2.4854 q 0.51746,-0.33714 0.80756,-0.44691 0.4861,-0.18032 1.18389,-0.18032 1.41127,0 2.46188,0.94868 1.05061,0.94869 1.05061,2.75982 0,1.57591 -1.0114,2.81469 -1.01141,1.23878 -3.02639,1.23878 -1.62296,0 -2.66573,-0.87028 -1.04277,-0.87028 -1.16038,-2.46972 h 2.22667 q 0.13329,0.72916 0.50963,1.12902 0.37633,0.39201 1.09765,0.39201 0.83108,0 1.2623,-0.58018 0.43906,-0.58803 0.43906,-1.474 0,-0.87028 -0.4077,-1.46615 -0.4077,-0.60371 -1.27014,-0.60371 z"
         id="text2534"
         style="font-weight:bold;font-size:16.0571px;font-family:Helvetica;-inkscape-font-specification:'Helvetica, Bold';text-align:center;text-anchor:middle;stroke-width:4.92924"
         aria-label="5" />
      <path
         d="m 610.61443,142.48887 q 1.51319,0 2.47756,1.02709 0.97221,1.02709 0.97221,2.62653 0,1.5916 -0.94869,2.80685 -0.94869,1.21526 -2.94798,1.21526 -2.14827,0 -3.16752,-1.79544 -0.79187,-1.40343 -0.79187,-3.62226 0,-1.3015 0.10976,-2.1169 0.19601,-1.45047 0.76052,-2.41484 0.4861,-0.82324 1.27014,-1.32502 0.79188,-0.50179 1.88953,-0.50179 1.58376,0 2.5246,0.8154 0.94085,0.80756 1.05846,2.15611 h -2.22667 q 0,-0.27442 -0.21169,-0.60371 -0.36066,-0.53315 -1.08982,-0.53315 -1.08981,0 -1.55239,1.2231 -0.25089,0.67427 -0.34498,1.99146 0.41554,-0.49395 0.96437,-0.72132 0.54882,-0.22737 1.25446,-0.22737 z m -1.50535,2.13258 q -0.6586,0.50963 -0.6586,1.64648 0,0.91733 0.49395,1.49752 0.49394,0.58018 1.25446,0.58018 0.74484,0 1.16822,-0.55666 0.43122,-0.56451 0.43122,-1.45831 0,-0.99573 -0.48611,-1.52104 -0.4861,-0.53314 -1.19173,-0.53314 -0.57235,0 -1.01141,0.34497 z"
         id="text2535"
         style="font-weight:bold;font-size:16.0571px;font-family:Helvetica;-inkscape-font-specification:'Helvetica, Bold';text-align:center;text-anchor:middle;stroke-width:4.92924"
         aria-label="6" />
      <path
         d="m 644.89263,142.15173 q -0.8938,1.27015 -1.49751,2.61869 -0.47826,1.05845 -0.86244,2.58733 -0.38418,1.52887 -0.38418,2.50892 h -2.32075 q 0.10192,-3.05775 2.00713,-6.35855 1.23094,-2.04634 2.06202,-2.8539 h -5.66859 l 0.0314,-2.00714 h 8.02855 v 1.74841 q -0.50178,0.49394 -1.39559,1.75624 z"
         id="text2536"
         style="font-weight:bold;font-size:16.0571px;font-family:Helvetica;-inkscape-font-specification:'Helvetica, Bold';text-align:center;text-anchor:middle;fill:#e01b24;stroke-width:4.92924"
         aria-label="7" />
      <path
         d="m 446.53834,174.13098 q -0.98005,-1.00357 -0.98005,-2.43836 0,-0.95653 0.43122,-1.73273 0.43906,-0.77619 1.27798,-1.16821 -0.82324,-0.54883 -1.07413,-1.1839 -0.24305,-0.64291 -0.24305,-1.19958 0,-1.23878 0.933,-2.10906 0.93301,-0.87812 2.63437,-0.87812 1.70136,0 2.63437,0.87812 0.93301,0.87028 0.93301,2.10906 0,0.55667 -0.2509,1.19958 -0.24305,0.63507 -1.06629,1.10549 0.83892,0.47043 1.2623,1.24662 0.42338,0.7762 0.42338,1.73273 0,1.43479 -1.06629,2.4462 -1.05845,1.00357 -2.96366,1.00357 -1.90522,0 -2.88526,-1.01141 z m 1.3407,-2.58733 q 0,0.83892 0.43122,1.3015 0.43906,0.46259 1.20742,0.46259 0.76836,0 1.19958,-0.46259 0.43906,-0.46258 0.43906,-1.3015 0,-0.87028 -0.4469,-1.31718 -0.43906,-0.45474 -1.19174,-0.45474 -0.75267,0 -1.19958,0.45474 -0.43906,0.4469 -0.43906,1.31718 z m 0.58803,-3.87315 q 0.37634,0.39202 1.05061,0.39202 0.68212,0 1.05061,-0.39202 0.37634,-0.39202 0.37634,-1.01141 0,-0.67427 -0.37634,-1.05061 -0.36849,-0.38418 -1.05061,-0.38418 -0.67427,0 -1.05845,0.38418 -0.37634,0.37634 -0.37634,1.05061 0,0.61939 0.38418,1.01141 z"
         id="text2537"
         style="font-weight:bold;font-size:16.0571px;font-family:Helvetica;-inkscape-font-specification:'Helvetica, Bold';text-align:center;text-anchor:middle;fill:#e01b24;stroke-width:4.92924"
         aria-label="8" />
      <path
         d="m 481.42028,175.17375 q -1.27798,0 -2.29723,-0.75268 -1.01925,-0.76052 -1.16822,-2.21099 h 2.22667 q 0.0784,0.50179 0.42338,0.8154 0.34498,0.31362 0.91733,0.31362 1.10549,0 1.55239,-1.2231 0.24305,-0.67427 0.30578,-1.96794 -0.30578,0.38418 -0.65076,0.58803 -0.62723,0.37634 -1.54455,0.37634 -1.35639,0 -2.407,-0.933 -1.05061,-0.94085 -1.05061,-2.70494 0,-1.82681 1.05061,-2.95582 1.05845,-1.13686 2.74414,-1.13686 2.59516,0 3.55953,2.29724 0.54882,1.3015 0.54882,3.42624 0,2.06202 -0.5253,3.44193 -1.00357,2.62653 -3.68498,2.62653 z m -0.78404,-9.60447 q -0.64291,0.50179 -0.64291,1.70136 0,1.01141 0.4077,1.52104 0.41554,0.50178 1.27014,0.50178 0.46258,0 0.87028,-0.26657 0.76052,-0.4861 0.76052,-1.68568 0,-0.96437 -0.45474,-1.52888 -0.4469,-0.5645 -1.23094,-0.5645 -0.57235,0 -0.98005,0.32145 z"
         id="text2538"
         style="font-weight:bold;font-size:16.0571px;font-family:Helvetica;-inkscape-font-specification:'Helvetica, Bold';text-align:center;text-anchor:middle;stroke-width:4.92924"
         aria-label="9" />
      <path
         d="m 510.97465,174.84445 h -2.28939 v -7.84038 h -2.67357 v -1.52103 q 1.05845,-0.047 1.48183,-0.14113 0.67428,-0.14897 1.09766,-0.59587 0.29009,-0.30577 0.43906,-0.8154 0.0862,-0.30577 0.0862,-0.45474 h 1.85817 z m 7.27588,0.28226 q -2.17179,0 -3.04991,-1.52104 -0.87028,-1.52103 -0.87028,-4.33573 0,-2.8147 0.87028,-4.34357 0.87812,-1.52887 3.04991,-1.52887 2.17178,0 3.04991,1.52887 0.87028,1.52887 0.87028,4.34357 0,2.8147 -0.87813,4.33573 -0.87028,1.52104 -3.04206,1.52104 z m 1.30934,-2.86174 q 0.30578,-1.03493 0.30578,-2.99503 0,-2.05418 -0.31362,-3.04207 -0.30577,-0.98788 -1.3015,-0.98788 -0.99573,0 -1.31719,0.98788 -0.32145,0.98789 -0.32145,3.04207 0,1.9601 0.32145,3.00287 0.32146,1.03493 1.31719,1.03493 0.99573,0 1.30934,-1.04277 z"
         id="text2539"
         style="font-weight:bold;font-size:16.0571px;font-family:Helvetica;-inkscape-font-specification:'Helvetica, Bold';text-align:center;text-anchor:middle;stroke-width:4.92924"
         aria-label="10" />
      <path
         d="m 543.52803,174.84445 h -2.28939 v -7.84038 h -2.67357 v -1.52103 q 1.05845,-0.047 1.48183,-0.14113 0.67428,-0.14897 1.09766,-0.59587 0.29009,-0.30577 0.43906,-0.8154 0.0862,-0.30577 0.0862,-0.45474 h 1.85817 z m 8.05208,0 h -2.2894 v -7.84038 h -2.67357 v -1.52103 q 1.05846,-0.047 1.48184,-0.14113 0.67427,-0.14897 1.09765,-0.59587 0.29009,-0.30577 0.43906,-0.8154 0.0863,-0.30577 0.0863,-0.45474 h 1.85817 z"
         id="text2540"
         style="font-weight:bold;font-size:16.0571px;font-family:Helvetica;-inkscape-font-specification:'Helvetica, Bold';text-align:center;text-anchor:middle;stroke-width:4.92924"
         aria-label="11" />
      <path
         d="m 575.20323,174.84445 h -2.28939 v -7.84038 h -2.67357 v -1.52103 q 1.05845,-0.047 1.48183,-0.14113 0.67427,-0.14897 1.09765,-0.59587 0.2901,-0.30577 0.43907,-0.8154 0.0862,-0.30577 0.0862,-0.45474 h 1.85817 z m 8.43625,-9.05564 q -0.39986,-0.47826 -1.1447,-0.47826 -1.01925,0 -1.38774,0.76052 -0.21169,0.43906 -0.2509,1.39558 h -2.17178 q 0.0549,-1.45047 0.5253,-2.34427 0.89381,-1.70136 3.17536,-1.70136 1.80329,0 2.86958,1.00357 1.06629,0.99572 1.06629,2.6422 0,1.26231 -0.75268,2.24235 -0.49394,0.65075 -1.62296,1.45047 l -0.8938,0.63507 q -0.83892,0.59587 -1.15253,0.86245 -0.30578,0.26657 -0.51747,0.61939 h 4.96296 v 1.96793 h -7.7855 q 0.0314,-1.2231 0.52531,-2.23451 0.47826,-1.13685 2.25803,-2.40699 1.54455,-1.1055 1.9993,-1.58376 0.69779,-0.74484 0.69779,-1.6308 0,-0.72131 -0.39986,-1.19958 z"
         id="text2541"
         style="font-weight:bold;font-size:16.0571px;font-family:Helvetica;-inkscape-font-specification:'Helvetica, Bold';text-align:center;text-anchor:middle;stroke-width:4.92924"
         aria-label="12" />
      <path
         d="m 607.31755,174.84445 h -2.28939 v -7.84038 h -2.67357 v -1.52103 q 1.05845,-0.047 1.48183,-0.14113 0.67427,-0.14897 1.09765,-0.59587 0.2901,-0.30577 0.43906,-0.8154 0.0863,-0.30577 0.0863,-0.45474 h 1.85817 z m 5.92733,-9.10268 q -0.37634,0.50178 -0.36066,1.3407 h -2.08554 q 0.0314,-0.84676 0.29009,-1.60727 0.27442,-0.66644 0.86244,-1.23094 0.43907,-0.39986 1.04277,-0.61155 0.60371,-0.21169 1.48184,-0.21169 1.6308,0 2.62652,0.84676 1.00357,0.83892 1.00357,2.25803 0,1.00357 -0.59587,1.69352 -0.37633,0.43122 -0.78403,0.58803 0.30577,0 0.87812,0.5253 0.8546,0.79188 0.8546,2.16395 0,1.44263 -1.00357,2.54028 -0.99573,1.08982 -2.95582,1.08982 -2.41484,0 -3.35569,-1.57592 -0.49394,-0.83892 -0.54882,-2.19531 h 2.1953 q 0,0.68212 0.21954,1.12902 0.4077,0.82324 1.48183,0.82324 0.65859,0 1.14469,-0.4469 0.49395,-0.45475 0.49395,-1.30151 0,-1.12117 -0.90949,-1.49751 -0.51746,-0.21169 -1.6308,-0.21169 v -1.59944 q 1.08982,-0.0157 1.52104,-0.21169 0.74483,-0.32929 0.74483,-1.33286 0,-0.65076 -0.38417,-1.05846 -0.37634,-0.40769 -1.0663,-0.40769 -0.79188,0 -1.16037,0.50178 z"
         id="text2542"
         style="font-weight:bold;font-size:16.0571px;font-family:Helvetica;-inkscape-font-specification:'Helvetica, Bold';text-align:center;text-anchor:middle;stroke-width:4.92924"
         aria-label="13" />
      <path
         d="m 639.43181,174.84445 h -2.28939 v -7.84038 h -2.67357 v -1.52103 q 1.05845,-0.047 1.48183,-0.14113 0.67427,-0.14897 1.09765,-0.59587 0.2901,-0.30577 0.43906,-0.8154 0.0862,-0.30577 0.0862,-0.45474 h 1.85817 z m 11.25094,-4.1946 v 1.7484 h -1.28582 v 2.4462 h -2.18747 v -2.4462 h -4.50037 V 170.446 l 4.17892,-6.89954 h 2.50892 v 7.10339 z m -6.31934,0 h 2.84605 v -4.90808 z"
         id="text2543"
         style="font-weight:bold;font-size:16.0571px;font-family:Helvetica;-inkscape-font-specification:'Helvetica, Bold';text-align:center;text-anchor:middle;fill:#e01b24;stroke-width:4.92924"
         aria-label="14" />
      <path
         d="m 446.74611,199.82222 h -2.28939 v -7.84038 h -2.67357 v -1.52104 q 1.05845,-0.047 1.48183,-0.14112 0.67427,-0.14897 1.09765,-0.59587 0.2901,-0.30578 0.43906,-0.8154 0.0863,-0.30578 0.0863,-0.45474 h 1.85817 z m 7.13474,-5.64507 q -0.4077,0 -0.70563,0.10192 -0.52531,0.18817 -0.79188,0.69779 l -2.00714,-0.0941 0.79972,-6.28015 h 6.26447 v 1.89738 h -4.64935 l -0.4077,2.4854 q 0.51747,-0.33714 0.80756,-0.4469 0.4861,-0.18033 1.1839,-0.18033 1.41127,0 2.46188,0.94868 1.05061,0.94869 1.05061,2.75982 0,1.57591 -1.01141,2.81469 -1.01141,1.23878 -3.02639,1.23878 -1.62296,0 -2.66573,-0.87028 -1.04277,-0.87028 -1.16037,-2.46972 h 2.22666 q 0.13329,0.72916 0.50963,1.12902 0.37634,0.39202 1.09765,0.39202 0.83108,0 1.2623,-0.58019 0.43907,-0.58803 0.43907,-1.47399 0,-0.87029 -0.4077,-1.46616 -0.4077,-0.6037 -1.27015,-0.6037 z"
         id="text2544"
         style="font-weight:bold;font-size:16.0571px;font-family:Helvetica;-inkscape-font-specification:'Helvetica, Bold';text-align:center;text-anchor:middle;fill:#e01b24;stroke-width:4.92924"
         aria-label="15" />
      <path
         d="m 478.8604,199.82222 h -2.2894 v -7.84038 h -2.67357 v -1.52104 q 1.05846,-0.047 1.48184,-0.14112 0.67427,-0.14897 1.09765,-0.59587 0.29009,-0.30578 0.43906,-0.8154 0.0863,-0.30578 0.0863,-0.45474 h 1.85817 z m 7.76197,-7.3778 q 1.5132,0 2.47756,1.02709 0.97221,1.02709 0.97221,2.62653 0,1.5916 -0.94869,2.80686 -0.94868,1.21525 -2.94798,1.21525 -2.14826,0 -3.16751,-1.79544 -0.79188,-1.40343 -0.79188,-3.62226 0,-1.3015 0.10976,-2.1169 0.19601,-1.45047 0.76052,-2.41484 0.4861,-0.82324 1.27014,-1.32502 0.79188,-0.50179 1.88953,-0.50179 1.58376,0 2.52461,0.8154 0.94084,0.80756 1.05845,2.15611 h -2.22667 q 0,-0.27442 -0.21169,-0.60371 -0.36066,-0.53315 -1.08981,-0.53315 -1.08982,0 -1.5524,1.2231 -0.25089,0.67427 -0.34497,1.99146 0.41554,-0.49395 0.96436,-0.72132 0.54883,-0.22737 1.25446,-0.22737 z m -1.50535,2.13258 q -0.65859,0.50963 -0.65859,1.64648 0,0.91733 0.49394,1.49752 0.49395,0.58019 1.25446,0.58019 0.74484,0 1.16822,-0.55667 0.43122,-0.56451 0.43122,-1.45831 0,-0.99573 -0.4861,-1.52104 -0.48611,-0.53314 -1.19174,-0.53314 -0.57235,0 -1.01141,0.34497 z"
         id="text2545"
         style="font-weight:bold;font-size:16.0571px;font-family:Helvetica;-inkscape-font-specification:'Helvetica, Bold';text-align:center;text-anchor:middle;stroke-width:4.92924"
         aria-label="16" />
      <path
         d="m 510.97465,199.82222 h -2.28939 v -7.84038 h -2.67357 v -1.52104 q 1.05845,-0.047 1.48183,-0.14112 0.67428,-0.14897 1.09766,-0.59587 0.29009,-0.30578 0.43906,-0.8154 0.0862,-0.30578 0.0862,-0.45474 h 1.85817 z m 9.92593,-7.71494 q -0.89381,1.27015 -1.49752,2.61869 -0.47826,1.05845 -0.86244,2.58733 -0.38418,1.52887 -0.38418,2.50892 h -2.32075 q 0.10192,-3.05775 2.00714,-6.35855 1.23094,-2.04634 2.06202,-2.8539 h -5.6686 l 0.0314,-2.00714 h 8.02855 v 1.74841 q -0.50178,0.49394 -1.39558,1.75624 z"
         id="text2546"
         style="font-weight:bold;font-size:16.0571px;font-family:Helvetica;-inkscape-font-specification:'Helvetica, Bold';text-align:center;text-anchor:middle;stroke-width:4.92924"
         aria-label="17" />
      <path
         d="m 543.08897,199.82222 h -2.28939 v -7.84038 h -2.67357 v -1.52104 q 1.05845,-0.047 1.48183,-0.14112 0.67428,-0.14897 1.09766,-0.59587 0.29009,-0.30578 0.43906,-0.8154 0.0862,-0.30578 0.0862,-0.45474 h 1.85817 z m 4.25733,-0.71347 q -0.98005,-1.00357 -0.98005,-2.43836 0,-0.95653 0.43122,-1.73273 0.43906,-0.7762 1.27798,-1.16821 -0.82324,-0.54883 -1.07413,-1.1839 -0.24305,-0.64291 -0.24305,-1.19958 0,-1.23878 0.93301,-2.10906 0.933,-0.87813 2.63436,-0.87813 1.70137,0 2.63437,0.87813 0.93301,0.87028 0.93301,2.10906 0,0.55667 -0.25089,1.19958 -0.24306,0.63507 -1.0663,1.10549 0.83892,0.47042 1.2623,1.24662 0.42339,0.7762 0.42339,1.73273 0,1.43479 -1.0663,2.4462 -1.05845,1.00356 -2.96366,1.00356 -1.90521,0 -2.88526,-1.0114 z m 1.3407,-2.58733 q 0,0.83892 0.43123,1.3015 0.43906,0.46259 1.20741,0.46259 0.76836,0 1.19958,-0.46259 0.43906,-0.46258 0.43906,-1.3015 0,-0.87028 -0.4469,-1.31718 -0.43906,-0.45475 -1.19174,-0.45475 -0.75267,0 -1.19957,0.45475 -0.43907,0.4469 -0.43907,1.31718 z m 0.58803,-3.87315 q 0.37634,0.39202 1.05061,0.39202 0.68212,0 1.05062,-0.39202 0.37633,-0.39202 0.37633,-1.01141 0,-0.67427 -0.37633,-1.05061 -0.3685,-0.38418 -1.05062,-0.38418 -0.67427,0 -1.05845,0.38418 -0.37634,0.37634 -0.37634,1.05061 0,0.61939 0.38418,1.01141 z"
         id="text2547"
         style="font-weight:bold;font-size:16.0571px;font-family:Helvetica;-inkscape-font-specification:'Helvetica, Bold';text-align:center;text-anchor:middle;stroke-width:4.92924"
         aria-label="18" />
      <path
         d="m 575.20323,199.82222 h -2.28939 v -7.84038 h -2.67357 v -1.52104 q 1.05845,-0.047 1.48183,-0.14112 0.67427,-0.14897 1.09765,-0.59587 0.2901,-0.30578 0.43907,-0.8154 0.0862,-0.30578 0.0862,-0.45474 h 1.85817 z m 7.02498,0.3293 q -1.27798,0 -2.29723,-0.75268 -1.01925,-0.76052 -1.16822,-2.21099 h 2.22667 q 0.0784,0.50179 0.42338,0.8154 0.34498,0.31362 0.91733,0.31362 1.10549,0 1.55239,-1.2231 0.24305,-0.67428 0.30578,-1.96794 -0.30578,0.38418 -0.65075,0.58803 -0.62724,0.37634 -1.54456,0.37634 -1.35639,0 -2.407,-0.93301 -1.05061,-0.94084 -1.05061,-2.70493 0,-1.82681 1.05061,-2.95582 1.05845,-1.13686 2.74414,-1.13686 2.59516,0 3.55953,2.29723 0.54883,1.30151 0.54883,3.42625 0,2.06202 -0.52531,3.44193 -1.00357,2.62653 -3.68498,2.62653 z m -0.78404,-9.60447 q -0.64291,0.50178 -0.64291,1.70136 0,1.01141 0.4077,1.52104 0.41554,0.50178 1.27014,0.50178 0.46259,0 0.87029,-0.26657 0.76051,-0.48611 0.76051,-1.68568 0,-0.96437 -0.45474,-1.52888 -0.4469,-0.56451 -1.23094,-0.56451 -0.57235,0 -0.98005,0.32146 z"
         id="text2548"
         style="font-weight:bold;font-size:16.0571px;font-family:Helvetica;-inkscape-font-specification:'Helvetica, Bold';text-align:center;text-anchor:middle;stroke-width:4.92924"
         aria-label="19" />
      <path
         d="m 606.82361,190.76658 q -0.39986,-0.47826 -1.1447,-0.47826 -1.01925,0 -1.38775,0.76051 -0.21169,0.43906 -0.25089,1.39559 h -2.17179 q 0.0549,-1.45047 0.52531,-2.34427 0.8938,-1.70137 3.17535,-1.70137 1.80329,0 2.86958,1.00357 1.0663,0.99573 1.0663,2.64221 0,1.2623 -0.75268,2.24235 -0.49395,0.65075 -1.62296,1.45047 l -0.8938,0.63507 q -0.83892,0.59587 -1.15254,0.86244 -0.30577,0.26658 -0.51746,0.61939 h 4.96296 v 1.96794 h -7.7855 q 0.0314,-1.2231 0.5253,-2.23451 0.47827,-1.13685 2.25803,-2.407 1.54456,-1.10549 1.9993,-1.58375 0.69779,-0.74484 0.69779,-1.6308 0,-0.72132 -0.39985,-1.19958 z m 7.76981,9.33789 q -2.17178,0 -3.04991,-1.52103 -0.87028,-1.52103 -0.87028,-4.33573 0,-2.8147 0.87028,-4.34357 0.87813,-1.52888 3.04991,-1.52888 2.17179,0 3.04991,1.52888 0.87028,1.52887 0.87028,4.34357 0,2.8147 -0.87812,4.33573 -0.87028,1.52103 -3.04207,1.52103 z m 1.30935,-2.86174 q 0.30577,-1.03493 0.30577,-2.99502 0,-2.05418 -0.31361,-3.04207 -0.30578,-0.98789 -1.30151,-0.98789 -0.99573,0 -1.31718,0.98789 -0.32146,0.98789 -0.32146,3.04207 0,1.96009 0.32146,3.00286 0.32145,1.03494 1.31718,1.03494 0.99573,0 1.30935,-1.04278 z"
         id="text2549"
         style="font-weight:bold;font-size:16.0571px;font-family:Helvetica;-inkscape-font-specification:'Helvetica, Bold';text-align:center;text-anchor:middle;stroke-width:4.92924"
         aria-label="20" />
      <path
         d="m 638.93786,190.76658 q -0.39986,-0.47826 -1.14469,-0.47826 -1.01925,0 -1.38775,0.76051 -0.21169,0.43906 -0.25089,1.39559 h -2.17179 q 0.0549,-1.45047 0.52531,-2.34427 0.8938,-1.70137 3.17535,-1.70137 1.80329,0 2.86958,1.00357 1.06629,0.99573 1.06629,2.64221 0,1.2623 -0.75267,2.24235 -0.49395,0.65075 -1.62296,1.45047 l -0.89381,0.63507 q -0.83892,0.59587 -1.15253,0.86244 -0.30578,0.26658 -0.51747,0.61939 h 4.96296 v 1.96794 h -7.78549 q 0.0314,-1.2231 0.5253,-2.23451 0.47826,-1.13685 2.25803,-2.407 1.54456,-1.10549 1.9993,-1.58375 0.69779,-0.74484 0.69779,-1.6308 0,-0.72132 -0.39986,-1.19958 z m 9.42414,9.05564 h -2.28939 v -7.84038 h -2.67357 v -1.52104 q 1.05845,-0.047 1.48183,-0.14112 0.67427,-0.14897 1.09765,-0.59587 0.2901,-0.30578 0.43907,-0.8154 0.0862,-0.30578 0.0862,-0.45474 h 1.85817 z"
         id="text2550"
         style="font-weight:bold;font-size:16.0571px;font-family:Helvetica;-inkscape-font-specification:'Helvetica, Bold';text-align:center;text-anchor:middle;fill:#e01b24;stroke-width:4.92924"
         aria-label="21" />
      <path
         d="m 446.25216,215.74436 q -0.39986,-0.47826 -1.14469,-0.47826 -1.01925,0 -1.38775,0.76052 -0.21169,0.43906 -0.25089,1.39558 h -2.17179 q 0.0549,-1.45047 0.52531,-2.34427 0.8938,-1.70136 3.17535,-1.70136 1.80329,0 2.86958,1.00357 1.06629,0.99573 1.06629,2.64221 0,1.2623 -0.75267,2.24234 -0.49395,0.65076 -1.62296,1.45047 l -0.89381,0.63508 q -0.83892,0.59586 -1.15253,0.86244 -0.30578,0.26657 -0.51747,0.61939 h 4.96296 V 224.8 h -7.78549 q 0.0314,-1.2231 0.5253,-2.23451 0.47827,-1.13685 2.25803,-2.40699 1.54456,-1.1055 1.9993,-1.58376 0.69779,-0.74484 0.69779,-1.6308 0,-0.72131 -0.39986,-1.19958 z m 8.9302,0 q -0.39986,-0.47826 -1.1447,-0.47826 -1.01925,0 -1.38775,0.76052 -0.21169,0.43906 -0.25089,1.39558 h -2.17178 q 0.0549,-1.45047 0.5253,-2.34427 0.89381,-1.70136 3.17536,-1.70136 1.80328,0 2.86958,1.00357 1.06629,0.99573 1.06629,2.64221 0,1.2623 -0.75268,2.24234 -0.49394,0.65076 -1.62296,1.45047 l -0.8938,0.63508 q -0.83892,0.59586 -1.15254,0.86244 -0.30577,0.26657 -0.51746,0.61939 h 4.96296 V 224.8 h -7.7855 q 0.0314,-1.2231 0.52531,-2.23451 0.47826,-1.13685 2.25803,-2.40699 1.54455,-1.1055 1.99929,-1.58376 0.6978,-0.74484 0.6978,-1.6308 0,-0.72131 -0.39986,-1.19958 z"
         id="text2551"
         style="font-weight:bold;font-size:16.0571px;font-family:Helvetica;-inkscape-font-specification:'Helvetica, Bold';text-align:center;text-anchor:middle;fill:#e01b24;stroke-width:4.92924"
         aria-label="22" />
      <path
         d="m 478.36645,215.74436 q -0.39986,-0.47826 -1.14469,-0.47826 -1.01925,0 -1.38775,0.76052 -0.21169,0.43906 -0.25089,1.39558 h -2.17179 q 0.0549,-1.45047 0.52531,-2.34427 0.8938,-1.70136 3.17535,-1.70136 1.80329,0 2.86958,1.00357 1.06629,0.99573 1.06629,2.64221 0,1.2623 -0.75267,2.24234 -0.49395,0.65076 -1.62296,1.45047 l -0.89381,0.63508 q -0.83892,0.59586 -1.15253,0.86244 -0.30578,0.26657 -0.51747,0.61939 h 4.96296 V 224.8 h -7.7855 q 0.0314,-1.2231 0.52531,-2.23451 0.47826,-1.13685 2.25803,-2.40699 1.54456,-1.1055 1.9993,-1.58376 0.69779,-0.74484 0.69779,-1.6308 0,-0.72131 -0.39986,-1.19958 z m 6.42127,-0.047 q -0.37633,0.50179 -0.36065,1.34071 h -2.08555 q 0.0314,-0.84677 0.2901,-1.60728 0.27441,-0.66643 0.86244,-1.23094 0.43906,-0.39986 1.04277,-0.61155 0.60371,-0.21169 1.48183,-0.21169 1.6308,0 2.62653,0.84676 1.00357,0.83892 1.00357,2.25803 0,1.00357 -0.59587,1.69352 -0.37634,0.43122 -0.78404,0.58803 0.30578,0 0.87813,0.52531 0.8546,0.79187 0.8546,2.16394 0,1.44263 -1.00357,2.54028 -0.99573,1.08982 -2.95583,1.08982 -2.41483,0 -3.35568,-1.57592 -0.49394,-0.83892 -0.54883,-2.19531 h 2.19531 q 0,0.68212 0.21953,1.12902 0.4077,0.82324 1.48183,0.82324 0.6586,0 1.1447,-0.4469 0.49394,-0.45475 0.49394,-1.30151 0,-1.12117 -0.90948,-1.49751 -0.51747,-0.21169 -1.6308,-0.21169 v -1.59944 q 1.08981,-0.0157 1.52103,-0.21169 0.74484,-0.32929 0.74484,-1.33286 0,-0.65075 -0.38418,-1.05845 -0.37634,-0.4077 -1.06629,-0.4077 -0.79188,0 -1.16038,0.50178 z"
         id="text2552"
         style="font-weight:bold;font-size:16.0571px;font-family:Helvetica;-inkscape-font-specification:'Helvetica, Bold';text-align:center;text-anchor:middle;stroke-width:4.92924"
         aria-label="23" />
      <path
         d="m 510.48071,215.74436 q -0.39986,-0.47826 -1.1447,-0.47826 -1.01925,0 -1.38774,0.76052 -0.21169,0.43906 -0.2509,1.39558 h -2.17178 q 0.0549,-1.45047 0.5253,-2.34427 0.89381,-1.70136 3.17536,-1.70136 1.80329,0 2.86958,1.00357 1.06629,0.99573 1.06629,2.64221 0,1.2623 -0.75268,2.24234 -0.49394,0.65076 -1.62296,1.45047 l -0.8938,0.63508 q -0.83892,0.59586 -1.15254,0.86244 -0.30577,0.26657 -0.51746,0.61939 h 4.96296 V 224.8 h -7.7855 q 0.0314,-1.2231 0.52531,-2.23451 0.47826,-1.13685 2.25803,-2.40699 1.54455,-1.1055 1.9993,-1.58376 0.69779,-0.74484 0.69779,-1.6308 0,-0.72131 -0.39986,-1.19958 z m 11.74489,4.86104 v 1.7484 h -1.28582 V 224.8 h -2.18747 v -2.4462 h -4.50038 v -1.95225 l 4.17893,-6.89954 h 2.50892 v 7.10339 z m -6.31935,0 h 2.84606 v -4.90808 z"
         id="text2553"
         style="font-weight:bold;font-size:16.0571px;font-family:Helvetica;-inkscape-font-specification:'Helvetica, Bold';text-align:center;text-anchor:middle;stroke-width:4.92924"
         aria-label="24" />
      <path
         d="m 542.59503,215.74436 q -0.39986,-0.47826 -1.1447,-0.47826 -1.01925,0 -1.38774,0.76052 -0.21169,0.43906 -0.2509,1.39558 h -2.17178 q 0.0549,-1.45047 0.5253,-2.34427 0.89381,-1.70136 3.17536,-1.70136 1.80329,0 2.86958,1.00357 1.06629,0.99573 1.06629,2.64221 0,1.2623 -0.75268,2.24234 -0.49394,0.65076 -1.62296,1.45047 l -0.8938,0.63508 q -0.83892,0.59586 -1.15254,0.86244 -0.30577,0.26657 -0.51746,0.61939 h 4.96296 V 224.8 h -7.7855 q 0.0314,-1.2231 0.52531,-2.23451 0.47826,-1.13685 2.25803,-2.40699 1.54455,-1.1055 1.99929,-1.58376 0.6978,-0.74484 0.6978,-1.6308 0,-0.72131 -0.39986,-1.19958 z m 7.62869,3.41057 q -0.4077,0 -0.70564,0.10192 -0.5253,0.18817 -0.79187,0.6978 l -2.00714,-0.0941 0.79972,-6.28014 h 6.26446 v 1.89737 h -4.64934 l -0.4077,2.4854 q 0.51746,-0.33714 0.80756,-0.4469 0.4861,-0.18033 1.18389,-0.18033 1.41127,0 2.46188,0.94869 1.05061,0.94868 1.05061,2.75981 0,1.57592 -1.01141,2.8147 -1.0114,1.23878 -3.02638,1.23878 -1.62296,0 -2.66573,-0.87028 -1.04277,-0.87029 -1.16038,-2.46972 h 2.22667 q 0.13329,0.72915 0.50962,1.12901 0.37634,0.39202 1.09766,0.39202 0.83108,0 1.2623,-0.58019 0.43906,-0.58803 0.43906,-1.47399 0,-0.87028 -0.4077,-1.46615 -0.4077,-0.60371 -1.27014,-0.60371 z"
         id="text2554"
         style="font-weight:bold;font-size:16.0571px;font-family:Helvetica;-inkscape-font-specification:'Helvetica, Bold';text-align:center;text-anchor:middle;stroke-width:4.92924"
         aria-label="25" />
      <path
         d="m 574.70929,215.74436 q -0.39986,-0.47826 -1.1447,-0.47826 -1.01925,0 -1.38775,0.76052 -0.21169,0.43906 -0.25089,1.39558 h -2.17178 q 0.0549,-1.45047 0.5253,-2.34427 0.8938,-1.70136 3.17536,-1.70136 1.80328,0 2.86957,1.00357 1.0663,0.99573 1.0663,2.64221 0,1.2623 -0.75268,2.24234 -0.49394,0.65076 -1.62296,1.45047 l -0.8938,0.63508 q -0.83892,0.59586 -1.15254,0.86244 -0.30577,0.26657 -0.51746,0.61939 h 4.96296 V 224.8 h -7.7855 q 0.0314,-1.2231 0.5253,-2.23451 0.47827,-1.13685 2.25803,-2.40699 1.54456,-1.1055 1.9993,-1.58376 0.6978,-0.74484 0.6978,-1.6308 0,-0.72131 -0.39986,-1.19958 z m 8.25592,1.67784 q 1.51319,0 2.47756,1.02709 0.9722,1.02709 0.9722,2.62653 0,1.5916 -0.94868,2.80686 -0.94869,1.21526 -2.94798,1.21526 -2.14827,0 -3.16752,-1.79545 -0.79188,-1.40343 -0.79188,-3.62226 0,-1.3015 0.10977,-2.1169 0.19601,-1.45047 0.76052,-2.41484 0.4861,-0.82324 1.27014,-1.32502 0.79188,-0.50178 1.88953,-0.50178 1.58376,0 2.5246,0.81539 0.94085,0.80756 1.05845,2.15611 h -2.22667 q 0,-0.27441 -0.21169,-0.60371 -0.36065,-0.53315 -1.08981,-0.53315 -1.08981,0 -1.55239,1.2231 -0.2509,0.67428 -0.34498,1.99146 0.41554,-0.49394 0.96437,-0.72131 0.54882,-0.22738 1.25446,-0.22738 z m -1.50536,2.13259 q -0.65859,0.50962 -0.65859,1.64648 0,0.91732 0.49395,1.49751 0.49394,0.58019 1.25446,0.58019 0.74483,0 1.16821,-0.55667 0.43122,-0.56451 0.43122,-1.45831 0,-0.99573 -0.4861,-1.52103 -0.4861,-0.53315 -1.19174,-0.53315 -0.57234,0 -1.01141,0.34498 z"
         id="text2555"
         style="font-weight:bold;font-size:16.0571px;font-family:Helvetica;-inkscape-font-specification:'Helvetica, Bold';text-align:center;text-anchor:middle;stroke-width:4.92924"
         aria-label="26" />
      <path
         d="m 606.82361,215.74436 q -0.39986,-0.47826 -1.1447,-0.47826 -1.01925,0 -1.38775,0.76052 -0.21169,0.43906 -0.25089,1.39558 h -2.17179 q 0.0549,-1.45047 0.52531,-2.34427 0.8938,-1.70136 3.17535,-1.70136 1.80329,0 2.86958,1.00357 1.0663,0.99573 1.0663,2.64221 0,1.2623 -0.75268,2.24234 -0.49395,0.65076 -1.62296,1.45047 l -0.8938,0.63508 q -0.83892,0.59586 -1.15254,0.86244 -0.30577,0.26657 -0.51746,0.61939 h 4.96296 V 224.8 h -7.7855 q 0.0314,-1.2231 0.5253,-2.23451 0.47827,-1.13685 2.25803,-2.40699 1.54456,-1.1055 1.9993,-1.58376 0.69779,-0.74484 0.69779,-1.6308 0,-0.72131 -0.39985,-1.19958 z m 10.41986,1.34071 q -0.8938,1.27014 -1.49751,2.61869 -0.47826,1.05845 -0.86244,2.58732 -0.38418,1.52888 -0.38418,2.50892 h -2.32075 q 0.10192,-3.05775 2.00713,-6.35855 1.23094,-2.04634 2.06202,-2.85389 h -5.66859 l 0.0314,-2.00714 h 8.02855 v 1.7484 q -0.50179,0.49395 -1.39559,1.75625 z"
         id="text2556"
         style="font-weight:bold;font-size:16.0571px;font-family:Helvetica;-inkscape-font-specification:'Helvetica, Bold';text-align:center;text-anchor:middle;stroke-width:4.92924"
         aria-label="27" />
      <path
         d="m 638.93786,215.74436 q -0.39986,-0.47826 -1.14469,-0.47826 -1.01925,0 -1.38775,0.76052 -0.21169,0.43906 -0.25089,1.39558 h -2.17179 q 0.0549,-1.45047 0.52531,-2.34427 0.8938,-1.70136 3.17535,-1.70136 1.80329,0 2.86958,1.00357 1.06629,0.99573 1.06629,2.64221 0,1.2623 -0.75267,2.24234 -0.49395,0.65076 -1.62296,1.45047 l -0.89381,0.63508 q -0.83892,0.59586 -1.15253,0.86244 -0.30578,0.26657 -0.51747,0.61939 h 4.96296 V 224.8 h -7.78549 q 0.0314,-1.2231 0.5253,-2.23451 0.47826,-1.13685 2.25803,-2.40699 1.54456,-1.1055 1.9993,-1.58376 0.69779,-0.74484 0.69779,-1.6308 0,-0.72131 -0.39986,-1.19958 z m 4.75127,8.34217 q -0.98004,-1.00357 -0.98004,-2.43836 0,-0.95653 0.43122,-1.73272 0.43906,-0.7762 1.27798,-1.16822 -0.82324,-0.54883 -1.07413,-1.1839 -0.24305,-0.64291 -0.24305,-1.19958 0,-1.23878 0.933,-2.10906 0.93301,-0.87812 2.63437,-0.87812 1.70136,0 2.63437,0.87812 0.933,0.87028 0.933,2.10906 0,0.55667 -0.25089,1.19958 -0.24305,0.63507 -1.06629,1.1055 0.83892,0.47042 1.2623,1.24662 0.42338,0.77619 0.42338,1.73272 0,1.43479 -1.06629,2.4462 -1.05845,1.00357 -2.96367,1.00357 -1.90521,0 -2.88526,-1.01141 z m 1.34071,-2.58733 q 0,0.83892 0.43122,1.30151 0.43906,0.46258 1.20742,0.46258 0.76836,0 1.19958,-0.46258 0.43906,-0.46259 0.43906,-1.30151 0,-0.87028 -0.4469,-1.31718 -0.43906,-0.45474 -1.19174,-0.45474 -0.75268,0 -1.19958,0.45474 -0.43906,0.4469 -0.43906,1.31718 z m 0.58803,-3.87315 q 0.37634,0.39202 1.05061,0.39202 0.68211,0 1.05061,-0.39202 0.37634,-0.39201 0.37634,-1.0114 0,-0.67428 -0.37634,-1.05062 -0.3685,-0.38417 -1.05061,-0.38417 -0.67427,0 -1.05845,0.38417 -0.37634,0.37634 -0.37634,1.05062 0,0.61939 0.38418,1.0114 z"
         id="text2557"
         style="font-weight:bold;font-size:16.0571px;font-family:Helvetica;-inkscape-font-specification:'Helvetica, Bold';text-align:center;text-anchor:middle;fill:#e01b24;stroke-width:4.92924"
         aria-label="28" />
      <path
         d="m 446.25216,240.72215 q -0.39986,-0.47827 -1.14469,-0.47827 -1.01925,0 -1.38775,0.76052 -0.21169,0.43906 -0.25089,1.39559 h -2.17179 q 0.0549,-1.45047 0.52531,-2.34428 0.8938,-1.70136 3.17535,-1.70136 1.80329,0 2.86958,1.00357 1.06629,0.99573 1.06629,2.64221 0,1.2623 -0.75267,2.24235 -0.49395,0.65075 -1.62296,1.45047 l -0.89381,0.63507 q -0.83892,0.59587 -1.15253,0.86244 -0.30578,0.26657 -0.51747,0.61939 h 4.96296 v 1.96794 h -7.78549 q 0.0314,-1.2231 0.5253,-2.23451 0.47827,-1.13686 2.25803,-2.407 1.54456,-1.10549 1.9993,-1.58376 0.69779,-0.74483 0.69779,-1.6308 0,-0.72131 -0.39986,-1.19957 z m 7.51893,9.38493 q -1.27798,0 -2.29723,-0.75267 -1.01925,-0.76052 -1.16822,-2.21099 h 2.22667 q 0.0784,0.50178 0.42338,0.8154 0.34498,0.31361 0.91732,0.31361 1.1055,0 1.5524,-1.2231 0.24305,-0.67427 0.30577,-1.96793 -0.30577,0.38418 -0.65075,0.58803 -0.62723,0.37633 -1.54455,0.37633 -1.35639,0 -2.407,-0.933 -1.05061,-0.94085 -1.05061,-2.70493 0,-1.82681 1.05061,-2.95583 1.05845,-1.13685 2.74413,-1.13685 2.59517,0 3.55954,2.29723 0.54882,1.3015 0.54882,3.42625 0,2.06202 -0.5253,3.44192 -1.00357,2.62653 -3.68498,2.62653 z m -0.78404,-9.60446 q -0.64291,0.50178 -0.64291,1.70136 0,1.01141 0.4077,1.52103 0.41554,0.50179 1.27014,0.50179 0.46258,0 0.87028,-0.26658 0.76052,-0.4861 0.76052,-1.68568 0,-0.96437 -0.45474,-1.52887 -0.4469,-0.56451 -1.23094,-0.56451 -0.57235,0 -0.98005,0.32146 z"
         id="text2558"
         style="font-weight:bold;font-size:16.0571px;font-family:Helvetica;-inkscape-font-specification:'Helvetica, Bold';text-align:center;text-anchor:middle;fill:#e01b24;stroke-width:4.92924"
         aria-label="29" />
      <path
         d="m 475.85753,240.6751 q -0.37634,0.50179 -0.36066,1.34071 h -2.08554 q 0.0314,-0.84676 0.2901,-1.60728 0.27441,-0.66643 0.86244,-1.23094 0.43906,-0.39986 1.04277,-0.61155 0.60371,-0.21169 1.48183,-0.21169 1.6308,0 2.62653,0.84676 1.00357,0.83892 1.00357,2.25803 0,1.00357 -0.59587,1.69352 -0.37634,0.43123 -0.78404,0.58803 0.30577,0 0.87812,0.52531 0.8546,0.79188 0.8546,2.16394 0,1.44263 -1.00357,2.54029 -0.99572,1.08981 -2.95582,1.08981 -2.41484,0 -3.35568,-1.57592 -0.49395,-0.83892 -0.54883,-2.1953 h 2.19531 q 0,0.68211 0.21953,1.12901 0.4077,0.82324 1.48183,0.82324 0.65859,0 1.1447,-0.4469 0.49394,-0.45474 0.49394,-1.3015 0,-1.12118 -0.90948,-1.49752 -0.51747,-0.21169 -1.6308,-0.21169 v -1.59943 q 1.08981,-0.0157 1.52103,-0.21169 0.74484,-0.3293 0.74484,-1.33287 0,-0.65075 -0.38418,-1.05845 -0.37634,-0.4077 -1.06629,-0.4077 -0.79188,0 -1.16038,0.50178 z m 10.27874,9.38494 q -2.17179,0 -3.04991,-1.52103 -0.87028,-1.52104 -0.87028,-4.33573 0,-2.8147 0.87028,-4.34358 0.87812,-1.52887 3.04991,-1.52887 2.17178,0 3.04991,1.52887 0.87028,1.52888 0.87028,4.34358 0,2.81469 -0.87812,4.33573 -0.87029,1.52103 -3.04207,1.52103 z m 1.30934,-2.86174 q 0.30578,-1.03493 0.30578,-2.99502 0,-2.05418 -0.31362,-3.04207 -0.30577,-0.98789 -1.3015,-0.98789 -0.99573,0 -1.31718,0.98789 -0.32146,0.98789 -0.32146,3.04207 0,1.96009 0.32146,3.00286 0.32145,1.03493 1.31718,1.03493 0.99573,0 1.30934,-1.04277 z"
         id="text2559"
         style="font-weight:bold;font-size:16.0571px;font-family:Helvetica;-inkscape-font-specification:'Helvetica, Bold';text-align:center;text-anchor:middle;stroke-width:4.92924"
         aria-label="30" />
      <path
         d="m 507.97179,240.6751 q -0.37634,0.50179 -0.36066,1.34071 h -2.08554 q 0.0314,-0.84676 0.29009,-1.60728 0.27442,-0.66643 0.86244,-1.23094 0.43907,-0.39986 1.04278,-0.61155 0.6037,-0.21169 1.48183,-0.21169 1.6308,0 2.62653,0.84676 1.00356,0.83892 1.00356,2.25803 0,1.00357 -0.59587,1.69352 -0.37633,0.43123 -0.78403,0.58803 0.30577,0 0.87812,0.52531 0.8546,0.79188 0.8546,2.16394 0,1.44263 -1.00357,2.54029 -0.99573,1.08981 -2.95582,1.08981 -2.41484,0 -3.35568,-1.57592 -0.49395,-0.83892 -0.54883,-2.1953 h 2.19531 q 0,0.68211 0.21953,1.12901 0.4077,0.82324 1.48183,0.82324 0.65859,0 1.14469,-0.4469 0.49395,-0.45474 0.49395,-1.3015 0,-1.12118 -0.90949,-1.49752 -0.51746,-0.21169 -1.6308,-0.21169 v -1.59943 q 1.08982,-0.0157 1.52104,-0.21169 0.74483,-0.3293 0.74483,-1.33287 0,-0.65075 -0.38417,-1.05845 -0.37634,-0.4077 -1.0663,-0.4077 -0.79187,0 -1.16037,0.50178 z m 11.93306,9.10269 h -2.28939 v -7.84038 h -2.67357 v -1.52104 q 1.05845,-0.047 1.48183,-0.14113 0.67427,-0.14896 1.09765,-0.59586 0.2901,-0.30578 0.43906,-0.8154 0.0863,-0.30578 0.0863,-0.45475 h 1.85817 z"
         id="text2560"
         style="font-weight:bold;font-size:16.0571px;font-family:Helvetica;-inkscape-font-specification:'Helvetica, Bold';text-align:center;text-anchor:middle;stroke-width:4.92924"
         aria-label="31" />
      <path
         d="m 547.55407,249.77779 h -2.28939 v -7.84038 h -2.67357 v -1.52104 q 1.05845,-0.047 1.48183,-0.14113 0.67427,-0.14896 1.09765,-0.59586 0.2901,-0.30578 0.43906,-0.8154 0.0863,-0.30578 0.0863,-0.45475 h 1.85817 z"
         id="text2561"
         style="font-weight:bold;font-size:16.0571px;font-family:Helvetica;-inkscape-font-specification:'Helvetica, Bold';text-align:center;text-anchor:middle;fill:#b0b0b0;stroke-width:4.92924"
         aria-label="1" />
      <path
         d="m 579.17438,240.72215 q -0.39986,-0.47827 -1.14469,-0.47827 -1.01925,0 -1.38775,0.76052 -0.21169,0.43906 -0.25089,1.39559 h -2.17179 q 0.0549,-1.45047 0.52531,-2.34428 0.8938,-1.70136 3.17535,-1.70136 1.80329,0 2.86958,1.00357 1.06629,0.99573 1.06629,2.64221 0,1.2623 -0.75267,2.24235 -0.49395,0.65075 -1.62296,1.45047 l -0.89381,0.63507 q -0.83892,0.59587 -1.15253,0.86244 -0.30578,0.26657 -0.51747,0.61939 h 4.96296 v 1.96794 h -7.78549 q 0.0314,-1.2231 0.5253,-2.23451 0.47827,-1.13686 2.25803,-2.407 1.54456,-1.10549 1.9993,-1.58376 0.69779,-0.74483 0.69779,-1.6308 0,-0.72131 -0.39986,-1.19957 z"
         id="text2562"
         style="font-weight:bold;font-size:16.0571px;font-family:Helvetica;-inkscape-font-specification:'Helvetica, Bold';text-align:center;text-anchor:middle;fill:#b0b0b0;stroke-width:4.92924"
         aria-label="2" />
      <path
         d="m 608.77978,240.6751 q -0.37634,0.50179 -0.36066,1.34071 h -2.08554 q 0.0314,-0.84676 0.2901,-1.60728 0.27441,-0.66643 0.86244,-1.23094 0.43906,-0.39986 1.04277,-0.61155 0.60371,-0.21169 1.48183,-0.21169 1.6308,0 2.62653,0.84676 1.00357,0.83892 1.00357,2.25803 0,1.00357 -0.59587,1.69352 -0.37634,0.43123 -0.78404,0.58803 0.30577,0 0.87812,0.52531 0.8546,0.79188 0.8546,2.16394 0,1.44263 -1.00357,2.54029 -0.99572,1.08981 -2.95582,1.08981 -2.41484,0 -3.35568,-1.57592 -0.49395,-0.83892 -0.54883,-2.1953 h 2.19531 q 0,0.68211 0.21953,1.12901 0.4077,0.82324 1.48183,0.82324 0.65859,0 1.1447,-0.4469 0.49394,-0.45474 0.49394,-1.3015 0,-1.12118 -0.90948,-1.49752 -0.51747,-0.21169 -1.6308,-0.21169 v -1.59943 q 1.08981,-0.0157 1.52103,-0.21169 0.74484,-0.3293 0.74484,-1.33287 0,-0.65075 -0.38418,-1.05845 -0.37634,-0.4077 -1.06629,-0.4077 -0.79188,0 -1.16038,0.50178 z"
         id="text2563"
         style="font-weight:bold;font-size:16.0571px;font-family:Helvetica;-inkscape-font-specification:'Helvetica, Bold';text-align:center;text-anchor:middle;fill:#b0b0b0;stroke-width:4.92924"
         aria-label="3" />
      <path
         d="m 646.21766,245.58318 v 1.74841 h -1.28583 v 2.4462 h -2.18746 v -2.4462 h -4.50038 v -1.95226 l 4.17892,-6.89953 h 2.50892 v 7.10338 z m -6.31935,0 h 2.84606 v -4.90808 z"
         id="text2564"
         style="font-weight:bold;font-size:16.0571px;font-family:Helvetica;-inkscape-font-specification:'Helvetica, Bold';text-align:center;text-anchor:middle;fill:#b0b0b0;stroke-width:4.92924"
         aria-label="4" />
      <path
         d="m 449.41576,269.11048 q -0.4077,0 -0.70564,0.10192 -0.5253,0.18817 -0.79188,0.6978 l -2.00713,-0.0941 0.79972,-6.28014 h 6.26446 v 1.89737 h -4.64935 l -0.4077,2.4854 q 0.51747,-0.33713 0.80756,-0.4469 0.48611,-0.18033 1.1839,-0.18033 1.41127,0 2.46188,0.94869 1.05061,0.94868 1.05061,2.75981 0,1.57592 -1.01141,2.8147 -1.01141,1.23878 -3.02638,1.23878 -1.62296,0 -2.66573,-0.87028 -1.04277,-0.87029 -1.16038,-2.46972 h 2.22667 q 0.13328,0.72915 0.50962,1.12901 0.37634,0.39202 1.09766,0.39202 0.83108,0 1.2623,-0.58019 0.43906,-0.58803 0.43906,-1.47399 0,-0.87028 -0.4077,-1.46615 -0.4077,-0.60371 -1.27014,-0.60371 z"
         id="text2565"
         style="font-weight:bold;font-size:16.0571px;font-family:Helvetica;-inkscape-font-specification:'Helvetica, Bold';text-align:center;text-anchor:middle;fill:#b0b0b0;stroke-width:4.92924"
         aria-label="5" />
      <path
         d="m 482.15728,267.37776 q 1.51319,0 2.47756,1.02709 0.9722,1.02709 0.9722,2.62652 0,1.5916 -0.94868,2.80686 -0.94869,1.21526 -2.94799,1.21526 -2.14826,0 -3.16751,-1.79545 -0.79188,-1.40343 -0.79188,-3.62225 0,-1.30151 0.10977,-2.11691 0.19601,-1.45047 0.76051,-2.41483 0.48611,-0.82324 1.27015,-1.32503 0.79187,-0.50178 1.88953,-0.50178 1.58375,0 2.5246,0.8154 0.94085,0.80756 1.05845,2.1561 h -2.22667 q 0,-0.27441 -0.21169,-0.60371 -0.36065,-0.53314 -1.08981,-0.53314 -1.08981,0 -1.5524,1.2231 -0.25089,0.67427 -0.34497,1.99145 0.41554,-0.49394 0.96436,-0.72131 0.54883,-0.22737 1.25447,-0.22737 z m -1.50536,2.13258 q -0.65859,0.50962 -0.65859,1.64648 0,0.91732 0.49394,1.49751 0.49395,0.58019 1.25447,0.58019 0.74483,0 1.16821,-0.55667 0.43122,-0.5645 0.43122,-1.45831 0,-0.99573 -0.4861,-1.52103 -0.4861,-0.53315 -1.19174,-0.53315 -0.57235,0 -1.01141,0.34498 z"
         id="text2566"
         style="font-weight:bold;font-size:16.0571px;font-family:Helvetica;-inkscape-font-specification:'Helvetica, Bold';text-align:center;text-anchor:middle;fill:#b0b0b0;stroke-width:4.92924"
         aria-label="6" />
      <path
         d="m 516.43548,267.04062 q -0.8938,1.27014 -1.49751,2.61869 -0.47827,1.05845 -0.86245,2.58732 -0.38417,1.52888 -0.38417,2.50892 h -2.32076 q 0.10193,-3.05774 2.00714,-6.35854 1.23094,-2.04634 2.06202,-2.8539 h -5.66859 l 0.0314,-2.00714 h 8.02855 v 1.7484 q -0.50179,0.49395 -1.39559,1.75625 z"
         id="text2567"
         style="font-weight:bold;font-size:16.0571px;font-family:Helvetica;-inkscape-font-specification:'Helvetica, Bold';text-align:center;text-anchor:middle;fill:#b0b0b0;stroke-width:4.92924"
         aria-label="7" />
      <path
         d="m 542.8812,274.04208 q -0.98005,-1.00357 -0.98005,-2.43836 0,-0.95653 0.43123,-1.73272 0.43906,-0.7762 1.27798,-1.16822 -0.82324,-0.54883 -1.07413,-1.1839 -0.24306,-0.64291 -0.24306,-1.19958 0,-1.23878 0.93301,-2.10906 0.933,-0.87812 2.63437,-0.87812 1.70136,0 2.63437,0.87812 0.933,0.87028 0.933,2.10906 0,0.55667 -0.25089,1.19958 -0.24305,0.63507 -1.06629,1.1055 0.83892,0.47042 1.2623,1.24662 0.42338,0.77619 0.42338,1.73272 0,1.43479 -1.06629,2.4462 -1.05845,1.00357 -2.96367,1.00357 -1.90521,0 -2.88526,-1.01141 z m 1.34071,-2.58733 q 0,0.83892 0.43122,1.30151 0.43906,0.46258 1.20742,0.46258 0.76835,0 1.19958,-0.46258 0.43906,-0.46259 0.43906,-1.30151 0,-0.87028 -0.4469,-1.31718 -0.43907,-0.45474 -1.19174,-0.45474 -0.75268,0 -1.19958,0.45474 -0.43906,0.4469 -0.43906,1.31718 z m 0.58803,-3.87314 q 0.37633,0.39201 1.05061,0.39201 0.68211,0 1.05061,-0.39201 0.37634,-0.39202 0.37634,-1.01141 0,-0.67428 -0.37634,-1.05061 -0.3685,-0.38418 -1.05061,-0.38418 -0.67428,0 -1.05845,0.38418 -0.37634,0.37633 -0.37634,1.05061 0,0.61939 0.38418,1.01141 z"
         id="text2568"
         style="font-weight:bold;font-size:16.0571px;font-family:Helvetica;-inkscape-font-specification:'Helvetica, Bold';text-align:center;text-anchor:middle;fill:#b0b0b0;stroke-width:4.92924"
         aria-label="8" />
      <path
         d="m 577.76311,275.08485 q -1.27798,0 -2.29723,-0.75268 -1.01925,-0.76051 -1.16821,-2.21098 h 2.22666 q 0.0784,0.50178 0.42338,0.8154 0.34498,0.31361 0.91733,0.31361 1.10549,0 1.5524,-1.2231 0.24305,-0.67427 0.30577,-1.96793 -0.30577,0.38417 -0.65075,0.58802 -0.62723,0.37634 -1.54456,0.37634 -1.35638,0 -2.40699,-0.933 -1.05061,-0.94085 -1.05061,-2.70493 0,-1.82681 1.05061,-2.95583 1.05845,-1.13685 2.74413,-1.13685 2.59517,0 3.55953,2.29723 0.54883,1.3015 0.54883,3.42625 0,2.06202 -0.52531,3.44192 -1.00357,2.62653 -3.68498,2.62653 z m -0.78403,-9.60447 q -0.64291,0.50179 -0.64291,1.70137 0,1.01141 0.4077,1.52103 0.41554,0.50178 1.27014,0.50178 0.46258,0 0.87028,-0.26657 0.76052,-0.4861 0.76052,-1.68568 0,-0.96437 -0.45475,-1.52887 -0.4469,-0.56451 -1.23094,-0.56451 -0.57234,0 -0.98004,0.32145 z"
         id="text2569"
         style="font-weight:bold;font-size:16.0571px;font-family:Helvetica;-inkscape-font-specification:'Helvetica, Bold';text-align:center;text-anchor:middle;fill:#b0b0b0;stroke-width:4.92924"
         aria-label="9" />
      <path
         d="m 607.31755,274.75555 h -2.28939 v -7.84038 h -2.67357 v -1.52103 q 1.05845,-0.047 1.48183,-0.14113 0.67427,-0.14896 1.09765,-0.59587 0.2901,-0.30577 0.43906,-0.8154 0.0863,-0.30577 0.0863,-0.45474 h 1.85817 z m 7.27587,0.28226 q -2.17178,0 -3.04991,-1.52104 -0.87028,-1.52103 -0.87028,-4.33573 0,-2.81469 0.87028,-4.34357 0.87813,-1.52887 3.04991,-1.52887 2.17179,0 3.04991,1.52887 0.87028,1.52888 0.87028,4.34357 0,2.8147 -0.87812,4.33573 -0.87028,1.52104 -3.04207,1.52104 z m 1.30935,-2.86174 q 0.30577,-1.03493 0.30577,-2.99503 0,-2.05418 -0.31361,-3.04206 -0.30578,-0.98789 -1.30151,-0.98789 -0.99573,0 -1.31718,0.98789 -0.32146,0.98788 -0.32146,3.04206 0,1.9601 0.32146,3.00287 0.32145,1.03493 1.31718,1.03493 0.99573,0 1.30935,-1.04277 z"
         id="text2570"
         style="font-weight:bold;font-size:16.0571px;font-family:Helvetica;-inkscape-font-specification:'Helvetica, Bold';text-align:center;text-anchor:middle;fill:#b0b0b0;stroke-width:4.92924"
         aria-label="10" />
      <path
         d="m 639.87087,274.75555 h -2.28939 v -7.84038 h -2.67357 v -1.52103 q 1.05845,-0.047 1.48183,-0.14113 0.67427,-0.14896 1.09765,-0.59587 0.2901,-0.30577 0.43906,-0.8154 0.0862,-0.30577 0.0862,-0.45474 h 1.85817 z m 8.05207,0 h -2.28939 v -7.84038 h -2.67357 v -1.52103 q 1.05845,-0.047 1.48183,-0.14113 0.67427,-0.14896 1.09765,-0.59587 0.2901,-0.30577 0.43907,-0.8154 0.0862,-0.30577 0.0862,-0.45474 h 1.85817 z"
         id="text2571"
         style="font-weight:bold;font-size:16.0571px;font-family:Helvetica;-inkscape-font-specification:'Helvetica, Bold';text-align:center;text-anchor:middle;fill:#b0b0b0;stroke-width:4.92924"
         aria-label="11" />
    </g>
  </g>
</svg>
