<?xml version="1.0" encoding="UTF-8" standalone="no"?><svg
   width="70"
   height="60"
   viewBox="0 0 70 60"
   version="1.1"
   id="svg1"
   sodipodi:docname="org.inkscape.effect.param-curves.svg"
   inkscape:version="1.4-dev (de72ba3c18, 2023-06-27, custom)"
   xmlns:inkscape="http://www.inkscape.org/namespaces/inkscape"
   xmlns:sodipodi="http://sodipodi.sourceforge.net/DTD/sodipodi-0.dtd"
   xmlns="http://www.w3.org/2000/svg"
   xmlns:svg="http://www.w3.org/2000/svg">
  <sodipodi:namedview
     id="namedview1"
     pagecolor="#ffffff"
     bordercolor="#000000"
     borderopacity="0.25"
     inkscape:showpageshadow="2"
     inkscape:pageopacity="0.0"
     inkscape:pagecheckerboard="0"
     inkscape:deskcolor="#d1d1d1"
     showgrid="true"
     inkscape:zoom="3.9333333"
     inkscape:cx="-9.4067797"
     inkscape:cy="30"
     inkscape:current-layer="layer1">
    <inkscape:grid
       id="grid1"
       units="px"
       originx="0"
       originy="0"
       spacingx="1"
       spacingy="1"
       empcolor="#0099e5"
       empopacity="0.30196078"
       color="#3f84a6"
       opacity="0.14901961"
       empspacing="5"
       dotted="false"
       gridanglex="30"
       gridanglez="30"
       visible="true" />
  </sodipodi:namedview>
  <defs
     id="defs1" />
  <g
     inkscape:label="org.inkscape.effect.param-curves"
     inkscape:groupmode="layer"
     id="layer1">
    <path
       style="fill:none;fill-rule:evenodd;stroke:#000000;stroke-width:0.800002;stroke-miterlimit:2.8;stroke-dasharray:none"
       d="M 5.39678,30.00048 H 64.59999 M 34.9984,54.60342 V 5.39755 M 64.59999,30.00048 C 64.59799,21.11654 62.44349,12.42942 58.56406,8.26366 54.68426,4.09789 49.09675,4.6554 42.91762,9.63685 36.73848,14.61882 30.00053,23.82793 24.04179,32.66065 18.08307,41.49335 12.94239,49.56311 9.63421,52.85585 6.32563,56.14909 4.87915,54.49994 5.5704,48.75198 6.26163,43.00403 9.09858,33.3891 13.50762,24.71161 17.91666,16.03413 23.88058,8.67556 30.20934,6.2944 c 6.32873,-2.38166 12.98709,0.33988 18.6546,6.78686 5.66751,6.44648 10.30536,16.35411 13.00031,24.77492 2.69454,8.4208 3.42019,14.9809 2.04372,16.42309 -1.37688,1.44219 -4.85909,-2.31977 -9.74575,-9.3897 C 49.27517,37.81965 43.00482,27.73498 36.60088,19.66978 30.19693,11.60509 23.69577,5.91953 18.38628,5.43356 13.0768,4.94758 8.99617,9.70636 6.94646,17.31653 c -2.05011,7.60966 -2.0461,17.75317 0,25.3679 2.04572,7.61525 6.13274,12.3593 11.43982,11.88297 5.30749,-0.47633 11.81065,-6.17559 18.2146,-14.23623 6.40435,-8.06113 12.67188,-18.14428 17.56134,-25.21978 4.88947,-7.0755 8.36487,-10.82225 9.74575,-9.3897 1.38086,1.43255 0.64722,8.00534 -2.04372,16.4231 -2.69136,8.41775 -7.33481,18.32183 -13.00031,24.77491 -5.6655,6.45357 -12.32507,9.15888 -18.6546,6.78685 C 23.88018,51.33453 17.91985,43.96481 13.50762,35.28935 9.09578,26.6139 6.26564,17.00404 5.5704,11.24899 4.87476,5.49392 6.32923,3.861 9.63421,7.14511 c 3.30458,3.2836 8.45006,11.36351 14.40758,20.19521 5.95713,8.8317 12.6955,18.03421 18.87583,23.02378 6.18033,4.98958 11.76343,5.53034 15.64644,1.3732 3.88302,-4.15713 6.03394,-12.85288 6.03593,-21.73682"
       title="cos(3*t) sin(5*t)"
       id="path3426" />
  </g>
</svg>
