<?xml version="1.0" encoding="UTF-8" standalone="no"?>
<svg
   width="70"
   height="60"
   viewBox="0 0 70 60"
   version="1.1"
   id="svg1"
   sodipodi:docname="org.inkscape.typography.next-layer.svg"
   inkscape:version="1.4-dev (e93d6aa925, 2023-06-29)"
   xmlns:inkscape="http://www.inkscape.org/namespaces/inkscape"
   xmlns:sodipodi="http://sodipodi.sourceforge.net/DTD/sodipodi-0.dtd"
   xmlns="http://www.w3.org/2000/svg"
   xmlns:svg="http://www.w3.org/2000/svg">
  <sodipodi:namedview
     id="namedview1"
     pagecolor="#ffffff"
     bordercolor="#000000"
     borderopacity="0.25"
     inkscape:showpageshadow="2"
     inkscape:pageopacity="0.0"
     inkscape:pagecheckerboard="0"
     inkscape:deskcolor="#d1d1d1"
     showgrid="true"
     inkscape:zoom="3.1696812"
     inkscape:cx="120.51685"
     inkscape:cy="5.3633155"
     inkscape:current-layer="layer1">
    <inkscape:grid
       id="grid1"
       units="px"
       originx="0"
       originy="0"
       spacingx="1"
       spacingy="1"
       empcolor="#0099e5"
       empopacity="0.30196078"
       color="#3f84a6"
       opacity="0.14901961"
       empspacing="5"
       dotted="false"
       gridanglex="30"
       gridanglez="30"
       visible="true" />
  </sodipodi:namedview>
  <defs
     id="defs1" />
  <g
     inkscape:label="org.inkscape.typography.next-layer"
     inkscape:groupmode="layer"
     id="layer1">
    <g
       id="g32"
       transform="matrix(0,0.8604093,-0.86070405,0,350.43444,-386.34832)"
       style="stroke-width:1.04583;stroke-dasharray:none">
      <path
         id="rect25"
         style="fill:#ffffff;stroke:#000000;stroke-width:1.04583;stroke-linecap:round;stroke-linejoin:round;stroke-miterlimit:2.8;stroke-dasharray:none"
         d="m 478,373.5 c -0.831,0 -1.5,0.669 -1.5,1.5 v 10.66406 l -1.60938,-2.78711 c -0.48474,-0.83961 -1.55101,-1.12537 -2.39062,-0.64062 -0.83961,0.48475 -1.12537,1.55101 -0.64062,2.39062 1.99529,3.18692 3.60569,5.63465 4.63476,7.25391 0.36033,0.54859 1.17771,1.75987 1.50586,3.11914 h 8 c 1.08585,-2.09431 2.37876,-4.72358 2.5,-7 v -6 c 0,-0.831 -0.669,-1.5 -1.5,-1.5 -0.831,0 -1.5,0.669 -1.5,1.5 v -1 c 0,-0.831 -0.669,-1.5 -1.5,-1.5 -0.831,0 -1.5,0.669 -1.5,1.5 v -1 c 0,-0.831 -0.669,-1.5 -1.5,-1.5 -0.831,0 -1.5,0.669 -1.5,1.5 v -5 c 0,-0.831 -0.669,-1.5 -1.5,-1.5 z"
         sodipodi:nodetypes="ssccscccccsscsscsscss" />
      <path
         style="fill:#ffffff;stroke:#000000;stroke-width:1.04583;stroke-linecap:round;stroke-linejoin:round;stroke-miterlimit:2.8;stroke-dasharray:none"
         d="m 479.5,380 v 4"
         id="path29" />
      <path
         style="fill:#ffffff;stroke:#000000;stroke-width:1.04583;stroke-linecap:round;stroke-linejoin:round;stroke-miterlimit:2.8;stroke-dasharray:none"
         d="m 482.5,381 v 3.5"
         id="path31"
         sodipodi:nodetypes="cc" />
      <path
         style="fill:#ffffff;stroke:#000000;stroke-width:1.04583;stroke-linecap:round;stroke-linejoin:round;stroke-miterlimit:2.8;stroke-dasharray:none"
         d="M 485.5,381.4 V 385"
         id="path32"
         sodipodi:nodetypes="cc" />
    </g>
    <path
       style="fill:#ffffff;fill-rule:evenodd;stroke:#000000;stroke-linecap:round;stroke-miterlimit:3.3"
       d="M 45,45 60,35 45,30 30,40 Z"
       id="path3"
       sodipodi:nodetypes="ccccc" />
    <path
       style="fill:#ffffff;fill-rule:evenodd;stroke:#000000;stroke-linecap:round;stroke-miterlimit:3.3"
       d="M 45,41 60,31 45,26 30,36 Z"
       id="path2"
       sodipodi:nodetypes="ccccc" />
    <path
       style="fill:#c0c0c0;fill-rule:evenodd;stroke:#000000;stroke-linecap:round;stroke-miterlimit:3.3"
       d="M 45,37 60,27 45,22 30,32 Z"
       id="path1"
       sodipodi:nodetypes="ccccc" />
  </g>
</svg>
