<?xml version="1.0" encoding="UTF-8" standalone="no"?>
<svg
   width="70"
   height="60"
   viewBox="0 0 70 60"
   version="1.1"
   id="svg1"
   sodipodi:docname="org.inkscape.filter.pixel-snap.svg"
   inkscape:version="1.4-dev (de72ba3c18, 2023-06-27, custom)"
   xmlns:inkscape="http://www.inkscape.org/namespaces/inkscape"
   xmlns:sodipodi="http://sodipodi.sourceforge.net/DTD/sodipodi-0.dtd"
   xmlns="http://www.w3.org/2000/svg"
   xmlns:svg="http://www.w3.org/2000/svg">
  <sodipodi:namedview
     id="namedview1"
     pagecolor="#ffffff"
     bordercolor="#000000"
     borderopacity="0.25"
     inkscape:showpageshadow="2"
     inkscape:pageopacity="0.0"
     inkscape:pagecheckerboard="0"
     inkscape:deskcolor="#d1d1d1"
     inkscape:zoom="2.6879679"
     inkscape:cx="26.414006"
     inkscape:cy="28.646176"
     inkscape:current-layer="layer1"
     showgrid="false">
    <inkscape:grid
       id="grid1"
       units="px"
       originx="0"
       originy="0"
       spacingx="1"
       spacingy="1"
       empcolor="#0099e5"
       empopacity="0.30196078"
       color="#3f84a6"
       opacity="0.14901961"
       empspacing="5"
       dotted="false"
       gridanglex="30"
       gridanglez="30"
       visible="false" />
  </sodipodi:namedview>
  <defs
     id="defs1" />
  <g
     inkscape:label="org.inkscape.filter.pixel-snap"
     inkscape:groupmode="layer"
     id="layer1">
    <path
       d="M 7,2 V 58 M 14,2 V 58 M 21,2 V 58 M 28,2 V 58 M 35,2 V 58 M 42,2 V 58 M 49,2 V 58 M 56,2 V 58 M 63,2 V 58 M 7,2 H 63 M 7,9 H 63 M 7,16 H 63 M 7,23 H 63 M 7,30 H 63 M 7,37 H 63 M 7,44 H 63 M 7,51 H 63 M 7,58 h 56"
       style="fill:none;stroke:#81b4fe;stroke-width:1px"
       id="path1"
       sodipodi:nodetypes="cccccccccccccccccccccccccccccccccccc" />
    <rect
       style="fill:#df4554;fill-opacity:0.445455;fill-rule:evenodd;stroke:none;stroke-width:0.999988;stroke-miterlimit:5.5"
       id="rect1"
       width="7"
       height="9"
       x="44"
       y="33" />
    <rect
       style="fill:#df4554;fill-opacity:0.445455;fill-rule:evenodd;stroke:none;stroke-width:0.999995;stroke-miterlimit:5.5"
       id="rect2"
       width="7"
       height="27.999992"
       x="11"
       y="-50.999985"
       transform="rotate(90)" />
    <rect
       style="fill:#df4554;fill-opacity:0.445455;fill-rule:evenodd;stroke:none;stroke-width:0.999988;stroke-miterlimit:5.5"
       id="rect3"
       width="7"
       height="20.999998"
       x="26"
       y="-51"
       transform="rotate(90)" />
    <rect
       style="fill:#df4554;fill-opacity:0.445455;fill-rule:evenodd;stroke:none;stroke-width:0.999995;stroke-miterlimit:5.5"
       id="rect4"
       width="7"
       height="27.999992"
       x="42"
       y="-50.999985"
       transform="rotate(90)" />
    <rect
       style="fill:#df4554;fill-opacity:0.445455;fill-rule:evenodd;stroke:none;stroke-width:1;stroke-miterlimit:5.5"
       id="rect5"
       width="7"
       height="15"
       x="23"
       y="18" />
  </g>
</svg>
