<?xml version="1.0" encoding="UTF-8" standalone="no"?>
<svg
   width="70"
   height="60"
   viewBox="0 0 70 60"
   version="1.1"
   id="svg1"
   sodipodi:docname="org.inkscape.web.slicer.create-rect.svg"
   xml:space="preserve"
   inkscape:version="1.4-dev (f25ce46d5c, 2023-06-29)"
   xmlns:inkscape="http://www.inkscape.org/namespaces/inkscape"
   xmlns:sodipodi="http://sodipodi.sourceforge.net/DTD/sodipodi-0.dtd"
   xmlns:xlink="http://www.w3.org/1999/xlink"
   xmlns="http://www.w3.org/2000/svg"
   xmlns:svg="http://www.w3.org/2000/svg"><sodipodi:namedview
     id="namedview1"
     pagecolor="#ffffff"
     bordercolor="#000000"
     borderopacity="0.25"
     inkscape:showpageshadow="2"
     inkscape:pageopacity="0.0"
     inkscape:pagecheckerboard="0"
     inkscape:deskcolor="#d1d1d1"
     showgrid="false"
     inkscape:zoom="1.6892211"
     inkscape:cx="127.86958"
     inkscape:cy="-57.422914"
     inkscape:current-layer="layer1"><inkscape:grid
       id="grid1"
       units="px"
       originx="0"
       originy="0"
       spacingx="1"
       spacingy="1"
       empcolor="#0099e5"
       empopacity="0.30196078"
       color="#3f84a6"
       opacity="0.14901961"
       empspacing="5"
       dotted="false"
       gridanglex="30"
       gridanglez="30"
       visible="false" /></sodipodi:namedview><defs
     id="defs1" /><g
     inkscape:label="org.inkscape.web.slicer.create-rect"
     inkscape:groupmode="layer"
     id="layer1"><g
       id="g6"><circle
         style="fill:#000000;fill-rule:evenodd;stroke:none;stroke-width:1;stroke-linecap:round;stroke-linejoin:round;stroke-miterlimit:1.7;stroke-dasharray:none"
         id="path3"
         cx="28"
         cy="38"
         r="2" /><path
         id="path1"
         style="fill:none;fill-rule:evenodd;stroke:#000000;stroke-width:1.1;stroke-linecap:square;stroke-linejoin:round;stroke-miterlimit:1.7;stroke-dasharray:none"
         inkscape:transform-center-x="-0.53025536"
         inkscape:transform-center-y="-0.33732029"
         d="m 38.531342,33.073421 0.783393,0.356303 -0.603337,1.997969 1.45553,1.495771 -1.165444,1.731369 0.949978,1.858343 -1.623996,1.310928 0.360017,2.055793 -1.938249,0.774006 -0.261934,2.070578 -2.08028,0.168309 -0.86061,1.901381 -2.03747,-0.452341 -1.382817,1.563239 -1.813621,-1.0328 -1.782156,1.086194 -1.428624,-1.521489 -2.023141,0.51264 -0.916686,-1.874987 -2.084362,-0.106467 -0.323298,-2.061885 -1.960378,-0.716113 0.298816,-2.065576 -1.662206,-1.26213 0.89438,-1.885731 -1.21634,-1.696 1.410475,-1.53833 -0.662396,-1.979174 1.801241,-1.054242 -0.0496,-2.08649 2.03196,-0.476479 0.567612,-2.008412 2.082131,0.14362 1.134383,-1.751877 1.947295,0.750958 1.600361,-1.33968 1.639433,1.29157 1.92414,-0.808448 1.119389,1.65091"
         sodipodi:nodetypes="ccccccccccccccccccccccccccccccccccccccc" /><path
         style="fill:#e0e0e0;fill-rule:evenodd;stroke:none;stroke-width:1.1;stroke-linecap:round;stroke-linejoin:round;stroke-miterlimit:1.7;stroke-dasharray:none"
         d="m 33.507243,24.041128 c 0.437143,0.177443 1.565114,0.680187 2.925972,0.566482 C 39.703224,24.334389 41.060259,22.566235 42,21 c 3,-5 7.196687,-15.1573499 13.056461,-9.941185 5.213812,5.862127 -4.943538,10.058814 -9.943538,13.058814 -1.566235,0.939741 -3.334389,2.296776 -3.60761,5.566785 -0.113705,1.360858 0.389039,2.488829 0.566482,2.925972 -1.78843,-3.728945 -4.374917,-6.804935 -8.564552,-8.569258 z"
         id="path5"
         sodipodi:nodetypes="csscsscc" /><path
         style="fill:none;fill-rule:evenodd;stroke:#000000;stroke-width:1.1;stroke-linecap:round;stroke-linejoin:round;stroke-miterlimit:1.7;stroke-dasharray:none"
         d="m 33.507243,24.041128 c 0.437143,0.177443 1.565114,0.680187 2.925972,0.566482 C 39.703224,24.334389 41.060259,22.566235 42,21 45,16 49.196687,5.8426501 55,11"
         id="path2"
         sodipodi:nodetypes="cssc" /><path
         id="rect2"
         style="fill:none;fill-rule:evenodd;stroke:#000000;stroke-width:1.1;stroke-linecap:round;stroke-linejoin:round;stroke-miterlimit:1.7;stroke-dasharray:none"
         d="M 40.940338,30.407051 30.852835,40.494554 c -1.448917,1.448917 -3.781829,1.448917 -5.230745,0 -1.448917,-1.448917 -1.448917,-3.781829 -1e-6,-5.230745 L 35.709593,25.176305"
         sodipodi:nodetypes="csssc" /><path
         style="fill:none;fill-rule:evenodd;stroke:#000000;stroke-width:1.1;stroke-linecap:round;stroke-linejoin:round;stroke-miterlimit:1.7;stroke-dasharray:none"
         id="path4"
         sodipodi:arc-type="arc"
         sodipodi:type="arc"
         sodipodi:cx="28"
         sodipodi:cy="38"
         sodipodi:rx="15"
         sodipodi:ry="15"
         sodipodi:start="4.6720763"
         sodipodi:end="0.047275157"
         d="m 27.395474,23.012187 a 15,15 0 0 1 11.247987,4.4182 15,15 0 0 1 4.33978,11.278476"
         sodipodi:open="true" /><use
         x="0"
         y="0"
         xlink:href="#path2"
         id="use4"
         transform="matrix(0,-1,-1,0,66.112923,66.117629)"
         style="stroke-width:1.1;stroke-dasharray:none" /></g></g></svg>
