<?xml version="1.0" encoding="UTF-8" standalone="no"?>
<svg
   width="70"
   height="60"
   viewBox="0 0 70 60"
   version="1.1"
   id="svg1"
   inkscape:version="1.4-dev (de72ba3c18, 2023-06-27, custom)"
   sodipodi:docname="org.inkscape.qr-code.svg"
   xmlns:inkscape="http://www.inkscape.org/namespaces/inkscape"
   xmlns:sodipodi="http://sodipodi.sourceforge.net/DTD/sodipodi-0.dtd"
   xmlns="http://www.w3.org/2000/svg"
   xmlns:svg="http://www.w3.org/2000/svg">
  <sodipodi:namedview
     id="namedview1"
     pagecolor="#ffffff"
     bordercolor="#000000"
     borderopacity="0.25"
     inkscape:showpageshadow="2"
     inkscape:pageopacity="0.0"
     inkscape:pagecheckerboard="0"
     inkscape:deskcolor="#d1d1d1"
     inkscape:document-units="px"
     inkscape:zoom="5.3094395"
     showgrid="true"
     inkscape:cx="-0.94171899"
     inkscape:cy="28.439913"
     inkscape:current-layer="svg1">
    <inkscape:grid
       id="grid3"
       units="px"
       originx="0"
       originy="0"
       spacingx="1"
       spacingy="1"
       empcolor="#0099e5"
       empopacity="0.30196078"
       color="#3f84a6"
       opacity="0.14901961"
       empspacing="5"
       dotted="false"
       gridanglex="30"
       gridanglez="30"
       visible="true" />
  </sodipodi:namedview>
  <defs
     id="defs1" />
  <g
     inkscape:label="Layer 1"
     inkscape:groupmode="layer"
     id="layer1" />
  <g
     style="fill:#000000;stroke:none;stroke-width:1.99999"
     id="g2"
     transform="matrix(0.5,0,0,0.5,2,-3)">
    <path
       d="m 115.4,116 h -10.8 c -0.33137,0 -0.6,-0.26863 -0.6,-0.6 v -2.8 c 0,-0.33137 -0.26863,-0.6 -0.6,-0.6 H 88.6 c -0.331371,0 -0.6,-0.26863 -0.6,-0.6 v -2.8 c 0,-0.33137 -0.268629,-0.6 -0.6,-0.6 h -2.8 c -0.331371,0 -0.6,-0.26863 -0.6,-0.6 v -2.8 c 0,-0.33137 0.268629,-0.6 0.6,-0.6 h 2.8 c 0.331371,0 0.6,-0.26863 0.6,-0.6 v -2.8 C 88,100.26863 87.731371,100 87.4,100 H 80 V 84.6 C 80,84.268629 79.731371,84 79.4,84 H 76 V 80.6 C 76,80.268629 76.268629,80 76.6,80 H 87.4 C 87.731371,80 88,79.731371 88,79.4 V 76.6 C 88,76.268629 88.268629,76 88.6,76 h 2.8 C 91.731371,76 92,75.731371 92,75.4 V 72.6 C 92,72.268629 92.268629,72 92.6,72 h 2.8 C 95.731371,72 96,71.731371 96,71.4 V 68.6 C 96,68.268629 96.268629,68 96.6,68 h 3.4 v 3.4 c 0,0.331371 0.26863,0.6 0.6,0.6 h 7.4 v 3.4 c 0,0.331371 0.26863,0.6 0.6,0.6 h 2.8 c 0.33137,0 0.6,0.268629 0.6,0.6 v 2.8 c 0,0.331371 -0.26863,0.6 -0.6,0.6 h -2.8 c -0.33137,0 -0.6,0.268629 -0.6,0.6 v 2.8 c 0,0.331371 -0.26863,0.6 -0.6,0.6 h -6.8 c -0.33137,0 -0.6,0.268629 -0.6,0.6 v 6.8 c 0,0.331371 0.26863,0.6 0.6,0.6 h 10.8 c 0.33137,0 0.6,0.268629 0.6,0.6 v 2.8 c 0,0.331371 -0.26863,0.6 -0.6,0.6 h -2.8 c -0.33137,0 -0.6,0.268629 -0.6,0.6 v 2.8 c 0,0.331371 0.26863,0.6 0.6,0.6 h 6.8 c 0.33137,0 0.6,0.26863 0.6,0.6 v 2.8 c 0,0.33137 -0.26863,0.6 -0.6,0.6 h -2.8 c -0.33137,0 -0.6,0.26863 -0.6,0.6 v 6.8 c 0,0.33137 0.26863,0.6 0.6,0.6 h 2.8 c 0.33137,0 0.6,0.26863 0.6,0.6 v 2.8 c 0,0.33137 -0.26863,0.6 -0.6,0.6 z m -36,0 h -2.8 c -0.331371,0 -0.6,-0.26863 -0.6,-0.6 v -14.8 c 0,-0.33137 0.268629,-0.6 0.6,-0.6 H 80 v 15.4 c 0,0.33137 -0.268629,0.6 -0.6,0.6 z m -12,0 h -2.8 c -0.331371,0 -0.6,-0.26863 -0.6,-0.6 v -6.8 C 64,108.26863 63.731371,108 63.4,108 H 60 v -4 h 3.4 c 0.331371,0 0.6,-0.26863 0.6,-0.6 v -2.8 c 0,-0.33137 -0.268629,-0.6 -0.6,-0.6 h -2.8 c -0.331371,0 -0.6,0.26863 -0.6,0.6 v 3.4 h -3.4 c -0.331371,0 -0.6,-0.26863 -0.6,-0.6 v -2.8 C 56,100.26863 55.731371,100 55.4,100 H 48.6 C 48.268629,100 48,99.731371 48,99.4 V 92.6 C 48,92.268629 48.268629,92 48.6,92 h 2.8 C 51.731371,92 52,91.731371 52,91.4 V 88.6 C 52,88.268629 51.731371,88 51.4,88 H 48.6 C 48.268629,88 48,87.731371 48,87.4 V 84 h 8 v 11.4 c 0,0.331371 0.268629,0.6 0.6,0.6 h 6.8 C 63.731371,96 64,95.731371 64,95.4 V 92.6 C 64,92.268629 64.268629,92 64.6,92 H 68 v 7.4 c 0,0.331371 0.268629,0.6 0.6,0.6 h 2.8 c 0.331371,0 0.6,0.26863 0.6,0.6 v 6.8 c 0,0.33137 -0.268629,0.6 -0.6,0.6 h -2.8 c -0.331371,0 -0.6,0.26863 -0.6,0.6 v 6.8 c 0,0.33137 -0.268629,0.6 -0.6,0.6 z m -16,0 h -2.8 c -0.331371,0 -0.6,-0.26863 -0.6,-0.6 v -6.8 c 0,-0.33137 0.268629,-0.6 0.6,-0.6 H 60 v 3.4 c 0,0.33137 -0.268629,0.6 -0.6,0.6 h -6.8 c -0.331371,0 -0.6,0.26863 -0.6,0.6 v 2.8 c 0,0.33137 -0.268629,0.6 -0.6,0.6 z m -8,0 H 16.6 C 16.268629,116 16,115.73137 16,115.4 V 88.6 C 16,88.268629 16.268629,88 16.6,88 h 26.8 c 0.331371,0 0.6,0.268629 0.6,0.6 v 26.8 c 0,0.33137 -0.268629,0.6 -0.6,0.6 z M 40,111.4 V 92.6 C 40,92.268629 39.731371,92 39.4,92 H 20.6 C 20.268629,92 20,92.268629 20,92.6 v 18.8 c 0,0.33137 0.268629,0.6 0.6,0.6 h 18.8 c 0.331371,0 0.6,-0.26863 0.6,-0.6 z m 68,-4 v -2.8 c 0,-0.33137 -0.26863,-0.6 -0.6,-0.6 H 104 v -3.4 c 0,-0.33137 -0.26863,-0.6 -0.6,-0.6 h -6.8 c -0.331371,0 -0.6,0.26863 -0.6,0.6 v 2.8 c 0,0.33137 -0.268629,0.6 -0.6,0.6 h -2.8 c -0.331371,0 -0.6,0.26863 -0.6,0.6 v 2.8 c 0,0.33137 0.268629,0.6 0.6,0.6 h 6.8 c 0.331371,0 0.6,-0.26863 0.6,-0.6 v -2.8 c 0,-0.33137 0.26863,-0.6 0.6,-0.6 h 3.4 v 3.4 c 0,0.33137 0.26863,0.6 0.6,0.6 h 2.8 c 0.33137,0 0.6,-0.26863 0.6,-0.6 z M 35.4,108 H 24.6 C 24.268629,108 24,107.73137 24,107.4 V 96.6 C 24,96.268629 24.268629,96 24.6,96 h 10.8 c 0.331371,0 0.6,0.268629 0.6,0.6 v 10.8 c 0,0.33137 -0.268629,0.6 -0.6,0.6 z M 96,95.4 V 84.6 C 96,84.268629 95.731371,84 95.4,84 H 84.6 C 84.268629,84 84,84.268629 84,84.6 v 10.8 c 0,0.331371 0.268629,0.6 0.6,0.6 H 95.4 C 95.731371,96 96,95.731371 96,95.4 Z M 75.4,96 H 72.6 C 72.268629,96 72,95.731371 72,95.4 V 92.6 C 72,92.268629 71.731371,92 71.4,92 H 68 V 88.6 C 68,88.268629 68.268629,88 68.6,88 h 2.8 C 71.731371,88 72,87.731371 72,87.4 V 84.6 C 72,84.268629 72.268629,84 72.6,84 H 76 v 11.4 c 0,0.331371 -0.268629,0.6 -0.6,0.6 z m 16,-4 H 88.6 C 88.268629,92 88,91.731371 88,91.4 V 88.6 C 88,88.268629 88.268629,88 88.6,88 h 2.8 c 0.331371,0 0.6,0.268629 0.6,0.6 v 2.8 c 0,0.331371 -0.268629,0.6 -0.6,0.6 z m -24,-8 H 64.6 C 64.268629,84 64,83.731371 64,83.4 V 80 h 3.4 c 0.331371,0 0.6,0.268629 0.6,0.6 v 2.8 c 0,0.331371 -0.268629,0.6 -0.6,0.6 z m -8,0 H 56 v -4 h 4 v 3.4 c 0,0.331371 -0.268629,0.6 -0.6,0.6 z m -12,0 H 40.6 C 40.268629,84 40,83.731371 40,83.4 V 80.6 C 40,80.268629 40.268629,80 40.6,80 h 6.8 c 0.331371,0 0.6,0.268629 0.6,0.6 V 84 Z m -12,0 H 32.6 C 32.268629,84 32,83.731371 32,83.4 V 76 h 4 v 7.4 c 0,0.331371 -0.268629,0.6 -0.6,0.6 z m -8,0 H 16.6 C 16.268629,84 16,83.731371 16,83.4 V 80.6 C 16,80.268629 16.268629,80 16.6,80 h 6.8 C 23.731371,80 24,79.731371 24,79.4 V 72.6 C 24,72.268629 24.268629,72 24.6,72 h 6.8 c 0.331371,0 0.6,0.268629 0.6,0.6 V 76 H 28.6 C 28.268629,76 28,76.268629 28,76.6 v 6.8 C 28,83.731371 27.731371,84 27.4,84 Z M 104,79.4 v -2.8 c 0,-0.331371 -0.26863,-0.6 -0.6,-0.6 h -2.8 c -0.33137,0 -0.6,0.268629 -0.6,0.6 v 2.8 c 0,0.331371 0.26863,0.6 0.6,0.6 h 2.8 c 0.33137,0 0.6,-0.268629 0.6,-0.6 z M 63.4,80 H 60 v -8 h 3.4 C 63.731371,72 64,71.731371 64,71.4 V 68 h 3.4 c 0.331371,0 0.6,0.268629 0.6,0.6 v 2.8 c 0,0.331371 0.268629,0.6 0.6,0.6 h 2.8 C 71.731371,72 72,71.731371 72,71.4 V 56.6 C 72,56.268629 71.731371,56 71.4,56 H 68.6 C 68.268629,56 68,55.731371 68,55.4 V 52 H 79.4 C 79.731371,52 80,51.731371 80,51.4 V 36.6 C 80,36.268629 79.731371,36 79.4,36 H 76 V 32.6 C 76,32.268629 75.731371,32 75.4,32 H 72.6 C 72.268629,32 72,32.268629 72,32.6 v 2.8 c 0,0.331371 0.268629,0.6 0.6,0.6 H 76 v 7.4 C 76,43.731371 75.731371,44 75.4,44 H 72.6 C 72.268629,44 72,43.731371 72,43.4 V 40.6 C 72,40.268629 71.731371,40 71.4,40 H 68 V 36.6 C 68,36.268629 67.731371,36 67.4,36 H 64.6 C 64.268629,36 64,35.731371 64,35.4 V 24.6 C 64,24.268629 63.731371,24 63.4,24 H 60.6 C 60.268629,24 60,23.731371 60,23.4 V 20.6 C 60,20.268629 60.268629,20 60.6,20 h 6.8 C 67.731371,20 68,19.731371 68,19.4 V 16.6 C 68,16.268629 68.268629,16 68.6,16 h 14.8 c 0.331371,0 0.6,0.268629 0.6,0.6 v 34.8 c 0,0.331371 0.268629,0.6 0.6,0.6 h 2.8 c 0.331371,0 0.6,0.268629 0.6,0.6 v 2.8 C 88,55.731371 87.731371,56 87.4,56 H 80.6 C 80.268629,56 80,56.268629 80,56.6 V 60 H 76.6 C 76.268629,60 76,60.268629 76,60.6 v 2.8 c 0,0.331371 0.268629,0.6 0.6,0.6 H 80 v 3.4 c 0,0.331371 0.268629,0.6 0.6,0.6 h 2.8 C 83.731371,68 84,67.731371 84,67.4 V 64 h 3.4 C 87.731371,64 88,63.731371 88,63.4 V 60.6 C 88,60.268629 88.268629,60 88.6,60 h 2.8 C 91.731371,60 92,59.731371 92,59.4 V 56.6 C 92,56.268629 92.268629,56 92.6,56 h 2.8 C 95.731371,56 96,55.731371 96,55.4 V 52 h 3.4 c 0.331371,0 0.6,-0.268629 0.6,-0.6 v -2.8 c 0,-0.331371 0.26863,-0.6 0.6,-0.6 h 14.8 c 0.33137,0 0.6,0.268629 0.6,0.6 v 2.8 c 0,0.331371 -0.26863,0.6 -0.6,0.6 h -2.8 c -0.33137,0 -0.6,0.268629 -0.6,0.6 v 2.8 c 0,0.331371 -0.26863,0.6 -0.6,0.6 H 108 v -3.4 c 0,-0.331371 -0.26863,-0.6 -0.6,-0.6 h -2.8 c -0.33137,0 -0.6,0.268629 -0.6,0.6 v 2.8 c 0,0.331371 0.26863,0.6 0.6,0.6 h 3.4 v 3.4 c 0,0.331371 0.26863,0.6 0.6,0.6 h 2.8 c 0.33137,0 0.6,0.268629 0.6,0.6 v 2.8 c 0,0.331371 0.26863,0.6 0.6,0.6 h 2.8 c 0.33137,0 0.6,0.268629 0.6,0.6 v 2.8 c 0,0.331371 -0.26863,0.6 -0.6,0.6 h -2.8 c -0.33137,0 -0.6,0.268629 -0.6,0.6 v 2.8 c 0,0.331371 -0.26863,0.6 -0.6,0.6 H 108 V 68.6 C 108,68.268629 107.73137,68 107.4,68 H 100 v -3.4 c 0,-0.331371 0.26863,-0.6 0.6,-0.6 h 2.8 c 0.33137,0 0.6,-0.268629 0.6,-0.6 V 60.6 C 104,60.268629 103.73137,60 103.4,60 H 96.6 C 96.268629,60 96,60.268629 96,60.6 v 2.8 C 96,63.731371 95.731371,64 95.4,64 H 92.6 C 92.268629,64 92,64.268629 92,64.6 v 2.8 C 92,67.731371 91.731371,68 91.4,68 H 88.6 C 88.268629,68 88,68.268629 88,68.6 v 2.8 C 88,71.731371 87.731371,72 87.4,72 H 84.6 C 84.268629,72 84,72.268629 84,72.6 v 2.8 C 84,75.731371 83.731371,76 83.4,76 H 64.6 C 64.268629,76 64,76.268629 64,76.6 V 80 Z m -8,0 H 52.6 C 52.268629,80 52,79.731371 52,79.4 V 76 h 3.4 c 0.331371,0 0.6,0.268629 0.6,0.6 V 80 Z m -4,-4 H 36 V 68.6 C 36,68.268629 36.268629,68 36.6,68 H 40 v 3.4 c 0,0.331371 0.268629,0.6 0.6,0.6 H 52 v 4 z m 8,-4 H 52 v -4 h 8 v 4 z m -40,0 H 16.6 C 16.268629,72 16,71.731371 16,71.4 V 68.6 C 16,68.268629 16.268629,68 16.6,68 h 2.8 c 0.331371,0 0.6,0.268629 0.6,0.6 v 2.8 c 0,0.331371 -0.268629,0.6 -0.6,0.6 z m 44,-4 H 60 V 64.6 C 60,64.268629 60.268629,64 60.6,64 H 64 v 4 z m -12,0 H 48.6 C 48.268629,68 48,67.731371 48,67.4 V 64 h 4 v 4 z m -8,0 H 40 V 64.6 C 40,64.268629 40.268629,64 40.6,64 H 44 v 3.4 c 0,0.331371 -0.268629,0.6 -0.6,0.6 z m -12,0 H 24.6 C 24.268629,68 24,67.731371 24,67.4 V 64.6 C 24,64.268629 24.268629,64 24.6,64 h 2.8 C 27.731371,64 28,63.731371 28,63.4 V 60 h 3.4 c 0.331371,0 0.6,0.268629 0.6,0.6 v 6.8 c 0,0.331371 -0.268629,0.6 -0.6,0.6 z m 52,-4 H 80 v -4 h 3.4 c 0.331371,0 0.6,0.268629 0.6,0.6 V 64 Z m -16,0 H 64 V 60.6 C 64,60.268629 64.268629,60 64.6,60 h 2.8 c 0.331371,0 0.6,0.268629 0.6,0.6 v 2.8 c 0,0.331371 -0.268629,0.6 -0.6,0.6 z m -12,0 H 52 v -8 h 7.4 c 0.331371,0 0.6,0.268629 0.6,0.6 v 2.8 C 60,59.731371 59.731371,60 59.4,60 H 56.6 C 56.268629,60 56,60.268629 56,60.6 v 2.8 c 0,0.331371 -0.268629,0.6 -0.6,0.6 z m -8,0 H 44 V 60.6 C 44,60.268629 43.731371,60 43.4,60 H 40.6 C 40.268629,60 40,59.731371 40,59.4 V 56.6 C 40,56.268629 40.268629,56 40.6,56 h 2.8 C 43.731371,56 44,55.731371 44,55.4 V 52 h 7.4 c 0.331371,0 0.6,0.268629 0.6,0.6 V 56 H 48.6 C 48.268629,56 48,56.268629 48,56.6 V 64 Z m -28,0 H 16.6 C 16.268629,64 16,63.731371 16,63.4 V 60.6 C 16,60.268629 16.268629,60 16.6,60 H 20 v 3.4 c 0,0.331371 -0.268629,0.6 -0.6,0.6 z m 8,-4 H 20 v -4 h 8 v 4 z m 4,-4 H 28 V 52.6 C 28,52.268629 28.268629,52 28.6,52 H 32 v 3.4 c 0,0.331371 -0.268629,0.6 -0.6,0.6 z m -12,0 H 16.6 C 16.268629,56 16,55.731371 16,55.4 V 48.6 C 16,48.268629 16.268629,48 16.6,48 h 6.8 c 0.331371,0 0.6,0.268629 0.6,0.6 v 2.8 C 24,51.731371 23.731371,52 23.4,52 H 20.6 C 20.268629,52 20,52.268629 20,52.6 V 56 Z m 76,-4 H 92.6 C 92.268629,52 92,51.731371 92,51.4 V 48.6 C 92,48.268629 92.268629,48 92.6,48 h 2.8 c 0.331371,0 0.6,0.268629 0.6,0.6 V 52 Z m -28,0 H 64.6 C 64.268629,52 64,51.731371 64,51.4 V 48 h 3.4 c 0.331371,0 0.6,0.268629 0.6,0.6 V 52 Z m -8,0 H 56.6 C 56.268629,52 56,51.731371 56,51.4 V 40.6 C 56,40.268629 55.731371,40 55.4,40 H 52.6 C 52.268629,40 52,40.268629 52,40.6 v 2.8 C 52,43.731371 51.731371,44 51.4,44 H 48.6 C 48.268629,44 48,43.731371 48,43.4 V 36.6 C 48,36.268629 48.268629,36 48.6,36 h 2.8 C 51.731371,36 52,35.731371 52,35.4 V 32.6 C 52,32.268629 51.731371,32 51.4,32 H 48.6 C 48.268629,32 48,31.731371 48,31.4 V 16.6 C 48,16.268629 48.268629,16 48.6,16 h 2.8 c 0.331371,0 0.6,0.268629 0.6,0.6 v 6.8 c 0,0.331371 0.268629,0.6 0.6,0.6 h 2.8 c 0.331371,0 0.6,0.268629 0.6,0.6 v 2.8 c 0,0.331371 0.268629,0.6 0.6,0.6 h 2.8 c 0.331371,0 0.6,0.268629 0.6,0.6 v 14.8 c 0,0.331371 0.268629,0.6 0.6,0.6 H 64 v 4 H 60.6 C 60.268629,48 60,48.268629 60,48.6 v 2.8 c 0,0.331371 -0.268629,0.6 -0.6,0.6 z m -16,0 H 32 V 48.6 C 32,48.268629 32.268629,48 32.6,48 h 10.8 c 0.331371,0 0.6,0.268629 0.6,0.6 V 52 Z m 72,-8 H 88.6 C 88.268629,44 88,43.731371 88,43.4 V 16.6 C 88,16.268629 88.268629,16 88.6,16 h 26.8 c 0.33137,0 0.6,0.268629 0.6,0.6 v 26.8 c 0,0.331371 -0.26863,0.6 -0.6,0.6 z m -48,0 H 64 V 40.6 C 64,40.268629 64.268629,40 64.6,40 H 68 v 3.4 c 0,0.331371 -0.268629,0.6 -0.6,0.6 z m -24,0 H 16.6 C 16.268629,44 16,43.731371 16,43.4 V 16.6 C 16,16.268629 16.268629,16 16.6,16 h 26.8 c 0.331371,0 0.6,0.268629 0.6,0.6 V 43.4 C 44,43.731371 43.731371,44 43.4,44 Z M 112,39.4 V 20.6 C 112,20.268629 111.73137,20 111.4,20 H 92.6 C 92.268629,20 92,20.268629 92,20.6 v 18.8 c 0,0.331371 0.268629,0.6 0.6,0.6 h 18.8 c 0.33137,0 0.6,-0.268629 0.6,-0.6 z m -72,0 V 20.6 C 40,20.268629 39.731371,20 39.4,20 H 20.6 C 20.268629,20 20,20.268629 20,20.6 v 18.8 c 0,0.331371 0.268629,0.6 0.6,0.6 H 39.4 C 39.731371,40 40,39.731371 40,39.4 Z M 107.4,36 H 96.6 C 96.268629,36 96,35.731371 96,35.4 V 24.6 C 96,24.268629 96.268629,24 96.6,24 h 10.8 c 0.33137,0 0.6,0.268629 0.6,0.6 v 10.8 c 0,0.331371 -0.26863,0.6 -0.6,0.6 z m -72,0 H 24.6 C 24.268629,36 24,35.731371 24,35.4 V 24.6 C 24,24.268629 24.268629,24 24.6,24 h 10.8 c 0.331371,0 0.6,0.268629 0.6,0.6 V 35.4 C 36,35.731371 35.731371,36 35.4,36 Z M 80,27.4 V 20.6 C 80,20.268629 79.731371,20 79.4,20 H 76.6 C 76.268629,20 76,20.268629 76,20.6 v 6.8 c 0,0.331371 0.268629,0.6 0.6,0.6 h 2.8 c 0.331371,0 0.6,-0.268629 0.6,-0.6 z m -8,0 V 24.6 C 72,24.268629 71.731371,24 71.4,24 H 68.6 C 68.268629,24 68,24.268629 68,24.6 v 2.8 c 0,0.331371 0.268629,0.6 0.6,0.6 h 2.8 c 0.331371,0 0.6,-0.268629 0.6,-0.6 z"
       id="path2"
       style="stroke-width:1.99999" />
  </g>
</svg>
