<?xml version="1.0" encoding="UTF-8" standalone="no"?><svg
   width="70"
   height="60"
   viewBox="0 0 70 60"
   version="1.1"
   id="svg1"
   sodipodi:docname="org.inkscape.filter.nice-chart.svg"
   inkscape:version="1.4-dev (de72ba3c18, 2023-06-27, custom)"
   xmlns:inkscape="http://www.inkscape.org/namespaces/inkscape"
   xmlns:sodipodi="http://sodipodi.sourceforge.net/DTD/sodipodi-0.dtd"
   xmlns="http://www.w3.org/2000/svg"
   xmlns:svg="http://www.w3.org/2000/svg">
  <sodipodi:namedview
     id="namedview1"
     pagecolor="#ffffff"
     bordercolor="#000000"
     borderopacity="0.25"
     inkscape:showpageshadow="2"
     inkscape:pageopacity="0.0"
     inkscape:pagecheckerboard="0"
     inkscape:deskcolor="#d1d1d1"
     inkscape:zoom="4.9725709"
     inkscape:cx="2.6143418"
     inkscape:cy="-14.479432"
     inkscape:current-layer="g8"
     showgrid="true">
    <inkscape:grid
       id="grid9"
       units="px"
       originx="0"
       originy="0"
       spacingx="1"
       spacingy="1"
       empcolor="#0099e5"
       empopacity="0.30196078"
       color="#3f84a6"
       opacity="0.14901961"
       empspacing="5"
       dotted="false"
       gridanglex="30"
       gridanglez="30"
       visible="true" />
  </sodipodi:namedview>
  <defs
     id="defs1" />
  <g
     inkscape:label="org.inkscape.filter.nice-chart"
     inkscape:groupmode="layer"
     id="layer1" />
  <g
     inkscape:groupmode="layer"
     inkscape:label="Chart-Layer: apples:3,bananas:5,oranges:10,pears:4"
     id="g8">
    <g
       id="g9"
       transform="matrix(0.64720433,0,0,0.64720433,23.166585,20.337259)"
       style="stroke-width:1.5451">
      <path
         sodipodi:cx="46.482277"
         sodipodi:cy="35.628044"
         sodipodi:rx="22.017956"
         sodipodi:ry="22.017956"
         sodipodi:type="arc"
         sodipodi:start="0"
         sodipodi:end="0.85679782"
         d="M 68.500233,35.628044 A 22.017956,22.017956 0 0 1 60.900975,52.268102 L 46.482277,35.628044 Z"
         style="fill:#009bff;fill-opacity:1;stroke:none;stroke-width:0.340202"
         id="path2"
         sodipodi:arc-type="slice" />
      <path
         sodipodi:cx="46.482277"
         sodipodi:cy="35.628044"
         sodipodi:rx="22.017956"
         sodipodi:ry="22.017956"
         sodipodi:type="arc"
         sodipodi:start="0.85679782"
         sodipodi:end="2.2847942"
         d="m 60.900975,52.268102 a 22.017956,22.017956 0 0 1 -28.837385,9e-6 L 46.482277,35.628044 Z"
         style="fill:#ff0000;fill-opacity:1;stroke:none;stroke-width:0.340202"
         id="path4"
         sodipodi:arc-type="slice" />
      <path
         sodipodi:cx="46.482277"
         sodipodi:cy="35.628044"
         sodipodi:rx="22.017956"
         sodipodi:ry="22.017956"
         sodipodi:type="arc"
         sodipodi:start="2.2847942"
         sodipodi:end="5.1407869"
         d="M 32.06359,52.268111 A 22.017956,22.017956 0 0 1 27.959585,23.724253 22.017956,22.017956 0 0 1 55.628845,15.599797 L 46.482277,35.628044 Z"
         style="fill:#00d900;fill-opacity:1;stroke:none;stroke-width:0.340202"
         id="path6"
         sodipodi:arc-type="slice" />
      <path
         sodipodi:cx="46.482277"
         sodipodi:cy="35.628044"
         sodipodi:rx="22.017956"
         sodipodi:ry="22.017956"
         sodipodi:type="arc"
         sodipodi:start="5.1407869"
         sodipodi:end="6.283184"
         d="m 55.628845,15.599797 a 22.017956,22.017956 0 0 1 12.871388,20.028218 l -22.017956,2.9e-5 z"
         style="fill:#fab000;fill-opacity:1;stroke:none;stroke-width:0.340202"
         id="path8"
         sodipodi:arc-type="slice" />
    </g>
    <g
       id="g90"
       transform="matrix(0.51509065,0,0,0.51509065,-136.05838,-258.72641)"
       style="stroke-width:1.94141">
      <path
         id="rect86"
         style="fill:#009bff"
         d="m 314,512 h 30 v 10 h -30 z" />
      <path
         d="m 284.4873,520 h -0.82177 v -0.52295 q -0.10987,0.0747 -0.29883,0.21094 -0.18457,0.13183 -0.36035,0.21094 -0.20655,0.10107 -0.47461,0.16699 -0.26807,0.0703 -0.62842,0.0703 -0.66357,0 -1.125,-0.43945 -0.46143,-0.43946 -0.46143,-1.12061 0,-0.5581 0.23731,-0.90088 0.2417,-0.34717 0.68555,-0.54492 0.44824,-0.19775 1.07666,-0.26807 0.62841,-0.0703 1.34912,-0.10546 v -0.12745 q 0,-0.28125 -0.10108,-0.46582 -0.0967,-0.18457 -0.28125,-0.29003 -0.17578,-0.10108 -0.42187,-0.13624 -0.2461,-0.0352 -0.51416,-0.0352 -0.3252,0 -0.7251,0.0879 -0.3999,0.0835 -0.82617,0.24609 h -0.0439 v -0.83935 q 0.2417,-0.0659 0.69873,-0.14502 0.45703,-0.0791 0.90088,-0.0791 0.51856,0 0.90088,0.0879 0.38672,0.0835 0.66797,0.29004 0.27686,0.20214 0.42188,0.52295 0.14501,0.3208 0.14501,0.79541 z m -0.82177,-1.2085 v -1.3667 q -0.37793,0.022 -0.89209,0.0659 -0.50977,0.0439 -0.8086,0.12744 -0.35595,0.10108 -0.57568,0.31641 -0.21973,0.21094 -0.21973,0.58447 0,0.42188 0.25489,0.63721 0.25488,0.21094 0.77783,0.21094 0.43506,0 0.79541,-0.16699 0.36035,-0.17139 0.66797,-0.4087 z m 6.73242,-1.30517 q 0,0.59765 -0.17139,1.09424 -0.17138,0.49218 -0.4834,0.83496 -0.29004,0.32519 -0.68554,0.50537 -0.39112,0.17578 -0.83057,0.17578 -0.38232,0 -0.69434,-0.0835 -0.30761,-0.0835 -0.62841,-0.25927 v 2.05664 h -0.82618 v -6.71924 h 0.82618 v 0.51416 q 0.32959,-0.27686 0.73828,-0.46143 0.41308,-0.18896 0.8789,-0.18896 0.8877,0 1.37989,0.67236 0.49658,0.66797 0.49658,1.85889 z m -0.85254,0.022 q 0,-0.88769 -0.30322,-1.32715 -0.30323,-0.43945 -0.93164,-0.43945 -0.35596,0 -0.71631,0.15381 -0.36035,0.15381 -0.68994,0.40429 v 2.78174 q 0.35156,0.15821 0.60205,0.21533 0.25488,0.0571 0.57568,0.0571 0.68994,0 1.07666,-0.46582 0.38672,-0.46582 0.38672,-1.37988 z m 6.45996,-0.022 q 0,0.59765 -0.17139,1.09424 -0.17138,0.49218 -0.48339,0.83496 -0.29004,0.32519 -0.68555,0.50537 -0.39111,0.17578 -0.83057,0.17578 -0.38232,0 -0.69433,-0.0835 -0.30762,-0.0835 -0.62842,-0.25927 v 2.05664 h -0.82617 v -6.71924 h 0.82617 v 0.51416 q 0.32959,-0.27686 0.73828,-0.46143 0.41309,-0.18896 0.87891,-0.18896 0.88769,0 1.37988,0.67236 0.49658,0.66797 0.49658,1.85889 z m -0.85254,0.022 q 0,-0.88769 -0.30322,-1.32715 -0.30322,-0.43945 -0.93164,-0.43945 -0.35596,0 -0.71631,0.15381 -0.36035,0.15381 -0.68994,0.40429 v 2.78174 q 0.35156,0.15821 0.60205,0.21533 0.25488,0.0571 0.57568,0.0571 0.68994,0 1.07666,-0.46582 0.38672,-0.46582 0.38672,-1.37988 z m 2.9751,2.4917 h -0.82617 v -6.83789 h 0.82617 z m 5.74365,-2.36865 h -3.6167 q 0,0.45263 0.13623,0.79101 0.13623,0.33399 0.37354,0.54932 0.22851,0.21094 0.54053,0.31641 0.3164,0.10546 0.69433,0.10546 0.50098,0 1.00635,-0.19775 0.50976,-0.20215 0.7251,-0.39551 h 0.0439 v 0.90088 q -0.41748,0.17578 -0.85254,0.29444 -0.43506,0.11865 -0.91406,0.11865 -1.22168,0 -1.90723,-0.65918 -0.68554,-0.66358 -0.68554,-1.88086 0,-1.2041 0.65478,-1.91162 0.65918,-0.70752 1.73145,-0.70752 0.99316,0 1.52929,0.58008 0.54053,0.58007 0.54053,1.64795 z m -0.8042,-0.63281 q -0.004,-0.6504 -0.32959,-1.00635 -0.3208,-0.35596 -0.97998,-0.35596 -0.66357,0 -1.05908,0.39111 -0.39111,0.39112 -0.44385,0.9712 z m 5.56348,1.58642 q 0,0.67236 -0.55811,1.10303 -0.55371,0.43066 -1.51611,0.43066 -0.54492,0 -1.00195,-0.12744 -0.45264,-0.13184 -0.76026,-0.28564 v -0.92725 h 0.0439 q 0.39111,0.29443 0.87012,0.47022 0.479,0.17138 0.91845,0.17138 0.54492,0 0.85254,-0.17578 0.30762,-0.17578 0.30762,-0.55371 0,-0.29004 -0.16699,-0.43945 -0.167,-0.14942 -0.6416,-0.25489 -0.17579,-0.0395 -0.46143,-0.0923 -0.28125,-0.0527 -0.51416,-0.11426 -0.646,-0.17139 -0.91846,-0.50098 -0.26806,-0.33398 -0.26806,-0.81738 0,-0.30322 0.12304,-0.57129 0.12744,-0.26806 0.38233,-0.479 0.24609,-0.20654 0.62402,-0.3252 0.38232,-0.12304 0.85254,-0.12304 0.43945,0 0.8877,0.10986 0.45263,0.10547 0.75146,0.25928 v 0.8833 h -0.0439 q -0.3164,-0.23291 -0.76904,-0.39112 -0.45264,-0.16259 -0.88769,-0.16259 -0.45264,0 -0.76465,0.17578 -0.31201,0.17138 -0.31201,0.51416 0,0.30322 0.18896,0.45703 0.18457,0.15381 0.59766,0.25049 0.22851,0.0527 0.50976,0.10547 0.28565,0.0527 0.47461,0.0967 0.57569,0.13183 0.8877,0.45263 0.31201,0.3252 0.31201,0.86133 z"
         id="text86"
         style="font-size:9px;-inkscape-font-specification:'Bitstream Charter';text-align:end;text-anchor:end"
         aria-label="apples" />
      <path
         id="rect87"
         style="fill:#ff0000"
         d="m 314,527 h 50 v 10 h -50 z" />
      <path
         d="m 276.22998,532.5083 q 0,0.61524 -0.17578,1.10742 -0.17139,0.49219 -0.46582,0.82617 -0.31201,0.34717 -0.68555,0.52295 -0.37353,0.17139 -0.82178,0.17139 -0.41748,0 -0.72949,-0.10107 -0.31201,-0.0967 -0.61523,-0.26368 L 272.68359,535 h -0.77343 v -6.83789 h 0.82617 v 2.44336 q 0.34717,-0.28565 0.73828,-0.46582 0.39111,-0.18457 0.87891,-0.18457 0.87011,0 1.37109,0.66797 0.50537,0.66797 0.50537,1.88525 z m -0.85254,0.022 q 0,-0.8789 -0.29004,-1.33154 -0.29004,-0.45703 -0.93603,-0.45703 -0.36035,0 -0.7295,0.1582 -0.36914,0.15381 -0.68554,0.3999 v 2.8125 q 0.35156,0.15821 0.60205,0.21973 0.25488,0.0615 0.57568,0.0615 0.68555,0 1.07227,-0.44824 0.39111,-0.45263 0.39111,-1.41504 z M 281.33203,535 h -0.82178 v -0.52295 q -0.10986,0.0747 -0.29882,0.21094 -0.18457,0.13183 -0.36036,0.21094 -0.20654,0.10107 -0.47461,0.16699 -0.26806,0.0703 -0.62841,0.0703 -0.66358,0 -1.125,-0.43945 -0.46143,-0.43946 -0.46143,-1.12061 0,-0.5581 0.23731,-0.90088 0.24169,-0.34717 0.68554,-0.54492 0.44824,-0.19775 1.07666,-0.26807 0.62842,-0.0703 1.34912,-0.10546 v -0.12745 q 0,-0.28125 -0.10107,-0.46582 -0.0967,-0.18457 -0.28125,-0.29003 -0.17578,-0.10108 -0.42188,-0.13624 -0.24609,-0.0352 -0.51416,-0.0352 -0.32519,0 -0.72509,0.0879 -0.39991,0.0835 -0.82618,0.24609 h -0.0439 v -0.83935 q 0.2417,-0.0659 0.69873,-0.14502 0.45703,-0.0791 0.90088,-0.0791 0.51855,0 0.90088,0.0879 0.38672,0.0835 0.66797,0.29004 0.27685,0.20214 0.42187,0.52295 0.14502,0.3208 0.14502,0.79541 z m -0.82178,-1.2085 v -1.3667 q -0.37793,0.022 -0.89209,0.0659 -0.50976,0.0439 -0.80859,0.12744 -0.35596,0.10108 -0.57568,0.31641 -0.21973,0.21094 -0.21973,0.58447 0,0.42188 0.25488,0.63721 0.25489,0.21094 0.77783,0.21094 0.43506,0 0.79542,-0.16699 0.36035,-0.17139 0.66796,-0.4087 z M 287.02734,535 h -0.82617 v -2.79492 q 0,-0.33838 -0.0395,-0.63281 -0.0396,-0.29883 -0.14502,-0.46582 -0.10986,-0.18458 -0.3164,-0.27247 -0.20655,-0.0923 -0.53614,-0.0923 -0.33838,0 -0.70752,0.16699 -0.36914,0.16699 -0.70752,0.42627 V 535 h -0.82617 v -4.90869 h 0.82617 v 0.54492 q 0.38672,-0.3208 0.79981,-0.50098 0.41308,-0.18017 0.84814,-0.18017 0.79541,0 1.21289,0.479 0.41748,0.47901 0.41748,1.37988 z m 5.40528,0 h -0.82178 v -0.52295 q -0.10986,0.0747 -0.29883,0.21094 -0.18457,0.13183 -0.36035,0.21094 -0.20654,0.10107 -0.47461,0.16699 -0.26807,0.0703 -0.62842,0.0703 -0.66357,0 -1.125,-0.43945 -0.46142,-0.43946 -0.46142,-1.12061 0,-0.5581 0.2373,-0.90088 0.2417,-0.34717 0.68555,-0.54492 0.44824,-0.19775 1.07666,-0.26807 0.62842,-0.0703 1.34912,-0.10546 v -0.12745 q 0,-0.28125 -0.10107,-0.46582 -0.0967,-0.18457 -0.28125,-0.29003 -0.17579,-0.10108 -0.42188,-0.13624 -0.24609,-0.0352 -0.51416,-0.0352 -0.32519,0 -0.7251,0.0879 -0.3999,0.0835 -0.82617,0.24609 h -0.0439 v -0.83935 q 0.24169,-0.0659 0.69873,-0.14502 0.45703,-0.0791 0.90087,-0.0791 0.51856,0 0.90088,0.0879 0.38672,0.0835 0.66797,0.29004 0.27686,0.20214 0.42188,0.52295 0.14502,0.3208 0.14502,0.79541 z m -0.82178,-1.2085 v -1.3667 q -0.37793,0.022 -0.89209,0.0659 -0.50977,0.0439 -0.80859,0.12744 -0.35596,0.10108 -0.57569,0.31641 -0.21972,0.21094 -0.21972,0.58447 0,0.42188 0.25488,0.63721 0.25488,0.21094 0.77783,0.21094 0.43506,0 0.79541,-0.16699 0.36035,-0.17139 0.66797,-0.4087 z M 298.12793,535 h -0.82617 v -2.79492 q 0,-0.33838 -0.0396,-0.63281 -0.0395,-0.29883 -0.14502,-0.46582 -0.10987,-0.18458 -0.31641,-0.27247 -0.20654,-0.0923 -0.53613,-0.0923 -0.33838,0 -0.70752,0.16699 -0.36914,0.16699 -0.70752,0.42627 V 535 h -0.82617 v -4.90869 h 0.82617 v 0.54492 q 0.38672,-0.3208 0.7998,-0.50098 0.41309,-0.18017 0.84815,-0.18017 0.79541,0 1.21289,0.479 0.41748,0.47901 0.41748,1.37988 z m 5.40527,0 h -0.82177 v -0.52295 q -0.10987,0.0747 -0.29883,0.21094 -0.18457,0.13183 -0.36035,0.21094 -0.20655,0.10107 -0.47461,0.16699 -0.26807,0.0703 -0.62842,0.0703 -0.66358,0 -1.125,-0.43945 -0.46143,-0.43946 -0.46143,-1.12061 0,-0.5581 0.23731,-0.90088 0.2417,-0.34717 0.68554,-0.54492 0.44825,-0.19775 1.07666,-0.26807 0.62842,-0.0703 1.34913,-0.10546 v -0.12745 q 0,-0.28125 -0.10108,-0.46582 -0.0967,-0.18457 -0.28125,-0.29003 -0.17578,-0.10108 -0.42187,-0.13624 -0.2461,-0.0352 -0.51416,-0.0352 -0.3252,0 -0.7251,0.0879 -0.3999,0.0835 -0.82617,0.24609 h -0.0439 v -0.83935 q 0.2417,-0.0659 0.69873,-0.14502 0.45703,-0.0791 0.90088,-0.0791 0.51856,0 0.90088,0.0879 0.38672,0.0835 0.66797,0.29004 0.27685,0.20214 0.42187,0.52295 0.14502,0.3208 0.14502,0.79541 z m -0.82177,-1.2085 v -1.3667 q -0.37793,0.022 -0.89209,0.0659 -0.50977,0.0439 -0.8086,0.12744 -0.35595,0.10108 -0.57568,0.31641 -0.21973,0.21094 -0.21973,0.58447 0,0.42188 0.25488,0.63721 0.25489,0.21094 0.77784,0.21094 0.43506,0 0.79541,-0.16699 0.36035,-0.17139 0.66797,-0.4087 z m 5.91943,-0.20654 q 0,0.67236 -0.55811,1.10303 -0.55371,0.43066 -1.51611,0.43066 -0.54492,0 -1.00195,-0.12744 -0.45264,-0.13184 -0.76026,-0.28564 v -0.92725 h 0.0439 q 0.39111,0.29443 0.87012,0.47022 0.479,0.17138 0.91845,0.17138 0.54492,0 0.85254,-0.17578 0.30762,-0.17578 0.30762,-0.55371 0,-0.29004 -0.16699,-0.43945 -0.167,-0.14942 -0.6416,-0.25489 -0.17579,-0.0395 -0.46143,-0.0923 -0.28125,-0.0527 -0.51416,-0.11426 -0.646,-0.17139 -0.91846,-0.50098 -0.26806,-0.33398 -0.26806,-0.81738 0,-0.30322 0.12304,-0.57129 0.12744,-0.26806 0.38233,-0.479 0.24609,-0.20654 0.62402,-0.3252 0.38232,-0.12304 0.85254,-0.12304 0.43945,0 0.8877,0.10986 0.45263,0.10547 0.75146,0.25928 v 0.8833 h -0.0439 q -0.3164,-0.23291 -0.76904,-0.39112 -0.45264,-0.16259 -0.88769,-0.16259 -0.45264,0 -0.76465,0.17578 -0.31201,0.17138 -0.31201,0.51416 0,0.30322 0.18896,0.45703 0.18457,0.15381 0.59766,0.25049 0.22851,0.0527 0.50976,0.10547 0.28565,0.0527 0.47461,0.0967 0.57569,0.13183 0.8877,0.45263 0.31201,0.3252 0.31201,0.86133 z"
         id="text87"
         style="font-size:9px;-inkscape-font-specification:'Bitstream Charter';text-align:end;text-anchor:end"
         aria-label="bananas" />
      <path
         id="rect88"
         style="fill:#00d900;stroke-width:1.9414"
         d="m 314,542 h 75.53963 v 10 H 314 Z" />
      <path
         d="m 278.09326,547.54785 q 0,1.19971 -0.61523,1.89404 -0.61524,0.69434 -1.64795,0.69434 -1.04151,0 -1.65674,-0.69434 -0.61084,-0.69433 -0.61084,-1.89404 0,-1.19971 0.61084,-1.89404 0.61523,-0.69873 1.65674,-0.69873 1.03271,0 1.64795,0.69873 0.61523,0.69433 0.61523,1.89404 z m -0.85254,0 q 0,-0.95361 -0.37353,-1.41504 -0.37354,-0.46582 -1.03711,-0.46582 -0.67237,0 -1.0459,0.46582 -0.36914,0.46143 -0.36914,1.41504 0,0.92285 0.37353,1.40186 0.37354,0.47461 1.04151,0.47461 0.65918,0 1.03271,-0.47022 0.37793,-0.47461 0.37793,-1.40625 z m 5.19434,-1.55566 h -0.0439 q -0.18457,-0.0439 -0.36035,-0.0615 -0.17139,-0.022 -0.40869,-0.022 -0.38232,0 -0.73828,0.17139 -0.35596,0.16699 -0.68555,0.43506 V 550 h -0.82617 v -4.90869 h 0.82617 v 0.7251 q 0.49219,-0.39551 0.86572,-0.55811 0.37793,-0.16699 0.76905,-0.16699 0.21533,0 0.31201,0.0132 0.0967,0.009 0.29004,0.0395 z M 286.86914,550 h -0.82178 v -0.52295 q -0.10986,0.0747 -0.29882,0.21094 -0.18458,0.13183 -0.36036,0.21094 -0.20654,0.10107 -0.47461,0.16699 -0.26806,0.0703 -0.62841,0.0703 -0.66358,0 -1.125,-0.43945 -0.46143,-0.43946 -0.46143,-1.12061 0,-0.5581 0.23731,-0.90088 0.24169,-0.34717 0.68554,-0.54492 0.44824,-0.19775 1.07666,-0.26807 0.62842,-0.0703 1.34912,-0.10546 v -0.12745 q 0,-0.28125 -0.10107,-0.46582 -0.0967,-0.18457 -0.28125,-0.29003 -0.17578,-0.10108 -0.42188,-0.13624 -0.24609,-0.0352 -0.51416,-0.0352 -0.32519,0 -0.72509,0.0879 -0.39991,0.0835 -0.82618,0.24609 h -0.0439 v -0.83935 q 0.2417,-0.0659 0.69873,-0.14502 0.45703,-0.0791 0.90088,-0.0791 0.51855,0 0.90088,0.0879 0.38672,0.0835 0.66797,0.29004 0.27685,0.20214 0.42187,0.52295 0.14502,0.3208 0.14502,0.79541 z m -0.82178,-1.2085 v -1.3667 q -0.37793,0.022 -0.89209,0.0659 -0.50976,0.0439 -0.80859,0.12744 -0.35596,0.10108 -0.57568,0.31641 -0.21973,0.21094 -0.21973,0.58447 0,0.42188 0.25488,0.63721 0.25489,0.21094 0.77783,0.21094 0.43506,0 0.79541,-0.16699 0.36036,-0.17139 0.66797,-0.4087 z M 292.56445,550 h -0.82617 v -2.79492 q 0,-0.33838 -0.0395,-0.63281 -0.0396,-0.29883 -0.14502,-0.46582 -0.10986,-0.18458 -0.31641,-0.27247 -0.20654,-0.0923 -0.53613,-0.0923 -0.33838,0 -0.70752,0.16699 -0.36914,0.16699 -0.70752,0.42627 V 550 h -0.82617 v -4.90869 h 0.82617 v 0.54492 q 0.38672,-0.3208 0.79981,-0.50098 0.41308,-0.18017 0.84814,-0.18017 0.79541,0 1.21289,0.479 0.41748,0.47901 0.41748,1.37988 z m 5.57227,-0.55811 q 0,1.24805 -0.5669,1.83252 -0.56689,0.58448 -1.74462,0.58448 -0.39112,0 -0.76465,-0.0571 -0.36914,-0.0527 -0.7295,-0.15381 v -0.84375 h 0.0439 q 0.20215,0.0791 0.6416,0.19336 0.43945,0.11865 0.87891,0.11865 0.42187,0 0.69873,-0.10107 0.27685,-0.10108 0.43066,-0.28125 0.15381,-0.17139 0.21973,-0.41309 0.0659,-0.2417 0.0659,-0.54053 v -0.44824 q -0.37354,0.29883 -0.71631,0.44824 -0.33838,0.14502 -0.86572,0.14502 -0.87891,0 -1.39747,-0.63281 -0.51416,-0.63721 -0.51416,-1.79297 0,-0.63281 0.17579,-1.08984 0.18017,-0.46143 0.48779,-0.79541 0.28564,-0.31201 0.69433,-0.4834 0.4087,-0.17578 0.81299,-0.17578 0.42627,0 0.71192,0.0879 0.29004,0.0835 0.61084,0.25928 l 0.0527,-0.21094 h 0.77344 z m -0.82617,-0.79101 v -2.67627 q -0.32959,-0.14941 -0.61524,-0.21094 -0.28125,-0.0659 -0.5625,-0.0659 -0.68115,0 -1.07226,0.45704 -0.39112,0.45703 -0.39112,1.32714 0,0.82618 0.29004,1.25244 0.29004,0.42627 0.9624,0.42627 0.36036,0 0.72071,-0.13623 0.36474,-0.14062 0.66797,-0.37353 z m 6.56103,-1.01953 h -3.6167 q 0,0.45263 0.13623,0.79101 0.13623,0.33399 0.37354,0.54932 0.22851,0.21094 0.54053,0.31641 0.3164,0.10546 0.69433,0.10546 0.50098,0 1.00635,-0.19775 0.50976,-0.20215 0.7251,-0.39551 h 0.0439 v 0.90088 q -0.41748,0.17578 -0.85254,0.29444 -0.43506,0.11865 -0.91406,0.11865 -1.22168,0 -1.90723,-0.65918 -0.68554,-0.66358 -0.68554,-1.88086 0,-1.2041 0.65478,-1.91162 0.65918,-0.70752 1.73145,-0.70752 0.99316,0 1.52929,0.58008 0.54053,0.58007 0.54053,1.64795 z m -0.8042,-0.63281 q -0.004,-0.6504 -0.32959,-1.00635 -0.3208,-0.35596 -0.97998,-0.35596 -0.66357,0 -1.05908,0.39111 -0.39111,0.39112 -0.44385,0.9712 z m 5.56348,1.58642 q 0,0.67236 -0.55811,1.10303 -0.55371,0.43066 -1.51611,0.43066 -0.54492,0 -1.00195,-0.12744 -0.45264,-0.13184 -0.76026,-0.28564 v -0.92725 h 0.0439 q 0.39111,0.29443 0.87012,0.47022 0.479,0.17138 0.91845,0.17138 0.54492,0 0.85254,-0.17578 0.30762,-0.17578 0.30762,-0.55371 0,-0.29004 -0.16699,-0.43945 -0.167,-0.14942 -0.6416,-0.25489 -0.17579,-0.0395 -0.46143,-0.0923 -0.28125,-0.0527 -0.51416,-0.11426 -0.646,-0.17139 -0.91846,-0.50098 -0.26806,-0.33398 -0.26806,-0.81738 0,-0.30322 0.12304,-0.57129 0.12744,-0.26806 0.38233,-0.479 0.24609,-0.20654 0.62402,-0.3252 0.38232,-0.12304 0.85254,-0.12304 0.43945,0 0.8877,0.10986 0.45263,0.10547 0.75146,0.25928 v 0.8833 h -0.0439 q -0.3164,-0.23291 -0.76904,-0.39112 -0.45264,-0.16259 -0.88769,-0.16259 -0.45264,0 -0.76465,0.17578 -0.31201,0.17138 -0.31201,0.51416 0,0.30322 0.18896,0.45703 0.18457,0.15381 0.59766,0.25049 0.22851,0.0527 0.50976,0.10547 0.28565,0.0527 0.47461,0.0967 0.57569,0.13183 0.8877,0.45263 0.31201,0.3252 0.31201,0.86133 z"
         id="text88"
         style="font-size:9px;-inkscape-font-specification:'Bitstream Charter';text-align:end;text-anchor:end"
         aria-label="oranges" />
      <path
         id="rect89"
         style="fill:#fab000"
         d="m 314,557 h 40 v 10 h -40 z" />
      <path
         d="m 289.229,562.48633 q 0,0.59765 -0.17138,1.09424 -0.17139,0.49218 -0.4834,0.83496 -0.29004,0.32519 -0.68555,0.50537 -0.39111,0.17578 -0.83056,0.17578 -0.38233,0 -0.69434,-0.0835 -0.30762,-0.0835 -0.62842,-0.25927 v 2.05664 h -0.82617 v -6.71924 h 0.82617 v 0.51416 q 0.32959,-0.27686 0.73828,-0.46143 0.41309,-0.18896 0.87891,-0.18896 0.88769,0 1.37988,0.67236 0.49658,0.66797 0.49658,1.85889 z m -0.85254,0.022 q 0,-0.88769 -0.30322,-1.32715 -0.30322,-0.43945 -0.93164,-0.43945 -0.35596,0 -0.71631,0.15381 -0.36035,0.15381 -0.68994,0.40429 v 2.78174 q 0.35156,0.15821 0.60205,0.21533 0.25489,0.0571 0.57569,0.0571 0.68994,0 1.07666,-0.46582 0.38671,-0.46582 0.38671,-1.37988 z m 6.24903,0.12305 h -3.6167 q 0,0.45263 0.13623,0.79101 0.13623,0.33399 0.37353,0.54932 0.22852,0.21094 0.54053,0.31641 0.31641,0.10546 0.69434,0.10546 0.50097,0 1.00635,-0.19775 0.50976,-0.20215 0.72509,-0.39551 h 0.0439 v 0.90088 q -0.41748,0.17578 -0.85254,0.29444 -0.43506,0.11865 -0.91406,0.11865 -1.22168,0 -1.90723,-0.65918 -0.68555,-0.66358 -0.68555,-1.88086 0,-1.2041 0.65479,-1.91162 0.65918,-0.70752 1.73144,-0.70752 0.99317,0 1.5293,0.58008 0.54053,0.58007 0.54053,1.64795 z m -0.8042,-0.63281 q -0.004,-0.6504 -0.32959,-1.00635 -0.3208,-0.35596 -0.97998,-0.35596 -0.66358,0 -1.05908,0.39111 -0.39112,0.39112 -0.44385,0.9712 z M 299.69238,565 h -0.82177 v -0.52295 q -0.10987,0.0747 -0.29883,0.21094 -0.18457,0.13183 -0.36035,0.21094 -0.20655,0.10107 -0.47461,0.16699 -0.26807,0.0703 -0.62842,0.0703 -0.66358,0 -1.125,-0.43945 -0.46143,-0.43946 -0.46143,-1.12061 0,-0.5581 0.23731,-0.90088 0.2417,-0.34717 0.68554,-0.54492 0.44825,-0.19775 1.07666,-0.26807 0.62842,-0.0703 1.34913,-0.10546 v -0.12745 q 0,-0.28125 -0.10108,-0.46582 -0.0967,-0.18457 -0.28125,-0.29003 -0.17578,-0.10108 -0.42187,-0.13624 -0.2461,-0.0352 -0.51416,-0.0352 -0.3252,0 -0.7251,0.0879 -0.3999,0.0835 -0.82617,0.24609 h -0.044 v -0.83935 q 0.2417,-0.0659 0.69873,-0.14502 0.45703,-0.0791 0.90088,-0.0791 0.51856,0 0.90088,0.0879 0.38672,0.0835 0.66797,0.29004 0.27685,0.20214 0.42187,0.52295 0.14502,0.3208 0.14502,0.79541 z m -0.82177,-1.2085 v -1.3667 q -0.37793,0.022 -0.89209,0.0659 -0.50977,0.0439 -0.8086,0.12744 -0.35596,0.10108 -0.57568,0.31641 -0.21973,0.21094 -0.21973,0.58447 0,0.42188 0.25488,0.63721 0.25489,0.21094 0.77784,0.21094 0.43506,0 0.79541,-0.16699 0.36035,-0.17139 0.66797,-0.4087 z m 5.47558,-2.79931 h -0.0439 q -0.18457,-0.0439 -0.36036,-0.0615 -0.17138,-0.022 -0.40869,-0.022 -0.38232,0 -0.73828,0.17139 -0.35596,0.16699 -0.68555,0.43506 V 565 h -0.82617 v -4.90869 h 0.82617 v 0.7251 q 0.49219,-0.39551 0.86573,-0.55811 0.37793,-0.16699 0.76904,-0.16699 0.21533,0 0.31201,0.0132 0.0967,0.009 0.29004,0.0395 z m 4.28467,2.59277 q 0,0.67236 -0.55811,1.10303 -0.55371,0.43066 -1.51611,0.43066 -0.54492,0 -1.00195,-0.12744 -0.45264,-0.13184 -0.76026,-0.28564 v -0.92725 h 0.0439 q 0.39111,0.29443 0.87012,0.47022 0.479,0.17138 0.91845,0.17138 0.54492,0 0.85254,-0.17578 0.30762,-0.17578 0.30762,-0.55371 0,-0.29004 -0.16699,-0.43945 -0.167,-0.14942 -0.6416,-0.25489 -0.17579,-0.0395 -0.46143,-0.0923 -0.28125,-0.0527 -0.51416,-0.11426 -0.646,-0.17139 -0.91846,-0.50098 -0.26806,-0.33398 -0.26806,-0.81738 0,-0.30322 0.12304,-0.57129 0.12744,-0.26806 0.38233,-0.479 0.24609,-0.20654 0.62402,-0.3252 0.38232,-0.12304 0.85254,-0.12304 0.43945,0 0.8877,0.10986 0.45263,0.10547 0.75146,0.25928 v 0.8833 h -0.0439 q -0.3164,-0.23291 -0.76904,-0.39112 -0.45264,-0.16259 -0.88769,-0.16259 -0.45264,0 -0.76465,0.17578 -0.31201,0.17138 -0.31201,0.51416 0,0.30322 0.18896,0.45703 0.18457,0.15381 0.59766,0.25049 0.22851,0.0527 0.50976,0.10547 0.28565,0.0527 0.47461,0.0967 0.57569,0.13183 0.8877,0.45263 0.31201,0.3252 0.31201,0.86133 z"
         id="text89"
         style="font-size:9px;-inkscape-font-specification:'Bitstream Charter';text-align:end;text-anchor:end"
         aria-label="pears" />
    </g>
  </g>
</svg>
