<?xml version="1.0" encoding="UTF-8" standalone="no"?><svg
   width="70"
   height="60"
   viewBox="0 0 70 60"
   version="1.1"
   id="svg1"
   sodipodi:docname="org.inkscape.filter.alphabet-soup.svg"
   inkscape:version="1.4-dev (de72ba3c18, 2023-06-27, custom)"
   xmlns:inkscape="http://www.inkscape.org/namespaces/inkscape"
   xmlns:sodipodi="http://sodipodi.sourceforge.net/DTD/sodipodi-0.dtd"
   xmlns="http://www.w3.org/2000/svg"
   xmlns:svg="http://www.w3.org/2000/svg">
  <sodipodi:namedview
     id="namedview1"
     pagecolor="#ffffff"
     bordercolor="#000000"
     borderopacity="0.25"
     inkscape:showpageshadow="2"
     inkscape:pageopacity="0.0"
     inkscape:pagecheckerboard="0"
     inkscape:deskcolor="#d1d1d1"
     inkscape:zoom="1"
     inkscape:cx="214"
     inkscape:cy="105"
     inkscape:current-layer="layer1" />
  <defs
     id="defs1" />
  <g
     inkscape:label="org.inkscape.filter.alphabet-soup"
     inkscape:groupmode="layer"
     id="layer1">
    <path
       style="fill:#000000;stroke:none;stroke-width:0.999999"
       d="m 4.5101805,24.028731 h 2.5509149 v 11.22401 H 4.5101805 Z M 3.9999998,23.518548 v -0.510182 h 3.5712763 v 0.510182 c -0.2819888,0.0047 -0.5074029,0.227051 -0.5101807,0.510183 H 4.5101805 C 4.50122,23.736905 4.267383,23.523303 3.9999998,23.518548 Z m 0,12.256108 c 0.2938056,-0.0047 0.5152659,-0.250587 0.5101807,-0.521915 h 2.5509149 c 0.00896,0.285918 0.2349235,0.50346 0.5101807,0.510181 v 0.510182 H 3.9999998 Z M 8.394326,30.150918 h 2.040734 v 4.081458 H 8.394326 Z m 0,-0.986055 C 8.39343,28.845693 8.1702,28.691567 7.8841453,28.608611 V 28.110189 H 10.43506 v 0.337333 c 0.470362,-0.27129 1.000413,-0.319439 1.530542,-0.345674 v 0.508357 c -0.865993,0.09726 -1.413349,0.70094 -1.540712,1.540713 H 8.394326 Z m 5.079776,2.000451 c -0.0022,-0.971656 -0.391555,-2.548272 -1.5085,-2.552647 v -0.510016 c 1.935347,0.0024 3.555808,0.718361 3.555808,2.60096 l 0.01792,3.528765 h -2.039234 z m 0.02206,3.067062 c 0.0034,1.061089 0.83098,2.088559 2.106874,2.041876 0.698498,-0.02564 1.483791,-0.43493 1.747814,-1.14092 l -0.432,-0.362433 c -0.182258,0.183155 -0.2709,0.464074 -0.580331,0.476217 -0.517192,-0.01 -0.801713,-0.657702 -0.801623,-1.01474 z M 8.3943484,28.620371 H 7.8841677 v -0.510182 h 3.5712763 v 0.510182 h -1.020361 v 1.530547 H 8.3943484 Z m 0,-2.550912 h 2.0407346 v 2.04073 H 8.3943484 Z m 0,4.081459 c 0.00336,1.06109 0.8309686,2.08852 2.1068746,2.041826 0.698453,-0.02556 1.48379,-0.434854 1.747835,-1.14087 L 11.81698,30.689441 c -0.182246,0.183156 -0.270878,0.464074 -0.580263,0.476216 -0.517181,-0.01 -0.801724,-0.657701 -0.801634,-1.014739 z m 9.2011406,0 h 2.040723 v 4.081458 h -2.040723 z m 2.040723,3.046731 v -0.480528 l 3.287876,-3.831239 c -0.02285,-0.107661 -0.105622,-0.185463 -0.175884,-0.265511 h -0.561077 v -0.510182 h 2.550915 v 0.510182 c -0.214539,-0.0093 -0.420015,0.0084 -0.599854,0.135721 l -2.966965,3.429561 c 1.198162,1.147374 2.312911,2.385076 3.540542,3.501903 0.163642,0.08212 0.357123,0.07227 0.536457,0.08264 v 0.502912 h -2.53688 z m -2.040723,-4.577278 v 1.530547 h 2.040723 v -1.530547 h 1.020373 v -0.510182 h -3.571277 v 0.510182 z m 0,-1.530393 v 1.020211 h 2.040723 v -2.040882 z m -0.478684,2.830631 c -1.344577,-0.649232 -2.113819,-1.837549 -2.128873,-3.340967 -0.01501,-1.503418 0.885685,-2.849207 2.299527,-3.406106 0.427284,-0.168316 0.875861,-0.170513 1.347646,-0.16517 v 0.510182 c -1.263339,0.0021 -1.455162,1.871961 -1.449808,3.061094 0.0056,1.189133 0.240804,2.945793 1.851834,3.004247 0.2514,0.0091 0.310069,0.0093 0.406743,0.06363 0.213127,0.123055 0.192338,0.281033 0.192338,0.503397 h -2.040723 c -0.08266,-0.148871 -0.331753,-0.159381 -0.478684,-0.230308 z m 3.51133,-4.89641 C 20.122166,24.832446 20.059027,24.36239 20.339504,23.949125 19.801008,23.685304 19.217608,23.519296 18.615851,23.518548 v -0.518549 c 0.950345,0.02658 1.874661,0.339492 2.603334,0.95357 0.250492,0.211163 0.252027,0.639946 0.02218,0.892793 -0.132515,0.145873 -0.441812,0.242783 -0.613238,0.177837 z m 7.174822,10.738723 c 0.733007,0.0066 1.507457,-0.496445 1.516395,-1.275455 0.01008,-0.864721 -0.810561,-1.203418 -1.558868,-1.275201 -1.497892,-0.0048 -2.847454,-0.715491 -3.343992,-1.760881 -0.632369,-2.247659 1.461927,-3.33788 3.386465,-3.341196 v 0.510182 c -0.733008,-0.0066 -1.507335,0.496445 -1.516385,1.275455 -0.01008,0.864721 0.810673,1.203418 1.558981,1.275201 1.497769,0.0048 2.847465,0.715493 3.343868,1.760881 0.632493,2.24766 -1.461803,3.337881 -3.386464,3.341196 z m 2.012284,-5.636901 C 29.309272,29.934269 29.246133,29.464213 29.52661,29.050952 28.98798,28.787124 28.404714,28.621124 27.802957,28.620371 v -0.518549 c 0.950346,0.02658 1.874661,0.339488 2.603334,0.953568 0.250504,0.211165 0.252027,0.639948 0.02218,0.892794 -0.132515,0.145874 -0.441946,0.242783 -0.613238,0.177837 z m 3.089534,5.644681 v 0.510821 c 0.693984,-0.05459 1.368569,-0.227924 1.913954,-0.687266 0.35215,-0.294108 0.348969,-0.292118 0.424977,-0.273038 0.166576,0.0838 0.19655,0.272477 0.218492,0.441703 h 0.503673 v -2.550911 h -0.501377 c -0.179458,1.496913 -0.99945,2.447638 -2.559719,2.558691 z m 3.931984,-3.607524 c -0.02229,-1.994251 1.462565,-4.052989 3.559796,-4.052989 v 0.496765 c -1.0696,0.01213 -1.519073,2.432969 -1.516396,3.584693 0.0034,1.151724 0.462869,3.594106 1.516396,3.584668 v 0.496789 c -2.1684,-0.01823 -3.537484,-2.115674 -3.559796,-4.109926 z m 3.559796,3.607524 c 1.560257,-0.111054 2.380249,-1.061778 2.559707,-2.558691 h 0.501388 v 2.550911 h -0.503684 c -0.02195,-0.169226 -0.05186,-0.357905 -0.218481,-0.441703 -0.07605,-0.01907 -0.0728,-0.02107 -0.424988,0.273038 -0.545385,0.459342 -1.220093,0.632676 -1.913942,0.687266 z m 2.012161,-5.644681 c -0.505981,-0.191752 -0.568985,-0.661808 -0.288642,-1.075069 -0.538497,-0.263828 -1.121762,-0.429828 -1.723519,-0.430581 v -0.518549 c 0.950334,0.02658 1.874661,0.339488 2.603334,0.953568 0.250492,0.211165 0.252027,0.639948 0.02218,0.892794 -0.132515,0.145874 -0.441946,0.242783 -0.613362,0.177837 z m 2.069296,0.0249 h 2.040722 v 4.081456 h -2.040722 z m 0,-0.986055 c -7.73e-4,-0.319172 -0.224104,-0.473298 -0.510181,-0.556254 V 28.11019 h 2.550903 v 0.337333 c 0.470396,-0.27129 1.000469,-0.319439 1.530554,-0.345674 v 0.508357 c -0.866038,0.09726 -1.413338,0.70094 -1.540757,1.540713 h -2.030519 z m 8.079368,7.075718 c 0.131753,0.01378 0.319119,0.02666 0.416565,0.0287 l 0.177161,0.0038 v -0.497662 c -0.290288,-0.04259 -0.584161,-0.08094 -0.811703,-0.265639 -0.293985,-0.238574 -0.529435,-0.540245 -0.625862,-0.922511 -0.126523,-0.381286 -0.117081,-0.838129 0,-1.219974 0.187623,-0.565321 0.621146,-1.071357 1.236423,-1.156519 l 0.201142,-0.03169 v -0.497632 c -0.03114,0 -0.06205,0 -0.09319,0 -0.794477,-0.04612 -1.448027,-0.734752 -1.437308,-1.530546 0,-0.7916 0.634665,-1.490256 1.437308,-1.530547 h 0.09319 v -0.510183 l -0.120396,2.3e-4 c -0.202419,3.95e-4 -0.616811,0.05522 -0.885807,0.117138 -0.89525,0.266583 -2.069431,0.852973 -2.037923,1.923362 0,0.652548 0.441811,1.163317 0.979042,1.499577 0.1556,0.09289 0.323073,0.168476 0.477911,0.257081 -0.04021,0.01844 -0.07807,0.04287 -0.12053,0.05529 -0.183289,0.0537 -0.616308,0.264301 -0.837085,0.407139 -0.552396,0.357305 -1.030946,0.921542 -1.010415,1.607278 0,0.680634 0.4362,1.244653 1.00085,1.600735 0.535181,0.3451 1.257088,0.589095 1.960627,0.66256 z m -8.079368,-7.075718 v 0.986055 h 2.030519 c 0.127419,-0.839773 0.674719,-1.443459 1.540757,-1.540713 v -0.508359 c -0.530085,0.02623 -1.060158,0.07438 -1.530554,0.345674 V 28.11019 h -2.550903 v 0.498422 c 0.286077,0.08295 0.509408,0.237082 0.510181,0.556252 z m 9.693456,1.538748 c 0.01008,-2.062424 1.778626,-2.58406 3.571276,-2.593422 v 0.510182 c -0.954546,-0.01205 -1.530542,1.104188 -1.530542,1.88645 v 3.725555 h -2.040734 z m 0,-2.593422 v 2.040729 h 2.03053 c 0.127419,-0.839505 0.674966,-1.44365 1.540746,-1.540713 V 28.10185 c -0.530073,0.02623 -1.060157,0.07438 -1.530542,0.345674 v -0.337333 z m 0,-2.040729 h 2.040734 v 2.040729 h -2.040734 z m -0.510181,5.623764 v 0.498424 h 3.061096 v -0.498424 c -0.188004,-0.05029 -0.371281,-0.111245 -0.456485,-0.307142 -0.04357,-0.100571 -0.05253,-0.191829 -0.05309,-0.675379 l -6.39e-4,-0.559785 h -2.040734 l -6.38e-4,0.559785 c -5.04e-4,0.48355 -0.0022,0.578241 -0.05309,0.675379 -0.09621,0.184099 -0.256876,0.268534 -0.456484,0.307142 z m 5.623491,0.469955 c 0.02229,1.994251 1.391385,4.091687 3.559796,4.109926 v -0.49679 c -1.053527,0.0094 -1.513584,-2.432944 -1.516396,-3.584667 -0.0022,-1.151725 0.446796,-3.572565 1.516396,-3.584694 v -0.496765 c -2.097231,0 -3.582119,2.058738 -3.559796,4.05299 z m 6.326893,4.077402 c -0.703536,-0.07346 -1.425444,-0.317461 -1.960624,-0.662561 -0.56465,-0.356081 -1.000861,-0.920101 -1.000861,-1.600735 -0.0205,-0.685736 0.458019,-1.249972 1.010292,-1.607279 0.220911,-0.142838 0.65393,-0.353441 0.837207,-0.407137 0.04234,-0.01242 0.08031,-0.03686 0.120408,-0.05529 -0.154715,-0.08861 -0.322177,-0.16419 -0.477788,-0.257081 -0.53722,-0.33626 -0.979043,-0.84703 -0.979043,-1.499579 -0.03147,-1.070388 1.142685,-1.656778 2.037923,-1.923362 0.268873,-0.06192 0.683393,-0.116741 0.885681,-0.117137 l 0.12053,-2.29e-4 v 0.510182 h -0.09323 c -0.802649,0.04029 -1.437314,0.738948 -1.437314,1.530546 -0.0112,0.795796 0.64283,1.484427 1.437314,1.530547 0.03099,0 0.06212,0 0.09323,0 V 32.1791 l -0.201139,0.03169 c -0.61541,0.08516 -1.04881,0.5912 -1.236422,1.15652 -0.117092,0.381846 -0.126534,0.838689 0,1.219973 0.09644,0.382267 0.331742,0.683938 0.625738,0.922512 0.227665,0.184699 0.52153,0.223051 0.811823,0.26564 v 0.497682 l -0.177161,-0.0038 c -0.09745,-0.002 -0.284937,-0.01492 -0.416564,-0.0287 z m 2.605884,-6.11456 c -0.505973,-0.191752 -0.569108,-0.661808 -0.288636,-1.075069 -0.538497,-0.263828 -1.121762,-0.429828 -1.723523,-0.430581 v -0.518549 c 0.950342,0.02658 1.874664,0.339488 2.603205,0.953569 0.250627,0.211164 0.25203,0.639947 0.02232,0.892793 -0.13252,0.145875 -0.441946,0.242783 -0.613366,0.177837 z m 0,0 c 0.171421,0.06494 0.480847,-0.03197 0.613367,-0.177837 0.229709,-0.252846 0.228306,-0.681629 -0.02232,-0.892793 -0.728541,-0.614081 -1.652863,-0.926988 -2.603206,-0.953569 v 0.518549 c 0.601761,7.53e-4 1.185027,0.166753 1.723524,0.430581 -0.280472,0.413261 -0.217337,0.883317 0.288635,1.075069 z"
       id="path1" />
  </g>
</svg>
