<?xml version="1.0" encoding="UTF-8" standalone="no"?>
<svg
   width="70"
   height="60"
   viewBox="0 0 70 60"
   version="1.1"
   id="svg1"
   sodipodi:docname="org.inkscape.color.list-colours.svg"
   inkscape:version="1.4-dev (de72ba3c18, 2023-06-27, custom)"
   xmlns:inkscape="http://www.inkscape.org/namespaces/inkscape"
   xmlns:sodipodi="http://sodipodi.sourceforge.net/DTD/sodipodi-0.dtd"
   xmlns="http://www.w3.org/2000/svg"
   xmlns:svg="http://www.w3.org/2000/svg">
  <sodipodi:namedview
     id="namedview1"
     pagecolor="#ffffff"
     bordercolor="#000000"
     borderopacity="0.25"
     inkscape:showpageshadow="2"
     inkscape:pageopacity="0.0"
     inkscape:pagecheckerboard="0"
     inkscape:deskcolor="#d1d1d1"
     inkscape:zoom="4"
     inkscape:cx="104"
     inkscape:cy="24"
     inkscape:current-layer="layer1" />
  <defs
     id="defs1">
    <clipPath
       clipPathUnits="userSpaceOnUse"
       id="clipPath262">
      <path
         style="opacity:1;fill:#246cff;fill-opacity:1;fill-rule:evenodd;stroke:none;stroke-miterlimit:5.5"
         d="M 25,265 H 37 L 25,277 Z"
         id="path263"
         sodipodi:nodetypes="cccc" />
    </clipPath>
  </defs>
  <g
     inkscape:label="org.inkscape.color.list-colours"
     inkscape:groupmode="layer"
     id="layer1">
    <g
       id="g261"
       clip-path="url(#clipPath262)"
       transform="translate(-25,-265)">
      <path
         style="opacity:1;fill:#ff0000;fill-opacity:1;fill-rule:evenodd;stroke:none;stroke-width:1;stroke-miterlimit:5.5"
         id="path259"
         sodipodi:type="arc"
         sodipodi:cx="25"
         sodipodi:cy="265"
         sodipodi:rx="12.5"
         sodipodi:ry="12.5"
         sodipodi:start="0"
         sodipodi:end="0.52359878"
         sodipodi:arc-type="slice"
         d="m 37.5,265 a 12.5,12.5 0 0 1 -1.674682,6.25 L 25,265 Z" />
      <path
         style="opacity:1;fill:#246cff;fill-opacity:1;fill-rule:evenodd;stroke:none;stroke-width:1;stroke-miterlimit:5.5"
         id="path261"
         sodipodi:type="arc"
         sodipodi:cx="25"
         sodipodi:cy="265"
         sodipodi:rx="12.5"
         sodipodi:ry="12.5"
         sodipodi:start="1.0471976"
         sodipodi:end="1.5707963"
         sodipodi:arc-type="slice"
         d="M 31.249999,275.82532 A 12.5,12.5 0 0 1 25,277.5 V 265 Z" />
      <path
         style="opacity:1;fill:#00e513;fill-opacity:1;fill-rule:evenodd;stroke:none;stroke-width:1;stroke-miterlimit:5.5"
         id="path260"
         sodipodi:type="arc"
         sodipodi:cx="25"
         sodipodi:cy="265"
         sodipodi:rx="12.5"
         sodipodi:ry="12.5"
         sodipodi:start="0.45691093"
         sodipodi:end="1.11701"
         sodipodi:arc-type="slice"
         d="m 36.217745,270.51473 a 12.5,12.5 0 0 1 -5.738098,5.72019 L 25,265 Z" />
    </g>
    <g
       id="text1"
       style="font-size:8.0307px;line-height:1.2;-inkscape-font-specification:'sans-serif, Normal';font-variant-ligatures:none;stroke-linecap:square;stroke-linejoin:round;stroke-miterlimit:10"
       aria-label="#ff00ff&#10;#ff000f&#10;#7f7f00&#10;#00551f&#10;...">
      <path
         d="m 24.32953,10.668776 h -1.305773 l -0.360755,1.474386 h 1.207742 v 0.529368 h -1.344985 l -0.407809,1.650842 h -0.50584 l 0.407809,-1.650842 h -1.058735 l -0.407809,1.650842 h -0.50584 l 0.407809,-1.650842 h -1.168529 v -0.529368 h 1.305773 l 0.360754,-1.474386 H 19.7456 v -0.529367 h 1.344985 l 0.41173,-1.6547636 h 0.50584 l -0.41173,1.6547636 h 1.058735 l 0.41173,-1.6547636 h 0.50584 L 23.161,10.139409 h 1.16853 z m -1.79985,-0.0078 h -1.074419 l -0.368597,1.490071 h 1.07442 z m 5.646586,-1.725346 h -0.03921 q -0.121559,-0.035291 -0.317621,-0.070582 -0.196062,-0.039212 -0.345069,-0.039212 -0.47447,0 -0.690138,0.2117469 -0.211747,0.2078258 -0.211747,0.7567994 v 0.1490071 h 1.3293 v 0.6195563 h -1.305773 v 3.760469 H 25.858813 V 10.562903 H 25.360816 V 9.9433467 h 0.497997 V 9.7982608 q 0,-0.7803268 0.388203,-1.1959782 0.388203,-0.4195727 1.121475,-0.4195727 0.247038,0 0.4431,0.023527 0.199983,0.023528 0.364675,0.054897 z m 2.823293,0 h -0.03921 q -0.121559,-0.035291 -0.317621,-0.070582 -0.196062,-0.039212 -0.345069,-0.039212 -0.47447,0 -0.690138,0.2117469 -0.211747,0.2078258 -0.211747,0.7567994 v 0.1490071 h 1.3293 v 0.6195563 h -1.305773 v 3.760469 H 28.682106 V 10.562903 H 28.184109 V 9.9433467 h 0.497997 V 9.7982608 q 0,-0.7803268 0.388203,-1.1959782 0.388203,-0.4195727 1.121475,-0.4195727 0.247038,0 0.4431,0.023527 0.199983,0.023528 0.364675,0.054897 z m 4.317285,2.46646 q 0,1.572417 -0.494076,2.30961 -0.490155,0.733272 -1.525362,0.733272 -1.050893,0 -1.537127,-0.745035 -0.482312,-0.745036 -0.482312,-2.290005 0,-1.5567318 0.490155,-2.2978462 0.490155,-0.7450356 1.529284,-0.7450356 1.050892,0 1.533204,0.7567993 0.486234,0.7528781 0.486234,2.2782405 z m -1.031286,1.780243 q 0.137243,-0.31762 0.184298,-0.745036 0.05098,-0.431336 0.05098,-1.035207 0,-0.596028 -0.05098,-1.035207 Q 34.422801,9.9276617 34.281637,9.621805 34.144393,9.3198695 33.905198,9.1669412 33.669923,9.0140128 33.297406,9.0140128 q -0.368597,0 -0.611714,0.1529284 -0.239196,0.1529283 -0.38036,0.4627063 -0.133322,0.2901718 -0.184298,0.7567995 -0.04706,0.466627 -0.04706,1.023443 0,0.611714 0.04313,1.023444 0.04313,0.41173 0.184299,0.737193 0.1294,0.305857 0.364675,0.466628 0.239196,0.160771 0.63132,0.160771 0.368596,0 0.611713,-0.152929 0.243117,-0.152928 0.376439,-0.462706 z M 40.4223,11.402048 q 0,1.572417 -0.494077,2.30961 -0.490155,0.733272 -1.525362,0.733272 -1.050892,0 -1.537126,-0.745035 -0.482313,-0.745036 -0.482313,-2.290005 0,-1.5567318 0.490155,-2.2978462 0.490155,-0.7450356 1.529284,-0.7450356 1.050892,0 1.533205,0.7567993 0.486234,0.7528781 0.486234,2.2782405 z m -1.031287,1.780243 q 0.137244,-0.31762 0.184299,-0.745036 0.05098,-0.431336 0.05098,-1.035207 0,-0.596028 -0.05098,-1.035207 -0.04705,-0.4391793 -0.18822,-0.745036 -0.137243,-0.3019355 -0.376439,-0.4548638 -0.235274,-0.1529284 -0.607792,-0.1529284 -0.368597,0 -0.611714,0.1529284 -0.239195,0.1529283 -0.38036,0.4627063 -0.133322,0.2901718 -0.184298,0.7567995 -0.04706,0.466627 -0.04706,1.023443 0,0.611714 0.04313,1.023444 0.04313,0.41173 0.184298,0.737193 0.129401,0.305857 0.364675,0.466628 0.239196,0.160771 0.63132,0.160771 0.368597,0 0.611713,-0.152929 0.243117,-0.152928 0.376439,-0.462706 z m 4.642748,-4.246703 h -0.03921 q -0.121558,-0.035291 -0.31762,-0.070582 -0.196062,-0.039212 -0.345069,-0.039212 -0.47447,0 -0.690139,0.2117469 -0.211747,0.2078258 -0.211747,0.7567994 v 0.1490071 h 1.329301 v 0.6195563 h -1.305773 v 3.760469 H 41.716308 V 10.562903 H 41.21831 V 9.9433467 h 0.497998 V 9.7982608 q 0,-0.7803268 0.388202,-1.1959782 0.388203,-0.4195727 1.121475,-0.4195727 0.247038,0 0.4431,0.023527 0.199984,0.023528 0.364676,0.054897 z m 2.823293,0 h -0.03921 q -0.121559,-0.035291 -0.317621,-0.070582 -0.196062,-0.039212 -0.345069,-0.039212 -0.47447,0 -0.690138,0.2117469 -0.211747,0.2078258 -0.211747,0.7567994 v 0.1490071 h 1.3293 v 0.6195563 h -1.305772 v 3.760469 H 44.539601 V 10.562903 H 44.041604 V 9.9433467 h 0.497997 V 9.7982608 q 0,-0.7803268 0.388203,-1.1959782 0.388203,-0.4195727 1.121475,-0.4195727 0.247038,0 0.4431,0.023527 0.199983,0.023528 0.364675,0.054897 z"
         id="path5" />
      <path
         d="m 24.32953,20.305616 h -1.305773 l -0.360755,1.474386 h 1.207742 v 0.529368 h -1.344985 l -0.407809,1.650842 h -0.50584 l 0.407809,-1.650842 h -1.058735 l -0.407809,1.650842 h -0.50584 l 0.407809,-1.650842 h -1.168529 v -0.529368 h 1.305773 l 0.360754,-1.474386 H 19.7456 v -0.529367 h 1.344985 l 0.41173,-1.654764 h 0.50584 l -0.41173,1.654764 h 1.058735 l 0.41173,-1.654764 h 0.50584 L 23.161,19.776249 h 1.16853 z m -1.79985,-0.0078 h -1.074419 l -0.368597,1.490071 h 1.07442 z m 5.646586,-1.725346 h -0.03921 q -0.121559,-0.03529 -0.317621,-0.07058 -0.196062,-0.03921 -0.345069,-0.03921 -0.47447,0 -0.690138,0.211747 -0.211747,0.207826 -0.211747,0.7568 v 0.149007 h 1.3293 v 0.619556 h -1.305773 v 3.760469 h -0.737193 v -3.760469 h -0.497997 v -0.619556 h 0.497997 v -0.145086 q 0,-0.780327 0.388203,-1.195978 0.388203,-0.419573 1.121475,-0.419573 0.247038,0 0.4431,0.02353 0.199983,0.02353 0.364675,0.0549 z m 2.823293,0 h -0.03921 q -0.121559,-0.03529 -0.317621,-0.07058 -0.196062,-0.03921 -0.345069,-0.03921 -0.47447,0 -0.690138,0.211747 -0.211747,0.207826 -0.211747,0.7568 v 0.149007 h 1.3293 v 0.619556 h -1.305773 v 3.760469 h -0.737193 v -3.760469 h -0.497997 v -0.619556 h 0.497997 v -0.145086 q 0,-0.780327 0.388203,-1.195978 0.388203,-0.419573 1.121475,-0.419573 0.247038,0 0.4431,0.02353 0.199983,0.02353 0.364675,0.0549 z m 4.317285,2.46646 q 0,1.572417 -0.494076,2.30961 -0.490155,0.733272 -1.525362,0.733272 -1.050893,0 -1.537127,-0.745035 -0.482312,-0.745036 -0.482312,-2.290004 0,-1.556733 0.490155,-2.297847 0.490155,-0.745036 1.529284,-0.745036 1.050892,0 1.533204,0.7568 0.486234,0.752878 0.486234,2.27824 z m -1.031286,1.780243 q 0.137243,-0.31762 0.184298,-0.745036 0.05098,-0.431336 0.05098,-1.035207 0,-0.596028 -0.05098,-1.035207 -0.04706,-0.439179 -0.188219,-0.745036 -0.137244,-0.301935 -0.376439,-0.454864 -0.235275,-0.152928 -0.607792,-0.152928 -0.368597,0 -0.611714,0.152928 -0.239196,0.152929 -0.38036,0.462707 -0.133322,0.290171 -0.184298,0.756799 -0.04706,0.466627 -0.04706,1.023444 0,0.611713 0.04313,1.023443 0.04313,0.41173 0.184299,0.737193 0.1294,0.305857 0.364675,0.466628 0.239196,0.160771 0.63132,0.160771 0.368596,0 0.611713,-0.152929 0.243117,-0.152928 0.376439,-0.462706 z M 40.4223,21.038888 q 0,1.572417 -0.494077,2.30961 -0.490155,0.733272 -1.525362,0.733272 -1.050892,0 -1.537126,-0.745035 -0.482313,-0.745036 -0.482313,-2.290004 0,-1.556733 0.490155,-2.297847 0.490155,-0.745036 1.529284,-0.745036 1.050892,0 1.533205,0.7568 0.486234,0.752878 0.486234,2.27824 z m -1.031287,1.780243 q 0.137244,-0.31762 0.184299,-0.745036 0.05098,-0.431336 0.05098,-1.035207 0,-0.596028 -0.05098,-1.035207 -0.04705,-0.439179 -0.18822,-0.745036 -0.137243,-0.301935 -0.376439,-0.454864 -0.235274,-0.152928 -0.607792,-0.152928 -0.368597,0 -0.611714,0.152928 -0.239195,0.152929 -0.38036,0.462707 -0.133322,0.290171 -0.184298,0.756799 -0.04706,0.466627 -0.04706,1.023444 0,0.611713 0.04313,1.023443 0.04313,0.41173 0.184298,0.737193 0.129401,0.305857 0.364675,0.466628 0.239196,0.160771 0.63132,0.160771 0.368597,0 0.611713,-0.152929 0.243117,-0.152928 0.376439,-0.462706 z m 6.13674,-1.780243 q 0,1.572417 -0.494076,2.30961 -0.490155,0.733272 -1.525363,0.733272 -1.050892,0 -1.537126,-0.745035 -0.482312,-0.745036 -0.482312,-2.290004 0,-1.556733 0.490155,-2.297847 0.490155,-0.745036 1.529283,-0.745036 1.050893,0 1.533205,0.7568 0.486234,0.752878 0.486234,2.27824 z m -1.031286,1.780243 q 0.137243,-0.31762 0.184298,-0.745036 0.05098,-0.431336 0.05098,-1.035207 0,-0.596028 -0.05098,-1.035207 -0.04706,-0.439179 -0.188219,-0.745036 -0.137244,-0.301935 -0.376439,-0.454864 -0.235275,-0.152928 -0.607793,-0.152928 -0.368596,0 -0.611713,0.152928 -0.239196,0.152929 -0.38036,0.462707 -0.133322,0.290171 -0.184299,0.756799 -0.04705,0.466627 -0.04705,1.023444 0,0.611713 0.04313,1.023443 0.04313,0.41173 0.184298,0.737193 0.129401,0.305857 0.364676,0.466628 0.239195,0.160771 0.631319,0.160771 0.368597,0 0.611714,-0.152929 0.243117,-0.152928 0.376439,-0.462706 z m 4.642749,-4.246703 h -0.03921 q -0.121559,-0.03529 -0.317621,-0.07058 -0.196062,-0.03921 -0.345069,-0.03921 -0.47447,0 -0.690138,0.211747 -0.211747,0.207826 -0.211747,0.7568 v 0.149007 h 1.3293 v 0.619556 h -1.305773 v 3.760469 h -0.737193 v -3.760469 h -0.497997 v -0.619556 h 0.497997 v -0.145086 q 0,-0.780327 0.388203,-1.195978 0.388203,-0.419573 1.121475,-0.419573 0.247038,0 0.4431,0.02353 0.199983,0.02353 0.364675,0.0549 z"
         id="path6" />
      <path
         d="m 24.32953,29.942456 h -1.305773 l -0.360755,1.474387 h 1.207742 v 0.529367 h -1.344985 l -0.407809,1.650842 h -0.50584 l 0.407809,-1.650842 h -1.058735 l -0.407809,1.650842 h -0.50584 l 0.407809,-1.650842 h -1.168529 v -0.529367 h 1.305773 l 0.360754,-1.474387 H 19.7456 v -0.529367 h 1.344985 l 0.41173,-1.654764 h 0.50584 l -0.41173,1.654764 h 1.058735 l 0.41173,-1.654764 h 0.50584 L 23.161,29.413089 h 1.16853 z m -1.79985,-0.0078 h -1.074419 l -0.368597,1.490071 h 1.07442 z m 7.164106,-1.301852 -2.642916,4.96429 h -0.839145 l 2.811529,-5.152509 h -3.325212 v -0.686218 h 3.995744 z m 3.587935,-0.423494 h -0.03921 q -0.121558,-0.03529 -0.31762,-0.07058 -0.196062,-0.03921 -0.345069,-0.03921 -0.47447,0 -0.690139,0.211747 -0.211747,0.207826 -0.211747,0.7568 v 0.149007 h 1.329301 v 0.619556 h -1.305773 v 3.760469 H 30.964268 V 29.836583 H 30.46627 v -0.619556 h 0.497998 v -0.145086 q 0,-0.780327 0.388203,-1.195978 0.388202,-0.419573 1.121474,-0.419573 0.247038,0 0.4431,0.02353 0.199984,0.02353 0.364676,0.0549 z m 4.340812,0.423494 -2.642915,4.96429 h -0.839146 l 2.811529,-5.152509 H 33.62679 v -0.686218 h 3.995743 z m 3.587936,-0.423494 h -0.03921 q -0.121558,-0.03529 -0.31762,-0.07058 -0.196062,-0.03921 -0.345069,-0.03921 -0.47447,0 -0.690138,0.211747 -0.211747,0.207826 -0.211747,0.7568 v 0.149007 h 1.3293 v 0.619556 h -1.305773 v 3.760469 h -0.737193 v -3.760469 h -0.497998 v -0.619556 h 0.497998 v -0.145086 q 0,-0.780327 0.388203,-1.195978 0.388202,-0.419573 1.121474,-0.419573 0.247038,0 0.4431,0.02353 0.199984,0.02353 0.364676,0.0549 z m 4.317284,2.46646 q 0,1.572417 -0.494076,2.309611 -0.490155,0.733271 -1.525363,0.733271 -1.050892,0 -1.537126,-0.745035 -0.482312,-0.745036 -0.482312,-2.290004 0,-1.556733 0.490155,-2.297847 0.490155,-0.745036 1.529283,-0.745036 1.050893,0 1.533205,0.7568 0.486234,0.752878 0.486234,2.27824 z m -1.031286,1.780243 q 0.137243,-0.31762 0.184298,-0.745035 0.05098,-0.431337 0.05098,-1.035208 0,-0.596028 -0.05098,-1.035207 -0.04706,-0.439179 -0.188219,-0.745036 -0.137244,-0.301935 -0.376439,-0.454864 -0.235275,-0.152928 -0.607793,-0.152928 -0.368596,0 -0.611713,0.152928 -0.239196,0.152929 -0.38036,0.462707 -0.133322,0.290171 -0.184299,0.756799 -0.04705,0.466628 -0.04705,1.023444 0,0.611713 0.04313,1.023443 0.04313,0.41173 0.184298,0.737193 0.129401,0.305857 0.364676,0.466628 0.239195,0.160771 0.631319,0.160771 0.368597,0 0.611714,-0.152929 0.243117,-0.152928 0.376439,-0.462706 z m 6.136741,-1.780243 q 0,1.572417 -0.494076,2.309611 -0.490155,0.733271 -1.525362,0.733271 -1.050893,0 -1.537126,-0.745035 -0.482313,-0.745036 -0.482313,-2.290004 0,-1.556733 0.490155,-2.297847 0.490155,-0.745036 1.529284,-0.745036 1.050892,0 1.533205,0.7568 0.486233,0.752878 0.486233,2.27824 z m -1.031286,1.780243 q 0.137244,-0.31762 0.184299,-0.745035 0.05098,-0.431337 0.05098,-1.035208 0,-0.596028 -0.05098,-1.035207 -0.04706,-0.439179 -0.18822,-0.745036 -0.137243,-0.301935 -0.376439,-0.454864 -0.235274,-0.152928 -0.607792,-0.152928 -0.368597,0 -0.611714,0.152928 -0.239195,0.152929 -0.38036,0.462707 -0.133322,0.290171 -0.184298,0.756799 -0.04706,0.466628 -0.04706,1.023444 0,0.611713 0.04313,1.023443 0.04313,0.41173 0.184298,0.737193 0.129401,0.305857 0.364675,0.466628 0.239196,0.160771 0.63132,0.160771 0.368596,0 0.611713,-0.152929 0.243117,-0.152928 0.376439,-0.462706 z"
         id="path7" />
      <path
         d="m 24.32953,39.579296 h -1.305773 l -0.360755,1.474387 h 1.207742 v 0.529367 h -1.344985 l -0.407809,1.650842 h -0.50584 l 0.407809,-1.650842 h -1.058735 l -0.407809,1.650842 h -0.50584 l 0.407809,-1.650842 h -1.168529 v -0.529367 h 1.305773 l 0.360754,-1.474387 H 19.7456 v -0.529367 h 1.344985 l 0.41173,-1.654763 h 0.50584 l -0.41173,1.654763 h 1.058735 l 0.41173,-1.654763 h 0.50584 L 23.161,39.049929 h 1.16853 z m -1.79985,-0.0078 h -1.074419 l -0.368597,1.490071 h 1.07442 z m 7.140579,0.741114 q 0,1.572417 -0.494077,2.309611 -0.490155,0.733272 -1.525362,0.733272 -1.050892,0 -1.537126,-0.745036 -0.482313,-0.745036 -0.482313,-2.290004 0,-1.556733 0.490155,-2.297847 0.490155,-0.745036 1.529284,-0.745036 1.050892,0 1.533205,0.7568 0.486234,0.752878 0.486234,2.27824 z m -1.031286,1.780243 q 0.137243,-0.31762 0.184298,-0.745035 0.05098,-0.431337 0.05098,-1.035208 0,-0.596028 -0.05098,-1.035207 -0.04705,-0.439179 -0.18822,-0.745036 -0.137243,-0.301935 -0.376439,-0.454864 -0.235274,-0.152928 -0.607792,-0.152928 -0.368596,0 -0.611713,0.152928 -0.239196,0.152929 -0.380361,0.462707 -0.133322,0.290171 -0.184298,0.756799 -0.04706,0.466628 -0.04706,1.023444 0,0.611713 0.04313,1.023443 0.04313,0.411731 0.184298,0.737193 0.129401,0.305857 0.364675,0.466628 0.239196,0.160771 0.63132,0.160771 0.368597,0 0.611714,-0.152928 0.243116,-0.152929 0.376439,-0.462707 z m 6.13674,-1.780243 q 0,1.572417 -0.494076,2.309611 -0.490155,0.733272 -1.525362,0.733272 -1.050893,0 -1.537127,-0.745036 -0.482312,-0.745036 -0.482312,-2.290004 0,-1.556733 0.490155,-2.297847 0.490155,-0.745036 1.529284,-0.745036 1.050892,0 1.533204,0.7568 0.486234,0.752878 0.486234,2.27824 z m -1.031286,1.780243 q 0.137243,-0.31762 0.184298,-0.745035 0.05098,-0.431337 0.05098,-1.035208 0,-0.596028 -0.05098,-1.035207 -0.04706,-0.439179 -0.188219,-0.745036 -0.137244,-0.301935 -0.376439,-0.454864 -0.235275,-0.152928 -0.607792,-0.152928 -0.368597,0 -0.611714,0.152928 -0.239196,0.152929 -0.38036,0.462707 -0.133322,0.290171 -0.184299,0.756799 -0.04705,0.466628 -0.04705,1.023444 0,0.611713 0.04313,1.023443 0.04313,0.411731 0.184299,0.737193 0.1294,0.305857 0.364675,0.466628 0.239196,0.160771 0.63132,0.160771 0.368596,0 0.611713,-0.152928 0.243117,-0.152929 0.376439,-0.462707 z m 6.097528,-0.713666 q 0,0.407809 -0.149007,0.780327 -0.149007,0.372518 -0.407809,0.627399 -0.282329,0.274486 -0.674453,0.423494 -0.388203,0.145086 -0.901885,0.145086 -0.478392,0 -0.921492,-0.101953 -0.4431,-0.09803 -0.748957,-0.239195 v -0.827382 h 0.0549 q 0.321541,0.203904 0.752878,0.34899 0.431336,0.141165 0.846988,0.141165 0.278408,0 0.53721,-0.07843 0.262723,-0.07842 0.466627,-0.274487 0.172535,-0.168613 0.258802,-0.403887 0.09019,-0.235275 0.09019,-0.545053 0,-0.301935 -0.105873,-0.509761 -0.101952,-0.207826 -0.286251,-0.333305 -0.203904,-0.149007 -0.497997,-0.207826 -0.290172,-0.06274 -0.650926,-0.06274 -0.345069,0 -0.666611,0.04706 -0.31762,0.04706 -0.548973,0.09411 v -3.007591 h 3.513431 v 0.686217 h -2.756632 v 1.552811 q 0.168613,-0.01568 0.345069,-0.02353 0.176456,-0.0078 0.305857,-0.0078 0.47447,0 0.831303,0.08235 0.356833,0.07843 0.654847,0.282329 0.313699,0.215668 0.486234,0.556816 0.172534,0.341148 0.172534,0.85483 z m 5.105456,0 q 0,0.407809 -0.149008,0.780327 -0.149007,0.372518 -0.407808,0.627399 -0.28233,0.274486 -0.674454,0.423494 -0.388203,0.145086 -0.901885,0.145086 -0.478391,0 -0.921491,-0.101953 -0.443101,-0.09803 -0.748957,-0.239195 v -0.827382 h 0.0549 q 0.321542,0.203904 0.752878,0.34899 0.431337,0.141165 0.846988,0.141165 0.278408,0 0.53721,-0.07843 0.262723,-0.07842 0.466628,-0.274487 0.172534,-0.168613 0.258801,-0.403887 0.09019,-0.235275 0.09019,-0.545053 0,-0.301935 -0.105874,-0.509761 -0.101952,-0.207826 -0.28625,-0.333305 -0.203905,-0.149007 -0.497998,-0.207826 -0.290171,-0.06274 -0.650925,-0.06274 -0.34507,0 -0.666611,0.04706 -0.317621,0.04706 -0.548974,0.09411 v -3.007591 h 3.513431 v 0.686217 h -2.756632 v 1.552811 q 0.168614,-0.01568 0.34507,-0.02353 0.176455,-0.0078 0.305856,-0.0078 0.47447,0 0.831303,0.08235 0.356833,0.07843 0.654847,0.282329 0.313699,0.215668 0.486234,0.556816 0.172535,0.341148 0.172535,0.85483 z m 4.819203,1.854747 h -3.16052 v -0.596028 h 1.215584 v -3.913398 h -1.215584 v -0.533289 q 0.247038,0 0.529367,-0.03921 0.28233,-0.04313 0.427416,-0.121559 0.180377,-0.09803 0.282329,-0.247038 0.105873,-0.152928 0.121558,-0.407809 h 0.607793 v 5.262305 h 1.192057 z m 3.936924,-5.387784 h -0.03921 q -0.121558,-0.03529 -0.31762,-0.07058 -0.196062,-0.03921 -0.345069,-0.03921 -0.474471,0 -0.690139,0.211747 -0.211747,0.207826 -0.211747,0.7568 v 0.149007 h 1.329301 v 0.619556 h -1.305773 v 3.760469 h -0.737193 v -3.760469 h -0.497998 v -0.619556 h 0.497998 v -0.145086 q 0,-0.780327 0.388202,-1.195978 0.388203,-0.419573 1.121475,-0.419573 0.247038,0 0.4431,0.02353 0.199983,0.02353 0.364676,0.0549 z"
         id="path8" />
      <path
         d="m 20.451423,52.870732 h -0.937176 v -1.117553 h 0.937176 z m 2.921324,0 H 22.43557 v -1.117553 h 0.937177 z m 2.921324,0 h -0.937177 v -1.117553 h 0.937177 z"
         id="path9" />
    </g>
  </g>
</svg>
