<?xml version="1.0" encoding="UTF-8" standalone="no"?><svg
   width="70"
   height="60"
   viewBox="0 0 70 60"
   version="1.1"
   id="svg1"
   sodipodi:docname="org.ekips.filter.twirl.svg"
   inkscape:version="1.4-dev (de72ba3c18, 2023-06-27, custom)"
   xmlns:inkscape="http://www.inkscape.org/namespaces/inkscape"
   xmlns:sodipodi="http://sodipodi.sourceforge.net/DTD/sodipodi-0.dtd"
   xmlns="http://www.w3.org/2000/svg"
   xmlns:svg="http://www.w3.org/2000/svg">
  <sodipodi:namedview
     id="namedview1"
     pagecolor="#ffffff"
     bordercolor="#000000"
     borderopacity="0.25"
     inkscape:showpageshadow="2"
     inkscape:pageopacity="0.0"
     inkscape:pagecheckerboard="0"
     inkscape:deskcolor="#d1d1d1"
     inkscape:zoom="1"
     inkscape:cx="113"
     inkscape:cy="-12"
     inkscape:current-layer="layer1" />
  <defs
     id="defs1" />
  <g
     inkscape:label="org.ekips.filter.twirl"
     inkscape:groupmode="layer"
     id="layer1">
    <path
       id="path3"
       style="baseline-shift:baseline;display:inline;overflow:visible;vector-effect:none;fill:#737373;fill-opacity:1;fill-rule:evenodd;stroke-width:0.999999;stroke-miterlimit:5.5;enable-background:accumulate;stop-color:#000000"
       d="M 2.6624496,36.968724 7.319308,27.762446 1.2184935,30.049892 9.089073,21.882879 6.556346,19.123156 15.394905,14.938577 18.686279,9.2522976 25.073665,9.5654917 34.331503,4.223 l 1.326245,3.0129171 13.258355,-2.684607 -4.408908,3.2369425 14.458052,0.4091502 -9.180388,1.8564512 13.191586,2.518187 -12.232234,0.265618 10.22068,3.282544 -13.424548,-0.548906 6.237632,3.262615 -12.803327,-0.437566 1.857892,3.44442 -10.487736,-0.09265 -2.188018,4.614951 -6.882673,-0.707294 -5.107569,6.657325 -2.820737,-3.17839 -6.600415,8.034921 0.98051,-6.850835 z" />
    <path
       d="m 43.525696,54.394846 -5.900963,0.219446 -4.893554,-1.6298 -9.189617,-2.044542 1.423477,1.521947 -7.048044,-2.505416 -7.458512,-8.86474 7.100136,3.186913 z m -15.387222,-3.287521 -9.370558,-4.850547 3.305718,3.201681 z m 27.621194,-3.808996 c 0.747517,-0.03966 1.278869,0.01708 1.597135,0.179575 0.317493,0.159054 0.434433,0.405192 0.349708,0.737315 -0.103041,0.385438 -0.399672,0.817273 -0.895415,1.287944 -0.507393,0.455576 -1.322335,1.015242 -2.466949,1.652889 l -7.871663,2.770353 -17.69039,-6.616628 7.415449,0.413281 c 1.410241,-0.09558 2.463505,-0.185776 3.186556,-0.238439 0.720082,-0.06896 1.54669,-0.118403 2.479241,-0.15545 0.956865,-0.0618 1.877004,-0.07884 2.764675,-0.04681 0.876782,0.0092 1.692752,0.06469 2.449034,0.17189 0.867628,0.109646 1.441106,0.276797 1.72294,0.512849 0.265596,0.235277 0.226203,0.525439 -0.123395,0.865522 l 0.09251,0.01143 c 1.205077,-0.410416 2.410552,-0.750296 3.625384,-1.016261 1.193695,-0.311668 2.314147,-0.493037 3.36517,-0.52942 z m -11.8609,1.643794 c -0.30255,-0.06744 -0.676338,-0.120523 -1.122833,-0.160885 -0.441249,-0.04645 -0.914374,-0.056 -1.421383,-0.03003 -0.455332,0.01722 -0.933023,0.05955 -1.433865,0.124502 -0.507596,0.05427 -1.217944,0.122866 -2.141165,0.193294 l -0.447453,0.02482 3.904168,1.259664 0.7372,-0.107143 c 0.732186,-0.123916 1.333915,-0.24498 1.810077,-0.35674 0.469382,-0.118452 0.774371,-0.230031 0.918185,-0.330249 0.206052,-0.141225 0.222658,-0.258229 0.05217,-0.350011 -0.180314,-0.09362 -0.465171,-0.182056 -0.855102,-0.267202 z m 8.005355,0.670672 c -0.515888,-0.0411 -1.012702,-0.0309 -1.488619,0.02967 -0.479788,0.0508 -1.026869,0.16121 -1.645284,0.327261 -0.426661,0.106411 -0.938323,0.257933 -1.539038,0.449591 -0.61136,0.180292 -1.256503,0.356798 -1.936872,0.527943 l -1.01815,0.224908 4.151336,0.890979 0.336762,-0.105182 c 1.269253,-0.436936 2.14683,-0.78084 2.660395,-1.000929 0.505063,-0.228772 0.877628,-0.454165 1.120221,-0.671816 0.243418,-0.223287 0.294048,-0.384583 0.155255,-0.481307 -0.14155,-0.100392 -0.406495,-0.163417 -0.795992,-0.191088 z M 66.5312,38.017101 c -0.496763,1.113795 -1.136668,2.184203 -1.918399,3.199308 -0.825543,0.972615 -1.758606,1.83292 -2.794795,2.577363 -1.076155,0.700557 -2.236361,1.265642 -3.478327,1.696196 -1.273009,0.380829 -2.590938,0.605932 -3.956379,0.681874 -1.305808,0.03444 -2.369083,-0.06274 -3.179698,-0.270075 -0.830298,-0.216138 -1.383914,-0.512871 -1.659329,-0.881601 -0.283274,-0.351928 -0.280704,-0.769639 -7.24e-4,-1.258319 0.256284,-0.496669 0.763163,-1.045228 1.508416,-1.662839 0.393326,-0.352464 0.778966,-0.678726 1.160084,-0.978396 0.367768,-0.309613 0.731715,-0.604615 1.092319,-0.884141 0.379215,-0.300935 0.746781,-0.58358 1.105525,-0.848097 0.347427,-0.272992 0.655896,-0.518269 0.927556,-0.734169 l 3.809944,-1.098535 -0.177426,0.340655 c -0.239886,0.198071 -0.534528,0.440959 -0.886969,0.726527 -0.355279,0.274554 -0.731129,0.571192 -1.129853,0.888989 -0.410142,0.315191 -0.806932,0.63531 -1.191907,0.961709 -0.393333,0.319027 -0.730275,0.63751 -1.010597,0.957846 -0.320777,0.350547 -0.53714,0.667279 -0.64641,0.953859 -0.12427,0.286913 -0.102678,0.537944 0.06527,0.754957 0.160638,0.207383 0.503218,0.356284 1.02616,0.442993 0.51892,0.07973 1.255245,0.05514 2.200153,-0.08712 0.966015,-0.169444 1.840943,-0.42677 2.629396,-0.772156 0.775746,-0.370402 1.448198,-0.780037 2.019232,-1.224571 0.567596,-0.466719 1.052796,-0.95566 1.455651,-1.462663 0.384728,-0.514129 0.687192,-1.001667 0.909328,-1.458263 0.204293,-0.440902 0.33855,-0.849242 0.403449,-1.221807 0.06115,-0.378072 0.0602,-0.697605 -7.24e-4,-0.957376 -0.04675,-0.22171 -0.115789,-0.413188 -0.20608,-0.5746 -0.09266,-0.159488 -0.178294,-0.284518 -0.255791,-0.376212 l 0.125435,-0.373998 2.82722,-1.851987 c 0.0309,0.295502 0.05492,0.581128 0.07254,0.856629 0.01483,0.276762 0.0058,0.582647 -0.02649,0.91692 -0.04841,0.43648 -0.120059,0.859133 -0.212926,1.266236 -0.09944,0.406914 -0.296769,0.993512 -0.604246,1.754865 z"
       id="text4"
       style="font-weight:bold;font-size:24px;line-height:1.8;-inkscape-font-specification:'sans-serif, Bold';font-variant-ligatures:none;stroke-width:0.999999;stroke-linecap:square;stroke-linejoin:round;stroke-miterlimit:10"
       aria-label="ABC" />
  </g>
</svg>
