<?xml version="1.0" encoding="UTF-8" standalone="no"?>
<svg
   width="70"
   height="60"
   viewBox="0 0 70 60"
   version="1.1"
   id="svg1"
   sodipodi:docname="org.inkscape.text.merge.svg"
   inkscape:version="1.4-dev (e93d6aa925, 2023-06-29, custom)"
   xmlns:inkscape="http://www.inkscape.org/namespaces/inkscape"
   xmlns:sodipodi="http://sodipodi.sourceforge.net/DTD/sodipodi-0.dtd"
   xmlns:xlink="http://www.w3.org/1999/xlink"
   xmlns="http://www.w3.org/2000/svg"
   xmlns:svg="http://www.w3.org/2000/svg">
  <sodipodi:namedview
     id="namedview1"
     pagecolor="#ffffff"
     bordercolor="#000000"
     borderopacity="0.25"
     inkscape:showpageshadow="2"
     inkscape:pageopacity="0.0"
     inkscape:pagecheckerboard="0"
     inkscape:deskcolor="#d1d1d1"
     showgrid="false"
     inkscape:zoom="3.8819706"
     inkscape:cx="3.6064157"
     inkscape:cy="58.475455"
     inkscape:current-layer="layer1">
    <inkscape:grid
       id="grid2"
       units="px"
       originx="0"
       originy="0"
       spacingx="1"
       spacingy="1"
       empcolor="#0099e5"
       empopacity="0.30196078"
       color="#3f84a6"
       opacity="0.14901961"
       empspacing="5"
       dotted="false"
       gridanglex="30"
       gridanglez="30"
       visible="false" />
  </sodipodi:namedview>
  <defs
     id="defs1" />
  <g
     inkscape:label="org.inkscape.text.merge"
     inkscape:groupmode="layer"
     id="layer1">
    <image
       preserveAspectRatio="none"
       inkscape:svg-dpi="192"
       width="70"
       height="60"
       xlink:href="_notepad-page-icon.svg"
       id="image1"
       x="0"
       y="0"
       sodipodi:insensitive="true" />
    <g
       id="text3"
       style="font-size:18.6667px;line-height:1.07;font-family:'Kaushan Script';-inkscape-font-specification:'Kaushan Script, Normal';font-variant-ligatures:none;stroke-linecap:square;stroke-linejoin:round;stroke-miterlimit:10"
       aria-label="xyz&#10;abcd&#10;123">
      <path
         d="m 27.066678,14.437362 q -0.205333,0.317334 -0.653334,0.504001 -0.429334,0.205334 -0.821335,0.242667 -0.317334,-0.373334 -0.709335,-1.008002 -0.392,-0.653334 -0.746668,-1.512003 -0.952001,0.858669 -1.904003,1.568003 -0.952002,0.690668 -1.773337,1.176002 -0.205333,-0.03733 -0.336,-0.224 -0.130667,-0.186667 -0.149334,-0.485334 0.373334,-0.205334 0.877335,-0.541335 0.522668,-0.336 1.045335,-0.728001 0.541335,-0.410667 1.026669,-0.840001 0.504001,-0.448001 0.858668,-0.858669 Q 23.464005,10.984022 23.184005,10.200021 22.922671,9.3973529 22.717337,8.6693516 22.53067,7.9226836 22.41867,7.3253491 q -0.112,-0.6160011 -0.112,-0.9893351 0,-0.2613338 0.056,-0.3360006 0.07467,-0.093333 0.317334,-0.093333 0.186667,0 0.448,0.037333 0.280001,0.037333 0.560002,0.093333 0.28,0.056 0.560001,0.1306669 0.28,0.056 0.485334,0.1306669 -0.03733,0.2053337 -0.03733,0.3546673 0,0.1493336 0,0.4293341 0,0.7280014 0.112001,1.4933361 0.130666,0.746668 0.410667,1.6240029 0.765335,-0.8773349 1.418669,-1.9413368 0.653335,-1.0826687 1.325336,-2.5760047 0.466667,0.093333 0.802668,0.2800005 0.336001,0.1680003 0.429334,0.373334 -0.205334,0.8586682 -1.157335,2.1653373 -0.952002,1.306669 -2.426671,2.7813387 0.261333,0.709334 0.634667,1.512002 0.373334,0.784002 0.821335,1.64267 z m 9.072043,-2.781338 q -0.429334,1.362669 -0.858668,2.482671 -0.429334,1.120002 -0.914668,2.053337 -0.485335,0.952002 -1.045336,1.736003 -0.560001,0.802668 -1.232002,1.512003 -0.858668,0.896001 -1.773336,1.362669 -0.914669,0.485334 -1.829337,0.485334 -0.466667,0 -0.933335,-0.112 -0.448001,-0.09333 -0.840001,-0.280001 -0.410668,-0.168 -0.709335,-0.410667 -0.317334,-0.224001 -0.448001,-0.485334 0,-0.224001 0.261334,-0.392001 0.224,0.205334 0.373334,0.317334 0.149334,0.112 0.298667,0.186667 0.130667,0.07467 0.298667,0.09333 0.149334,0.01867 0.354668,0.01867 1.064002,0 2.072003,-0.634668 1.026669,-0.616001 1.922671,-1.773336 0.914668,-1.138669 1.661336,-2.781339 0.746668,-1.624003 1.269335,-3.640006 -0.242667,0.373334 -0.597334,0.914668 -0.354667,0.541334 -0.784001,1.082669 -0.429334,0.522667 -0.896002,0.952001 -0.448001,0.429335 -0.877335,0.578668 -0.298667,-0.01867 -0.634668,-0.130667 -0.317334,-0.09333 -0.616001,-0.28 -0.28,-0.186667 -0.504001,-0.448001 -0.224,-0.261334 -0.298667,-0.597334 0,-0.541335 0.03733,-0.858669 0.03733,-0.336 0.130667,-0.728001 0.168001,-0.709335 0.485335,-1.605336 0.336,-0.8960018 0.765334,-1.75467 0.448001,-0.877335 0.970669,-1.624003 0.541334,-0.7653347 1.120002,-1.1946688 0.149333,0 0.373334,0.037333 0.224,0.018667 0.466667,0.093333 0.242667,0.074667 0.466668,0.186667 0.224,0.093333 0.392,0.2613338 -0.205333,0.186667 -0.896001,1.2506689 -0.690668,1.064002 -1.53067,3.0613392 -0.09333,0.205333 -0.224,0.597334 -0.130667,0.392001 -0.261334,0.821335 -0.112,0.429334 -0.205333,0.840001 -0.09333,0.410668 -0.09333,0.653335 0,0.149334 0.03733,0.224 0.056,0.07467 0.09333,0.112001 0.336001,-0.056 0.896002,-0.541335 0.560001,-0.504001 1.269335,-1.549336 0.448001,-0.672001 0.821335,-1.325336 0.373334,-0.6720008 0.728001,-1.344002 0.373334,-0.6720012 0.765335,-1.3813359 0.392001,-0.7093346 0.840002,-1.4560026 0.242667,0 0.522667,0.056 0.280001,0.056 0.541334,0.1493336 0.261334,0.074667 0.448001,0.186667 0.205334,0.093333 0.298667,0.2053337 -0.578667,1.2320023 -1.082668,2.4080044 -0.504001,1.1760017 -0.896002,2.4080047 z m 1.437341,2.632004 q 0,-0.298667 0.522668,-0.952001 0.522667,-0.672002 1.381335,-1.512003 0.877335,-0.858668 1.997337,-1.792003 1.138669,-0.952002 2.352005,-1.8293369 -0.784002,-0.1680003 -1.250669,-0.2426671 -0.448001,-0.074667 -0.728002,-0.074667 -0.541334,0 -0.970668,0.1493336 -0.429334,0.1493336 -0.840002,0.4853342 -0.858668,-0.746668 -0.858668,-1.7173365 0,-0.2986672 0.01867,-0.3546673 0.317334,-0.3173339 0.746668,-0.4853342 0.448001,-0.1680003 0.933335,-0.1680003 0.522667,0 1.064002,0.1680003 0.541334,0.1680003 1.064002,0.373334 0.522667,0.186667 0.970668,0.3546673 0.466668,0.1680003 0.821335,0.1680003 0.205334,0 0.448001,-0.056 0.261334,-0.056 0.429334,-0.1493336 0.168,0.1306669 0.298667,0.5226676 0.149334,0.3920007 0.149334,0.7653348 -0.578668,0.2240004 -1.400003,0.7840014 -0.802668,0.560001 -1.642669,1.2880023 -0.840002,0.728001 -1.64267,1.549336 -0.784002,0.821335 -1.306669,1.549336 0.392001,0.168001 1.064002,0.168001 0.429334,0 0.877335,-0.07467 0.448001,-0.07467 0.858668,-0.205334 0.429334,-0.130667 0.784001,-0.298667 0.354668,-0.186667 0.597335,-0.392001 0.877335,0.560001 0.877335,1.64267 0,0.149333 -0.01867,0.242667 0,0.09333 -0.01867,0.224 -0.858668,0.541335 -1.86667,0.541335 -0.504001,0 -1.008002,-0.112001 -0.504001,-0.09333 -0.989335,-0.205333 -0.466667,-0.112001 -0.896001,-0.205334 -0.410668,-0.112 -0.765335,-0.112 -0.896002,0 -1.456003,0.840001 -0.242667,-0.09333 -0.410667,-0.336 -0.149334,-0.242667 -0.186667,-0.541335 z"
         id="path1" />
      <path
         d="m 27.701346,26.981386 q 0.186667,0 0.429334,0.07467 0.261334,0.056 0.466668,0.168001 0.205333,0.09333 0.336,0.205333 0.149334,0.112001 0.149334,0.205334 -0.373334,0.784002 -0.690668,1.58667 -0.317334,0.784001 -0.541334,1.512002 -0.224001,0.728002 -0.354668,1.36267 -0.112,0.634667 -0.112,1.101335 0,0.522667 0.112,0.877335 0.112001,0.336 0.373334,0.485334 -0.224,0.149334 -0.578667,0.242667 -0.354668,0.09333 -0.634668,0.09333 -1.008002,0 -1.008002,-1.381336 0,-1.064002 0.709335,-2.912006 -0.373334,0.858669 -0.858669,1.624003 -0.485334,0.746668 -0.989335,1.325336 -0.504001,0.578668 -1.026668,0.952002 -0.504001,0.354667 -0.933335,0.429334 -0.690668,-0.03733 -1.120002,-0.653335 -0.429334,-0.634667 -0.429334,-1.605336 0,-1.045335 0.448,-2.20267 0.448001,-1.157336 1.138669,-2.146671 0.709335,-0.989335 1.53067,-1.64267 0.821334,-0.672001 1.586669,-0.709334 0.186667,0.056 0.410668,0.224 0.242667,0.168 0.448,0.392001 0.224001,0.224 0.373334,0.466667 0.149334,0.224001 0.168001,0.392001 -0.746668,0.112 -1.549336,0.728001 -0.784002,0.616002 -1.437336,1.493336 -0.634668,0.858669 -1.045336,1.848004 -0.410667,0.989335 -0.410667,1.848003 0,0.354667 0.261334,0.448001 0.541334,-0.112 1.250669,-0.914668 0.709334,-0.821335 1.717336,-2.520005 0.186667,-0.336001 0.410668,-0.746668 0.242667,-0.410667 0.485334,-0.858668 0.242667,-0.448001 0.466667,-0.896002 0.242667,-0.466667 0.448001,-0.896001 z m 3.901339,7.672013 q 0.858668,-0.578667 1.680003,-1.474669 0.821335,-0.914668 1.493336,-1.960003 0.672001,-1.064002 1.138669,-2.202671 0.466667,-1.138669 0.634667,-2.184004 0,-0.224 -0.242667,-0.298667 -0.261334,0 -0.728001,0.466667 -0.448001,0.448001 -1.008002,1.157336 -0.541334,0.709334 -1.120002,1.586669 -0.560001,0.877335 -1.026668,1.75467 -0.466668,0.858668 -0.802669,1.624003 -0.317333,0.746668 -0.354667,1.213336 -0.186667,0 -0.317334,-0.373334 -0.03733,-0.09333 -0.130667,-0.186667 -0.09333,-0.112001 -0.298667,-0.261334 -0.09333,-0.07467 -0.186667,-0.168001 -0.09333,-0.112 -0.130667,-0.186667 -0.07467,-0.149333 -0.07467,-0.485334 0,-1.101335 0.280001,-2.482671 0.28,-1.381336 0.728001,-2.818672 0.466668,-1.437336 1.082669,-2.818671 0.616001,-1.400003 1.269336,-2.557338 0.672001,-1.157336 1.344002,-1.960004 0.672001,-0.802668 1.269336,-1.064002 0.186667,0.056 0.448,0.186667 0.261334,0.130667 0.522668,0.298667 0.261334,0.168001 0.485334,0.336001 0.242667,0.168 0.354668,0.298667 -2.053338,1.661337 -3.56534,4.274675 -1.493336,2.594671 -2.445338,6.141344 0.522668,-0.970668 1.176002,-1.86667 0.653335,-0.914668 1.288002,-1.605336 0.653335,-0.690668 1.232003,-1.101336 0.597334,-0.410667 0.989335,-0.410667 0.298667,0.07467 0.578667,0.261334 0.280001,0.186667 0.504001,0.466667 0.224001,0.261334 0.373334,0.578668 0.149334,0.298667 0.186667,0.634668 -0.01867,0.784001 -0.28,1.680003 -0.242667,0.877335 -0.672001,1.736003 -0.410668,0.858668 -0.952002,1.64267 -0.522668,0.784001 -1.120002,1.381335 -0.578668,0.578668 -1.176002,0.933335 -0.578668,0.354668 -1.101335,0.354668 -0.224001,0 -0.466668,-0.056 -0.224,-0.03733 -0.429334,-0.130667 -0.186667,-0.07467 -0.317334,-0.168001 -0.112,-0.09333 -0.112,-0.186667 z m 7.20535,-3.416006 q 0,-1.064002 0.429334,-2.053337 0.448001,-1.008002 1.157335,-1.773336 0.728002,-0.784002 1.64267,-1.250669 0.933335,-0.485334 1.92267,-0.485334 0.970668,0 1.493336,0.485334 0.522668,0.485334 0.522668,1.381336 0,0.429334 -0.130667,0.840001 -0.112,0.392001 -0.317334,0.709335 -0.186667,0.317334 -0.448001,0.522667 -0.261334,0.186667 -0.522668,0.186667 -0.224,0 -0.466667,-0.130667 -0.224001,-0.149333 -0.373334,-0.373334 1.250669,-1.138668 1.250669,-2.072003 0,-0.541335 -0.429334,-0.541335 -0.373334,0 -0.933335,0.354668 -0.560001,0.354667 -1.082669,0.933335 -0.802668,0.896001 -1.232002,1.997337 -0.410668,1.082668 -0.410668,2.277337 0,1.512003 0.672002,1.81067 0.28,-0.03733 0.653334,-0.168 0.373334,-0.130667 0.802668,-0.336001 0.429334,-0.224 0.877335,-0.504001 0.466668,-0.28 0.896002,-0.597334 0.07467,0.056 0.130667,0.168 0.056,0.112 0.056,0.205334 -0.317334,0.392001 -0.728002,0.765335 -0.410667,0.373334 -0.858668,0.690667 -0.448001,0.298668 -0.877335,0.504001 -0.410667,0.224001 -0.728001,0.280001 -0.616001,-0.056 -1.157335,-0.392001 -0.541335,-0.317334 -0.952002,-0.840001 -0.392001,-0.522668 -0.634668,-1.194669 -0.224,-0.672001 -0.224,-1.400003 z m 11.797356,-5.43201 q 0.373334,0 0.858668,0.224001 0.485334,0.224 0.858668,0.578668 -0.09333,-0.746668 -0.242667,-1.400003 -0.130667,-0.672001 -0.410668,-1.381336 -0.261333,-0.709334 -0.709334,-1.549336 -0.448001,-0.840001 -1.120002,-1.92267 0.056,-0.168 0.242667,-0.392001 0.205334,-0.224 0.448001,-0.410667 0.261334,-0.205334 0.522667,-0.354667 0.280001,-0.149334 0.522668,-0.186667 0.522668,0.578667 0.989335,1.456002 0.466668,0.858668 0.821335,1.86667 0.354667,0.989335 0.541334,2.053337 0.205334,1.064002 0.205334,2.034671 0,0.970668 -0.224,1.997337 -0.205334,1.026668 -0.597335,2.016003 -0.373334,0.970669 -0.877335,1.848004 -0.504001,0.877334 -1.101335,1.568002 -0.578668,0.690668 -1.213336,1.120002 -0.634667,0.448001 -1.269335,0.560001 -1.288003,-0.149333 -1.978671,-0.840001 -0.672001,-0.672001 -0.672001,-1.86667 0,-0.634668 0.186667,-1.381336 0.205334,-0.746668 0.522668,-1.474669 0.336,-0.746668 0.765335,-1.437336 0.448,-0.709335 0.933335,-1.269336 0.504001,-0.560001 1.008001,-0.952002 0.504001,-0.392 0.989336,-0.504001 z m -1.904004,8.978683 q 0.653335,-0.224 1.306669,-0.989335 0.653335,-0.765334 1.176002,-1.792003 0.522668,-1.045335 0.840002,-2.221337 0.336,-1.194669 0.336,-2.296004 0,-0.317334 0,-0.392001 0,-0.07467 -0.01867,-0.149334 -0.448001,0.186667 -0.952002,0.634668 -0.504001,0.448001 -1.008002,1.045335 -0.504001,0.578668 -0.952002,1.269336 -0.448,0.690668 -0.802668,1.381336 -0.354667,0.690668 -0.560001,1.325335 -0.205333,0.634668 -0.205333,1.120002 0,0.933335 0.840001,1.064002 z"
         id="path2" />
      <path
         d="m 26.43201,53.1521 q 0.616002,0 0.952002,0.317334 0.354667,0.298668 0.354667,0.840002 0,0.149334 -0.03733,0.298667 -0.01867,0.168 -0.056,0.280001 -0.242667,-0.03733 -0.541334,-0.07467 -0.298668,-0.01867 -0.709335,-0.01867 -0.560001,0 -1.157335,0.07467 -0.578668,0.07467 -1.138669,0.149334 -0.560001,0.09333 -1.082669,0.168 -0.522667,0.07467 -0.970668,0.07467 -0.728001,0 -1.250669,-0.280001 -0.522668,-0.28 -0.709335,-0.765335 0.07467,-0.07467 0.354668,-0.149333 0.298667,-0.09333 0.709334,-0.186667 0.429334,-0.112 0.952002,-0.205334 0.541334,-0.09333 1.101335,-0.186667 0.261334,-1.120002 0.578668,-2.296004 0.336001,-1.194669 0.672001,-2.370671 0.354668,-1.194669 0.728002,-2.352004 0.373334,-1.157336 0.746668,-2.240004 -0.634668,0.298667 -1.325336,0.802668 -0.672001,0.485334 -1.157336,0.914668 -0.205333,-0.112 -0.205333,-0.504001 0.690668,-0.933335 1.400002,-1.661336 0.709335,-0.728001 1.568003,-1.549336 0.205334,-0.205334 0.485334,-0.578668 0.298667,-0.373334 0.504001,-0.746668 0.261334,0.07467 0.653335,0.168 0.392,0.07467 0.765334,0.205334 0.392001,0.112 0.690668,0.280001 0.317334,0.168 0.429334,0.392 -0.242667,0.205334 -0.448,0.429334 -0.186667,0.224001 -0.336001,0.485335 -0.373334,0.672001 -0.877335,1.885336 -0.485334,1.194669 -1.008002,2.632005 -0.504001,1.418669 -1.026668,2.968005 -0.504001,1.53067 -0.914669,2.874672 0.392001,-0.03733 0.709335,-0.056 0.336001,-0.01867 0.597334,-0.01867 z m 13.234685,-9.072016 q 0,0.896002 -0.410667,1.736003 -0.392001,0.840002 -1.101335,1.680003 -0.709335,0.840002 -1.69867,1.736003 -0.970668,0.877335 -2.109337,1.86667 -0.522668,0.448001 -0.896002,0.802669 -0.354667,0.354667 -0.616001,0.690667 -0.261334,0.317334 -0.466667,0.634668 -0.186667,0.298667 -0.354668,0.653335 1.493336,-0.09333 2.968006,-0.672001 1.493336,-0.578668 2.557338,-1.512003 0.07467,0.09333 0.186667,0.298667 0.112,0.186667 0.186667,0.448001 0.09333,0.242667 0.149333,0.541334 0.07467,0.280001 0.07467,0.560001 0,0.466668 -0.205334,0.802668 -0.186667,0.205334 -0.541334,0.317334 -0.336001,0.112 -0.802668,0.168001 -0.466668,0.056 -1.008002,0.07467 -0.541334,0.01867 -1.120002,0.01867 -0.560001,0 -1.120002,0.01867 -0.560001,0.03733 -1.082669,0.09333 -0.504001,0.07467 -0.952001,0.205334 -0.429334,0.130667 -0.728002,0.354667 -0.448,-0.205333 -0.821334,-0.616001 -0.354668,-0.392001 -0.504001,-0.858668 0.112,-0.541334 0.392,-1.008002 0.280001,-0.466667 0.746668,-0.970668 0.485335,-0.504001 1.194669,-1.082669 0.709335,-0.597334 1.680003,-1.400002 1.082669,-0.896002 1.960004,-1.680004 0.877335,-0.784001 1.474669,-1.493336 0.616001,-0.728001 0.933335,-1.418669 0.336001,-0.709334 0.336001,-1.437336 0,-0.914668 -0.466668,-1.437336 -0.466667,-0.522667 -1.232002,-0.522667 -0.541334,0 -1.045335,0.261334 -0.504001,0.242667 -0.896002,0.690667 -0.392001,0.429335 -0.634668,1.008002 -0.242667,0.560001 -0.242667,1.194669 0,0.466668 0.130667,0.840002 0.149334,0.354667 0.448001,0.728001 -0.261334,0.056 -0.485334,0.056 -0.448001,0 -0.821335,-0.149334 -0.373334,-0.149333 -0.653335,-0.410667 -0.261333,-0.261334 -0.410667,-0.616001 -0.149334,-0.354667 -0.149334,-0.784001 0,-0.709335 0.410668,-1.344003 0.410667,-0.653334 1.082668,-1.138669 0.672002,-0.485334 1.512003,-0.765334 0.858668,-0.298668 1.736003,-0.298668 0.765335,0 1.400003,0.224001 0.634668,0.224 1.082668,0.653334 0.448001,0.410668 0.690668,0.989335 0.242667,0.578668 0.242667,1.269336 z m 2.818658,-1.941337 q 0.28,-0.186667 0.765335,-0.354667 0.485334,-0.186667 1.045335,-0.317334 0.560001,-0.130667 1.120002,-0.205334 0.578667,-0.07467 1.026668,-0.07467 0.765335,0 1.306669,0.224 0.541335,0.205334 0.877335,0.560001 0.336001,0.336001 0.485334,0.765335 0.149334,0.429334 0.149334,0.877335 0,0.466667 -0.186667,0.989335 -0.168,0.522667 -0.504001,1.045335 -0.336,0.522668 -0.821335,1.026668 -0.466667,0.485335 -1.045335,0.877335 1.232002,0.149334 1.792003,0.746668 0.560001,0.597335 0.560001,1.605337 0,0.952001 -0.354667,1.717336 -0.354667,0.746668 -0.970668,1.344002 -0.597335,0.578668 -1.381336,1.008002 -0.784002,0.410668 -1.661337,0.672002 -0.858668,0.28 -1.754669,0.392 -0.896002,0.130667 -1.69867,0.130667 -0.690668,-0.149333 -1.045335,-0.728001 -0.354668,-0.578668 -0.354668,-1.418669 0,-0.056 0,-0.112001 0.01867,-0.056 0.01867,-0.130667 0.578668,0.186667 1.493336,0.186667 0.952002,0 2.053337,-0.224 1.101335,-0.224 2.03467,-0.653334 0.933336,-0.429335 1.549337,-1.064002 0.616001,-0.634668 0.616001,-1.47467 0,-0.616001 -0.410668,-1.008001 -0.392,-0.410668 -1.250669,-0.522668 -0.560001,0.336 -1.082668,0.485334 -0.504001,0.130667 -0.765335,0.130667 -0.429334,0 -0.728001,-0.373334 -0.298667,-0.373334 -0.298667,-1.138669 0.840001,0 1.773336,-0.186667 0.952002,-0.186667 1.736003,-0.634668 0.784002,-0.466667 1.306669,-1.213335 0.541335,-0.765335 0.578668,-1.92267 -0.09333,-0.373334 -0.448001,-0.541335 -0.336,-0.168 -0.821335,-0.168 -0.448,0 -0.989335,0.130667 -0.522667,0.130667 -1.064002,0.373334 -0.522667,0.224 -1.026668,0.560001 -0.485334,0.317334 -0.840002,0.690668 -0.373334,-0.224 -0.597334,-0.672001 -0.205334,-0.466668 -0.205334,-1.064002 0,-0.09333 0,-0.168 0,-0.07467 0.01867,-0.168001 z"
         id="path3" />
    </g>
    <rect
       style="fill:none;fill-rule:evenodd;stroke:#094bac;stroke-width:0.999997;stroke-linecap:round;stroke-linejoin:miter;stroke-miterlimit:1.7;stroke-dasharray:none"
       id="rect2"
       width="45"
       height="53.5"
       x="16.5"
       y="3.5" />
    <rect
       style="fill:#ffffff;fill-rule:evenodd;stroke:#094bac;stroke-width:1;stroke-linecap:round;stroke-linejoin:miter;stroke-miterlimit:1.7;stroke-dasharray:none"
       id="rect3"
       width="4"
       height="3.9999998"
       x="14.5"
       y="1.4999999" />
    <rect
       style="fill:#ffffff;fill-rule:evenodd;stroke:#094bac;stroke-width:1;stroke-linecap:round;stroke-linejoin:miter;stroke-miterlimit:1.7;stroke-dasharray:none"
       id="rect4"
       width="4"
       height="3.9999998"
       x="59.5"
       y="1.4999999" />
    <rect
       style="fill:#ffffff;fill-rule:evenodd;stroke:#094bac;stroke-width:1;stroke-linecap:round;stroke-linejoin:miter;stroke-miterlimit:1.7;stroke-dasharray:none"
       id="rect5"
       width="4"
       height="3.9999998"
       x="14.5"
       y="54.5" />
    <rect
       style="fill:#ffffff;fill-rule:evenodd;stroke:#094bac;stroke-width:1;stroke-linecap:round;stroke-linejoin:miter;stroke-miterlimit:1.7;stroke-dasharray:none"
       id="rect6"
       width="4"
       height="3.9999998"
       x="59.5"
       y="54.5" />
  </g>
</svg>
