<?xml version="1.0" encoding="UTF-8" standalone="no"?>
<svg
   width="70"
   height="60"
   viewBox="0 0 70 60"
   version="1.1"
   id="svg1"
   sodipodi:docname="org.inkscape.text.sentence-case.svg"
   inkscape:version="1.4-dev (e93d6aa925, 2023-06-29, custom)"
   xmlns:inkscape="http://www.inkscape.org/namespaces/inkscape"
   xmlns:sodipodi="http://sodipodi.sourceforge.net/DTD/sodipodi-0.dtd"
   xmlns:xlink="http://www.w3.org/1999/xlink"
   xmlns="http://www.w3.org/2000/svg"
   xmlns:svg="http://www.w3.org/2000/svg">
  <sodipodi:namedview
     id="namedview1"
     pagecolor="#ffffff"
     bordercolor="#000000"
     borderopacity="0.25"
     inkscape:showpageshadow="2"
     inkscape:pageopacity="0.0"
     inkscape:pagecheckerboard="0"
     inkscape:deskcolor="#d1d1d1"
     inkscape:zoom="3.9333333"
     inkscape:cx="21.355932"
     inkscape:cy="36.61017"
     inkscape:current-layer="layer1" />
  <defs
     id="defs1" />
  <g
     inkscape:label="org.inkscape.text.sentence-case"
     inkscape:groupmode="layer"
     id="layer1">
    <image
       preserveAspectRatio="none"
       inkscape:svg-dpi="192"
       width="70"
       height="60"
       xlink:href="_notepad-page-icon.svg"
       id="image1"
       x="0"
       y="0"
       sodipodi:insensitive="true" />
    <g
       id="text3"
       style="font-size:18.6667px;line-height:1.07;font-family:'Kaushan Script';-inkscape-font-specification:'Kaushan Script, Normal';font-variant-ligatures:none;stroke-linecap:square;stroke-linejoin:round;stroke-miterlimit:10"
       aria-label="Abcd&#10;wxyz.">
      <path
         d="m 19.176003,26.22227 q -0.896002,-0.261334 -1.250669,-0.522668 -0.336001,-0.261334 -0.336001,-0.653335 0,-0.298667 0.168001,-0.840001 0.168,-0.541334 0.485334,-1.269336 0.336,-0.746668 0.784001,-1.642669 0.466668,-0.896002 1.045335,-1.92267 -0.485334,-0.01867 -0.877335,-0.01867 -0.373334,-0.01867 -0.616001,-0.01867 0.112001,-0.28 0.634668,-0.485334 0.522668,-0.205334 1.381336,-0.354667 0.728001,-1.213336 1.549336,-2.314671 0.840002,-1.101336 1.680003,-2.016004 0.840002,-0.933335 1.680003,-1.624003 0.840002,-0.709334 1.605336,-1.120002 0.01867,-0.130667 0.01867,-0.224 0.01867,-0.09333 0.01867,-0.130667 0.261334,0 0.690668,0.130667 0.448001,0.130667 0.858668,0.317334 0.429334,0.186667 0.746668,0.392 0.336001,0.186667 0.373334,0.317334 -0.616001,1.082669 -1.213336,3.248006 -0.597334,2.146671 -0.989335,5.152009 -0.09333,0.746668 -0.168,1.69867 -0.056,0.952002 -0.056,2.128004 0,0.410667 0,0.840002 0,0.429334 0.03733,0.896001 -0.03733,0.01867 -0.07467,0.01867 -0.03733,0 -0.149334,0 -0.261334,0 -0.616001,-0.09333 -0.336001,-0.07467 -0.672001,-0.205333 -0.317334,-0.112001 -0.560001,-0.261334 -0.224001,-0.149334 -0.280001,-0.261334 -0.01867,-0.242667 -0.01867,-0.485334 0,-0.224001 0,-0.485334 0,-1.157336 0.07467,-2.352005 0.09333,-1.194668 0.298667,-2.464004 -0.261333,-0.01867 -0.690668,-0.03733 -0.429334,-0.03733 -0.970668,-0.056 -0.522668,-0.01867 -1.138669,-0.03733 -0.597334,-0.03733 -1.176002,-0.056 -0.448001,0.840001 -0.840001,1.680003 -0.392001,0.821335 -0.672002,1.661336 -0.317333,0.896002 -0.522667,1.792004 -0.186667,0.896001 -0.242667,1.680003 z m 7.205346,-11.218687 q 0.07467,-0.261334 0.168,-0.709335 0.112001,-0.466668 0.205334,-0.970668 -0.466667,0.168 -1.045335,0.616001 -0.560001,0.448001 -1.176002,1.120002 -0.597335,0.653334 -1.232002,1.493336 -0.616002,0.821335 -1.194669,1.75467 1.568003,-0.130667 3.565339,-0.168001 0.149334,-0.784001 0.317334,-1.549336 0.186667,-0.784001 0.392001,-1.586669 z m 4.946672,9.930684 q 0.858668,-0.578667 1.680003,-1.474669 0.821335,-0.914668 1.493336,-1.960004 0.672001,-1.064002 1.138669,-2.20267 0.466667,-1.138669 0.634667,-2.184004 0,-0.224001 -0.242667,-0.298667 -0.261333,0 -0.728001,0.466667 -0.448001,0.448001 -1.008002,1.157335 -0.541334,0.709335 -1.120002,1.58667 -0.560001,0.877335 -1.026668,1.75467 -0.466668,0.858668 -0.802668,1.624003 -0.317334,0.746668 -0.354668,1.213335 -0.186667,0 -0.317334,-0.373334 -0.03733,-0.09333 -0.130667,-0.186667 -0.09333,-0.112 -0.298667,-0.261334 -0.09333,-0.07467 -0.186667,-0.168 -0.09333,-0.112 -0.130667,-0.186667 -0.07467,-0.149333 -0.07467,-0.485334 0,-1.101335 0.28,-2.482671 0.280001,-1.381336 0.728001,-2.818672 0.466668,-1.437336 1.082669,-2.818672 0.616001,-1.400002 1.269336,-2.557338 0.672001,-1.157335 1.344002,-1.960003 0.672001,-0.8026683 1.269336,-1.0640021 0.186667,0.056 0.448,0.186667 0.261334,0.1306669 0.522668,0.2986672 0.261334,0.1680003 0.485334,0.3360009 0.242667,0.168 0.354668,0.298667 -2.053337,1.661336 -3.56534,4.274674 -1.493336,2.594672 -2.445338,6.141345 0.522668,-0.970669 1.176002,-1.86667 0.653335,-0.914669 1.288003,-1.605337 0.653334,-0.690667 1.232002,-1.101335 0.597334,-0.410667 0.989335,-0.410667 0.298667,0.07467 0.578668,0.261334 0.28,0.186667 0.504,0.466667 0.224001,0.261334 0.373334,0.578668 0.149334,0.298667 0.186667,0.634668 -0.01867,0.784001 -0.28,1.680003 -0.242667,0.877335 -0.672001,1.736003 -0.410668,0.858668 -0.952002,1.642669 -0.522668,0.784002 -1.120002,1.381336 -0.578668,0.578668 -1.176002,0.933335 -0.578668,0.354668 -1.101335,0.354668 -0.224001,0 -0.466668,-0.056 -0.224,-0.03733 -0.429334,-0.130666 -0.186667,-0.07467 -0.317334,-0.168001 -0.112,-0.09333 -0.112,-0.186667 z m 7.205348,-3.416006 q 0,-1.064002 0.429334,-2.053337 0.448001,-1.008002 1.157335,-1.773337 0.728002,-0.784001 1.64267,-1.250668 0.933335,-0.485335 1.92267,-0.485335 0.970669,0 1.493336,0.485335 0.522668,0.485334 0.522668,1.381335 0,0.429334 -0.130667,0.840002 -0.112,0.392001 -0.317334,0.709335 -0.186667,0.317333 -0.448001,0.522667 -0.261334,0.186667 -0.522667,0.186667 -0.224001,0 -0.466668,-0.130667 -0.224,-0.149333 -0.373334,-0.373334 1.250669,-1.138669 1.250669,-2.072004 0,-0.541334 -0.429334,-0.541334 -0.373334,0 -0.933335,0.354667 -0.560001,0.354668 -1.082669,0.933335 -0.802668,0.896002 -1.232002,1.997337 -0.410667,1.082669 -0.410667,2.277338 0,1.512003 0.672001,1.81067 0.28,-0.03733 0.653334,-0.168001 0.373334,-0.130666 0.802668,-0.336 0.429335,-0.224001 0.877335,-0.504001 0.466668,-0.280001 0.896002,-0.597334 0.07467,0.056 0.130667,0.168 0.056,0.112 0.056,0.205334 -0.317334,0.392 -0.728001,0.765334 -0.410668,0.373334 -0.858669,0.690668 -0.448,0.298667 -0.877334,0.504001 -0.410668,0.224001 -0.728002,0.280001 -0.616001,-0.056 -1.157335,-0.392001 -0.541335,-0.317334 -0.952002,-0.840002 -0.392001,-0.522667 -0.634668,-1.194668 -0.224,-0.672002 -0.224,-1.400003 z m 11.797356,-5.43201 q 0.373334,0 0.858668,0.224001 0.485334,0.224 0.858668,0.578667 -0.09333,-0.746668 -0.242667,-1.400002 -0.130667,-0.672001 -0.410667,-1.381336 -0.261334,-0.709335 -0.709335,-1.549336 -0.448001,-0.840002 -1.120002,-1.92267 0.056,-0.168001 0.242667,-0.392001 0.205334,-0.224 0.448001,-0.4106674 0.261334,-0.2053337 0.522668,-0.3546673 0.28,-0.1493336 0.522667,-0.186667 0.522668,0.5786677 0.989335,1.4560027 0.466668,0.858668 0.821335,1.86667 0.354667,0.989335 0.541334,2.053337 0.205334,1.064002 0.205334,2.03467 0,0.970669 -0.224,1.997337 -0.205334,1.026669 -0.597335,2.016004 -0.373334,0.970668 -0.877335,1.848003 -0.504001,0.877335 -1.101335,1.568003 -0.578668,0.690668 -1.213335,1.120002 -0.634668,0.448001 -1.269336,0.560001 -1.288002,-0.149333 -1.97867,-0.840001 -0.672002,-0.672002 -0.672002,-1.86667 0,-0.634668 0.186667,-1.381336 0.205334,-0.746668 0.522668,-1.47467 0.336001,-0.746668 0.765335,-1.437336 0.448001,-0.709334 0.933335,-1.269335 0.504001,-0.560001 1.008002,-0.952002 0.504001,-0.392001 0.989335,-0.504001 z m -1.904004,8.978683 q 0.653335,-0.224 1.306669,-0.989335 0.653335,-0.765335 1.176002,-1.792003 0.522668,-1.045335 0.840002,-2.221338 0.336001,-1.194668 0.336001,-2.296004 0,-0.317334 0,-0.392 0,-0.07467 -0.01867,-0.149334 -0.448001,0.186667 -0.952002,0.634668 -0.504001,0.448001 -1.008002,1.045335 -0.504001,0.578668 -0.952001,1.269336 -0.448001,0.690668 -0.802669,1.381335 -0.354667,0.690668 -0.560001,1.325336 -0.205333,0.634668 -0.205333,1.120002 0,0.933335 0.840001,1.064002 z"
         id="path1" />
      <path
         d="m 18.429335,44.011636 q 0,-0.373334 0.07467,-1.045335 0.09333,-0.672001 0.224,-1.456003 0.149334,-0.784001 0.317334,-1.605336 0.186667,-0.821335 0.373334,-1.474669 0.242667,-0.877335 0.746668,-1.344003 0.522668,-0.485334 1.288002,-0.485334 0.410668,0 0.802668,0.130667 0.410668,0.130667 0.485335,0.336 -0.541335,0.448001 -0.877335,1.120002 -0.317334,0.653335 -0.522668,1.41867 -0.186667,0.746668 -0.298667,1.549336 -0.09333,0.784001 -0.205334,1.474669 0.616001,-0.821335 1.157336,-1.474669 0.560001,-0.672001 0.989335,-1.064002 0.578667,-0.541334 0.784001,-0.896002 0.205334,-0.373334 0.354667,-0.802668 0.112001,-0.336 0.261334,-0.784001 0.168,-0.448001 0.541334,-0.821335 0.07467,-0.01867 0.317334,-0.01867 0.186667,0 0.392001,0.01867 0.224001,0.01867 0.410668,0.07467 0.186667,0.056 0.317333,0.130667 0.130667,0.07467 0.149334,0.186667 -0.298667,0.392 -0.560001,1.232002 -0.261334,0.821335 -0.466668,1.81067 -0.205333,0.989335 -0.373334,1.97867 -0.168,0.970668 -0.298667,1.64267 0.07467,-0.03733 0.336001,-0.298668 0.261334,-0.261333 0.578668,-0.653334 0.336,-0.392001 0.690668,-0.858668 0.373334,-0.466668 0.653334,-0.914669 0.354667,-0.541334 0.578668,-1.008001 0.242667,-0.485335 0.410667,-1.026669 0.186667,-0.541334 0.336001,-1.194669 0.149333,-0.672001 0.317334,-1.586669 0.112,-0.149334 0.485334,-0.242667 0.392001,-0.112001 0.709334,-0.112001 0.280001,0 0.410668,0.09333 -0.09333,1.045335 -0.354667,1.86667 -0.242668,0.821335 -0.672002,1.605336 -0.429334,0.765335 -1.064002,1.549336 -0.634667,0.765335 -1.493336,1.680003 -0.354667,0.373334 -0.784001,0.821335 -0.410667,0.448001 -0.821335,0.840002 -0.392001,0.373334 -0.746668,0.634667 -0.336,0.261334 -0.522667,0.261334 -0.429335,0 -0.709335,-0.336 -0.280001,-0.336001 -0.280001,-0.858669 0,-0.541334 0.03733,-0.933335 0.056,-0.410667 0.168,-0.858668 0.112,-0.410667 0.168,-0.690668 0.07467,-0.28 0.112001,-0.485334 0.056,-0.205334 0.07467,-0.354667 0.01867,-0.149334 0.03733,-0.298667 -0.149334,0.07467 -0.392001,0.317334 -0.242667,0.224 -0.504001,0.541334 -0.261334,0.298667 -0.522667,0.616001 -0.261334,0.317334 -0.429334,0.541334 -0.354668,0.485334 -0.616002,0.858668 -0.261333,0.373334 -0.504001,0.709335 -0.224,0.336001 -0.448,0.690668 -0.224001,0.336001 -0.522668,0.728001 -0.597334,-0.186667 -0.858668,-0.560001 -0.242667,-0.373334 -0.242667,-0.914668 z m 17.490702,0.653334 q -0.205333,0.317334 -0.653334,0.504001 -0.429334,0.205334 -0.821335,0.242667 -0.317334,-0.373334 -0.709334,-1.008001 -0.392001,-0.653335 -0.746668,-1.512003 -0.952002,0.858668 -1.904004,1.568003 -0.952002,0.690668 -1.773336,1.176002 -0.205334,-0.03733 -0.336001,-0.224001 -0.130667,-0.186667 -0.149334,-0.485334 0.373334,-0.205333 0.877335,-0.541334 0.522668,-0.336001 1.045335,-0.728001 0.541335,-0.410668 1.026669,-0.840002 0.504001,-0.448001 0.858668,-0.858668 -0.317334,-0.746668 -0.597334,-1.53067 -0.261334,-0.802668 -0.466668,-1.530669 -0.186667,-0.746668 -0.298667,-1.344002 -0.112,-0.616001 -0.112,-0.989335 0,-0.261334 0.056,-0.336001 0.07467,-0.09333 0.317334,-0.09333 0.186667,0 0.448001,0.03733 0.28,0.03733 0.560001,0.09333 0.28,0.056 0.560001,0.130667 0.28,0.056 0.485334,0.130667 -0.03733,0.205334 -0.03733,0.354667 0,0.149334 0,0.429335 0,0.728001 0.112,1.493336 0.130667,0.746668 0.410667,1.624002 0.765335,-0.877334 1.418669,-1.941336 0.653335,-1.082669 1.325336,-2.576005 0.466668,0.09333 0.802668,0.280001 0.336001,0.168 0.429334,0.373334 -0.205333,0.858668 -1.157335,2.165337 -0.952002,1.306669 -2.426671,2.781338 0.261334,0.709335 0.634668,1.512003 0.373334,0.784001 0.821334,1.642669 z m 9.072043,-2.781338 q -0.429334,1.362669 -0.858668,2.482671 -0.429334,1.120002 -0.914668,2.053337 -0.485334,0.952002 -1.045335,1.736003 -0.560001,0.802669 -1.232003,1.512003 -0.858668,0.896002 -1.773336,1.362669 -0.914668,0.485335 -1.829337,0.485335 -0.466667,0 -0.933335,-0.112001 -0.448001,-0.09333 -0.840001,-0.28 -0.410668,-0.168001 -0.709335,-0.410668 -0.317334,-0.224 -0.448001,-0.485334 0,-0.224 0.261334,-0.392001 0.224001,0.205334 0.373334,0.317334 0.149334,0.112001 0.298667,0.186667 0.130667,0.07467 0.298668,0.09333 0.149333,0.01867 0.354667,0.01867 1.064002,0 2.072004,-0.634668 1.026668,-0.616001 1.92267,-1.773337 0.914668,-1.138668 1.661336,-2.781338 0.746668,-1.624003 1.269336,-3.640007 -0.242667,0.373334 -0.597335,0.914669 -0.354667,0.541334 -0.784001,1.082668 -0.429334,0.522668 -0.896002,0.952002 -0.448001,0.429334 -0.877335,0.578668 -0.298667,-0.01867 -0.634667,-0.130667 -0.317334,-0.09333 -0.616002,-0.280001 -0.28,-0.186667 -0.504,-0.448001 -0.224001,-0.261333 -0.298668,-0.597334 0,-0.541334 0.03733,-0.858668 0.03733,-0.336001 0.130667,-0.728001 0.168,-0.709335 0.485334,-1.605337 0.336,-0.896001 0.765335,-1.75467 0.448,-0.877334 0.970668,-1.624002 0.541334,-0.765335 1.120002,-1.194669 0.149334,0 0.373334,0.03733 0.224,0.01867 0.466667,0.09333 0.242668,0.07467 0.466668,0.186667 0.224,0.09333 0.392001,0.261333 -0.205334,0.186667 -0.896002,1.250669 -0.690668,1.064002 -1.530669,3.061339 -0.09333,0.205334 -0.224001,0.597335 -0.130667,0.392 -0.261334,0.821334 -0.112,0.429335 -0.205333,0.840002 -0.09333,0.410667 -0.09333,0.653334 0,0.149334 0.03733,0.224001 0.056,0.07467 0.09333,0.112 0.336001,-0.056 0.896002,-0.541334 0.560001,-0.504001 1.269335,-1.549336 0.448001,-0.672002 0.821335,-1.325336 0.373334,-0.672001 0.728002,-1.344003 0.373334,-0.672001 0.765334,-1.381335 0.392001,-0.709335 0.840002,-1.456003 0.242667,0 0.522667,0.056 0.280001,0.056 0.541335,0.149334 0.261333,0.07467 0.448,0.186667 0.205334,0.09333 0.298668,0.205333 -0.578668,1.232003 -1.082669,2.408005 -0.504001,1.176002 -0.896002,2.408004 z m 1.437341,2.632005 q 0,-0.298667 0.522668,-0.952002 0.522667,-0.672001 1.381336,-1.512003 0.877334,-0.858668 1.997337,-1.792003 1.138668,-0.952002 2.352004,-1.829336 -0.784002,-0.168001 -1.250669,-0.242668 -0.448001,-0.07467 -0.728001,-0.07467 -0.541335,0 -0.970669,0.149333 -0.429334,0.149334 -0.840001,0.485334 -0.858669,-0.746668 -0.858669,-1.717336 0,-0.298667 0.01867,-0.354667 0.317334,-0.317334 0.746668,-0.485334 0.448001,-0.168001 0.933335,-0.168001 0.522668,0 1.064002,0.168001 0.541334,0.168 1.064002,0.373334 0.522668,0.186667 0.970668,0.354667 0.466668,0.168 0.821335,0.168 0.205334,0 0.448001,-0.056 0.261334,-0.056 0.429334,-0.149334 0.168,0.130667 0.298667,0.522668 0.149334,0.392001 0.149334,0.765335 -0.578668,0.224 -1.400003,0.784001 -0.802668,0.560001 -1.642669,1.288002 -0.840002,0.728002 -1.64267,1.549337 -0.784001,0.821334 -1.306669,1.549336 0.392001,0.168 1.064002,0.168 0.429334,0 0.877335,-0.07467 0.448001,-0.07467 0.858668,-0.205333 0.429334,-0.130667 0.784002,-0.298668 0.354667,-0.186667 0.597334,-0.392 0.877335,0.560001 0.877335,1.642669 0,0.149334 -0.01867,0.242667 0,0.09333 -0.01867,0.224001 -0.858668,0.541334 -1.86667,0.541334 -0.504,0 -1.008001,-0.112 -0.504001,-0.09333 -0.989335,-0.205334 -0.466668,-0.112 -0.896002,-0.205334 -0.410668,-0.112 -0.765335,-0.112 -0.896001,0 -1.456002,0.840002 -0.242668,-0.09333 -0.410668,-0.336001 -0.149333,-0.242667 -0.186667,-0.541334 z m 10.005353,0.970668 q -0.298667,-0.03733 -0.634668,-0.261334 -0.317334,-0.205333 -0.410667,-0.466667 0,-0.224 0.056,-0.578668 0.07467,-0.354667 0.168,-0.709334 0.09333,-0.373334 0.186667,-0.690668 0.09333,-0.336001 0.130667,-0.504001 0.224001,0 0.560001,0.112 0.354668,0.112 0.709335,0.317334 0.373334,0.186667 0.690668,0.448001 0.336,0.242667 0.504001,0.504001 -0.168001,0.373334 -0.429334,0.709334 -0.261334,0.336001 -0.560001,0.578668 -0.280001,0.261334 -0.541335,0.392001 -0.261334,0.149333 -0.429334,0.149333 z"
         id="path2" />
    </g>
  </g>
</svg>
