<?xml version="1.0" encoding="UTF-8" standalone="no"?><svg
   width="70"
   height="60"
   viewBox="0 0 70 60"
   version="1.1"
   id="svg1"
   sodipodi:docname="org.inkscape.render.wireframe-sphere.svg"
   inkscape:version="1.4-dev (de72ba3c18, 2023-06-27, custom)"
   xmlns:inkscape="http://www.inkscape.org/namespaces/inkscape"
   xmlns:sodipodi="http://sodipodi.sourceforge.net/DTD/sodipodi-0.dtd"
   xmlns="http://www.w3.org/2000/svg"
   xmlns:svg="http://www.w3.org/2000/svg">
  <sodipodi:namedview
     id="namedview1"
     pagecolor="#ffffff"
     bordercolor="#000000"
     borderopacity="0.25"
     inkscape:showpageshadow="2"
     inkscape:pageopacity="0.0"
     inkscape:pagecheckerboard="0"
     inkscape:deskcolor="#d1d1d1"
     showgrid="true"
     inkscape:zoom="3.9333333"
     inkscape:cx="-9.4067797"
     inkscape:cy="30"
     inkscape:current-layer="layer1">
    <inkscape:grid
       id="grid1"
       units="px"
       originx="0"
       originy="0"
       spacingx="1"
       spacingy="1"
       empcolor="#0099e5"
       empopacity="0.30196078"
       color="#3f84a6"
       opacity="0.14901961"
       empspacing="5"
       dotted="false"
       gridanglex="30"
       gridanglez="30"
       visible="true" />
  </sodipodi:namedview>
  <defs
     id="defs1" />
  <g
     inkscape:label="org.inkscape.render.wireframe-sphere"
     inkscape:groupmode="layer"
     id="layer1">
    <g
       inkscape:label="WireframeSphere"
       transform="matrix(0.25750005,0,0,0.25749936,35.00001,29.99994)"
       id="g3423"
       style="stroke-width:1.94175;stroke-dasharray:none">
      <g
         inkscape:label="Lines of Longitude"
         id="g3406"
         style="stroke-width:1.94175;stroke-dasharray:none">
        <path
           sodipodi:cx="0"
           sodipodi:cy="0"
           sodipodi:rx="5.715116"
           sodipodi:ry="100"
           sodipodi:type="arc"
           sodipodi:arc-type="arc"
           sodipodi:start="1.5707963"
           sodipodi:end="4.712389"
           sodipodi:open="true"
           d="M 0,100 A 5.715116,100 0 0 1 -4.9494356,50.000001 5.715116,100 0 0 1 -4.9494357,-50 5.715116,100 0 0 1 0,-100"
           style="fill:none;stroke:#000000;stroke-width:1.94175;stroke-dasharray:none"
           transform="rotate(2.29681)"
           id="path3395" />
        <path
           sodipodi:cx="0"
           sodipodi:cy="0"
           sodipodi:rx="26.669981"
           sodipodi:ry="100"
           sodipodi:type="arc"
           sodipodi:arc-type="arc"
           sodipodi:start="1.5707963"
           sodipodi:end="4.712389"
           sodipodi:open="true"
           d="M 0,100 A 26.669981,100 0 0 1 -23.096881,50.000001 26.669981,100 0 0 1 -23.096881,-50 26.669981,100 0 0 1 0,-100"
           style="fill:none;stroke:#000000;stroke-width:1.94175;stroke-dasharray:none"
           transform="rotate(11.172)"
           id="path3396" />
        <path
           sodipodi:cx="0"
           sodipodi:cy="0"
           sodipodi:rx="45.8074"
           sodipodi:ry="100"
           sodipodi:type="arc"
           sodipodi:arc-type="arc"
           sodipodi:start="1.5707963"
           sodipodi:end="4.712389"
           sodipodi:open="true"
           d="M 0,100 A 45.8074,100 0 0 1 -39.670372,50.000001 45.8074,100 0 0 1 -39.670372,-50 45.8074,100 0 0 1 0,-100"
           style="fill:none;stroke:#000000;stroke-width:1.94175;stroke-dasharray:none"
           transform="rotate(21.1506)"
           id="path3397" />
        <path
           sodipodi:cx="0"
           sodipodi:cy="0"
           sodipodi:rx="61.823189"
           sodipodi:ry="100"
           sodipodi:type="arc"
           sodipodi:arc-type="arc"
           sodipodi:start="1.5707963"
           sodipodi:end="4.712389"
           sodipodi:open="true"
           d="M 0,100 A 61.823189,100 0 0 1 -53.540452,50.000001 61.823189,100 0 0 1 -53.540452,-50 61.823189,100 0 0 1 0,-100"
           style="fill:none;stroke:#000000;stroke-width:1.94175;stroke-dasharray:none"
           transform="rotate(33.4178)"
           id="path3398" />
        <path
           sodipodi:cx="0"
           sodipodi:cy="0"
           sodipodi:rx="73.6259"
           sodipodi:ry="100"
           sodipodi:type="arc"
           sodipodi:arc-type="arc"
           sodipodi:start="1.5707963"
           sodipodi:end="4.712389"
           sodipodi:open="true"
           d="M 0,100 A 73.6259,100 0 0 1 -63.7619,50.000001 73.6259,100 0 0 1 -63.7619,-50 73.6259,100 0 0 1 0,-100"
           style="fill:none;stroke:#000000;stroke-width:1.94175;stroke-dasharray:none"
           transform="rotate(49.6243)"
           id="path3399" />
        <path
           sodipodi:cx="0"
           sodipodi:cy="0"
           sodipodi:rx="80.411194"
           sodipodi:ry="100"
           sodipodi:type="arc"
           sodipodi:arc-type="arc"
           sodipodi:start="1.5707963"
           sodipodi:end="4.712389"
           sodipodi:open="true"
           d="M 0,100 A 80.411194,100 0 0 1 -69.638136,50.000001 80.411194,100 0 0 1 -69.638136,-50 80.411194,100 0 0 1 0,-100"
           style="fill:none;stroke:#000000;stroke-width:1.94175;stroke-dasharray:none"
           transform="rotate(71.2789)"
           id="path3400" />
        <path
           sodipodi:cx="0"
           sodipodi:cy="0"
           sodipodi:rx="81.71666"
           sodipodi:ry="100"
           sodipodi:type="arc"
           sodipodi:arc-type="arc"
           sodipodi:start="4.712389"
           sodipodi:end="1.5707963"
           sodipodi:open="true"
           d="M 0,-100 A 81.71666,100 0 0 1 81.71666,0 81.71666,100 0 0 1 0,100"
           style="fill:none;stroke:#000000;stroke-width:1.94175;stroke-dasharray:none"
           transform="rotate(-83.0492)"
           id="path3401" />
        <path
           sodipodi:cx="0"
           sodipodi:cy="0"
           sodipodi:rx="77.453346"
           sodipodi:ry="100"
           sodipodi:type="arc"
           sodipodi:arc-type="arc"
           sodipodi:start="4.712389"
           sodipodi:end="1.5707963"
           sodipodi:open="true"
           d="M 0,-100 A 77.453346,100 0 0 1 77.453346,0 77.453346,100 0 0 1 0,100"
           style="fill:none;stroke:#000000;stroke-width:1.94175;stroke-dasharray:none"
           transform="rotate(-59.0229)"
           id="path3402" />
        <path
           sodipodi:cx="0"
           sodipodi:cy="0"
           sodipodi:rx="67.911781"
           sodipodi:ry="100"
           sodipodi:type="arc"
           sodipodi:arc-type="arc"
           sodipodi:start="4.712389"
           sodipodi:end="1.5707963"
           sodipodi:open="true"
           d="M 0,-100 A 67.911781,100 0 0 1 67.911781,0 67.911781,100 0 0 1 0,100"
           style="fill:none;stroke:#000000;stroke-width:1.94175;stroke-dasharray:none"
           transform="rotate(-40.3766)"
           id="path3403" />
        <path
           sodipodi:cx="0"
           sodipodi:cy="0"
           sodipodi:rx="53.74221"
           sodipodi:ry="100"
           sodipodi:type="arc"
           sodipodi:arc-type="arc"
           sodipodi:start="4.712389"
           sodipodi:end="1.5707963"
           sodipodi:open="true"
           d="M 0,-100 A 53.74221,100 0 0 1 53.74221,0 53.74221,100 0 0 1 0,100"
           style="fill:none;stroke:#000000;stroke-width:1.94175;stroke-dasharray:none"
           transform="rotate(-26.501)"
           id="path3404" />
        <path
           sodipodi:cx="0"
           sodipodi:cy="0"
           sodipodi:rx="35.910263"
           sodipodi:ry="100"
           sodipodi:type="arc"
           sodipodi:arc-type="arc"
           sodipodi:start="4.712389"
           sodipodi:end="1.5707963"
           sodipodi:open="true"
           d="M 0,-100 A 35.910263,100 0 0 1 35.910263,0 35.910263,100 0 0 1 0,100"
           style="fill:none;stroke:#000000;stroke-width:1.94175;stroke-dasharray:none"
           transform="rotate(-15.6291)"
           id="path3405" />
        <path
           sodipodi:cx="0"
           sodipodi:cy="0"
           sodipodi:rx="15.631158"
           sodipodi:ry="100"
           sodipodi:type="arc"
           sodipodi:arc-type="arc"
           sodipodi:start="4.712389"
           sodipodi:end="1.5707963"
           sodipodi:open="true"
           d="M 0,-100 A 15.631158,100 0 0 1 15.631158,0 15.631158,100 0 0 1 0,100"
           style="fill:none;stroke:#000000;stroke-width:1.94175;stroke-dasharray:none"
           transform="rotate(-6.36175)"
           id="path3406" />
      </g>
      <g
         inkscape:label="Lines of Latitude"
         id="g3422"
         style="stroke-width:1.94175;stroke-dasharray:none">
        <path
           sodipodi:cx="0"
           sodipodi:cy="66.27079"
           sodipodi:rx="58.778526"
           sodipodi:ry="33.714977"
           sodipodi:type="arc"
           sodipodi:arc-type="arc"
           sodipodi:start="1.3007292"
           sodipodi:end="1.8408634"
           sodipodi:open="true"
           d="m 15.681883,98.7637 a 58.778526,33.714977 0 0 1 -31.363763,10e-7"
           style="fill:none;stroke:#000000;stroke-width:1.94175;stroke-dasharray:none"
           id="path3407" />
        <path
           sodipodi:cx="0"
           sodipodi:cy="57.922798"
           sodipodi:rx="70.710678"
           sodipodi:ry="40.558979"
           sodipodi:type="arc"
           sodipodi:arc-type="arc"
           sodipodi:start="0.77568815"
           sodipodi:end="2.3659045"
           sodipodi:open="true"
           d="M 50.483136,86.322501 A 70.710678,40.558979 0 0 1 0,98.481777 70.710678,40.558979 0 0 1 -50.483136,86.322501"
           style="fill:none;stroke:#000000;stroke-width:1.94175;stroke-dasharray:none"
           id="path3408" />
        <path
           sodipodi:cx="0"
           sodipodi:cy="48.148548"
           sodipodi:rx="80.901703"
           sodipodi:ry="46.404308"
           sodipodi:type="arc"
           sodipodi:arc-type="arc"
           sodipodi:start="0.53370964"
           sodipodi:end="2.607883"
           sodipodi:open="true"
           d="M 69.650363,71.755838 A 80.901703,46.404308 0 0 1 0,94.552856 80.901703,46.404308 0 0 1 -69.650362,71.755838"
           style="fill:none;stroke:#000000;stroke-width:1.94175;stroke-dasharray:none"
           id="path3409" />
        <path
           sodipodi:cx="0"
           sodipodi:cy="37.188725"
           sodipodi:rx="89.100655"
           sodipodi:ry="51.107037"
           sodipodi:type="arc"
           sodipodi:arc-type="arc"
           sodipodi:start="0.36481188"
           sodipodi:end="2.7767808"
           sodipodi:open="true"
           d="M 83.23702,55.422364 A 89.100655,51.107037 0 0 1 0,88.295761 89.100655,51.107037 0 0 1 -83.237021,55.422363"
           style="fill:none;stroke:#000000;stroke-width:1.94175;stroke-dasharray:none"
           id="path3410" />
        <path
           sodipodi:cx="0"
           sodipodi:cy="25.31319"
           sodipodi:rx="95.105652"
           sodipodi:ry="54.551361"
           sodipodi:type="arc"
           sodipodi:arc-type="arc"
           sodipodi:start="0.22952111"
           sodipodi:end="2.9120715"
           sodipodi:open="true"
           d="M 92.61155,37.724237 A 95.105652,54.551361 0 0 1 0,79.864552 95.105652,54.551361 0 0 1 -92.611549,37.724239"
           style="fill:none;stroke:#000000;stroke-width:1.94175;stroke-dasharray:none"
           id="path3411" />
        <path
           sodipodi:cx="0"
           sodipodi:cy="12.814362"
           sodipodi:rx="98.768837"
           sodipodi:ry="56.652477"
           sodipodi:type="arc"
           sodipodi:arc-type="arc"
           sodipodi:start="0.11113058"
           sodipodi:end="3.0304621"
           sodipodi:open="true"
           d="M 98.159567,19.097233 A 98.768837,56.652477 0 0 1 0,69.466839 98.768837,56.652477 0 0 1 -98.159567,19.097232"
           style="fill:none;stroke:#000000;stroke-width:1.94175;stroke-dasharray:none"
           id="path3412" />
        <path
           sodipodi:cx="0"
           sodipodi:cy="5.0158598e-15"
           sodipodi:rx="100"
           sodipodi:ry="57.358643"
           sodipodi:type="arc"
           sodipodi:arc-type="arc"
           sodipodi:start="0"
           sodipodi:end="3.1415927"
           sodipodi:open="true"
           d="M 100,0 A 100,57.358643 0 0 1 49.999999,49.674042 100,57.358643 0 0 1 -50.000003,49.674041 100,57.358643 0 0 1 -100,0"
           style="fill:none;stroke:#000000;stroke-width:1.94175;stroke-dasharray:none"
           id="path3413" />
        <path
           sodipodi:cx="0"
           sodipodi:cy="-12.814362"
           sodipodi:rx="98.768837"
           sodipodi:ry="56.652477"
           sodipodi:type="arc"
           sodipodi:arc-type="arc"
           sodipodi:start="6.1720547"
           sodipodi:end="3.2527232"
           sodipodi:open="true"
           d="M 98.159566,-19.097235 A 98.768837,56.652477 0 0 1 52.518384,35.1654 a 98.768837,56.652477 0 0 1 -105.036763,2e-6 98.768837,56.652477 0 0 1 -45.641188,-54.262633"
           style="fill:none;stroke:#000000;stroke-width:1.94175;stroke-dasharray:none"
           id="path3414" />
        <path
           sodipodi:cx="0"
           sodipodi:cy="-25.31319"
           sodipodi:rx="95.105652"
           sodipodi:ry="54.551361"
           sodipodi:type="arc"
           sodipodi:arc-type="arc"
           sodipodi:start="6.0536642"
           sodipodi:end="3.3711138"
           sodipodi:open="true"
           d="m 92.61155,-37.724237 a 95.105652,54.551361 0 0 1 -38.902555,57.430969 95.105652,54.551361 0 0 1 -107.417993,-2e-6 95.105652,54.551361 0 0 1 -38.902551,-57.430969"
           style="fill:none;stroke:#000000;stroke-width:1.94175;stroke-dasharray:none"
           id="path3415" />
        <path
           sodipodi:cx="0"
           sodipodi:cy="-37.188725"
           sodipodi:rx="89.100655"
           sodipodi:ry="51.107037"
           sodipodi:type="arc"
           sodipodi:arc-type="arc"
           sodipodi:start="5.9183734"
           sodipodi:end="3.5064045"
           sodipodi:open="true"
           d="M 83.237019,-55.422365 A 89.100655,51.107037 0 0 1 53.58161,3.6446656 89.100655,51.107037 0 0 1 -53.581606,3.6446675 89.100655,51.107037 0 0 1 -83.237021,-55.422362"
           style="fill:none;stroke:#000000;stroke-width:1.94175;stroke-dasharray:none"
           id="path3416" />
        <path
           sodipodi:cx="0"
           sodipodi:cy="-48.148548"
           sodipodi:rx="80.901703"
           sodipodi:ry="46.404308"
           sodipodi:type="arc"
           sodipodi:arc-type="arc"
           sodipodi:start="5.7494757"
           sodipodi:end="3.6753023"
           sodipodi:open="true"
           d="m 69.650364,-71.755837 a 80.901703,46.404308 0 0 1 -17.439178,59.054321 80.901703,46.404308 0 0 1 -104.422375,-1e-6 80.901703,46.404308 0 0 1 -17.439173,-59.054321"
           style="fill:none;stroke:#000000;stroke-width:1.94175;stroke-dasharray:none"
           id="path3417" />
        <path
           sodipodi:cx="0"
           sodipodi:cy="-57.922798"
           sodipodi:rx="70.710678"
           sodipodi:ry="40.558979"
           sodipodi:type="arc"
           sodipodi:arc-type="arc"
           sodipodi:start="5.5074972"
           sodipodi:end="3.9172808"
           sodipodi:open="true"
           d="m 50.483138,-86.3225 a 70.710678,40.558979 0 0 1 -0.645235,57.171908 70.710678,40.558979 0 0 1 -99.675808,-2e-6 70.710678,40.558979 0 0 1 -0.645231,-57.171907"
           style="fill:none;stroke:#000000;stroke-width:1.94175;stroke-dasharray:none"
           id="path3418" />
        <path
           sodipodi:cx="0"
           sodipodi:cy="-66.27079"
           sodipodi:rx="58.778526"
           sodipodi:ry="33.714977"
           sodipodi:type="arc"
           sodipodi:arc-type="arc"
           sodipodi:start="4.9824561"
           sodipodi:end="4.4423219"
           sodipodi:open="true"
           d="M 15.681883,-98.7637 A 58.778526,33.714977 0 0 1 58.243454,-61.731959 58.778526,33.714977 0 0 1 0,-32.555813 a 58.778526,33.714977 0 0 1 -58.243455,-29.176148 58.778526,33.714977 0 0 1 42.561574,-37.03174"
           style="fill:none;stroke:#000000;stroke-width:1.94175;stroke-dasharray:none"
           id="path3419" />
        <ellipse
           style="fill:none;stroke:#000000;stroke-width:1.94175;stroke-dasharray:none"
           id="path3420"
           cx="0"
           cy="-72.986984"
           rx="45.399052"
           ry="26.040825" />
        <ellipse
           style="fill:none;stroke:#000000;stroke-width:1.94175;stroke-dasharray:none"
           id="path3421"
           cx="0"
           cy="-77.905991"
           rx="30.901699"
           ry="17.725487" />
        <ellipse
           style="fill:none;stroke:#000000;stroke-width:1.94175;stroke-dasharray:none"
           id="path3422"
           cx="0"
           cy="-80.906693"
           rx="15.643447"
           ry="8.973712" />
      </g>
      <circle
         style="fill:none;stroke:#000000;stroke-width:1.94175;stroke-dasharray:none"
         id="path3423"
         cx="0"
         cy="0"
         r="100" />
    </g>
  </g>
</svg>
