<?xml version="1.0" encoding="UTF-8" standalone="no"?><svg
   width="70"
   height="60"
   viewBox="0 0 70 60"
   version="1.1"
   id="svg1"
   sodipodi:docname="org.ekips.filter.turtle.lindenmayer.svg"
   inkscape:version="1.4-dev (de72ba3c18, 2023-06-27, custom)"
   xmlns:inkscape="http://www.inkscape.org/namespaces/inkscape"
   xmlns:sodipodi="http://sodipodi.sourceforge.net/DTD/sodipodi-0.dtd"
   xmlns="http://www.w3.org/2000/svg"
   xmlns:svg="http://www.w3.org/2000/svg">
  <sodipodi:namedview
     id="namedview1"
     pagecolor="#ffffff"
     bordercolor="#000000"
     borderopacity="0.25"
     inkscape:showpageshadow="2"
     inkscape:pageopacity="0.0"
     inkscape:pagecheckerboard="0"
     inkscape:deskcolor="#d1d1d1"
     showgrid="true"
     inkscape:zoom="4.5136983"
     inkscape:cx="53.171476"
     inkscape:cy="32.124433"
     inkscape:current-layer="layer1">
    <inkscape:grid
       id="grid1"
       units="px"
       originx="0"
       originy="0"
       spacingx="1"
       spacingy="1"
       empcolor="#0099e5"
       empopacity="0.30196078"
       color="#3f84a6"
       opacity="0.14901961"
       empspacing="5"
       dotted="false"
       gridanglex="30"
       gridanglez="30"
       visible="true" />
  </sodipodi:namedview>
  <defs
     id="defs1" />
  <g
     inkscape:label="org.ekips.filter.turtle.lindenmayer"
     inkscape:groupmode="layer"
     id="layer1">
    <path
       style="fill:none;fill-opacity:1;stroke:#000000;stroke-width:0.999998;stroke-linecap:butt;stroke-linejoin:miter;stroke-opacity:1"
       d="m 68.44174,54.615902 -5.56384,-2.083727 -5.56385,-2.083719 -3.43944,-4.83581 -4.69687,-3.633838 -5.52442,-2.18585 M 57.31405,50.448456 51.41953,49.70156 46.0307,47.200933 41.56293,43.290042 m 15.75112,7.158414 -5.52409,-2.18668 -5.52407,-2.186713 -2.84965,-5.203165 -4.09132,-4.301338 -5.22799,-2.82041 M 46.26589,46.075063 40.49032,44.67994 35.32219,41.751687 31.05453,37.624384 m 15.21136,8.450679 -2.56466,-5.348477 -2.56467,-5.348487 1.11329,-5.820721 -0.67083,-5.88945 -2.12119,-5.538098 m 1.67874,17.248271 -3.28055,-4.944387 -1.86651,-5.628403 0.17831,-5.923891 M 41.13657,35.378101 37.46525,30.714924 33.79393,26.051762 33.12715,20.161851 31.0308,14.614363 27.49895,9.845246 M 33.79393,26.051762 28.80685,22.82586 24.81931,18.428619 22.54226,12.952316 M 33.79393,26.051762 28.6831,23.024921 23.57231,19.998094 21.00717,14.649818 17.27024,10.038811 12.58127,6.394796 M 23.57231,19.998094 17.86714,18.338776 12.88956,15.09834 9.56351,10.184289 m 36.70241,35.890772 -5.76897,-1.422011 -5.76899,-1.422007 -4.1901,-4.205662 -5.23418,-2.808939 -5.83607,-1.115503 m 15.26036,8.13007 -5.92617,0.415697 -5.87399,-0.894344 -5.57901,-2.04287 m 17.37916,2.521533 -5.3341,-2.614936 -5.33411,-2.61493 -2.54221,-5.359129 -3.82926,-4.535061 -4.6703,-3.667782 m 11.04177,13.561972 -5.88461,-0.821462 -5.43033,-2.40948 -4.45058,-3.93032 M 24.05975,38.001159 20.28851,33.417996 16.51723,28.834848 15.45816,23.00205 12.6958,17.7523 8.64648,13.411592 M 16.51723,28.834848 11.45703,25.72447 7.32816,21.458987 4.43659,16.278853"
       id="path3433" />
  </g>
</svg>
