<?xml version="1.0" encoding="UTF-8" standalone="no"?>
<svg
   width="70"
   height="60"
   viewBox="0 0 70 60"
   version="1.1"
   id="svg1"
   sodipodi:docname="org.inkscape.filter.jitter-nodes.svg"
   inkscape:version="1.4-dev (f25ce46d5c, 2023-06-29)"
   xmlns:inkscape="http://www.inkscape.org/namespaces/inkscape"
   xmlns:sodipodi="http://sodipodi.sourceforge.net/DTD/sodipodi-0.dtd"
   xmlns="http://www.w3.org/2000/svg"
   xmlns:svg="http://www.w3.org/2000/svg">
  <sodipodi:namedview
     id="namedview1"
     pagecolor="#ffffff"
     bordercolor="#000000"
     borderopacity="0.25"
     inkscape:showpageshadow="2"
     inkscape:pageopacity="0.0"
     inkscape:pagecheckerboard="0"
     inkscape:deskcolor="#d1d1d1"
     inkscape:zoom="1"
     inkscape:cx="-31"
     inkscape:cy="18"
     inkscape:current-layer="layer1" />
  <defs
     id="defs1">
    <inkscape:path-effect
       effect="show_handles"
       id="path-effect1"
       is_visible="true"
       lpeversion="1"
       nodes="true"
       handles="false"
       original_path="true"
       show_center_node="false"
       original_d="false"
       scale_nodes_and_handles="4" />
  </defs>
  <g
     inkscape:label="org.inkscape.filter.jitter-nodes"
     inkscape:groupmode="layer"
     id="layer1">
    <path
       style="fill:none;fill-rule:evenodd;stroke:#000000;stroke-width:3.61005;stroke-linecap:butt;stroke-linejoin:round;stroke-miterlimit:1.7"
       d="m 68.1504,361.59 c 7.5085,-1.221 30.5443,-2.704 33.6076,-5.767 0.26,-0.26 16.57796,-14.90274 19.65696,-15.92874 4.95197,-1.65107 25.9916,23.35477 34.46804,20.52774 8.03,-2.676 8.764,-19.215 16.981,-21.269 5.492,-1.373 15.055,12.595 20.592,10.749 22.08643,-7.36091 25.34797,-7.01924 38.125,-9.628 17.83067,-3.64059 -5.50809,-2.73927 35.73126,-13.04243 3.21677,-0.9281 12.7692,22.26908 15.1452,21.67508 6.05,-1.512 9.42754,-21.03265 15.54654,-23.07265 6.999,-2.333 24.872,2.179 33.086,2.179 M 68.1504,351.37924 78.361163,361.59 68.1504,371.80076 57.939637,361.59 Z m 26.3875,-2.77634 h 14.4402 v 14.4402 H 94.5379 Z m 19.65696,-15.92874 h 14.4402 v 14.4402 h -14.4402 z m 34.46804,20.52774 h 14.4402 v 14.4402 h -14.4402 z m 16.981,-21.269 h 14.4402 v 14.4402 h -14.4402 z m 20.592,10.749 h 14.4402 v 14.4402 h -14.4402 z m 38.125,-9.628 h 14.4402 v 14.4402 h -14.4402 z m 35.73126,-13.04243 h 14.4402 v 14.4402 h -14.4402 z m 15.1452,21.67508 h 14.4402 v 14.4402 h -14.4402 z M 290.7839,318.6139 h 14.4402 v 14.4402 H 290.7839 Z M 331.09,317.80224 341.30076,328.013 331.09,338.22376 320.87924,328.013 Z"
       id="path1"
       inkscape:path-effect="#path-effect1"
       inkscape:original-d="m 68.1504,361.59 c 7.5085,-1.221 30.5443,-2.704 33.6076,-5.767 0.26,-0.26 16.57796,-14.90274 19.65696,-15.92874 4.95197,-1.65107 25.9916,23.35477 34.46804,20.52774 8.03,-2.676 8.764,-19.215 16.981,-21.269 5.492,-1.373 15.055,12.595 20.592,10.749 22.08643,-7.36091 25.34797,-7.01924 38.125,-9.628 17.83067,-3.64059 -5.50809,-2.73927 35.73126,-13.04243 3.21677,-0.9281 12.7692,22.26908 15.1452,21.67508 6.05,-1.512 9.42754,-21.03265 15.54654,-23.07265 6.999,-2.333 24.872,2.179 33.086,2.179"
       sodipodi:nodetypes="csccccscccc"
       transform="matrix(0.24144332,-0.138468,0.13854059,0.23835039,-60.828901,-23.508341)" />
  </g>
</svg>
