<?xml version="1.0" encoding="UTF-8" standalone="no"?>
<svg
   width="70"
   height="60"
   viewBox="0 0 70 60"
   version="1.1"
   id="svg1"
   sodipodi:docname="org.inkscape.effect.bluredge.svg"
   inkscape:version="1.4-dev (f25ce46d5c, 2023-06-29)"
   xmlns:inkscape="http://www.inkscape.org/namespaces/inkscape"
   xmlns:sodipodi="http://sodipodi.sourceforge.net/DTD/sodipodi-0.dtd"
   xmlns="http://www.w3.org/2000/svg"
   xmlns:svg="http://www.w3.org/2000/svg">
  <sodipodi:namedview
     id="namedview1"
     pagecolor="#ffffff"
     bordercolor="#000000"
     borderopacity="0.25"
     inkscape:showpageshadow="2"
     inkscape:pageopacity="0.0"
     inkscape:pagecheckerboard="0"
     inkscape:deskcolor="#d1d1d1"
     showgrid="false"
     inkscape:zoom="4.2056467"
     inkscape:cx="6.8954913"
     inkscape:cy="24.253107"
     inkscape:current-layer="g35">
    <inkscape:grid
       id="grid1"
       units="px"
       originx="0"
       originy="0"
       spacingx="1"
       spacingy="1"
       empcolor="#0099e5"
       empopacity="0.30196078"
       color="#3f84a6"
       opacity="0.14901961"
       empspacing="5"
       dotted="false"
       gridanglex="30"
       gridanglez="30"
       visible="false" />
  </sodipodi:namedview>
  <defs
     id="defs1" />
  <g
     inkscape:label="org.inkscape.effect.bluredge"
     inkscape:groupmode="layer"
     id="layer1">
    <g
       id="g35"
       transform="matrix(1.1732591,0,0,1.1732591,-155.41668,-210.93333)"
       style="stroke-width:0.852327">
      <path
         id="path35"
         style="opacity:0.2;fill:#000000;fill-rule:evenodd;stroke-width:1.10802;stroke-linecap:square;stroke-miterlimit:1.7"
         d="m 160.89844,198.94922 c -0.45443,0.67122 -0.90886,1.34245 -1.36328,2.01367 -1.44603,-0.16935 -2.89204,-0.33894 -4.33789,-0.50977 0.48704,1.56053 0.97402,3.12108 1.46093,4.68165 -1.03457,1.02401 -2.06912,2.04806 -3.10351,3.07226 1.52377,0.59158 3.04722,1.184 4.57031,1.77735 0.15535,1.44664 0.3108,2.89327 0.4668,4.33984 1.41289,-0.82203 2.82566,-1.64429 4.23828,-2.4668 1.22837,0.78082 2.45681,1.56155 3.68554,2.3418 0.23898,-1.61718 0.47792,-3.23437 0.7168,-4.85156 1.37563,-0.47337 2.75127,-0.94671 4.12696,-1.41993 -1.11531,-1.19455 -2.23118,-2.38858 -3.34766,-3.58203 0.48716,-1.37191 0.97451,-2.74375 1.46289,-4.11523 -1.62886,0.12819 -3.25777,0.25581 -4.88672,0.38281 -0.76775,-1.23662 -1.5357,-2.47313 -2.30469,-3.70898 -0.46159,0.68164 -0.92317,1.36328 -1.38476,2.04492 z" />
      <path
         id="path37"
         style="opacity:0.2;fill:#000000;fill-rule:evenodd;stroke-width:1.10802;stroke-linecap:square;stroke-miterlimit:1.7"
         d="m 159.57422,198.05273 c -0.41219,0.37199 -0.53655,1.37349 -1.21558,1.16188 -1.80748,-0.21465 -3.6154,-0.42554 -5.42309,-0.63844 0.63541,2.03516 1.26948,4.07074 1.90625,6.10547 -1.38759,1.37478 -2.77603,2.74871 -4.16407,4.12305 1.98698,0.77278 3.97386,1.54584 5.96094,2.31836 0.20936,1.94071 0.41798,3.88151 0.62695,5.82226 1.84245,-1.07161 3.68535,-2.14245 5.52735,-3.21484 1.6484,1.04758 3.29687,2.09505 4.94531,3.14258 0.3112,-2.11003 0.62292,-4.21998 0.9336,-6.33008 1.84671,-0.63438 3.69272,-1.2708 5.53906,-1.90625 -1.45508,-1.55729 -2.91049,-3.11427 -4.36524,-4.67188 0.65239,-1.84094 1.30725,-3.681 1.96094,-5.52148 -2.12435,0.16602 -4.24863,0.33287 -6.37305,0.49805 -1.03316,-1.65702 -2.06257,-3.31637 -3.09375,-4.97461 -0.92187,1.36198 -1.84375,2.72396 -2.76562,4.08593 z" />
      <path
         id="path39"
         style="opacity:0.2;fill:#000000;fill-rule:evenodd;stroke-width:1.10802;stroke-linecap:square;stroke-miterlimit:1.7"
         d="m 158.24805,197.15625 c -0.25412,0.72478 -1.08482,0.19347 -1.64972,0.24072 -1.97483,-0.23193 -3.94967,-0.46386 -5.9245,-0.6958 0.78304,2.50982 1.56743,5.01922 2.34961,7.5293 -1.74146,1.72338 -3.48169,3.448 -5.22266,5.17187 2.45044,0.95333 4.90156,1.90493 7.35156,2.85938 0.25956,2.43643 0.52377,4.87236 0.78516,7.30859 2.27281,-1.32222 4.54542,-2.64479 6.81836,-3.96679 2.07082,1.31094 4.13774,2.62804 6.20703,3.9414 0.38329,-2.60159 0.76798,-5.20297 1.15039,-7.80469 2.31735,-0.79668 4.63407,-1.59518 6.95117,-2.39257 -1.79491,-1.92124 -3.58992,-3.84238 -5.38476,-5.76368 0.81907,-2.31056 1.64221,-4.61969 2.46289,-6.92968 -2.62107,0.20608 -5.24236,0.40926 -7.86328,0.61718 -1.2949,-2.08164 -2.58845,-4.16412 -3.88282,-6.24609 -1.38281,2.04362 -2.76562,4.08724 -4.14843,6.13086 z" />
      <path
         id="path41"
         style="opacity:0.2;fill:#000000;fill-rule:evenodd;stroke-width:1.10802;stroke-linecap:square;stroke-miterlimit:1.7"
         d="m 161.76367,189.10742 c -1.52278,2.24935 -3.04557,4.4987 -4.56836,6.74805 -2.72074,-0.28099 -5.4311,-0.71738 -8.15851,-0.89851 -0.85669,-0.22612 -0.20115,0.86813 -0.16811,1.32941 0.77945,2.49699 1.55889,4.99398 2.33834,7.49097 -1.91634,1.95192 -3.94747,3.79901 -5.79005,5.81828 -0.70967,0.52787 0.55469,0.69863 0.93489,0.96038 2.43805,0.94813 4.8761,1.89626 7.31415,2.84439 0.33091,2.71496 0.5087,5.4542 0.938,8.15355 -0.0301,0.88506 0.89102,0.002 1.33303,-0.13252 2.26057,-1.31495 4.52113,-2.6299 6.7817,-3.94486 2.32993,1.43338 4.58269,3.00309 6.96222,4.34885 0.67401,0.575 0.55771,-0.694 0.72805,-1.12415 0.38189,-2.58857 0.76378,-5.17714 1.14567,-7.76571 2.57345,-0.92646 5.2036,-1.71138 7.74063,-2.72877 0.87103,-0.16659 -0.19643,-0.87039 -0.42592,-1.27168 -1.78589,-1.91131 -3.57179,-3.82262 -5.35768,-5.73393 0.88039,-2.59013 1.90935,-5.13567 2.69424,-7.75447 0.41002,-0.78265 -0.80359,-0.38749 -1.25895,-0.45841 -2.60734,0.20443 -5.21467,0.40885 -7.82201,0.61327 -1.47701,-2.30356 -2.8268,-4.69532 -4.38562,-6.94217 -0.36806,-0.81409 -0.58555,0.17162 -0.97571,0.44803 z" />
      <path
         id="path43"
         style="opacity:0.2;fill:#000000;fill-rule:evenodd;stroke-width:1.10802;stroke-linecap:square;stroke-miterlimit:1.7"
         d="m 160.4375,188.21094 c -1.34115,1.98112 -2.68229,3.96224 -4.02344,5.94336 -2.46525,-0.24252 -4.91764,-0.67752 -7.39169,-0.78851 -0.80498,-0.0132 -1.60996,-0.0264 -2.41495,-0.0396 0.35725,1.90728 0.76846,3.80065 1.419,5.63237 0.45408,1.45522 0.90817,2.91045 1.36225,4.36568 -1.72687,1.77677 -3.59621,3.42349 -5.22568,5.28915 -0.51202,0.62107 -1.02403,1.24213 -1.53604,1.86319 1.71396,0.91015 3.45068,1.76949 5.28849,2.4032 1.42076,0.55245 2.84153,1.1049 4.26229,1.65735 0.3124,2.45819 0.43325,4.94689 0.87661,7.38422 0.16678,0.78794 0.33356,1.57588 0.50035,2.36383 1.77977,-0.77317 3.53402,-1.59574 5.17512,-2.63746 1.31793,-0.76668 2.63586,-1.53336 3.95378,-2.30004 2.11618,1.28816 4.13742,2.74386 6.31848,3.91753 0.72001,0.36147 1.44003,0.72294 2.16004,1.08442 0.50611,-1.87372 0.95767,-3.75832 1.16649,-5.69131 0.2225,-1.5085 0.445,-3.01699 0.66749,-4.52549 2.32623,-0.85156 4.72477,-1.52332 7.00158,-2.49775 0.73124,-0.33799 1.46249,-0.67598 2.19374,-1.01397 -1.14922,-1.56339 -2.3411,-3.09079 -3.72203,-4.45865 -1.04057,-1.11404 -2.08115,-2.22809 -3.12172,-3.34213 0.78479,-2.34949 1.75509,-4.64344 2.41313,-7.0309 0.19172,-0.78201 0.38343,-1.56403 0.57515,-2.34605 -1.93895,-0.0773 -3.87635,-0.0985 -5.80689,0.12898 -1.51945,0.11912 -3.0389,0.23823 -4.55835,0.35735 -1.34836,-2.07964 -2.5374,-4.26988 -3.99475,-6.27386 -0.49198,-0.63723 -0.98397,-1.27446 -1.47595,-1.91169 -0.6875,0.82227 -1.375,1.64453 -2.0625,2.4668 z" />
      <path
         id="path45"
         style="opacity:0.2;fill:#000000;fill-rule:evenodd;stroke-width:1.10802;stroke-linecap:square;stroke-miterlimit:1.7"
         d="m 159.11328,187.31445 c -1.15885,1.71224 -2.31771,3.42448 -3.47656,5.13672 -2.70576,-0.28079 -5.39727,-0.77537 -8.12663,-0.70219 -0.95324,-0.0153 -1.90647,-0.0306 -2.8597,-0.0459 0.55476,2.55879 0.92661,5.1647 1.81906,7.63647 0.3676,1.17782 0.73521,2.35564 1.10282,3.53346 -1.90645,1.94023 -3.97038,3.73668 -5.61607,5.91499 -0.60649,0.73537 -1.21299,1.47073 -1.81948,2.2061 2.34667,1.16253 4.61611,2.49741 7.10533,3.34185 1.14978,0.44725 2.29957,0.8945 3.44936,1.34174 0.32855,2.69964 0.44664,5.43277 1.12378,8.07696 0.19702,0.93333 0.39404,1.86666 0.59106,2.8 2.37168,-1.11069 4.82984,-2.05386 7.0419,-3.47373 1.06611,-0.62009 2.13222,-1.24017 3.19833,-1.86026 2.31624,1.42669 4.52737,3.03892 7.01763,4.15842 0.8522,0.42767 1.7044,0.85533 2.55659,1.28299 0.61058,-2.54644 1.40644,-5.05597 1.67501,-7.67056 0.17995,-1.22114 0.35989,-2.44228 0.53984,-3.66343 2.55975,-0.92134 5.19942,-1.64394 7.62686,-2.89433 0.86527,-0.3998 1.73053,-0.79961 2.59579,-1.19941 -1.61023,-2.06451 -3.07599,-4.25098 -4.95298,-6.09029 -0.84184,-0.9009 -1.68369,-1.80179 -2.52553,-2.70268 0.8762,-2.57585 1.95737,-5.09029 2.49426,-7.76781 0.22718,-0.9257 0.45435,-1.85141 0.68152,-2.77712 -2.61872,-0.0294 -5.24269,-0.24847 -7.85174,0.0722 -1.23041,0.0964 -2.46082,0.19276 -3.69123,0.28914 -1.4673,-2.29065 -2.75832,-4.70362 -4.5175,-6.79175 -0.58206,-0.75431 -1.16412,-1.50862 -1.74617,-2.26294 -1.14518,1.37045 -2.29037,2.74089 -3.43555,4.11133 z" />
    </g>
  </g>
</svg>
