<?xml version="1.0" encoding="UTF-8" standalone="no"?><svg
   width="70"
   height="60"
   viewBox="0 0 70 60"
   version="1.1"
   id="svg1"
   sodipodi:docname="org.ekips.filter.turtle-rtree.svg"
   inkscape:version="1.4-dev (de72ba3c18, 2023-06-27, custom)"
   xmlns:inkscape="http://www.inkscape.org/namespaces/inkscape"
   xmlns:sodipodi="http://sodipodi.sourceforge.net/DTD/sodipodi-0.dtd"
   xmlns="http://www.w3.org/2000/svg"
   xmlns:svg="http://www.w3.org/2000/svg">
  <sodipodi:namedview
     id="namedview1"
     pagecolor="#ffffff"
     bordercolor="#000000"
     borderopacity="0.25"
     inkscape:showpageshadow="2"
     inkscape:pageopacity="0.0"
     inkscape:pagecheckerboard="0"
     inkscape:deskcolor="#d1d1d1"
     showgrid="true"
     inkscape:zoom="8.463013"
     inkscape:cx="56.481067"
     inkscape:cy="33.67595"
     inkscape:current-layer="layer1">
    <inkscape:grid
       id="grid1"
       units="px"
       originx="0"
       originy="0"
       spacingx="1"
       spacingy="1"
       empcolor="#0099e5"
       empopacity="0.30196078"
       color="#3f84a6"
       opacity="0.14901961"
       empspacing="5"
       dotted="false"
       gridanglex="30"
       gridanglez="30"
       visible="true" />
  </sodipodi:namedview>
  <defs
     id="defs1" />
  <g
     inkscape:label="org.ekips.filter.turtle-rtree"
     inkscape:groupmode="layer"
     id="layer1">
    <path
       d="M 39.127071,56.001437 V 40.398105 l 5.30411,-6.470236 5.386123,-2.76934 3.901915,-0.346849 2.622313,0.857642 1.401875,1.397647 0.147226,1.469927 -0.401623,0.874534 0.401623,-0.874534 0.877305,0.888903 -0.877305,-0.888903 -0.147226,-1.469927 1.307894,0.152968 0.979965,0.613713 0.830784,0.14044 -0.830784,-0.14044 -0.979965,-0.613713 -1.307894,-0.152968 -1.401875,-1.397647 2.149292,-0.360339 1.381971,0.643298 -1.381971,-0.643298 1.133367,-1.242093 1.051375,-0.404904 0.927383,0.255618 0.640535,0.550372 -0.640535,-0.550372 -0.927383,-0.255618 0.550432,-0.709288 -0.550432,0.709288 -1.051375,0.404904 0.295952,-1.412182 0.832595,-0.691071 0.17107,-0.874576 -0.17107,0.874576 -0.832595,0.691071 -0.211839,-1.130692 0.297494,-0.763742 -0.297494,0.763742 0.211839,1.130692 -0.295952,1.412182 -1.133367,1.242093 -2.149292,0.360339 -2.622313,-0.857642 2.192666,-1.85023 1.550146,-0.0179 1.048613,0.501802 0.555884,0.779136 0.717117,0.362966 -0.717117,-0.362966 -0.555884,-0.779136 0.771261,-0.151198 -0.771261,0.151198 -1.048613,-0.501802 0.88559,-0.414742 -0.88559,0.414742 -1.550146,0.0179 0.462306,-1.434402 0.594252,-0.586299 -0.594252,0.586299 -0.09144,-0.996624 0.09144,0.996624 -0.462306,1.434402 -2.192666,1.85023 -3.901915,0.346849 1.619083,-2.608656 1.714824,-0.785165 1.147632,0.147991 0.717852,0.639719 -0.717852,-0.639719 -1.147632,-0.147991 0.727523,-1.498251 0.848857,-0.399679 -0.848857,0.399679 -0.09931,-1.207366 0.09931,1.207366 -0.727523,1.498251 -1.714824,0.785165 -0.286611,-2.014152 0.673297,-1.334318 0.826346,-0.434003 -0.826346,0.434003 -0.189257,-1.171252 0.414896,-0.892876 -0.414896,0.892876 -0.7019,-0.66346 0.7019,0.66346 0.189257,1.171252 -0.673297,1.334318 -0.588956,-1.000679 0.0959,-0.975385 -0.361765,-0.788849 0.361765,0.788849 -0.0959,0.975385 -0.947587,-0.392324 0.947587,0.392324 0.588956,1.000679 0.286611,2.014152 -1.619083,2.608656 -5.386123,2.76934 0.731837,-6.337294 2.424068,-2.478002 2.687155,-0.972199 1.700288,0.259488 0.789479,0.816231 0.790626,0.351101 -0.790626,-0.351101 -0.789479,-0.816231 0.87835,-0.18965 -0.87835,0.18965 -1.700288,-0.259488 1.434067,-1.770099 1.462506,-0.743561 0.870384,-0.08752 -0.870384,0.08752 0.549015,-0.643133 -0.549015,0.643133 -1.462506,0.743561 -0.03186,-2.043305 0.506673,-1.072492 0.745906,-0.658112 -0.745906,0.658112 -0.506673,1.072492 -0.762892,-0.974103 -0.08679,-0.8519 0.08679,0.8519 0.762892,0.974103 0.03186,2.043305 -1.434067,1.770099 -2.687155,0.972199 0.621294,-1.670676 0.858838,-0.516327 -0.858838,0.516327 -0.08442,-0.945448 0.08442,0.945448 -0.621294,1.670676 -2.424068,2.478002 -1.921191,-4.18894 0.582171,-3.619802 1.40592,-2.003664 1.469974,-0.870283 1.526487,-0.146699 1.117033,0.476417 0.474874,0.623219 -0.474874,-0.623219 0.874015,-0.147919 -0.874015,0.147919 -1.117033,-0.476417 0.635279,-0.541651 -0.635279,0.541651 -1.526487,0.146699 0.682782,-1.002665 0.972755,-0.331683 -0.972755,0.331683 0.135464,-0.886772 -0.135464,0.886772 -0.682782,1.002665 -1.469974,0.870283 -0.06506,-1.805985 0.449292,-1.005934 0.67731,-0.528659 -0.67731,0.528659 -0.449292,1.005934 -0.80935,-1.379183 0.111692,-0.948272 -0.111692,0.948272 -0.9336,-0.689519 -0.214044,-0.822593 0.214044,0.822593 -0.994863,0.04552 -0.68751,0.425159 0.68751,-0.425159 0.994863,-0.04552 0.9336,0.689519 0.80935,1.379183 0.06506,1.805985 -1.40592,2.003664 -1.28647,-2.196438 0.278511,-1.713845 0.663665,-0.592662 -0.663665,0.592662 -0.249856,-1.0457 0.249856,1.0457 -0.278511,1.713845 -1.801129,-1.136474 -0.480926,-0.952462 0.215097,-0.928762 -0.224428,-0.823906 0.224428,0.823906 -0.215097,0.928762 0.480926,0.952462 -1.445075,0.157592 -0.960807,-0.54282 -0.370745,-0.698249 0.370745,0.698249 0.960807,0.54282 -0.793937,0.738056 -0.140036,0.76969 0.140036,-0.76969 0.793937,-0.738056 1.445075,-0.157592 1.801129,1.136474 1.28647,2.196438 -0.582171,3.619802 -3.295506,-2.513329 -1.512025,-3.264532 0.271745,-2.872426 0.983099,-2.062887 1.228374,-1.073661 1.016783,-0.225143 -1.016783,0.225143 0.616711,-1.274825 0.979014,-0.6985799 0.940883,0.045207 -0.940883,-0.045207 -0.979014,0.6985799 -0.616711,1.274825 -1.228374,1.073661 -0.05151,-1.607864 0.383169,-0.909561 -0.01769,-0.7851148 0.01769,0.7851148 -0.383169,0.909561 -0.489895,-0.667887 0.489895,0.667887 0.05151,1.607864 -0.983099,2.062887 -0.839361,-1.859561 0.08162,-1.272352 -0.635125,-0.879572 -0.01955,-0.8222839 0.01955,0.8222839 0.635125,0.879572 -0.08162,1.272352 -1.454912,-0.812704 -0.432885,-0.727277 0.432885,0.727277 -1.293235,0.144381 -0.957062,-0.382796 0.957062,0.382796 -0.700513,0.686044 -0.818496,0.229435 0.818496,-0.229435 0.700513,-0.686044 1.293235,-0.144381 1.454912,0.812704 0.839361,1.859561 -0.271745,2.872426 -1.981894,-1.291977 -0.74662,-1.814354 0.264381,-1.69747 0.586017,-0.844792 0.793058,-0.464448 -0.793058,0.464448 0.202881,-0.784308 -0.202881,0.784308 -0.586017,0.844792 -0.656094,-1.204045 0.08307,-1.04003 -0.08307,1.04003 -0.649856,-0.53741 0.649856,0.53741 0.656094,1.204045 -0.264381,1.69747 -1.14276,-1.023747 -0.460702,-1.273842 0.196042,-1.171004 0.612594,-0.843625 0.849012,-0.2779942 -0.849012,0.2779942 -0.612594,0.843625 -0.303266,-0.772308 0.303266,0.772308 -0.196042,1.171004 0.460702,1.273842 -0.734992,-0.291205 0.734992,0.291205 1.14276,1.023747 0.74662,1.814354 -1.842271,0.100654 -1.097925,-0.482355 -0.421786,-0.656725 0.421786,0.656725 -0.875722,0.220953 0.875722,-0.220953 1.097925,0.482355 -0.857122,0.769276 -0.416643,0.89987 -0.622804,0.53832 0.622804,-0.53832 0.416643,-0.89987 0.857122,-0.769276 1.842271,-0.100654 1.981894,1.291977 1.512025,3.264532 -2.646242,-0.37241 -1.667403,-1.343462 -0.904242,-1.507768 -0.105962,-1.259493 0.361642,-0.806983 -0.361642,0.806983 0.105962,1.259493 -1.348838,-0.660749 -0.594107,-0.749788 0.594107,0.749788 -1.304737,-0.04666 -0.700556,-0.513771 0.700556,0.513771 1.304737,0.04666 1.348838,0.660749 0.904242,1.507768 -1.596169,-0.01894 -0.774199,-0.571672 0.774199,0.571672 -0.809444,0.517972 0.809444,-0.517972 1.596169,0.01894 1.667403,1.343462 -1.252786,0.556113 -1.012955,0.04148 1.012955,-0.04148 -0.604421,0.695714 0.604421,-0.695714 1.252786,-0.556113 2.646242,0.37241 3.295506,2.513329 1.921191,4.18894 -0.731837,6.337294 -5.30411,6.470236 -5.54567,-8.324128 -0.413955,-6.453612 1.805733,-3.250102 2.923552,-1.240872 2.791834,0.35557 1.043337,1.020343 0.145726,1.15916 -0.145726,-1.15916 1.179454,0.181747 0.636965,0.540451 -0.636965,-0.540451 0.949614,-0.193757 -0.949614,0.193757 -1.179454,-0.181747 -1.043337,-1.020343 1.756781,-0.559972 1.165798,0.0962 0.753923,-0.282091 -0.753923,0.282091 -1.165798,-0.0962 0.71121,-1.041457 -0.71121,1.041457 -1.756781,0.559972 -2.791834,-0.35557 0.839247,-1.645787 1.099395,-0.944993 0.90986,-0.0601 -0.90986,0.0601 0.316622,-1.226835 0.597024,-0.757246 0.720448,-0.356873 -0.720448,0.356873 -0.597024,0.757246 -0.374996,-0.786956 0.374996,0.786956 -0.316622,1.226835 -1.099395,0.944993 -0.08782,-1.30951 -0.475473,-0.882873 0.100754,-0.89091 -0.100754,0.89091 0.475473,0.882873 0.08782,1.30951 -0.839247,1.645787 -2.923552,1.240872 -0.271145,-1.918835 0.848309,-1.44479 0.887255,-0.687067 0.387793,-0.859897 -0.387793,0.859897 -0.887255,0.687067 -0.05306,-1.100142 0.05306,1.100142 -0.848309,1.44479 -0.656,-0.972573 0.06765,-0.806879 -0.06765,0.806879 -0.897363,-0.314563 0.897363,0.314563 0.656,0.972573 0.271145,1.918835 -1.805733,3.250102 -3.414491,-4.296172 -0.583887,-4.746128 0.745699,-2.691941 1.528257,-1.223308 1.501918,-0.175395 1.129251,0.610599 0.53057,0.740942 -0.53057,-0.740942 0.984217,0.07583 0.713288,0.370952 -0.713288,-0.370952 0.821712,-0.255816 -0.821712,0.255816 -0.984217,-0.07583 -1.129251,-0.610599 -1.501918,0.175395 0.560839,-0.924934 0.698361,-0.420597 -0.698361,0.420597 -0.560839,0.924934 -1.528257,1.223308 -0.41623,-1.394927 0.162443,-0.995909 -0.162443,0.995909 -0.855819,-0.66974 -0.373392,-0.839103 0.373392,0.839103 0.855819,0.66974 0.41623,1.394927 -0.745699,2.691941 -2.020821,-3.067734 -0.0062,-2.069136 0.392003,-0.993572 -0.392003,0.993572 -0.454847,-1.009648 -0.622897,-0.6080327 0.622897,0.6080327 0.454847,1.009648 0.0062,2.069136 L 24.315905,11.953984 22.80631,9.7390599 22.77083,8.0952901 23.270076,6.8850893 24.120164,6.1713742 23.270076,6.8850893 22.975862,5.8058736 22.266214,5.2873226 22.975862,5.8058736 23.270076,6.8850893 22.77083,8.0952901 22.132354,7.0724016 21.984734,6.2837388 22.132354,7.0724016 21.319435,6.5472609 22.132354,7.0724016 22.77083,8.0952901 22.80631,9.7390599 20.602895,8.8728736 19.186197,7.3426995 18.977915,6.0711853 19.160458,5.175982 18.977915,6.0711853 18.509486,5.3257118 18.977915,6.0711853 19.186197,7.3426995 17.366891,6.9730093 16.616092,6.3906828 15.817965,6.2032153 16.616092,6.3906828 17.366891,6.9730093 15.923772,7.2830309 15.022043,7.0172123 14.418149,6.459434 l 0.603894,0.5577783 0.901729,0.2658186 -0.679731,0.845683 -0.844522,0.3113976 0.844522,-0.3113976 0.679731,-0.845683 1.443119,-0.3100216 1.819306,0.3696902 1.416698,1.5301741 -1.44313,0.051516 -0.838015,-0.4462414 0.838015,0.4462414 -1.103368,0.6681671 -0.874707,-0.090826 0.874707,0.090826 -0.373413,0.7674253 0.373413,-0.7674253 1.103368,-0.6681671 1.44313,-0.051516 2.203415,0.8661863 1.509595,2.2149241 -2.665855,-0.149047 -1.215557,-0.717233 -0.393099,-1.075698 0.279432,-0.7896248 -0.279432,0.7896248 -0.620776,-0.6388501 -0.751854,-0.2698324 0.751854,0.2698324 0.620776,0.6388501 0.393099,1.075698 -1.004741,0.08648 1.004741,-0.08648 1.215557,0.717233 -1.644438,0.540833 -1.315838,-0.45433 -0.504968,-0.695488 0.504968,0.695488 -1.201167,0.145581 -0.761734,-0.245356 0.761734,0.245356 1.201167,-0.145581 1.315838,0.45433 -0.892015,1.112526 -0.775782,0.224947 0.775782,-0.224947 -0.125129,1.229277 -0.501347,0.909768 0.501347,-0.909768 0.125129,-1.229277 0.892015,-1.112526 1.644438,-0.540833 2.665855,0.149047 2.832342,1.556347 2.020821,3.067734 0.583887,4.746128 -2.722855,-0.635023 -1.252776,-1.452165 -0.352269,-1.149207 0.229291,-0.858252 -0.229291,0.858252 0.352269,1.149207 -1.128557,-0.623239 1.128557,0.623239 1.252776,1.452165 -1.704633,0.340973 -1.018738,-0.360845 1.018738,0.360845 -1.177612,0.974279 -0.971483,0.242481 0.971483,-0.242481 -0.340249,0.75648 0.340249,-0.75648 1.177612,-0.974279 1.704633,-0.340973 2.722855,0.635023 3.414491,4.296172 0.413955,6.453612 -7.624275,-4.312228 -3.896091,-5.014388 -0.860349,-3.391919 0.846198,-3.027172 1.94761,-1.434102 1.949659,-0.219185 0.971131,0.590002 0.9807,-0.149471 0.610701,-0.575271 -0.610701,0.575271 -0.9807,0.149471 -0.971131,-0.590002 0.855705,-0.815176 0.766482,-0.333464 -0.766482,0.333464 0.199322,-0.833259 -0.199322,0.833259 -0.855705,0.815176 -1.949659,0.219185 0.345576,-1.378055 0.542601,-0.716643 -0.542601,0.716643 -0.356159,-1.040247 -0.717758,-0.542675 0.717758,0.542675 0.356159,1.040247 -0.345576,1.378055 -1.94761,1.434102 -0.445465,-2.131214 0.552284,-1.091133 0.712503,-0.385725 -0.712503,0.385725 -0.0093,-1.076195 0.439392,-0.824735 -0.439392,0.824735 -0.496226,-0.605106 0.496226,0.605106 0.0093,1.076195 -0.552284,1.091133 -1.192756,-1.108667 -0.369917,-0.901535 0.369917,0.901535 -0.895791,-0.119037 0.895791,0.119037 1.192756,1.108667 0.445465,2.131214 -0.846198,3.027172 -1.907846,-2.301457 -0.390793,-2.050504 0.732696,-1.524692 0.918983,-0.795335 0.363494,-0.818022 -0.363494,0.818022 -0.918983,0.795335 -0.042,-0.99504 0.370269,-0.699833 -0.370269,0.699833 0.042,0.99504 -0.732696,1.524692 -0.865501,-1.274753 -0.214715,-1.059012 0.273329,-0.915903 -0.273329,0.915903 0.214715,1.059012 -0.979821,-0.541216 -0.799357,-0.05804 0.799357,0.05804 0.979821,0.541216 0.865501,1.274753 0.390793,2.050504 -1.912056,-0.620209 -0.814378,-1.093098 -0.227728,-0.784898 0.227728,0.784898 -0.918631,-0.431779 -0.481578,-0.731023 0.481578,0.731023 -0.824651,10e-4 0.824651,-10e-4 0.918631,0.431779 0.814378,1.093098 -1.365762,0.340653 -1.153374,-0.207329 -0.6512,-0.5056 0.6512,0.5056 -0.860928,0.317107 0.860928,-0.317107 1.153374,0.207329 1.365762,-0.340653 1.912056,0.620209 1.907846,2.301457 0.860349,3.391919 -4.333527,-0.990251 -1.738347,-1.841116 -0.181964,-1.952675 0.41925,-1.331441 0.893298,-0.735801 0.437086,-0.853608 -0.437086,0.853608 -0.893298,0.735801 -0.280455,-0.749684 0.280455,0.749684 -0.41925,1.331441 -0.579925,-1.199628 -0.04914,-1.117254 0.448154,-0.801656 -0.448154,0.801656 0.04914,1.117254 -0.913739,-0.705564 -0.40605,-0.8978 -0.68449,-0.529299 0.68449,0.529299 0.40605,0.8978 0.913739,0.705564 0.579925,1.199628 0.181964,1.952675 -1.3429,-0.592154 -0.611229,-0.822894 -0.696685,-0.37628 0.696685,0.37628 0.611229,0.822894 -0.994438,0.142354 -0.543325,0.57885 0.543325,-0.57885 0.994438,-0.142354 1.3429,0.592154 1.738347,1.841116 -2.387561,0.731932 -1.905901,-0.303411 -1.173298,-1.102647 -0.139157,-0.829514 0.139157,0.829514 -1.103502,-0.288536 1.103502,0.288536 1.173298,1.102647 -1.583342,0.707715 -0.901956,-0.01655 0.901956,0.01655 -0.745803,0.845279 -0.11763,0.857052 0.11763,-0.857052 0.745803,-0.845279 1.583342,-0.707715 1.905901,0.303411 -1.575832,1.388896 -1.346945,0.321164 -1.06265,-0.218947 -0.696717,-0.51429 0.696717,0.51429 -0.786695,0.268001 0.786695,-0.268001 1.06265,0.218947 -0.826978,0.919234 -0.807828,0.208777 0.807828,-0.208777 -0.221779,0.794962 0.221779,-0.794962 0.826978,-0.919234 1.346945,-0.321164 -0.605559,1.707814 -0.95728,0.60074 -0.335149,0.871897 0.192175,0.778722 -0.192175,-0.778722 0.335149,-0.871897 0.95728,-0.60074 0.360896,1.030606 -0.140016,0.809208 0.140016,-0.809208 0.600128,0.499465 -0.600128,-0.499465 -0.360896,-1.030606 0.605559,-1.707814 1.575832,-1.388896 2.387561,-0.731932 4.333527,0.990251 3.896091,5.014388 -4.842716,0.840293 -2.390457,-1.377568 -1.555474,-1.89971 -0.35922,-1.700034 0.209656,-1.180057 -0.163333,-0.804334 0.163333,0.804334 -0.209656,1.180057 -0.758692,-0.742836 0.758692,0.742836 0.35922,1.700034 -1.372196,-0.65508 -0.489563,-1.069823 -0.0093,-0.859721 0.0093,0.859721 -0.760855,-0.673164 0.760855,0.673164 0.489563,1.069823 -1.313552,-0.02596 1.313552,0.02596 1.372196,0.65508 1.555474,1.89971 -1.981159,-0.264981 -0.909549,-0.866269 -0.128968,-1.05115 0.198774,-0.811722 -0.198774,0.811722 0.128968,1.05115 -0.880873,-0.332449 0.880873,0.332449 0.909549,0.866269 -1.509326,0.822759 -1.19797,-0.05586 -0.92608,-0.416077 0.92608,0.416077 -0.795137,0.568236 0.795137,-0.568236 1.19797,0.05586 -0.537904,0.693305 0.537904,-0.693305 1.509326,-0.822759 1.981159,0.264981 2.390457,1.377568 -2.904745,3.332219 -2.787157,0.61663 -2.357561,-0.463932 -1.225457,-0.740973 -0.689155,-0.951075 -0.0418,-0.831749 0.0418,0.831749 -0.913045,-0.398925 0.913045,0.398925 0.689155,0.951075 -1.12536,0.02162 -0.889791,0.365232 -0.817471,0.01914 0.817471,-0.01914 0.889791,-0.365232 1.12536,-0.02162 1.225457,0.740973 -1.216881,0.405773 -1.085844,-0.343083 1.085844,0.343083 -0.505505,0.811877 0.505505,-0.811877 1.216881,-0.405773 2.357561,0.463932 -1.509088,1.664728 -1.168302,0.576523 -0.513708,1.035613 0.07955,1.018522 -0.514505,0.746622 0.514505,-0.746622 0.538277,0.61662 -0.538277,-0.61662 -0.07955,-1.018522 0.513708,-1.035613 1.168302,-0.576523 -0.177867,1.338528 -0.578032,0.897158 -0.759168,0.457165 0.759168,-0.457165 0.578032,-0.897158 0.27607,1.068425 -0.13654,0.779973 0.13654,-0.779973 -0.27607,-1.068425 0.177867,-1.338528 1.509088,-1.664728 2.787157,-0.61663 -0.787999,3.114823 -1.409127,1.019485 -1.312548,0.02783 -0.778822,-0.494178 0.778822,0.494178 -0.755278,0.534803 0.755278,-0.534803 1.312548,-0.02783 -0.229394,0.855377 0.229394,-0.855377 1.409127,-1.019485 0.542157,2.228807 -0.676514,1.454999 -1.304655,0.614715 -0.35559,0.714099 0.35559,-0.714099 1.304655,-0.614715 0.02007,0.994793 0.432048,0.751225 -0.432048,-0.751225 -0.02007,-0.994793 0.676514,-1.454999 1.144457,1.466358 0.309286,1.149177 -0.262518,0.877824 0.262518,-0.877824 0.739327,0.683684 0.343775,0.741459 -0.343775,-0.741459 -0.739327,-0.683684 -0.309286,-1.149177 1.014889,0.276722 0.891601,-0.111299 -0.891601,0.111299 -1.014889,-0.276722 -1.144457,-1.466358 -0.542157,-2.228807 0.787999,-3.114823 2.904745,-3.332219 4.842716,-0.840293 7.624275,4.312228 5.54568,8.324128 v 15.603332"
       style="fill:none;fill-opacity:1;stroke:#000000;stroke-width:0.7;stroke-linecap:butt;stroke-linejoin:miter;stroke-dasharray:none;stroke-opacity:1"
       id="path89" />
  </g>
</svg>
