<?xml version="1.0" encoding="UTF-8" standalone="no"?><svg
   width="70"
   height="60"
   viewBox="0 0 70 60"
   version="1.1"
   id="svg1"
   sodipodi:docname="org.inkscape.text.braille.svg"
   inkscape:version="1.4-dev (de72ba3c18, 2023-06-27, custom)"
   xmlns:inkscape="http://www.inkscape.org/namespaces/inkscape"
   xmlns:sodipodi="http://sodipodi.sourceforge.net/DTD/sodipodi-0.dtd"
   xmlns="http://www.w3.org/2000/svg"
   xmlns:svg="http://www.w3.org/2000/svg">
  <sodipodi:namedview
     id="namedview1"
     pagecolor="#ffffff"
     bordercolor="#000000"
     borderopacity="0.25"
     inkscape:showpageshadow="2"
     inkscape:pageopacity="0.0"
     inkscape:pagecheckerboard="0"
     inkscape:deskcolor="#d1d1d1"
     inkscape:zoom="4.2771946"
     inkscape:cx="93.753041"
     inkscape:cy="55.176353"
     inkscape:current-layer="layer1" />
  <defs
     id="defs1" />
  <g
     inkscape:label="org.inkscape.text.braille"
     inkscape:groupmode="layer"
     id="layer1">&#10;⠀⠀<g
   id="g3"
   transform="matrix(0.82673418,0,0,0.82673418,2.4137774,7.3591129)"
   style="stroke-width:1.20958">
  <path
     d="m 8.0834198,5.3686276 q 0,-0.3046876 0.1171875,-0.5624996 0.1171875,-0.257813 0.3046875,-0.445313 0.1992187,-0.199219 0.46875,-0.304687 0.2695312,-0.1171876 0.5625,-0.1171876 0.3046875,0 0.5742192,0.1171876 0.269531,0.105468 0.457031,0.304687 0.199219,0.1875 0.304687,0.445313 0.117188,0.257812 0.117188,0.5624996 0,0.304687 -0.117188,0.574218 -0.105468,0.257813 -0.304687,0.4570316 -0.1875,0.199218 -0.457031,0.316406 -0.2695317,0.117187 -0.5742192,0.117187 -0.2929688,0 -0.5625,-0.117187 Q 8.7045135,6.5990952 8.5052948,6.3998772 8.3177948,6.2006586 8.2006073,5.9428456 8.0834198,5.6733146 8.0834198,5.3686276 Z m -5.671875,5.7656234 q 0,-0.304688 0.1054687,-0.5625 0.1171875,-0.269532 0.3164063,-0.457032 0.1992187,-0.1992176 0.4570312,-0.3046866 0.2695313,-0.117188 0.5625,-0.117188 0.3046875,0 0.5625,0.117188 0.2695313,0.105469 0.46875,0.3046866 0.1992188,0.1875 0.3164063,0.457032 0.1171875,0.257812 0.1171875,0.5625 0,0.304687 -0.1171875,0.574218 -0.1171875,0.257813 -0.3164063,0.457032 -0.1992187,0.199218 -0.46875,0.316406 -0.2578125,0.105469 -0.5625,0.105469 -0.2929687,0 -0.5625,-0.105469 Q 3.0326385,12.364719 2.8334198,12.165501 2.634201,11.966282 2.5170135,11.708469 2.4115448,11.438938 2.4115448,11.134251 Z m 16.3828122,5.742187 q 0,-0.304687 0.117188,-0.5625 0.117187,-0.269531 0.316406,-0.457031 0.199219,-0.199219 0.457031,-0.316406 0.269532,-0.117188 0.574219,-0.117188 0.304688,0 0.5625,0.117188 0.269531,0.117187 0.457031,0.316406 0.199219,0.1875 0.316407,0.457031 0.117187,0.257813 0.117187,0.5625 0,0.292969 -0.117187,0.5625 -0.117188,0.257813 -0.316407,0.457031 -0.1875,0.199219 -0.457031,0.316407 -0.257812,0.105468 -0.5625,0.105468 -0.304687,0 -0.574219,-0.105468 -0.257812,-0.117188 -0.457031,-0.316407 -0.199219,-0.199218 -0.316406,-0.457031 -0.117188,-0.269531 -0.117188,-0.5625 z m 0.02344,-11.5078104 q 0,-0.3046876 0.105469,-0.5624996 0.117187,-0.257813 0.316406,-0.445313 0.199219,-0.199219 0.457031,-0.304687 0.269531,-0.1171876 0.5625,-0.1171876 0.304688,0 0.5625,0.1171876 0.269531,0.105468 0.46875,0.304687 0.199219,0.1875 0.316406,0.445313 0.117188,0.257812 0.117188,0.5624996 0,0.304687 -0.117188,0.574218 -0.117187,0.257813 -0.316406,0.4570316 -0.199219,0.199218 -0.46875,0.316406 -0.257812,0.117187 -0.5625,0.117187 -0.292969,0 -0.5625,-0.117187 -0.257812,-0.117188 -0.457031,-0.316406 -0.199219,-0.1992186 -0.316406,-0.4570316 -0.105469,-0.269531 -0.105469,-0.574218 z m 5.671875,0 q 0,-0.3046876 0.117187,-0.5624996 0.117188,-0.257813 0.304688,-0.445313 0.199219,-0.199219 0.46875,-0.304687 0.269531,-0.1171876 0.5625,-0.1171876 0.304687,0 0.574219,0.1171876 0.269531,0.105468 0.457031,0.304687 0.199219,0.1875 0.304687,0.445313 0.117188,0.257812 0.117188,0.5624996 0,0.304687 -0.117188,0.574218 -0.105468,0.257813 -0.304687,0.4570316 -0.1875,0.199218 -0.457031,0.316406 -0.269532,0.117187 -0.574219,0.117187 -0.292969,0 -0.5625,-0.117187 -0.269531,-0.117188 -0.46875,-0.316406 -0.1875,-0.1992186 -0.304688,-0.4570316 -0.117187,-0.269531 -0.117187,-0.574218 z m -0.02344,5.7304664 q 0,-0.304687 0.117188,-0.5625 0.117187,-0.269531 0.316406,-0.457031 0.199219,-0.1992186 0.46875,-0.3046866 0.269531,-0.117188 0.5625,-0.117188 0.304688,0 0.5625,0.117188 0.269531,0.105468 0.457031,0.3046866 0.199219,0.1875 0.316407,0.457031 0.117187,0.257813 0.117187,0.5625 0,0.304688 -0.117187,0.574219 -0.117188,0.257813 -0.316407,0.457031 -0.1875,0.1875 -0.457031,0.304688 -0.257812,0.105469 -0.5625,0.105469 -0.292969,0 -0.5625,-0.105469 -0.269531,-0.117188 -0.46875,-0.304688 -0.199219,-0.199218 -0.316406,-0.457031 -0.117188,-0.269531 -0.117188,-0.574219 z m 10.734375,5.777344 q 0,-0.304687 0.117188,-0.5625 0.117187,-0.269531 0.316406,-0.457031 0.199219,-0.199219 0.457031,-0.316406 0.269532,-0.117188 0.574219,-0.117188 0.304688,0 0.5625,0.117188 0.269531,0.117187 0.457031,0.316406 0.199219,0.1875 0.316407,0.457031 0.117187,0.257813 0.117187,0.5625 0,0.292969 -0.117187,0.5625 -0.117188,0.257813 -0.316407,0.457031 -0.1875,0.199219 -0.457031,0.316407 -0.257812,0.105468 -0.5625,0.105468 -0.304687,0 -0.574219,-0.105468 -0.257812,-0.117188 -0.457031,-0.316407 -0.199219,-0.199218 -0.316406,-0.457031 -0.117188,-0.269531 -0.117188,-0.5625 z m 0.02344,-11.5078104 q 0,-0.3046876 0.105469,-0.5624996 0.117187,-0.257813 0.316406,-0.445313 0.199219,-0.199219 0.457031,-0.304687 0.269531,-0.1171876 0.5625,-0.1171876 0.304688,0 0.5625,0.1171876 0.269531,0.105468 0.46875,0.304687 0.199219,0.1875 0.316406,0.445313 0.117188,0.257812 0.117188,0.5624996 0,0.304687 -0.117188,0.574218 -0.117187,0.257813 -0.316406,0.4570316 -0.199219,0.199218 -0.46875,0.316406 -0.257812,0.117187 -0.5625,0.117187 -0.292969,0 -0.5625,-0.117187 -0.257812,-0.117188 -0.457031,-0.316406 -0.199219,-0.1992186 -0.316406,-0.4570316 -0.105469,-0.269531 -0.105469,-0.574218 z"
     id="path2"
     style="font-weight:bold;font-size:24px;line-height:1.8;-inkscape-font-specification:'sans-serif, Bold';font-variant-ligatures:none;stroke-width:1.20958;stroke-linecap:square;stroke-linejoin:round;stroke-miterlimit:10" />
  <g
     id="g4"
     style="stroke-width:1.20958">
    <path
       d="m 2.3881073,51.195613 q 0,-0.304687 0.1171875,-0.5625 0.1171875,-0.269531 0.3164062,-0.457031 0.1992188,-0.199219 0.4570313,-0.316406 0.2695312,-0.117188 0.5742187,-0.117188 0.3046875,0 0.5625,0.117188 0.2695313,0.117187 0.4570313,0.316406 0.1992187,0.1875 0.3164062,0.457031 0.1171875,0.257813 0.1171875,0.5625 0,0.292969 -0.1171875,0.5625 -0.1171875,0.257813 -0.3164062,0.457032 -0.1875,0.199218 -0.4570313,0.316406 -0.2578125,0.105469 -0.5625,0.105469 -0.3046875,0 -0.5742187,-0.105469 Q 3.0209198,52.414363 2.821701,52.215145 2.6224823,52.015926 2.5052948,51.758113 2.3881073,51.488582 2.3881073,51.195613 Z M 8.0834198,39.687801 q 0,-0.304688 0.1171875,-0.5625 0.1171875,-0.257813 0.3046875,-0.445313 0.1992187,-0.199218 0.46875,-0.304687 0.2695312,-0.117188 0.5625,-0.117188 0.3046875,0 0.5742192,0.117188 0.269531,0.105469 0.457031,0.304687 0.199219,0.1875 0.304687,0.445313 0.117188,0.257812 0.117188,0.5625 0,0.304687 -0.117188,0.574219 -0.105468,0.257812 -0.304687,0.457031 -0.1875,0.199219 -0.457031,0.316406 -0.2695317,0.117188 -0.5742192,0.117188 -0.2929688,0 -0.5625,-0.117188 Q 8.7045135,40.91827 8.5052948,40.719051 8.3177948,40.519832 8.2006073,40.26202 8.0834198,39.992488 8.0834198,39.687801 Z m -5.671875,5.765625 q 0,-0.304688 0.1054687,-0.5625 0.1171875,-0.269531 0.3164063,-0.457031 0.1992187,-0.199219 0.4570312,-0.304688 0.2695313,-0.117187 0.5625,-0.117187 0.3046875,0 0.5625,0.117187 0.2695313,0.105469 0.46875,0.304688 0.1992188,0.1875 0.3164063,0.457031 0.1171875,0.257812 0.1171875,0.5625 0,0.304687 -0.1171875,0.574219 -0.1171875,0.257812 -0.3164063,0.457031 -0.1992187,0.199219 -0.46875,0.316406 -0.2578125,0.105469 -0.5625,0.105469 -0.2929687,0 -0.5625,-0.105469 Q 3.0326385,46.683895 2.8334198,46.484676 2.634201,46.285457 2.5170135,46.027645 2.4115448,45.758113 2.4115448,45.453426 Z M 18.817795,39.687801 q 0,-0.304688 0.105469,-0.5625 0.117187,-0.257813 0.316406,-0.445313 0.199219,-0.199218 0.457031,-0.304687 0.269531,-0.117188 0.5625,-0.117188 0.304688,0 0.5625,0.117188 0.269531,0.105469 0.46875,0.304687 0.199219,0.1875 0.316406,0.445313 0.117188,0.257812 0.117188,0.5625 0,0.304687 -0.117188,0.574219 -0.117187,0.257812 -0.316406,0.457031 -0.199219,0.199219 -0.46875,0.316406 -0.257812,0.117188 -0.5625,0.117188 -0.292969,0 -0.5625,-0.117188 Q 19.438889,40.91827 19.23967,40.719051 19.040451,40.519832 18.923264,40.26202 18.817795,39.992488 18.817795,39.687801 Z m 5.671875,0 q 0,-0.304688 0.117187,-0.5625 0.117188,-0.257813 0.304688,-0.445313 0.199219,-0.199218 0.46875,-0.304687 0.269531,-0.117188 0.5625,-0.117188 0.304687,0 0.574219,0.117188 0.269531,0.105469 0.457031,0.304687 0.199219,0.1875 0.304687,0.445313 0.117188,0.257812 0.117188,0.5625 0,0.304687 -0.117188,0.574219 -0.105468,0.257812 -0.304687,0.457031 -0.1875,0.199219 -0.457031,0.316406 -0.269532,0.117188 -0.574219,0.117188 -0.292969,0 -0.5625,-0.117188 -0.269531,-0.117187 -0.46875,-0.316406 -0.1875,-0.199219 -0.304688,-0.457031 -0.117187,-0.269532 -0.117187,-0.574219 z m 10.734375,0 q 0,-0.304688 0.105469,-0.5625 0.117187,-0.257813 0.316406,-0.445313 0.199219,-0.199218 0.457031,-0.304687 0.269531,-0.117188 0.5625,-0.117188 0.304688,0 0.5625,0.117188 0.269531,0.105469 0.46875,0.304687 0.199219,0.1875 0.316406,0.445313 0.117188,0.257812 0.117188,0.5625 0,0.304687 -0.117188,0.574219 -0.117187,0.257812 -0.316406,0.457031 -0.199219,0.199219 -0.46875,0.316406 -0.257812,0.117188 -0.5625,0.117188 -0.292969,0 -0.5625,-0.117188 Q 35.845139,40.91827 35.64592,40.719051 35.446701,40.519832 35.329514,40.26202 35.224045,39.992488 35.224045,39.687801 Z m 16.382812,11.507812 q 0,-0.304687 0.117188,-0.5625 0.117187,-0.269531 0.316406,-0.457031 0.199219,-0.199219 0.457031,-0.316406 0.269532,-0.117188 0.574219,-0.117188 0.304688,0 0.5625,0.117188 0.269531,0.117187 0.457031,0.316406 0.199219,0.1875 0.316407,0.457031 0.117187,0.257813 0.117187,0.5625 0,0.292969 -0.117187,0.5625 -0.117188,0.257813 -0.316407,0.457032 -0.1875,0.199218 -0.457031,0.316406 -0.257812,0.105469 -0.5625,0.105469 -0.304687,0 -0.574219,-0.105469 -0.257812,-0.117188 -0.457031,-0.316406 -0.199219,-0.199219 -0.316406,-0.457032 -0.117188,-0.269531 -0.117188,-0.5625 z m 0.02344,-11.507812 q 0,-0.304688 0.105469,-0.5625 0.117187,-0.257813 0.316406,-0.445313 0.199219,-0.199218 0.457031,-0.304687 0.269531,-0.117188 0.5625,-0.117188 0.304688,0 0.5625,0.117188 0.269531,0.105469 0.46875,0.304687 0.199219,0.1875 0.316406,0.445313 0.117188,0.257812 0.117188,0.5625 0,0.304687 -0.117188,0.574219 -0.117187,0.257812 -0.316406,0.457031 -0.199219,0.199219 -0.46875,0.316406 -0.257812,0.117188 -0.5625,0.117188 -0.292969,0 -0.5625,-0.117188 Q 52.251389,40.91827 52.05217,40.719051 51.852951,40.519832 51.735764,40.26202 51.630295,39.992488 51.630295,39.687801 Z m 5.671875,0 q 0,-0.304688 0.117187,-0.5625 0.117188,-0.257813 0.304688,-0.445313 0.199219,-0.199218 0.46875,-0.304687 0.269531,-0.117188 0.5625,-0.117188 0.304687,0 0.574219,0.117188 0.269531,0.105469 0.457031,0.304687 0.199219,0.1875 0.304687,0.445313 0.117188,0.257812 0.117188,0.5625 0,0.304687 -0.117188,0.574219 -0.105468,0.257812 -0.304687,0.457031 -0.1875,0.199219 -0.457031,0.316406 -0.269532,0.117188 -0.574219,0.117188 -0.292969,0 -0.5625,-0.117188 -0.269531,-0.117187 -0.46875,-0.316406 -0.1875,-0.199219 -0.304688,-0.457031 -0.117187,-0.269532 -0.117187,-0.574219 z m -5.671875,5.765625 q 0,-0.304688 0.105469,-0.5625 0.117187,-0.269531 0.316406,-0.457031 0.199219,-0.199219 0.457031,-0.304688 0.269531,-0.117187 0.5625,-0.117187 0.304688,0 0.5625,0.117187 0.269531,0.105469 0.46875,0.304688 0.199219,0.1875 0.316406,0.457031 0.117188,0.257812 0.117188,0.5625 0,0.304687 -0.117188,0.574219 -0.117187,0.257812 -0.316406,0.457031 -0.199219,0.199219 -0.46875,0.316406 -0.257812,0.105469 -0.5625,0.105469 -0.292969,0 -0.5625,-0.105469 -0.257812,-0.117187 -0.457031,-0.316406 -0.199219,-0.199219 -0.316406,-0.457031 -0.105469,-0.269532 -0.105469,-0.574219 z m 16.40625,-5.765625 q 0,-0.304688 0.105469,-0.5625 0.117187,-0.257813 0.316406,-0.445313 0.199219,-0.199218 0.457031,-0.304687 0.269531,-0.117188 0.5625,-0.117188 0.304688,0 0.5625,0.117188 0.269531,0.105469 0.46875,0.304687 0.199219,0.1875 0.316406,0.445313 0.117188,0.257812 0.117188,0.5625 0,0.304687 -0.117188,0.574219 -0.117187,0.257812 -0.316406,0.457031 -0.199219,0.199219 -0.46875,0.316406 -0.257812,0.117188 -0.5625,0.117188 -0.292969,0 -0.5625,-0.117188 Q 68.657639,40.91827 68.45842,40.719051 68.259201,40.519832 68.142014,40.26202 68.036545,39.992488 68.036545,39.687801 Z m 5.648437,5.730469 q 0,-0.304688 0.117188,-0.5625 0.117187,-0.269532 0.316406,-0.457032 0.199219,-0.199218 0.46875,-0.304687 0.269531,-0.117188 0.5625,-0.117188 0.304688,0 0.5625,0.117188 0.269531,0.105469 0.457031,0.304687 0.199219,0.1875 0.316407,0.457032 0.117187,0.257812 0.117187,0.5625 0,0.304687 -0.117187,0.574218 -0.117188,0.257813 -0.316407,0.457032 -0.1875,0.1875 -0.457031,0.304687 -0.257812,0.105469 -0.5625,0.105469 -0.292969,0 -0.5625,-0.105469 Q 74.317795,46.63702 74.118576,46.44952 73.919357,46.250301 73.80217,45.992488 73.684982,45.722957 73.684982,45.41827 Z"
       id="path3"
       style="font-weight:bold;font-size:24px;line-height:1.8;-inkscape-font-specification:'sans-serif, Bold';font-variant-ligatures:none;stroke-width:1.20958;stroke-linecap:square;stroke-linejoin:round;stroke-miterlimit:10" />
  </g>
</g>
</g>
</svg>
