<?xml version="1.0" encoding="UTF-8" standalone="no"?>
<svg
   width="70"
   height="60"
   viewBox="0 0 70 60"
   version="1.1"
   id="svg1"
   sodipodi:docname="org.inkscape.doc-info.svg"
   xml:space="preserve"
   inkscape:version="1.4-dev (de72ba3c18, 2023-06-27, custom)"
   xmlns:inkscape="http://www.inkscape.org/namespaces/inkscape"
   xmlns:sodipodi="http://sodipodi.sourceforge.net/DTD/sodipodi-0.dtd"
   xmlns="http://www.w3.org/2000/svg"
   xmlns:svg="http://www.w3.org/2000/svg"><sodipodi:namedview
     id="namedview1"
     pagecolor="#ffffff"
     bordercolor="#000000"
     borderopacity="0.25"
     inkscape:showpageshadow="2"
     inkscape:pageopacity="0.0"
     inkscape:pagecheckerboard="0"
     inkscape:deskcolor="#d1d1d1"
     showgrid="false"
     inkscape:zoom="1"
     inkscape:cx="51"
     inkscape:cy="37"
     inkscape:current-layer="layer1"><inkscape:grid
       id="grid1"
       units="px"
       originx="0"
       originy="0"
       spacingx="1"
       spacingy="1"
       empcolor="#0099e5"
       empopacity="0.30196078"
       color="#3f84a6"
       opacity="0.14901961"
       empspacing="5"
       dotted="false"
       gridanglex="30"
       gridanglez="30"
       visible="false" /></sodipodi:namedview><defs
     id="defs1" /><g
     inkscape:label="org.inkscape.doc-info"
     inkscape:groupmode="layer"
     id="layer1"><path
       id="path1"
       style="fill:#606060;stroke-width:1"
       d="m 36.84375,19.798828 a 2.5422375,2.3912923 0 0 0 -2.542969,2.390625 2.5422375,2.3912923 0 0 0 2.542969,2.392578 2.5422375,2.3912923 0 0 0 2.542969,-2.392578 2.5422375,2.3912923 0 0 0 -2.542969,-2.390625 z m -2.304688,6.964844 c -0.833152,-0.01074 -1.73609,0.212393 -3.158203,0.74414 -0.389219,0.145537 -0.728456,0.28322 -0.753906,0.306641 -0.04413,0.04062 -0.279297,0.946162 -0.279297,1.076172 0,0.06739 0.03261,0.06081 0.738282,-0.130859 0.377451,-0.102521 0.583025,-0.121715 1.03125,-0.101563 0.728357,0.03274 0.951339,0.135967 1.117187,0.521485 0.269017,0.625345 0.135945,1.512562 -0.638672,4.240234 -0.262514,0.924394 -0.529933,1.866709 -0.59375,2.09375 -0.274373,0.976182 -0.373332,2.348925 -0.208984,2.902344 0.274497,0.924341 1.016479,1.574558 2.115234,1.855468 0.561385,0.143522 1.924656,0.11069 2.542969,-0.06055 0.378162,-0.104728 0.754917,-0.238016 1.96875,-0.699219 l 0.433594,-0.164063 0.140625,-0.55664 c 0.07714,-0.3059 0.129069,-0.568197 0.115234,-0.582032 -0.01385,-0.01385 -0.259203,0.05184 -0.544922,0.144532 -0.432258,0.140229 -0.618673,0.167174 -1.109375,0.166015 -0.767598,-0.0019 -1.103469,-0.143532 -1.279297,-0.541015 -0.166795,-0.377076 -0.188538,-0.598923 -0.111328,-1.148438 0.113679,-0.809095 0.183278,-1.096719 0.851563,-3.46875 0.178192,-0.632479 0.404393,-1.443135 0.501953,-1.800781 0.223579,-0.819599 0.333676,-1.962937 0.24414,-2.542969 -0.174977,-1.133527 -1.013038,-1.924429 -2.296875,-2.167969 -0.278734,-0.05288 -0.548454,-0.08236 -0.826172,-0.08594 z M 51,30 A 16,16 0 0 1 35,46 16,16 0 0 1 19,30 16,16 0 0 1 35,14 16,16 0 0 1 51,30 Z" /></g></svg>
