<?xml version="1.0" encoding="UTF-8" standalone="no"?>
<svg
   width="70"
   height="60"
   viewBox="0 0 70 60"
   version="1.1"
   id="svg1"
   sodipodi:docname="org.inkscape.dpi90to96.svg"
   inkscape:version="1.4-dev (f25ce46d5c, 2023-06-29)"
   xmlns:inkscape="http://www.inkscape.org/namespaces/inkscape"
   xmlns:sodipodi="http://sodipodi.sourceforge.net/DTD/sodipodi-0.dtd"
   xmlns="http://www.w3.org/2000/svg"
   xmlns:svg="http://www.w3.org/2000/svg">
  <sodipodi:namedview
     id="namedview1"
     pagecolor="#ffffff"
     bordercolor="#000000"
     borderopacity="0.25"
     inkscape:showpageshadow="2"
     inkscape:pageopacity="0.0"
     inkscape:pagecheckerboard="0"
     inkscape:deskcolor="#d1d1d1"
     inkscape:zoom="1"
     inkscape:cx="47"
     inkscape:cy="45"
     inkscape:current-layer="layer1"
     showgrid="false">
    <inkscape:grid
       id="grid1"
       units="px"
       originx="0"
       originy="0"
       spacingx="1"
       spacingy="1"
       empcolor="#0099e5"
       empopacity="0.30196078"
       color="#3f84a6"
       opacity="0.14901961"
       empspacing="5"
       dotted="false"
       gridanglex="30"
       gridanglez="30"
       visible="false" />
  </sodipodi:namedview>
  <defs
     id="defs1" />
  <g
     inkscape:label="org.inkscape.dpi90to96"
     inkscape:groupmode="layer"
     id="layer1">
    <circle
       style="fill:none;fill-rule:evenodd;stroke:#000000;stroke-width:1;stroke-miterlimit:5.5"
       id="path2"
       cx="56"
       cy="14"
       r="7.5" />
    <rect
       style="fill:#000000;fill-rule:evenodd;stroke:none;stroke-width:1;stroke-miterlimit:5.5"
       id="rect2"
       width="2"
       height="7.9999995"
       x="55"
       y="10" />
    <rect
       style="fill:#000000;fill-rule:evenodd;stroke:none;stroke-width:1;stroke-miterlimit:5.5"
       id="rect3"
       width="2"
       height="7.9999995"
       x="13"
       y="-59.999996"
       transform="rotate(90)" />
    <g
       id="g1"
       transform="matrix(0.38088389,0.32392508,-0.32392508,0.38088389,42.273432,-24.932402)"
       style="stroke-width:1.99999">
      <path
         id="path1"
         style="fill:#606060;stroke-width:1.99999"
         d="M 25,69 V 81 H 13 v 22 l 3.594715,15.29162 C 17.276437,121.47634 20,126 24,126 V 107 H 22 V 96 h 14 v 11 h -2 v 19 c 3,0 6.058745,-2.44423 7.120503,-6.93596 L 45,104 h 25 c 2.11141,4.5976 7,6 9,6 V 96 h 6 v -5 h 1 v 5 h 8 v -5 h 1 v 5 h 8 v -5 h 1 v 5 h 8 v -5 h 1 v 5 h 8 v -5 h 1 v 5 h 6 V 85 H 79 V 81 H 61 v -2 h 2 v -3 h -7 v 3 h 2 v 2 H 41 V 69 c -2,0 -6,4 -6,12 v 4 H 31 V 81 C 31,73 27,69 25,69 Z"
         sodipodi:nodetypes="ccccsccccccccsccccccccccccccccccccccccccccccccccccccccccc" />
      <rect
         style="fill:#8d8d8d;fill-rule:evenodd;stroke:none;stroke-width:2.6;stroke-linecap:square;stroke-miterlimit:1.7;fill-opacity:1"
         id="rect1"
         width="29"
         height="13"
         x="44"
         y="85"
         ry="4"
         rx="3.9999998" />
    </g>
  </g>
</svg>
