<?xml version="1.0" encoding="UTF-8" standalone="no"?><svg
   width="70"
   height="60"
   viewBox="0 0 70 60"
   version="1.1"
   id="svg1"
   sodipodi:docname="org.inkscape.effect.func-plot.svg"
   inkscape:version="1.4-dev (de72ba3c18, 2023-06-27, custom)"
   xmlns:inkscape="http://www.inkscape.org/namespaces/inkscape"
   xmlns:sodipodi="http://sodipodi.sourceforge.net/DTD/sodipodi-0.dtd"
   xmlns="http://www.w3.org/2000/svg"
   xmlns:svg="http://www.w3.org/2000/svg">
  <sodipodi:namedview
     id="namedview1"
     pagecolor="#ffffff"
     bordercolor="#000000"
     borderopacity="0.25"
     inkscape:showpageshadow="2"
     inkscape:pageopacity="0.0"
     inkscape:pagecheckerboard="0"
     inkscape:deskcolor="#d1d1d1"
     showgrid="true"
     inkscape:zoom="1"
     inkscape:cx="13"
     inkscape:cy="25"
     inkscape:current-layer="layer1">
    <inkscape:grid
       id="grid1"
       units="px"
       originx="0"
       originy="0"
       spacingx="1"
       spacingy="1"
       empcolor="#0099e5"
       empopacity="0.30196078"
       color="#3f84a6"
       opacity="0.14901961"
       empspacing="5"
       dotted="false"
       gridanglex="30"
       gridanglez="30"
       visible="true" />
  </sodipodi:namedview>
  <defs
     id="defs1" />
  <g
     inkscape:label="org.inkscape.effect.func-plot"
     inkscape:groupmode="layer"
     id="layer1">
    <path
       style="fill:none;fill-rule:evenodd;stroke:#000000;stroke-width:0.8;stroke-miterlimit:2.8;stroke-dasharray:none"
       d="m 5.4,30.453697 h 59.53491 m -59.53491,0 V 5.6452698 m 0,24.8084272 v 0 c 0.1,-0.32473 0.19942,-0.64946 0.29941,-0.97345 0.0994,-0.32399 0.19941,-0.64725 0.29884,-0.96939 0.1,-0.32213 0.1994,-0.64279 0.2994,-0.9616 0.0994,-0.31917 0.19941,-0.63613 0.29883,-0.95049 0.1,-0.31436 0.19941,-0.62651 0.29941,-0.93532 0.0994,-0.30844 0.19941,-0.61429 0.29941,-0.91606 0.0994,-0.30178 0.19941,-0.59985 0.29883,-0.89384 0.1,-0.29363 0.19941,-0.58318 0.29941,-0.86756 0.0994,-0.28474 0.19942,-0.56429 0.29883,-0.8383 0.1,-0.274 0.19941,-0.54282 0.29941,-0.80535 0.0994,-0.2629 0.19941,-0.51949 0.29883,-0.7698 0.1,-0.24994 0.19999,-0.49394 0.2994,-0.73056 0.1,-0.2366 0.19942,-0.46654 0.29941,-0.68871 0.0994,-0.22216 0.19942,-0.43729 0.29884,-0.64428 0.1,-0.20697 0.19941,-0.40582 0.2994,-0.59688 0.0994,-0.19106 0.19942,-0.3736 0.29883,-0.54763 0.1,-0.17403 0.19942,-0.33955 0.29941,-0.4958 0.1,-0.15663 0.19942,-0.30399 0.29941,-0.44248 0.0994,-0.13811 0.19941,-0.26734 0.29883,-0.38694 0.1,-0.1196 0.19942,-0.22994 0.29941,-0.33028 0.0994,-0.10035 0.19941,-0.19107 0.29883,-0.27216 0.1,-0.0807 0.19941,-0.15181 0.29941,-0.21253 0.0994,-0.0611 0.19941,-0.11183 0.29941,-0.15293 0.0994,-0.0407 0.19941,-0.0715 0.29883,-0.0918 0.1,-0.0207 0.19941,-0.0311 0.29941,-0.0311 0.0994,0 0.19941,0.01 0.29883,0.03 0.1,0.0204 0.19941,0.0508 0.29941,0.0915 0.0994,0.0403 0.19941,0.0911 0.29882,0.15181 0.1,0.0607 0.2,0.13145 0.29942,0.2118 0.1,0.0807 0.19941,0.17106 0.29941,0.27141 0.0994,0.1 0.19941,0.20995 0.29883,0.32917 0.1,0.11923 0.19941,0.24809 0.2994,0.3862 0.0994,0.13811 0.19942,0.28548 0.29884,0.44174 0.1,0.15626 0.19941,0.3214 0.2994,0.49505 0.1,0.17404 0.19941,0.35621 0.29941,0.5469 0.0994,0.19069 0.19942,0.38954 0.29883,0.59651 0.1,0.20662 0.19942,0.42138 0.29941,0.64354 0.0994,0.2218 0.19942,0.45137 0.29883,0.68797 0.1,0.23661 0.19941,0.47988 0.29941,0.73019 0.0994,0.24993 0.19942,0.50616 0.2994,0.76869 0.0994,0.26252 0.19942,0.53134 0.29884,0.80497 0.1,0.27401 0.19941,0.55356 0.29941,0.83794 0.0994,0.28437 0.19941,0.57356 0.29882,0.86755 0.10001,0.29363 0.19942,0.59134 0.29941,0.8931 0.0994,0.30178 0.19942,0.60726 0.29884,0.91606 0.1,0.30882 0.19998,0.62059 0.29941,0.93495 0.1,0.31436 0.19941,0.63132 0.2994,0.95013 0.0994,0.3188 0.19942,0.63946 0.29883,0.9616 0.1,0.32214 0.19941,0.64539 0.29942,0.96938 0.0994,0.32399 0.1994,0.64873 0.29882,0.97346 0.1,0.32473 0.19942,0.64909 0.29941,0.97308 0.1,0.32436 0.19942,0.64761 0.29941,0.96975 0.0994,0.32214 0.19942,0.6428 0.29884,0.96198 0.1,0.3188 0.1994,0.63576 0.2994,0.95049 0.0994,0.31436 0.19941,0.6265 0.29883,0.93532 0.1,0.3088 0.19942,0.61465 0.29941,0.91642 0.0994,0.30215 0.19941,0.60022 0.29941,0.89422 0.0994,0.294 0.19941,0.58355 0.29882,0.86829 0.10001,0.28437 0.19942,0.56431 0.29941,0.83868 0.0994,0.274 0.19942,0.54282 0.29884,0.80572 0.1,0.26289 0.19941,0.51986 0.29941,0.77016 0.0994,0.25032 0.19941,0.49432 0.29882,0.7313 0.10001,0.23697 0.2,0.46692 0.29941,0.68908 0.1,0.22254 0.19942,0.43767 0.29942,0.64503 0.0994,0.20697 0.1994,0.40656 0.29882,0.59761 0.1,0.19107 0.19941,0.37399 0.29941,0.54839 0.0994,0.17439 0.19942,0.33991 0.29883,0.49653 0.1,0.157 0.19941,0.30474 0.29942,0.44322 0.1,0.13849 0.1994,0.26808 0.2994,0.38768 0.0994,0.11997 0.19941,0.23031 0.29883,0.33103 0.1,0.10071 0.19942,0.19179 0.29941,0.27288 0.0994,0.0811 0.19941,0.15256 0.29883,0.21365 0.1,0.0615 0.19941,0.11257 0.29941,0.15367 0.0994,0.0411 0.19941,0.0722 0.29941,0.0929 0.0994,0.0207 0.19941,0.0315 0.29883,0.0318 0.1,3.6e-4 0.19941,-0.009 0.29941,-0.0293 0.0994,-0.02 0.19941,-0.05 0.29883,-0.0904 0.1,-0.0404 0.19941,-0.0907 0.2994,-0.15107 0.0994,-0.0603 0.19942,-0.13071 0.29884,-0.21106 0.1,-0.0804 0.19999,-0.17032 0.2994,-0.2703 0.1,-0.1 0.19942,-0.20957 0.29941,-0.32843 0.0994,-0.11923 0.19941,-0.24772 0.29883,-0.38546 0.1,-0.13811 0.19942,-0.28511 0.29941,-0.441 0.0994,-0.15589 0.19942,-0.32102 0.29883,-0.49431 0.1,-0.17366 0.19942,-0.35584 0.29941,-0.54616 0.1,-0.19069 0.19941,-0.38916 0.29941,-0.59577 0.0994,-0.20661 0.19941,-0.42101 0.29883,-0.6428 0.1,-0.22179 0.19941,-0.45137 0.29941,-0.6876 0.0994,-0.23624 0.19941,-0.4795 0.29883,-0.72944 0.1,-0.24994 0.19941,-0.50616 0.29941,-0.76833 0.0994,-0.26252 0.19941,-0.53096 0.29941,-0.8046 0.0994,-0.27401 0.19941,-0.55319 0.29883,-0.83756 0.1,-0.28401 0.19941,-0.57319 0.29941,-0.86682 0.0994,-0.29362 0.19941,-0.59133 0.29882,-0.8931 0.1,-0.3014 0.19942,-0.60688 0.29942,-0.91569 0.0994,-0.30844 0.19941,-0.62021 0.29883,-0.93457 0.1,-0.31437 0.19999,-0.63133 0.29941,-0.94976 0.1,-0.31881 0.19941,-0.63983 0.2994,-0.96161 0.0994,-0.32213 0.19942,-0.64539 0.29884,-0.96937 0.1,-0.32399 0.19941,-0.64872 0.2994,-0.97346 0.0994,-0.32436 0.19941,-0.64909 0.29883,-0.97308 0.1,-0.32399 0.19942,-0.64761 0.2994,-0.96975 0.0994,-0.32214 0.19943,-0.64317 0.29942,-0.96197 0.0994,-0.31919 0.19941,-0.63614 0.29883,-0.95087 0.1,-0.31437 0.19941,-0.6265 0.29941,-0.93569 0.0994,-0.30881 0.19942,-0.61465 0.29883,-0.9168 0.1,-0.30214 0.19942,-0.60021 0.29941,-0.89421 0.0994,-0.294 0.19941,-0.58393 0.29883,-0.86867 0.1,-0.28474 0.19998,-0.56467 0.2994,-0.83904 0.10001,-0.27438 0.19942,-0.54357 0.29941,-0.80646 0.0994,-0.26326 0.19942,-0.52023 0.29884,-0.77055 0.1,-0.25067 0.1994,-0.49468 0.29941,-0.73203 0.0994,-0.23697 0.1994,-0.46692 0.29882,-0.68982 0.1,-0.22253 0.19942,-0.43803 0.29941,-0.64538 0.1,-0.20736 0.19942,-0.40694 0.29942,-0.59837 0.0994,-0.19143 0.1994,-0.37472 0.29883,-0.54912 0.1,-0.1744 0.1994,-0.34028 0.2994,-0.49728 0.0994,-0.157 0.19942,-0.30511 0.29883,-0.44396 0.1,-0.13885 0.19941,-0.26845 0.29942,-0.38879 0.0994,-0.11997 0.1994,-0.23068 0.2994,-0.33176 0.0994,-0.10109 0.19941,-0.19218 0.29883,-0.27364 0.1,-0.0815 0.19942,-0.15292 0.29941,-0.21439 0.0994,-0.0615 0.19941,-0.11293 0.29883,-0.1544 0.1,-0.0415 0.19941,-0.0725 0.2994,-0.0937 0.0994,-0.0211 0.19942,-0.0322 0.29884,-0.0329 0.1,-7.4e-4 0.19999,0.009 0.29941,0.0285 0.1,0.0196 0.19941,0.0496 0.29941,0.0892 0.0994,0.04 0.1994,0.0904 0.29882,0.15033 0.10001,0.06 0.19942,0.13034 0.29941,0.21032 0.0994,0.08 0.19942,0.16995 0.29884,0.26956 0.1,0.0996 0.19941,0.20883 0.2994,0.32769 0.1,0.11886 0.19941,0.24698 0.29941,0.38472 0.0994,0.13737 0.19942,0.284 0.29883,0.43988 0.1,0.15589 0.19941,0.32029 0.29941,0.49359 0.0994,0.17328 0.19941,0.35546 0.29883,0.5454 0.1,0.19033 0.19941,0.38879 0.29941,0.59504 0.0994,0.20661 0.19942,0.42063 0.29941,0.64242 0.0994,0.22143 0.19941,0.45063 0.29883,0.68687 0.1,0.23587 0.19941,0.47913 0.29941,0.7287 0.0994,0.24957 0.19941,0.50579 0.29883,0.76795 0.1,0.26215 0.19941,0.5306 0.29941,0.80424 0.0994,0.27363 0.19941,0.55282 0.29883,0.83682 0.1,0.284 0.19999,0.57318 0.29941,0.86644 0.1,0.29363 0.19941,0.59133 0.2994,0.89273 0.0994,0.30178 0.19942,0.60688 0.29883,0.91532 0.1,0.30844 0.19942,0.62021 0.29941,0.93458 0.0994,0.31436 0.19942,0.63095 0.29883,0.94975 0.1,0.31881 0.19942,0.63947 0.29941,0.96124 0.1,0.32213 0.19942,0.64539 0.29941,0.96938 0.0994,0.32399 0.19941,0.64872 0.29883,0.97308 0.1,0.32473 0.19942,0.64946 0.29941,0.97345 0.0994,0.32399 0.19941,0.64761 0.29883,0.96975 0.1,0.32214 0.19942,0.64317 0.29941,0.96235 0.0994,0.31881 0.19941,0.63613 0.29941,0.95087 0.0994,0.31473 0.19941,0.62687 0.29883,0.93568 0.1,0.30918 0.19941,0.61503 0.29941,0.91717 0.0994,0.30215 0.19941,0.60059 0.29883,0.89496 0.1,0.294 0.19941,0.58392 0.29941,0.86867 0.0994,0.2851 0.19941,0.56503 0.29883,0.83978 0.1,0.27437 0.19999,0.54356 0.29941,0.80683 0.1,0.26326 0.19941,0.52023 0.2994,0.77128 0.0994,0.25068 0.19942,0.49468 0.29884,0.73204 0.1,0.23734 0.1994,0.46765 0.29941,0.69055 0.0994,0.22291 0.19941,0.43841 0.29882,0.64613 0.1,0.20773 0.19942,0.40768 0.29941,0.59911 0.1,0.1918 0.19942,0.37509 0.29941,0.54986 0.0994,0.17477 0.19942,0.34102 0.29883,0.49802 0.1,0.15737 0.19942,0.30584 0.2994,0.4447 0.0994,0.13922 0.19943,0.26919 0.29884,0.38953 0.1,0.12034 0.19942,0.23142 0.29941,0.33251 0.0994,0.10145 0.19941,0.19291 0.29941,0.27474 0.0994,0.0815 0.19941,0.15329 0.29882,0.21513 0.10001,0.0618 0.19943,0.11367 0.29942,0.15514 0.0994,0.0418 0.19941,0.0733 0.29883,0.0948 0.1,0.0215 0.19941,0.0326 0.29941,0.0337 0.0994,7.8e-4 0.19941,-0.008 0.29882,-0.0278 0.1,-0.0192 0.2,-0.0489 0.29942,-0.0885 0.1,-0.0396 0.1994,-0.0896 0.29941,-0.14923 0.0994,-0.06 0.1994,-0.12959 0.29882,-0.20957 0.1,-0.0796 0.19942,-0.16921 0.29941,-0.26845 0.0994,-0.0996 0.19942,-0.20846 0.29884,-0.32695 0.1,-0.11849 0.1994,-0.2466 0.29941,-0.38397 0.1,-0.13738 0.1994,-0.28364 0.2994,-0.43916 0.0994,-0.15551 0.19942,-0.31991 0.29883,-0.4932 0.1,-0.17292 0.19941,-0.35472 0.29941,-0.54468 0.0994,-0.18995 0.19941,-0.38804 0.29883,-0.59429 0.1,-0.20587 0.19941,-0.41989 0.29941,-0.64131 0.0994,-0.22143 0.19942,-0.45063 0.2994,-0.68649 0.0994,-0.23587 0.19943,-0.47877 0.29884,-0.72834 0.1,-0.24919 0.19941,-0.50542 0.2994,-0.76721 0.0994,-0.26215 0.19942,-0.53023 0.29883,-0.80349 0.1,-0.27363 0.19943,-0.55283 0.29941,-0.83645 0.0994,-0.284 0.19942,-0.57319 0.29884,-0.86645 0.1,-0.29326 0.19998,-0.59059 0.2994,-0.89236 0.10001,-0.3014 0.19942,-0.60651 0.29941,-0.91495 0.0994,-0.30844 0.19942,-0.61984 0.29883,-0.93421 0.1,-0.31398 0.19942,-0.63094 0.29942,-0.94938 0.0994,-0.31881 0.1994,-0.63946 0.29882,-0.96123 0.1,-0.32214 0.19942,-0.64539 0.29941,-0.96939 v -1.02823"
       title="sin(x)"
       id="path3432" />
  </g>
</svg>
