<?xml version="1.0" encoding="UTF-8" standalone="no"?>
<svg
   fill="#000000"
   version="1.1"
   id="puzzle"
   width="60"
   height="50"
   viewBox="0 0 60 50"
   xml:space="preserve"
   sodipodi:docname="puzzle-piece-big.svg"
   inkscape:version="1.4-dev (de72ba3c18, 2023-06-27)"
   xmlns:inkscape="http://www.inkscape.org/namespaces/inkscape"
   xmlns:sodipodi="http://sodipodi.sourceforge.net/DTD/sodipodi-0.dtd"
   xmlns="http://www.w3.org/2000/svg"
   xmlns:svg="http://www.w3.org/2000/svg"><defs
   id="defs141">&#10;	&#10;&#10;		&#10;	</defs><sodipodi:namedview
   id="namedview139"
   pagecolor="#ffffff"
   bordercolor="#000000"
   borderopacity="0.25"
   inkscape:showpageshadow="2"
   inkscape:pageopacity="0.0"
   inkscape:pagecheckerboard="0"
   inkscape:deskcolor="#d1d1d1"
   showgrid="true"
   inkscape:zoom="5.6568542"
   inkscape:cx="29.698485"
   inkscape:cy="25.986174"
   inkscape:window-width="1269"
   inkscape:window-height="813"
   inkscape:window-x="0"
   inkscape:window-y="38"
   inkscape:window-maximized="0"
   inkscape:current-layer="puzzle"><inkscape:grid
     type="xygrid"
     id="grid445"
     originx="0"
     originy="0"
     spacingy="1"
     spacingx="1"
     units="px" /></sodipodi:namedview>&#10;<path
   d="m 16.46339,43.571569 v -9.56506 c 0,-0.389818 -0.210424,-0.749287 -0.550009,-0.940428 -0.339595,-0.190975 -0.756386,-0.184298 -1.089339,0.01874 -0.884843,0.539549 -1.923911,0.850104 -3.040175,0.850104 C 8.53067,33.935833 5.894449,31.298303 5.894449,28.044901 5.89436,24.791776 8.53067,22.153807 11.783686,22.15426 v -1.31e-4 c 1.116537,-1.84e-4 2.155332,0.310368 3.040356,0.850026 0.332953,0.203073 0.749923,0.210523 1.089875,0.01942 0.339955,-0.191153 0.549473,-0.550985 0.549473,-0.94108 v -6.817569 c 0,-1.079761 0.907466,-1.948192 1.987375,-1.948192 h 7.440166 c 0.381693,0 0.735021,-0.201825 0.929009,-0.530507 0.193986,-0.328763 0.200185,-0.735823 0.01549,-1.069887 -0.468589,-0.846526 -0.7352,-1.8221507 -0.7352,-2.8568523 0,-3.25294 2.636849,-5.8918966 5.890315,-5.8918966 3.252475,0 5.888879,2.6398524 5.888879,5.8928847 0,1.0345264 -0.266596,2.0096982 -0.734931,2.8559562 -0.185021,0.33424 -0.179458,0.741392 0.01464,1.070424 0.194098,0.32904 0.547705,0.529878 0.929579,0.529878 h 8.594846 c 1.08009,0 1.976067,0.868431 1.976067,1.948192 v 6.645102 c 0,0.379852 -0.199836,0.731704 -0.525955,0.926336 -0.326125,0.194641 -0.730981,0.203802 -1.065005,0.02308 -0.831886,-0.449973 -1.784236,-0.705483 -2.79637,-0.705215 -3.253107,-3.6e-4 -5.889871,2.637433 -5.889871,5.890561 0,3.253399 2.636764,5.890914 5.889871,5.890018 1.012225,0 1.964575,-0.255609 2.796455,-0.705393 0.334387,-0.180842 0.739149,-0.172378 1.06564,0.02255 0.326394,0.19487 0.525323,0.546999 0.525323,0.927027 v 9.392583 c -2.9e-5,1.080301 -0.895918,1.955735 -1.973482,1.960055 l -8.508259,0.0044 c -0.379774,1.96e-4 -0.731554,-0.199878 -0.926147,-0.526063 -0.194595,-0.326191 -0.20376,-0.731129 -0.02313,-1.065222 0.449883,-0.832055 0.70534,-1.784599 0.705071,-2.796939 3.6e-4,-3.25377 -2.636896,-5.891071 -5.889358,-5.891071 -3.252738,0 -5.889715,2.637301 -5.888819,5.891071 0,1.012431 0.255556,1.964975 0.705249,2.797024 0.180804,0.334456 0.172343,0.7393 -0.02255,1.065858 -0.19483,0.32646 -0.546888,0.52543 -0.926838,0.52543 l -7.46349,-0.0044 c -1.076834,-0.0044 -1.98457,-0.879848 -1.98457,-1.960149 z"
   id="path132"
   style="fill:#e0e0e0;stroke:#000000;stroke-width:1;stroke-linejoin:bevel"
   sodipodi:nodetypes="ssccccccccssssccssscssssssccsccssccssccsccsscs" />&#10;</svg>
