<svg width="16" height="16" viewBox="0 0 16 16" fill="none" xmlns="http://www.w3.org/2000/svg">
<g id="accessories-character-map">
<path id="Union" fill-rule="evenodd" clip-rule="evenodd" d="M4 4.15139L3.41987 5.02158C3.1461 5.43225 3 5.91476 3 6.40833V11C3 11.3163 3.09792 11.6098 3.26511 11.8517L4.48944 9.40308C4.18559 9.07346 4 8.63316 4 8.14951V4.15139ZM4.5 12.5C4.35701 12.5 4.2187 12.48 4.0877 12.4426L5.34425 9.92953C5.505 9.97512 5.67465 9.99951 5.85 9.99951H10.15C10.3254 9.99951 10.495 9.97512 10.6557 9.92953L11.9123 12.4426C11.7813 12.48 11.643 12.5 11.5 12.5H4.5ZM12.7349 11.8517C12.9021 11.6098 13 11.3163 13 11V6.40833C13 5.91476 12.8539 5.43225 12.5801 5.02158L12 4.15139V8.14951C12 8.63316 11.8144 9.07346 11.5106 9.40308L12.7349 11.8517ZM5.82091 3H10.1791C10.6351 3.01533 11 3.3898 11 3.84951V8.14951C11 8.61895 10.6194 8.99951 10.15 8.99951H5.85C5.38056 8.99951 5 8.61895 5 8.14951V3.84951C5 3.3898 5.36494 3.01533 5.82091 3ZM10.1929 2H10.4296C11.2655 2 12.0461 2.41775 12.5098 3.11325L13.4122 4.46688C13.7955 5.04181 14 5.71734 14 6.40833V11C14 12.3807 12.8807 13.5 11.5 13.5H4.5C3.11929 13.5 2 12.3807 2 11V6.40833C2 5.71734 2.20453 5.04181 2.58782 4.46688L3.49024 3.11325C3.95391 2.41775 4.73449 2 5.57037 2H5.80707C5.82134 1.99968 5.83565 1.99951 5.85 1.99951H10.15C10.1643 1.99951 10.1787 1.99968 10.1929 2Z" fill="black"/>
</g>
</svg>
