<svg width="16" height="16" viewBox="0 0 16 16" fill="none" xmlns="http://www.w3.org/2000/svg">
<g id="align-horizontal-left">
<rect id="rectangle" opacity="0.3" x="3" y="9" width="12" height="4" rx="0.5" fill="black"/>
<path id="Union" fill-rule="evenodd" clip-rule="evenodd" d="M4 6V4H8V6H4ZM3 3.5C3 3.22386 3.22386 3 3.5 3H8.5C8.77614 3 9 3.22386 9 3.5V6.5C9 6.77614 8.77614 7 8.5 7H3.5C3.22386 7 3 6.77614 3 6.5V3.5ZM4 12V10H14V12H4ZM3 9.5C3 9.22386 3.22386 9 3.5 9H14.5C14.7761 9 15 9.22386 15 9.5V12.5C15 12.7761 14.7761 13 14.5 13H3.5C3.22386 13 3 12.7761 3 12.5V9.5Z" fill="black"/>
<rect id="neutral" width="1" height="16" rx="0.5" fill="black"/>
</g>
</svg>
