<svg width="16" height="16" viewBox="0 0 16 16" fill="none" xmlns="http://www.w3.org/2000/svg">
<g id="align-vertical-center">
<rect id="rectangle" opacity="0.3" x="9" y="2" width="4" height="12" rx="0.5" fill="black"/>
<path id="Union" fill-rule="evenodd" clip-rule="evenodd" d="M10 13V3H12V13H10ZM9 2.5C9 2.22386 9.22386 2 9.5 2H12.5C12.7761 2 13 2.22386 13 2.5V13.5C13 13.7761 12.7761 14 12.5 14H9.5C9.22386 14 9 13.7761 9 13.5V2.5ZM4 10V6H6V10H4ZM3 5.5C3 5.22386 3.22386 5 3.5 5H6.5C6.77614 5 7 5.22386 7 5.5V10.5C7 10.7761 6.77614 11 6.5 11H3.5C3.22386 11 3 10.7761 3 10.5V5.5Z" fill="black"/>
<path id="neutral" fill-rule="evenodd" clip-rule="evenodd" d="M0.5 7.5C0.223858 7.5 0 7.72386 0 8C0 8.27614 0.223858 8.5 0.5 8.5H3.5C3.77614 8.5 4 8.27614 4 8C4 7.72386 3.77614 7.5 3.5 7.5H0.5ZM6 8C6 7.72386 6.22386 7.5 6.5 7.5H9.5C9.77614 7.5 10 7.72386 10 8C10 8.27614 9.77614 8.5 9.5 8.5H6.5C6.22386 8.5 6 8.27614 6 8ZM12 8C12 7.72386 12.2239 7.5 12.5 7.5H15.5C15.7761 7.5 16 7.72386 16 8C16 8.27614 15.7761 8.5 15.5 8.5H12.5C12.2239 8.5 12 8.27614 12 8Z" fill="black"/>
</g>
</svg>
