<svg width="16" height="16" viewBox="0 0 16 16" fill="none" xmlns="http://www.w3.org/2000/svg">
<g id="align-horizontal-center">
<rect id="rectangle" opacity="0.3" x="2" y="9" width="12" height="4" rx="0.5" fill="black"/>
<path id="Union" fill-rule="evenodd" clip-rule="evenodd" d="M6 6V4H10V6H6ZM5 3.5C5 3.22386 5.22386 3 5.5 3H10.5C10.7761 3 11 3.22386 11 3.5V6.5C11 6.77614 10.7761 7 10.5 7H5.5C5.22386 7 5 6.77614 5 6.5V3.5ZM3 12V10H13V12H3ZM2 9.5C2 9.22386 2.22386 9 2.5 9H13.5C13.7761 9 14 9.22386 14 9.5V12.5C14 12.7761 13.7761 13 13.5 13H2.5C2.22386 13 2 12.7761 2 12.5V9.5Z" fill="black"/>
<path id="neutral" fill-rule="evenodd" clip-rule="evenodd" d="M7.5 0.5C7.5 0.223858 7.72386 0 8 0C8.27614 0 8.5 0.223858 8.5 0.5V3.5C8.5 3.77614 8.27614 4 8 4C7.72386 4 7.5 3.77614 7.5 3.5V0.5ZM7.5 6.5C7.5 6.22386 7.72386 6 8 6C8.27614 6 8.5 6.22386 8.5 6.5V9.5C8.5 9.77614 8.27614 10 8 10C7.72386 10 7.5 9.77614 7.5 9.5V6.5ZM8 12C7.72386 12 7.5 12.2239 7.5 12.5V15.5C7.5 15.7761 7.72386 16 8 16C8.27614 16 8.5 15.7761 8.5 15.5V12.5C8.5 12.2239 8.27614 12 8 12Z" fill="black"/>
</g>
</svg>
