<svg width="16" height="16" viewBox="0 0 16 16" fill="none" xmlns="http://www.w3.org/2000/svg">
<g id="align-horizontal-right-to-anchor">
<path id="neutral" opacity="0.3" fill-rule="evenodd" clip-rule="evenodd" d="M6.5 6C6.22386 6 6 6.22386 6 6.5V9.5C6 9.77614 6.22386 10 6.5 10H11.5C11.7761 10 12 9.77614 12 9.5V6.5C12 6.22386 11.7761 6 11.5 6H6.5ZM0.5 12C0.223858 12 0 12.2239 0 12.5V15.5C0 15.7761 0.223858 16 0.5 16H11.5C11.7761 16 12 15.7761 12 15.5V12.5C12 12.2239 11.7761 12 11.5 12H0.5Z" fill="black"/>
<path id="neutral_2" fill-rule="evenodd" clip-rule="evenodd" d="M7 9V7H11V9H7ZM6 6.5C6 6.22386 6.22386 6 6.5 6H11.5C11.7761 6 12 6.22386 12 6.5V9.5C12 9.77614 11.7761 10 11.5 10H6.5C6.22386 10 6 9.77614 6 9.5V6.5ZM1 15V13H11V15H1ZM0 12.5C0 12.2239 0.223858 12 0.5 12H11.5C11.7761 12 12 12.2239 12 12.5V15.5C12 15.7761 11.7761 16 11.5 16H0.5C0.223858 16 0 15.7761 0 15.5V12.5Z" fill="black"/>
<path id="neutral_3" d="M12 0.5C12 0.223858 12.2239 0 12.5 0H15.5C15.7761 0 16 0.223858 16 0.5V3.5C16 3.77614 15.7761 4 15.5 4H12.5C12.2239 4 12 3.77614 12 3.5V0.5Z" fill="black"/>
</g>
</svg>
