<svg width="16" height="16" viewBox="0 0 16 16" fill="none" xmlns="http://www.w3.org/2000/svg">
<g id="align-vertical-bottom">
<rect id="rectangle" opacity="0.3" x="9" y="1" width="4" height="12" rx="0.5" fill="black"/>
<path id="Union" fill-rule="evenodd" clip-rule="evenodd" d="M12 12H10V2H12V12ZM9 1.5C9 1.22386 9.22386 1 9.5 1H12.5C12.7761 1 13 1.22386 13 1.5V12.5C13 12.7761 12.7761 13 12.5 13H9.5C9.22386 13 9 12.7761 9 12.5V1.5ZM4 12V8H6V12H4ZM3 7.5C3 7.22386 3.22386 7 3.5 7H6.5C6.77614 7 7 7.22386 7 7.5V12.5C7 12.7761 6.77614 13 6.5 13H3.5C3.22386 13 3 12.7761 3 12.5V7.5Z" fill="black"/>
<rect id="neutral" y="15" width="16" height="1" rx="0.5" fill="black"/>
</g>
</svg>
