<svg width="16" height="16" viewBox="0 0 16 16" fill="none" xmlns="http://www.w3.org/2000/svg">
<g id="align-vertical-baseline">
<path id="Union" fill-rule="evenodd" clip-rule="evenodd" d="M1.21094 11H2.91122L3.34181 9.62575H5.60225L6.03374 11H7.73402L5.52557 4.45459H3.41939L1.21094 11ZM5.22495 8.42405L4.49645 6.10374H4.44531L3.71832 8.42405H5.22495ZM9.92045 13.7962C10.0866 13.826 10.2635 13.841 10.451 13.841C10.826 13.841 11.1413 13.7824 11.397 13.6652C11.6548 13.548 11.8647 13.3861 12.0266 13.1794C12.1907 12.9748 12.3175 12.7383 12.407 12.4699L14.2575 7.09095H12.6115L11.6942 10.5938H11.6431L10.7386 7.09095H9.10227L10.8473 12.179L10.7866 12.326C10.7376 12.4475 10.6673 12.5316 10.5756 12.5785C10.4862 12.6275 10.3786 12.6478 10.2528 12.6392C10.1293 12.6307 9.99077 12.6009 9.83736 12.5498L9.49219 13.6843C9.61151 13.7312 9.75426 13.7685 9.92045 13.7962Z" fill="black"/>
<rect id="neutral" y="12" width="8" height="1" rx="0.5" fill="black"/>
<rect id="neutral_2" x="14" y="12" width="2" height="1" rx="0.5" fill="black"/>
</g>
</svg>
