<svg width="16" height="16" viewBox="0 0 16 16" fill="none" xmlns="http://www.w3.org/2000/svg">
<g id="align-vertical-node">
<path id="neutral" fill-rule="evenodd" clip-rule="evenodd" d="M0 8C0 7.72386 0.223858 7.5 0.5 7.5H2V8.5H0.5C0.223858 8.5 0 8.27614 0 8ZM7 7.5H9V8.5H7V7.5ZM15.5 7.5H14V8.5H15.5C15.7761 8.5 16 8.27614 16 8C16 7.72386 15.7761 7.5 15.5 7.5Z" fill="black"/>
<path id="Union" fill-rule="evenodd" clip-rule="evenodd" d="M4.5 5L3.79289 5.70711L2.20711 7.29289L1.5 8L2.20711 8.70711L3.79289 10.2929L4.5 11L5.20711 10.2929L6.79289 8.70711L7.5 8L6.79289 7.29289L5.20711 5.70711L4.5 5ZM4.5 9.58579L2.91421 8L4.5 6.41421L6.08579 8L4.5 9.58579ZM11.5 5L10.7929 5.70711L9.20711 7.29289L8.5 8L9.20711 8.70711L10.7929 10.2929L11.5 11L12.2071 10.2929L13.7929 8.70711L14.5 8L13.7929 7.29289L12.2071 5.70711L11.5 5ZM11.5 9.58579L9.91421 8L11.5 6.41421L13.0858 8L11.5 9.58579Z" fill="black"/>
</g>
</svg>
