<svg width="16" height="16" viewBox="0 0 16 16" fill="none" xmlns="http://www.w3.org/2000/svg">
<g id="align-horizontal-node">
<path id="neutral" fill-rule="evenodd" clip-rule="evenodd" d="M7.5 0.5C7.5 0.223858 7.72386 0 8 0C8.27614 0 8.5 0.223858 8.5 0.5V2.5C8.5 2.77614 8.27614 3 8 3C7.72386 3 7.5 2.77614 7.5 2.5V0.5ZM7.5 13.5C7.5 13.2239 7.72386 13 8 13C8.27614 13 8.5 13.2239 8.5 13.5V15.5C8.5 15.7761 8.27614 16 8 16C7.72386 16 7.5 15.7761 7.5 15.5V13.5ZM8 6C7.72386 6 7.5 6.22386 7.5 6.5V9.5C7.5 9.77614 7.72386 10 8 10C8.27614 10 8.5 9.77614 8.5 9.5V6.5C8.5 6.22386 8.27614 6 8 6Z" fill="black"/>
<path id="Union" fill-rule="evenodd" clip-rule="evenodd" d="M8 1.5L7.29289 2.20711L5.70711 3.79289L5 4.5L5.70711 5.20711L7.29289 6.79289L8 7.5L8.70711 6.79289L10.2929 5.20711L11 4.5L10.2929 3.79289L8.70711 2.20711L8 1.5ZM8 6.08579L6.41421 4.5L8 2.91421L9.58579 4.5L8 6.08579ZM8 8.5L7.29289 9.20711L5.70711 10.7929L5 11.5L5.70711 12.2071L7.29289 13.7929L8 14.5L8.70711 13.7929L10.2929 12.2071L11 11.5L10.2929 10.7929L8.70711 9.20711L8 8.5ZM8 13.0858L6.41421 11.5L8 9.91421L9.58579 11.5L8 13.0858Z" fill="black"/>
</g>
</svg>
