<svg width="16" height="16" viewBox="0 0 16 16" fill="none" xmlns="http://www.w3.org/2000/svg">
<g id="align-vertical-top-to-anchor">
<path id="neutral" opacity="0.3" fill-rule="evenodd" clip-rule="evenodd" d="M0.5 4C0.223858 4 0 4.22386 0 4.5V15.5C0 15.7761 0.223858 16 0.5 16H3.5C3.77614 16 4 15.7761 4 15.5V4.5C4 4.22386 3.77614 4 3.5 4H0.5ZM6.5 4C6.22386 4 6 4.22386 6 4.5V9.5C6 9.77614 6.22386 10 6.5 10H9.5C9.77614 10 10 9.77614 10 9.5V4.5C10 4.22386 9.77614 4 9.5 4H6.5Z" fill="black"/>
<path id="neutral_2" fill-rule="evenodd" clip-rule="evenodd" d="M1 15V5H3V15H1ZM0 4.5C0 4.22386 0.223858 4 0.5 4H3.5C3.77614 4 4 4.22386 4 4.5V15.5C4 15.7761 3.77614 16 3.5 16H0.5C0.223858 16 0 15.7761 0 15.5V4.5ZM7 9V5H9V9H7ZM6 4.5C6 4.22386 6.22386 4 6.5 4H9.5C9.77614 4 10 4.22386 10 4.5V9.5C10 9.77614 9.77614 10 9.5 10H6.5C6.22386 10 6 9.77614 6 9.5V4.5Z" fill="black"/>
<path id="neutral_3" d="M12 0.5C12 0.223858 12.2239 0 12.5 0H15.5C15.7761 0 16 0.223858 16 0.5V3.5C16 3.77614 15.7761 4 15.5 4H12.5C12.2239 4 12 3.77614 12 3.5V0.5Z" fill="black"/>
</g>
</svg>
