<svg width="16" height="16" viewBox="0 0 16 16" fill="none" xmlns="http://www.w3.org/2000/svg">
<g id="align-horizontal-baseline">
<path id="Union" fill-rule="evenodd" clip-rule="evenodd" d="M6.21096 7.00004H7.91124L8.34183 5.62575H10.6023L11.0338 7.00004H12.734L10.5256 0.45459H8.41941L6.21096 7.00004ZM10.225 4.42405L9.49647 2.10374H9.44533L8.71834 4.42405H10.225ZM6.92048 15.7962C7.08667 15.826 7.26352 15.841 7.45102 15.841C7.82602 15.841 8.14136 15.7824 8.39704 15.6652C8.65485 15.548 8.86472 15.3861 9.02666 15.1794C9.19072 14.9748 9.31749 14.7383 9.40698 14.4699L11.2575 9.09095H9.61153L8.69427 12.5938H8.64313L7.73866 9.09095H6.10229L7.84732 14.179L7.7866 14.326C7.73759 14.4475 7.66728 14.5316 7.57566 14.5785C7.48617 14.6275 7.37857 14.6478 7.25286 14.6392C7.12928 14.6307 6.99079 14.6009 6.83738 14.5498L6.49221 15.6843C6.61153 15.7312 6.75428 15.7685 6.92048 15.7962Z" fill="black"/>
<rect id="neutral" x="3" width="1" height="16" rx="0.5" fill="black"/>
</g>
</svg>
