<svg width="16" height="16" viewBox="0 0 16 16" fill="none" xmlns="http://www.w3.org/2000/svg">
<g id="align-horizontal-left-to-anchor">
<path id="Union" opacity="0.3" fill-rule="evenodd" clip-rule="evenodd" d="M4.5 6C4.22386 6 4 6.22386 4 6.5V9.5C4 9.77614 4.22386 10 4.5 10H9.5C9.77614 10 10 9.77614 10 9.5V6.5C10 6.22386 9.77614 6 9.5 6H4.5ZM4.5 12C4.22386 12 4 12.2239 4 12.5V15.5C4 15.7761 4.22386 16 4.5 16H15.5C15.7761 16 16 15.7761 16 15.5V12.5C16 12.2239 15.7761 12 15.5 12H4.5Z" fill="black"/>
<path id="Union_2" fill-rule="evenodd" clip-rule="evenodd" d="M5 9V7H9V9H5ZM4 6.5C4 6.22386 4.22386 6 4.5 6H9.5C9.77614 6 10 6.22386 10 6.5V9.5C10 9.77614 9.77614 10 9.5 10H4.5C4.22386 10 4 9.77614 4 9.5V6.5ZM5 15V13H15V15H5ZM4 12.5C4 12.2239 4.22386 12 4.5 12H15.5C15.7761 12 16 12.2239 16 12.5V15.5C16 15.7761 15.7761 16 15.5 16H4.5C4.22386 16 4 15.7761 4 15.5V12.5Z" fill="black"/>
<path id="neutral" d="M0 0.5C0 0.223858 0.223858 0 0.5 0H3.5C3.77614 0 4 0.223858 4 0.5V3.5C4 3.77614 3.77614 4 3.5 4H0.5C0.223858 4 0 3.77614 0 3.5V0.5Z" fill="black"/>
</g>
</svg>
