<svg width="16" height="16" viewBox="0 0 16 16" fill="none" xmlns="http://www.w3.org/2000/svg">
<g id="align-vertical-bottom-to-anchor">
<path id="neutral" opacity="0.3" fill-rule="evenodd" clip-rule="evenodd" d="M0.5 0C0.223858 0 0 0.223858 0 0.5V11.5C0 11.7761 0.223858 12 0.5 12H3.5C3.77614 12 4 11.7761 4 11.5V0.5C4 0.223858 3.77614 0 3.5 0H0.5ZM6.5 6C6.22386 6 6 6.22386 6 6.5V11.5C6 11.7761 6.22386 12 6.5 12H9.5C9.77614 12 10 11.7761 10 11.5V6.5C10 6.22386 9.77614 6 9.5 6H6.5Z" fill="black"/>
<path id="neutral_2" fill-rule="evenodd" clip-rule="evenodd" d="M1 11V1H3V11H1ZM0 0.5C0 0.223858 0.223858 0 0.5 0H3.5C3.77614 0 4 0.223858 4 0.5V11.5C4 11.7761 3.77614 12 3.5 12H0.5C0.223858 12 0 11.7761 0 11.5V0.5ZM7 11V7H9V11H7ZM6 6.5C6 6.22386 6.22386 6 6.5 6H9.5C9.77614 6 10 6.22386 10 6.5V11.5C10 11.7761 9.77614 12 9.5 12H6.5C6.22386 12 6 11.7761 6 11.5V6.5Z" fill="black"/>
<path id="neutral_3" d="M12 12.5C12 12.2239 12.2239 12 12.5 12H15.5C15.7761 12 16 12.2239 16 12.5V15.5C16 15.7761 15.7761 16 15.5 16H12.5C12.2239 16 12 15.7761 12 15.5V12.5Z" fill="black"/>
</g>
</svg>
