<svg width="16" height="16" viewBox="0 0 16 16" fill="none" xmlns="http://www.w3.org/2000/svg">
<g id="align-sel-as-group" clip-path="url(#clip0_241_9468)">
<path id="Union" fill-rule="evenodd" clip-rule="evenodd" d="M0.5 0C0.223858 0 0 0.223858 0 0.5V1.5C0 1.77614 0.223858 2 0.5 2H1V14H0.5C0.223858 14 0 14.2239 0 14.5V15.5C0 15.7761 0.223858 16 0.5 16H1.5C1.77614 16 2 15.7761 2 15.5V15H14V15.5C14 15.7761 14.2239 16 14.5 16H15.5C15.7761 16 16 15.7761 16 15.5V14.5C16 14.2239 15.7761 14 15.5 14H15V2L15.5 2C15.7761 2 16 1.77614 16 1.5V0.5C16 0.223858 15.7761 0 15.5 0H14.5C14.2239 0 14 0.223858 14 0.5V1H2L2 0.5C2 0.223858 1.77614 0 1.5 0H0.5ZM14 2H2V14H14V2ZM4 4.5C4 4.22386 4.22386 4 4.5 4H6.5C6.77614 4 7 4.22386 7 4.5V11.5C7 11.7761 6.77614 12 6.5 12H4.5C4.22386 12 4 11.7761 4 11.5V4.5ZM9 6.5C9 6.22386 9.22386 6 9.5 6H11.5C11.7761 6 12 6.22386 12 6.5V9.5C12 9.77614 11.7761 10 11.5 10H9.5C9.22386 10 9 9.77614 9 9.5V6.5Z" fill="black"/>
</g>
<defs>
<clipPath id="clip0_241_9468">
<rect width="16" height="16" fill="white"/>
</clipPath>
</defs>
</svg>
