<svg width="16" height="16" viewBox="0 0 16 16" fill="none" xmlns="http://www.w3.org/2000/svg">
<g id="applications-graphics" clip-path="url(#clip0_719_7708)">
<g id="folder-open">
<path id="Vector 672" opacity="0.3" d="M5.5 3.5H2L1.5 4V13L2 13.5L3.5 12L5 7.5L6 7H12.5V4.5H7L5.5 3.5Z" fill="black"/>
<path id="Union" fill-rule="evenodd" clip-rule="evenodd" d="M2.00195 2.5C1.44967 2.5 1.00195 2.94772 1.00195 3.5V13C1.00195 13.5523 1.44967 14 2.00195 14H8.00106H11.502H12.3058C13.237 14 14.045 13.3573 14.2546 12.45L15.3457 7.72501C15.4904 7.09836 15.0145 6.5 14.3714 6.5H13.0008L13.0002 4.99961C13 4.44748 12.5523 4 12.0002 4L7.16667 4L5.43333 2.7C5.26024 2.57018 5.0497 2.5 4.83333 2.5H2.00195ZM12.5012 7.5C12.501 7.5 12.5009 7.5 12.5008 7.5H9.50206H5.39105C5.16527 7.5 4.96751 7.6513 4.90846 7.86922L3.74441 12.1647C3.65571 12.492 3.48048 12.7777 3.2474 13H8.00106H11.502H12.3058C12.7714 13 13.1754 12.6787 13.2802 12.225L14.3714 7.5H12.5012ZM2.00195 12.5C2.36574 12.4987 2.68401 12.2544 2.77922 11.9031L3.94327 7.60766C4.12043 6.95391 4.71372 6.5 5.39105 6.5H9.50206H12.0008L12.0002 5H7.16667C6.9503 5 6.73976 4.92982 6.56667 4.8L4.83333 3.5H2.00195V12.5Z" fill="black"/>
</g>
</g>
<defs>
<clipPath id="clip0_719_7708">
<rect width="16" height="16" fill="white"/>
</clipPath>
</defs>
</svg>
