<svg width="16" height="16" viewBox="0 0 16 16" fill="none" xmlns="http://www.w3.org/2000/svg">
<g id="arrange-circular">
<path id="Union" fill-rule="evenodd" clip-rule="evenodd" d="M9.00011 1H7.00011V3H9.00011V1ZM7.00011 0C6.44782 0 6.00011 0.447715 6.00011 1V3C6.00011 3.55228 6.44782 4 7.00011 4H9.00011C9.55239 4 10.0001 3.55228 10.0001 3V1C10.0001 0.447715 9.55239 0 9.00011 0H7.00011ZM9.50024 8C9.50024 8.82843 8.82867 9.5 8.00024 9.5C7.17182 9.5 6.50024 8.82843 6.50024 8C6.50024 7.17157 7.17182 6.5 8.00024 6.5C8.82867 6.5 9.50024 7.17157 9.50024 8ZM1.43791 5.36591L2.43791 3.63386L4.16996 4.63386L3.16996 6.36591L1.43791 5.36591ZM0.937911 6.23193C0.459619 5.95579 0.295743 5.3442 0.571886 4.86591L1.57189 3.13386C1.84803 2.65556 2.45962 2.49169 2.93791 2.76783L4.66996 3.76783C5.14825 4.04397 5.31213 4.65556 5.03599 5.13386L4.03599 6.86591C3.75985 7.3442 3.14825 7.50808 2.66996 7.23193L0.937911 6.23193ZM14.5623 5.36614L13.5623 3.63409L11.8303 4.63409L12.8303 6.36614L14.5623 5.36614ZM14.4283 3.13409C14.1522 2.6558 13.5406 2.49192 13.0623 2.76807L11.3303 3.76807C10.852 4.04421 10.6881 4.6558 10.9642 5.13409L11.9642 6.86614C12.2404 7.34444 12.852 7.50831 13.3303 7.23217L15.0623 6.23217C15.5406 5.95603 15.7045 5.34444 15.4283 4.86614L14.4283 3.13409ZM7.00011 13H9.00011V15H7.00011V13ZM6.00011 13C6.00011 12.4477 6.44782 12 7.00011 12H9.00011C9.55239 12 10.0001 12.4477 10.0001 13V15C10.0001 15.5523 9.55239 16 9.00011 16H7.00011C6.44782 16 6.00011 15.5523 6.00011 15V13ZM12.8302 9.63386L11.8302 11.3659L13.5623 12.3659L14.5623 10.6339L12.8302 9.63386ZM10.9642 10.8659C10.6881 11.3442 10.852 11.9558 11.3302 12.2319L13.0623 13.2319C13.5406 13.5081 14.1522 13.3442 14.4283 12.8659L15.4283 11.1339C15.7045 10.6556 15.5406 10.044 15.0623 9.76783L13.3302 8.76783C12.852 8.49169 12.2404 8.65556 11.9642 9.13386L10.9642 10.8659ZM3.16997 9.63409L4.16997 11.3661L2.43792 12.3661L1.43792 10.6341L3.16997 9.63409ZM2.66997 8.76807C3.14826 8.49192 3.75985 8.6558 4.036 9.13409L5.036 10.8661C5.31214 11.3444 5.14826 11.956 4.66997 12.2322L2.93792 13.2322C2.45963 13.5083 1.84804 13.3444 1.5719 12.8661L0.571895 11.1341C0.295753 10.6558 0.459628 10.0442 0.937921 9.76807L2.66997 8.76807Z" fill="black"/>
</g>
</svg>
