<svg width="16" height="16" viewBox="0 0 16 16" fill="none" xmlns="http://www.w3.org/2000/svg">
<g id="arrange-grid">
<path id="Union" fill-rule="evenodd" clip-rule="evenodd" d="M3 3H6V6H3L3 3ZM2 3C2 2.44772 2.44772 2 3 2H6C6.55228 2 7 2.44772 7 3V6C7 6.55228 6.55228 7 6 7H3C2.44772 7 2 6.55228 2 6V3ZM3 10H6V13H3L3 10ZM2 10C2 9.44772 2.44772 9 3 9H6C6.55228 9 7 9.44772 7 10V13C7 13.5523 6.55228 14 6 14H3C2.44772 14 2 13.5523 2 13V10ZM13 3H10V6H13V3ZM10 2C9.44772 2 9 2.44772 9 3V6C9 6.55228 9.44772 7 10 7H13C13.5523 7 14 6.55228 14 6V3C14 2.44772 13.5523 2 13 2H10ZM10 10H13V13H10V10ZM9 10C9 9.44772 9.44772 9 10 9H13C13.5523 9 14 9.44772 14 10V13C14 13.5523 13.5523 14 13 14H10C9.44772 14 9 13.5523 9 13V10Z" fill="black"/>
</g>
</svg>
