<svg width="16" height="16" viewBox="0 0 16 16" fill="none" xmlns="http://www.w3.org/2000/svg">
<g id="attach-path" clip-path="url(#clip0_241_9594)">
<path class="warning" fill-rule="evenodd" clip-rule="evenodd" d="M13.1705 4.67093C13.2617 5.27873 13.382 5.86355 13.5125 6.42089L14.4861 6.19291C14.3482 5.6037 14.2245 4.99338 14.1364 4.36377L13.4998 5.0003L13.1705 4.67093ZM1.5138 6.19292C1.65175 5.60372 1.77543 4.99341 1.86355 4.36381L2.49994 5.0002L2.8295 4.67064C2.73831 5.27855 2.61798 5.86346 2.48747 6.42089L1.5138 6.19292ZM14.8864 7.76439C14.9987 8.18729 15.108 8.59873 15.2008 8.98566L14.2283 9.21869C14.1383 8.84316 14.0345 8.45265 13.9243 8.03792L13.9243 8.03781L13.9243 8.03772L13.9242 8.03751C13.8666 7.82075 13.8073 7.59738 13.7472 7.36607L14.7151 7.11473C14.7718 7.33309 14.8295 7.55021 14.8864 7.76439ZM1.11358 7.76435C1.17048 7.55019 1.22815 7.33308 1.28485 7.11474L2.25275 7.36606C2.19266 7.59748 2.13328 7.82095 2.07566 8.03781L2.07566 8.03781C1.96545 8.45258 1.86168 8.84312 1.77169 9.21869L0.799214 8.98566C0.891933 8.59873 1.00124 8.18727 1.11358 7.76435ZM15.4037 9.96223C15.463 10.3193 15.5 10.6673 15.5 11.0002C15.5 11.3148 15.4772 11.6128 15.4295 11.8927L14.4437 11.725C14.4806 11.5081 14.5 11.267 14.5 11.0002C14.5 10.7388 14.4708 10.4483 14.4172 10.126L15.4037 9.96223ZM0.5 11.0002C0.5 10.6673 0.536985 10.3193 0.596253 9.96223L1.58275 10.126C1.52924 10.4483 1.5 10.7388 1.5 11.0002C1.5 11.2471 1.52611 11.4719 1.5728 11.6757L0.598051 11.899C0.533647 11.6179 0.5 11.3179 0.5 11.0002ZM2.23847 14.0656C1.70427 13.7779 1.23894 13.345 0.923778 12.7665L1.80192 12.2881C2.01697 12.6828 2.33529 12.9819 2.71265 13.1852L2.23847 14.0656ZM15.1611 12.7914C14.877 13.4151 14.4149 13.8772 13.7913 14.1613L13.3767 13.2513C13.7809 13.0672 14.067 12.7811 14.2511 12.3769L15.1611 12.7914ZM4.00002 14.5002C3.69644 14.5002 3.39224 14.4645 3.09657 14.3928L3.33242 13.421C3.54943 13.4737 3.7744 13.5002 4.00002 13.5002H4.50002V14.5002H4.00002ZM12.8925 14.4297C12.6126 14.4774 12.3146 14.5002 12 14.5002H11.5V13.5002H12C12.2668 13.5002 12.5079 13.4808 12.7249 13.4439L12.8925 14.4297Z" fill="#9E9E9E"/>
<path id="Union" opacity="0.8" fill-rule="evenodd" clip-rule="evenodd" d="M0 2.5L0.656599 3.1566L1.8434 4.3434L2.5 5L3.1566 4.3434L4.3434 3.1566L4.4 3.1H11.6L11.6566 3.1566L12.8434 4.3434L13.5 5L14.1566 4.3434L15.3434 3.1566L16 2.5L15.3434 1.8434L14.1566 0.656599L13.5 0L12.8434 0.656599L11.6566 1.8434L11.6 1.9H4.4L4.3434 1.8434L3.1566 0.656599L2.5 0L1.8434 0.656599L0.656599 1.8434L0 2.5ZM2.5 3.6868L1.3132 2.5L2.5 1.3132L3.6868 2.5L2.5 3.6868ZM12.3132 2.5L13.5 3.6868L14.6868 2.5L13.5 1.3132L12.3132 2.5ZM6 13H10C10.5523 13 11 13.4477 11 14C11 14.5523 10.5523 15 10 15H6C5.44772 15 5 14.5523 5 14C5 13.4477 5.44772 13 6 13ZM4 14C4 12.8954 4.89543 12 6 12H10C11.1046 12 12 12.8954 12 14C12 15.1046 11.1046 16 10 16H6C4.89543 16 4 15.1046 4 14Z" fill="black"/>
</g>
<defs>
<clipPath id="clip0_241_9594">
<rect width="16" height="16" fill="white"/>
</clipPath>
</defs>
</svg>
