<svg width="16" height="16" viewBox="0 0 16 16" fill="none" xmlns="http://www.w3.org/2000/svg">
<g id="bend-path" clip-path="url(#clip0_241_9575)">
<path class="warning" fill-rule="evenodd" clip-rule="evenodd" d="M12.501 11.0001L11.001 14.0003C10.1651 13.3722 9.12609 13 8.00011 13C6.87476 13 5.83625 13.3718 5.00069 13.9992L3.50116 11.0001C3.68822 10.7511 3.82986 10.4661 3.91379 10.1572C5.1722 9.60445 6.67048 9.25 8.00109 9.25C9.33169 9.25 10.83 9.60445 12.0884 10.1572C12.1723 10.4661 12.314 10.7511 12.501 11.0001ZM14.5011 7L15.9463 4.10954C13.6051 2.76734 10.8922 2 8.00011 2C5.10861 2 2.39626 2.76701 0.0554199 4.10867L1.50109 7C1.74036 7 1.97178 7.03361 2.19088 7.09638C3.96968 6.25946 6.07959 5.75 8.00109 5.75C9.92259 5.75 12.0325 6.25947 13.8113 7.09638C14.0304 7.03362 14.2618 7 14.5011 7Z" fill="#9E9E9E"/>
<circle id="Ellipse 212" cx="1.50098" cy="9.5" r="0.5" fill="#D9D9D9"/>
<circle id="Ellipse 213" cx="14.501" cy="9.5" r="0.5" fill="#D9D9D9"/>
<path id="Union" fill-rule="evenodd" clip-rule="evenodd" d="M2.97416 9.21614C4.4798 8.4747 6.34241 8 8.00098 8C9.65954 8 11.5222 8.4747 13.0278 9.21614C13.0102 9.30806 13.001 9.40295 13.001 9.5C13.001 10.3284 13.6725 11 14.501 11C15.3294 11 16.001 10.3284 16.001 9.5C16.001 8.67157 15.3294 8 14.501 8C14.1333 8 13.7965 8.13229 13.5356 8.35188C11.8776 7.52221 9.83463 7 8.00098 7C6.16733 7 4.12438 7.52221 2.46634 8.35188C2.20545 8.13229 1.86866 8 1.50098 8C0.672549 8 0.000976562 8.67157 0.000976562 9.5C0.000976562 10.3284 0.672549 11 1.50098 11C2.3294 11 3.00098 10.3284 3.00098 9.5C3.00098 9.40295 2.99176 9.30806 2.97416 9.21614Z" fill="black"/>
</g>
<defs>
<clipPath id="clip0_241_9575">
<rect width="16" height="16" fill="white"/>
</clipPath>
</defs>
</svg>
