<svg width="16" height="16" viewBox="0 0 16 16" fill="none" xmlns="http://www.w3.org/2000/svg">
<g id="bool-op">
<path class="warning" fill-rule="evenodd" clip-rule="evenodd" d="M11.001 4.20703V10.4444C11.001 10.7513 10.7522 11 10.4454 11H4.20801C4.07314 10.5232 4.00098 10.02 4.00098 9.5C4.00098 6.46243 6.46341 4 9.50098 4C10.021 4 10.5241 4.07217 11.001 4.20703Z" fill="#9E9E9E"/>
<path id="Union" opacity="0.5" fill-rule="evenodd" clip-rule="evenodd" d="M2.00098 1C1.44869 1 1.00098 1.44772 1.00098 2V10C1.00098 10.5523 1.44869 11 2.00098 11H4.20801C4.86094 13.3085 6.98342 15 9.50098 15C12.5385 15 15.001 12.5376 15.001 9.5C15.001 6.98245 13.3095 4.85996 11.001 4.20703V2C11.001 1.44771 10.5533 1 10.001 1H2.00098ZM10.001 4.02242V2L2.00098 2V10H4.0234C4.00856 9.83532 4.00098 9.66854 4.00098 9.5C4.00098 6.46243 6.46341 4 9.50098 4C9.66952 4 9.8363 4.00758 10.001 4.02242ZM5.02844 10C5.01029 9.83583 5.00098 9.669 5.00098 9.5C5.00098 7.01472 7.0157 5 9.50098 5C9.66998 5 9.83681 5.00932 10.001 5.02746V10H5.02844ZM5.25704 11H10.001C10.5533 11 11.001 10.5523 11.001 10V5.25606C12.7488 5.87381 14.001 7.54067 14.001 9.5C14.001 11.9853 11.9863 14 9.50098 14C7.54165 14 5.87479 12.7478 5.25704 11Z" fill="black"/>
</g>
</svg>
