<svg width="16" height="16" viewBox="0 0 16 16" fill="none" xmlns="http://www.w3.org/2000/svg">
<g id="boundingbox_bottom_left">
<path id="Union" fill-rule="evenodd" clip-rule="evenodd" d="M7.5 5.04148V0H8.5V5.04148C9.75625 5.25224 10.7478 6.24375 10.9585 7.5H16V8.5H10.9585C10.7205 9.91886 9.4865 11 8 11C6.34315 11 5 9.65685 5 8C5 6.5135 6.08114 5.27952 7.5 5.04148ZM10 8C10 9.10457 9.10457 10 8 10C6.89543 10 6 9.10457 6 8C6 6.89543 6.89543 6 8 6C9.10457 6 10 6.89543 10 8Z" fill="black"/>
</g>
</svg>
