<svg width="16" height="16" viewBox="0 0 16 16" fill="none" xmlns="http://www.w3.org/2000/svg">
<g id="bounding-box" clip-path="url(#clip0_241_9582)">
<path class="warning" fill-rule="evenodd" clip-rule="evenodd" d="M0 0.5C0 0.223858 0.223858 0 0.5 0H1.5C1.77614 0 2 0.223858 2 0.5L2 1H14V0.5C14 0.223858 14.2239 0 14.5 0H15.5C15.7761 0 16 0.223858 16 0.5V1.5C16 1.77614 15.7761 2 15.5 2L15 2V14H15.5C15.7761 14 16 14.2239 16 14.5V15.5C16 15.7761 15.7761 16 15.5 16H14.5C14.2239 16 14 15.7761 14 15.5V15H2V15.5C2 15.7761 1.77614 16 1.5 16H0.5C0.223858 16 0 15.7761 0 15.5V14.5C0 14.2239 0.223858 14 0.5 14H1V2H0.5C0.223858 2 0 1.77614 0 1.5V0.5ZM2 2H14V14H2V2Z" fill="black"/>
<path id="Union" fill-rule="evenodd" clip-rule="evenodd" d="M8 12.2C10.3196 12.2 12.2 10.3196 12.2 8C12.2 5.6804 10.3196 3.8 8 3.8C5.6804 3.8 3.8 5.6804 3.8 8C3.8 10.3196 5.6804 12.2 8 12.2ZM8 13C10.7614 13 13 10.7614 13 8C13 5.23858 10.7614 3 8 3C5.23858 3 3 5.23858 3 8C3 10.7614 5.23858 13 8 13Z" fill="#9E9E9E"/>
</g>
<defs>
<clipPath id="clip0_241_9582">
<rect width="16" height="16" fill="white"/>
</clipPath>
</defs>
</svg>
