<svg width="16" height="16" viewBox="0 0 16 16" fill="none" xmlns="http://www.w3.org/2000/svg">
<g id="boundingbox_bottom_right">
<path id="Union" fill-rule="evenodd" clip-rule="evenodd" d="M8.5 5.04148V0H7.5V5.04148C6.24375 5.25224 5.25224 6.24375 5.04148 7.5H0V8.5H5.04148C5.27952 9.91886 6.5135 11 8 11C9.65685 11 11 9.65685 11 8C11 6.5135 9.91886 5.27952 8.5 5.04148ZM10 8C10 9.10457 9.10457 10 8 10C6.89543 10 6 9.10457 6 8C6 6.89543 6.89543 6 8 6C9.10457 6 10 6.89543 10 8Z" fill="black"/>
</g>
</svg>
