<svg width="16" height="16" viewBox="0 0 16 16" fill="none" xmlns="http://www.w3.org/2000/svg">
<g id="boundingbox_right">
<path id="Union" fill-rule="evenodd" clip-rule="evenodd" d="M7.5 5.04148L7.5 0H8.5L8.5 5.04148C9.91886 5.27952 11 6.5135 11 8C11 9.4865 9.91886 10.7205 8.5 10.9585L8.5 16H7.5L7.5 10.9585C6.08114 10.7205 5 9.4865 5 8C5 6.5135 6.08114 5.27952 7.5 5.04148ZM8 10C9.10457 10 10 9.10457 10 8C10 6.89543 9.10457 6 8 6C6.89543 6 6 6.89543 6 8C6 9.10457 6.89543 10 8 10Z" fill="black"/>
</g>
</svg>
