<svg width="16" height="16" viewBox="0 0 16 16" fill="none" xmlns="http://www.w3.org/2000/svg">
<g id="boundingbox_top_left">
<path id="Union" fill-rule="evenodd" clip-rule="evenodd" d="M10 8C10 9.10457 9.10457 10 8 10C6.89543 10 6 9.10457 6 8C6 6.89543 6.89543 6 8 6C9.10457 6 10 6.89543 10 8ZM10.9585 7.5C10.7205 6.08114 9.4865 5 8 5C6.34315 5 5 6.34315 5 8C5 9.4865 6.08114 10.7205 7.5 10.9585V16H8.5V10.9585C9.75625 10.7478 10.7478 9.75625 10.9585 8.5H16V7.5H10.9585Z" fill="black"/>
</g>
</svg>
