<svg width="16" height="16" viewBox="0 0 16 16" fill="none" xmlns="http://www.w3.org/2000/svg">
<g id="boundingbox_top_right">
<path id="Union" fill-rule="evenodd" clip-rule="evenodd" d="M10 8C10 9.10457 9.10457 10 8 10C6.89543 10 6 9.10457 6 8C6 6.89543 6.89543 6 8 6C9.10457 6 10 6.89543 10 8ZM5.04148 7.5H0V8.5H5.04148C5.25224 9.75625 6.24375 10.7478 7.5 10.9585V16H8.5V10.9585C9.91886 10.7205 11 9.4865 11 8C11 6.34315 9.65685 5 8 5C6.5135 5 5.27952 6.08114 5.04148 7.5Z" fill="black"/>
</g>
</svg>
