<svg width="16" height="16" viewBox="0 0 16 16" fill="none" xmlns="http://www.w3.org/2000/svg">
<g id="bug" clip-path="url(#clip0_241_9552)">
<path id="neutral" opacity="0.3" d="M13.501 9C13.501 11.4604 12.001 15 9.50098 15.5L8.00098 13.5007L6.50098 15.5C4.00098 15 2.50098 11.4604 2.50098 9C2.50098 6.83276 2.82693 5.87001 3.22947 5.18005C3.57676 4.58479 4.49763 4.528 5.05635 4.93145C5.77931 5.45349 6.819 6.00066 8.00098 6.00066C9.18296 6.00066 10.2226 5.45349 10.9456 4.93145C11.5043 4.528 12.4303 4.58089 12.7813 5.17401C13.1798 5.84747 13.501 6.80101 13.501 9Z" fill="black"/>
<path id="Union" fill-rule="evenodd" clip-rule="evenodd" d="M12.9782 1.60083C12.5722 0.924156 11.5792 0.962234 11.2262 1.66801L10.781 2.55848C10.9228 2.84908 11.001 3.16693 11.001 3.5C11.001 3.85786 10.9107 4.23175 10.7482 4.58932C11.2149 4.11892 12.0435 3.99677 12.4329 4.53226C12.4955 4.61844 12.5566 4.70853 12.6158 4.80348L12.8324 4.64876C14.2733 3.61951 16.2454 4.81836 15.995 6.57134C15.9559 6.84471 15.7027 7.03466 15.4293 6.99561C15.1559 6.95656 14.966 6.70329 15.005 6.42992C15.131 5.54783 14.1387 4.94458 13.4136 5.46249L13.0545 5.71901C13.251 6.26864 13.3954 6.95345 13.4614 7.84599C14.802 7.68739 16.0344 8.92796 15.6725 10.3756L15.486 11.1216C15.419 11.3895 15.1476 11.5524 14.8797 11.4854C14.6118 11.4184 14.4489 11.147 14.5159 10.8791L14.7024 10.133C14.8937 9.36782 14.2122 8.71594 13.5005 8.8532C13.5009 8.9017 13.5011 8.95071 13.5011 9.00022C13.5011 9.77161 13.3536 10.6491 13.0741 11.5057C13.1254 11.5133 13.1763 11.529 13.2251 11.5534C14.5143 12.1988 14.7927 13.9173 13.7733 14.9368L13.3548 15.3553C13.1596 15.5505 12.843 15.5506 12.6477 15.3553C12.4524 15.16 12.4524 14.8435 12.6477 14.6482L13.0662 14.2297C13.6031 13.6927 13.4565 12.7876 12.7774 12.4476C12.7581 12.4379 12.7397 12.4272 12.7223 12.4155C12.0407 13.9257 10.9355 15.2133 9.50106 15.5002L8.62614 14.3341L8.00106 13.501L7.37598 14.3341L6.50106 15.5002C5.06633 15.2133 3.96095 13.9252 3.27943 12.4146C3.26218 12.4261 3.24401 12.4367 3.22497 12.4462C2.54588 12.7862 2.39921 13.6915 2.9362 14.2286L3.35454 14.647C3.54979 14.8422 3.54977 15.1588 3.3545 15.3541C3.15922 15.5493 2.84264 15.5493 2.64739 15.354L2.22905 14.9356C1.20963 13.9161 1.48807 12.1975 2.77726 11.552C2.82587 11.5277 2.87657 11.512 2.92757 11.5044C2.64836 10.6482 2.50106 9.77123 2.50106 9.00022C2.50106 8.95073 2.50126 8.90174 2.50166 8.85325C1.78982 8.71579 1.10819 9.36773 1.29951 10.133L1.48602 10.8791C1.553 11.147 1.39012 11.4184 1.12222 11.4854C0.854321 11.5524 0.582854 11.3895 0.515879 11.1216L0.329369 10.3756C-0.0326976 8.9273 1.201 7.68628 2.54236 7.8462C2.61003 6.9634 2.75722 6.2794 2.95677 5.72633L2.5874 5.46249C1.86232 4.94458 0.869995 5.54783 0.996008 6.42992C1.03506 6.70329 0.845111 6.95656 0.571744 6.99561C0.298377 7.03466 0.045111 6.84471 0.00605854 6.57134C-0.244369 4.81836 1.72769 3.61951 3.16864 4.64876L3.39524 4.81062C3.45388 4.71559 3.51437 4.62518 3.57638 4.53857C3.96173 4.00037 4.78708 4.11908 5.2536 4.58901C5.09115 4.23153 5.00098 3.85776 5.00098 3.5C5.00098 3.167 5.0791 2.84921 5.22092 2.55866L4.77583 1.66848C4.42292 0.962667 3.42982 0.924562 3.02387 1.60126L2.92993 1.75785C2.78787 1.99465 2.48075 2.07146 2.24395 1.9294C2.00715 1.78734 1.93034 1.48022 2.0724 1.24342L2.16634 1.08682C2.97824 -0.266568 4.96444 -0.19036 5.67025 1.22127L5.91233 1.70542C6.45245 1.26879 7.18904 1 8.00098 1C8.81286 1 9.54941 1.26875 10.0895 1.70533L10.3318 1.22075C11.0377 -0.190798 13.0238 -0.266956 13.8357 1.0864L13.9297 1.24313C14.0718 1.47993 13.995 1.78705 13.7582 1.92911C13.5214 2.07117 13.2143 1.99436 13.0722 1.75756L12.9782 1.60083ZM7.50106 12.5011V6.97007C6.1474 6.80175 5.15643 5.97648 4.55423 5.30445C4.5283 5.27552 4.49019 5.24531 4.44287 5.22144C4.40546 5.20257 4.37073 5.19191 4.34315 5.18684C3.90547 5.82566 3.50106 6.83243 3.50106 9.00022C3.50106 10.0547 3.82994 11.3903 4.44058 12.5049C4.92029 13.3806 5.50712 14.0061 6.1346 14.3224L7.20117 12.9008L7.50106 12.5011ZM8.50106 12.5011L8.80095 12.9008L9.86752 14.3224C10.495 14.0061 11.0818 13.3806 11.5615 12.5049C12.1722 11.3903 12.5011 10.0547 12.5011 9.00022C12.5011 6.78507 12.0977 5.79972 11.6691 5.18365C11.6394 5.18856 11.6014 5.19983 11.5607 5.22043C11.5124 5.24485 11.4738 5.27549 11.4479 5.30445C10.8457 5.97648 9.85472 6.80175 8.50106 6.97007V12.5011Z" fill="black"/>
</g>
<defs>
<clipPath id="clip0_241_9552">
<rect width="16" height="16" fill="white"/>
</clipPath>
</defs>
</svg>
