<svg width="16" height="16" viewBox="0 0 16 16" fill="none" xmlns="http://www.w3.org/2000/svg">
<g id="clone-original" clip-path="url(#clip0_241_9578)">
<circle class="warning" cx="10.501" cy="10.5" r="5" fill="#9E9E9E"/>
<path id="Union" fill-rule="evenodd" clip-rule="evenodd" d="M6.5 2C4.01472 2 2 4.01472 2 6.5C2 8.46172 3.25526 10.1302 5.00639 10.7462C5.00279 10.6646 5.00098 10.5825 5.00098 10.5C5.00098 7.46243 7.46341 5 10.501 5C10.583 5 10.6647 5.0018 10.7458 5.00535C10.1296 3.25477 8.46133 2 6.5 2ZM11.8364 5.16325C11.2393 2.77168 9.07654 1 6.5 1C3.46243 1 1 3.46243 1 6.5C1 9.077 2.77232 11.2401 5.16455 11.8367C5.7617 14.2283 7.92444 16 10.501 16C13.5385 16 16.001 13.5376 16.001 10.5C16.001 7.923 14.2287 5.75994 11.8364 5.16325ZM6.00098 10.5C6.00098 8.01472 8.0157 6 10.501 6C12.9863 6 15.001 8.01472 15.001 10.5C15.001 12.9853 12.9863 15 10.501 15C8.0157 15 6.00098 12.9853 6.00098 10.5Z" fill="black"/>
</g>
<defs>
<clipPath id="clip0_241_9578">
<rect width="16" height="16" fill="white"/>
</clipPath>
</defs>
</svg>
