<svg width="16" height="16" viewBox="0 0 16 16" fill="none" xmlns="http://www.w3.org/2000/svg">
<g id="color-tag" clip-path="url(#clip0_241_9165)">
<mask id="mask0_241_9165" style="mask-type:alpha" maskUnits="userSpaceOnUse" x="0" y="0" width="17" height="16">
<path id="Subtract" fill-rule="evenodd" clip-rule="evenodd" d="M8.00098 16C12.4193 16 16.001 12.4183 16.001 8C16.001 3.58172 12.4193 0 8.00098 0C3.5827 0 0.000976562 3.58172 0.000976562 8C0.000976562 12.4183 3.5827 16 8.00098 16ZM8.00098 11C9.65783 11 11.001 9.65685 11.001 8C11.001 6.34315 9.65783 5 8.00098 5C6.34412 5 5.00098 6.34315 5.00098 8C5.00098 9.65685 6.34412 11 8.00098 11Z" fill="black"/>
</mask>
<g mask="url(#mask0_241_9165)">
<g id="Group 52" filter="url(#filter0_f_241_9165)">
<path id="Ellipse 153" d="M17.4632 5.46327C17.9083 7.12444 17.9083 8.87351 17.4632 10.5347L7.99981 7.99898L17.4632 5.46327Z" fill="#00FFFF"/>
<path id="Ellipse 159" d="M-1.46124 10.5367C-1.90635 8.87556 -1.90635 7.12648 -1.46124 5.46531L8.00214 8.00102L-1.46124 10.5367Z" fill="#FF0000"/>
<path id="Ellipse 154" d="M17.4632 10.5347C17.0181 12.1959 16.1435 13.7106 14.9275 14.9267L7.99981 7.99898L17.4632 10.5347Z" fill="#56FFAA"/>
<path id="Ellipse 160" d="M-1.46124 5.46531C-1.01613 3.80414 -0.141594 2.2894 1.07447 1.07334L8.00214 8.00102L-1.46124 5.46531Z" fill="#B4014C"/>
<path id="Ellipse 155" d="M14.9275 14.9267C13.7114 16.1427 12.1967 17.0173 10.5355 17.4624L7.99981 7.99898L14.9275 14.9267Z" fill="#00FF00"/>
<path id="Ellipse 161" d="M1.07447 1.07334C2.29053 -0.142725 3.80527 -1.01726 5.46644 -1.46237L8.00214 8.00102L1.07447 1.07334Z" fill="#3F01C1"/>
<path id="Ellipse 156" d="M10.5355 17.4624C8.87435 17.9075 7.12528 17.9075 5.46411 17.4624L7.99981 7.99898L10.5355 17.4624Z" fill="#FFFF00"/>
<path id="Ellipse 162" d="M5.46644 -1.46237C7.12761 -1.90748 8.87668 -1.90748 10.5378 -1.46237L8.00214 8.00102L5.46644 -1.46237Z" fill="#0000FF"/>
<path id="Ellipse 157" d="M5.46411 17.4624C3.80294 17.0173 2.2882 16.1427 1.07214 14.9267L7.99981 7.99898L5.46411 17.4624Z" fill="#FF8F01"/>
<path id="Ellipse 163" d="M10.5378 -1.46237C12.199 -1.01726 13.7138 -0.142721 14.9298 1.07334L8.00214 8.00102L10.5378 -1.46237Z" fill="#0173FF"/>
<path id="Ellipse 158" d="M1.07214 14.9267C-0.143922 13.7106 -1.01846 12.1959 -1.46357 10.5347L7.99981 7.99898L1.07214 14.9267Z" fill="#FF5C01"/>
<path id="Ellipse 164" d="M14.9298 1.07334C16.1459 2.28941 17.0204 3.80415 17.4655 5.46532L8.00214 8.00102L14.9298 1.07334Z" fill="#01BEFF"/>
</g>
<path id="Union" opacity="0.1" fill-rule="evenodd" clip-rule="evenodd" d="M8.00098 15C11.867 15 15.001 11.866 15.001 8C15.001 4.13401 11.867 1 8.00098 1C4.13498 1 1.00098 4.13401 1.00098 8C1.00098 11.866 4.13498 15 8.00098 15ZM12.001 8C12.001 10.2091 10.2101 12 8.00098 12C5.79184 12 4.00098 10.2091 4.00098 8C4.00098 5.79086 5.79184 4 8.00098 4C10.2101 4 12.001 5.79086 12.001 8ZM16.001 8C16.001 12.4183 12.4193 16 8.00098 16C3.5827 16 0.000976562 12.4183 0.000976562 8C0.000976563 3.58172 3.5827 0 8.00098 0C12.4193 0 16.001 3.58172 16.001 8ZM11.001 8C11.001 9.65685 9.65783 11 8.00098 11C6.34412 11 5.00098 9.65685 5.00098 8C5.00098 6.34315 6.34412 5 8.00098 5C9.65783 5 11.001 6.34315 11.001 8Z" fill="black"/>
</g>
</g>
<defs>
<filter id="filter0_f_241_9165" x="-4.79517" y="-4.79639" width="25.5923" height="25.5928" filterUnits="userSpaceOnUse" color-interpolation-filters="sRGB">
<feFlood flood-opacity="0" result="BackgroundImageFix"/>
<feBlend mode="normal" in="SourceGraphic" in2="BackgroundImageFix" result="shape"/>
<feGaussianBlur stdDeviation="1.5" result="effect1_foregroundBlur_241_9165"/>
</filter>
<clipPath id="clip0_241_9165">
<rect width="16" height="16" fill="white"/>
</clipPath>
</defs>
</svg>
