<svg width="16" height="16" viewBox="0 0 16 16" fill="none" xmlns="http://www.w3.org/2000/svg">
<g id="color-fill">
<path id="neutral" opacity="0.3" d="M9 14.5L2 7.5H13L14.5 9L9 14.5Z" fill="black"/>
<path id="Vector 123" d="M0.226723 13.6397L1 9L2.48743 13.4623C2.73959 14.2188 2.17652 15 1.3791 15C0.65718 15 0.10804 14.3518 0.226723 13.6397Z" fill="black"/>
<path id="Union" fill-rule="evenodd" clip-rule="evenodd" d="M7.85355 1.64645C7.65829 1.45118 7.34171 1.45118 7.14645 1.64645C6.95118 1.84171 6.95118 2.15829 7.14645 2.35355L11.7929 7H2.00098C2.00083 7 2.00069 7 2.00055 7C1.8724 6.99986 1.74422 7.04868 1.64645 7.14645C1.45118 7.34171 1.45118 7.65829 1.64645 7.85355L8.64645 14.8536C8.84171 15.0488 9.15829 15.0488 9.35355 14.8536L14.8536 9.35355C15.0488 9.15829 15.0488 8.84171 14.8536 8.64645L7.85355 1.64645ZM3.20711 8L9 13.7929L13.7929 9L12.7929 8H3.20711Z" fill="black"/>
</g>
</svg>
