<svg width="16" height="16" viewBox="0 0 16 16" fill="none" xmlns="http://www.w3.org/2000/svg">
<g id="color-palette" clip-path="url(#clip0_241_9478)">
<path id="Union" fill-rule="evenodd" clip-rule="evenodd" d="M11.1917 1.38571C9.66144 0.567834 7.89489 0.305627 6.19307 0.644006C4.49125 0.982385 2.95945 1.90084 1.85867 3.24215C0.776016 4.561 0.500244 5.94137 0.500244 7.12399C0.500244 8.78268 1.7249 10.1538 3.31958 10.3847C3.83262 10.4589 4.25998 10.271 4.48545 10.1577C4.68616 10.0571 4.9131 9.99996 5.15625 9.99996C5.98468 9.99996 6.65625 10.6713 6.65625 11.5C6.65625 11.9101 6.49283 12.2802 6.22523 12.5522C5.94351 12.8383 5.67656 13.2754 5.66805 13.8247C5.65314 14.7866 6.44805 15.6294 7.47723 15.5595C8.92352 15.4614 10.4711 15.1391 11.823 14.2358C13.2658 13.2719 14.3296 11.8374 14.8333 10.1772C15.337 8.51656 15.2494 6.73287 14.5853 5.12985C13.9213 3.52682 12.722 2.20358 11.1917 1.38571ZM6.38816 1.62496C7.86308 1.33151 9.39408 1.55856 10.7203 2.26754C12.0466 2.97653 13.086 4.12301 13.6615 5.51266C14.2369 6.90182 14.3129 8.44772 13.8764 9.88668C13.4398 11.3256 12.5178 12.5688 11.2675 13.4047C10.1184 14.1723 8.76687 14.4697 7.40934 14.562C6.99823 14.5898 6.66155 14.2519 6.66793 13.8398C6.67139 13.6172 6.78145 13.4126 6.93783 13.2539C7.38212 12.8027 7.65625 12.1831 7.65625 11.5C7.65625 10.1191 6.53696 8.99996 5.15625 8.99996C4.75399 8.99996 4.37392 9.09518 4.03725 9.26363C3.85751 9.35397 3.66197 9.42379 3.46298 9.39498C2.35296 9.23434 1.50024 8.27877 1.50024 7.12399C1.50024 6.10934 1.7315 4.97311 2.63168 3.87643C3.58569 2.71383 4.91325 1.91842 6.38816 1.62496ZM6.00018 6.49996C6.00018 7.32858 5.32861 7.99996 4.50018 7.99996C3.67175 7.99996 3.00018 7.32858 3.00018 6.49996C3.00018 5.67135 3.67175 4.99996 4.50018 4.99996C5.32861 4.99996 6.00018 5.67135 6.00018 6.49996ZM8.50018 5.99996C9.32861 5.99996 10.0002 5.32858 10.0002 4.49996C10.0002 3.67135 9.32861 2.99996 8.50018 2.99996C7.67175 2.99996 7.00018 3.67135 7.00018 4.49996C7.00018 5.32858 7.67175 5.99996 8.50018 5.99996ZM11.0002 11C11.0002 11.5522 10.5525 12 10.0002 12C9.4479 12 9.00018 11.5522 9.00018 11C9.00018 10.4477 9.4479 9.99996 10.0002 9.99996C10.5525 9.99996 11.0002 10.4477 11.0002 11ZM11.25 8.99996C11.9404 8.99996 12.5 8.44039 12.5 7.74996C12.5 7.05953 11.9404 6.49996 11.25 6.49996C10.5596 6.49996 10 7.05953 10 7.74996C10 8.44039 10.5596 8.99996 11.25 8.99996Z" fill="black"/>
</g>
<defs>
<clipPath id="clip0_241_9478">
<rect width="16" height="16" fill="white"/>
</clipPath>
</defs>
</svg>
