<svg width="16" height="16" viewBox="0 0 16 16" fill="none" xmlns="http://www.w3.org/2000/svg">
<g id="color-management-off">
<circle id="Ellipse 296" opacity="0.1" cx="5.2998" cy="10.3203" r="2.5" fill="black"/>
<circle id="Ellipse 298" opacity="0.5" cx="7.99976" cy="5.64014" r="2.5" fill="black"/>
<circle id="Ellipse 297" opacity="0.3" cx="10.7" cy="10.3203" r="2.5" fill="black"/>
<path id="Union" d="M8.0001 8.83994C9.76741 8.83994 11.2001 7.40725 11.2001 5.63994H10.2001C10.2001 6.85497 9.21512 7.83994 8.0001 7.83994V8.83994ZM4.8001 5.63994C4.8001 7.40725 6.23279 8.83994 8.0001 8.83994V7.83994C6.78507 7.83994 5.8001 6.85497 5.8001 5.63994H4.8001ZM8.0001 2.43994C6.23279 2.43994 4.8001 3.87263 4.8001 5.63994H5.8001C5.8001 4.42491 6.78507 3.43994 8.0001 3.43994V2.43994ZM11.2001 5.63994C11.2001 3.87263 9.76741 2.43994 8.0001 2.43994V3.43994C9.21512 3.43994 10.2001 4.42491 10.2001 5.63994H11.2001ZM5.3001 13.5202C7.06741 13.5202 8.5001 12.0875 8.5001 10.3202H7.5001C7.5001 11.5352 6.51512 12.5202 5.3001 12.5202V13.5202ZM2.1001 10.3202C2.1001 12.0875 3.53279 13.5202 5.3001 13.5202V12.5202C4.08507 12.5202 3.1001 11.5352 3.1001 10.3202H2.1001ZM5.3001 7.1202C3.53279 7.1202 2.1001 8.55289 2.1001 10.3202H3.1001C3.1001 9.10518 4.08507 8.1202 5.3001 8.1202V7.1202ZM8.5001 10.3202C8.5001 8.55289 7.06741 7.1202 5.3001 7.1202V8.1202C6.51512 8.1202 7.5001 9.10518 7.5001 10.3202H8.5001ZM8.5001 10.3202C8.5001 9.10518 9.48507 8.1202 10.7001 8.1202V7.1202C8.93279 7.1202 7.5001 8.55289 7.5001 10.3202H8.5001ZM10.7001 8.1202C11.9151 8.1202 12.9001 9.10518 12.9001 10.3202H13.9001C13.9001 8.55289 12.4674 7.1202 10.7001 7.1202V8.1202ZM12.9001 10.3202C12.9001 11.5352 11.9151 12.5202 10.7001 12.5202V13.5202C12.4674 13.5202 13.9001 12.0875 13.9001 10.3202H12.9001ZM10.7001 12.5202C9.48507 12.5202 8.5001 11.5352 8.5001 10.3202H7.5001C7.5001 12.0875 8.93279 13.5202 10.7001 13.5202V12.5202Z" fill="black"/>
</g>
</svg>
