<svg width="16" height="16" viewBox="0 0 16 16" fill="none" xmlns="http://www.w3.org/2000/svg">
<g id="color-management">
<path id="error" opacity="0.5" d="M5.30005 5.28008C5.30005 3.78891 6.50888 2.58008 8.00005 2.58008V2.58008C9.49122 2.58008 10.7 3.78891 10.7 5.28008V5.28008C10.7 6.77125 9.49122 7.98008 8.00005 7.98008V7.98008C6.50888 7.98008 5.30005 6.77125 5.30005 5.28008V5.28008Z" fill="#F73664"/>
<rect id="success" opacity="0.5" x="2.6001" y="7.52979" width="5.4" height="5.4" rx="2.7" fill="#0A8BFF"/>
<rect id="warning" opacity="0.5" x="8" y="7.52979" width="5.4" height="5.4" rx="2.7" fill="#04C8A5"/>
<path id="Union" d="M8 8.83994C9.76731 8.83994 11.2 7.40725 11.2 5.63994H10.2C10.2 6.85497 9.21503 7.83994 8 7.83994V8.83994ZM4.8 5.63994C4.8 7.40725 6.23269 8.83994 8 8.83994V7.83994C6.78497 7.83994 5.8 6.85497 5.8 5.63994H4.8ZM8 2.43994C6.23269 2.43994 4.8 3.87263 4.8 5.63994H5.8C5.8 4.42491 6.78497 3.43994 8 3.43994V2.43994ZM11.2 5.63994C11.2 3.87263 9.76731 2.43994 8 2.43994V3.43994C9.21503 3.43994 10.2 4.42491 10.2 5.63994H11.2ZM5.3 13.5202C7.06731 13.5202 8.5 12.0875 8.5 10.3202H7.5C7.5 11.5352 6.51503 12.5202 5.3 12.5202V13.5202ZM2.1 10.3202C2.1 12.0875 3.53269 13.5202 5.3 13.5202V12.5202C4.08497 12.5202 3.1 11.5352 3.1 10.3202H2.1ZM5.3 7.1202C3.53269 7.1202 2.1 8.55289 2.1 10.3202H3.1C3.1 9.10518 4.08497 8.1202 5.3 8.1202V7.1202ZM8.5 10.3202C8.5 8.55289 7.06731 7.1202 5.3 7.1202V8.1202C6.51503 8.1202 7.5 9.10518 7.5 10.3202H8.5ZM8.5 10.3202C8.5 9.10518 9.48497 8.1202 10.7 8.1202V7.1202C8.93269 7.1202 7.5 8.55289 7.5 10.3202H8.5ZM10.7 8.1202C11.915 8.1202 12.9 9.10518 12.9 10.3202H13.9C13.9 8.55289 12.4673 7.1202 10.7 7.1202V8.1202ZM12.9 10.3202C12.9 11.5352 11.915 12.5202 10.7 12.5202V13.5202C12.4673 13.5202 13.9 12.0875 13.9 10.3202H12.9ZM10.7 12.5202C9.48497 12.5202 8.5 11.5352 8.5 10.3202H7.5C7.5 12.0875 8.93269 13.5202 10.7 13.5202V12.5202Z" fill="black"/>
</g>
</svg>
