<svg width="16" height="16" viewBox="0 0 16 16" fill="none" xmlns="http://www.w3.org/2000/svg">
<g id="color-picker">
<path id="neutral" opacity="0.3" fill-rule="evenodd" clip-rule="evenodd" d="M11.4978 7.49779L11.9371 7.93712C12.5239 8.52394 12.5234 9.47553 11.936 10.0617C11.3494 10.6471 10.3995 10.6466 9.81358 10.0606L5.93711 6.18419C5.35029 5.59736 5.35078 4.64577 5.93821 4.05955C6.52479 3.47419 7.47468 3.47468 8.06065 4.06065L8.49778 4.49779L10.3742 2.62132C11.2027 1.79289 12.5458 1.79289 13.3742 2.62132C14.2027 3.44975 14.2027 4.79289 13.3742 5.62132L11.4978 7.49779Z" fill="black"/>
<path id="Union" fill-rule="evenodd" clip-rule="evenodd" d="M10.7906 6.79068L10.0835 7.49779L10.7906 8.20489L11.2299 8.64422C11.426 8.84024 11.4258 9.1581 11.2296 9.35391C11.0336 9.54944 10.7164 9.54927 10.5206 9.35354L6.64416 5.47708C6.44814 5.28106 6.44831 4.96321 6.64453 4.76739C6.84046 4.57186 7.15775 4.57203 7.35348 4.76776L7.79061 5.20489L8.49772 5.912L9.20483 5.20489L11.0813 3.32843C11.5192 2.89052 12.2292 2.89052 12.6671 3.32843C13.105 3.76633 13.105 4.47631 12.6671 4.91421L10.7906 6.79068ZM10.3742 2.62132L9.20483 3.79068L8.49772 4.49779L8.06059 4.06065C7.47462 3.47468 6.52473 3.47419 5.93815 4.05955C5.35072 4.64577 5.35022 5.59736 5.93705 6.18419L6.52285 6.76998L2.48875 10.8041C1.8799 11.4129 1.42117 12.1552 1.14888 12.972C1.01343 13.3784 1.11919 13.8264 1.42205 14.1292L1.87072 14.5779C2.17358 14.8807 2.62157 14.9865 3.0279 14.8511C3.84476 14.5788 4.58701 14.12 5.19586 13.5112L9.22995 9.47709L9.81351 10.0606C10.3995 10.6466 11.3494 10.6471 11.936 10.0617C12.5234 9.47553 12.5239 8.52394 11.937 7.93712L11.4977 7.49779L12.2048 6.79068L13.3742 5.62132C14.2026 4.79289 14.2026 3.44975 13.3742 2.62132C12.5458 1.79289 11.2026 1.79289 10.3742 2.62132ZM8.52285 8.76998L7.22996 7.47709L3.19586 11.5112C2.69678 12.0103 2.32076 12.6187 2.09756 13.2883C2.0819 13.3353 2.09413 13.3871 2.12916 13.4221L2.57782 13.8708C2.61286 13.9058 2.66467 13.918 2.71167 13.9024C3.38125 13.6792 3.98968 13.3032 4.48875 12.8041L8.52285 8.76998Z" fill="black"/>
</g>
</svg>
