<svg width="16" height="16" viewBox="0 0 16 16" fill="none" xmlns="http://www.w3.org/2000/svg">
<g id="color-filters">
<path id="Union" d="M7.50098 4.08025C7.50098 5.0007 6.75479 5.74689 5.83431 5.74689V6.74689C7.30706 6.74689 8.50098 5.553 8.50098 4.08025H7.50098ZM5.83431 2.4136C6.75479 2.4136 7.50098 3.15979 7.50098 4.08025H8.50098C8.50098 2.60749 7.30706 1.4136 5.83431 1.4136V2.4136ZM4.16764 4.08025C4.16764 3.15979 4.91383 2.4136 5.83431 2.4136V1.4136C4.36155 1.4136 3.16764 2.60749 3.16764 4.08025H4.16764ZM5.83431 5.74689C4.91383 5.74689 4.16764 5.0007 4.16764 4.08025H3.16764C3.16764 5.553 4.36155 6.74689 5.83431 6.74689V5.74689ZM7.50098 11.6229C7.50098 12.5433 6.75479 13.2895 5.83431 13.2895V14.2895C7.30706 14.2895 8.50098 13.0956 8.50098 11.6229H7.50098ZM5.83431 9.95623C6.75479 9.95623 7.50098 10.7024 7.50098 11.6229H8.50098C8.50098 10.1501 7.30706 8.95623 5.83431 8.95623V9.95623ZM4.16764 11.6229C4.16764 10.7024 4.91383 9.95623 5.83431 9.95623V8.95623C4.36155 8.95623 3.16764 10.1501 3.16764 11.6229H4.16764ZM5.83431 13.2895C4.91383 13.2895 4.16764 12.5433 4.16764 11.6229H3.16764C3.16764 13.0956 4.36156 14.2895 5.83431 14.2895V13.2895ZM3.66764 10.5182C5.1404 10.5182 6.33431 9.32431 6.33431 7.85156H5.33431C5.33431 8.77202 4.58812 9.51821 3.66764 9.51821V10.5182ZM1.00098 7.85156C1.00098 9.32431 2.19489 10.5182 3.66764 10.5182V9.51821C2.74716 9.51821 2.00098 8.77202 2.00098 7.85156H1.00098ZM3.66764 5.18492C2.19489 5.18492 1.00098 6.37881 1.00098 7.85156H2.00098C2.00098 6.9311 2.74716 6.18492 3.66764 6.18492V5.18492ZM6.33431 7.85156C6.33431 6.37881 5.1404 5.18492 3.66764 5.18492V6.18492C4.58812 6.18492 5.33431 6.9311 5.33431 7.85156H6.33431ZM11.8343 4.08025C11.8343 5.0007 11.0881 5.74689 10.1676 5.74689V6.74689C11.6404 6.74689 12.8343 5.553 12.8343 4.08025H11.8343ZM10.1676 2.4136C11.0881 2.4136 11.8343 3.15979 11.8343 4.08025H12.8343C12.8343 2.60749 11.6404 1.4136 10.1676 1.4136V2.4136ZM8.50098 4.08025C8.50098 3.15979 9.24716 2.4136 10.1676 2.4136V1.4136C8.69489 1.4136 7.50098 2.60749 7.50098 4.08025H8.50098ZM10.1676 5.74689C9.24716 5.74689 8.50098 5.0007 8.50098 4.08025H7.50098C7.50098 5.553 8.69489 6.74689 10.1676 6.74689V5.74689ZM10.1676 14.2895C11.6404 14.2895 12.8343 13.0956 12.8343 11.6229H11.8343C11.8343 12.5433 11.0881 13.2895 10.1676 13.2895V14.2895ZM7.50098 11.6229C7.50098 13.0956 8.69489 14.2895 10.1676 14.2895V13.2895C9.24716 13.2895 8.50098 12.5433 8.50098 11.6229H7.50098ZM10.1676 8.95623C8.69489 8.95623 7.50098 10.1501 7.50098 11.6229H8.50098C8.50098 10.7024 9.24716 9.95623 10.1676 9.95623V8.95623ZM12.8343 11.6229C12.8343 10.1501 11.6404 8.95623 10.1676 8.95623V9.95623C11.0881 9.95623 11.8343 10.7024 11.8343 11.6229H12.8343ZM14.001 7.85156C14.001 8.77202 13.2548 9.51821 12.3343 9.51821V10.5182C13.8071 10.5182 15.001 9.32431 15.001 7.85156H14.001ZM12.3343 6.18492C13.2548 6.18492 14.001 6.9311 14.001 7.85156H15.001C15.001 6.37881 13.8071 5.18492 12.3343 5.18492V6.18492ZM10.6676 7.85156C10.6676 6.9311 11.4138 6.18492 12.3343 6.18492V5.18492C10.8616 5.18492 9.66764 6.37881 9.66764 7.85156H10.6676ZM12.3343 9.51821C11.4138 9.51821 10.6676 8.77202 10.6676 7.85156H9.66764C9.66764 9.32431 10.8616 10.5182 12.3343 10.5182V9.51821Z" fill="black"/>
<ellipse id="Ellipse 172" opacity="0.2" cx="5.83415" cy="4.08022" rx="2.16667" ry="2.16664" fill="black"/>
<ellipse id="neutral" opacity="0.5" cx="5.83415" cy="11.6227" rx="2.16667" ry="2.16664" fill="black"/>
<ellipse id="Ellipse 176" opacity="0.5" cx="3.66764" cy="7.85121" rx="2.16667" ry="2.16664" fill="black"/>
<ellipse id="Ellipse 173" opacity="0.45" cx="10.1676" cy="4.08022" rx="2.16667" ry="2.16664" fill="black"/>
<ellipse id="Ellipse 178" opacity="0.55" cx="10.1676" cy="11.6227" rx="2.16667" ry="2.16664" fill="black"/>
<ellipse id="Ellipse 175" opacity="0.25" cx="12.3341" cy="7.85121" rx="2.16667" ry="2.16664" fill="black"/>
</g>
</svg>
