<svg width="16" height="16" viewBox="0 0 16 16" fill="none" xmlns="http://www.w3.org/2000/svg">
<path fill-rule="evenodd" clip-rule="evenodd" d="M2 3.4C2 3.17909 2.17909 3 2.4 3H4.6C4.82091 3 5 3.17909 5 3.4V11.6C5 11.8209 4.82091 12 4.6 12H2.4C2.17909 12 2 11.8209 2 11.6V3.4ZM11 3.4C11 3.17909 11.1791 3 11.4 3H13.6C13.8209 3 14 3.17909 14 3.4V11.6C14 11.8209 13.8209 12 13.6 12H11.4C11.1791 12 11 11.8209 11 11.6V3.4ZM7 13V6H9V13H7ZM6 5.4C6 5.17909 6.17909 5 6.4 5H9.6C9.82091 5 10 5.17909 10 5.4V13.6C10 13.8209 9.82091 14 9.6 14H6.4C6.17909 14 6 13.8209 6 13.6V5.4Z" fill="black"/>
</svg>
