<svg width="16" height="16" viewBox="0 0 16 16" fill="none" xmlns="http://www.w3.org/2000/svg">
<g id="connector-avoid" clip-path="url(#clip0_241_9360)">
<path id="Union" fill-rule="evenodd" clip-rule="evenodd" d="M0 0.5C0 0.223858 0.223858 0 0.5 0H2.5C2.77614 0 3 0.223858 3 0.5V1H14.5H15V1.5V13H15.5C15.7761 13 16 13.2239 16 13.5V15.5C16 15.7761 15.7761 16 15.5 16H13.5C13.2239 16 13 15.7761 13 15.5V13.5C13 13.2239 13.2239 13 13.5 13H14V2H3V2.5C3 2.77614 2.77614 3 2.5 3H0.5C0.223858 3 0 2.77614 0 2.5V0.5ZM5 5H11V11H5V5ZM4 5C4 4.44772 4.44772 4 5 4H11C11.5523 4 12 4.44772 12 5V11C12 11.5523 11.5523 12 11 12H5C4.44772 12 4 11.5523 4 11V5Z" fill="black"/>
</g>
<defs>
<clipPath id="clip0_241_9360">
<rect width="16" height="16" fill="white"/>
</clipPath>
</defs>
</svg>
