<svg width="16" height="16" viewBox="0 0 16 16" fill="none" xmlns="http://www.w3.org/2000/svg">
<g id="connector-orthogonal" clip-path="url(#clip0_241_9660)">
<path id="Union" fill-rule="evenodd" clip-rule="evenodd" d="M0 0.5C0 0.223858 0.223858 0 0.5 0H2.5C2.77614 0 3 0.223858 3 0.5V1H8H8.5V1.5V14H13V13.5C13 13.2239 13.2239 13 13.5 13H15.5C15.7761 13 16 13.2239 16 13.5V15.5C16 15.7761 15.7761 16 15.5 16H13.5C13.2239 16 13 15.7761 13 15.5V15H8H7.5V14.5V2H3V2.5C3 2.77614 2.77614 3 2.5 3H0.5C0.223858 3 0 2.77614 0 2.5V0.5Z" fill="black"/>
</g>
<defs>
<clipPath id="clip0_241_9660">
<rect width="16" height="16" fill="white"/>
</clipPath>
</defs>
</svg>
