<svg width="16" height="16" viewBox="0 0 16 16" fill="none" xmlns="http://www.w3.org/2000/svg">
<g id="construct-grid">
<path id="Union" fill-rule="evenodd" clip-rule="evenodd" d="M0 2.5L0.656599 3.1566L1.8434 4.3434L2 4.5V6L1.8434 6.1566L0.656599 7.3434L0 8L0.656599 8.6566L1.8434 9.8434L2.5 10.5L3.1566 9.8434L4.3434 8.6566L5 8L4.3434 7.3434L3.1566 6.1566L3 6V4.5L3.1566 4.3434L4.3434 3.1566L4.5 3H6L6.1566 3.1566L7.3434 4.3434L8 5L8.6566 4.3434L9.8434 3.1566L10.5 2.5L9.8434 1.8434L8.6566 0.656599L8 0L7.3434 0.656599L6.1566 1.8434L6 2H4.5L4.3434 1.8434L3.1566 0.656599L2.5 0L1.8434 0.656599L0.656599 1.8434L0 2.5ZM2.5 3.6868L1.3132 2.5L2.5 1.3132L3.6868 2.5L2.5 3.6868ZM1.3132 8L2.5 9.1868L3.6868 8L2.5 6.8132L1.3132 8ZM8 3.6868L6.8132 2.5L8 1.3132L9.1868 2.5L8 3.6868Z" fill="black"/>
<path class="warning" fill-rule="evenodd" clip-rule="evenodd" d="M2 12V14H2.5H3H7.5H8.5H13H13.5H14V3V2.5V2H13.5H12L11 3H13V7.5H8.5V5.5L7.5 6.5V7.5H6.5L5.5 8.5H7.5V13H3V11L2 12ZM8.5 8.5H13V13H8.5V8.5Z" fill="#9E9E9E"/>
</g>
</svg>
