<svg width="16" height="17" viewBox="0 0 16 17" fill="none" xmlns="http://www.w3.org/2000/svg">
<g id="copy-rotate">
<path class="warning" d="M10.5 2.5C10.5 3.88071 9.38071 5 8 5C6.61929 5 5.5 3.88071 5.5 2.5C5.5 1.11929 6.61929 0 8 0C9.38071 0 10.5 1.11929 10.5 2.5Z" fill="#9E9E9E"/>
<path id="Union" fill-rule="evenodd" clip-rule="evenodd" d="M8 1C7.17157 1 6.5 1.67157 6.5 2.5C6.5 3.32843 7.17157 4 8 4C8.82843 4 9.5 3.32843 9.5 2.5C9.5 1.67157 8.82843 1 8 1ZM5.5 2.5C5.5 1.11929 6.61929 0 8 0C9.38071 0 10.5 1.11929 10.5 2.5C10.5 3.88071 9.38071 5 8 5C6.61929 5 5.5 3.88071 5.5 2.5ZM9 8C9 8.55228 8.55228 9 8 9C7.44772 9 7 8.55228 7 8C7 7.44772 7.44772 7 8 7C8.55228 7 9 7.44772 9 8ZM9.25 14C9.25 14.6904 8.69036 15.25 8 15.25C7.30964 15.25 6.75 14.6904 6.75 14C6.75 13.3096 7.30964 12.75 8 12.75C8.69036 12.75 9.25 13.3096 9.25 14ZM10.25 14C10.25 15.2426 9.24264 16.25 8 16.25C6.75736 16.25 5.75 15.2426 5.75 14C5.75 12.7574 6.75736 11.75 8 11.75C9.24264 11.75 10.25 12.7574 10.25 14ZM2.80371 12.25C3.49407 12.25 4.05371 11.6904 4.05371 11C4.05371 10.3096 3.49407 9.75 2.80371 9.75C2.11336 9.75 1.55371 10.3096 1.55371 11C1.55371 11.6904 2.11336 12.25 2.80371 12.25ZM2.80371 13.25C4.04635 13.25 5.05371 12.2426 5.05371 11C5.05371 9.75736 4.04635 8.75 2.80371 8.75C1.56107 8.75 0.553711 9.75736 0.553711 11C0.553711 12.2426 1.56107 13.25 2.80371 13.25ZM4.05396 5.5C4.05396 6.19036 3.49431 6.75 2.80396 6.75C2.1136 6.75 1.55396 6.19036 1.55396 5.5C1.55396 4.80964 2.1136 4.25 2.80396 4.25C3.49431 4.25 4.05396 4.80964 4.05396 5.5ZM5.05396 5.5C5.05396 6.74264 4.0466 7.75 2.80396 7.75C1.56131 7.75 0.553955 6.74264 0.553955 5.5C0.553955 4.25736 1.56131 3.25 2.80396 3.25C4.0466 3.25 5.05396 4.25736 5.05396 5.5ZM13.1958 12.25C13.8862 12.25 14.4458 11.6904 14.4458 11C14.4458 10.3096 13.8862 9.75 13.1958 9.75C12.5054 9.75 11.9458 10.3096 11.9458 11C11.9458 11.6904 12.5054 12.25 13.1958 12.25ZM13.1958 13.25C14.4384 13.25 15.4458 12.2426 15.4458 11C15.4458 9.75736 14.4384 8.75 13.1958 8.75C11.9532 8.75 10.9458 9.75736 10.9458 11C10.9458 12.2426 11.9532 13.25 13.1958 13.25ZM14.4463 5.50035C14.4463 6.19057 13.8867 6.75021 13.1963 6.75021C12.5059 6.75021 11.9463 6.19057 11.9463 5.50035C11.9463 4.81013 12.5059 4.25049 13.1963 4.25049C13.8867 4.25049 14.4463 4.81013 14.4463 5.50035ZM15.4463 5.50035C15.4463 6.74292 14.4389 7.75021 13.1963 7.75021C11.9536 7.75021 10.9463 6.74292 10.9463 5.50035C10.9463 4.25779 11.9536 3.25049 13.1963 3.25049C14.4389 3.25049 15.4463 4.25779 15.4463 5.50035Z" fill="black"/>
</g>
</svg>
