<svg width="16" height="16" viewBox="0 0 16 16" fill="none" xmlns="http://www.w3.org/2000/svg">
<g id="curvestitching">
<path id="Union" fill-rule="evenodd" clip-rule="evenodd" d="M12.7906 1.90691C13.0153 1.7464 13.0674 1.43413 12.9069 1.20942C12.7464 0.984713 12.4341 0.932668 12.2094 1.09317C10.1565 2.55948 9.97689 5.56559 11.9015 7.22209C12.1767 7.45901 12.4408 7.68395 12.679 7.88342C14.1427 9.10886 14.378 11.2711 13.2078 12.7756L12.1053 14.1931C11.9358 14.411 11.9751 14.7252 12.193 14.8947C12.411 15.0642 12.7251 15.025 12.8947 14.807L13.9972 13.3895C15.4996 11.4578 15.1952 8.68576 13.321 7.11666C13.0873 6.921 12.8269 6.69919 12.5538 6.46418C11.1332 5.24146 11.2519 3.00596 12.7906 1.90691ZM2 1.50004C2 1.2239 1.77614 1.00004 1.5 1.00004C1.22386 1.00004 1 1.2239 1 1.50004V4.75004V8.00004V11.25V14.5C1 14.7762 1.22386 15 1.5 15C1.77614 15 2 14.7762 2 14.5V11.25V8.00004V4.75004V1.50004Z" fill="black"/>
<path class="warning" fill-rule="evenodd" clip-rule="evenodd" d="M3 2.3499V1.6499H4.35V2.3499H3ZM5.15 1.6499H6.85V2.3499H5.15V1.6499ZM7.65 1.6499H9.25V2.3499H7.65V1.6499ZM9.75 1.6499H10.5V2.3499H9.75V1.6499ZM3 5.3499V4.6499H4.35V5.3499H3ZM5.15 4.6499H6.85V5.3499H5.15V4.6499ZM7.65 4.6499H9.5V5.3499H7.65V4.6499ZM3 8.3499V7.6499H4.35V8.3499H3ZM5.15 7.6499H6.85V8.3499H5.15V7.6499ZM7.65 7.6499H9.35V8.3499H7.65V7.6499ZM10.15 7.6499H11V8.3499H10.15V7.6499ZM3 11.3499V10.6499H4.35V11.3499H3ZM5.15 10.6499H6.85V11.3499H5.15V10.6499ZM7.65 10.6499H9.35V11.3499H7.65V10.6499ZM10.15 10.6499H12V11.3499H10.15V10.6499ZM3 14.3499V13.6499H4.35V14.3499H3ZM5.15 13.6499H6.85V14.3499H5.15V13.6499ZM7.65 13.6499H9.35V14.3499H7.65V13.6499ZM10.15 13.6499H11V14.3499H10.15V13.6499Z" fill="#9E9E9E"/>
</g>
</svg>
