<svg width="16" height="16" viewBox="0 0 16 16" fill="none" xmlns="http://www.w3.org/2000/svg">
<g id="dialog-objects">
<path id="Union" fill-rule="evenodd" clip-rule="evenodd" d="M2.47654 5.97143L7.99996 2.51971L13.5234 5.97143L7.99996 9.42315L2.47654 5.97143ZM7.75453 1.49388C7.9047 1.40004 8.09523 1.40004 8.2454 1.49388L14.7819 5.57869C15.0721 5.76008 15.0721 6.18279 14.7819 6.36417L8.2454 10.449C8.09523 10.5428 7.9047 10.5428 7.75453 10.449L1.21804 6.36417C0.927784 6.18279 0.927784 5.76008 1.21804 5.57869L7.75453 1.49388ZM2.56048 8.79222C2.64904 8.73688 2.76114 8.73586 2.85069 8.78958L7.85656 11.7927C7.94455 11.8455 8.05447 11.8455 8.14246 11.7927L13.148 8.78977C13.2376 8.73605 13.3497 8.73707 13.4382 8.79241L14.7811 9.63162C15.0714 9.81301 15.0714 10.2357 14.7811 10.4171L8.24463 14.5019C8.09446 14.5958 7.90393 14.5958 7.75377 14.5019L1.21727 10.4171C0.927018 10.2357 0.927018 9.81301 1.21727 9.63162L2.56048 8.79222Z" fill="black"/>
</g>
</svg>
