<svg width="16" height="16" viewBox="0 0 16 16" fill="none" xmlns="http://www.w3.org/2000/svg">
<g id="dialog-xml-editor">
<path id="Union" fill-rule="evenodd" clip-rule="evenodd" d="M6.31263 2.6096C6.52826 2.78211 6.56321 3.09676 6.3907 3.31239L2.64035 8.00004L6.39047 12.6877C6.56297 12.9033 6.52801 13.218 6.31238 13.3905C6.09675 13.563 5.7821 13.528 5.6096 13.3124L1.6096 8.31238L1.35971 8.00002L1.60961 7.68767L5.60985 2.68767C5.78236 2.47204 6.09701 2.43709 6.31263 2.6096ZM9.68795 2.60957C9.90359 2.43708 10.2182 2.47206 10.3907 2.6877L14.3902 7.6877L14.6401 8.00004L14.3902 8.31236L10.3905 13.3124C10.218 13.528 9.90333 13.563 9.68769 13.3905C9.47206 13.218 9.43709 12.9033 9.60959 12.6877L13.3595 8.00002L9.60982 3.31235C9.43733 3.09671 9.47231 2.78207 9.68795 2.60957Z" fill="black"/>
</g>
</svg>
