<svg width="16" height="16" viewBox="0 0 16 16" fill="none" xmlns="http://www.w3.org/2000/svg">
<g id="dialog-input-devices">
<path id="Union" fill-rule="evenodd" clip-rule="evenodd" d="M13.8536 3.06051C13.6583 2.86525 13.3417 2.86525 13.1464 3.06051L7.5 8.70696V9.49985H8.29289L13.9393 3.8534C14.1346 3.65814 14.1346 3.34156 13.9393 3.1463L13.8536 3.06051ZM12.4393 2.3534C13.0251 1.76762 13.9749 1.76762 14.5607 2.3534L14.6464 2.43919C15.2322 3.02498 15.2322 3.97472 14.6464 4.56051L8.85355 10.3534L8.70711 10.4998H8.5H7H6.5V9.99985V8.49985V8.29274L6.64645 8.1463L12.4393 2.3534ZM5 12.9998H13V7.49985L14 6.49985V12.9998C14 13.5521 13.5523 13.9998 13 13.9998H3C2.44772 13.9998 2 13.5521 2 12.9998V3.99985C2 3.44756 2.44772 2.99985 3 2.99985H10.5L9.5 3.99985H5V12.9998ZM4 12.9998V8.99985H3L3 12.9998H4ZM3 7.99985H4V3.99985H3L3 7.99985Z" fill="black"/>
</g>
</svg>
