<svg width="16" height="16" viewBox="0 0 16 16" fill="none" xmlns="http://www.w3.org/2000/svg">
<g id="dialog-filters">
<path id="Union" fill-rule="evenodd" clip-rule="evenodd" d="M13.0009 4.91465C13.5835 4.70873 14.0009 4.15311 14.0009 3.5C14.0009 2.67157 13.3294 2 12.5009 2C11.6725 2 11.0009 2.67157 11.0009 3.5C11.0009 4.15311 11.4183 4.70873 12.0009 4.91465V6.5C12.0009 6.77614 11.7771 7 11.5009 7H5.00094V5.65C5.00094 5.48519 4.81279 5.39111 4.68094 5.49L2.21428 7.34C2.10761 7.42 2.10761 7.58 2.21428 7.66L4.68094 9.51C4.81279 9.60889 5.00094 9.51481 5.00094 9.35V8H9.00094V11.5C9.00094 11.7761 8.77709 12 8.50094 12H5.00094V10.65C5.00094 10.4852 4.81279 10.3911 4.68094 10.49L2.21428 12.34C2.10761 12.42 2.10761 12.58 2.21428 12.66L4.68094 14.51C4.81279 14.6089 5.00094 14.5148 5.00094 14.35V13H8.50094C9.32937 13 10.0009 12.3284 10.0009 11.5V8H11.5009C12.3294 8 13.0009 7.32843 13.0009 6.5V4.91465Z" fill="black"/>
</g>
</svg>
