<svg width="16" height="16" viewBox="0 0 16 16" fill="none" xmlns="http://www.w3.org/2000/svg">
<g id="dialog-extensions">
<path id="neutral" opacity="0.3" fill-rule="evenodd" clip-rule="evenodd" d="M10.2682 3.5C10.0956 3.5 9.97427 3.32752 9.992 3.1559C9.99729 3.10465 10 3.05264 10 3C10 2.17157 9.32843 1.5 8.5 1.5C7.67157 1.5 7 2.17157 7 3C7 3.05264 7.00271 3.10465 7.008 3.1559C7.02573 3.32752 6.90437 3.5 6.73183 3.5H4C3.72386 3.5 3.5 3.72386 3.5 4V6.73183C3.5 6.90437 3.32752 7.02573 3.1559 7.008C3.10465 7.00271 3.05264 7 3 7C2.17157 7 1.5 7.67157 1.5 8.5C1.5 9.32843 2.17157 10 3 10C3.05264 10 3.10465 9.99729 3.1559 9.992C3.32752 9.97427 3.5 10.0956 3.5 10.2682V13C3.5 13.2761 3.72386 13.5 4 13.5H6.73183C6.90437 13.5 7.02573 13.3275 7.008 13.1559C7.00271 13.1047 7 13.0526 7 13C7 12.1716 7.67157 11.5 8.5 11.5C9.32843 11.5 10 12.1716 10 13C10 13.0526 9.99729 13.1047 9.992 13.1559C9.97427 13.3275 10.0956 13.5 10.2682 13.5H13C13.2761 13.5 13.5 13.2761 13.5 13V10.2682C13.5 10.0956 13.3275 9.97427 13.1559 9.992C13.1047 9.99729 13.0526 10 13 10C12.1716 10 11.5 9.32843 11.5 8.5C11.5 7.67157 12.1716 7 13 7C13.0526 7 13.1047 7.00271 13.1559 7.008C13.3275 7.02573 13.5 6.90437 13.5 6.73183V4C13.5 3.72386 13.2761 3.5 13 3.5H10.2682Z" fill="black"/>
<path id="Union" fill-rule="evenodd" clip-rule="evenodd" d="M8.5 2C7.94772 2 7.5 2.44772 7.5 3C7.5 3.03546 7.50183 3.07033 7.50536 3.10454C7.54528 3.49112 7.27571 4 6.73183 4L4 4V6.73183C4 7.27571 3.49112 7.54528 3.10454 7.50536C3.07033 7.50183 3.03546 7.5 3 7.5C2.44772 7.5 2 7.94772 2 8.5C2 9.05228 2.44772 9.5 3 9.5C3.03546 9.5 3.07033 9.49817 3.10454 9.49464C3.49112 9.45472 4 9.72429 4 10.2682V13H6.5C6.5 11.8954 7.39543 11 8.5 11C9.60457 11 10.5 11.8954 10.5 13H13V10.5C11.8954 10.5 11 9.60457 11 8.5C11 7.39543 11.8954 6.5 13 6.5V4H10.2682C9.72429 4 9.45472 3.49112 9.49464 3.10454C9.49817 3.07033 9.5 3.03546 9.5 3C9.5 2.44772 9.05228 2 8.5 2ZM6.5 3C6.5 1.89543 7.39543 1 8.5 1C9.60457 1 10.5 1.89543 10.5 3H13C13.5523 3 14 3.44772 14 4V6.73183C14 7.27571 13.4911 7.54528 13.1045 7.50536C13.0703 7.50183 13.0355 7.5 13 7.5C12.4477 7.5 12 7.94772 12 8.5C12 9.05228 12.4477 9.5 13 9.5C13.0355 9.5 13.0703 9.49817 13.1045 9.49464C13.4911 9.45472 14 9.72429 14 10.2682V13C14 13.5523 13.5523 14 13 14H10.2682C9.72429 14 9.45472 13.4911 9.49464 13.1045C9.49817 13.0703 9.5 13.0355 9.5 13C9.5 12.4477 9.05228 12 8.5 12C7.94772 12 7.5 12.4477 7.5 13C7.5 13.0355 7.50183 13.0703 7.50536 13.1045C7.54528 13.4911 7.27571 14 6.73183 14H4C3.44772 14 3 13.5523 3 13V10.5C1.89543 10.5 1 9.60457 1 8.5C1 7.39543 1.89543 6.5 3 6.5V4C3 3.44772 3.44772 3 4 3H6.5Z" fill="black"/>
</g>
</svg>
