<svg width="16" height="16" viewBox="0 0 16 16" fill="none" xmlns="http://www.w3.org/2000/svg">
<g id="dialog-icon-preview">
<path id="Union" fill-rule="evenodd" clip-rule="evenodd" d="M3.87697 2.35794C3.55623 2.73158 3.5624 3.24989 3.68183 3.72761L3.9701 4.88065C3.98991 4.95992 3.99994 5.04132 3.99995 5.12302L4.00007 5.81737C1.31366 7.70756 1.44656 10.866 1.49194 11.4168C1.49349 11.4356 1.49634 11.4539 1.50037 11.4719C1.50017 11.4812 1.50007 11.4906 1.50007 11.5C1.50007 13.5 4.68636 15 8.00007 15C11.3138 15 14.5001 13.5 14.5001 11.5L14.5 11.4879L14.4998 11.4717C14.5038 11.4538 14.5066 11.4355 14.5081 11.4168C14.5535 10.8659 14.6864 7.7074 12.0001 5.81724L12 5.1263C11.9999 5.04243 12.0105 4.9589 12.0313 4.87766L12.3135 3.7777C12.4359 3.30044 12.4457 2.78204 12.1314 2.4026C11.6336 1.80171 10.5009 1 7.99993 1C5.51306 1 4.37905 1.77307 3.87697 2.35794ZM4.25091 6.88602C4.85846 7.40717 6.47111 8 7.99993 8C9.52893 8 11.1418 7.40703 11.7492 6.88584C13.5829 8.42604 13.5538 10.735 13.5145 11.2952L13.4973 11.3721L13.5 11.4939L13.5001 11.5C13.5001 11.9259 13.1386 12.5412 12.034 13.1114C10.9852 13.6528 9.52172 14 8.00007 14C6.47841 14 5.01489 13.6528 3.96611 13.1114C2.86156 12.5412 2.50007 11.9259 2.50007 11.5L2.50013 11.4939L2.50281 11.372L2.48555 11.2951C2.44622 10.7346 2.4174 8.42607 4.25091 6.88602ZM10.25 3.3335C10.25 3.62947 9.5 4.08364 8 4.08364C6.5 4.08364 5.75 3.62947 5.75 3.3335C5.75 3.03752 6.49963 2.58335 8 2.58335C9.49963 2.58335 10.25 3.03752 10.25 3.3335Z" fill="black"/>
</g>
</svg>
