<svg width="16" height="16" viewBox="0 0 16 16" fill="none" xmlns="http://www.w3.org/2000/svg">
<g id="dialog-transform">
<path id="Union" fill-rule="evenodd" clip-rule="evenodd" d="M3.00146 2C2.44918 2 2.00146 2.44772 2.00146 3V6.5C2.00146 6.77614 2.22532 7 2.50146 7C2.77761 7 3.00146 6.77614 3.00146 6.5V3H13.0015V13H9.50146C9.22532 13 9.00146 13.2239 9.00146 13.5C9.00146 13.7761 9.22532 14 9.50146 14H13.0015C13.5538 14 14.0015 13.5523 14.0015 13V3C14.0015 2.44772 13.5537 2 13.0015 2H3.00146ZM3 13L3 9H7V13H3ZM3 14C2.44772 14 2 13.5523 2 13V8.5C2 8.22386 2.22386 8 2.5 8H7.29338L9.29309 6.00029L7.00159 6.00085C6.72544 6.00092 6.50153 5.77712 6.50146 5.50097C6.5014 5.22483 6.7252 5.00092 7.00134 5.00085L10.4998 5L10.9997 4.99988L10.9999 5.49978L11.0015 8.99978C11.0016 9.27592 10.7778 9.49988 10.5017 9.5C10.2255 9.50012 10.0016 9.27636 10.0015 9.00022L10.0005 6.70713L8 8.70759V13.5C8 13.7761 7.77614 14 7.5 14H3Z" fill="black"/>
<rect id="rectangle" opacity="0.3" x="3" y="9" width="4" height="4" fill="black"/>
</g>
</svg>
