<svg width="16" height="16" viewBox="0 0 16 16" fill="none" xmlns="http://www.w3.org/2000/svg">
<g id="dialog-selectors">
<path id="Union" fill-rule="evenodd" clip-rule="evenodd" d="M6.00005 3.00041L5.50005 3.00053L4.9997 3.00065C4.44751 3.00077 3.99993 3.44845 3.99993 4.00064V6.068C3.99993 6.83329 3.64978 7.53719 3.07904 7.99996C3.64978 8.46286 3.99993 9.16686 3.99993 9.93223V12.0005C3.99993 12.5527 4.44759 13.0004 4.99983 13.0005L5.49999 13.0005L5.99999 13.0006L5.99989 14.0006L5.49989 14.0005L4.99974 14.0005C3.89524 14.0004 2.99993 13.105 2.99993 12.0005V9.93223C2.99993 9.29214 2.59035 8.7238 1.9831 8.52129C1.48212 8.35422 1.48197 7.64539 1.98324 7.47838C2.59038 7.27609 2.99993 6.70795 2.99993 6.068V4.00064C2.99993 2.89625 3.89508 2.0009 4.99947 2.00065L5.49982 2.00053L5.99982 2.00041L6.00005 3.00041ZM10.9998 3.00048L10.5 3.00053L9.99999 3.00059L9.99989 2.00059L10.4999 2.00053L10.9997 2.00048C12.1044 2.00037 12.9999 2.89583 12.9999 4.00048V6.068C12.9999 6.70795 13.4095 7.27609 14.0166 7.47838C14.5179 7.64539 14.5177 8.35422 14.0168 8.52129C13.4095 8.7238 12.9999 9.29214 12.9999 9.93223L12.9999 12.0005C12.9999 13.105 12.1046 14.0004 11.0001 14.0005L10.5 14.0005L9.99999 14.0006L9.99989 13.0006L10.4999 13.0005L11 13.0005C11.5523 13.0004 11.9999 12.5527 11.9999 12.0005L11.9999 9.93223C11.9999 9.16686 12.3501 8.46287 12.9208 7.99996C12.3501 7.53719 11.9999 6.83329 11.9999 6.068V4.00048C11.9999 3.44816 11.5522 3.00042 10.9998 3.00048Z" fill="black"/>
</g>
</svg>
