<svg width="16" height="16" viewBox="0 0 16 16" fill="none" xmlns="http://www.w3.org/2000/svg">
<g id="dialog-information">
<path id="Vector 581" d="M8.57416 15H7.42584C7.15318 15 6.89169 14.8917 6.69889 14.6989C6.24435 14.2443 5.94319 13.6591 5.83751 13.0251L5.5 11H10.5L10.1625 13.0251C10.0568 13.6591 9.75565 14.2443 9.30111 14.6989C9.10831 14.8917 8.84682 15 8.57416 15Z" fill="black" fill-opacity="0.3"/>
<path id="Union" fill-rule="evenodd" clip-rule="evenodd" d="M12 6C12 7.35972 11.3225 8.56137 10.2821 9.28567C9.83933 9.59391 9.5 10.1192 9.5 10.75V11H6.5V10.75C6.5 10.1192 6.16067 9.59391 5.71792 9.28567C4.67752 8.56137 4 7.35972 4 6C4 3.79086 5.79086 2 8 2C10.2091 2 12 3.79086 12 6ZM6.5 12V12.1972C6.5 12.8955 6.80776 13.5532 7.33227 14H8.66773C9.19224 13.5532 9.5 12.8955 9.5 12.1972V12H6.5ZM13 6C13 7.70072 12.1509 9.20312 10.8534 10.1064C10.6407 10.2545 10.5 10.4907 10.5 10.75V12V12.1972C10.5 13.222 10.034 14.1851 9.24408 14.821C9.09029 14.9448 8.89465 15 8.69722 15H7.30278C7.10535 15 6.90971 14.9448 6.75592 14.821C5.96601 14.1851 5.5 13.222 5.5 12.1972V12V10.75C5.5 10.4907 5.35933 10.2545 5.14656 10.1064C3.84913 9.20312 3 7.70072 3 6C3 3.23858 5.23858 1 8 1C10.7614 1 13 3.23858 13 6Z" fill="black"/>
</g>
</svg>
