<svg width="16" height="16" viewBox="0 0 16 16" fill="none" xmlns="http://www.w3.org/2000/svg">
<g id="dialog-tile-clones">
<path id="Union" fill-rule="evenodd" clip-rule="evenodd" d="M2 3C2 2.44772 2.44772 2 3 2H11C11.5523 2 12 2.44772 12 3V4H13C13.5523 4 14 4.44772 14 5V13C14 13.5523 13.5523 14 13 14H5C4.44772 14 4 13.5523 4 13V12H3C2.44772 12 2 11.5523 2 11V3ZM5 12V13H13V5H12V11C12 11.5523 11.5523 12 11 12H5ZM6 5.5C6 4.94772 6.44772 4.5 7 4.5C7.55228 4.5 8 4.94772 8 5.5V6.5H6V5.5ZM5 6.5V5.5C5 4.39543 5.89543 3.5 7 3.5C8.10457 3.5 9 4.39543 9 5.5V6.5H9.5C9.77614 6.5 10 6.72386 10 7V9.5C10 9.77614 9.77614 10 9.5 10H4.5C4.22386 10 4 9.77614 4 9.5V7C4 6.72386 4.22386 6.5 4.5 6.5H5Z" fill="black"/>
</g>
</svg>
