<svg width="16" height="16" viewBox="0 0 16 16" fill="none" xmlns="http://www.w3.org/2000/svg">
<g id="dialog-align-and-distribute">
<rect id="rectangle" opacity="0.4" x="4" y="9" width="10" height="4" rx="0.5" fill="black"/>
<rect id="rectangle_2" opacity="0.4" x="4" y="3" width="5" height="4" rx="0.5" fill="black"/>
<path id="Union" fill-rule="evenodd" clip-rule="evenodd" d="M2 1.49996C1.99998 1.22382 1.7761 0.999979 1.49996 1C1.22382 1.00002 0.999979 1.2239 1 1.50004L1.00098 14.5C1.001 14.7762 1.22487 15 1.50101 15C1.77716 15 2.001 14.7761 2.00098 14.5L2 1.49996ZM5 4V6H8V4H5ZM4.5 3C4.22386 3 4 3.22386 4 3.5V6.5C4 6.77614 4.22386 7 4.5 7H8.5C8.77614 7 9 6.77614 9 6.5V3.5C9 3.22386 8.77614 3 8.5 3H4.5ZM5 10V12H13V10H5ZM4.5 9C4.22386 9 4 9.22386 4 9.5V12.5C4 12.7761 4.22386 13 4.5 13H13.5C13.7761 13 14 12.7761 14 12.5V9.5C14 9.22386 13.7761 9 13.5 9H4.5Z" fill="black"/>
</g>
</svg>
