<svg width="16" height="16" viewBox="0 0 16 16" fill="none" xmlns="http://www.w3.org/2000/svg">
<g id="dialog-memory">
<path id="Union" fill-rule="evenodd" clip-rule="evenodd" d="M5 1.5C5 1.22386 5.22386 1 5.5 1C5.77614 1 6 1.22386 6 1.5V2.5C6 2.77614 5.77614 3 5.5 3C5.22386 3 5 2.77614 5 2.5V1.5ZM5 4C4.44772 4 4 4.44772 4 5V11C4 11.5523 4.44772 12 5 12H11C11.5523 12 12 11.5523 12 11V5C12 4.44772 11.5523 4 11 4H5ZM15 5.5C15 5.22386 14.7761 5 14.5 5H13.5C13.2239 5 13 5.22386 13 5.5C13 5.77614 13.2239 6 13.5 6H14.5C14.7761 6 15 5.77614 15 5.5ZM5 13.5C5 13.2239 5.22386 13 5.5 13C5.77614 13 6 13.2239 6 13.5V14.5C6 14.7761 5.77614 15 5.5 15C5.22386 15 5 14.7761 5 14.5V13.5ZM3 5.5C3 5.22386 2.77614 5 2.5 5H1.5C1.22386 5 1 5.22386 1 5.5C1 5.77614 1.22386 6 1.5 6H2.5C2.77614 6 3 5.77614 3 5.5ZM8 1.5C8 1.22386 8.22386 1 8.5 1C8.77614 1 9 1.22386 9 1.5V2.5C9 2.77614 8.77614 3 8.5 3C8.22386 3 8 2.77614 8 2.5V1.5ZM15 8.5C15 8.22386 14.7761 8 14.5 8H13.5C13.2239 8 13 8.22386 13 8.5C13 8.77614 13.2239 9 13.5 9H14.5C14.7761 9 15 8.77614 15 8.5ZM8 13.5C8 13.2239 8.22386 13 8.5 13C8.77614 13 9 13.2239 9 13.5V14.5C9 14.7761 8.77614 15 8.5 15C8.22386 15 8 14.7761 8 14.5V13.5ZM3 8.5C3 8.22386 2.77614 8 2.5 8H1.5C1.22386 8 1 8.22386 1 8.5C1 8.77614 1.22386 9 1.5 9H2.5C2.77614 9 3 8.77614 3 8.5ZM11 1.5C11 1.22386 11.2239 1 11.5 1C11.7761 1 12 1.22386 12 1.5V2.5C12 2.77614 11.7761 3 11.5 3C11.2239 3 11 2.77614 11 2.5V1.5ZM15 11.5C15 11.2239 14.7761 11 14.5 11H13.5C13.2239 11 13 11.2239 13 11.5C13 11.7761 13.2239 12 13.5 12H14.5C14.7761 12 15 11.7761 15 11.5ZM5 5V11H11V5H5ZM11 13.5C11 13.2239 11.2239 13 11.5 13C11.7761 13 12 13.2239 12 13.5V14.5C12 14.7761 11.7761 15 11.5 15C11.2239 15 11 14.7761 11 14.5V13.5ZM3 11.5C3 11.2239 2.77614 11 2.5 11H1.5C1.22386 11 1 11.2239 1 11.5C1 11.7761 1.22386 12 1.5 12H2.5C2.77614 12 3 11.7761 3 11.5Z" fill="black"/>
</g>
</svg>
