<svg width="16" height="16" viewBox="0 0 16 16" fill="none" xmlns="http://www.w3.org/2000/svg">
<g id="dialog-fill-and-stroke">
<g id="Group 252">
<path id="rectangle" opacity="0.1" d="M4 6.41421C4 6.149 4.10536 5.89464 4.29289 5.70711L5.70711 4.29289C5.89464 4.10536 6.149 4 6.41421 4H9L4 9V6.41421Z" fill="black"/>
<path id="Vector 639" opacity="0.2" d="M4 9V12L12 4H9L4 9Z" fill="black"/>
<path id="Vector 640" opacity="0.3" d="M4 14V12L12 4H14V5L5 14H4Z" fill="black"/>
<path id="Vector 641" opacity="0.4" d="M5 14H8L14 8V5L5 14Z" fill="black"/>
<path id="rectangle_2" opacity="0.5" d="M14 8V11L11 14H8L14 8Z" fill="black"/>
<path id="rectangle_3" opacity="0.6" d="M14 11V13C14 13.5523 13.5523 14 13 14H11L14 11Z" fill="black"/>
</g>
<path id="Union" fill-rule="evenodd" clip-rule="evenodd" d="M1.5 3C1.5 2.17157 2.17157 1.5 3 1.5C3.82843 1.5 4.5 2.17157 4.5 3C4.5 3.82843 3.82843 4.5 3 4.5C2.17157 4.5 1.5 3.82843 1.5 3ZM6 2.5C6 2.22386 6.22386 2 6.5 2H8.5C8.77614 2 9 2.22386 9 2.5V3.5C9 3.77614 8.77614 4 8.5 4H6.5C6.22386 4 6 3.77614 6 3.5V2.5ZM2.5 6C2.22386 6 2 6.22386 2 6.5V8.5C2 8.77614 2.22386 9 2.5 9H3.5C3.77614 9 4 8.77614 4 8.5V6.5C4 6.22386 3.77614 6 3.5 6H2.5ZM2 11.5C2 11.2239 2.22386 11 2.5 11H3.5C3.77614 11 4 11.2239 4 11.5V14H2V11.5ZM11.5 2C11.2239 2 11 2.22386 11 2.5V3.5C11 3.77614 11.2239 4 11.5 4H14V2H11.5Z" fill="black"/>
</g>
</svg>
