<svg width="16" height="16" viewBox="0 0 16 16" fill="none" xmlns="http://www.w3.org/2000/svg">
<g id="dialog-rows-and-columns">
<path id="Union" fill-rule="evenodd" clip-rule="evenodd" d="M8.5 2.5H13.001V5.5L8.5 5.5V2.5ZM8.5 6.5H13.001V9.5H8.5V6.5ZM7.5 9.5V6.5H3.00098L3.00098 9.5H7.5ZM3.00098 10.5H7.5V13.5H3.00098L3.00098 10.5ZM8.5 10.5H13.001V13.5H8.5V10.5ZM7.5 2.5V5.5L3.00098 5.5L3.00098 2.5H7.5ZM2.00098 2.5C2.00098 1.94772 2.44869 1.5 3.00098 1.5H13.001C13.5533 1.5 14.001 1.94772 14.001 2.5V13.5C14.001 14.0523 13.5533 14.5 13.001 14.5H3.00098C2.44869 14.5 2.00098 14.0523 2.00098 13.5V2.5Z" fill="black"/>
</g>
</svg>
