<svg width="16" height="16" viewBox="0 0 16 16" fill="none" xmlns="http://www.w3.org/2000/svg">
<g id="dialog-messages">
<path id="Union" d="M8 10.5L8.35355 10.1464L8.20711 10H8V10.5ZM11.5 10.5V10H11V10.5H11.5ZM3 4C3 3.72386 3.22386 3.5 3.5 3.5V2.5C2.67157 2.5 2 3.17157 2 4H3ZM3 9.5V4H2V9.5H3ZM3.5 10C3.22386 10 3 9.77614 3 9.5H2C2 10.3284 2.67157 11 3.5 11V10ZM8 10H3.5V11H8V10ZM7.64645 10.8536L10.9757 14.1828L11.6828 13.4757L8.35355 10.1464L7.64645 10.8536ZM10.9757 14.1828C11.3537 14.5608 12 14.2931 12 13.7586H11C11 13.4022 11.4309 13.2237 11.6828 13.4757L10.9757 14.1828ZM12 13.7586V10.5H11V13.7586H12ZM12.5 10H11.5V11H12.5V10ZM13 9.5C13 9.77614 12.7761 10 12.5 10V11C13.3284 11 14 10.3284 14 9.5H13ZM13 4V9.5H14V4H13ZM12.5 3.5C12.7761 3.5 13 3.72386 13 4H14C14 3.17157 13.3284 2.5 12.5 2.5V3.5ZM3.5 3.5H12.5V2.5H3.5V3.5Z" fill="black"/>
</g>
</svg>
