<svg width="16" height="16" viewBox="0 0 16 16" fill="none" xmlns="http://www.w3.org/2000/svg">
<g id="dialog-templates">
<path id="Union" fill-rule="evenodd" clip-rule="evenodd" d="M2.00098 3C2.00098 2.44772 2.44869 2 3.00098 2H5.00098H5.50098H7.00098H7.50098H9.29387C9.55909 2 9.81344 2.10536 10.001 2.29289L13.7081 6C13.8956 6.18754 14.001 6.44189 14.001 6.70711V13C14.001 13.5523 13.5533 14 13.001 14H7.50098H7.00098H5.50098H5.00098H3.00098C2.44869 14 2.00098 13.5523 2.00098 13V3ZM5.00098 13H5.50098H6.00098V3L5.50098 3L5.00098 3V13ZM4.00098 3H3.00098V13H4.00098V3ZM7.00098 3V13H7.50098H13.001V7H10.001C9.44869 7 9.00098 6.55228 9.00098 6V3H7.50098L7.00098 3ZM12.2939 6L10.001 3.70711V6H12.2939Z" fill="black"/>
</g>
</svg>
