<svg width="16" height="16" viewBox="0 0 16 16" fill="none" xmlns="http://www.w3.org/2000/svg">
<g id="dialog-geometry">
<g id="Union">
<mask id="path-1-inside-1_241_9201" fill="white">
<path fill-rule="evenodd" clip-rule="evenodd" d="M13.5067 3.39274L13.055 3.84452L12.2599 4.6396L12.498 4.87767C12.7837 5.16343 12.8089 5.61833 12.5565 5.9339L11.6519 7.06477C11.6471 7.07073 11.6423 7.07662 11.6373 7.08242L9.93284 12.1962C9.67809 12.9605 8.8979 13.4018 8.12776 13.2524L6.25854 14.4986L7.05163 12.9123H7.06494L7.052 12.908L8.95362 7.20271C8.93386 7.18779 8.91482 7.17197 8.89656 7.15531L3.8687 9.39006L3.08665 9.73766L3.08617 9.73624V9.73881L1.5 10.5319L2.73474 8.67972C2.50507 7.91726 2.8774 7.09875 3.60949 6.77335L8.64928 4.5333L8.82614 4.45469C8.85884 4.41613 8.89542 4.38048 8.93558 4.34834L10.0663 3.44369C10.3819 3.19121 10.8369 3.21641 11.1226 3.5022L11.3565 3.73605L12.1514 2.94103L12.6032 2.48926L13.5067 3.39274ZM8.63794 5.47054L3.95548 7.55176C3.6099 7.70536 3.43747 8.09629 3.55706 8.45506L3.59808 8.57814L8.63794 6.33806V5.47054ZM9.79829 7.36245L8.12949 12.3692L8.19579 12.3913C8.58056 12.5196 8.99646 12.3116 9.12471 11.9268L10.6461 7.36245H9.79829Z"/>
</mask>
<path fill-rule="evenodd" clip-rule="evenodd" d="M13.5067 3.39274L13.055 3.84452L12.2599 4.6396L12.498 4.87767C12.7837 5.16343 12.8089 5.61833 12.5565 5.9339L11.6519 7.06477C11.6471 7.07073 11.6423 7.07662 11.6373 7.08242L9.93284 12.1962C9.67809 12.9605 8.8979 13.4018 8.12776 13.2524L6.25854 14.4986L7.05163 12.9123H7.06494L7.052 12.908L8.95362 7.20271C8.93386 7.18779 8.91482 7.17197 8.89656 7.15531L3.8687 9.39006L3.08665 9.73766L3.08617 9.73624V9.73881L1.5 10.5319L2.73474 8.67972C2.50507 7.91726 2.8774 7.09875 3.60949 6.77335L8.64928 4.5333L8.82614 4.45469C8.85884 4.41613 8.89542 4.38048 8.93558 4.34834L10.0663 3.44369C10.3819 3.19121 10.8369 3.21641 11.1226 3.5022L11.3565 3.73605L12.1514 2.94103L12.6032 2.48926L13.5067 3.39274ZM8.63794 5.47054L3.95548 7.55176C3.6099 7.70536 3.43747 8.09629 3.55706 8.45506L3.59808 8.57814L8.63794 6.33806V5.47054ZM9.79829 7.36245L8.12949 12.3692L8.19579 12.3913C8.58056 12.5196 8.99646 12.3116 9.12471 11.9268L10.6461 7.36245H9.79829Z" fill="black"/>
<path d="M13.055 3.84452L13.6573 4.44684V4.44684L13.055 3.84452ZM13.5067 3.39274L14.1091 3.99507L14.7114 3.39271L14.109 2.79038L13.5067 3.39274ZM12.2599 4.6396L11.6576 4.03727L11.0553 4.6396L11.6576 5.24192L12.2599 4.6396ZM12.498 4.87767L11.8956 5.48V5.48L12.498 4.87767ZM12.5565 5.9339L13.2217 6.46602V6.46602L12.5565 5.9339ZM11.6519 7.06477L12.3171 7.5969L12.3171 7.59689L11.6519 7.06477ZM11.6373 7.08242L10.9877 6.53136L10.8812 6.65689L10.8292 6.81306L11.6373 7.08242ZM9.93284 12.1962L9.12471 11.9268L9.93284 12.1962ZM8.12776 13.2524L8.29004 12.4161L7.94644 12.3494L7.65522 12.5436L8.12776 13.2524ZM6.25854 14.4986L5.49662 14.1176L4.06217 16.9867L6.73108 15.2073L6.25854 14.4986ZM7.05163 12.9123V12.0605H6.52515L6.28971 12.5314L7.05163 12.9123ZM7.06494 12.9123V13.7641L7.33431 12.1042L7.06494 12.9123ZM7.052 12.908L6.24387 12.6386L5.97451 13.4468L6.78263 13.7161L7.052 12.908ZM8.95362 7.20271L9.76175 7.47207L9.95524 6.89156L9.46689 6.52287L8.95362 7.20271ZM8.89656 7.15531L9.47081 6.52611L9.05947 6.1507L8.55058 6.37689L8.89656 7.15531ZM3.8687 9.39006L3.52272 8.61164H3.52272L3.8687 9.39006ZM3.08665 9.73766L2.27852 10.0071L2.57525 10.8972L3.43263 10.5161L3.08665 9.73766ZM3.08617 9.73624L3.89429 9.46684L2.23433 9.73624H3.08617ZM3.08617 9.73881L3.46715 10.5007L3.93801 10.2653V9.73881H3.08617ZM1.5 10.5319L0.79121 10.0595L-0.98799 12.7284L1.88098 11.2939L1.5 10.5319ZM2.73474 8.67972L3.44353 9.15222L3.66613 8.81829L3.55038 8.43402L2.73474 8.67972ZM3.60949 6.77335L3.95548 7.55176L3.60949 6.77335ZM8.64928 4.5333L8.30329 3.75489L8.30329 3.75489L8.64928 4.5333ZM8.82614 4.45469L9.17213 5.2331L9.34997 5.15406L9.47584 5.00562L8.82614 4.45469ZM8.93558 4.34834L8.40342 3.68318L8.40341 3.68318L8.93558 4.34834ZM10.0663 3.44369L10.5985 4.10885L10.5985 4.10885L10.0663 3.44369ZM11.1226 3.5022L11.725 2.89987L11.725 2.89987L11.1226 3.5022ZM11.3565 3.73605L10.7541 4.33837L11.3565 4.94078L11.9588 4.33837L11.3565 3.73605ZM12.1514 2.94103L12.7538 3.54335L12.7538 3.54335L12.1514 2.94103ZM12.6032 2.48926L13.2055 1.88689L12.6031 1.28457L12.0008 1.88693L12.6032 2.48926ZM3.95548 7.55176L3.60949 6.77335H3.60949L3.95548 7.55176ZM8.63794 5.47054H9.48978V4.15972L8.29195 4.69212L8.63794 5.47054ZM3.55706 8.45506L4.36519 8.1857L4.36519 8.1857L3.55706 8.45506ZM3.59808 8.57814L2.78995 8.8475L3.08664 9.73766L3.94406 9.35656L3.59808 8.57814ZM8.63794 6.33806L8.98392 7.11648L9.48978 6.89164V6.33806H8.63794ZM8.12949 12.3692L7.32136 12.0999L7.052 12.908L7.86012 13.1774L8.12949 12.3692ZM9.79829 7.36245V6.51061H9.1843L8.99016 7.09309L9.79829 7.36245ZM8.19579 12.3913L7.92641 13.1995L7.92642 13.1995L8.19579 12.3913ZM9.12471 11.9268L9.93284 12.1962L9.12471 11.9268ZM10.6461 7.36245L11.4542 7.63181L11.8279 6.51061H10.6461V7.36245ZM13.6573 4.44684L14.1091 3.99507L12.9044 2.79042L12.4526 3.24219L13.6573 4.44684ZM12.8623 5.24192L13.6573 4.44684L12.4526 3.24219L11.6576 4.03727L12.8623 5.24192ZM13.1004 4.27535L12.8623 4.03727L11.6576 5.24192L11.8956 5.48L13.1004 4.27535ZM13.2217 6.46602C13.7453 5.81152 13.693 4.86802 13.1004 4.27535L11.8956 5.48C11.8745 5.45883 11.8726 5.42515 11.8913 5.40178L13.2217 6.46602ZM12.3171 7.59689L13.2217 6.46602L11.8913 5.40178L10.9867 6.53265L12.3171 7.59689ZM12.2869 7.63348C12.2972 7.62141 12.3072 7.60921 12.3171 7.5969L10.9867 6.53264C10.987 6.53225 10.9873 6.53182 10.9877 6.53136L12.2869 7.63348ZM10.741 12.4656L12.4455 7.35178L10.8292 6.81306L9.12471 11.9268L10.741 12.4656ZM7.96548 14.0886C9.15006 14.3185 10.3492 13.641 10.741 12.4656L9.12471 11.9268C9.00698 12.2801 8.64575 12.4851 8.29004 12.4161L7.96548 14.0886ZM6.73108 15.2073L8.6003 13.9611L7.65522 12.5436L5.78601 13.7898L6.73108 15.2073ZM6.28971 12.5314L5.49662 14.1176L7.02047 14.8795L7.81355 13.2932L6.28971 12.5314ZM7.06494 12.0605H7.05163V13.7641H7.06494V12.0605ZM6.78263 13.7161L6.79557 13.7204L7.33431 12.1042L7.32137 12.0999L6.78263 13.7161ZM8.14548 6.93335L6.24387 12.6386L7.86014 13.1774L9.76175 7.47207L8.14548 6.93335ZM8.32232 7.7845C8.36007 7.81895 8.39945 7.85167 8.44035 7.88255L9.46689 6.52287C9.46827 6.52391 9.46958 6.52499 9.47081 6.52611L8.32232 7.7845ZM4.21468 10.1685L9.24255 7.93372L8.55058 6.37689L3.52272 8.61164L4.21468 10.1685ZM3.43263 10.5161L4.21469 10.1685L3.52272 8.61164L2.74066 8.95924L3.43263 10.5161ZM2.27805 10.0056L2.27852 10.0071L3.89477 9.46826L3.89429 9.46684L2.27805 10.0056ZM3.93801 9.73881V9.73624H2.23433V9.73881H3.93801ZM1.88098 11.2939L3.46715 10.5007L2.7052 8.97691L1.11902 9.77005L1.88098 11.2939ZM2.02595 8.20722L0.79121 10.0595L2.20879 11.0044L3.44353 9.15222L2.02595 8.20722ZM3.26351 5.99493C2.13816 6.49512 1.56598 7.75314 1.9191 8.92541L3.55038 8.43402C3.44416 8.08139 3.61663 7.70237 3.95548 7.55176L3.26351 5.99493ZM8.30329 3.75489L3.26351 5.99493L3.95548 7.55176L8.99526 5.31172L8.30329 3.75489ZM8.48016 3.67627L8.30329 3.75489L8.99526 5.31172L9.17213 5.2331L8.48016 3.67627ZM8.40341 3.68318C8.32019 3.74977 8.2443 3.82373 8.17644 3.90376L9.47584 5.00562C9.47337 5.00853 9.47064 5.01118 9.46774 5.0135L8.40341 3.68318ZM9.53416 2.77853L8.40342 3.68318L9.46774 5.0135L10.5985 4.10885L9.53416 2.77853ZM11.725 2.89987C11.1323 2.30714 10.1887 2.25488 9.53415 2.77853L10.5985 4.10885C10.5751 4.12755 10.5414 4.12568 10.5203 4.10452L11.725 2.89987ZM11.9588 3.13373L11.725 2.89987L10.5203 4.10452L10.7541 4.33837L11.9588 3.13373ZM11.5491 2.33871L10.7541 3.13373L11.9588 4.33837L12.7538 3.54335L11.5491 2.33871ZM12.0008 1.88693L11.5491 2.33871L12.7538 3.54335L13.2055 3.09158L12.0008 1.88693ZM14.109 2.79038L13.2055 1.88689L12.0008 3.09162L12.9044 3.99511L14.109 2.79038ZM4.30146 8.33018L8.98392 6.24895L8.29195 4.69212L3.60949 6.77335L4.30146 8.33018ZM4.36519 8.1857C4.38432 8.24309 4.35674 8.30561 4.30146 8.33018L3.60949 6.77335C2.86307 7.10512 2.49063 7.9495 2.74892 8.72442L4.36519 8.1857ZM4.40621 8.30878L4.36519 8.1857L2.74892 8.72442L2.78995 8.8475L4.40621 8.30878ZM8.29195 5.55965L3.2521 7.79973L3.94406 9.35656L8.98392 7.11648L8.29195 5.55965ZM7.7861 5.47054V6.33806H9.48978V5.47054H7.7861ZM8.93763 12.6386L10.6064 7.63181L8.99016 7.09309L7.32136 12.0999L8.93763 12.6386ZM8.46516 11.5832L8.39886 11.5611L7.86012 13.1774L7.92641 13.1995L8.46516 11.5832ZM8.31658 11.6575C8.33709 11.5959 8.40361 11.5627 8.46515 11.5832L7.92642 13.1995C8.75752 13.4765 9.65583 13.0273 9.93284 12.1962L8.31658 11.6575ZM9.83794 7.09309L8.31658 11.6575L9.93284 12.1962L11.4542 7.63181L9.83794 7.09309ZM9.79829 8.21429H10.6461V6.51061H9.79829V8.21429Z" fill="black" mask="url(#path-1-inside-1_241_9201)"/>
</g>
</g>
</svg>
