<svg width="16" height="16" viewBox="0 0 16 16" fill="none" xmlns="http://www.w3.org/2000/svg">
<g id="dialog-scripts">
<path id="Union" fill-rule="evenodd" clip-rule="evenodd" d="M1.8999 1.8999H2.4999H4.9999C5.33127 1.8999 5.5999 2.16853 5.5999 2.4999C5.5999 2.83127 5.33127 3.0999 4.9999 3.0999H3.0999V12.8999H4.9999C5.33127 12.8999 5.5999 13.1685 5.5999 13.4999C5.5999 13.8313 5.33127 14.0999 4.9999 14.0999H2.4999H1.8999V13.4999V2.4999V1.8999ZM10.3999 2.4999C10.3999 2.16853 10.6685 1.8999 10.9999 1.8999H13.4999H14.0999V2.4999V13.4999V14.0999H13.4999H10.9999C10.6685 14.0999 10.3999 13.8313 10.3999 13.4999C10.3999 13.1685 10.6685 12.8999 10.9999 12.8999H12.8999V3.0999H10.9999C10.6685 3.0999 10.3999 2.83127 10.3999 2.4999Z" fill="black"/>
</g>
</svg>
