<svg width="16" height="16" viewBox="0 0 16 16" fill="none" xmlns="http://www.w3.org/2000/svg">
<g id="dialog-path-effects">
<path id="Union" fill-rule="evenodd" clip-rule="evenodd" d="M0.500488 5.67813C0.500488 2.71 3.91056 1.03677 6.25813 2.85301L8.00028 4.20085L8.20568 4.04194C8.42409 3.87296 8.73812 3.91304 8.9071 4.13144C9.07607 4.34985 9.036 4.66389 8.81759 4.83286L8.5 5.07857V6.75V8.5V10.25V12V12.0839L8.51501 12.1039C8.55599 12.1585 8.5841 12.2188 8.59986 12.2811C8.65527 12.3137 8.70528 12.3576 8.74626 12.4122L8.86189 12.5663C9.0159 12.7716 9.18601 12.9331 9.36419 13.0571C9.59085 13.2148 9.64673 13.5265 9.489 13.7531C9.33126 13.9798 9.01965 14.0357 8.79299 13.8779C8.52443 13.691 8.27782 13.4542 8.06194 13.1664L8.00016 13.084L7.9385 13.1663C5.99302 15.7598 1.87761 13.9627 2.45758 10.7729C2.57158 10.1459 2.871 9.5924 3.29307 9.16479C1.69515 8.80919 0.500488 7.38318 0.500488 5.67813ZM7.5 11.2982C7.49961 11.3064 7.49941 11.3146 7.49941 11.3228V12.0851L7.13854 12.5662C5.82624 14.3156 3.05024 13.1034 3.44145 10.9518C3.61932 9.97349 4.46642 9.26045 5.45862 9.25006H7.49941V9.46875C7.49941 9.47698 7.49961 9.48516 7.5 9.49329V10.25V11.2982ZM7.5 7.5902V6.75V5.78524C7.49961 5.77711 7.49941 5.76893 7.49941 5.76071V5.07768L5.64622 3.64393C3.95587 2.33617 1.50049 3.54096 1.50049 5.67813C1.50049 7.09857 2.65198 8.25006 4.07242 8.25006H5.45384L5.48059 8.24995H7.49941V7.61473C7.49941 7.6065 7.49961 7.59833 7.5 7.5902ZM12.3794 3.14339C12.1079 3.09321 11.9285 2.8324 11.9786 2.56085C12.0288 2.28931 12.2896 2.10985 12.5612 2.16003C13.2148 2.28083 13.8277 2.58157 14.3233 3.02465C14.5291 3.20871 14.5468 3.5248 14.3627 3.73065C14.1786 3.9365 13.8626 3.95417 13.6567 3.7701C13.2979 3.44929 12.8527 3.23085 12.3794 3.14339ZM10.6 2.35732C10.8558 2.25338 11.1475 2.37651 11.2514 2.63234C11.3553 2.88818 11.2322 3.17983 10.9764 3.28377C10.7639 3.37011 10.5548 3.48887 10.3543 3.64398L9.84204 4.04028C9.62364 4.20925 9.3096 4.16918 9.14063 3.95077C8.97165 3.73236 9.01172 3.41833 9.23013 3.24935L9.74236 2.85306C10.0142 2.64274 10.3024 2.4782 10.6 2.35732ZM14.4042 4.96573C14.3299 4.69978 14.4852 4.42393 14.7512 4.34959C15.0171 4.27525 15.293 4.43058 15.3673 4.69653C15.4538 5.00581 15.5 5.33447 15.5 5.67819C15.5 5.99302 15.4591 6.29906 15.3822 6.59097C15.3118 6.85798 15.0383 7.01737 14.7712 6.94697C14.5042 6.87657 14.3448 6.60304 14.4152 6.33602C14.4704 6.12659 14.5 5.90622 14.5 5.67819C14.5 5.4247 14.466 5.18664 14.4042 4.96573ZM13.765 7.47828C13.9583 7.28107 14.2749 7.27788 14.4721 7.47117C14.6693 7.66445 14.6725 7.98102 14.4792 8.17824C14.2644 8.39739 14.0215 8.58905 13.7562 8.74737C13.5191 8.88888 13.2121 8.81136 13.0706 8.57423C12.9291 8.33711 13.0066 8.03016 13.2438 7.88865C13.4348 7.77464 13.61 7.63646 13.765 7.47828ZM10.4981 9.25011C10.2219 9.24906 9.99895 9.02434 10 8.7482C10.0011 8.47206 10.2258 8.24906 10.5019 8.25012C10.8666 8.25151 11.2203 8.31706 11.5499 8.43667C11.8095 8.53086 11.9436 8.81765 11.8494 9.07724C11.7552 9.33682 11.4684 9.47089 11.2088 9.3767C10.9848 9.2954 10.745 9.25106 10.4981 9.25011ZM12.3079 10.2818C12.1668 10.0444 12.2449 9.73763 12.4822 9.59653C12.7196 9.45542 13.0264 9.53346 13.1675 9.77083C13.3474 10.0735 13.477 10.411 13.5429 10.773C13.6072 11.127 13.6133 11.4688 13.5678 11.7929C13.5295 12.0663 13.2767 12.2569 13.0032 12.2185C12.7298 12.1802 12.5392 11.9274 12.5775 11.6539C12.6077 11.4389 12.6049 11.2044 12.559 10.9519C12.515 10.7102 12.4286 10.4848 12.3079 10.2818ZM11.9385 12.8435C12.1436 12.6587 12.4598 12.6752 12.6446 12.8804C12.8294 13.0855 12.8129 13.4017 12.6078 13.5865C12.0988 14.045 11.4434 14.3311 10.7612 14.3928C10.4862 14.4177 10.2431 14.2149 10.2182 13.9399C10.1933 13.6649 10.3961 13.4218 10.6711 13.3969C11.138 13.3547 11.5901 13.1573 11.9385 12.8435Z" fill="black"/>
</g>
</svg>
