<svg width="16" height="16" viewBox="0 0 16 16" fill="none" xmlns="http://www.w3.org/2000/svg">
<g id="dialog-paint-server">
<path id="Union" fill-rule="evenodd" clip-rule="evenodd" d="M12.4349 6.72701L9.27303 3.56518C9.67476 3.01962 9.9299 2.4561 10.0923 1.96254L14.0375 5.90776C13.5439 6.07013 12.9804 6.32527 12.4349 6.72701ZM12.3924 7.80607L12.2982 7.90034L9.97992 10.2186C9.36393 10.8346 8.42444 10.9298 7.70837 10.5044L5.08974 14.0754C4.26922 15.1944 2.64439 15.3187 1.66321 14.3376C0.682001 13.3564 0.80625 11.7315 1.92523 10.911L5.49606 8.29243C5.07014 7.57627 5.16529 6.63633 5.78148 6.02014L8.09971 3.70191L8.19398 3.60765L8.19397 3.60764C8.893 2.90857 9.24287 2.0931 9.41798 1.45195C9.52748 1.05104 10.0959 0.844626 10.3897 1.13849L14.8615 5.61024C15.1554 5.90412 14.9489 6.47256 14.548 6.58206C13.9088 6.75664 13.0964 7.10492 12.3988 7.79973C12.3966 7.80184 12.3945 7.80396 12.3924 7.80607ZM7.91837 5.00478L8.66048 4.26267L11.7374 7.33958L10.9953 8.08169L7.91837 5.00478ZM7.25865 5.6645L10.3356 8.74141L9.41915 9.65781C9.06573 10.0112 8.52528 10.0673 8.11341 9.82264L7.49453 9.45498L7.06885 10.0355L4.45022 13.6065C3.91712 14.3335 2.86144 14.4142 2.22396 13.7768C1.58645 13.1393 1.66718 12.0836 2.39419 11.5505L5.96502 8.93195L6.54579 8.50607L6.17767 7.88707C5.93269 7.47516 5.98869 6.93445 6.34224 6.5809L7.25865 5.6645ZM3.99553 12.7042C3.99553 13.0907 3.68225 13.404 3.29579 13.404C2.90934 13.404 2.59605 13.0907 2.59605 12.7042C2.59605 12.3178 2.90934 12.0045 3.29579 12.0045C3.68225 12.0045 3.99553 12.3178 3.99553 12.7042Z" fill="black"/>
</g>
</svg>
