<svg width="16" height="16" viewBox="0 0 16 16" fill="none" xmlns="http://www.w3.org/2000/svg">
<g id="dialog-svg-font">
<path id="Union" fill-rule="evenodd" clip-rule="evenodd" d="M6.8862 11.6784L6.83548 11.8343L6.04202 11.0409L6.15993 10.6784H6.26046H7.21151H8.78478H9.70932H9.83617L10.1609 11.6784L10.59 13.0002H11.837H12.8968L12.5458 12.0002L11.7093 9.61687L11.4921 8.99805L11.1411 7.99805L9.38688 3H6.61273L4.85599 7.99805L4.5045 8.99805L4.37308 9.37195L3.58878 8.58765L5.66931 2.6684L5.90424 2H6.61273H9.38688H10.0957L10.3304 2.66882L13.8404 12.669L14.3076 14.0002H12.8968H10.59H9.86329L9.63888 13.309L9.10947 11.6784H6.8862ZM8.96589 7.99805L9.29058 8.99805H8.23919H7.75817H6.70659L7.03191 7.99805L7.47363 6.64021L7.95063 5.17394L7.96003 5.14506H8.03958L8.04897 5.174L8.52512 6.64051L8.96589 7.99805ZM3.35461 10.6464L3.00105 10.2929L2.6475 10.6464L0.647499 12.6464L0.293945 13L0.647499 13.3536L2.6475 15.3536L3.00105 15.7071L3.35461 15.3536L5.35461 13.3536L5.70816 13L5.35461 12.6464L3.35461 10.6464ZM3.00105 14.2929L1.70816 13L3.00105 11.7071L4.29395 13L3.00105 14.2929Z" fill="black"/>
</g>
</svg>
