<svg width="16" height="16" viewBox="0 0 16 16" fill="none" xmlns="http://www.w3.org/2000/svg">
<g id="display-no-filter-alt" clip-path="url(#clip0_241_9490)">
<g id="display-no-filter" clip-path="url(#clip1_241_9490)">
<path id="Union" fill-rule="evenodd" clip-rule="evenodd" d="M1.00098 3C1.00098 2.44772 1.44869 2 2.00098 2H3.50098C3.77712 2 4.00098 2.22386 4.00098 2.5C4.00098 2.77614 3.77712 3 3.50098 3L2.00098 3V11H14.001V10C14.001 9.72386 14.2248 9.5 14.501 9.5C14.7771 9.5 15.001 9.72386 15.001 10V11C15.001 11.5523 14.5533 12 14.001 12H9.00098V13H11.501C11.7771 13 12.001 13.2239 12.001 13.5C12.001 13.7761 11.7771 14 11.501 14H4.50098C4.22483 14 4.00098 13.7761 4.00098 13.5C4.00098 13.2239 4.22483 13 4.50098 13H7.00098V12H2.00098C1.44869 12 1.00098 11.5523 1.00098 11V3Z" fill="black"/>
<path id="Union_2" fill-rule="evenodd" clip-rule="evenodd" d="M9.25164 0.780023C7.62455 -0.711234 5.00098 0.443005 5.00098 2.6501C5.00098 3.8137 5.78443 4.79432 6.85262 5.09322C6.62879 5.38201 6.47029 5.72637 6.40123 6.10619C5.96679 8.49563 8.9955 9.85782 10.5016 8.01565C10.5885 8.1216 10.6816 8.21784 10.78 8.30434C10.9875 8.48659 11.3034 8.46616 11.4856 8.25871C11.6679 8.05125 11.6475 7.73533 11.44 7.55308C11.3677 7.48954 11.2976 7.41441 11.2314 7.32612C11.1706 7.24512 11.09 7.1878 11.0014 7.15585V2.8231L11.1038 2.72925C11.3073 2.54268 11.3211 2.2264 11.1346 2.02282C10.9711 1.84444 10.708 1.81177 10.5085 1.93192L9.25164 0.780023ZM10.0014 4.1868H8.70107H7.53768C6.68898 4.1868 6.00098 3.4988 6.00098 2.6501C6.00098 1.31307 7.5903 0.613847 8.57598 1.51723L10.0014 2.82363V4.1868ZM8.70107 5.1868H10.0014V7.0199L9.77104 7.32694C8.92414 8.45596 7.13263 7.67365 7.3851 6.28507C7.50074 5.64909 8.05465 5.1868 8.70107 5.1868ZM14.0245 0.174862C13.7554 0.112797 13.4869 0.280613 13.4249 0.54969C13.3628 0.818767 13.5306 1.08721 13.7997 1.14928C13.9942 1.19413 14.1797 1.27577 14.3442 1.38881C14.5718 1.54522 14.8831 1.48753 15.0395 1.25995C15.1959 1.03238 15.1382 0.721099 14.9106 0.564687C14.6427 0.38055 14.3412 0.24793 14.0245 0.174862ZM12.6654 1.33492C12.8997 1.18885 12.9713 0.880468 12.8252 0.646118C12.6792 0.411767 12.3708 0.340197 12.1364 0.48626C12.002 0.570048 11.8729 0.667933 11.7505 0.780086L11.7505 0.780122L11.486 1.02247C11.2825 1.20905 11.2687 1.52533 11.4553 1.72891C11.6418 1.93249 11.9581 1.94627 12.1617 1.7597L12.4262 1.51731L12.4262 1.51728C12.5037 1.44622 12.5838 1.38576 12.6654 1.33492ZM15.9569 2.16686C15.9062 1.89541 15.645 1.71644 15.3736 1.76713C15.1021 1.81781 14.9232 2.07895 14.9738 2.35041C14.9915 2.44489 15.001 2.54479 15.001 2.64994C15.001 2.73194 14.9947 2.8121 14.9825 2.89005C14.9398 3.16287 15.1263 3.41865 15.3991 3.46135C15.672 3.50404 15.9277 3.31749 15.9704 3.04467C15.9906 2.91576 16.001 2.7839 16.001 2.64994C16.001 2.48395 15.9859 2.32259 15.9569 2.16686ZM15.2637 4.43794C15.4584 4.24207 15.4574 3.92549 15.2615 3.73083C15.0656 3.53618 14.7491 3.53716 14.5544 3.73303C14.4978 3.78996 14.4368 3.84247 14.372 3.89C14.1494 4.05332 14.1013 4.36623 14.2646 4.5889C14.4279 4.81156 14.7408 4.85966 14.9635 4.69634C15.0703 4.61803 15.1706 4.53159 15.2637 4.43794ZM12.3012 4.18649C12.025 4.18649 11.8012 4.41035 11.8012 4.68649C11.8012 4.96263 12.025 5.18649 12.3012 5.18649C12.407 5.18649 12.5099 5.19882 12.6087 5.22209C12.8774 5.28545 13.1467 5.11893 13.21 4.85015C13.2734 4.58138 13.1069 4.31213 12.8381 4.24877C12.6649 4.20793 12.4849 4.18649 12.3012 4.18649ZM14.4434 5.58853C14.333 5.33542 14.0383 5.21975 13.7852 5.33017C13.5321 5.44058 13.4164 5.73528 13.5268 5.98838C13.5674 6.08135 13.5979 6.18042 13.6169 6.28454C13.6366 6.39312 13.644 6.49562 13.6415 6.59186C13.6341 6.8679 13.852 7.09764 14.128 7.10498C14.404 7.11233 14.6338 6.89451 14.6411 6.61847C14.6456 6.45147 14.6325 6.28011 14.6007 6.10565C14.5679 5.92484 14.5146 5.75167 14.4434 5.58853ZM13.6855 8.41C13.9095 8.24858 13.9603 7.93609 13.7989 7.71204C13.6375 7.48799 13.325 7.43722 13.1009 7.59864C12.936 7.71745 12.7451 7.80081 12.5459 7.841C12.2752 7.89559 12.1 8.15929 12.1546 8.42999C12.2092 8.70068 12.4729 8.87585 12.7436 8.82125C13.0823 8.75293 13.4051 8.61199 13.6855 8.41Z" fill="black"/>
</g>
</g>
<defs>
<clipPath id="clip0_241_9490">
<rect width="16" height="16" fill="white"/>
</clipPath>
<clipPath id="clip1_241_9490">
<rect width="16" height="16" fill="white"/>
</clipPath>
</defs>
</svg>
