<svg width="16" height="16" viewBox="0 0 16 16" fill="none" xmlns="http://www.w3.org/2000/svg">
<g id="display-enhance-stroke">
<path id="Union" fill-rule="evenodd" clip-rule="evenodd" d="M2.00098 2C1.44869 2 1.00098 2.44772 1.00098 3V11C1.00098 11.5523 1.44869 12 2.00098 12H7.00098V13H4.50098C4.22483 13 4.00098 13.2239 4.00098 13.5C4.00098 13.7761 4.22483 14 4.50098 14H11.501C11.7771 14 12.001 13.7761 12.001 13.5C12.001 13.2239 11.7771 13 11.501 13H9.00098V12H14.001C14.5533 12 15.001 11.5523 15.001 11V3C15.001 2.44771 14.5533 2 14.001 2H2.00098ZM2.00098 3L14.001 3V11H2.00098V3ZM6.85355 5.14645L6.5 4.79289L6.14645 5.14645L3.14645 8.14645C2.95118 8.34171 2.95118 8.65829 3.14645 8.85355C3.34171 9.04882 3.65829 9.04882 3.85355 8.85355L6.5 6.20711L9.14645 8.85355L9.5 9.20711L9.85355 8.85355L12.8536 5.85355C13.0488 5.65829 13.0488 5.34171 12.8536 5.14645C12.6583 4.95118 12.3417 4.95118 12.1464 5.14645L9.5 7.79289L6.85355 5.14645Z" fill="black"/>
</g>
</svg>
