<svg width="16" height="16" viewBox="0 0 16 16" fill="none" xmlns="http://www.w3.org/2000/svg">
<g id="display-outline-alt" clip-path="url(#clip0_241_9182)">
<g id="display-outline">
<path id="Union" fill-rule="evenodd" clip-rule="evenodd" d="M2.00098 2C1.44869 2 1.00098 2.44772 1.00098 3V11C1.00098 11.5523 1.44869 12 2.00098 12H7.00098V13H4.50098C4.22483 13 4.00098 13.2239 4.00098 13.5C4.00098 13.7761 4.22483 14 4.50098 14H11.501C11.7771 14 12.001 13.7761 12.001 13.5C12.001 13.2239 11.7771 13 11.501 13H9.00098V12H14.001C14.5533 12 15.001 11.5523 15.001 11V3C15.001 2.44771 14.5533 2 14.001 2H2.00098ZM2.00098 3L14.001 3V11H2.00098V3ZM10.001 7C10.001 8.10457 9.10555 9 8.00098 9C6.89641 9 6.00098 8.10457 6.00098 7C6.00098 5.89543 6.89641 5 8.00098 5C9.10555 5 10.001 5.89543 10.001 7ZM11.001 7C11.001 8.65685 9.65783 10 8.00098 10C6.34412 10 5.00098 8.65685 5.00098 7C5.00098 5.34315 6.34412 4 8.00098 4C9.65783 4 11.001 5.34315 11.001 7Z" fill="black"/>
</g>
</g>
<defs>
<clipPath id="clip0_241_9182">
<rect width="16" height="16" fill="white"/>
</clipPath>
</defs>
</svg>
