<svg width="16" height="16" viewBox="0 0 16 16" fill="none" xmlns="http://www.w3.org/2000/svg">
<g id="display-no-filter" clip-path="url(#clip0_241_9184)">
<path id="Union" fill-rule="evenodd" clip-rule="evenodd" d="M1.00098 3C1.00098 2.44772 1.44869 2 2.00098 2H3.50098C3.77712 2 4.00098 2.22386 4.00098 2.5C4.00098 2.77614 3.77712 3 3.50098 3L2.00098 3V11H14.001V10C14.001 9.72386 14.2248 9.5 14.501 9.5C14.7771 9.5 15.001 9.72386 15.001 10V11C15.001 11.5523 14.5533 12 14.001 12H9.00098V13H11.501C11.7771 13 12.001 13.2239 12.001 13.5C12.001 13.7761 11.7771 14 11.501 14H4.50098C4.22483 14 4.00098 13.7761 4.00098 13.5C4.00098 13.2239 4.22483 13 4.50098 13H7.00098V12H2.00098C1.44869 12 1.00098 11.5523 1.00098 11V3Z" fill="black"/>
<path id="Union_2" fill-rule="evenodd" clip-rule="evenodd" d="M6.97756 0.174036C7.24664 0.111971 7.51508 0.279787 7.57715 0.548864C7.63921 0.817941 7.47139 1.08639 7.20232 1.14845C7.00785 1.19331 6.82228 1.27494 6.65781 1.38798C6.43023 1.54439 6.11895 1.4867 5.96254 1.25913C5.80613 1.03155 5.86382 0.720273 6.09139 0.563861C6.35931 0.379724 6.66078 0.247104 6.97756 0.174036ZM8.33662 1.33409C8.10227 1.18803 8.0307 0.879642 8.17677 0.645292C8.32283 0.410942 8.63122 0.339371 8.86557 0.485434C9 0.569222 9.12914 0.667107 9.25149 0.77926L9.25153 0.779296L9.48291 0.991349C9.68649 1.17792 9.70028 1.49421 9.5137 1.69779C9.32713 1.90136 9.01085 1.91515 8.80727 1.72858L8.57585 1.51649L8.57581 1.51645C8.49829 1.44539 8.41819 1.38493 8.33662 1.33409ZM9.73295 2.57693C9.52937 2.39036 9.51558 2.07408 9.70216 1.8705C9.88873 1.66692 10.205 1.65313 10.4086 1.83971L10.5014 1.92477L10.5933 1.84051C10.7969 1.65393 11.1132 1.66772 11.2998 1.8713C11.4864 2.07488 11.4726 2.39116 11.269 2.57773L11.0376 2.78982C10.8873 2.92754 10.6756 2.95609 10.5 2.87973C10.3248 2.95509 10.1141 2.92625 9.96437 2.78902L9.73295 2.57693ZM5.04516 2.16603C5.09585 1.89458 5.35699 1.71562 5.62844 1.7663C5.89989 1.81699 6.07886 2.07813 6.02817 2.34958C6.01053 2.44406 6.00098 2.54396 6.00098 2.64912C6.00098 2.73111 6.00735 2.81128 6.01955 2.88922C6.06225 3.16205 5.8757 3.41782 5.60288 3.46052C5.33006 3.50322 5.07428 3.31667 5.03158 3.04384C5.0114 2.91493 5.00098 2.78307 5.00098 2.64912C5.00098 2.48312 5.01608 2.32176 5.04516 2.16603ZM5.73832 4.43711C5.54366 4.24124 5.54465 3.92466 5.74051 3.73001C5.93638 3.53535 6.25296 3.53634 6.44762 3.73221C6.50419 3.78913 6.56517 3.84164 6.62997 3.88917C6.85263 4.0525 6.90073 4.36541 6.73741 4.58807C6.57408 4.81073 6.26118 4.85884 6.03851 4.69551C5.93175 4.6172 5.83139 4.53076 5.73832 4.43711ZM8.70085 4.18566C8.97699 4.18566 9.20085 4.40952 9.20085 4.68566C9.20085 4.96181 8.97699 5.18566 8.70085 5.18566C8.59502 5.18566 8.49209 5.19799 8.39336 5.22127C8.12459 5.28463 7.85534 5.1181 7.79198 4.84933C7.72862 4.58055 7.89514 4.3113 8.16392 4.24795C8.33716 4.20711 8.51707 4.18566 8.70085 4.18566ZM6.5586 5.5877C6.66902 5.33459 6.96371 5.21892 7.21682 5.32934C7.46992 5.43976 7.5856 5.73445 7.47518 5.98756C7.43462 6.08053 7.40407 6.17959 7.38514 6.28371C7.3654 6.39229 7.35797 6.49479 7.36053 6.59103C7.36788 6.86707 7.15006 7.09681 6.87401 7.10416C6.59797 7.11151 6.36823 6.89368 6.36088 6.61764C6.35644 6.45065 6.36955 6.27928 6.40127 6.10483C6.43415 5.92402 6.48743 5.75084 6.5586 5.5877ZM9.77066 7.32529C9.93635 7.10438 10.2498 7.05961 10.4707 7.2253C10.4813 7.23329 10.4916 7.24164 10.5014 7.2503C10.511 7.24192 10.5209 7.23385 10.5313 7.2261C10.7522 7.06041 11.0656 7.10518 11.2313 7.3261C11.2975 7.41438 11.3676 7.48951 11.4399 7.55305C11.6474 7.73531 11.6678 8.05123 11.4856 8.25868C11.3033 8.46614 10.9874 8.48656 10.7799 8.30431C10.6812 8.21753 10.5878 8.12094 10.5006 8.01457C10.4137 8.12062 10.3205 8.21695 10.222 8.30351C10.0146 8.48576 9.69863 8.46534 9.51637 8.25788C9.33412 8.05043 9.35455 7.7345 9.562 7.55225C9.63433 7.48871 9.70445 7.41358 9.77066 7.32529ZM7.31653 8.40917C7.09248 8.24775 7.04171 7.93527 7.20312 7.71122C7.36454 7.48716 7.67703 7.43639 7.90108 7.59781C8.06599 7.71662 8.25691 7.79998 8.45615 7.84017C8.72684 7.89477 8.90202 8.15847 8.84742 8.42916C8.79282 8.69985 8.52912 8.87503 8.25843 8.82043C7.9197 8.7521 7.5969 8.61116 7.31653 8.40917ZM13.4248 0.549665C13.4869 0.280588 13.7553 0.112772 14.0244 0.174837C14.3412 0.247904 14.6426 0.380525 14.9106 0.564662C15.1381 0.721073 15.1958 1.03236 15.0394 1.25993C14.883 1.4875 14.5717 1.54519 14.3441 1.38878C14.1797 1.27574 13.9941 1.19411 13.7996 1.14925C13.5305 1.08719 13.3627 0.818742 13.4248 0.549665ZM12.8252 0.646093C12.9712 0.880443 12.8997 1.18883 12.6653 1.33489C12.5837 1.38573 12.5037 1.44619 12.4261 1.51725L12.4261 1.51729L12.1947 1.72938C11.9911 1.91595 11.6748 1.90217 11.4882 1.69859C11.3017 1.49501 11.3154 1.17872 11.519 0.99215L11.7504 0.780096L11.7504 0.78006C11.8728 0.667908 12.0019 0.570022 12.1364 0.486235C12.3707 0.340171 12.6791 0.411742 12.8252 0.646093ZM15.3735 1.7671C15.645 1.71642 15.9061 1.89538 15.9568 2.16683C15.9859 2.32256 16.001 2.48392 16.001 2.64992C16.001 2.78387 15.9905 2.91573 15.9704 3.04465C15.9277 3.31747 15.6719 3.50402 15.3991 3.46132C15.1262 3.41862 14.9397 3.16285 14.9824 2.89002C14.9946 2.81208 15.001 2.73191 15.001 2.64992C15.001 2.54476 14.9914 2.44486 14.9738 2.35038C14.9231 2.07893 15.1021 1.81779 15.3735 1.7671ZM15.2614 3.73081C15.4573 3.92546 15.4583 4.24204 15.2636 4.43791C15.1706 4.53156 15.0702 4.618 14.9634 4.69631C14.7408 4.85964 14.4279 4.81153 14.2645 4.58887C14.1012 4.36621 14.1493 4.0533 14.372 3.88997C14.4368 3.84244 14.4977 3.78993 14.5543 3.73301C14.749 3.53714 15.0656 3.53615 15.2614 3.73081ZM11.8011 4.68646C11.8011 4.41032 12.025 4.18646 12.3011 4.18646C12.4849 4.18646 12.6648 4.20791 12.838 4.24875C13.1068 4.31211 13.2733 4.58135 13.21 4.85013C13.1466 5.1189 12.8774 5.28543 12.6086 5.22207C12.5099 5.19879 12.4069 5.18646 12.3011 5.18646C12.025 5.18646 11.8011 4.96261 11.8011 4.68646ZM13.7851 5.33014C14.0382 5.21972 14.3329 5.33539 14.4433 5.5885C14.5145 5.75164 14.5678 5.92482 14.6007 6.10563C14.6324 6.28009 14.6455 6.45145 14.6411 6.61844C14.6337 6.89448 14.404 7.11231 14.1279 7.10496C13.8519 7.09761 13.6341 6.86787 13.6414 6.59183C13.644 6.49559 13.6365 6.39309 13.6168 6.28451C13.5979 6.18039 13.5673 6.08133 13.5268 5.98836C13.4163 5.73525 13.532 5.44056 13.7851 5.33014ZM13.7988 7.71202C13.9602 7.93607 13.9095 8.24855 13.6854 8.40997C13.405 8.61196 13.0822 8.7529 12.7435 8.82123C12.4728 8.87583 12.2091 8.70065 12.1545 8.42996C12.0999 8.15927 12.2751 7.89557 12.5458 7.84097C12.745 7.80078 12.936 7.71742 13.1009 7.59861C13.3249 7.43719 13.6374 7.48797 13.7988 7.71202ZM10.5 3.5C10.7761 3.5 11 3.72386 11 4V4.33333C11 4.60948 10.7761 4.83333 10.5 4.83333C10.2239 4.83333 10 4.60948 10 4.33333V4C10 3.72386 10.2239 3.5 10.5 3.5ZM10.5 5.16667C10.7761 5.16667 11 5.39052 11 5.66667V6C11 6.27614 10.7761 6.5 10.5 6.5C10.2239 6.5 10 6.27614 10 6V5.66667C10 5.39052 10.2239 5.16667 10.5 5.16667Z" fill="black"/>
</g>
<defs>
<clipPath id="clip0_241_9184">
<rect width="16" height="16" fill="white"/>
</clipPath>
</defs>
</svg>
