<svg width="16" height="16" viewBox="0 0 16 16" fill="none" xmlns="http://www.w3.org/2000/svg">
<g id="distribute-graph-directed" clip-path="url(#clip0_241_9567)">
<path id="Union" fill-rule="evenodd" clip-rule="evenodd" d="M1 1V3H3V1H1ZM4 2.79289V0.5C4 0.223858 3.77614 0 3.5 0H0.5C0.223858 0 0 0.223858 0 0.5V3.5C0 3.77614 0.223858 4 0.5 4H3.5C3.58477 4 3.66462 3.9789 3.73457 3.94168L6 6.20711V8.5C6 8.77614 6.22386 9 6.5 9H7.5L7.5 13.7929L5.85355 12.1464C5.65829 11.9512 5.34171 11.9512 5.14645 12.1464C4.95118 12.3417 4.95118 12.6583 5.14645 12.8536L7.64645 15.3536L8 15.7071L8.35355 15.3536L10.8536 12.8536C11.0488 12.6583 11.0488 12.3417 10.8536 12.1464C10.6583 11.9512 10.3417 11.9512 10.1464 12.1464L8.5 13.7929V9H9.5C9.77614 9 10 8.77614 10 8.5V6.20711L12.2654 3.94168C12.3354 3.9789 12.4152 4 12.5 4H15.5C15.7761 4 16 3.77614 16 3.5V0.5C16 0.223858 15.7761 0 15.5 0H12.5C12.2239 0 12 0.223858 12 0.5V2.79289L9.73457 5.05832C9.66462 5.0211 9.58477 5 9.5 5H6.5C6.41523 5 6.33538 5.0211 6.26543 5.05832L4 2.79289ZM9 6V6.00049V8H8H7V6.00035V6H9ZM15 3H13V2.99951V1H15V3Z" fill="black"/>
</g>
<defs>
<clipPath id="clip0_241_9567">
<rect width="16" height="16" fill="white"/>
</clipPath>
</defs>
</svg>
