<svg width="16" height="16" viewBox="0 0 16 16" fill="none" xmlns="http://www.w3.org/2000/svg">
<g id="distribute-graph">
<rect id="rectangle" opacity="0.3" x="5" y="1" width="6" height="4" rx="0.5" fill="black"/>
<path id="Union" fill-rule="evenodd" clip-rule="evenodd" d="M6 4V2H10V4H8H6ZM8.5 5H10.5C10.7761 5 11 4.77614 11 4.5V1.5C11 1.22386 10.7761 1 10.5 1H5.5C5.22386 1 5 1.22386 5 1.5V4.5C5 4.77614 5.22386 5 5.5 5H7.5V7.5H3.5C2.94772 7.5 2.5 7.94772 2.5 8.5V11H0.5C0.223858 11 0 11.2239 0 11.5V14.5C0 14.7761 0.223858 15 0.5 15H5.5C5.77614 15 6 14.7761 6 14.5V11.5C6 11.2239 5.77614 11 5.5 11H3.5V8.5H8H12.5V11H10.5C10.2239 11 10 11.2239 10 11.5V14.5C10 14.7761 10.2239 15 10.5 15H15.5C15.7761 15 16 14.7761 16 14.5V11.5C16 11.2239 15.7761 11 15.5 11H13.5V8.5C13.5 7.94771 13.0523 7.5 12.5 7.5H8.5V5ZM11 12H13H15V14H11V12ZM3 12H1V14H5V12H3Z" fill="black"/>
</g>
</svg>
