<svg width="16" height="16" viewBox="0 0 16 16" fill="none" xmlns="http://www.w3.org/2000/svg">
<g id="distribute-vertical-bottom">
<rect id="rectangle" opacity="0.3" x="3" y="9" width="10" height="5" rx="0.5" fill="black"/>
<rect id="neutral" x="16" y="6" width="1" height="16" rx="0.5" transform="rotate(90 16 6)" fill="black"/>
<rect id="neutral_2" x="16" y="13" width="1" height="16" rx="0.5" transform="rotate(90 16 13)" fill="black"/>
<path id="Union" fill-rule="evenodd" clip-rule="evenodd" d="M4 6V3H12V6H4ZM3 2.5C3 2.22386 3.22386 2 3.5 2H12.5C12.7761 2 13 2.22386 13 2.5V6.5C13 6.77614 12.7761 7 12.5 7H3.5C3.22386 7 3 6.77614 3 6.5V2.5ZM4 13V10H12V13H4ZM3 9.5C3 9.22386 3.22386 9 3.5 9H12.5C12.7761 9 13 9.22386 13 9.5V13.5C13 13.7761 12.7761 14 12.5 14H3.5C3.22386 14 3 13.7761 3 13.5V9.5Z" fill="black"/>
</g>
</svg>
