<svg width="16" height="16" viewBox="0 0 16 16" fill="none" xmlns="http://www.w3.org/2000/svg">
<g id="distribute-remove-overlaps">
<rect id="rectangle" opacity="0.3" x="2" y="2" width="7" height="6" rx="0.5" fill="black"/>
<path id="Union" fill-rule="evenodd" clip-rule="evenodd" d="M3 7V3H8V7H3ZM2 2.5C2 2.22386 2.22386 2 2.5 2H8.5C8.77614 2 9 2.22386 9 2.5V7.5C9 7.77614 8.77614 8 8.5 8H2.5C2.22386 8 2 7.77614 2 7.5V2.5ZM12 7V3H13V7H12ZM11 2.5C11 2.22386 11.2239 2 11.5 2H13.5C13.7761 2 14 2.22386 14 2.5V7.5C14 7.77614 13.7761 8 13.5 8H11.5C11.2239 8 11 7.77614 11 7.5V2.5ZM8 11V13H13V11H8ZM7.5 10C7.22386 10 7 10.2239 7 10.5V13.5C7 13.7761 7.22386 14 7.5 14H13.5C13.7761 14 14 13.7761 14 13.5V10.5C14 10.2239 13.7761 10 13.5 10H7.5ZM3 13V11H4V13H3ZM2 10.5C2 10.2239 2.22386 10 2.5 10H4.5C4.77614 10 5 10.2239 5 10.5V13.5C5 13.7761 4.77614 14 4.5 14H2.5C2.22386 14 2 13.7761 2 13.5V10.5Z" fill="black"/>
</g>
</svg>
