<svg width="16" height="16" viewBox="0 0 16 16" fill="none" xmlns="http://www.w3.org/2000/svg">
<g id="distribute-unclump">
<rect id="rectangle" opacity="0.3" x="1" y="6" width="4" height="4" rx="0.5" fill="black"/>
<path id="Union" fill-rule="evenodd" clip-rule="evenodd" d="M11 4V2H13V4H11ZM10 1.5C10 1.22386 10.2239 1 10.5 1H13.5C13.7761 1 14 1.22386 14 1.5V4.5C14 4.77614 13.7761 5 13.5 5H10.5C10.2239 5 10 4.77614 10 4.5V1.5ZM2 9V7H4V9H2ZM1 6.5C1 6.22386 1.22386 6 1.5 6H4.5C4.77614 6 5 6.22386 5 6.5V9.5C5 9.77614 4.77614 10 4.5 10H1.5C1.22386 10 1 9.77614 1 9.5V6.5ZM11 12V14H13V12H11ZM10.5 11C10.2239 11 10 11.2239 10 11.5V14.5C10 14.7761 10.2239 15 10.5 15H13.5C13.7761 15 14 14.7761 14 14.5V11.5C14 11.2239 13.7761 11 13.5 11H10.5ZM12.5 7C12.5 6.72386 12.2761 6.5 12 6.5C11.7239 6.5 11.5 6.72386 11.5 7V9C11.5 9.27614 11.7239 9.5 12 9.5C12.2761 9.5 12.5 9.27614 12.5 9V7ZM8.44721 3.77639C8.57071 4.02338 8.4706 4.32372 8.22361 4.44721L6.22361 5.44721C5.97662 5.57071 5.67628 5.4706 5.55279 5.22361C5.42929 4.97662 5.5294 4.67628 5.77639 4.55279L7.77639 3.55279C8.02338 3.42929 8.32372 3.5294 8.44721 3.77639ZM8.22361 11.5528C8.4706 11.6763 8.57071 11.9766 8.44721 12.2236C8.32372 12.4706 8.02338 12.5707 7.77639 12.4472L5.77639 11.4472C5.5294 11.3237 5.42929 11.0234 5.55279 10.7764C5.67628 10.5294 5.97662 10.4293 6.22361 10.5528L8.22361 11.5528Z" fill="black"/>
</g>
</svg>
