<svg width="16" height="16" viewBox="0 0 16 16" fill="none" xmlns="http://www.w3.org/2000/svg">
<g id="distribute-randomize">
<path id="Union" opacity="0.3" fill-rule="evenodd" clip-rule="evenodd" d="M3 0.5C3 0.223858 3.22386 0 3.5 0H6.5C6.77614 0 7 0.223858 7 0.5V3.5C7 3.77614 6.77614 4 6.5 4H3.5C3.22386 4 3 3.77614 3 3.5V0.5ZM0 7.5C0 7.22386 0.223858 7 0.5 7H3.5C3.77614 7 4 7.22386 4 7.5V10.5C4 10.7761 3.77614 11 3.5 11H0.5C0.223858 11 0 10.7761 0 10.5V7.5ZM5.5 12C5.22386 12 5 12.2239 5 12.5V15.5C5 15.7761 5.22386 16 5.5 16H8.5C8.77614 16 9 15.7761 9 15.5V12.5C9 12.2239 8.77614 12 8.5 12H5.5ZM12 10.5C12 10.2239 12.2239 10 12.5 10H15.5C15.7761 10 16 10.2239 16 10.5V13.5C16 13.7761 15.7761 14 15.5 14H12.5C12.2239 14 12 13.7761 12 13.5V10.5ZM11.5 2C11.2239 2 11 2.22386 11 2.5V5.5C11 5.77614 11.2239 6 11.5 6H14.5C14.7761 6 15 5.77614 15 5.5V2.5C15 2.22386 14.7761 2 14.5 2H11.5Z" fill="black"/>
<path id="Union_2" fill-rule="evenodd" clip-rule="evenodd" d="M4 3V1H6V3H4ZM3 0.5C3 0.223858 3.22386 0 3.5 0H6.5C6.77614 0 7 0.223858 7 0.5V3.5C7 3.77614 6.77614 4 6.5 4H3.5C3.22386 4 3 3.77614 3 3.5V0.5ZM1 10V8H3V10H1ZM0 7.5C0 7.22386 0.223858 7 0.5 7H3.5C3.77614 7 4 7.22386 4 7.5V10.5C4 10.7761 3.77614 11 3.5 11H0.5C0.223858 11 0 10.7761 0 10.5V7.5ZM6 13V15H8V13H6ZM5.5 12C5.22386 12 5 12.2239 5 12.5V15.5C5 15.7761 5.22386 16 5.5 16H8.5C8.77614 16 9 15.7761 9 15.5V12.5C9 12.2239 8.77614 12 8.5 12H5.5ZM9 9H7V7H9V9ZM6 6.5C6 6.22386 6.22386 6 6.5 6H9.5C9.77614 6 10 6.22386 10 6.5V9.5C10 9.77614 9.77614 10 9.5 10H6.5C6.22386 10 6 9.77614 6 9.5V6.5ZM12.5 10C12.2239 10 12 10.2239 12 10.5V13.5C12 13.7761 12.2239 14 12.5 14H15.5C15.7761 14 16 13.7761 16 13.5V10.5C16 10.2239 15.7761 10 15.5 10H12.5ZM12 5V3H14V5H12ZM15 11H13V13H15V11ZM11 2.5C11 2.22386 11.2239 2 11.5 2H14.5C14.7761 2 15 2.22386 15 2.5V5.5C15 5.77614 14.7761 6 14.5 6H11.5C11.2239 6 11 5.77614 11 5.5V2.5Z" fill="black"/>
</g>
</svg>
