<svg width="16" height="16" viewBox="0 0 16 16" fill="none" xmlns="http://www.w3.org/2000/svg">
<g id="distribute-vertical-baseline">
<path id="Union" fill-rule="evenodd" clip-rule="evenodd" d="M4.92041 6.24993H6.52623L6.9329 4.95199H9.06776L9.47528 6.24993H11.0811L8.99534 0.0681152H7.00617L4.92041 6.24993ZM8.71143 3.81705L8.02339 1.62564H7.9751L7.2885 3.81705H8.71143ZM6.33758 15.6963C6.49454 15.7245 6.66156 15.7386 6.83865 15.7386C7.19281 15.7386 7.49063 15.6832 7.73211 15.5726C7.9756 15.4619 8.17381 15.3089 8.32675 15.1137C8.4817 14.9206 8.60143 14.6972 8.68595 14.4436L10.4336 9.36357H8.87913L8.01283 12.6718H7.96453L7.11031 9.36357H5.56485L7.21293 14.169L7.15558 14.3078C7.1093 14.4225 7.04289 14.502 6.95637 14.5463C6.87185 14.5926 6.77023 14.6117 6.6515 14.6036C6.53479 14.5956 6.40399 14.5674 6.2591 14.5191L5.93311 15.5907C6.04579 15.6349 6.18062 15.6702 6.33758 15.6963Z" fill="black"/>
<rect id="neutral" y="7.5" width="16" height="1" rx="0.5" fill="black"/>
</g>
</svg>
