<svg width="16" height="16" viewBox="0 0 16 16" fill="none" xmlns="http://www.w3.org/2000/svg">
<g id="distribute-horizontal-baseline">
<path id="Union" fill-rule="evenodd" clip-rule="evenodd" d="M0.210938 11H1.91122L2.34181 9.62575H4.60225L5.03374 11H6.73402L4.52557 4.45459H2.41939L0.210938 11ZM4.22495 8.42405L3.49645 6.10374H3.44531L2.71832 8.42405H4.22495ZM10.9205 12.7962C11.0866 12.826 11.2635 12.841 11.451 12.841C11.826 12.841 12.1413 12.7824 12.397 12.6652C12.6548 12.548 12.8647 12.3861 13.0266 12.1794C13.1907 11.9748 13.3175 11.7383 13.407 11.4699L15.2575 6.09095H13.6115L12.6942 9.59379H12.6431L11.7386 6.09095H10.1023L11.8473 11.179L11.7866 11.326C11.7376 11.4475 11.6673 11.5317 11.5756 11.5785C11.4862 11.6275 11.3786 11.6478 11.2528 11.6392C11.1293 11.6307 10.9908 11.6009 10.8374 11.5498L10.4922 12.6843C10.6115 12.7312 10.7543 12.7685 10.9205 12.7962Z" fill="black"/>
<rect id="neutral" x="7.5" width="1" height="16" rx="0.5" fill="black"/>
</g>
</svg>
