<svg width="16" height="16" viewBox="0 0 16 16" fill="none" xmlns="http://www.w3.org/2000/svg">
<g id="distribute-horizontal-left">
<rect id="rectangle" opacity="0.3" x="9" y="3" width="5" height="10" rx="0.5" fill="black"/>
<rect id="neutral" x="2" width="1" height="16" rx="0.5" fill="black"/>
<rect id="neutral_2" x="9" width="1" height="16" rx="0.5" fill="black"/>
<path id="neutral_3" fill-rule="evenodd" clip-rule="evenodd" d="M3 12V4H6V12H3ZM2 3.5C2 3.22386 2.22386 3 2.5 3H6.5C6.77614 3 7 3.22386 7 3.5V12.5C7 12.7761 6.77614 13 6.5 13H2.5C2.22386 13 2 12.7761 2 12.5V3.5ZM10 12V4H13V12H10ZM9 3.5C9 3.22386 9.22386 3 9.5 3H13.5C13.7761 3 14 3.22386 14 3.5V12.5C14 12.7761 13.7761 13 13.5 13H9.5C9.22386 13 9 12.7761 9 12.5V3.5Z" fill="black"/>
</g>
</svg>
