<svg width="16" height="16" viewBox="0 0 16 16" fill="none" xmlns="http://www.w3.org/2000/svg">
<g id="distribute-vertical-gaps">
<rect id="rectangle" opacity="0.3" x="3" y="10" width="10" height="5" rx="0.5" fill="black"/>
<path id="Union" fill-rule="evenodd" clip-rule="evenodd" d="M4 5V2H12V5H4ZM3 1.5C3 1.22386 3.22386 1 3.5 1H12.5C12.7761 1 13 1.22386 13 1.5V5.5C13 5.77614 12.7761 6 12.5 6H3.5C3.22386 6 3 5.77614 3 5.5V1.5ZM4 14V11H12V14H4ZM3 10.5C3 10.2239 3.22386 10 3.5 10H12.5C12.7761 10 13 10.2239 13 10.5V14.5C13 14.7761 12.7761 15 12.5 15H3.5C3.22386 15 3 14.7761 3 14.5V10.5Z" fill="black"/>
<rect id="neutral" y="7.5" width="16" height="1" rx="0.5" fill="black"/>
</g>
</svg>
