<svg width="16" height="16" viewBox="0 0 16 16" fill="none" xmlns="http://www.w3.org/2000/svg">
<g id="document-new">
<path id="Union" fill-rule="evenodd" clip-rule="evenodd" d="M5.00098 2C4.44869 2 4.00098 2.44772 4.00098 3V5.5C4.00098 5.77614 4.22483 6 4.50098 6C4.77712 6 5.00098 5.77614 5.00098 5.5V3H9.00098V6C9.00098 6.55228 9.44869 7 10.001 7H13.001V13H9.50098C9.22483 13 9.00098 13.2239 9.00098 13.5C9.00098 13.7761 9.22483 14 9.50098 14H13.001C13.5533 14 14.001 13.5523 14.001 13V7V6.70711C14.001 6.44189 13.8956 6.18754 13.7081 6L10.001 2.29289C9.81344 2.10536 9.55909 2 9.29387 2H5.00098ZM12.2939 6L10.001 3.70711V6H12.2939Z" fill="black"/>
<path id="neutral" fill-rule="evenodd" clip-rule="evenodd" d="M4.00098 14C4.00098 14.2761 4.22483 14.5 4.50098 14.5C4.77712 14.5 5.00098 14.2761 5.00098 14V12H7.00098C7.27712 12 7.50098 11.7761 7.50098 11.5C7.50098 11.2239 7.27712 11 7.00098 11H5.00098V9C5.00098 8.72386 4.77712 8.5 4.50098 8.5C4.22483 8.5 4.00098 8.72386 4.00098 9V11H2.00098C1.72483 11 1.50098 11.2239 1.50098 11.5C1.50098 11.7761 1.72483 12 2.00098 12H4.00098V14Z" fill="black"/>
</g>
</svg>
