<svg width="16" height="16" viewBox="0 0 16 16" fill="none" xmlns="http://www.w3.org/2000/svg">
<g id="document-print">
<path id="Union" fill-rule="evenodd" clip-rule="evenodd" d="M4.00098 3V5H12.001V3H4.00098ZM3.00098 2.5V5H2.00098C1.44869 5 1.00098 5.44772 1.00098 6V10C1.00098 10.5523 1.44869 11 2.00098 11H3.00098V14.5C3.00098 14.7761 3.22483 15 3.50098 15H12.501C12.7771 15 13.001 14.7761 13.001 14.5V11H14.001C14.5533 11 15.001 10.5523 15.001 10V6C15.001 5.44771 14.5533 5 14.001 5H13.001V2.5C13.001 2.22386 12.7771 2 12.501 2H3.50098C3.22483 2 3.00098 2.22386 3.00098 2.5ZM13.001 10H14.001V6H12.501H3.50098H2.00098V10H3.00098V9V8.5C3.00098 8.22386 3.22483 8 3.50098 8H4.00098H12.001H12.501C12.7771 8 13.001 8.22386 13.001 8.5V9V10ZM4.00098 10V14H12.001V10V9H4.00098V10ZM5.00098 12.5C5.00098 12.2239 5.22483 12 5.50098 12H10.501C10.7771 12 11.001 12.2239 11.001 12.5C11.001 12.7761 10.7771 13 10.501 13H5.50098C5.22483 13 5.00098 12.7761 5.00098 12.5ZM5.50098 10C5.22483 10 5.00098 10.2239 5.00098 10.5C5.00098 10.7761 5.22483 11 5.50098 11H10.501C10.7771 11 11.001 10.7761 11.001 10.5C11.001 10.2239 10.7771 10 10.501 10H5.50098Z" fill="black"/>
</g>
</svg>
