<svg width="16" height="16" viewBox="0 0 16 16" fill="none" xmlns="http://www.w3.org/2000/svg">
<g id="document-cleanup">
<path id="Union" fill-rule="evenodd" clip-rule="evenodd" d="M1.00098 2C1.00098 1.44772 1.44869 1 2.00098 1H5.29387C5.55909 1 5.81344 1.10536 6.00098 1.29289L9.70808 5C9.89562 5.18754 10.001 5.44189 10.001 5.70711V6.5C10.001 6.77614 9.77712 7 9.50098 7C9.22483 7 9.00098 6.77614 9.00098 6.5V6H6.00098C5.44869 6 5.00098 5.55229 5.00098 5V2L2.00098 2V13H4.50098C4.77712 13 5.00098 13.2239 5.00098 13.5C5.00098 13.7761 4.77712 14 4.50098 14H2.00098C1.44869 14 1.00098 13.5523 1.00098 13V2ZM6.00098 2.70711L8.29387 5H6.00098V2.70711ZM14.2863 2.21141C14.0227 2.14526 13.7521 2.2906 13.6617 2.54687L11.626 8.31598L11.5206 8.61468C11.8155 8.76759 12.1593 8.89307 12.5162 8.95613L12.5808 8.77312L14.6546 2.89729C14.7579 2.6048 14.5871 2.28691 14.2863 2.21141ZM10.269 9.02602C10.2806 9.01662 10.2922 9.00742 10.3039 8.99839C10.9198 9.52865 11.9501 9.99831 12.9951 10.0001C12.9983 10.0205 13.0013 10.041 13.0039 10.0618L13.0076 10.0918L13.015 10.1211C13.2825 11.1912 13.0737 12.6394 12.8368 13.6882C12.7393 14.1194 12.3293 14.3774 11.8935 14.2774C11.6594 14.2236 11.4014 14.1595 11.1279 14.084C11.2761 13.567 11.5011 12.671 11.5011 12.0001C11.1652 13.008 10.6035 13.5653 10.2711 13.8225C9.84733 13.6799 9.40982 13.5118 8.98413 13.3149C8.90468 13.2782 8.82598 13.2406 8.74819 13.2022C9.04431 12.7997 9.50111 12.0145 9.50111 11.0001C9.1841 11.9512 8.46508 12.5002 7.98127 12.7747C7.51674 12.4812 7.11005 12.1495 6.79727 11.7776C7.81608 11.3994 8.32072 10.8626 8.8369 10.3136L8.8369 10.3136L8.83779 10.3127C9.127 10.0051 9.41212 9.70272 9.80766 9.39401C9.95598 9.27825 10.1108 9.15458 10.269 9.02602ZM12.7187 2.21412C12.9808 1.47108 13.7655 1.04969 14.5297 1.24149C15.402 1.4604 15.8969 2.38209 15.5976 3.23011L13.6106 8.85988C13.805 9.164 13.939 9.51657 13.9922 9.90739C14.3106 11.2198 14.0504 12.8543 13.8122 13.9086C13.5916 14.8848 12.6402 15.4748 11.6697 15.252C10.8304 15.0593 9.67011 14.7339 8.56437 14.2226C7.46877 13.7159 6.36669 12.9995 5.71408 11.9932C5.43524 11.5633 5.71079 11.0681 6.1121 10.9512C7.14829 10.6492 7.56241 10.2093 8.10923 9.62768L8.1152 9.62133C8.40262 9.31562 8.73295 8.96428 9.19239 8.60569C9.33459 8.49471 9.48419 8.37522 9.63836 8.24993C9.98796 7.96586 10.3805 7.78582 10.7828 7.70033L12.7187 2.21412Z" fill="black"/>
</g>
</svg>
