<svg width="16" height="16" viewBox="0 0 16 16" fill="none" xmlns="http://www.w3.org/2000/svg">
<g id="document-import-web">
<path id="Union" fill-rule="evenodd" clip-rule="evenodd" d="M5.00098 2C4.44869 2 4.00098 2.44772 4.00098 3V5C4.00098 5.27614 4.22483 5.5 4.50098 5.5C4.77712 5.5 5.00098 5.27614 5.00098 5V3H9.00098V6C9.00098 6.55228 9.44869 7 10.001 7H13.001V13H9.50098C9.22483 13 9.00098 13.2239 9.00098 13.5C9.00098 13.7761 9.22483 14 9.50098 14H13.001C13.5533 14 14.001 13.5523 14.001 13V7V6.70711C14.001 6.44189 13.8956 6.18754 13.7081 6L10.001 2.29289C9.81344 2.10536 9.55909 2 9.29387 2H5.00098ZM12.2939 6L10.001 3.70711V6H12.2939Z" fill="black"/>
<path id="neutral" fill-rule="evenodd" clip-rule="evenodd" d="M7.9595 10.5C7.79748 11.4657 7.17405 12.275 6.32364 12.6934C6.53847 11.9765 6.66561 11.24 6.70508 10.5H7.9595ZM7.9595 9.5C7.79748 8.53425 7.17405 7.72497 6.32364 7.30656C6.53847 8.02354 6.66561 8.75998 6.70508 9.5H7.9595ZM5.70348 9.5C5.65286 8.65227 5.47339 7.81042 5.16506 7.00441C5.11074 7.00148 5.05603 7 5.00098 7C4.94545 7 4.89028 7.00151 4.8355 7.00449C4.52728 7.81048 4.3479 8.6523 4.29737 9.5H5.70348ZM4.29747 10.5C4.34818 11.3477 4.52774 12.1896 4.83615 12.9955C4.89072 12.9985 4.94567 13 5.00098 13C5.05603 13 5.11074 12.9985 5.16506 12.9956C5.47339 12.1896 5.65286 11.3477 5.70348 10.5H4.29747ZM3.29587 10.5C3.3354 11.2399 3.46257 11.9762 3.67738 12.693C2.82745 12.2744 2.20442 11.4654 2.04246 10.5H3.29587ZM3.29578 9.5C3.33517 8.76024 3.46217 8.02406 3.67679 7.30731C2.82716 7.72593 2.20438 8.53483 2.04246 9.5H3.29578ZM9.00098 10C9.00098 12.2091 7.21012 14 5.00098 14C2.79184 14 1.00098 12.2091 1.00098 10C1.00098 7.79086 2.79184 6 5.00098 6C7.21012 6 9.00098 7.79086 9.00098 10Z" fill="black"/>
</g>
</svg>
