<svg width="16" height="16" viewBox="0 0 16 16" fill="none" xmlns="http://www.w3.org/2000/svg">
<g id="document-properties">
<path id="Union" fill-rule="evenodd" clip-rule="evenodd" d="M2.00098 2.99902C2.00098 2.44674 2.44869 1.99902 3.00098 1.99902H7.29387C7.55909 1.99902 7.81344 2.10438 8.00098 2.29192L11.7081 5.99902C11.8956 6.18656 12.001 6.44091 12.001 6.70613V6.99902C12.001 7.27517 11.7771 7.49902 11.501 7.49902C11.2248 7.49902 11.001 7.27517 11.001 6.99902H8.00098C7.44869 6.99902 7.00098 6.55131 7.00098 5.99902V2.99902L3.00098 2.99902V12.999H7.00098C7.27712 12.999 7.50098 13.2229 7.50098 13.499C7.50098 13.7752 7.27712 13.999 7.00098 13.999H3.00098C2.44869 13.999 2.00098 13.5513 2.00098 12.999V2.99902ZM8.00098 3.70613L10.2939 5.99902H8.00098V3.70613ZM8.4375 11C8.19588 11 8 11.1959 8 11.4375V11.5625C8 11.8041 8.19588 12 8.4375 12H8.69239C8.90047 12 9.07586 12.1483 9.1461 12.3441C9.17348 12.4205 9.20446 12.4951 9.23885 12.5678C9.32783 12.7559 9.30865 12.9847 9.16152 13.1319L8.98116 13.3122C8.8103 13.4831 8.8103 13.7601 8.98116 13.9309L9.06954 14.0193C9.2404 14.1902 9.51741 14.1902 9.68826 14.0193L9.8688 13.8388C10.0159 13.6917 10.2447 13.6725 10.4328 13.7614C10.5053 13.7957 10.5797 13.8266 10.6559 13.8539C10.8517 13.9241 11 14.0995 11 14.3076V14.5625C11 14.8041 11.1959 15 11.4375 15H11.5625C11.8041 15 12 14.8041 12 14.5625V14.3076C12 14.0995 12.1483 13.9241 12.3441 13.8539C12.4203 13.8266 12.4947 13.7957 12.5672 13.7614C12.7553 13.6725 12.9841 13.6917 13.1312 13.8388L13.3117 14.0193C13.4826 14.1902 13.7596 14.1902 13.9305 14.0193L14.0188 13.9309C14.1897 13.7601 14.1897 13.4831 14.0188 13.3122L13.8385 13.1319C13.6913 12.9847 13.6722 12.7559 13.7612 12.5678C13.7955 12.4951 13.8265 12.4205 13.8539 12.3441C13.9241 12.1483 14.0995 12 14.3076 12H14.5625C14.8041 12 15 11.8041 15 11.5625V11.4375C15 11.1959 14.8041 11 14.5625 11H14.3076C14.0995 11 13.9241 10.8517 13.8539 10.6559C13.8266 10.5797 13.7957 10.5053 13.7614 10.4328C13.6725 10.2447 13.6917 10.0159 13.8388 9.8688L14.0193 9.6883C14.1901 9.51745 14.1901 9.24044 14.0193 9.06958L13.9309 8.9812C13.76 8.81034 13.483 8.81034 13.3122 8.9812L13.1319 9.16152C12.9847 9.30865 12.7559 9.32783 12.5678 9.23885C12.4951 9.20446 12.4205 9.17348 12.3441 9.1461C12.1483 9.07586 12 8.90047 12 8.69239V8.4375C12 8.19588 11.8041 8 11.5625 8H11.4375C11.1959 8 11 8.19588 11 8.4375V8.69239C11 8.90047 10.8517 9.07586 10.6559 9.1461C10.5795 9.17348 10.5049 9.20446 10.4322 9.23885C10.2441 9.32783 10.0153 9.30865 9.86814 9.16152L9.68781 8.9812C9.51696 8.81034 9.23995 8.81034 9.0691 8.9812L8.98071 9.06958C8.80985 9.24044 8.80985 9.51745 8.98071 9.6883L9.1612 9.8688C9.3083 10.0159 9.32751 10.2447 9.23859 10.4328C9.20431 10.5053 9.17341 10.5797 9.1461 10.6559C9.07586 10.8517 8.90047 11 8.69239 11H8.4375ZM12.5 11.5C12.5 12.0523 12.0523 12.5 11.5 12.5C10.9477 12.5 10.5 12.0523 10.5 11.5C10.5 10.9477 10.9477 10.5 11.5 10.5C12.0523 10.5 12.5 10.9477 12.5 11.5Z" fill="black"/>
</g>
</svg>
