<svg width="16" height="16" viewBox="0 0 16 16" fill="none" xmlns="http://www.w3.org/2000/svg">
<g id="document-export">
<path id="Union" fill-rule="evenodd" clip-rule="evenodd" d="M3.00098 2C2.44869 2 2.00098 2.44772 2.00098 3V13C2.00098 13.5523 2.44869 14 3.00098 14H6.50098C6.77712 14 7.00098 13.7761 7.00098 13.5C7.00098 13.2239 6.77712 13 6.50098 13H3.00098V3L7.00098 3V6C7.00098 6.55228 7.44869 7 8.00098 7H11.001C11.001 7.27614 11.2248 7.5 11.501 7.5C11.7771 7.5 12.001 7.27614 12.001 7V6.70711C12.001 6.44189 11.8956 6.18754 11.7081 6L8.00098 2.29289C7.81344 2.10536 7.55909 2 7.29387 2H3.00098ZM10.2939 6L8.00098 3.70711V6H10.2939Z" fill="black"/>
<path id="neutral" fill-rule="evenodd" clip-rule="evenodd" d="M11.3545 8.64645C11.1593 8.45118 10.8427 8.45118 10.6474 8.64645C10.4522 8.84171 10.4522 9.15829 10.6474 9.35355L12.2939 11H8.50098C8.22483 11 8.00098 11.2239 8.00098 11.5C8.00098 11.7761 8.22483 12 8.50098 12H12.2939L10.6474 13.6464C10.4522 13.8417 10.4522 14.1583 10.6474 14.3536C10.8427 14.5488 11.1593 14.5488 11.3545 14.3536L13.8542 11.8539L13.8545 11.8536L14.2081 11.5L13.8545 11.1464L13.8542 11.1461L11.3545 8.64645Z" fill="black"/>
</g>
</svg>
