<svg width="16" height="16" viewBox="0 0 16 16" fill="none" xmlns="http://www.w3.org/2000/svg">
<g id="document-import">
<path id="Union" fill-rule="evenodd" clip-rule="evenodd" d="M5.00098 2C4.44869 2 4.00098 2.44772 4.00098 3V7C4.00098 7.27614 4.22483 7.5 4.50098 7.5C4.77712 7.5 5.00098 7.27614 5.00098 7V3H9.00098V6C9.00098 6.55228 9.44869 7 10.001 7H13.001V13H8.50098C8.22483 13 8.00098 13.2239 8.00098 13.5C8.00098 13.7761 8.22483 14 8.50098 14H13.001C13.5533 14 14.001 13.5523 14.001 13V7V6.70711C14.001 6.44189 13.8956 6.18754 13.7081 6L10.001 2.29289C9.81344 2.10536 9.55909 2 9.29387 2H5.00098ZM12.2939 6L10.001 3.70711V6H12.2939Z" fill="black"/>
<path id="neutral" fill-rule="evenodd" clip-rule="evenodd" d="M5.35453 8.64645C5.15927 8.45118 4.84269 8.45118 4.64742 8.64645C4.45216 8.84171 4.45216 9.15829 4.64742 9.35355L6.29387 11H2.50098C2.22483 11 2.00098 11.2239 2.00098 11.5C2.00098 11.7761 2.22483 12 2.50098 12H6.29387L4.64742 13.6464C4.45216 13.8417 4.45216 14.1583 4.64742 14.3536C4.84269 14.5488 5.15927 14.5488 5.35453 14.3536L7.8542 11.8539L7.85453 11.8536L8.20808 11.5L7.85453 11.1464L7.8542 11.1461L5.35453 8.64645Z" fill="black"/>
</g>
</svg>
