<svg width="16" height="16" viewBox="0 0 16 16" fill="none" xmlns="http://www.w3.org/2000/svg">
<g id="document-save">
<path id="Union" fill-rule="evenodd" clip-rule="evenodd" d="M5.00098 2C4.44869 2 4.00098 2.44772 4.00098 3V5C4.00098 5.27614 4.22483 5.5 4.50098 5.5C4.77712 5.5 5.00098 5.27614 5.00098 5V3H9.00098V6C9.00098 6.55228 9.44869 7 10.001 7H13.001V13H9.50098C9.22483 13 9.00098 13.2239 9.00098 13.5C9.00098 13.7761 9.22483 14 9.50098 14H13.001C13.5533 14 14.001 13.5523 14.001 13V7V6.70711C14.001 6.44189 13.8956 6.18754 13.7081 6L10.001 2.29289C9.81344 2.10536 9.55909 2 9.29387 2H5.00098ZM12.2939 6L10.001 3.70711V6H12.2939Z" fill="black"/>
<path id="neutral" fill-rule="evenodd" clip-rule="evenodd" d="M5.00098 12.2929L6.64742 10.6464C6.84269 10.4512 7.15927 10.4512 7.35453 10.6464C7.54979 10.8417 7.54979 11.1583 7.35453 11.3536L4.85453 13.8536L4.50098 14.2071L4.14742 13.8536L1.64742 11.3536C1.45216 11.1583 1.45216 10.8417 1.64742 10.6464C1.84269 10.4512 2.15927 10.4512 2.35453 10.6464L4.00098 12.2929L4.00098 8.5C4.00098 8.22386 4.22483 8 4.50098 8C4.77712 8 5.00098 8.22386 5.00098 8.5L5.00098 12.2929Z" fill="black"/>
</g>
</svg>
