<svg width="16" height="16" viewBox="0 0 16 16" fill="none" xmlns="http://www.w3.org/2000/svg">
<g id="document-revert">
<path id="Union" fill-rule="evenodd" clip-rule="evenodd" d="M5.00098 2C4.44869 2 4.00098 2.44772 4.00098 3V5C4.00098 5.27614 4.22483 5.5 4.50098 5.5C4.77712 5.5 5.00098 5.27614 5.00098 5V3H9.00098V6C9.00098 6.55228 9.44869 7 10.001 7H13.001V13H11.501C11.2248 13 11.001 13.2239 11.001 13.5C11.001 13.7761 11.2248 14 11.501 14H13.001C13.5533 14 14.001 13.5523 14.001 13V7V6.70711C14.001 6.44189 13.8956 6.18754 13.7081 6L10.001 2.29289C9.81344 2.10536 9.55909 2 9.29387 2H5.00098ZM12.2939 6L10.001 3.70711V6H12.2939Z" fill="black"/>
<path id="neutral" fill-rule="evenodd" clip-rule="evenodd" d="M4.35461 7.85355C4.54987 7.65829 4.54987 7.34171 4.35461 7.14645C4.15934 6.95118 3.84276 6.95118 3.6475 7.14645L1.6475 9.14645L1.29395 9.5L1.6475 9.85355L3.6475 11.8536C3.84276 12.0488 4.15934 12.0488 4.35461 11.8536C4.54987 11.6583 4.54987 11.3417 4.35461 11.1464L3.20816 10H7.90105C8.80798 10 9.50105 10.6943 9.50105 11.5C9.50105 12.3057 8.80798 13 7.90105 13H7.20105C6.92491 13 6.70105 13.2239 6.70105 13.5C6.70105 13.7761 6.92491 14 7.20105 14H7.90105C9.31372 14 10.5011 12.9034 10.5011 11.5C10.5011 10.0966 9.31372 9 7.90105 9H3.20816L4.35461 7.85355Z" fill="black"/>
</g>
</svg>
