<svg width="16" height="16" viewBox="0 0 16 16" fill="none" xmlns="http://www.w3.org/2000/svg">
<g id="document-metadata">
<path id="Union" fill-rule="evenodd" clip-rule="evenodd" d="M5 2C4.44772 2 4 2.44772 4 3V5C4 5.27614 4.22386 5.5 4.5 5.5C4.77614 5.5 5 5.27614 5 5V3H9V6C9 6.55228 9.44772 7 10 7H13V13H9.5C9.22386 13 9 13.2239 9 13.5C9 13.7761 9.22386 14 9.5 14H13C13.5523 14 14 13.5523 14 13V7V6.70711C14 6.44189 13.8946 6.18754 13.7071 6L10 2.29289C9.81246 2.10536 9.55811 2 9.29289 2H5ZM12.2929 6L10 3.70711V6H12.2929Z" fill="black"/>
<path id="neutral" fill-rule="evenodd" clip-rule="evenodd" d="M3.41612 8.27736L1.60102 11L3.41612 13.7227L2.58407 14.2774L0.58407 11.2774L0.39917 11L0.58407 10.7227L2.58407 7.72266L3.41612 8.27736ZM4.58407 8.27736L6.39917 11L4.58407 13.7227L5.41612 14.2774L7.41612 11.2774L7.60102 11L7.41612 10.7227L5.41612 7.72266L4.58407 8.27736Z" fill="black"/>
</g>
</svg>
