<svg width="16" height="16" viewBox="0 0 16 16" fill="none" xmlns="http://www.w3.org/2000/svg">
<g id="document-resources">
<path id="Union" fill-rule="evenodd" clip-rule="evenodd" d="M3.00098 3H13.001V12H11.0078H10.9932H5.50874H5.49414H3.00098L3.00098 3ZM13.001 13H11.9352L12.417 13.7226C12.5702 13.9524 12.5081 14.2628 12.2783 14.416C12.0486 14.5692 11.7381 14.5071 11.585 14.2774L10.7334 13H5.76857L4.917 14.2774C4.76383 14.5071 4.45339 14.5692 4.22363 14.416C3.99386 14.2628 3.93178 13.9524 4.08495 13.7226L4.56672 13H3.00098C2.44869 13 2.00098 12.5523 2.00098 12V3C2.00098 2.44771 2.44869 2 3.00098 2H13.001C13.5533 2 14.001 2.44772 14.001 3V12C14.001 12.5523 13.5533 13 13.001 13ZM6.50098 4C6.22483 4 6.00098 4.22386 6.00098 4.5C6.00098 4.77614 6.22483 5 6.50098 5H9.50098C9.77712 5 10.001 4.77614 10.001 4.5C10.001 4.22386 9.77712 4 9.50098 4H6.50098Z" fill="black"/>
</g>
</svg>
