<svg width="16" height="16" viewBox="0 0 16 16" fill="none" xmlns="http://www.w3.org/2000/svg">
<g id="document-open">
<path id="Union" fill-rule="evenodd" clip-rule="evenodd" d="M2.00195 2.5C1.44967 2.5 1.00195 2.94772 1.00195 3.5V13C1.00195 13.5523 1.44967 14 2.00195 14H8.00106H11.502H12.3058C13.237 14 14.045 13.3573 14.2546 12.45L15.3457 7.72501C15.4904 7.09836 15.0145 6.5 14.3714 6.5H13.0008L13.0002 4.99961C13 4.44748 12.5523 4 12.0002 4L7.16667 4L5.43333 2.7C5.26024 2.57018 5.0497 2.5 4.83333 2.5H2.00195ZM12.5012 7.5C12.501 7.5 12.5009 7.5 12.5008 7.5H9.50206H5.89105C5.66527 7.5 5.46751 7.6513 5.40846 7.86922L4.37519 11.6821C4.2288 12.2222 3.90931 12.6793 3.48626 13H8.00106H11.502H12.3058C12.7714 13 13.1754 12.6787 13.2802 12.225L14.3714 7.5H12.5012ZM2.00195 12.5C2.66084 12.4987 3.2376 12.0567 3.41 11.4205L4.44327 7.60766C4.62043 6.95391 5.21373 6.5 5.89105 6.5H9.50206H12.0008L12.0002 5H7.16667C6.9503 5 6.73976 4.92982 6.56667 4.8L4.83333 3.5H2.00195V12.5Z" fill="black"/>
</g>
</svg>
