<svg width="16" height="16" viewBox="0 0 16 16" fill="none" xmlns="http://www.w3.org/2000/svg">
<g id="draw-geometry-set-bounding-box" clip-path="url(#clip0_241_9556)">
<path id="Union" fill-rule="evenodd" clip-rule="evenodd" d="M8.00098 2L10.001 0H6.00098L8.00098 2ZM3 3.25C3 3.11193 3.11193 3 3.25 3H4C4.10571 3 4.1961 3.06561 4.23266 3.15833H11.7673C11.8039 3.06561 11.8943 3 12 3H12.75C12.8881 3 13 3.11193 13 3.25V4C13 4.10571 12.9344 4.1961 12.8417 4.23266V11.7673C12.9344 11.8039 13 11.8943 13 12V12.75C13 12.8881 12.8881 13 12.75 13H12C11.8943 13 11.8039 12.9344 11.7673 12.8417H4.23266C4.1961 12.9344 4.10571 13 4 13H3.25C3.11193 13 3 12.8881 3 12.75V12C3 11.8943 3.06561 11.8039 3.15833 11.7673V4.23266C3.06561 4.1961 3 4.10571 3 4V3.25ZM4.09167 11.7673C4.15601 11.7927 4.20729 11.844 4.23266 11.9083H11.7673C11.7927 11.844 11.844 11.7927 11.9083 11.7673V4.23266C11.844 4.20729 11.7927 4.15601 11.7673 4.09167H4.23266C4.20729 4.156 4.156 4.20729 4.09167 4.23266V11.7673ZM16.001 6L14.001 8L16.001 10V6ZM8.00098 14L10.001 16H6.00098L8.00098 14ZM0.000976562 6L2.00098 8L0.000976562 10V6Z" fill="black"/>
</g>
<defs>
<clipPath id="clip0_241_9556">
<rect width="16" height="16" fill="white"/>
</clipPath>
</defs>
</svg>
