<svg width="16" height="16" viewBox="0 0 16 16" fill="none" xmlns="http://www.w3.org/2000/svg">
<g id="draw-eraser-delete-objects">
<g id=".minus">
<path id="Union" fill-rule="evenodd" clip-rule="evenodd" d="M14 8C14 11.3137 11.3137 14 8 14C4.68629 14 2 11.3137 2 8C2 4.68629 4.68629 2 8 2C11.3137 2 14 4.68629 14 8ZM15 8C15 11.866 11.866 15 8 15C4.13401 15 1 11.866 1 8C1 4.13401 4.13401 1 8 1C11.866 1 15 4.13401 15 8ZM5 7.35C4.64102 7.35 4.35 7.64102 4.35 8C4.35 8.35898 4.64102 8.65 5 8.65H11C11.359 8.65 11.65 8.35898 11.65 8C11.65 7.64102 11.359 7.35 11 7.35H5Z" fill="black"/>
</g>
</g>
</svg>
