<svg width="16" height="16" viewBox="0 0 16 16" fill="none" xmlns="http://www.w3.org/2000/svg">
<g id="draw-freehand">
<path id="neutral" opacity="0.3" d="M14.5858 2.58579L13.4142 1.41421C12.6332 0.633165 11.3668 0.633166 10.5858 1.41421L9 3L13 7L14.5858 5.41421C15.3668 4.63316 15.3668 3.36684 14.5858 2.58579Z" fill="black"/>
<path id="Union" fill-rule="evenodd" clip-rule="evenodd" d="M2.81532 11.0224L2.27475 13.7252L4.97757 13.1846L2.81532 11.0224ZM3.31066 10.1035L5.89645 12.6893L12.2929 6.29284L9.70711 3.70705L3.31066 10.1035ZM13.8787 4.70705L13 5.58573L10.4142 2.99994L11.2929 2.12126C11.6834 1.73074 12.3166 1.73074 12.7071 2.12126L13.8787 3.29284C14.2692 3.68336 14.2692 4.31652 13.8787 4.70705ZM6 13.9999L13 6.99994L13.7071 6.29284L14.5858 5.41416C14.6834 5.31653 14.7688 5.21131 14.8421 5.10041C15.3546 4.32411 15.2692 3.26915 14.5858 2.58573L13.4142 1.41416C13.402 1.40195 13.3897 1.38994 13.3773 1.37812C13.2902 1.29536 13.1975 1.22195 13.1005 1.15787C12.546 0.791758 11.8493 0.730738 11.2474 0.974815C11.0066 1.07245 10.781 1.21889 10.5858 1.41415L9.70711 2.29284L9 2.99994L2 9.99994L1.21246 13.9376L1 14.9999L2.0623 14.7875L6 13.9999Z" fill="black"/>
</g>
</svg>
