<svg width="16" height="16" viewBox="0 0 16 16" fill="none" xmlns="http://www.w3.org/2000/svg">
<g id="draw-calligraphic" clip-path="url(#clip0_241_9506)">
<path id="neutral" opacity="0.3" d="M15.1449 4.69973L10.501 8.5L7.50098 5.5L11.3003 0.855379C11.6749 0.397416 12.3631 0.363057 12.7814 0.781427L15.2187 3.21872C15.637 3.63704 15.6028 4.32508 15.1449 4.69973Z" fill="black"/>
<path id="Union" fill-rule="evenodd" clip-rule="evenodd" d="M14.5116 3.92583L10.5681 7.15292L8.84794 5.43275L12.0743 1.48854L14.5116 3.92583ZM10.9455 8.13623L15.1449 4.69973C15.6028 4.32508 15.637 3.63704 15.2187 3.21873L12.7814 0.781428C12.3631 0.363058 11.6749 0.397417 11.3003 0.85538L7.8662 5.05352L6.18094 5.72762C4.20967 6.51613 2.8167 8.29071 2.38887 10.3703C2.15782 11.4933 1.87793 12.6956 1.57916 13.6325C1.39109 14.2222 1.19555 14.7067 1 15C1.29332 14.8045 1.77783 14.6089 2.36754 14.4208C3.30436 14.1221 4.50666 13.8422 5.62972 13.6111C7.70929 13.1833 9.48387 11.7903 10.2724 9.81906L10.9455 8.13623ZM5.42821 12.6316C4.53407 12.8156 3.57623 13.0329 2.7305 13.2695C2.96707 12.4238 3.1844 11.4659 3.36836 10.5718C3.73375 8.7957 4.91654 7.31042 6.55233 6.6561L7.75916 6.17337L9.82663 8.24084L9.3439 9.44767C8.68958 11.0835 7.2043 12.2663 5.42821 12.6316Z" fill="black"/>
</g>
<defs>
<clipPath id="clip0_241_9506">
<rect width="16" height="16" fill="white"/>
</clipPath>
</defs>
</svg>
