<svg width="16" height="16" viewBox="0 0 16 16" fill="none" xmlns="http://www.w3.org/2000/svg">
<g id="draw-geometry-circle-from-three-points" clip-path="url(#clip0_241_9570)">
<path id="Union" fill-rule="evenodd" clip-rule="evenodd" d="M5.00098 0L4.29387 0.707107L2.70808 2.29289L2.00098 3L2.70808 3.70711L2.95883 3.95785C2.07022 5.06465 1.53857 6.47029 1.53857 8.00011C1.53857 9.01011 1.7703 9.96599 2.1835 10.8175L1.70808 11.2929L1.00098 12L1.70808 12.7071L3.29387 14.2929L4.00098 15L4.70808 14.2929L6.29387 12.7071L7.00098 12L6.29387 11.2929L4.70808 9.70711L4.00098 9L3.29387 9.70711L2.88159 10.1194C2.61099 9.46657 2.46165 8.75078 2.46165 8.00011C2.46165 6.72534 2.89233 5.55116 3.61611 4.61514L4.29387 5.29289L5.00098 6L5.70808 5.29289L7.29387 3.70711L8.00098 3L7.48616 2.48518C7.65539 2.46961 7.82682 2.46165 8.00011 2.46165C11.0589 2.46165 13.5386 4.94131 13.5386 8.00011C13.5386 8.1734 13.5306 8.34484 13.515 8.51407L13.001 8L12.2939 8.70711L10.7081 10.2929L10.001 11L10.7081 11.7071L11.3851 12.3841C10.4491 13.1079 9.27488 13.5386 8.00011 13.5386C7.24991 13.5386 6.53455 13.3894 5.88206 13.1191L5.18391 13.8173C6.03511 14.2301 6.99057 14.4617 8.00011 14.4617C9.52993 14.4617 10.9356 13.93 12.0424 13.0414L12.2939 13.2929L13.001 14L13.7081 13.2929L15.2939 11.7071L16.001 11L15.2939 10.2929L14.3257 9.32477C14.4148 8.8972 14.4617 8.45412 14.4617 8.00011C14.4617 4.4315 11.5687 1.53857 8.00011 1.53857C7.5461 1.53857 7.10303 1.5854 6.67546 1.67448L5.70808 0.707107L5.00098 0ZM5.00098 4.58579L3.41519 3L5.00098 1.41421L6.58676 3L5.00098 4.58579ZM2.41519 12L4.00098 13.5858L5.58676 12L4.00098 10.4142L2.41519 12ZM13.001 12.5858L11.4152 11L13.001 9.41421L14.5868 11L13.001 12.5858Z" fill="black"/>
</g>
<defs>
<clipPath id="clip0_241_9570">
<rect width="16" height="16" fill="white"/>
</clipPath>
</defs>
</svg>
