<svg width="16" height="16" viewBox="0 0 16 16" fill="none" xmlns="http://www.w3.org/2000/svg">
<g id="draw-eraser" clip-path="url(#clip0_241_9650)">
<path id="neutral" opacity="0.3" d="M4 7.5L0.5 11L5 15.5H7L9.5 13L4 7.5Z" fill="black"/>
<path id="Union" fill-rule="evenodd" clip-rule="evenodd" d="M4.10348 8.31058L1.41414 10.9999L5.41414 14.9999H5.49992H6.58571L8.68927 12.8964L4.10348 8.31058ZM4.81058 7.60348L9.39637 12.1893L14.5857 6.99992L9.99992 2.41414L4.81058 7.60348ZM5.20703 15.9999H5.49992H6.79282H14.4999C14.7761 15.9999 14.9999 15.7761 14.9999 15.4999C14.9999 15.2238 14.7761 14.9999 14.4999 14.9999H7.99992L15.6464 7.35348C15.8416 7.15822 15.8416 6.84163 15.6464 6.64637L10.3535 1.35348C10.1582 1.15822 9.84163 1.15822 9.64637 1.35348L0.353478 10.6464C0.158216 10.8416 0.158216 11.1582 0.353478 11.3535L4.85348 15.8535C4.94725 15.9472 5.07442 15.9999 5.20703 15.9999Z" fill="black"/>
</g>
<defs>
<clipPath id="clip0_241_9650">
<rect width="16" height="16" fill="white"/>
</clipPath>
</defs>
</svg>
