<svg width="16" height="16" viewBox="0 0 16 16" fill="none" xmlns="http://www.w3.org/2000/svg">
<g id="draw-geometry-show-measuring-info" clip-path="url(#clip0_241_9266)">
<path id="Union" fill-rule="evenodd" clip-rule="evenodd" d="M15.001 2H1.00098V10H15.001V2ZM1.00098 1C0.448692 1 0.000976562 1.44772 0.000976562 2V10C0.000976562 10.5523 0.448692 11 1.00098 11H9.96125L6.61043 15.1885C6.43793 15.4042 6.47289 15.7188 6.68852 15.8913C6.90415 16.0638 7.2188 16.0288 7.3913 15.8132L11.2419 11H15.001C15.5533 11 16.001 10.5523 16.001 10V2C16.001 1.44772 15.5533 1 15.001 1H1.00098ZM3.80267 7.83594C4.07824 8.01634 4.40636 8.10653 4.78705 8.10653C5.16915 8.10653 5.49727 8.01705 5.77142 7.83807C6.04699 7.65767 6.25935 7.39702 6.40849 7.05611C6.55764 6.7152 6.63222 6.30469 6.63222 5.82457C6.63364 5.3473 6.55977 4.94105 6.41062 4.60582C6.26148 4.2706 6.04841 4.01562 5.77142 3.84091C5.49585 3.66477 5.16773 3.5767 4.78705 3.5767C4.40636 3.5767 4.07824 3.66477 3.80267 3.84091C3.52852 4.01562 3.31687 4.2706 3.16773 4.60582C3.02 4.93963 2.94543 5.34588 2.94401 5.82457C2.94259 6.30327 3.01645 6.71307 3.1656 7.05398C3.31474 7.39347 3.5271 7.65412 3.80267 7.83594ZM5.33889 6.89631C5.19827 7.12784 5.01432 7.24361 4.78705 7.24361C4.63648 7.24361 4.50366 7.19247 4.38861 7.0902C4.27355 6.98651 4.18406 6.82955 4.12014 6.61932C4.05764 6.40909 4.0271 6.14418 4.02852 5.82457C4.02994 5.35298 4.10026 5.00355 4.23946 4.77628C4.37866 4.54759 4.56119 4.43324 4.78705 4.43324C4.93903 4.43324 5.07185 4.48366 5.18548 4.58452C5.29912 4.68537 5.3879 4.83878 5.45182 5.04474C5.51574 5.24929 5.5477 5.50923 5.5477 5.82457C5.54912 6.30611 5.47952 6.66335 5.33889 6.89631ZM7.72905 7.89986C7.83842 8.00781 7.96982 8.06179 8.12322 8.06179C8.22124 8.06179 8.31143 8.03693 8.39382 7.98722C8.47763 7.9375 8.5451 7.87074 8.59624 7.78693C8.64879 7.70312 8.67578 7.61009 8.6772 7.50781C8.67578 7.35724 8.61896 7.22869 8.50675 7.12216C8.39595 7.0142 8.26811 6.96023 8.12322 6.96023C7.96982 6.96023 7.83842 7.0142 7.72905 7.12216C7.62109 7.22869 7.56783 7.35724 7.56925 7.50781C7.56783 7.66122 7.62109 7.7919 7.72905 7.89986ZM9.83689 7.24148V8H13.067V7.14986H11.2985V7.12216L11.8206 6.64062C12.1373 6.36506 12.3816 6.12855 12.5535 5.93111C12.7268 5.73366 12.8468 5.55327 12.9136 5.38991C12.9804 5.22656 13.0137 5.06179 13.0137 4.8956C13.0137 4.63423 12.9463 4.40483 12.8113 4.20739C12.6778 4.00852 12.4889 3.85369 12.2446 3.7429C12.0002 3.6321 11.7126 3.5767 11.3816 3.5767C11.0606 3.5767 10.7787 3.63565 10.5358 3.75355C10.2943 3.87003 10.1068 4.03622 9.97325 4.25213C9.83973 4.46804 9.77297 4.72443 9.77297 5.02131H10.7723C10.7723 4.8892 10.7971 4.77699 10.8468 4.68466C10.898 4.59233 10.969 4.52202 11.0599 4.47372C11.1508 4.42401 11.2566 4.39915 11.3774 4.39915C11.4967 4.39915 11.6025 4.42259 11.6948 4.46946C11.7872 4.51634 11.8596 4.5831 11.9122 4.66974C11.9647 4.75497 11.991 4.85795 11.991 4.97869C11.991 5.08665 11.969 5.18679 11.925 5.27912C11.8809 5.37003 11.817 5.46094 11.7332 5.55185C11.6494 5.64134 11.5478 5.74006 11.4285 5.84801L9.83689 7.24148Z" fill="black"/>
</g>
<defs>
<clipPath id="clip0_241_9266">
<rect width="16" height="16" fill="white"/>
</clipPath>
</defs>
</svg>
