<svg width="16" height="16" viewBox="0 0 16 16" fill="none" xmlns="http://www.w3.org/2000/svg">
<g id="draw-cuboid">
<path id="neutral" opacity="0.3" d="M8 15V7.5L14.5 4.5V12L8 15Z" fill="black"/>
<path id="Union" fill-rule="evenodd" clip-rule="evenodd" d="M8.20953 2.14734C8.07658 2.08598 7.92342 2.08598 7.79047 2.14734L2.69315 4.49995L8 6.94926L13.3068 4.49995L8.20953 2.14734ZM8.46461 7.31516L14.7113 4.04677L14.7095 4.04597L14.707 4.04481L8.62859 1.23938C8.22974 1.0553 7.77026 1.0553 7.37141 1.23938L1.29295 4.04482C1.28366 4.04905 1.27448 4.05357 1.26541 4.05839C1.18394 4.10165 1.11749 4.16579 1.07145 4.24237C1.02559 4.31866 1 4.40729 1 4.49995V11.9999C1 12.195 1.1134 12.3722 1.29047 12.4539L7.78806 15.4528C7.79807 15.4575 7.80821 15.4618 7.81845 15.4658C7.92425 15.5071 8.04146 15.5112 8.15039 15.4768C8.17131 15.4702 8.19188 15.4622 8.21194 15.4528L14.7095 12.4539C14.8866 12.3722 15 12.195 15 11.9999V4.49995C15 4.4751 14.9982 4.45053 14.9946 4.42642C14.9876 4.37957 14.9741 4.33442 14.9548 4.29215C14.9285 4.23471 14.8915 4.18258 14.8457 4.13872C14.8171 4.11128 14.785 4.08708 14.7498 4.06683L8.46636 7.31961C8.46578 7.31812 8.4652 7.31664 8.46461 7.31516ZM8.5 7.81986V14.2185L14 11.68V5.2814L8.5 7.81986ZM7.5 7.81986L2 5.2814V11.68L7.5 14.2185V7.81986Z" fill="black"/>
</g>
</svg>
