<svg width="16" height="16" viewBox="0 0 16 16" fill="none" xmlns="http://www.w3.org/2000/svg">
<g id="draw-use-tilt">
<path id="Union" fill-rule="evenodd" clip-rule="evenodd" d="M9.82656 2.87649C9.98225 2.60683 10.3271 2.51443 10.5967 2.67012L11.518 3.20203C11.7877 3.35772 11.8801 3.70254 11.7244 3.97221L11.2776 4.74599L9.37981 3.65028L9.82656 2.87649ZM8.87982 4.5163L4.38944 12.2939L4.7905 13.7906L6.28725 13.3896L10.7776 5.61202L8.87982 4.5163ZM11.0967 1.8041C10.3488 1.37226 9.39237 1.62854 8.96054 2.37649L3.41987 11.9732C3.35356 12.0881 3.33559 12.2245 3.36992 12.3526L3.95399 14.5324C3.98831 14.6605 4.07211 14.7697 4.18695 14.836C4.3018 14.9023 4.43827 14.9203 4.56636 14.886L6.74612 14.3019C6.87421 14.2676 6.98342 14.1838 7.04972 14.0689L12.5904 4.47221C13.0223 3.72425 12.766 2.76784 12.018 2.336L11.0967 1.8041Z" fill="black"/>
<path id="Vector 248" d="M1.5 14.5H14.5" stroke="black" stroke-linecap="round"/>
<path id="Intersect" fill-rule="evenodd" clip-rule="evenodd" d="M12.0913 8.09825C11.8651 7.90048 11.5197 7.96717 11.3651 8.22485C11.2346 8.44231 11.2875 8.72151 11.4771 8.88987C12.5687 9.85899 13.3755 11.1418 13.7561 12.597C13.817 12.8299 14.0227 13.0001 14.2634 13.0001C14.5785 13.0001 14.8179 12.7149 14.7407 12.4094C14.311 10.7109 13.3701 9.21611 12.0913 8.09825Z" fill="black"/>
</g>
</svg>
