<svg width="16" height="16" viewBox="0 0 16 16" fill="none" xmlns="http://www.w3.org/2000/svg">
<g id="draw-connector">
<path id="Union" fill-rule="evenodd" clip-rule="evenodd" d="M3 5V2H6V5H3ZM2 1.5C2 1.22386 2.22386 1 2.5 1H6.5C6.77614 1 7 1.22386 7 1.5V5.5C7 5.77614 6.77614 6 6.5 6H5V7.5H11C11.5523 7.5 12 7.94771 12 8.5V10H13.5C13.7761 10 14 10.2239 14 10.5V14.5C14 14.7761 13.7761 15 13.5 15H9.5C9.22386 15 9 14.7761 9 14.5V10.5C9 10.2239 9.22386 10 9.5 10H11V8.5H5C4.44772 8.5 4 8.05228 4 7.5V6H2.5C2.22386 6 2 5.77614 2 5.5V1.5ZM10 11V14H13V11H10Z" fill="black"/>
<rect id="neutral" opacity="0.3" x="3" y="2" width="3" height="3" fill="black"/>
<rect id="neutral_2" opacity="0.3" x="10" y="11" width="3" height="3" fill="black"/>
</g>
</svg>
