<svg width="16" height="16" viewBox="0 0 16 16" fill="none" xmlns="http://www.w3.org/2000/svg">
<g id="draw-geometry-line-segment" clip-path="url(#clip0_241_9693)">
<path id="Union" fill-rule="evenodd" clip-rule="evenodd" d="M12.2939 0.707107L13.001 0L13.7081 0.707107L15.2939 2.29289L16.001 3L15.2939 3.70711L13.7081 5.29289L13.001 6L12.2939 5.29289L11.8545 4.85355L4.85453 11.8536L5.29387 12.2929L6.00098 13L5.29387 13.7071L3.70808 15.2929L3.00098 16L2.29387 15.2929L0.708083 13.7071L0.000976562 13L0.708083 12.2929L2.29387 10.7071L3.00098 10L3.70808 10.7071L4.14742 11.1464L11.1474 4.14645L10.7081 3.70711L10.001 3L10.7081 2.29289L12.2939 0.707107ZM13.001 1.41421L11.4152 3L13.001 4.58579L14.5868 3L13.001 1.41421ZM1.41519 13L3.00098 14.5858L4.58676 13L3.00098 11.4142L1.41519 13Z" fill="black"/>
</g>
<defs>
<clipPath id="clip0_241_9693">
<rect width="16" height="16" fill="white"/>
</clipPath>
</defs>
</svg>
