<svg width="16" height="16" viewBox="0 0 16 16" fill="none" xmlns="http://www.w3.org/2000/svg">
<g id="draw-geometry" clip-path="url(#clip0_241_9745)">
<path id="neutral" opacity="0.3" d="M14.5 4.5L11.5 1.5L9 3.5V7H12.5L14.5 4.5Z" fill="black"/>
<path id="Subtract" fill-rule="evenodd" clip-rule="evenodd" d="M15.0303 2.03044L15.5607 1.50011L14.5 0.439453L13.9697 0.969783L12.8232 2.11623L11.8536 1.14656C11.6734 0.966407 11.3866 0.950522 11.1877 1.10968L8.68765 3.10968C8.56905 3.20457 8.5 3.34822 8.5 3.50011V3.66684L2.65929 6.26271C1.73635 6.67291 1.26688 7.70467 1.55615 8.66588L0 11.0001L1.99997 10.0001L1.99999 10.0002L2.91807 9.59214L8.51129 7.10627C8.55997 7.33142 8.76028 7.50011 9 7.50011H9.16669L7.31622 13.0516L7.00004 14.0001H7L6 16.0001L8.35027 14.4333C9.32332 14.6253 10.3105 14.0686 10.6324 13.1029L12.5 7.50011C12.6519 7.50011 12.7955 7.43107 12.8904 7.31246L14.8904 4.81246C15.0496 4.61351 15.0337 4.32671 14.8536 4.14656L13.8839 3.17689L15.0303 2.03044ZM3.06543 7.17652L8.5 4.76116V6.01697L2.60037 8.63903L2.52288 8.40656C2.36003 7.91802 2.59484 7.38568 3.06543 7.17652ZM9.99951 6.5C9.99956 6.50004 9.99961 6.50008 9.99966 6.50011H12.2597L12.2598 6.5H12.5L14 4.5L11.5 2L9.5 3.5V3.74043V6.00043V6.5H9.99951ZM8.26491 13.3678L10.2208 7.50011H11.4459L9.68375 12.7866C9.5091 13.3106 8.9428 13.5937 8.41886 13.4191L8.26491 13.3678Z" fill="black"/>
</g>
<defs>
<clipPath id="clip0_241_9745">
<rect width="16" height="16" fill="white"/>
</clipPath>
</defs>
</svg>
