<svg width="16" height="16" viewBox="0 0 16 16" fill="none" xmlns="http://www.w3.org/2000/svg">
<g id="draw-geometry-line-parallel" clip-path="url(#clip0_241_9548)">
<path id="Union" fill-rule="evenodd" clip-rule="evenodd" d="M11.9251 1.92417C12.1595 1.68985 12.1595 1.30995 11.9251 1.07564C11.6908 0.841324 11.3109 0.841324 11.0766 1.07564L1.07661 11.0756C0.8423 11.31 0.8423 11.6899 1.07661 11.9242C1.31093 12.1585 1.69083 12.1585 1.92514 11.9242L11.9251 1.92417ZM14.9251 4.92417C15.1595 4.68985 15.1595 4.30995 14.9251 4.07564C14.6908 3.84132 14.3109 3.84132 14.0766 4.07564L4.07661 14.0756C3.8423 14.31 3.8423 14.6899 4.07661 14.9242C4.31093 15.1585 4.69083 15.1585 4.92514 14.9242L14.9251 4.92417Z" fill="black"/>
</g>
<defs>
<clipPath id="clip0_241_9548">
<rect width="16" height="16" fill="white"/>
</clipPath>
</defs>
</svg>
