<svg width="16" height="16" viewBox="0 0 16 16" fill="none" xmlns="http://www.w3.org/2000/svg">
<g id="draw-spiral">
<path id="Union" fill-rule="evenodd" clip-rule="evenodd" d="M12.5704 5.43369C10.5133 2.80567 6.58373 2.14235 3.9778 4.25783L3.97779 4.25783C1.81333 6.01489 1.28898 9.32102 3.09376 11.4635C4.53984 13.1802 7.20101 13.5654 8.86218 12.0666L9.19712 12.4379L8.86218 12.0666C10.1287 10.924 10.3723 8.88528 9.19195 7.69808L9.54653 7.34555L9.19195 7.69808C8.79532 7.29914 8.23089 7.05161 7.67522 7.02421C7.12759 6.9972 6.61659 7.18254 6.2632 7.61383C6.07931 7.83826 5.96083 8.18348 5.97417 8.49875C5.98687 8.79887 6.10896 9.00633 6.33744 9.11116C6.58843 9.22631 6.69854 9.52313 6.58339 9.77411C6.46824 10.0251 6.17142 10.1352 5.92044 10.0201C5.26619 9.71989 4.99929 9.11366 4.97506 8.54103C4.95147 7.98353 5.14811 7.39692 5.48969 6.98004C6.07626 6.26416 6.91481 5.98549 7.72448 6.02542C8.52613 6.06496 9.32676 6.41533 9.90111 6.99303L9.56524 7.32696L9.90111 6.99303C11.5707 8.6724 11.1258 11.3713 9.53205 12.8091C7.38103 14.7498 4.07575 14.1814 2.32895 12.1078L2.70848 11.7881L2.32894 12.1078C0.115763 9.48044 0.808945 5.54221 3.34754 3.48144C6.43747 0.97306 10.997 1.80119 13.3578 4.81731L13.0062 5.09257L13.3578 4.81732C15.1536 7.11149 15.4746 10.2752 14.3307 12.9162C14.2209 13.1696 13.9265 13.286 13.6731 13.1762C13.4197 13.0665 13.3033 12.7721 13.413 12.5187C14.4196 10.195 14.1277 7.42334 12.5704 5.43369Z" fill="black"/>
</g>
</svg>
