<svg width="16" height="16" viewBox="0 0 16 16" fill="none" xmlns="http://www.w3.org/2000/svg">
<g id="draw-geometry-circle-from-radius" clip-path="url(#clip0_241_9554)">
<path id="Union" fill-rule="evenodd" clip-rule="evenodd" d="M13.001 0L12.2939 0.707107L11.2187 1.78226C10.2551 1.28241 9.16052 1 8 1C4.13401 1 1 4.13401 1 8C1 11.866 4.13401 15 8 15C11.866 15 15 11.866 15 8C15 6.83999 14.7178 5.74589 14.2184 4.78257L15.2939 3.70711L16.001 3L15.2939 2.29289L13.7081 0.707107L13.001 0ZM8 2C8.88067 2 9.71702 2.18974 10.4704 2.53056L10.001 3L10.7081 3.70711L11.1474 4.14645L9.0166 6.27727C8.7187 6.1011 8.37116 6 8 6C6.89543 6 6 6.89543 6 8C6 9.10457 6.89543 10 8 10C9.10457 10 10 9.10457 10 8C10 7.62935 9.89917 7.28225 9.72345 6.98463L11.8545 4.85355L12.2939 5.29289L13.001 6L13.47 5.53093C13.8105 6.28397 14 7.11985 14 8C14 11.3137 11.3137 14 8 14C4.68629 14 2 11.3137 2 8C2 4.68629 4.68629 2 8 2ZM14.5868 3L13.001 4.58579L11.4152 3L13.001 1.41421L14.5868 3Z" fill="black"/>
</g>
<defs>
<clipPath id="clip0_241_9554">
<rect width="16" height="16" fill="white"/>
</clipPath>
</defs>
</svg>
