<svg width="16" height="16" viewBox="0 0 16 16" fill="none" xmlns="http://www.w3.org/2000/svg">
<g id="draw-path">
<path id="neutral" opacity="0.3" d="M16 4L13.5 6.5L9.5 2.5L12 -1.09278e-07L16 4Z" fill="black"/>
<path id="Union" fill-rule="evenodd" clip-rule="evenodd" d="M16 4L15.2929 3.29289L12.7071 0.707106L12 0L11.2929 0.707106L10.2071 1.79289L10 2L5.90099 3.75672C4.08496 4.53502 2.7685 6.15748 2.38102 8.09489L1.21246 13.9377L1 15L2.0623 14.7875L7.90511 13.619C9.84252 13.2315 11.465 11.915 12.2433 10.099L14 6L14.2071 5.79289L15.2929 4.70711L16 4ZM10.0616 3.06158L10.2071 3.20711L12.7929 5.79289L12.9384 5.93842L11.3241 9.70509C10.6756 11.2184 9.3235 12.3155 7.70899 12.6384L3.15864 13.5485L6.85329 9.85382C7.04911 9.94752 7.26843 10 7.5 10C8.32843 10 9 9.32843 9 8.5C9 7.67157 8.32843 7 7.5 7C6.67157 7 6 7.67157 6 8.5C6 8.73157 6.05248 8.95089 6.14619 9.14671L2.45153 12.8414L3.3616 8.29101C3.6845 6.6765 4.78155 5.32444 6.29491 4.67586L10.0616 3.06158ZM13.5429 5.04289L14.5858 4L12 1.41421L10.9571 2.45711L13.5429 5.04289Z" fill="black"/>
</g>
</svg>
