<svg width="16" height="16" viewBox="0 0 16 16" fill="none" xmlns="http://www.w3.org/2000/svg">
<g id="draw-geometry-angle-bisector">
<path id="Union" fill-rule="evenodd" clip-rule="evenodd" d="M2.50093 1C2.77707 1 3.00093 1.22386 3.00093 1.5V6.59277C4.56374 6.70428 5.98313 7.33438 7.08795 8.31194L14.2004 1.19948C14.3664 1.03351 14.6355 1.03351 14.8014 1.19948C14.9674 1.36545 14.9674 1.63455 14.8014 1.80052L7.68899 8.91298C8.66655 10.0178 9.29665 11.4372 9.40815 13H14.5009C14.7771 13 15.0009 13.2239 15.0009 13.5C15.0009 13.7761 14.7771 14 14.5009 14H2.60197L1.80145 14.8005C1.63548 14.9665 1.36638 14.9665 1.20041 14.8005C1.03443 14.6345 1.03443 14.3655 1.20041 14.1995L2.00093 13.399V1.5C2.00093 1.22386 2.22479 1 2.50093 1ZM3.60197 13H8.55565C8.44743 11.6716 7.91187 10.4642 7.08666 9.51531L3.60197 13ZM6.48562 8.91427L3.00093 12.399V7.44528C4.32929 7.5535 5.53675 8.08906 6.48562 8.91427Z" fill="black"/>
</g>
</svg>
