<svg width="16" height="16" viewBox="0 0 16 16" fill="none" xmlns="http://www.w3.org/2000/svg">
<g id="draw-booleans">
<path id="neutral" opacity="0.3" fill-rule="evenodd" clip-rule="evenodd" d="M11 5.10002V10.1667C11 10.6269 10.6269 11 10.1667 11H5.10002C5.03443 10.6769 5 10.3425 5 10C5 7.23858 7.23858 5 10 5C10.3425 5 10.6769 5.03443 11 5.10002Z" fill="black"/>
<path id="Union" fill-rule="evenodd" clip-rule="evenodd" d="M3 10V3H10V5C7.23858 5 5 7.23858 5 10H3ZM5.10002 11H2.83333C2.3731 11 2 10.6269 2 10.1667V2.83333C2 2.3731 2.3731 2 2.83333 2H10.1667C10.6269 2 11 2.3731 11 2.83333V5.10002C13.2822 5.56329 15 7.58104 15 10C15 12.7614 12.7614 15 10 15C7.58104 15 5.56329 13.2822 5.10002 11ZM11 6.12602C12.7252 6.57006 14 8.13616 14 10C14 12.2091 12.2091 14 10 14C8.13616 14 6.57006 12.7252 6.12602 11H10.1667C10.6269 11 11 10.6269 11 10.1667V6.12602ZM10 6C7.79086 6 6 7.79086 6 10H10V6Z" fill="black"/>
</g>
</svg>
