<svg width="16" height="16" viewBox="0 0 16 16" fill="none" xmlns="http://www.w3.org/2000/svg">
<g id="draw-polygon-star">
<path id="neutral" opacity="0.3" d="M7.41221 1.42705C7.7627 1.17241 8.2373 1.17241 8.58779 1.42705L14.0696 5.40983C14.4201 5.66447 14.5668 6.11584 14.4329 6.52786L12.339 12.9721C12.2051 13.3842 11.8212 13.6631 11.388 13.6631H4.61205C4.17882 13.6631 3.79486 13.3842 3.66099 12.9721L1.56712 6.52786C1.43324 6.11584 1.5799 5.66447 1.93039 5.40983L7.41221 1.42705Z" fill="black"/>
<path id="Union" fill-rule="evenodd" clip-rule="evenodd" d="M13.4818 6.21886L7.99996 2.23608L2.51813 6.21886L4.61201 12.6631L11.3879 12.6631L13.4818 6.21886ZM8.58775 1.42707C8.23726 1.17242 7.76266 1.17242 7.41217 1.42707L1.93035 5.40985C1.57986 5.66449 1.4332 6.11586 1.56708 6.52788L3.66095 12.9722C3.79482 13.3842 4.17878 13.6631 4.61201 13.6631H11.3879C11.8211 13.6631 12.2051 13.3842 12.339 12.9722L14.4328 6.52788C14.5667 6.11586 14.4201 5.66449 14.0696 5.40985L8.58775 1.42707Z" fill="black"/>
</g>
</svg>
