<svg width="16" height="16" viewBox="0 0 16 16" fill="none" xmlns="http://www.w3.org/2000/svg">
<g id="draw-use-pressure">
<path id="Union" fill-rule="evenodd" clip-rule="evenodd" d="M2.49996 2.49756C2.49996 2.22142 2.72381 1.99756 2.99996 1.99756H3.99995C4.2761 1.99756 4.49995 2.22142 4.49995 2.49756L4.49995 3.5H2.49996V2.49756ZM2.49996 4.5V11.2929L3.49995 12.2929L4.49993 11.2929L4.49995 4.5H2.49996ZM2.99996 0.997559C2.17153 0.997559 1.49996 1.66913 1.49996 2.49756V11.5C1.49996 11.6326 1.55263 11.7598 1.6464 11.8536L3.1464 13.3536C3.24017 13.4473 3.36735 13.5 3.49996 13.5C3.63257 13.5 3.75975 13.4473 3.85351 13.3535L5.35348 11.8535C5.44725 11.7598 5.49992 11.6326 5.49993 11.5L5.49995 2.49756C5.49996 1.66913 4.82838 0.997559 3.99995 0.997559H2.99996ZM14.0161 9.75507C14.428 9.41842 15.0008 9.74022 15.0008 10.2246V15H1.00098V14.4999V14C8.43554 14 13.1267 10.482 14.0161 9.75507Z" fill="black"/>
</g>
</svg>
