<svg width="16" height="16" viewBox="0 0 16 16" fill="none" xmlns="http://www.w3.org/2000/svg">
<g id="draw-geometry-line-perpendicular" clip-path="url(#clip0_241_9560)">
<path id="Union" fill-rule="evenodd" clip-rule="evenodd" d="M14.9251 1.92417C15.1595 1.68985 15.1595 1.30995 14.9251 1.07564C14.6908 0.841324 14.3109 0.841324 14.0766 1.07564L1.07661 14.0756C0.8423 14.31 0.8423 14.6899 1.07661 14.9242C1.31093 15.1585 1.69083 15.1585 1.92514 14.9242L14.9251 1.92417ZM14.218 14.7827C14.3742 14.939 14.6275 14.939 14.7837 14.7827C14.9399 14.6265 14.9399 14.3733 14.7837 14.2171L13.9171 13.3504C13.7608 13.1942 13.5076 13.1942 13.3514 13.3504C13.1952 13.5066 13.1952 13.7599 13.3514 13.9161L14.218 14.7827ZM10.7514 11.3161C10.9076 11.4723 11.1608 11.4723 11.3171 11.3161C11.4733 11.1599 11.4733 10.9066 11.3171 10.7504L9.58372 9.01706C9.42751 8.86085 9.17425 8.86085 9.01804 9.01706C8.86183 9.17327 8.86183 9.42653 9.01804 9.58274L10.7514 11.3161ZM6.41804 6.98274C6.57425 7.13895 6.82751 7.13895 6.98372 6.98274C7.13993 6.82653 7.13993 6.57327 6.98372 6.41706L5.25039 4.68373C5.09418 4.52752 4.84091 4.52752 4.6847 4.68373C4.52849 4.83994 4.52849 5.0932 4.6847 5.24941L6.41804 6.98274ZM2.0847 2.64941C2.24091 2.80562 2.49418 2.80562 2.65039 2.64941C2.8066 2.4932 2.8066 2.23994 2.65039 2.08373L1.78372 1.21706C1.62751 1.06085 1.37425 1.06085 1.21804 1.21706C1.06183 1.37327 1.06183 1.62653 1.21804 1.78274L2.0847 2.64941Z" fill="black"/>
</g>
<defs>
<clipPath id="clip0_241_9560">
<rect width="16" height="16" fill="white"/>
</clipPath>
</defs>
</svg>
