<svg width="16" height="16" viewBox="0 0 16 16" fill="none" xmlns="http://www.w3.org/2000/svg">
<g id="draw-geometry-mirror">
<path id="Union" fill-rule="evenodd" clip-rule="evenodd" d="M7.12834 13.6767C8.37947 14.4592 9.95776 13.7642 10.3229 12.4447L9.60071 11.7226L9.60066 11.8642C9.60025 12.9154 8.44378 13.5558 7.55255 12.9984C6.96789 12.6327 6.75676 11.8827 7.06484 11.2657L7.56037 10.2734L7.7574 9.87928L7.16086 9.28273L7.14157 9.32136L6.84508 9.91511L6.53417 10.537C5.61516 12.3751 3.0461 12.5175 1.92967 10.7921C0.876949 9.16515 1.86504 6.99502 3.78335 6.72084L4.49697 6.61884L3.7899 5.91177L3.67016 5.92889C1.17391 6.28567 -0.111863 9.1096 1.25801 11.2267C2.38027 12.9611 4.63051 13.2452 6.1476 12.182C6.238 12.7803 6.58055 13.3341 7.12834 13.6767ZM11.2645 7.06519L9.87911 7.75835L9.28246 7.16169L9.32096 7.14244L10.5365 6.53473C12.3746 5.61575 12.5169 3.04678 10.7916 1.93038C9.16466 0.877667 6.99453 1.86583 6.72047 3.78416L6.61852 4.49775L5.91142 3.79065L5.92851 3.67101C6.28515 1.17472 9.10909 -0.111155 11.2262 1.25873C12.9603 2.3808 13.2445 4.63051 12.1819 6.14756C12.7802 6.23805 13.334 6.58075 13.6765 7.12876C14.4586 8.38012 13.763 9.95812 12.4434 10.3226L11.7209 9.60014L11.8632 9.60015C12.9143 9.6002 13.5552 8.44407 12.9981 7.55274C12.6324 6.96756 11.8817 6.75642 11.2645 7.06519ZM14.7839 14.2183C14.9401 14.3745 14.9401 14.6277 14.7839 14.7839C14.6276 14.9401 14.3744 14.9401 14.2182 14.7839L13.5682 14.1339C13.412 13.9777 13.412 13.7245 13.5682 13.5683C13.7244 13.412 13.9776 13.412 14.1339 13.5683L14.7839 14.2183ZM12.8339 12.2683C12.9901 12.4245 12.9901 12.6777 12.8339 12.8339C12.6776 12.9901 12.4244 12.9901 12.2682 12.8339L10.9682 11.5339C10.812 11.3777 10.812 11.1245 10.9682 10.9683C11.1244 10.812 11.3776 10.812 11.5339 10.9683L12.8339 12.2683ZM10.2339 9.66825C10.3901 9.82446 10.3901 10.0777 10.2339 10.2339C10.0776 10.3901 9.82438 10.3901 9.66817 10.2339L8.36817 8.93394C8.21196 8.77773 8.21196 8.52446 8.36817 8.36825C8.52437 8.21204 8.77764 8.21204 8.93385 8.36825L10.2339 9.66825ZM7.63385 7.06825C7.79006 7.22446 7.79006 7.47773 7.63385 7.63394C7.47764 7.79015 7.22437 7.79015 7.06816 7.63394L5.76816 6.33394C5.61195 6.17773 5.61195 5.92446 5.76816 5.76825C5.92437 5.61204 6.17764 5.61204 6.33385 5.76825L7.63385 7.06825ZM5.03385 4.46825C5.19006 4.62446 5.19006 4.87773 5.03385 5.03394C4.87764 5.19015 4.62437 5.19015 4.46816 5.03394L3.16816 3.73394C3.01195 3.57773 3.01195 3.32446 3.16816 3.16825C3.32437 3.01204 3.57764 3.01204 3.73385 3.16825L5.03385 4.46825ZM2.43385 1.86825C2.59006 2.02446 2.59006 2.27773 2.43385 2.43394C2.27764 2.59015 2.02437 2.59015 1.86816 2.43394L1.21816 1.78394C1.06195 1.62773 1.06195 1.37446 1.21816 1.21825C1.37437 1.06204 1.62764 1.06204 1.78385 1.21825L2.43385 1.86825Z" fill="black"/>
</g>
</svg>
