<svg width="16" height="16" viewBox="0 0 16 16" fill="none" xmlns="http://www.w3.org/2000/svg">
<g id="draw-ellipse-segment">
<path id="Union" fill-rule="evenodd" clip-rule="evenodd" d="M7 9V8L7 2.08332C5.81207 2.28284 4.67396 2.84076 3.75736 3.75736C1.41421 6.1005 1.41421 9.89949 3.75736 12.2426C6.1005 14.5858 9.89949 14.5858 12.2426 12.2426C13.1592 11.326 13.7172 10.1879 13.9167 9L8 9H7ZM14.9286 9C14.7212 10.4452 14.0616 11.8379 12.9497 12.9497C10.2161 15.6834 5.78392 15.6834 3.05025 12.9497C0.316583 10.2161 0.316583 5.78392 3.05025 3.05025C4.16206 1.93844 5.55482 1.27882 7 1.07137C7.33149 1.02379 7.66575 1 8 1V2L8 7V8H9L14 8H15C15 8.33425 14.9762 8.6685 14.9286 9Z" fill="black"/>
</g>
</svg>
