<svg width="16" height="16" viewBox="0 0 16 16" fill="none" xmlns="http://www.w3.org/2000/svg">
<g id="edit-cut">
<path id="Union" fill-rule="evenodd" clip-rule="evenodd" d="M12.8499 2.51038C13.054 3.39666 12.8571 4.34313 12.2854 5.08222L9.46601 8.72675L8.73452 7.82314L12.8499 2.51038ZM7.9999 9.29966L5.91978 11.8692C5.97214 12.0707 6 12.282 6 12.4999C6 13.8806 4.88071 14.9999 3.5 14.9999C2.11929 14.9999 1 13.8806 1 12.4999C1 11.1192 2.11929 9.99988 3.5 9.99988C4.09032 9.99988 4.63285 10.2045 5.06054 10.5466L5.88738 9.52526L2.90728 5.67295C1.95942 4.44767 1.79723 2.78774 2.48997 1.40215C2.68377 1.01454 3.21591 0.962372 3.48129 1.30497L7.99995 7.13847L12.5351 1.28383C12.7929 0.951028 13.3098 1.0017 13.4981 1.37824C14.1981 2.77844 14.0342 4.45589 13.0763 5.69409L10.1125 9.52536L10.9393 10.5467C11.3671 10.2045 11.9096 9.99988 12.5 9.99988C13.8807 9.99988 15 11.1192 15 12.4999C15 13.8806 13.8807 14.9999 12.5 14.9999C11.1193 14.9999 10 13.8806 10 12.4999C10 12.2821 10.0278 12.0708 10.0802 11.8694L7.9999 9.29966ZM3.14613 2.50526L7.26534 7.82308L6.53387 8.72665L3.69824 5.06108C3.13019 4.32678 2.93737 3.38489 3.14613 2.50526ZM4.7 12.4999C4.7 13.1626 4.16274 13.6999 3.5 13.6999C2.83726 13.6999 2.3 13.1626 2.3 12.4999C2.3 11.8371 2.83726 11.2999 3.5 11.2999C4.16274 11.2999 4.7 11.8371 4.7 12.4999ZM13.7 12.4999C13.7 13.1626 13.1627 13.6999 12.5 13.6999C11.8373 13.6999 11.3 13.1626 11.3 12.4999C11.3 11.8371 11.8373 11.2999 12.5 11.2999C13.1627 11.2999 13.7 11.8371 13.7 12.4999Z" fill="black"/>
</g>
</svg>
