<svg width="16" height="16" viewBox="0 0 16 16" fill="none" xmlns="http://www.w3.org/2000/svg">
<g id="edit-paste-size-separately">
<path id="Union" fill-rule="evenodd" clip-rule="evenodd" d="M7.00098 1C6.44869 1 6.00098 1.44772 6.00098 2V4C6.00098 4.55228 6.44869 5 7.00098 5H11.001C11.5533 5 12.001 4.55228 12.001 4V2C12.001 1.44772 11.5533 1 11.001 1H7.00098ZM7.00098 2H11.001V4H7.00098V2ZM4.00098 2C3.44869 2 3.00098 2.44772 3.00098 3V14C3.00098 14.5523 3.44869 15 4.00098 15H6.50098C6.77712 15 7.00098 14.7761 7.00098 14.5C7.00098 14.2239 6.77712 14 6.50098 14H4.00098V3L5.00098 3C5.27712 3 5.50098 2.77614 5.50098 2.5C5.50098 2.22386 5.27712 2 5.00098 2H4.00098ZM13.001 2C12.7248 2 12.501 2.22386 12.501 2.5C12.501 2.77614 12.7248 3 13.001 3H14.001V6.5C14.001 6.77614 14.2248 7 14.501 7C14.7771 7 15.001 6.77614 15.001 6.5V3C15.001 2.44772 14.5533 2 14.001 2H13.001ZM9.00049 9H8.50042L8.50049 9.50007L8.50098 13.0001C8.50101 13.2762 8.7249 13.5 9.00105 13.5C9.27719 13.5 9.50101 13.2761 9.50098 12.9999L9.50066 10.7068L13.7939 15H11.501C11.2248 15 11.001 15.2239 11.001 15.5C11.001 15.7761 11.2248 16 11.501 16H15.0005H15.5004L15.5005 15.5001L15.501 12.0001C15.501 11.7239 15.2772 11.5 15.001 11.5C14.7249 11.5 14.501 11.7238 14.501 11.9999L14.5007 14.2926L10.2081 10H12.501C12.7771 10 13.001 9.77614 13.001 9.5C13.001 9.22386 12.7771 9 12.501 9H9.00049ZM1.50098 3C0.948692 3 0.500977 3.44772 0.500977 4V13C0.500977 13.5523 0.948692 14 1.50098 14H2.00098C2.27712 14 2.50098 13.7761 2.50098 13.5C2.50098 13.2239 2.27712 13 2.00098 13H1.50098V4H2.00098C2.27712 4 2.50098 3.77614 2.50098 3.5C2.50098 3.22386 2.27712 3 2.00098 3H1.50098Z" fill="black"/>
</g>
</svg>
