<svg width="16" height="16" viewBox="0 0 16 16" fill="none" xmlns="http://www.w3.org/2000/svg">
<g id="edit-undo">
<path id="Union" fill-rule="evenodd" clip-rule="evenodd" d="M6.53044 4.53033C6.82334 4.23744 6.82334 3.76256 6.53044 3.46967C6.23755 3.17678 5.76268 3.17678 5.46978 3.46967L2.46978 6.46967L1.93945 7L2.46978 7.53033L5.46978 10.5303C5.76268 10.8232 6.23755 10.8232 6.53044 10.5303C6.82334 10.2374 6.82334 9.76256 6.53044 9.46967L4.81077 7.75H10.0001C11.2428 7.75 12.2501 8.75736 12.2501 10C12.2501 11.2426 11.2428 12.25 10.0001 12.25H9.00011C8.5859 12.25 8.25011 12.5858 8.25011 13C8.25011 13.4142 8.5859 13.75 9.00011 13.75H10.0001C12.0712 13.75 13.7501 12.0711 13.7501 10C13.7501 7.92893 12.0712 6.25 10.0001 6.25H4.81077L6.53044 4.53033Z" fill="black"/>
</g>
</svg>
