<svg width="16" height="16" viewBox="0 0 16 16" fill="none" xmlns="http://www.w3.org/2000/svg">
<g id="edit-select-same-fill" clip-path="url(#clip0_241_9501)">
<rect id="neutral" opacity="0.3" x="4" y="4" width="8" height="8" rx="1" fill="black"/>
<path id="Union" fill-rule="evenodd" clip-rule="evenodd" d="M0.5 0C0.223858 0 0 0.223858 0 0.5V1.5C0 1.77614 0.223858 2 0.5 2H1.5C1.77614 2 2 1.77614 2 1.5V0.5C2 0.223858 1.77614 0 1.5 0H0.5ZM14.5 0C14.2239 0 14 0.223858 14 0.5V1.5C14 1.77614 14.2239 2 14.5 2H15.5C15.7761 2 16 1.77614 16 1.5V0.5C16 0.223858 15.7761 0 15.5 0H14.5ZM14 14.5C14 14.2239 14.2239 14 14.5 14H15.5C15.7761 14 16 14.2239 16 14.5V15.5C16 15.7761 15.7761 16 15.5 16H14.5C14.2239 16 14 15.7761 14 15.5V14.5ZM0.5 14C0.223858 14 0 14.2239 0 14.5V15.5C0 15.7761 0.223858 16 0.5 16H1.5C1.77614 16 2 15.7761 2 15.5V14.5C2 14.2239 1.77614 14 1.5 14H0.5ZM6.375 1C6.09886 1 5.875 1.22386 5.875 1.5C5.875 1.77614 6.09886 2 6.375 2H9.625C9.90114 2 10.125 1.77614 10.125 1.5C10.125 1.22386 9.90114 1 9.625 1H6.375ZM2 6.375C2 6.09886 1.77614 5.875 1.5 5.875C1.22386 5.875 1 6.09886 1 6.375V9.625C1 9.90114 1.22386 10.125 1.5 10.125C1.77614 10.125 2 9.90114 2 9.625V6.375ZM15 6.375C15 6.09886 14.7761 5.875 14.5 5.875C14.2239 5.875 14 6.09886 14 6.375V9.625C14 9.90114 14.2239 10.125 14.5 10.125C14.7761 10.125 15 9.90114 15 9.625V6.375ZM6.375 14C6.09886 14 5.875 14.2239 5.875 14.5C5.875 14.7761 6.09886 15 6.375 15H9.625C9.90114 15 10.125 14.7761 10.125 14.5C10.125 14.2239 9.90114 14 9.625 14H6.375ZM5 5H11V11H5V5ZM4 5C4 4.44772 4.44772 4 5 4H11C11.5523 4 12 4.44772 12 5V11C12 11.5523 11.5523 12 11 12H5C4.44772 12 4 11.5523 4 11V5Z" fill="black"/>
</g>
<defs>
<clipPath id="clip0_241_9501">
<rect width="16" height="16" fill="white"/>
</clipPath>
</defs>
</svg>
