<svg width="16" height="16" viewBox="0 0 16 16" fill="none" xmlns="http://www.w3.org/2000/svg">
<g id="edit-clone-link">
<path id="Union" fill-rule="evenodd" clip-rule="evenodd" d="M11 2H2L2 11H4V5C4 4.44772 4.44772 4 5 4H11V2ZM12 4H14C14.5523 4 15 4.44772 15 5V14C15 14.5523 14.5523 15 14 15H5C4.44772 15 4 14.5523 4 14V12H2C1.44771 12 1 11.5523 1 11V2C1 1.44771 1.44772 1 2 1H11C11.5523 1 12 1.44772 12 2V4ZM5 5H14V14H5L5 5Z" fill="black"/>
<g id=".accessory / unlock">
<path id="Union_2" fill-rule="evenodd" clip-rule="evenodd" d="M9.60783 7.23144C10.1266 7.33522 10.5001 7.79078 10.5001 8.31987L10.5001 9.50007H7C6.72386 9.50007 6.5 9.72393 6.5 10.0001V12.5001C6.5 12.7762 6.72386 13.0001 7 13.0001H12C12.2761 13.0001 12.5 12.7762 12.5 12.5001V10.0001C12.5 9.72393 12.2761 9.50007 12 9.50007H11.5001L11.5001 8.31989C11.5001 7.31412 10.7902 6.44815 9.80398 6.25087L9.69453 6.22897C8.82611 6.05526 7.94888 6.48428 7.55282 7.2764C7.42933 7.52339 7.52944 7.82373 7.77643 7.94722C8.02342 8.07072 8.32375 7.97061 8.44725 7.72362C8.64163 7.33485 9.07217 7.12429 9.49838 7.20955L9.60783 7.23144Z" fill="black"/>
</g>
</g>
</svg>
