<svg width="16" height="16" viewBox="0 0 16 16" fill="none" xmlns="http://www.w3.org/2000/svg">
<g id="edit-paste-width-separately" clip-path="url(#clip0_241_9543)">
<path id="Union" fill-rule="evenodd" clip-rule="evenodd" d="M7.00098 1C6.44869 1 6.00098 1.44772 6.00098 2V4C6.00098 4.55228 6.44869 5 7.00098 5H11.001C11.5533 5 12.001 4.55228 12.001 4V2C12.001 1.44772 11.5533 1 11.001 1H7.00098ZM7.00098 2H11.001V4H7.00098V2ZM4.00098 2C3.44869 2 3.00098 2.44772 3.00098 3V14C3.00098 14.5523 3.44869 15 4.00098 15H7.50098C7.77712 15 8.00098 14.7761 8.00098 14.5C8.00098 14.2239 7.77712 14 7.50098 14H4.00098V3L5.00098 3C5.27712 3 5.50098 2.77614 5.50098 2.5C5.50098 2.22386 5.27712 2 5.00098 2H4.00098ZM13.001 2C12.7248 2 12.501 2.22386 12.501 2.5C12.501 2.77614 12.7248 3 13.001 3H14.001V5.5C14.001 5.77614 14.2248 6 14.501 6C14.7771 6 15.001 5.77614 15.001 5.5V3C15.001 2.44772 14.5533 2 14.001 2H13.001ZM10.8555 12.6464L9.70338 11.4943L14.2965 11.4983L13.1484 12.6464C12.9531 12.8417 12.9531 13.1583 13.1484 13.3536C13.3437 13.5488 13.6602 13.5488 13.8555 13.3536L15.8555 11.3536L16.2091 11L15.8692 10.6601C15.8602 10.6504 15.8508 10.641 15.8411 10.632L13.8555 8.64645C13.6602 8.45118 13.3437 8.45118 13.1484 8.64645C12.9531 8.84171 12.9531 9.15829 13.1484 9.35355L14.2931 10.4983L9.71474 10.4943L10.8555 9.35355C11.0508 9.15829 11.0508 8.84171 10.8555 8.64645C10.6602 8.45118 10.3437 8.45118 10.1484 8.64645L8.1484 10.6464L7.79485 11L8.1484 11.3536L10.1484 13.3536C10.3437 13.5488 10.6602 13.5488 10.8555 13.3536C11.0508 13.1583 11.0508 12.8417 10.8555 12.6464ZM1.50098 3C0.948692 3 0.500977 3.44772 0.500977 4V13C0.500977 13.5523 0.948692 14 1.50098 14H2.00098C2.27712 14 2.50098 13.7761 2.50098 13.5C2.50098 13.2239 2.27712 13 2.00098 13H1.50098V4H2.00098C2.27712 4 2.50098 3.77614 2.50098 3.5C2.50098 3.22386 2.27712 3 2.00098 3H1.50098Z" fill="black"/>
</g>
<defs>
<clipPath id="clip0_241_9543">
<rect width="16" height="16" fill="white"/>
</clipPath>
</defs>
</svg>
