<svg width="16" height="16" viewBox="0 0 16 16" fill="none" xmlns="http://www.w3.org/2000/svg">
<g id="edit-select-same-object-type" clip-path="url(#clip0_241_9499)">
<path id="Union" fill-rule="evenodd" clip-rule="evenodd" d="M0.5 0C0.223858 0 0 0.223858 0 0.5V1.5C0 1.77614 0.223858 2 0.5 2H1.5C1.77614 2 2 1.77614 2 1.5V0.5C2 0.223858 1.77614 0 1.5 0H0.5ZM14.5 0C14.2239 0 14 0.223858 14 0.5V1.5C14 1.77614 14.2239 2 14.5 2H15.5C15.7761 2 16 1.77614 16 1.5V0.5C16 0.223858 15.7761 0 15.5 0H14.5ZM14 14.5C14 14.2239 14.2239 14 14.5 14H15.5C15.7761 14 16 14.2239 16 14.5V15.5C16 15.7761 15.7761 16 15.5 16H14.5C14.2239 16 14 15.7761 14 15.5V14.5ZM0.5 14C0.223858 14 0 14.2239 0 14.5V15.5C0 15.7761 0.223858 16 0.5 16H1.5C1.77614 16 2 15.7761 2 15.5V14.5C2 14.2239 1.77614 14 1.5 14H0.5ZM6.375 1C6.09886 1 5.875 1.22386 5.875 1.5C5.875 1.77614 6.09886 2 6.375 2H9.625C9.90114 2 10.125 1.77614 10.125 1.5C10.125 1.22386 9.90114 1 9.625 1H6.375ZM2 6.375C2 6.09886 1.77614 5.875 1.5 5.875C1.22386 5.875 1 6.09886 1 6.375V9.625C1 9.90114 1.22386 10.125 1.5 10.125C1.77614 10.125 2 9.90114 2 9.625V6.375ZM15 6.375C15 6.09886 14.7761 5.875 14.5 5.875C14.2239 5.875 14 6.09886 14 6.375V9.625C14 9.90114 14.2239 10.125 14.5 10.125C14.7761 10.125 15 9.90114 15 9.625V6.375ZM6.375 14C6.09886 14 5.875 14.2239 5.875 14.5C5.875 14.7761 6.09886 15 6.375 15H9.625C9.90114 15 10.125 14.7761 10.125 14.5C10.125 14.2239 9.90114 14 9.625 14H6.375ZM7.46804 5.46449L7.62417 5.03465L7.92996 4.19281L7.94629 4.14786C7.96452 4.09768 8.03548 4.09768 8.05371 4.14786L8.07004 4.19281L8.37583 5.03465L8.53196 5.46449L8.95549 6.63046C8.96345 6.65238 8.98394 6.66726 9.00724 6.66806L10.247 6.71056L10.7041 6.72622L11.5992 6.7569L11.647 6.75854C11.7004 6.76037 11.7223 6.82786 11.6802 6.8607L11.6425 6.89012L10.9364 7.44109L10.5758 7.72241L9.59777 8.48552C9.57938 8.49986 9.57156 8.52394 9.578 8.54636L9.9207 9.73859L10.047 10.1781L10.2945 11.0389L10.3077 11.0849C10.3224 11.1362 10.265 11.1779 10.2208 11.148L10.1811 11.1212L9.43894 10.6199L9.05997 10.3639L8.03198 9.6696C8.01266 9.65655 7.98734 9.65655 7.96802 9.6696L6.94003 10.3639L6.56106 10.6199L5.81885 11.1212L5.77922 11.148C5.73498 11.1779 5.67757 11.1362 5.69232 11.0849L5.70553 11.0389L5.95296 10.1781L6.0793 9.73859L6.422 8.54635C6.42844 8.52394 6.42062 8.49986 6.40223 8.48552L5.4242 7.72241L5.06365 7.44109L4.35751 6.89012L4.3198 6.8607C4.27771 6.82786 4.29964 6.76037 4.353 6.75854L4.40079 6.7569L5.29592 6.72622L5.75298 6.71056L6.99276 6.66806C7.01606 6.66726 7.03655 6.65238 7.04451 6.63046L7.46804 5.46449ZM8.99362 3.80645L9.67797 5.69046L11.6813 5.75913C12.6683 5.79296 13.074 7.04156 12.2954 7.64911L10.715 8.88216L11.2688 10.8086C11.5416 11.7578 10.4795 12.5295 9.66105 11.9767L8 10.8547L6.33895 11.9767C5.52052 12.5295 4.45839 11.7578 4.73123 10.8086L5.28498 8.88216L3.70465 7.64911C2.926 7.04157 3.33167 5.79296 4.31874 5.75913L6.32202 5.69046L7.00638 3.80645C7.34357 2.87816 8.65643 2.87815 8.99362 3.80645Z" fill="black"/>
</g>
<defs>
<clipPath id="clip0_241_9499">
<rect width="16" height="16" fill="white"/>
</clipPath>
</defs>
</svg>
