<svg width="16" height="16" viewBox="0 0 16 16" fill="none" xmlns="http://www.w3.org/2000/svg">
<g id="edit-paste-height-separately">
<path id="Union" fill-rule="evenodd" clip-rule="evenodd" d="M7.00098 1C6.44869 1 6.00098 1.44772 6.00098 2V4C6.00098 4.55228 6.44869 5 7.00098 5H11.001C11.5533 5 12.001 4.55228 12.001 4V2C12.001 1.44772 11.5533 1 11.001 1H7.00098ZM7.00098 2H11.001V4H7.00098V2ZM4.00098 2C3.44869 2 3.00098 2.44772 3.00098 3V14C3.00098 14.5523 3.44869 15 4.00098 15H7.50098C7.77712 15 8.00098 14.7761 8.00098 14.5C8.00098 14.2239 7.77712 14 7.50098 14H4.00098V3L5.00098 3C5.27712 3 5.50098 2.77614 5.50098 2.5C5.50098 2.22386 5.27712 2 5.00098 2H4.00098ZM13.001 2C12.7248 2 12.501 2.22386 12.501 2.5C12.501 2.77614 12.7248 3 13.001 3H14.001V5.5C14.001 5.77614 14.2248 6 14.501 6C14.7771 6 15.001 5.77614 15.001 5.5V3C15.001 2.44772 14.5533 2 14.001 2H13.001ZM0.500977 4C0.500977 3.44772 0.948692 3 1.50098 3H2.00098C2.27712 3 2.50098 3.22386 2.50098 3.5C2.50098 3.77614 2.27712 4 2.00098 4H1.50098V13H2.00098C2.27712 13 2.50098 13.2239 2.50098 13.5C2.50098 13.7761 2.27712 14 2.00098 14H1.50098C0.948692 14 0.500977 13.5523 0.500977 13V4ZM11.4965 13.2875L11.5005 8.70856L10.3555 9.85355C10.1602 10.0488 9.84366 10.0488 9.6484 9.85355C9.45314 9.65829 9.45314 9.34171 9.6484 9.14645L11.6362 7.15868C11.6439 7.15039 11.6519 7.14237 11.6602 7.13463L12.002 6.79289L12.3555 7.14645L14.3555 9.14645C14.5508 9.34171 14.5508 9.65829 14.3555 9.85355C14.1602 10.0488 13.8437 10.0488 13.6484 9.85355L12.5005 8.70565L12.4965 13.2983L13.6484 12.1464C13.8437 11.9512 14.1602 11.9512 14.3555 12.1464C14.5508 12.3417 14.5508 12.6583 14.3555 12.8536L12.3555 14.8536L12.002 15.2071L11.6484 14.8536L9.6484 12.8536C9.45314 12.6583 9.45314 12.3417 9.6484 12.1464C9.84366 11.9512 10.1602 11.9512 10.3555 12.1464L11.4965 13.2875Z" fill="black"/>
</g>
</svg>
