<svg width="16" height="16" viewBox="0 0 16 16" fill="none" xmlns="http://www.w3.org/2000/svg">
<g id="edit-paste-height">
<path id="Union" fill-rule="evenodd" clip-rule="evenodd" d="M5.00098 2C5.00098 1.44772 5.44869 1 6.00098 1H10.001C10.5533 1 11.001 1.44772 11.001 2V4C11.001 4.55228 10.5533 5 10.001 5H6.00098C5.44869 5 5.00098 4.55228 5.00098 4V2ZM10.001 2H6.00098V4H10.001V2ZM2.00098 3C2.00098 2.44772 2.44869 2 3.00098 2H4.00098C4.27712 2 4.50098 2.22386 4.50098 2.5C4.50098 2.77614 4.27712 3 4.00098 3L3.00098 3V14H6.50098C6.77712 14 7.00098 14.2239 7.00098 14.5C7.00098 14.7761 6.77712 15 6.50098 15H3.00098C2.44869 15 2.00098 14.5523 2.00098 14V3ZM11.501 2.5C11.501 2.22386 11.7248 2 12.001 2H13.001C13.5533 2 14.001 2.44772 14.001 3V5.5C14.001 5.77614 13.7771 6 13.501 6C13.2248 6 13.001 5.77614 13.001 5.5V3H12.001C11.7248 3 11.501 2.77614 11.501 2.5ZM10.4965 13.2875L10.5005 8.70856L9.35551 9.85355C9.16024 10.0488 8.84366 10.0488 8.6484 9.85355C8.45314 9.65829 8.45314 9.34171 8.6484 9.14645L10.6362 7.15868C10.6439 7.15039 10.6519 7.14237 10.6602 7.13463L11.002 6.79289L11.3555 7.14645L13.3555 9.14645C13.5508 9.34171 13.5508 9.65829 13.3555 9.85355C13.1602 10.0488 12.8437 10.0488 12.6484 9.85355L11.5005 8.70565L11.4965 13.2983L12.6484 12.1464C12.8437 11.9512 13.1602 11.9512 13.3555 12.1464C13.5508 12.3417 13.5508 12.6583 13.3555 12.8536L11.3555 14.8536L11.002 15.2071L10.6484 14.8536L8.6484 12.8536C8.45314 12.6583 8.45314 12.3417 8.6484 12.1464C8.84366 11.9512 9.16024 11.9512 9.35551 12.1464L10.4965 13.2875Z" fill="black"/>
</g>
</svg>
