<svg width="16" height="16" viewBox="0 0 16 16" fill="none" xmlns="http://www.w3.org/2000/svg">
<g id="edit-paste-width">
<path id="Union" fill-rule="evenodd" clip-rule="evenodd" d="M5.00098 2C5.00098 1.44772 5.44869 1 6.00098 1H10.001C10.5533 1 11.001 1.44772 11.001 2V4C11.001 4.55228 10.5533 5 10.001 5H6.00098C5.44869 5 5.00098 4.55228 5.00098 4V2ZM10.001 2H6.00098V4H10.001V2ZM2.00098 3C2.00098 2.44772 2.44869 2 3.00098 2H4.00098C4.27712 2 4.50098 2.22386 4.50098 2.5C4.50098 2.77614 4.27712 3 4.00098 3L3.00098 3V14H6.50098C6.77712 14 7.00098 14.2239 7.00098 14.5C7.00098 14.7761 6.77712 15 6.50098 15H3.00098C2.44869 15 2.00098 14.5523 2.00098 14V3ZM11.501 2.5C11.501 2.22386 11.7248 2 12.001 2H13.001C13.5533 2 14.001 2.44772 14.001 3V5.5C14.001 5.77614 13.7771 6 13.501 6C13.2248 6 13.001 5.77614 13.001 5.5V3H12.001C11.7248 3 11.501 2.77614 11.501 2.5ZM8.70362 11.4946L9.85551 12.6464C10.0508 12.8417 10.0508 13.1583 9.85551 13.3536C9.66024 13.5488 9.34366 13.5488 9.1484 13.3536L7.1484 11.3536L6.79485 11L7.1484 10.6464L9.1484 8.64645C9.34366 8.45118 9.66024 8.45118 9.85551 8.64645C10.0508 8.84171 10.0508 9.15829 9.85551 9.35355L8.71449 10.4946L13.2934 10.4985L12.1484 9.35355C11.9531 9.15829 11.9531 8.84171 12.1484 8.64645C12.3437 8.45118 12.6602 8.45118 12.8555 8.64645L14.8447 10.6357C14.852 10.6425 14.859 10.6495 14.8658 10.6567L15.2091 11L14.8555 11.3536L12.8555 13.3536C12.6602 13.5488 12.3437 13.5488 12.1484 13.3536C11.9531 13.1583 11.9531 12.8417 12.1484 12.6464L13.2963 11.4985L8.70362 11.4946Z" fill="black"/>
</g>
</svg>
