<svg width="16" height="16" viewBox="0 0 16 16" fill="none" xmlns="http://www.w3.org/2000/svg">
<g id="edit-redo">
<path id="Union" fill-rule="evenodd" clip-rule="evenodd" d="M11.1893 7.75L9.46967 9.46967C9.17678 9.76256 9.17678 10.2374 9.46967 10.5303C9.76256 10.8232 10.2374 10.8232 10.5303 10.5303L13.5303 7.53033L14.0607 7L13.5303 6.46967L10.5303 3.46967C10.2374 3.17678 9.76256 3.17678 9.46967 3.46967C9.17678 3.76256 9.17678 4.23744 9.46967 4.53033L11.1893 6.25H6C3.92893 6.25 2.25 7.92893 2.25 10C2.25 12.0711 3.92893 13.75 6 13.75H7C7.41421 13.75 7.75 13.4142 7.75 13C7.75 12.5858 7.41421 12.25 7 12.25H6C4.75736 12.25 3.75 11.2426 3.75 10C3.75 8.75736 4.75736 7.75 6 7.75H11.1893Z" fill="black"/>
</g>
</svg>
