<svg width="16" height="16" viewBox="0 0 16 16" fill="none" xmlns="http://www.w3.org/2000/svg">
<g id="edit-paste-in-place">
<path id="Union" fill-rule="evenodd" clip-rule="evenodd" d="M6.00098 1C5.44869 1 5.00098 1.44772 5.00098 2V4C5.00098 4.55228 5.44869 5 6.00098 5H10.001C10.5533 5 11.001 4.55228 11.001 4V2C11.001 1.44772 10.5533 1 10.001 1H6.00098ZM6.00098 2H10.001V4H6.00098V2ZM3.00098 2C2.44869 2 2.00098 2.44772 2.00098 3V14C2.00098 14.5523 2.44869 15 3.00098 15H5.50098C5.77712 15 6.00098 14.7761 6.00098 14.5C6.00098 14.2239 5.77712 14 5.50098 14H3.00098V3L4.00098 3C4.27712 3 4.50098 2.77614 4.50098 2.5C4.50098 2.22386 4.27712 2 4.00098 2H3.00098ZM12.001 2C11.7248 2 11.501 2.22386 11.501 2.5C11.501 2.77614 11.7248 3 12.001 3H13.001V6.5C13.001 6.77614 13.2248 7 13.501 7C13.7771 7 14.001 6.77614 14.001 6.5V3C14.001 2.44772 13.5533 2 13.001 2H12.001ZM11.001 7.5C11.001 7.22386 10.7771 7 10.501 7C10.2248 7 10.001 7.22386 10.001 7.5V8.03531C8.46828 8.2541 7.25571 9.46587 7.03571 10.9982L6.5011 10.998C6.22496 10.998 6.00104 11.2218 6.00098 11.4979C6.00091 11.7741 6.22471 11.998 6.50085 11.998L7.03518 11.9982C7.25379 13.5322 8.46706 14.7457 10.001 14.9647V15.5C10.001 15.7761 10.2248 16 10.501 16C10.7771 16 11.001 15.7761 11.001 15.5V14.9644C12.5334 14.7448 13.7454 13.5325 13.9646 11.9999L14.5009 12C14.777 12.0001 15.0009 11.7763 15.001 11.5001C15.001 11.224 14.7772 11.0001 14.5011 11L13.9645 10.9999C13.7453 9.46741 12.5333 8.25521 11.001 8.03558V7.5ZM10.001 9.04981C9.02147 9.24823 8.24974 10.0193 8.05033 10.9984L10.001 10.9989V9.04981ZM8.04969 11.9984C8.24809 12.9791 9.02042 13.7516 10.001 13.9502V11.9989L8.04969 11.9984ZM11.001 13.9498C11.9802 13.7506 12.7514 12.979 12.9501 11.9996L11.001 11.9991V13.9498ZM12.9499 10.9996L11.001 10.9991V9.05021C11.98 9.24934 12.751 10.0206 12.9499 10.9996Z" fill="black"/>
</g>
</svg>
