<svg width="16" height="16" viewBox="0 0 16 16" fill="none" xmlns="http://www.w3.org/2000/svg">
<g id="edit">
<path id="Union" fill-rule="evenodd" clip-rule="evenodd" d="M1.21246 13.9376L1 14.9999L2.0623 14.7875L6 13.9999L13 6.99994L13.7071 6.29284L14.5858 5.41416C15.3668 4.63311 15.3668 3.36678 14.5858 2.58573L13.4142 1.41416C13.402 1.40195 13.3897 1.38994 13.3773 1.37812C13.2902 1.29536 13.1975 1.22195 13.1005 1.15787C12.546 0.791758 11.8493 0.730738 11.2474 0.974815C11.0066 1.07245 10.781 1.21889 10.5858 1.41415L9.70711 2.29284L9 2.99994L2 9.99994L1.21246 13.9376ZM9.70711 3.70705L3.31066 10.1035L5.89645 12.6893L12.2929 6.29284L9.70711 3.70705ZM13 5.58573L13.8787 4.70705C14.2692 4.31652 14.2692 3.68336 13.8787 3.29284L12.7071 2.12126C12.6583 2.07245 12.6057 2.02973 12.5502 1.99312C12.1621 1.73684 11.6346 1.77955 11.2929 2.12126L10.4142 2.99994L13 5.58573ZM2.27475 13.7252L4.97757 13.1846L2.81532 11.0224L2.27475 13.7252Z" fill="black"/>
</g>
</svg>
