<svg width="16" height="16" viewBox="0 0 16 16" fill="none" xmlns="http://www.w3.org/2000/svg">
<g id="edit-paste-size">
<path id="Union" fill-rule="evenodd" clip-rule="evenodd" d="M5.00098 2C5.00098 1.44772 5.44869 1 6.00098 1H10.001C10.5533 1 11.001 1.44772 11.001 2V4C11.001 4.55228 10.5533 5 10.001 5H6.00098C5.44869 5 5.00098 4.55228 5.00098 4V2ZM10.001 2H6.00098V4H10.001V2ZM2.00098 3C2.00098 2.44772 2.44869 2 3.00098 2H4.00098C4.27712 2 4.50098 2.22386 4.50098 2.5C4.50098 2.77614 4.27712 3 4.00098 3L3.00098 3V14H5.50098C5.77712 14 6.00098 14.2239 6.00098 14.5C6.00098 14.7761 5.77712 15 5.50098 15H3.00098C2.44869 15 2.00098 14.5523 2.00098 14V3ZM11.501 2.5C11.501 2.22386 11.7248 2 12.001 2H13.001C13.5533 2 14.001 2.44772 14.001 3V6.5C14.001 6.77614 13.7771 7 13.501 7C13.2248 7 13.001 6.77614 13.001 6.5V3H12.001C11.7248 3 11.501 2.77614 11.501 2.5ZM7.50042 9H8.00049H11.501C11.7771 9 12.001 9.22386 12.001 9.5C12.001 9.77614 11.7771 10 11.501 10H9.20808L13.5007 14.2926L13.501 11.9999C13.501 11.7238 13.7249 11.5 14.001 11.5C14.2772 11.5 14.501 11.7239 14.501 12.0001L14.5005 15.5001L14.5004 16H14.0005H10.501C10.2248 16 10.001 15.7761 10.001 15.5C10.001 15.2239 10.2248 15 10.501 15H12.7939L8.50066 10.7068L8.50098 12.9999C8.50102 13.2761 8.27719 13.5 8.00105 13.5C7.7249 13.5 7.50102 13.2762 7.50098 13.0001L7.50049 9.50007L7.50042 9Z" fill="black"/>
</g>
</svg>
