<svg width="16" height="16" viewBox="0 0 16 16" fill="none" xmlns="http://www.w3.org/2000/svg">
<g id="edit-select-none" clip-path="url(#clip0_241_9654)">
<path id="Union" fill-rule="evenodd" clip-rule="evenodd" d="M0.5 0C0.223858 0 0 0.223858 0 0.5V1.5C0 1.77614 0.223858 2 0.5 2H1.5C1.77614 2 2 1.77614 2 1.5V0.5C2 0.223858 1.77614 0 1.5 0H0.5ZM11.8536 4.14645C11.6583 3.95118 11.3417 3.95118 11.1464 4.14645L8 7.29289L4.85355 4.14645C4.65829 3.95118 4.34171 3.95118 4.14645 4.14645C3.95118 4.34171 3.95118 4.65829 4.14645 4.85355L7.29289 8L4.14645 11.1464C3.95118 11.3417 3.95118 11.6583 4.14645 11.8536C4.34171 12.0488 4.65829 12.0488 4.85355 11.8536L8 8.70711L11.1464 11.8536C11.3417 12.0488 11.6583 12.0488 11.8536 11.8536C12.0488 11.6583 12.0488 11.3417 11.8536 11.1464L8.70711 8L11.8536 4.85355C12.0488 4.65829 12.0488 4.34171 11.8536 4.14645ZM14 0.5C14 0.223858 14.2239 0 14.5 0H15.5C15.7761 0 16 0.223858 16 0.5V1.5C16 1.77614 15.7761 2 15.5 2H14.5C14.2239 2 14 1.77614 14 1.5V0.5ZM14.5 14C14.2239 14 14 14.2239 14 14.5V15.5C14 15.7761 14.2239 16 14.5 16H15.5C15.7761 16 16 15.7761 16 15.5V14.5C16 14.2239 15.7761 14 15.5 14H14.5ZM0 14.5C0 14.2239 0.223858 14 0.5 14H1.5C1.77614 14 2 14.2239 2 14.5V15.5C2 15.7761 1.77614 16 1.5 16H0.5C0.223858 16 0 15.7761 0 15.5V14.5ZM5.625 0.5C5.625 0.223858 5.84886 0 6.125 0H9.875C10.1511 0 10.375 0.223858 10.375 0.5C10.375 0.776142 10.1511 1 9.875 1H6.125C5.84886 1 5.625 0.776142 5.625 0.5ZM0.5 5.625C0.776142 5.625 1 5.84886 1 6.125V9.875C1 10.1511 0.776142 10.375 0.5 10.375C0.223858 10.375 0 10.1511 0 9.875V6.125C0 5.84886 0.223858 5.625 0.5 5.625ZM15.5 5.625C15.7761 5.625 16 5.84886 16 6.125V9.875C16 10.1511 15.7761 10.375 15.5 10.375C15.2239 10.375 15 10.1511 15 9.875V6.125C15 5.84886 15.2239 5.625 15.5 5.625ZM5.625 15.5C5.625 15.2239 5.84886 15 6.125 15H9.875C10.1511 15 10.375 15.2239 10.375 15.5C10.375 15.7761 10.1511 16 9.875 16H6.125C5.84886 16 5.625 15.7761 5.625 15.5Z" fill="black"/>
</g>
<defs>
<clipPath id="clip0_241_9654">
<rect width="16" height="16" fill="white"/>
</clipPath>
</defs>
</svg>
