<svg width="16" height="16" viewBox="0 0 16 16" fill="none" xmlns="http://www.w3.org/2000/svg">
<g id="edit-undo-history">
<path id="Union" fill-rule="evenodd" clip-rule="evenodd" d="M11 8C12.6569 8 14 6.65685 14 5C14 3.34315 12.6569 2 11 2C9.34315 2 8 3.34315 8 5C8 6.65685 9.34315 8 11 8ZM11 9C13.2091 9 15 7.20914 15 5C15 2.79086 13.2091 1 11 1C8.79086 1 7 2.79086 7 5C7 7.20914 8.79086 9 11 9ZM7.79963 7.4H3.44867L5.4244 5.42426C5.65872 5.18995 5.65872 4.81005 5.4244 4.57574C5.19009 4.34142 4.81019 4.34142 4.57588 4.57574L1.57588 7.57574L1.15161 8L1.57588 8.42426L4.57588 11.4243C4.81019 11.6586 5.19009 11.6586 5.4244 11.4243C5.65872 11.1899 5.65872 10.8101 5.4244 10.5757L3.44867 8.6H9.00014C9.09837 8.6 9.19522 8.6059 9.29036 8.61737C8.6996 8.33766 8.18832 7.9175 7.79963 7.4ZM10.1976 8.91959C10.9163 9.33419 11.4001 10.1106 11.4001 11C11.4001 12.3255 10.3256 13.4 9.00014 13.4H8.00014C7.66877 13.4 7.40014 13.6686 7.40014 14C7.40014 14.3314 7.66877 14.6 8.00014 14.6H9.00014C10.9884 14.6 12.6001 12.9882 12.6001 11C12.6001 10.2135 12.3479 9.48598 11.92 8.89378C11.6246 8.96331 11.3166 9.0001 11 9.0001C10.7252 9.0001 10.4568 8.97238 10.1976 8.91959ZM12 3C12 2.72386 11.7762 2.5 11.5 2.5C11.2239 2.5 11 2.72386 11 3V5H9.00003C8.72388 5 8.50003 5.22386 8.50003 5.5C8.50003 5.77614 8.72388 6 9.00003 6H11.5H12V5.5V3Z" fill="black"/>
</g>
</svg>
