<svg width="16" height="16" viewBox="0 0 16 16" fill="none" xmlns="http://www.w3.org/2000/svg">
<g id="edit-select-invert" clip-path="url(#clip0_241_9725)">
<path id="Union" fill-rule="evenodd" clip-rule="evenodd" d="M0.5 0C0.223858 0 0 0.223857 0 0.5V1.5C0 1.77614 0.223858 2 0.5 2H1.5C1.77614 2 2 1.77614 2 1.5V0.5C2 0.223857 1.77614 0 1.5 0H0.5ZM3.13337 7.84123L6.05795 4.33119C6.20763 4.15154 6.50001 4.25739 6.50001 4.49122V7.00067H9.5V4.49186C9.5 4.25803 9.79238 4.15219 9.94207 4.33183L12.8666 7.84187C12.9439 7.93459 12.9439 8.06925 12.8666 8.16196L9.94205 11.671C9.79235 11.8506 9.5 11.7448 9.5 11.511V9.00067L6.50001 9.00067V11.5103C6.50001 11.7441 6.20767 11.85 6.05797 11.6704L3.13339 8.16131C3.05613 8.06861 3.05612 7.93394 3.13337 7.84123ZM14 0.5C14 0.223857 14.2239 0 14.5 0H15.5C15.7761 0 16 0.223857 16 0.5V1.5C16 1.77614 15.7761 2 15.5 2H14.5C14.2239 2 14 1.77614 14 1.5V0.5ZM14.5 14C14.2239 14 14 14.2239 14 14.5V15.5C14 15.7761 14.2239 16 14.5 16H15.5C15.7761 16 16 15.7761 16 15.5V14.5C16 14.2239 15.7761 14 15.5 14H14.5ZM0 14.5C0 14.2239 0.223858 14 0.5 14H1.5C1.77614 14 2 14.2239 2 14.5V15.5C2 15.7761 1.77614 16 1.5 16H0.5C0.223858 16 0 15.7761 0 15.5V14.5ZM5.625 0.5C5.625 0.223857 5.84886 0 6.125 0H9.875C10.1511 0 10.375 0.223857 10.375 0.5C10.375 0.776142 10.1511 1 9.875 1H6.125C5.84886 1 5.625 0.776142 5.625 0.5ZM0.5 5.625C0.776142 5.625 1 5.84886 1 6.125V9.875C1 10.1511 0.776142 10.375 0.5 10.375C0.223858 10.375 0 10.1511 0 9.875V6.125C0 5.84886 0.223858 5.625 0.5 5.625ZM15.5 5.625C15.7761 5.625 16 5.84886 16 6.125V9.875C16 10.1511 15.7761 10.375 15.5 10.375C15.2239 10.375 15 10.1511 15 9.875V6.125C15 5.84886 15.2239 5.625 15.5 5.625ZM5.625 15.5C5.625 15.2239 5.84886 15 6.125 15H9.875C10.1511 15 10.375 15.2239 10.375 15.5C10.375 15.7761 10.1511 16 9.875 16H6.125C5.84886 16 5.625 15.7761 5.625 15.5Z" fill="black"/>
</g>
<defs>
<clipPath id="clip0_241_9725">
<rect width="16" height="16" fill="white"/>
</clipPath>
</defs>
</svg>
