<svg width="16" height="16" viewBox="0 0 16 16" fill="none" xmlns="http://www.w3.org/2000/svg">
<g id="edit-select-original" clip-path="url(#clip0_241_9503)">
<path id="Union" fill-rule="evenodd" clip-rule="evenodd" d="M0 0.5C0 0.223858 0.223858 0 0.5 0H1.5C1.77614 0 2 0.223858 2 0.5V1.5C2 1.77614 1.77614 2 1.5 2H0.5C0.223858 2 0 1.77614 0 1.5V0.5ZM14 0.5C14 0.223858 14.2239 0 14.5 0H15.5C15.7761 0 16 0.223858 16 0.5V1.5C16 1.77614 15.7761 2 15.5 2H14.5C14.2239 2 14 1.77614 14 1.5V0.5ZM14.5 14C14.2239 14 14 14.2239 14 14.5V15.5C14 15.7761 14.2239 16 14.5 16H15.5C15.7761 16 16 15.7761 16 15.5V14.5C16 14.2239 15.7761 14 15.5 14H14.5ZM0 14.5C0 14.2239 0.223858 14 0.5 14H1.5C1.77614 14 2 14.2239 2 14.5V15.5C2 15.7761 1.77614 16 1.5 16H0.5C0.223858 16 0 15.7761 0 15.5V14.5ZM5.625 0.5C5.625 0.223858 5.84886 0 6.125 0H9.875C10.1511 0 10.375 0.223858 10.375 0.5C10.375 0.776142 10.1511 1 9.875 1H6.125C5.84886 1 5.625 0.776142 5.625 0.5ZM0.5 5.625C0.776142 5.625 1 5.84886 1 6.125V9.875C1 10.1511 0.776142 10.375 0.5 10.375C0.223858 10.375 0 10.1511 0 9.875V6.125C0 5.84886 0.223858 5.625 0.5 5.625ZM15.5 5.625C15.7761 5.625 16 5.84886 16 6.125V9.875C16 10.1511 15.7761 10.375 15.5 10.375C15.2239 10.375 15 10.1511 15 9.875V6.125C15 5.84886 15.2239 5.625 15.5 5.625ZM5.625 15.5C5.625 15.2239 5.84886 15 6.125 15H9.875C10.1511 15 10.375 15.2239 10.375 15.5C10.375 15.7761 10.1511 16 9.875 16H6.125C5.84886 16 5.625 15.7761 5.625 15.5Z" fill="black"/>
<g id=".accessory / lock">
<path id="Union_2" fill-rule="evenodd" clip-rule="evenodd" d="M6.83328 6.27775C6.83328 5.63342 7.35561 5.11108 7.99995 5.11108C8.64428 5.11108 9.16661 5.63342 9.16661 6.27775V7.94442H6.83328V6.27775ZM5.83328 7.94442V6.27775C5.83328 5.08113 6.80333 4.11108 7.99995 4.11108C9.19656 4.11108 10.1666 5.08113 10.1666 6.27775V7.94442H10.2222C10.529 7.94442 10.7777 8.19315 10.7777 8.49997V11.2777C10.7777 11.5846 10.529 11.8333 10.2222 11.8333H5.77772C5.4709 11.8333 5.22217 11.5846 5.22217 11.2778V8.49997C5.22217 8.19315 5.4709 7.94442 5.77772 7.94442H5.83328Z" fill="black"/>
</g>
</g>
<defs>
<clipPath id="clip0_241_9503">
<rect width="16" height="16" fill="white"/>
</clipPath>
</defs>
</svg>
