<svg width="16" height="16" viewBox="0 0 16 16" fill="none" xmlns="http://www.w3.org/2000/svg">
<g id="edit-paste-style">
<path id="neutral" opacity="0.3" fill-rule="evenodd" clip-rule="evenodd" d="M7.00098 7C6.44869 7 6.00098 7.44772 6.00098 8V15C6.00098 15.5523 6.44869 16 7.00098 16H14.001C14.5533 16 15.001 15.5523 15.001 15V8C15.001 7.44772 14.5533 7 14.001 7H7.00098ZM12 10H9V13H12V10Z" fill="black"/>
<path id="Union" fill-rule="evenodd" clip-rule="evenodd" d="M5.00098 2C5.00098 1.44772 5.44869 1 6.00098 1H10.001C10.5533 1 11.001 1.44772 11.001 2V4C11.001 4.55228 10.5533 5 10.001 5H6.00098C5.44869 5 5.00098 4.55228 5.00098 4V2ZM10.001 2H6.00098V4H10.001V2ZM2.00098 3C2.00098 2.44772 2.44869 2 3.00098 2H4.00098C4.27712 2 4.50098 2.22386 4.50098 2.5C4.50098 2.77614 4.27712 3 4.00098 3L3.00098 3V14H4.50098C4.77712 14 5.00098 14.2239 5.00098 14.5C5.00098 14.7761 4.77712 15 4.50098 15H3.00098C2.44869 15 2.00098 14.5523 2.00098 14V3ZM11.501 2.5C11.501 2.22386 11.7248 2 12.001 2H13.001C13.5533 2 14.001 2.44772 14.001 3V5.5C14.001 5.77614 13.7771 6 13.501 6C13.2248 6 13.001 5.77614 13.001 5.5V3H12.001C11.7248 3 11.501 2.77614 11.501 2.5ZM7.00098 8H14.001V15H7.00098V8ZM6.00098 8C6.00098 7.44772 6.44869 7 7.00098 7H14.001C14.5533 7 15.001 7.44772 15.001 8V15C15.001 15.5523 14.5533 16 14.001 16H7.00098C6.44869 16 6.00098 15.5523 6.00098 15V8Z" fill="black"/>
</g>
</svg>
