<svg width="16" height="16" viewBox="0 0 16 16" fill="none" xmlns="http://www.w3.org/2000/svg">
<g id="edit-select-same-fill-and-stroke" clip-path="url(#clip0_241_9586)">
<rect id="neutral" opacity="0.3" x="6" y="6" width="7" height="7" rx="1" fill="black"/>
<g id="neutral_2">
<mask id="path-2-inside-1_241_9586" fill="white">
<path fill-rule="evenodd" clip-rule="evenodd" d="M0 0.5C0 0.223858 0.223858 0 0.5 0H1.5C1.77614 0 2 0.223858 2 0.5V1.5C2 1.77614 1.77614 2 1.5 2H0.5C0.223858 2 0 1.77614 0 1.5V0.5ZM14 0.5C14 0.223858 14.2239 0 14.5 0H15.5C15.7761 0 16 0.223858 16 0.5V1.5C16 1.77614 15.7761 2 15.5 2H14.5C14.2239 2 14 1.77614 14 1.5V0.5ZM14.5 14C14.2239 14 14 14.2239 14 14.5V15.5C14 15.7761 14.2239 16 14.5 16H15.5C15.7761 16 16 15.7761 16 15.5V14.5C16 14.2239 15.7761 14 15.5 14H14.5ZM0 14.5C0 14.2239 0.223858 14 0.5 14H1.5C1.77614 14 2 14.2239 2 14.5V15.5C2 15.7761 1.77614 16 1.5 16H0.5C0.223858 16 0 15.7761 0 15.5V14.5ZM5.625 0.5C5.625 0.223858 5.84886 0 6.125 0H9.875C10.1511 0 10.375 0.223858 10.375 0.5C10.375 0.776142 10.1511 1 9.875 1H6.125C5.84886 1 5.625 0.776142 5.625 0.5ZM0.5 5.625C0.776142 5.625 1 5.84886 1 6.125V9.875C1 10.1511 0.776142 10.375 0.5 10.375C0.223858 10.375 0 10.1511 0 9.875V6.125C0 5.84886 0.223858 5.625 0.5 5.625ZM15.5 5.625C15.7761 5.625 16 5.84886 16 6.125V9.875C16 10.1511 15.7761 10.375 15.5 10.375C15.2239 10.375 15 10.1511 15 9.875V6.125C15 5.84886 15.2239 5.625 15.5 5.625ZM5.625 15.5C5.625 15.2239 5.84886 15 6.125 15H9.875C10.1511 15 10.375 15.2239 10.375 15.5C10.375 15.7761 10.1511 16 9.875 16H6.125C5.84886 16 5.625 15.7761 5.625 15.5ZM12 7H7V12H12V7ZM7 6C6.44772 6 6 6.44772 6 7V8H5V5H8V6H7ZM6 10H4C3.44772 10 3 9.55228 3 9V4C3 3.44772 3.44772 3 4 3H9C9.55228 3 10 3.44772 10 4V6H12C12.5523 6 13 6.44772 13 7V12C13 12.5523 12.5523 13 12 13H7C6.44772 13 6 12.5523 6 12V10Z"/>
</mask>
<path fill-rule="evenodd" clip-rule="evenodd" d="M0 0.5C0 0.223858 0.223858 0 0.5 0H1.5C1.77614 0 2 0.223858 2 0.5V1.5C2 1.77614 1.77614 2 1.5 2H0.5C0.223858 2 0 1.77614 0 1.5V0.5ZM14 0.5C14 0.223858 14.2239 0 14.5 0H15.5C15.7761 0 16 0.223858 16 0.5V1.5C16 1.77614 15.7761 2 15.5 2H14.5C14.2239 2 14 1.77614 14 1.5V0.5ZM14.5 14C14.2239 14 14 14.2239 14 14.5V15.5C14 15.7761 14.2239 16 14.5 16H15.5C15.7761 16 16 15.7761 16 15.5V14.5C16 14.2239 15.7761 14 15.5 14H14.5ZM0 14.5C0 14.2239 0.223858 14 0.5 14H1.5C1.77614 14 2 14.2239 2 14.5V15.5C2 15.7761 1.77614 16 1.5 16H0.5C0.223858 16 0 15.7761 0 15.5V14.5ZM5.625 0.5C5.625 0.223858 5.84886 0 6.125 0H9.875C10.1511 0 10.375 0.223858 10.375 0.5C10.375 0.776142 10.1511 1 9.875 1H6.125C5.84886 1 5.625 0.776142 5.625 0.5ZM0.5 5.625C0.776142 5.625 1 5.84886 1 6.125V9.875C1 10.1511 0.776142 10.375 0.5 10.375C0.223858 10.375 0 10.1511 0 9.875V6.125C0 5.84886 0.223858 5.625 0.5 5.625ZM15.5 5.625C15.7761 5.625 16 5.84886 16 6.125V9.875C16 10.1511 15.7761 10.375 15.5 10.375C15.2239 10.375 15 10.1511 15 9.875V6.125C15 5.84886 15.2239 5.625 15.5 5.625ZM5.625 15.5C5.625 15.2239 5.84886 15 6.125 15H9.875C10.1511 15 10.375 15.2239 10.375 15.5C10.375 15.7761 10.1511 16 9.875 16H6.125C5.84886 16 5.625 15.7761 5.625 15.5ZM12 7H7V12H12V7ZM7 6C6.44772 6 6 6.44772 6 7V8H5V5H8V6H7ZM6 10H4C3.44772 10 3 9.55228 3 9V4C3 3.44772 3.44772 3 4 3H9C9.55228 3 10 3.44772 10 4V6H12C12.5523 6 13 6.44772 13 7V12C13 12.5523 12.5523 13 12 13H7C6.44772 13 6 12.5523 6 12V10Z" fill="black"/>
<path d="M7 7V6H6V7H7ZM12 7H13V6H12V7ZM7 12H6V13H7V12ZM12 12V13H13V12H12ZM6 8V9H7V8H6ZM5 8H4V9H5V8ZM5 5V4H4V5H5ZM8 5H9V4H8V5ZM8 6V7H9V6H8ZM6 10H7V9H6V10ZM10 6H9V7H10V6ZM0.5 -1C-0.328427 -1 -1 -0.328427 -1 0.5H1C1 0.776142 0.776142 1 0.5 1V-1ZM1.5 -1H0.5V1H1.5V-1ZM3 0.5C3 -0.328427 2.32843 -1 1.5 -1V1C1.22386 1 1 0.776142 1 0.5H3ZM3 1.5V0.5H1V1.5H3ZM1.5 3C2.32843 3 3 2.32843 3 1.5H1C1 1.22386 1.22386 1 1.5 1V3ZM0.5 3H1.5V1H0.5V3ZM-1 1.5C-1 2.32843 -0.328427 3 0.5 3V1C0.776142 1 1 1.22386 1 1.5H-1ZM-1 0.5V1.5H1V0.5H-1ZM14.5 -1C13.6716 -1 13 -0.328427 13 0.5H15C15 0.776143 14.7761 1 14.5 1V-1ZM15.5 -1H14.5V1H15.5V-1ZM17 0.5C17 -0.328427 16.3284 -1 15.5 -1V1C15.2239 1 15 0.776143 15 0.5H17ZM17 1.5V0.5H15V1.5H17ZM15.5 3C16.3284 3 17 2.32843 17 1.5H15C15 1.22386 15.2239 1 15.5 1V3ZM14.5 3H15.5V1H14.5V3ZM13 1.5C13 2.32843 13.6716 3 14.5 3V1C14.7761 1 15 1.22386 15 1.5H13ZM13 0.5V1.5H15V0.5H13ZM15 14.5C15 14.7761 14.7761 15 14.5 15V13C13.6716 13 13 13.6716 13 14.5H15ZM15 15.5V14.5H13V15.5H15ZM14.5 15C14.7761 15 15 15.2239 15 15.5H13C13 16.3284 13.6716 17 14.5 17V15ZM15.5 15H14.5V17H15.5V15ZM15 15.5C15 15.2239 15.2239 15 15.5 15V17C16.3284 17 17 16.3284 17 15.5H15ZM15 14.5V15.5H17V14.5H15ZM15.5 15C15.2239 15 15 14.7761 15 14.5H17C17 13.6716 16.3284 13 15.5 13V15ZM14.5 15H15.5V13H14.5V15ZM0.5 13C-0.328427 13 -1 13.6716 -1 14.5H1C1 14.7761 0.776143 15 0.5 15V13ZM1.5 13H0.5V15H1.5V13ZM3 14.5C3 13.6716 2.32843 13 1.5 13V15C1.22386 15 1 14.7761 1 14.5H3ZM3 15.5V14.5H1V15.5H3ZM1.5 17C2.32843 17 3 16.3284 3 15.5H1C1 15.2239 1.22386 15 1.5 15V17ZM0.5 17H1.5V15H0.5V17ZM-1 15.5C-1 16.3284 -0.328427 17 0.5 17V15C0.776143 15 1 15.2239 1 15.5H-1ZM-1 14.5V15.5H1V14.5H-1ZM6.125 -1C5.29657 -1 4.625 -0.328427 4.625 0.5H6.625C6.625 0.776142 6.40114 1 6.125 1V-1ZM9.875 -1H6.125V1H9.875V-1ZM11.375 0.5C11.375 -0.328427 10.7034 -1 9.875 -1V1C9.59886 1 9.375 0.776143 9.375 0.5H11.375ZM9.875 2C10.7034 2 11.375 1.32843 11.375 0.5H9.375C9.375 0.223857 9.59886 0 9.875 0V2ZM6.125 2H9.875V0H6.125V2ZM4.625 0.5C4.625 1.32843 5.29657 2 6.125 2V0C6.40114 0 6.625 0.223858 6.625 0.5H4.625ZM2 6.125C2 5.29657 1.32843 4.625 0.5 4.625V6.625C0.223858 6.625 0 6.40114 0 6.125H2ZM2 9.875V6.125H0V9.875H2ZM0.5 11.375C1.32843 11.375 2 10.7034 2 9.875H0C0 9.59886 0.223857 9.375 0.5 9.375V11.375ZM-1 9.875C-1 10.7034 -0.328427 11.375 0.5 11.375V9.375C0.776143 9.375 1 9.59886 1 9.875H-1ZM-1 6.125V9.875H1V6.125H-1ZM0.5 4.625C-0.328427 4.625 -1 5.29657 -1 6.125H1C1 6.40114 0.776142 6.625 0.5 6.625V4.625ZM17 6.125C17 5.29657 16.3284 4.625 15.5 4.625V6.625C15.2239 6.625 15 6.40114 15 6.125H17ZM17 9.875V6.125H15V9.875H17ZM15.5 11.375C16.3284 11.375 17 10.7034 17 9.875H15C15 9.59886 15.2239 9.375 15.5 9.375V11.375ZM14 9.875C14 10.7034 14.6716 11.375 15.5 11.375V9.375C15.7761 9.375 16 9.59886 16 9.875H14ZM14 6.125V9.875H16V6.125H14ZM15.5 4.625C14.6716 4.625 14 5.29657 14 6.125H16C16 6.40114 15.7761 6.625 15.5 6.625V4.625ZM6.125 14C5.29657 14 4.625 14.6716 4.625 15.5H6.625C6.625 15.7761 6.40114 16 6.125 16V14ZM9.875 14H6.125V16H9.875V14ZM11.375 15.5C11.375 14.6716 10.7034 14 9.875 14V16C9.59886 16 9.375 15.7761 9.375 15.5H11.375ZM9.875 17C10.7034 17 11.375 16.3284 11.375 15.5H9.375C9.375 15.2239 9.59886 15 9.875 15V17ZM6.125 17H9.875V15H6.125V17ZM4.625 15.5C4.625 16.3284 5.29657 17 6.125 17V15C6.40114 15 6.625 15.2239 6.625 15.5H4.625ZM7 8H12V6H7V8ZM8 12V7H6V12H8ZM12 11H7V13H12V11ZM11 7V12H13V7H11ZM7 7V5C5.89543 5 5 5.89543 5 7H7ZM7 8V7H5V8H7ZM5 9H6V7H5V9ZM4 5V8H6V5H4ZM8 4H5V6H8V4ZM9 6V5H7V6H9ZM7 7H8V5H7V7ZM6 9H4V11H6V9ZM4 9H2C2 10.1046 2.89543 11 4 11V9ZM4 9V4H2V9H4ZM4 4V2C2.89543 2 2 2.89543 2 4H4ZM4 4H9V2H4V4ZM9 4H11C11 2.89543 10.1046 2 9 2V4ZM9 4V6H11V4H9ZM10 7H12V5H10V7ZM12 7H14C14 5.89543 13.1046 5 12 5V7ZM12 7V12H14V7H12ZM12 12V14C13.1046 14 14 13.1046 14 12H12ZM12 12H7V14H12V12ZM7 12H5C5 13.1046 5.89543 14 7 14V12ZM7 12V10H5V12H7Z" fill="black" mask="url(#path-2-inside-1_241_9586)"/>
</g>
</g>
<defs>
<clipPath id="clip0_241_9586">
<rect width="16" height="16" fill="white"/>
</clipPath>
</defs>
</svg>
