<svg width="16" height="16" viewBox="0 0 16 16" fill="none" xmlns="http://www.w3.org/2000/svg">
<g id="edit-clone-link-lpe" clip-path="url(#clip0_241_9551)">
<path id="Union" fill-rule="evenodd" clip-rule="evenodd" d="M2.00195 1C1.44967 1 1.00195 1.44772 1.00195 2V11C1.00195 11.5523 1.44967 12 2.00195 12H2.50098C2.77712 12 3.00098 11.7761 3.00098 11.5C3.00098 11.2239 2.77712 11 2.50098 11H2.00195V2L11.002 2V4C11.002 4.27614 11.2258 4.5 11.502 4.5C11.7781 4.5 12.002 4.27614 12.002 4V2C12.002 1.44772 11.5542 1 11.002 1H2.00195ZM3 8.45104C3 5.88934 6.04507 4.54966 7.93358 6.28051L9.50112 7.71718C9.70491 7.54958 10.0066 7.56898 10.187 7.76583C10.3736 7.96941 10.3598 8.28569 10.1562 8.47226L10.001 8.61452V13.8953V13.9337C10.1151 13.958 10.2214 14.0221 10.2969 14.1228C10.3804 14.2341 10.4692 14.3294 10.5613 14.4103C10.7688 14.5925 10.7892 14.9085 10.6069 15.1159C10.4247 15.3234 10.1087 15.3438 9.90129 15.1615C9.75765 15.0353 9.62361 14.891 9.50109 14.7284C7.78681 17.0052 4.16854 15.4232 4.67884 12.6166C4.76854 12.1232 4.98864 11.6816 5.29968 11.3245C3.98364 11.0306 3 9.85569 3 8.45104ZM7.34044 10.3953H9.00098V8.61526L7.25791 7.01772C6.01083 5.87474 4 6.75941 4 8.45104C4 9.52482 4.87047 10.3953 5.94425 10.3953H7.34044ZM9.00098 11.3953H7.34044C6.51632 11.3953 5.81013 11.9847 5.66271 12.7955C5.34083 14.5658 7.62484 15.5632 8.70455 14.1238L9.00098 13.7286V11.3953ZM13.1069 5.95281C13.1689 5.68373 13.4374 5.51592 13.7064 5.57798C14.0744 5.66285 14.4246 5.81691 14.7358 6.03078C14.9633 6.18719 15.021 6.49847 14.8646 6.72605C14.7082 6.95362 14.3969 7.01131 14.1693 6.8549C13.9616 6.71212 13.7273 6.60905 13.4817 6.5524C13.2126 6.49033 13.0448 6.22189 13.1069 5.95281ZM12.2048 6.09897C12.3509 6.33332 12.2793 6.64171 12.045 6.78777C11.9418 6.85208 11.8408 6.92838 11.7433 7.01777L11.7432 7.01781L11.4258 7.3087C11.2222 7.49527 10.906 7.48149 10.7194 7.27791C10.5328 7.07433 10.5466 6.75805 10.7502 6.57147L11.0675 6.28062L11.0676 6.28058C11.2099 6.1501 11.36 6.03637 11.516 5.93911C11.7504 5.79305 12.0588 5.86462 12.2048 6.09897ZM15.3664 7.48973C15.6378 7.43904 15.899 7.61801 15.9496 7.88946C15.9834 8.07023 16.001 8.25772 16.001 8.45085C16.001 8.60641 15.9889 8.75948 15.9655 8.90909C15.9228 9.18191 15.667 9.36846 15.3942 9.32577C15.1213 9.28307 14.9348 9.02729 14.9775 8.75447C14.9929 8.65583 15.001 8.55445 15.001 8.45085C15.001 8.31856 14.989 8.19252 14.9666 8.07301C14.916 7.80155 15.0949 7.54041 15.3664 7.48973ZM15.143 9.81899C15.3388 10.0136 15.3398 10.3302 15.1452 10.5261C15.0371 10.6348 14.9206 10.7352 14.7967 10.8261C14.574 10.9894 14.2611 10.9413 14.0978 10.7186C13.9345 10.496 13.9826 10.183 14.2052 10.0197C14.2872 9.9596 14.3643 9.89319 14.4359 9.82119C14.6305 9.62532 14.9471 9.62434 15.143 9.81899ZM11.1608 10.8949C11.1608 10.6188 11.3847 10.3949 11.6608 10.3949C11.8736 10.3949 12.0818 10.4197 12.2822 10.467C12.551 10.5303 12.7175 10.7996 12.6542 11.0684C12.5908 11.3371 12.3216 11.5037 12.0528 11.4403C11.9268 11.4106 11.7956 11.3949 11.6608 11.3949C11.3847 11.3949 11.1608 11.1711 11.1608 10.8949ZM13.4818 11.7591C13.7349 11.6487 14.0296 11.7644 14.14 12.0175C14.2224 12.2062 14.284 12.4066 14.3221 12.616C14.359 12.8187 14.3741 13.0175 14.369 13.2108C14.3616 13.4869 14.1319 13.7047 13.8559 13.6973C13.5798 13.69 13.362 13.4603 13.3693 13.1842C13.3726 13.0616 13.3631 12.9317 13.3382 12.7948C13.3141 12.6622 13.2752 12.5359 13.2234 12.4173C13.113 12.1642 13.2287 11.8695 13.4818 11.7591ZM13.377 14.5844C13.5385 14.8084 13.4877 15.1209 13.2636 15.2823C12.9387 15.5164 12.5645 15.6798 12.172 15.759C11.9013 15.8136 11.6376 15.6384 11.583 15.3677C11.5284 15.097 11.7036 14.8333 11.9742 14.7787C12.2273 14.7277 12.4696 14.6219 12.6791 14.471C12.9031 14.3096 13.2156 14.3603 13.377 14.5844Z" fill="black"/>
</g>
<defs>
<clipPath id="clip0_241_9551">
<rect width="16" height="16" fill="white"/>
</clipPath>
</defs>
</svg>
