<svg width="16" height="16" viewBox="0 0 16 16" fill="none" xmlns="http://www.w3.org/2000/svg">
<g id="edit-select-all" clip-path="url(#clip0_241_9646)">
<path id="Union" fill-rule="evenodd" clip-rule="evenodd" d="M0.5 0C0.223858 0 0 0.223857 0 0.5V1.5C0 1.77614 0.223858 2 0.5 2H1.5C1.77614 2 2 1.77614 2 1.5V0.5C2 0.223857 1.77614 0 1.5 0H0.5ZM14.5 0C14.2239 0 14 0.223857 14 0.5V1.5C14 1.77614 14.2239 2 14.5 2H15.5C15.7761 2 16 1.77614 16 1.5V0.5C16 0.223857 15.7761 0 15.5 0H14.5ZM14 14.5C14 14.2239 14.2239 14 14.5 14H15.5C15.7761 14 16 14.2239 16 14.5V15.5C16 15.7761 15.7761 16 15.5 16H14.5C14.2239 16 14 15.7761 14 15.5V14.5ZM0.5 14C0.223858 14 0 14.2239 0 14.5V15.5C0 15.7761 0.223858 16 0.5 16H1.5C1.77614 16 2 15.7761 2 15.5V14.5C2 14.2239 1.77614 14 1.5 14H0.5ZM6.125 0C5.84886 0 5.625 0.223857 5.625 0.5C5.625 0.776142 5.84886 1 6.125 1H9.875C10.1511 1 10.375 0.776142 10.375 0.5C10.375 0.223857 10.1511 0 9.875 0H6.125ZM1 6.125C1 5.84886 0.776142 5.625 0.5 5.625C0.223858 5.625 0 5.84886 0 6.125V9.875C0 10.1511 0.223858 10.375 0.5 10.375C0.776142 10.375 1 10.1511 1 9.875V6.125ZM16 6.125C16 5.84886 15.7761 5.625 15.5 5.625C15.2239 5.625 15 5.84886 15 6.125V9.875C15 10.1511 15.2239 10.375 15.5 10.375C15.7761 10.375 16 10.1511 16 9.875V6.125ZM6.125 15C5.84886 15 5.625 15.2239 5.625 15.5C5.625 15.7761 5.84886 16 6.125 16H9.875C10.1511 16 10.375 15.7761 10.375 15.5C10.375 15.2239 10.1511 15 9.875 15H6.125ZM8 4.25C7.0335 4.25 6.25 5.0335 6.25 6C6.25 6.9665 7.0335 7.75 8 7.75C8.9665 7.75 9.75 6.9665 9.75 6C9.75 5.0335 8.9665 4.25 8 4.25ZM4 9.5C4 9.22386 4.22386 9 4.5 9H6.5C6.77614 9 7 9.22386 7 9.5V11.5C7 11.7761 6.77614 12 6.5 12H4.5C4.22386 12 4 11.7761 4 11.5V9.5ZM10.933 9.0498C10.7406 8.71647 10.2594 8.71647 10.067 9.0498L8.76795 11.2998C8.5755 11.6331 8.81606 12.0498 9.20096 12.0498H11.799C12.1839 12.0498 12.4245 11.6331 12.2321 11.2998L10.933 9.0498Z" fill="black"/>
</g>
<defs>
<clipPath id="clip0_241_9646">
<rect width="16" height="16" fill="white"/>
</clipPath>
</defs>
</svg>
