<svg width="16" height="16" viewBox="0 0 16 16" fill="none" xmlns="http://www.w3.org/2000/svg">
<g id="edit-select-all-layers" clip-path="url(#clip0_241_9722)">
<path id="Union" fill-rule="evenodd" clip-rule="evenodd" d="M0 0.5C0 0.223858 0.223858 0 0.5 0H1.5C1.77614 0 2 0.223858 2 0.5V1.5C2 1.77614 1.77614 2 1.5 2H0.5C0.223858 2 0 1.77614 0 1.5V0.5ZM14 0.5C14 0.223858 14.2239 0 14.5 0H15.5C15.7761 0 16 0.223858 16 0.5V1.5C16 1.77614 15.7761 2 15.5 2H14.5C14.2239 2 14 1.77614 14 1.5V0.5ZM14.5 14C14.2239 14 14 14.2239 14 14.5V15.5C14 15.7761 14.2239 16 14.5 16H15.5C15.7761 16 16 15.7761 16 15.5V14.5C16 14.2239 15.7761 14 15.5 14H14.5ZM0 14.5C0 14.2239 0.223858 14 0.5 14H1.5C1.77614 14 2 14.2239 2 14.5V15.5C2 15.7761 1.77614 16 1.5 16H0.5C0.223858 16 0 15.7761 0 15.5V14.5ZM5.625 0.5C5.625 0.223858 5.84886 0 6.125 0H9.875C10.1511 0 10.375 0.223858 10.375 0.5C10.375 0.776142 10.1511 1 9.875 1H6.125C5.84886 1 5.625 0.776142 5.625 0.5ZM0.5 5.625C0.776142 5.625 1 5.84886 1 6.125V9.875C1 10.1511 0.776142 10.375 0.5 10.375C0.223858 10.375 0 10.1511 0 9.875V6.125C0 5.84886 0.223858 5.625 0.5 5.625ZM15.5 5.625C15.7761 5.625 16 5.84886 16 6.125V9.875C16 10.1511 15.7761 10.375 15.5 10.375C15.2239 10.375 15 10.1511 15 9.875V6.125C15 5.84886 15.2239 5.625 15.5 5.625ZM5.625 15.5C5.625 15.2239 5.84886 15 6.125 15H9.875C10.1511 15 10.375 15.2239 10.375 15.5C10.375 15.7761 10.1511 16 9.875 16H6.125C5.84886 16 5.625 15.7761 5.625 15.5ZM8 4.67923L4.88686 6.62486L8 8.57049L11.1131 6.62486L8 4.67923ZM8.16562 3.60351C8.06429 3.54018 7.93571 3.54018 7.83438 3.60351L3.42401 6.35987C3.22818 6.48226 3.22818 6.76747 3.42401 6.88986L7.83438 9.64622C7.93571 9.70955 8.06429 9.70955 8.16562 9.64622L12.576 6.88986C12.7718 6.76747 12.7718 6.48226 12.576 6.35987L8.16562 3.60351ZM4.33088 8.5285C4.39063 8.49115 4.46628 8.49046 4.52671 8.52672L7.90352 10.5527C7.9629 10.5883 8.03708 10.5883 8.09645 10.5527L11.4732 8.52673C11.5337 8.49048 11.6093 8.49117 11.6691 8.52851L12.5759 9.09528C12.7718 9.21768 12.7718 9.50289 12.5759 9.62528L8.16558 12.3816C8.06425 12.445 7.93568 12.445 7.83435 12.3816L3.42398 9.62528C3.22814 9.50289 3.22814 9.21768 3.42398 9.09528L4.33088 8.5285Z" fill="black"/>
</g>
<defs>
<clipPath id="clip0_241_9722">
<rect width="16" height="16" fill="white"/>
</clipPath>
</defs>
</svg>
