<svg width="16" height="16" viewBox="0 0 16 16" fill="none" xmlns="http://www.w3.org/2000/svg">
<g id="edit-paste">
<path id="Union" fill-rule="evenodd" clip-rule="evenodd" d="M6.00098 1C5.44869 1 5.00098 1.44772 5.00098 2V4C5.00098 4.55228 5.44869 5 6.00098 5H10.001C10.5533 5 11.001 4.55228 11.001 4V2C11.001 1.44772 10.5533 1 10.001 1H6.00098ZM6.00098 2H10.001V4H6.00098V2ZM3.00098 2C2.44869 2 2.00098 2.44772 2.00098 3V14C2.00098 14.5523 2.44869 15 3.00098 15H4.50098C4.77712 15 5.00098 14.7761 5.00098 14.5C5.00098 14.2239 4.77712 14 4.50098 14H3.00098V3L4.00098 3C4.27712 3 4.50098 2.77614 4.50098 2.5C4.50098 2.22386 4.27712 2 4.00098 2H3.00098ZM12.001 2C11.7248 2 11.501 2.22386 11.501 2.5C11.501 2.77614 11.7248 3 12.001 3H13.001V5.5C13.001 5.77614 13.2248 6 13.501 6C13.7771 6 14.001 5.77614 14.001 5.5V3C14.001 2.44772 13.5533 2 13.001 2H12.001ZM14.001 8H7.00098V15H14.001V8ZM7.00098 7C6.44869 7 6.00098 7.44772 6.00098 8V15C6.00098 15.5523 6.44869 16 7.00098 16H14.001C14.5533 16 15.001 15.5523 15.001 15V8C15.001 7.44772 14.5533 7 14.001 7H7.00098ZM8.50098 9C8.22483 9 8.00098 9.22386 8.00098 9.5C8.00098 9.77614 8.22483 10 8.50098 10H12.501C12.7771 10 13.001 9.77614 13.001 9.5C13.001 9.22386 12.7771 9 12.501 9H8.50098ZM8.50098 11C8.22483 11 8.00098 11.2239 8.00098 11.5C8.00098 11.7761 8.22483 12 8.50098 12H12.501C12.7771 12 13.001 11.7761 13.001 11.5C13.001 11.2239 12.7771 11 12.501 11H8.50098ZM8.00098 13.5C8.00098 13.2239 8.22483 13 8.50098 13H12.501C12.7771 13 13.001 13.2239 13.001 13.5C13.001 13.7761 12.7771 14 12.501 14H8.50098C8.22483 14 8.00098 13.7761 8.00098 13.5Z" fill="black"/>
</g>
</svg>
