<svg width="16" height="16" viewBox="0 0 16 16" fill="none" xmlns="http://www.w3.org/2000/svg">
<g id="ellipse-5pts">
<path class="warning" fill-rule="evenodd" clip-rule="evenodd" d="M7.63421 2.47353C7.75506 2.46565 7.87697 2.46165 7.99982 2.46165C9.34739 2.46165 10.5826 2.94292 11.5428 3.74296C11.697 3.46677 11.9361 3.24437 12.2246 3.11097C11.0919 2.13124 9.61505 1.53857 7.99982 1.53857C7.81598 1.53857 7.63394 1.54625 7.45399 1.5613C7.57553 1.77799 7.64484 2.02793 7.64484 2.29406C7.64484 2.35479 7.64123 2.41468 7.63421 2.47353ZM13.9558 5.49036C13.7444 5.71944 13.4625 5.88248 13.1445 5.94502C13.3985 6.58046 13.5383 7.27397 13.5383 8.00011C13.5383 8.72605 13.3986 9.41937 13.1447 10.0547C13.4627 10.1171 13.7447 10.2801 13.9561 10.5092C14.2815 9.73774 14.4614 8.88993 14.4614 8.00011C14.4614 7.11002 14.2814 6.26197 13.9558 5.49036ZM12.2252 12.8888C11.9366 12.7554 11.6976 12.533 11.5433 12.2568C10.583 13.0571 9.34763 13.5386 7.99982 13.5386C7.8773 13.5386 7.75573 13.5346 7.6352 13.5268C7.64221 13.5856 7.64581 13.6455 7.64581 13.7062C7.64581 13.9723 7.57649 14.2223 7.45492 14.439C7.63457 14.454 7.8163 14.4617 7.99982 14.4617C9.6153 14.4617 11.0923 13.8688 12.2252 12.8888ZM4.65602 13.5303C4.69389 13.206 4.83521 12.9133 5.04609 12.6861C3.86279 11.9386 2.98225 10.7553 2.62997 9.36172C2.43838 9.45054 2.22489 9.50011 1.99982 9.50011C1.89945 9.50011 1.80139 9.49026 1.70654 9.47146C2.10636 11.1883 3.19059 12.6423 4.65602 13.5303ZM1.70654 6.52877C1.80139 6.50997 1.89945 6.50011 1.99982 6.50011C2.22489 6.50011 2.43838 6.54968 2.62997 6.6385C2.98219 5.24514 3.86249 4.06203 5.04548 3.31456C4.83451 3.0874 4.6931 2.79475 4.6551 2.47049C3.19014 3.35851 2.10627 4.81228 1.70654 6.52877Z" fill="#9E9E9E"/>
<path id="Union" fill-rule="evenodd" clip-rule="evenodd" d="M7.34502 2.29395C7.34502 2.95669 6.80776 3.49395 6.14502 3.49395C5.48228 3.49395 4.94502 2.95669 4.94502 2.29395C4.94502 1.6312 5.48228 1.09395 6.14502 1.09395C6.80776 1.09395 7.34502 1.6312 7.34502 2.29395ZM8.14502 2.29395C8.14502 3.39852 7.24959 4.29395 6.14502 4.29395C5.04045 4.29395 4.14502 3.39852 4.14502 2.29395C4.14502 1.18938 5.04045 0.293945 6.14502 0.293945C7.24959 0.293945 8.14502 1.18938 8.14502 2.29395ZM12.8535 5.67314C13.5163 5.67314 14.0535 5.13589 14.0535 4.47314C14.0535 3.8104 13.5163 3.27314 12.8535 3.27314C12.1908 3.27314 11.6535 3.8104 11.6535 4.47314C11.6535 5.13589 12.1908 5.67314 12.8535 5.67314ZM12.8535 6.47315C13.9581 6.47315 14.8535 5.57771 14.8535 4.47314C14.8535 3.36858 13.9581 2.47314 12.8535 2.47314C11.7489 2.47314 10.8535 3.36858 10.8535 4.47314C10.8535 5.57771 11.7489 6.47315 12.8535 6.47315ZM2 9.2C2.66274 9.2 3.2 8.66274 3.2 8C3.2 7.33726 2.66274 6.8 2 6.8C1.33726 6.8 0.8 7.33726 0.8 8C0.8 8.66274 1.33726 9.2 2 9.2ZM2 10C3.10457 10 4 9.10457 4 8C4 6.89543 3.10457 6 2 6C0.895431 6 0 6.89543 0 8C0 9.10457 0.895431 10 2 10ZM6.146 14.9061C6.80874 14.9061 7.346 14.3688 7.346 13.7061C7.346 13.0433 6.80874 12.5061 6.146 12.5061C5.48325 12.5061 4.946 13.0433 4.946 13.7061C4.946 14.3688 5.48325 14.9061 6.146 14.9061ZM6.146 15.7061C7.25057 15.7061 8.146 14.8106 8.146 13.7061C8.146 12.6015 7.25057 11.7061 6.146 11.7061C5.04143 11.7061 4.146 12.6015 4.146 13.7061C4.146 14.8106 5.04143 15.7061 6.146 15.7061ZM14.054 11.5264C14.054 12.1891 13.5167 12.7264 12.854 12.7264C12.1913 12.7264 11.654 12.1891 11.654 11.5264C11.654 10.8636 12.1913 10.3264 12.854 10.3264C13.5167 10.3264 14.054 10.8636 14.054 11.5264ZM14.854 11.5264C14.854 12.6309 13.9586 13.5264 12.854 13.5264C11.7494 13.5264 10.854 12.6309 10.854 11.5264C10.854 10.4218 11.7494 9.52637 12.854 9.52637C13.9586 9.52637 14.854 10.4218 14.854 11.5264Z" fill="black"/>
</g>
</svg>
