<svg width="16" height="16" viewBox="0 0 16 16" fill="none" xmlns="http://www.w3.org/2000/svg">
<g id="empty-icon">
<path id="Union" opacity="0.2" fill-rule="evenodd" clip-rule="evenodd" d="M4 2C2.89543 2 2 2.89543 2 4V12C2 13.1046 2.89543 14 4 14H12C13.1046 14 14 13.1046 14 12V4C14 2.89543 13.1046 2 12 2H4ZM4 3C3.9104 3 3.82355 3.01178 3.74092 3.03389L7.99992 7.29289L12.259 3.03386C12.1764 3.01177 12.0896 3 12 3H4ZM12.9661 3.74092L8.70703 8L12.9661 12.2591C12.9882 12.1764 13 12.0896 13 12V4C13 3.9104 12.9882 3.82355 12.9661 3.74092ZM7.29282 8L3.03386 3.74104C3.01177 3.82363 3 3.91044 3 4V12C3 12.0896 3.01177 12.1764 3.03386 12.259L7.29282 8ZM3.74092 12.9661L7.99992 8.70711L12.259 12.9661C12.1764 12.9882 12.0896 13 12 13H4C3.9104 13 3.82355 12.9882 3.74092 12.9661Z" fill="black"/>
</g>
</svg>
