<svg width="8" height="16" viewBox="0 0 8 16" fill="none" xmlns="http://www.w3.org/2000/svg">
<g id="entries-unlinked">
<path id="Union" fill-rule="evenodd" clip-rule="evenodd" d="M6.5 10.0002C6.22386 10.0002 6 10.224 6 10.5002V12C6 13.1046 5.10457 14 4 14C2.89543 14 2 13.1046 2 12V10.5002C2 10.224 1.77614 10.0002 1.5 10.0002C1.22386 10.0002 1 10.224 1 10.5002V12C1 13.6569 2.34315 15 4 15C5.65685 15 7 13.6569 7 12V10.5002C7 10.224 6.77614 10.0002 6.5 10.0002ZM6 5.50018C6 5.77632 6.22386 6.00018 6.5 6.00018C6.77614 6.00018 7 5.77632 7 5.50018V4C7 2.34315 5.65685 1 4 1C2.34315 1 1 2.34315 1 4V5.50018C1 5.77632 1.22386 6.00018 1.5 6.00018C1.77614 6.00018 2 5.77632 2 5.50018V4C2 2.89543 2.89543 2 4 2C5.10457 2 6 2.89543 6 4V5.50018Z" fill="black"/>
</g>
</svg>
