<svg width="8" height="16" viewBox="0 0 8 16" fill="none" xmlns="http://www.w3.org/2000/svg">
<g id="entries-linked">
<path id="Union" fill-rule="evenodd" clip-rule="evenodd" d="M6 10.5002C6 10.224 6.22386 10.0002 6.5 10.0002C6.77614 10.0002 7 10.224 7 10.5002V12C7 13.6569 5.65685 15 4 15C2.34315 15 1 13.6569 1 12V10.5002C1 10.224 1.22386 10.0002 1.5 10.0002C1.77614 10.0002 2 10.224 2 10.5002V12C2 13.1046 2.89543 14 4 14C5.10457 14 6 13.1046 6 12V10.5002ZM6.5 6.00018C6.22386 6.00018 6 5.77632 6 5.50018V4C6 2.89543 5.10457 2 4 2C2.89543 2 2 2.89543 2 4V5.50018C2 5.77632 1.77614 6.00018 1.5 6.00018C1.22386 6.00018 1 5.77632 1 5.50018V4C1 2.34315 2.34315 1 4 1C5.65685 1 7 2.34315 7 4V5.50018C7 5.77632 6.77614 6.00018 6.5 6.00018ZM4.5 5.5C4.5 5.22386 4.27614 5 4 5C3.72386 5 3.5 5.22386 3.5 5.5L3.5 10.5C3.5 10.7761 3.72386 11 4 11C4.27614 11 4.5 10.7761 4.5 10.5L4.5 5.5Z" fill="black"/>
</g>
</svg>
