<svg width="16" height="16" viewBox="0 0 16 16" fill="none" xmlns="http://www.w3.org/2000/svg">
<g id="envelope" clip-path="url(#clip0_241_9489)">
<path class="warning" d="M8.00098 3L10.001 6.5L13.501 7.5L10.501 9L11.5277 14.8541L8.00098 10.5L4.47431 14.8541L5.50098 9L2.50098 7.5L6.00098 6.5L8.00098 3Z" fill="#9E9E9E"/>
<path id="Subtract" fill-rule="evenodd" clip-rule="evenodd" d="M2.65784 2.9919C3.41255 2.91347 4.00098 2.27545 4.00098 1.5C4.00098 0.671573 3.3294 0 2.50098 0C1.67255 0 1.00098 0.671573 1.00098 1.5C1.00098 2.10252 1.35622 2.62207 1.86869 2.86062L1.34546 6H0.000976562V9H1.10098V9.01562V9.03125V9.04688V9.0625V9.07812V9.09375V9.10938V9.125V9.14062V9.15625V9.17188V9.1875V9.20312V9.21875V9.23438V9.25V9.26562V9.28125V9.29688V9.3125V9.32812V9.34375V9.35938V9.375V9.39062V9.40625V9.42188V9.4375V9.45312V9.46875V9.48438V9.5V9.51562V9.53125V9.54688V9.5625V9.57812V9.59375V9.60938V9.625V9.64062V9.65625V9.67188V9.6875V9.70312V9.71875V9.73438V9.75V9.76562V9.78125V9.79688V9.8125V9.82812V9.84375V9.85938V9.875V9.89062V9.90625V9.92188V9.9375V9.95312V9.96875V9.98438V10V10.0156V10.0312V10.0469V10.0625V10.0781V10.0938V10.1094V10.125V10.1406V10.1562V10.1719V10.1875V10.2031V10.2188V10.2344V10.25V10.2656V10.2812V10.2969V10.3125V10.3281V10.3438V10.3594V10.375V10.3906V10.4062V10.4219V10.4375V10.4531V10.4688V10.4844V10.5V10.5156V10.5312V10.5469V10.5625V10.5781V10.5938V10.6094V10.625V10.6406V10.6562V10.6719V10.6875V10.7031V10.7188V10.7344V10.75V10.7656V10.7812V10.7969V10.8125V10.8281V10.8438V10.8594V10.875V10.8906V10.9062V10.9219V10.9375V10.9531V10.9688V10.9844V11V11.0156V11.0312V11.0469V11.0625V11.0781V11.0938V11.1094V11.125V11.1406V11.1562V11.1719V11.1875V11.2031V11.2188V11.2344V11.25V11.2656V11.2812V11.2969V11.3125V11.3281V11.3438V11.3594V11.375V11.3906V11.4062V11.4219V11.4375V11.4531V11.4688V11.4844V11.5V11.5156V11.5312V11.5469V11.5625V11.5781V11.5938V11.6094V11.625V11.6406V11.6562V11.6719V11.6875V11.7031V11.7188V11.7344V11.75V11.7656V11.7812V11.7969V11.8125V11.8281V11.8438V11.8594V11.875V11.8906V11.9062V11.9219V11.9375V11.9531V11.9688V11.9844V12V12.0156V12.0312V12.0469V12.0625V12.0781V12.0938V12.1094V12.125V12.1406V12.1562V12.1719V12.1875V12.2031V12.2188V12.2344V12.25V12.2656V12.2812V12.2969V12.3125V12.3281V12.3438V12.3594V12.375V12.3906V12.4062V12.4219V12.4375V12.4531V12.4688V12.4844V12.5V12.5156V12.5312V12.5469V12.5625V12.5781V12.5938V12.6094V12.625V12.6406V12.6562V12.6719V12.6875V12.7031V12.7188V12.7344V12.75V12.7656V12.7812V12.7969V12.8125V12.8281V12.8438V12.8594V12.875V12.8906V12.9062V12.9219V12.9375V12.9531V12.9688V12.9844V13V13.0156V13.0312V13.0469V13.0625V13.0781V13.0938V13.1094V13.125V13.1406V13.1562V13.1719V13.1875V13.2031V13.2188V13.2344V13.25V13.2656V13.2812V13.2969V13.3125V13.3281V13.3438V13.3594V13.375V13.3906V13.4062V13.4219V13.4375V13.4531V13.4688V13.4844V13.5V13.5156V13.5312V13.5469V13.5625V13.5781V13.5938V13.6094V13.625V13.6406V13.6562V13.6719V13.6875V13.7031V13.7188V13.7344V13.75V13.7656V13.7812V13.7969V13.8125V13.8281V13.8438V13.8594V13.875V13.8906V13.9062V13.9219V13.9375V13.9531V13.9688V13.9844V14V14.0156V14.0312V14.0469V14.0625V14.0781V14.0938V14.1094V14.125V14.1406V14.1562V14.1719V14.1875V14.2031V14.2188V14.2344V14.25V14.2656V14.2812V14.2969V14.3125V14.3281V14.3438V14.3594V14.375V14.3906V14.4062V14.4219V14.4375V14.4531V14.4688V14.4844V14.5V14.5156V14.5312V14.5469V14.5625V14.5781V14.5938V14.6094V14.625V14.6406V14.6562V14.6719V14.6875V14.7031V14.7188V14.7344V14.75V14.7656V14.7812V14.7969V14.8125V14.8281V14.8438V14.8594V14.875V14.8906V14.9062V14.9219V14.9375V14.9531V14.9688V14.9844V15V15.0156V15.0312V15.0469V15.0625V15.0781V15.0938V15.1094V15.125V15.1406V15.1562V15.1719V15.1875V15.2031V15.2188V15.2344V15.25V15.2656V15.2812V15.2969V15.3125V15.3281V15.3438V15.3594V15.375V15.3906V15.4062V15.4219V15.4375V15.4531V15.4688V15.4844V15.5V15.9H1.50098H14.501H14.901V15.5V15.4844V15.4688V15.4531V15.4375V15.4219V15.4062V15.3906V15.375V15.3594V15.3438V15.3281V15.3125V15.2969V15.2812V15.2656V15.25V15.2344V15.2188V15.2031V15.1875V15.1719V15.1562V15.1406V15.125V15.1094V15.0938V15.0781V15.0625V15.0469V15.0312V15.0156V15V14.9844V14.9688V14.9531V14.9375V14.9219V14.9062V14.8906V14.875V14.8594V14.8438V14.8281V14.8125V14.7969V14.7812V14.7656V14.75V14.7344V14.7188V14.7031V14.6875V14.6719V14.6562V14.6406V14.625V14.6094V14.5938V14.5781V14.5625V14.5469V14.5312V14.5156V14.5V14.4844V14.4688V14.4531V14.4375V14.4219V14.4062V14.3906V14.375V14.3594V14.3438V14.3281V14.3125V14.2969V14.2812V14.2656V14.25V14.2344V14.2188V14.2031V14.1875V14.1719V14.1562V14.1406V14.125V14.1094V14.0938V14.0781V14.0625V14.0469V14.0312V14.0156V14V13.9844V13.9688V13.9531V13.9375V13.9219V13.9062V13.8906V13.875V13.8594V13.8438V13.8281V13.8125V13.7969V13.7812V13.7656V13.75V13.7344V13.7188V13.7031V13.6875V13.6719V13.6562V13.6406V13.625V13.6094V13.5938V13.5781V13.5625V13.5469V13.5312V13.5156V13.5V13.4844V13.4688V13.4531V13.4375V13.4219V13.4062V13.3906V13.375V13.3594V13.3438V13.3281V13.3125V13.2969V13.2812V13.2656V13.25V13.2344V13.2188V13.2031V13.1875V13.1719V13.1562V13.1406V13.125V13.1094V13.0938V13.0781V13.0625V13.0469V13.0312V13.0156V13V12.9844V12.9688V12.9531V12.9375V12.9219V12.9062V12.8906V12.875V12.8594V12.8438V12.8281V12.8125V12.7969V12.7812V12.7656V12.75V12.7344V12.7188V12.7031V12.6875V12.6719V12.6562V12.6406V12.625V12.6094V12.5938V12.5781V12.5625V12.5469V12.5312V12.5156V12.5V12.4844V12.4688V12.4531V12.4375V12.4219V12.4062V12.3906V12.375V12.3594V12.3438V12.3281V12.3125V12.2969V12.2812V12.2656V12.25V12.2344V12.2188V12.2031V12.1875V12.1719V12.1562V12.1406V12.125V12.1094V12.0938V12.0781V12.0625V12.0469V12.0312V12.0156V12V11.9844V11.9688V11.9531V11.9375V11.9219V11.9062V11.8906V11.875V11.8594V11.8438V11.8281V11.8125V11.7969V11.7812V11.7656V11.75V11.7344V11.7188V11.7031V11.6875V11.6719V11.6562V11.6406V11.625V11.6094V11.5938V11.5781V11.5625V11.5469V11.5312V11.5156V11.5V11.4844V11.4688V11.4531V11.4375V11.4219V11.4062V11.3906V11.375V11.3594V11.3438V11.3281V11.3125V11.2969V11.2812V11.2656V11.25V11.2344V11.2188V11.2031V11.1875V11.1719V11.1562V11.1406V11.125V11.1094V11.0938V11.0781V11.0625V11.0469V11.0312V11.0156V11V10.9844V10.9688V10.9531V10.9375V10.9219V10.9062V10.8906V10.875V10.8594V10.8438V10.8281V10.8125V10.7969V10.7812V10.7656V10.75V10.7344V10.7188V10.7031V10.6875V10.6719V10.6562V10.6406V10.625V10.6094V10.5938V10.5781V10.5625V10.5469V10.5312V10.5156V10.5V10.4844V10.4688V10.4531V10.4375V10.4219V10.4062V10.3906V10.375V10.3594V10.3438V10.3281V10.3125V10.2969V10.2812V10.2656V10.25V10.2344V10.2188V10.2031V10.1875V10.1719V10.1562V10.1406V10.125V10.1094V10.0938V10.0781V10.0625V10.0469V10.0312V10.0156V10V9.98438V9.96875V9.95312V9.9375V9.92188V9.90625V9.89062V9.875V9.85938V9.84375V9.82812V9.8125V9.79688V9.78125V9.76562V9.75V9.73438V9.71875V9.70312V9.6875V9.67188V9.65625V9.64062V9.625V9.60938V9.59375V9.57812V9.5625V9.54688V9.53125V9.51562V9.5V9.48438V9.46875V9.45312V9.4375V9.42188V9.40625V9.39062V9.375V9.35938V9.34375V9.32812V9.3125V9.29688V9.28125V9.26562V9.25V9.23438V9.21875V9.20312V9.1875V9.17188V9.15625V9.14062V9.125V9.10938V9.09375V9.07812V9.0625V9.04688V9.03125V9.01562V9H16.001V6H14.6558L14.133 2.86072C14.6456 2.62222 15.001 2.10261 15.001 1.5C15.001 0.671573 14.3294 0 13.501 0C12.6725 0 12.001 0.671573 12.001 1.5C12.001 2.27537 12.5893 2.91333 13.3439 2.99187L13.8184 5.84186C13.5432 5.49285 13.2187 5.10898 12.8535 4.7245C11.655 3.46296 9.92813 2.1 8.00098 2.1C6.07382 2.1 4.34694 3.46296 3.14848 4.7245C2.78283 5.10939 2.4581 5.49367 2.18267 5.84297L2.65784 2.9919ZM12.2735 5.2755C12.5395 5.55554 12.7833 5.83593 13.001 6.10174V9H14.101V9.01562V9.03125V9.04688V9.0625V9.07812V9.09375V9.10938V9.125V9.14062V9.15625V9.17188V9.1875V9.20312V9.21875V9.23438V9.25V9.26562V9.28125V9.29688V9.3125V9.32812V9.34375V9.35938V9.375V9.39062V9.40625V9.42188V9.4375V9.45312V9.46875V9.48438V9.5V9.51562V9.53125V9.54688V9.5625V9.57812V9.59375V9.60938V9.625V9.64062V9.65625V9.67188V9.6875V9.70312V9.71875V9.73438V9.75V9.76562V9.78125V9.79688V9.8125V9.82812V9.84375V9.85938V9.875V9.89062V9.90625V9.92188V9.9375V9.95312V9.96875V9.98438V10V10.0156V10.0312V10.0469V10.0625V10.0781V10.0938V10.1094V10.125V10.1406V10.1562V10.1719V10.1875V10.2031V10.2188V10.2344V10.25V10.2656V10.2812V10.2969V10.3125V10.3281V10.3438V10.3594V10.375V10.3906V10.4062V10.4219V10.4375V10.4531V10.4688V10.4844V10.5V10.5156V10.5312V10.5469V10.5625V10.5781V10.5938V10.6094V10.625V10.6406V10.6562V10.6719V10.6875V10.7031V10.7188V10.7344V10.75V10.7656V10.7812V10.7969V10.8125V10.8281V10.8438V10.8594V10.875V10.8906V10.9062V10.9219V10.9375V10.9531V10.9688V10.9844V11V11.0156V11.0312V11.0469V11.0625V11.0781V11.0938V11.1094V11.125V11.1406V11.1562V11.1719V11.1875V11.2031V11.2188V11.2344V11.25V11.2656V11.2812V11.2969V11.3125V11.3281V11.3438V11.3594V11.375V11.3906V11.4062V11.4219V11.4375V11.4531V11.4688V11.4844V11.5V11.5156V11.5312V11.5469V11.5625V11.5781V11.5938V11.6094V11.625V11.6406V11.6562V11.6719V11.6875V11.7031V11.7188V11.7344V11.75V11.7656V11.7812V11.7969V11.8125V11.8281V11.8438V11.8594V11.875V11.8906V11.9062V11.9219V11.9375V11.9531V11.9688V11.9844V12V12.0156V12.0312V12.0469V12.0625V12.0781V12.0938V12.1094V12.125V12.1406V12.1562V12.1719V12.1875V12.2031V12.2188V12.2344V12.25V12.2656V12.2812V12.2969V12.3125V12.3281V12.3438V12.3594V12.375V12.3906V12.4062V12.4219V12.4375V12.4531V12.4688V12.4844V12.5V12.5156V12.5312V12.5469V12.5625V12.5781V12.5938V12.6094V12.625V12.6406V12.6562V12.6719V12.6875V12.7031V12.7188V12.7344V12.75V12.7656V12.7812V12.7969V12.8125V12.8281V12.8438V12.8594V12.875V12.8906V12.9062V12.9219V12.9375V12.9531V12.9688V12.9844V13V13.0156V13.0312V13.0469V13.0625V13.0781V13.0938V13.1094V13.125V13.1406V13.1562V13.1719V13.1875V13.2031V13.2188V13.2344V13.25V13.2656V13.2812V13.2969V13.3125V13.3281V13.3438V13.3594V13.375V13.3906V13.4062V13.4219V13.4375V13.4531V13.4688V13.4844V13.5V13.5156V13.5312V13.5469V13.5625V13.5781V13.5938V13.6094V13.625V13.6406V13.6562V13.6719V13.6875V13.7031V13.7188V13.7344V13.75V13.7656V13.7812V13.7969V13.8125V13.8281V13.8438V13.8594V13.875V13.8906V13.9062V13.9219V13.9375V13.9531V13.9688V13.9844V14V14.0156V14.0312V14.0469V14.0625V14.0781V14.0938V14.1094V14.125V14.1406V14.1562V14.1719V14.1875V14.2031V14.2188V14.2344V14.25V14.2656V14.2812V14.2969V14.3125V14.3281V14.3438V14.3594V14.375V14.3906V14.4062V14.4219V14.4375V14.4531V14.4688V14.4844V14.5V14.5156V14.5312V14.5469V14.5625V14.5781V14.5938V14.6094V14.625V14.6406V14.6562V14.6719V14.6875V14.7031V14.7188V14.7344V14.75V14.7656V14.7812V14.7969V14.8125V14.8281V14.8438V14.8594V14.875V14.8906V14.9062V14.9219V14.9375V14.9531V14.9688V14.9844V15V15.0156V15.0312V15.0469V15.0625V15.0781V15.0938V15.1H1.90098V15.0938V15.0781V15.0625V15.0469V15.0312V15.0156V15V14.9844V14.9688V14.9531V14.9375V14.9219V14.9062V14.8906V14.875V14.8594V14.8438V14.8281V14.8125V14.7969V14.7812V14.7656V14.75V14.7344V14.7188V14.7031V14.6875V14.6719V14.6562V14.6406V14.625V14.6094V14.5938V14.5781V14.5625V14.5469V14.5312V14.5156V14.5V14.4844V14.4688V14.4531V14.4375V14.4219V14.4062V14.3906V14.375V14.3594V14.3438V14.3281V14.3125V14.2969V14.2812V14.2656V14.25V14.2344V14.2188V14.2031V14.1875V14.1719V14.1562V14.1406V14.125V14.1094V14.0938V14.0781V14.0625V14.0469V14.0312V14.0156V14V13.9844V13.9688V13.9531V13.9375V13.9219V13.9062V13.8906V13.875V13.8594V13.8438V13.8281V13.8125V13.7969V13.7812V13.7656V13.75V13.7344V13.7188V13.7031V13.6875V13.6719V13.6562V13.6406V13.625V13.6094V13.5938V13.5781V13.5625V13.5469V13.5312V13.5156V13.5V13.4844V13.4688V13.4531V13.4375V13.4219V13.4062V13.3906V13.375V13.3594V13.3438V13.3281V13.3125V13.2969V13.2812V13.2656V13.25V13.2344V13.2188V13.2031V13.1875V13.1719V13.1562V13.1406V13.125V13.1094V13.0938V13.0781V13.0625V13.0469V13.0312V13.0156V13V12.9844V12.9688V12.9531V12.9375V12.9219V12.9062V12.8906V12.875V12.8594V12.8438V12.8281V12.8125V12.7969V12.7812V12.7656V12.75V12.7344V12.7188V12.7031V12.6875V12.6719V12.6562V12.6406V12.625V12.6094V12.5938V12.5781V12.5625V12.5469V12.5312V12.5156V12.5V12.4844V12.4688V12.4531V12.4375V12.4219V12.4062V12.3906V12.375V12.3594V12.3438V12.3281V12.3125V12.2969V12.2812V12.2656V12.25V12.2344V12.2188V12.2031V12.1875V12.1719V12.1562V12.1406V12.125V12.1094V12.0938V12.0781V12.0625V12.0469V12.0312V12.0156V12V11.9844V11.9688V11.9531V11.9375V11.9219V11.9062V11.8906V11.875V11.8594V11.8438V11.8281V11.8125V11.7969V11.7812V11.7656V11.75V11.7344V11.7188V11.7031V11.6875V11.6719V11.6562V11.6406V11.625V11.6094V11.5938V11.5781V11.5625V11.5469V11.5312V11.5156V11.5V11.4844V11.4688V11.4531V11.4375V11.4219V11.4062V11.3906V11.375V11.3594V11.3438V11.3281V11.3125V11.2969V11.2812V11.2656V11.25V11.2344V11.2188V11.2031V11.1875V11.1719V11.1562V11.1406V11.125V11.1094V11.0938V11.0781V11.0625V11.0469V11.0312V11.0156V11V10.9844V10.9688V10.9531V10.9375V10.9219V10.9062V10.8906V10.875V10.8594V10.8438V10.8281V10.8125V10.7969V10.7812V10.7656V10.75V10.7344V10.7188V10.7031V10.6875V10.6719V10.6562V10.6406V10.625V10.6094V10.5938V10.5781V10.5625V10.5469V10.5312V10.5156V10.5V10.4844V10.4688V10.4531V10.4375V10.4219V10.4062V10.3906V10.375V10.3594V10.3438V10.3281V10.3125V10.2969V10.2812V10.2656V10.25V10.2344V10.2188V10.2031V10.1875V10.1719V10.1562V10.1406V10.125V10.1094V10.0938V10.0781V10.0625V10.0469V10.0312V10.0156V10V9.98438V9.96875V9.95312V9.9375V9.92188V9.90625V9.89062V9.875V9.85938V9.84375V9.82812V9.8125V9.79688V9.78125V9.76562V9.75V9.73438V9.71875V9.70312V9.6875V9.67188V9.65625V9.64062V9.625V9.60938V9.59375V9.57812V9.5625V9.54688V9.53125V9.51562V9.5V9.48438V9.46875V9.45312V9.4375V9.42188V9.40625V9.39062V9.375V9.35938V9.34375V9.32812V9.3125V9.29688V9.28125V9.26562V9.25V9.23438V9.21875V9.20312V9.1875V9.17188V9.15625V9.14062V9.125V9.10938V9.09375V9.07812V9.0625V9.04688V9.03125V9.01562V9H3.00098V6.10174C3.21866 5.83593 3.46244 5.55554 3.72848 5.2755C4.90501 4.03704 6.42813 2.9 8.00098 2.9C9.57382 2.9 11.0969 4.03704 12.2735 5.2755ZM3.00098 1.5C3.00098 1.77614 2.77712 2 2.50098 2C2.22483 2 2.00098 1.77614 2.00098 1.5C2.00098 1.22386 2.22483 1 2.50098 1C2.77712 1 3.00098 1.22386 3.00098 1.5ZM1.00098 7H2.00098V8H1.00098V7ZM13.501 2C13.7771 2 14.001 1.77614 14.001 1.5C14.001 1.22386 13.7771 1 13.501 1C13.2248 1 13.001 1.22386 13.001 1.5C13.001 1.77614 13.2248 2 13.501 2ZM14.001 7H15.001V8H14.001V7Z" fill="black"/>
</g>
<defs>
<clipPath id="clip0_241_9489">
<rect width="16" height="16" fill="white"/>
</clipPath>
</defs>
</svg>
