<svg width="16" height="16" viewBox="0 0 16 16" fill="none" xmlns="http://www.w3.org/2000/svg">
<g id="exchange-positions-zorder">
<rect id="neutral" opacity="0.3" x="5" y="2" width="8" height="3" rx="0.5" fill="black"/>
<path id="Union" fill-rule="evenodd" clip-rule="evenodd" d="M6 3V4H12V3H6ZM5.5 2C5.22386 2 5 2.22386 5 2.5V4.5C5 4.77614 5.22386 5 5.5 5H12.5C12.7761 5 13 4.77614 13 4.5V2.5C13 2.22386 12.7761 2 12.5 2H5.5ZM4 8V9H10V8H4ZM3.5 7C3.22386 7 3 7.22386 3 7.5V9.5C3 9.77614 3.22386 10 3.5 10H10.5C10.7761 10 11 9.77614 11 9.5V7.5C11 7.22386 10.7761 7 10.5 7H3.5ZM2 14V13H8V14H2ZM1 12.5C1 12.2239 1.22386 12 1.5 12H8.5C8.77614 12 9 12.2239 9 12.5V14.5C9 14.7761 8.77614 15 8.5 15H1.5C1.22386 15 1 14.7761 1 14.5V12.5ZM14 12H15.1263C15.286 12 15.3813 11.822 15.2927 11.6891L13.6664 9.24961C13.5872 9.13087 13.4128 9.13087 13.3336 9.24962L11.7073 11.6891C11.6187 11.822 11.714 12 11.8737 12H13V14C13 14.2761 13.2239 14.5 13.5 14.5C13.7761 14.5 14 14.2761 14 14V12Z" fill="black"/>
</g>
</svg>
