<svg width="16" height="16" viewBox="0 0 16 16" fill="none" xmlns="http://www.w3.org/2000/svg">
<g id="exchange-positions-clockwise">
<rect id="rectangle" opacity="0.3" width="5" height="5" rx="0.5" transform="matrix(1 0 0 -1 2 14)" fill="black"/>
<path id="Union" fill-rule="evenodd" clip-rule="evenodd" d="M10 6H13V3H10V6ZM9 6.5C9 6.77614 9.22386 7 9.5 7H13.5C13.7761 7 14 6.77614 14 6.5V2.5C14 2.22386 13.7761 2 13.5 2H9.5C9.22386 2 9 2.22386 9 2.5V6.5ZM3 10V13H6V10H3ZM2 13.5C2 13.7761 2.22386 14 2.5 14H6.5C6.77614 14 7 13.7761 7 13.5V9.5C7 9.22386 6.77614 9 6.5 9H2.5C2.22386 9 2 9.22386 2 9.5V13.5ZM7.5 3.5C7.5 3.22386 7.27614 3 7 3H5C4.17157 3 3.5 3.67157 3.5 4.5V5H2.3737C2.21396 5 2.11869 5.17803 2.20729 5.31094L3.83359 7.75039C3.91275 7.86913 4.08725 7.86913 4.16641 7.75038L5.79271 5.31094C5.88131 5.17803 5.78604 5 5.6263 5H4.5V4.5C4.5 4.22386 4.72386 4 5 4H7C7.27614 4 7.5 3.77614 7.5 3.5ZM8.5 12.5C8.5 12.2239 8.72386 12 9 12H11C11.2761 12 11.5 11.7761 11.5 11.5V11H10.3737C10.214 11 10.1187 10.822 10.2073 10.6891L11.8336 8.24962C11.9128 8.13087 12.0872 8.13087 12.1664 8.24962L13.7927 10.6891C13.8813 10.822 13.786 11 13.6263 11H12.5V11.5C12.5 12.3284 11.8284 13 11 13H9C8.72386 13 8.5 12.7761 8.5 12.5Z" fill="black"/>
</g>
</svg>
