<svg width="16" height="16" viewBox="0 0 16 16" fill="none" xmlns="http://www.w3.org/2000/svg">
<g id="experimental">
<g id="Union">
<mask id="path-1-inside-1_241_9488" fill="white">
<path fill-rule="evenodd" clip-rule="evenodd" d="M11.0008 2.5C11.0008 1.67157 10.3292 1 9.50078 1H6.50078C5.67236 1 5.00078 1.67157 5.00078 2.5V3.62866C5.00078 3.83375 5.16704 4 5.37212 4H5.66452C5.84135 4 5.94971 4.20282 5.87603 4.36356L2.29946 12.1667C1.69224 13.4914 2.66027 15 4.11757 15H11.8841C13.3414 15 14.3094 13.4915 13.7023 12.1667L10.126 4.36363C10.0523 4.20285 10.1607 4 10.3376 4H10.6296C10.8346 4 11.0008 3.83381 11.0008 3.62881V2.5Z"/>
</mask>
<path d="M6.50078 2H9.50078V0H6.50078V2ZM6.00078 3.62866V2.5H4.00078V3.62866H6.00078ZM5.66452 3H5.37212V5H5.66452V3ZM3.20851 12.5833L6.78509 4.78023L4.96698 3.94689L1.3904 11.75L3.20851 12.5833ZM11.8841 14H4.11757V16H11.8841V14ZM9.21693 4.78027L12.7932 12.5834L14.6113 11.7501L11.0351 3.94699L9.21693 4.78027ZM10.6296 3H10.3376V5H10.6296V3ZM10.0008 2.5V3.62881H12.0008V2.5H10.0008ZM10.6296 5C11.3869 5 12.0008 4.3861 12.0008 3.62881H10.0008C10.0008 3.28153 10.2823 3 10.6296 3V5ZM11.0351 3.94699C11.1436 4.1838 11.1117 4.43057 11.0085 4.6133C10.9008 4.80414 10.6662 5 10.3376 5V3C9.83209 3 9.45487 3.29729 9.2671 3.62975C9.08391 3.9541 9.03471 4.38269 9.21693 4.78027L11.0351 3.94699ZM11.8841 16C14.07 16 15.5221 13.7372 14.6113 11.7501L12.7932 12.5834C13.0968 13.2457 12.6128 14 11.8841 14V16ZM5.66452 5C5.33591 5 5.10129 4.80413 4.99349 4.61327C4.89028 4.43052 4.85843 4.18372 4.96698 3.94689L6.78509 4.78023C6.96732 4.38266 6.91813 3.95408 6.73495 3.62974C6.54718 3.29727 6.16996 3 5.66452 3V5ZM4.00078 3.62866C4.00078 4.38603 4.61475 5 5.37212 5V3C5.71932 3 6.00078 3.28146 6.00078 3.62866H4.00078ZM9.50078 2C9.77693 2 10.0008 2.22386 10.0008 2.5H12.0008C12.0008 1.11929 10.8815 0 9.50078 0V2ZM1.3904 11.75C0.479576 13.7372 1.93161 16 4.11757 16V14C3.38892 14 2.90491 13.2457 3.20851 12.5833L1.3904 11.75ZM6.50078 0C5.12007 0 4.00078 1.11929 4.00078 2.5H6.00078C6.00078 2.22386 6.22464 2 6.50078 2V0Z" fill="black" mask="url(#path-1-inside-1_241_9488)"/>
</g>
<path class="warning" d="M5.50098 9H10.501L12.501 13.5H3.50098L5.50098 9Z" fill="#9E9E9E"/>
</g>
</svg>
