<svg width="16" height="16" viewBox="0 0 16 16" fill="none" xmlns="http://www.w3.org/2000/svg">
<g id="export-single">
<path id="Union" fill-rule="evenodd" clip-rule="evenodd" d="M13 3H3L3 13H13V3ZM3 2C2.44772 2 2 2.44772 2 3V13C2 13.5523 2.44772 14 3 14H13C13.5523 14 14 13.5523 14 13V3C14 2.44772 13.5523 2 13 2H3Z" fill="black"/>
<path id="Union_2" opacity="0.6" fill-rule="evenodd" clip-rule="evenodd" d="M6 7C6.55228 7 7 6.55228 7 6C7 5.44772 6.55228 5 6 5C5.44772 5 5 5.44772 5 6C5 6.55228 5.44772 7 6 7ZM4 12H12V8L10 6L7 9L6 8L4 10V12Z" fill="black"/>
</g>
</svg>
