<svg width="16" height="16" viewBox="0 0 16 16" fill="none" xmlns="http://www.w3.org/2000/svg">
<g id="export-multi">
<path id="Subtract" opacity="0.3" fill-rule="evenodd" clip-rule="evenodd" d="M4 13L10.8462 14.8344C11.9131 15.1203 13.0098 14.4871 13.2957 13.4202L15.1074 6.65871C15.3933 5.59177 14.7602 4.4951 13.6932 4.20922L12.9999 4.02344V11C12.9999 12.1045 12.1045 13 10.9999 13H4Z" fill="black"/>
<path id="Union" opacity="0.6" fill-rule="evenodd" clip-rule="evenodd" d="M5 6C5.55228 6 6 5.55228 6 5C6 4.44772 5.55228 4 5 4C4.44772 4 4 4.44772 4 5C4 5.55228 4.44772 6 5 6ZM3 11H11V7L9 5L6 8L5 7L3 9V11Z" fill="black"/>
<path id="Union_2" fill-rule="evenodd" clip-rule="evenodd" d="M2 2H12V3.87873C11.9998 3.88614 11.9998 3.89353 12 3.90091V11C12 11.5523 11.5523 12 11 12H2L2 2ZM13 4.54111V11C13 12.1046 12.1046 13 11 13H5.93196L10.9757 14.3515C11.7759 14.5659 12.5984 14.091 12.8128 13.2908L14.6246 6.52933C14.839 5.72914 14.3641 4.90663 13.5639 4.69222L13 4.54111ZM2.06826 13H2C1.44772 13 1 12.5523 1 12V2C1 1.44772 1.44772 1 2 1H12C12.5523 1 13 1.44772 13 2V3.50584L13.8227 3.72629C15.1564 4.08365 15.9479 5.45449 15.5905 6.78815L13.7788 13.5496C13.4214 14.8833 12.0506 15.6748 10.7169 15.3174L2.06826 13Z" fill="black"/>
</g>
</svg>
