<svg width="16" height="16" viewBox="0 0 16 16" fill="none" xmlns="http://www.w3.org/2000/svg">
<g id="file-link">
<path id="Union" fill-rule="evenodd" clip-rule="evenodd" d="M3.00195 2C2.44967 2 2.00195 2.44772 2.00195 3V13C2.00195 13.5523 2.44967 14 3.00195 14H6.50195C6.7781 14 7.00195 13.7761 7.00195 13.5C7.00195 13.2239 6.7781 13 6.50195 13H3.00195V3L7.00195 3V6C7.00195 6.55228 7.44967 7 8.00195 7H11.002C11.002 7.27614 11.2258 7.5 11.502 7.5C11.7781 7.5 12.002 7.27614 12.002 7V6.70711C12.002 6.44189 11.8966 6.18754 11.7091 6L8.00195 2.29289C7.81442 2.10536 7.56006 2 7.29485 2H3.00195ZM10.2948 6L8.00195 3.70711V6H10.2948Z" fill="black"/>
<path id="neutral" fill-rule="evenodd" clip-rule="evenodd" d="M11.0968 8.81946C10.1917 7.91435 8.72425 7.91435 7.81918 8.81946C6.91411 9.72456 6.91412 11.192 7.81918 12.0971L8.63442 12.9124C8.82967 13.1077 9.14626 13.1077 9.34152 12.9124C9.53679 12.7171 9.5368 12.4006 9.34154 12.2053L8.5263 11.39C8.01174 10.8754 8.01174 10.0411 8.5263 9.52655C9.04085 9.01198 9.87508 9.01198 10.3896 9.52655L11.2049 10.3418C11.4001 10.5371 11.7167 10.5371 11.912 10.3418C12.1072 10.1466 12.1072 9.83 11.912 9.63473L11.0968 8.81946ZM13.3661 11.0889C13.1708 10.8936 12.8542 10.8936 12.659 11.0888C12.4637 11.2841 12.4637 11.6007 12.6589 11.796L13.4742 12.6112C13.9887 13.1258 13.9887 13.9601 13.4742 14.4747C12.9596 14.9893 12.1254 14.9893 11.6108 14.4747L10.7956 13.6594C10.6003 13.4642 10.2838 13.4642 10.0885 13.6594C9.89323 13.8547 9.89323 14.1713 10.0885 14.3665L10.9037 15.1818C11.8088 16.0869 13.2762 16.0869 14.1813 15.1818C15.0864 14.2767 15.0864 12.8092 14.1813 11.9041L13.3661 11.0889ZM10.0689 10.3613C9.87364 10.166 9.55705 10.166 9.36179 10.3613C9.16652 10.5565 9.16651 10.8731 9.36177 11.0684L11.9322 13.639C12.1275 13.8342 12.4441 13.8342 12.6393 13.639C12.8346 13.4437 12.8346 13.1271 12.6393 12.9319L10.0689 10.3613Z" fill="black"/>
</g>
</svg>
