<svg width="16" height="16" viewBox="0 0 16 16" fill="none" xmlns="http://www.w3.org/2000/svg">
<g id="fill-rule-nonzero" clip-path="url(#clip0_241_9678)">
<g id="Vector" opacity="0.3">
<path d="M5.68513 5.55286C6.43663 5.48752 7.22022 5.44619 8.00008 5.44619C8.77995 5.44619 9.56355 5.48752 10.3151 5.55286C9.50725 3.64683 8.60216 2.02649 8.16911 1.28532C8.09303 1.15511 7.90722 1.15511 7.83114 1.28531C7.39817 2.02631 6.49302 3.6467 5.68513 5.55286Z" fill="black"/>
<path d="M4.25443 9.95607C4.42452 9.22119 4.62735 8.4632 4.86833 7.72154C5.10932 6.97985 5.39077 6.24739 5.68513 5.55286C3.62275 5.73216 1.80205 6.09225 0.963461 6.27505C0.81612 6.30717 0.7587 6.48389 0.859023 6.59648C1.43001 7.23728 2.69132 8.59877 4.25443 9.95607Z" fill="black"/>
<path d="M8.00004 12.6774C7.35368 12.2886 6.69547 11.8614 6.06457 11.4031C5.43365 10.9447 4.82401 10.4506 4.25443 9.95607C3.78764 11.9729 3.56748 13.8158 3.48219 14.6698C3.46721 14.8199 3.61753 14.9291 3.75561 14.8685C4.54151 14.5235 6.22614 13.7446 8.00004 12.6774Z" fill="black"/>
<path d="M11.7457 9.95604C11.1761 10.4506 10.5665 10.9446 9.93554 11.403C9.30463 11.8614 8.64641 12.2886 8.00004 12.6774C9.77394 13.7446 11.4586 14.5235 12.2445 14.8685C12.3826 14.9291 12.5329 14.8199 12.5179 14.6699C12.4326 13.816 12.2125 11.973 11.7457 9.95604Z" fill="black"/>
<path d="M15.1411 6.59647C15.2414 6.48388 15.184 6.30716 15.0366 6.27504C14.198 6.09223 12.3774 5.73216 10.3151 5.55286C10.6094 6.2473 10.8908 6.97966 11.1317 7.72124C11.3727 8.46299 11.5756 9.22107 11.7457 9.95604C13.3088 8.59875 14.5701 7.23727 15.1411 6.59647Z" fill="black"/>
</g>
<path id="Union" fill-rule="evenodd" clip-rule="evenodd" d="M7.39945 1.03291C7.66855 0.572354 8.33176 0.572373 8.60084 1.03291C9.0187 1.74808 9.86952 3.2695 10.6571 5.08192C12.6242 5.27093 14.334 5.60996 15.1432 5.78635C15.6643 5.89995 15.8693 6.5307 15.5144 6.92894C14.9635 7.54726 13.7795 8.82656 12.2991 10.1357C12.7273 12.0651 12.9332 13.7961 13.0155 14.62C13.0685 15.1508 12.5319 15.5406 12.0435 15.3262C11.2852 14.9932 9.7026 14.2625 8.00007 13.2592C6.29754 14.2625 4.71495 14.9932 3.95663 15.3262C3.46823 15.5406 2.93169 15.1508 2.98469 14.62C3.06699 13.7959 3.27292 12.065 3.70103 10.1357C2.2207 8.82658 1.0367 7.54727 0.485744 6.92895C0.130893 6.53071 0.335834 5.89997 0.856993 5.78636C1.66616 5.60997 3.376 5.27093 5.34312 5.08192C6.1308 3.26937 6.98168 1.7479 7.39945 1.03291ZM4.90849 6.13256C3.56169 6.28348 2.37432 6.49622 1.5868 6.6551C2.13053 7.24652 2.96608 8.11655 3.96696 9.03028C4.09364 8.54374 4.23507 8.05239 4.39283 7.56687C4.55059 7.08133 4.72498 6.60066 4.90849 6.13256ZM4.81104 9.77506C4.96343 9.14477 5.13998 8.50344 5.34388 7.87589C5.5478 7.24831 5.78194 6.62566 6.02914 6.02615C6.6757 5.97631 7.34023 5.94603 8.00011 5.94603C8.65999 5.94603 9.32453 5.97631 9.9711 6.02615C10.2183 6.62557 10.4524 7.24812 10.6562 7.87559C10.8602 8.50322 11.0367 9.14465 11.1891 9.77503C10.6954 10.1954 10.1755 10.6105 9.64167 10.9984C9.10783 11.3862 8.55243 11.7523 8.00007 12.092C7.44771 11.7523 6.89232 11.3862 6.35849 10.9984C5.82464 10.6105 5.30482 10.1954 4.81104 9.77506ZM4.56594 10.8737C4.29328 12.2013 4.12869 13.3963 4.03643 14.1944C4.76694 13.86 5.8526 13.3342 7.0309 12.6646C6.60731 12.3938 6.18371 12.1075 5.77071 11.8074C5.35768 11.5073 4.95442 11.1929 4.56594 10.8737ZM8.96923 12.6647C10.1475 13.3342 11.2332 13.86 11.9637 14.1944C11.8715 13.3963 11.7069 12.2013 11.4342 10.8737C11.0457 11.1929 10.6425 11.5073 10.2295 11.8074C9.81644 12.1075 9.39283 12.3938 8.96923 12.6647ZM12.0332 9.03024C13.0341 8.11653 13.8696 7.24651 14.4134 6.65509C13.6258 6.49621 12.4385 6.28347 11.0917 6.13256C11.2752 6.60057 11.4496 7.08113 11.6073 7.56657C11.7651 8.05217 11.9065 8.54361 12.0332 9.03024ZM9.52361 4.99324C9.0217 4.96335 8.51065 4.94603 8.00011 4.94603C7.48958 4.94603 6.97854 4.96335 6.47664 4.99323C7.0364 3.7589 7.60568 2.69533 8.00014 1.99545C8.39463 2.69539 8.96389 3.75895 9.52361 4.99324Z" fill="black"/>
</g>
<defs>
<clipPath id="clip0_241_9678">
<rect width="16" height="16" fill="white"/>
</clipPath>
</defs>
</svg>
