<svg width="16" height="16" viewBox="0 0 16 16" fill="none" xmlns="http://www.w3.org/2000/svg">
<g id="fill-between-many">
<path class="warning" d="M2.5 13.5L3.9306 13.0912C5.23426 12.7188 6.63711 12.9778 7.72176 13.7913C9.10468 14.8285 10.9717 14.9447 12.4726 14.0871C13.1289 13.712 13.6037 13.0853 13.787 12.352L14.4999 9.50014L13.5082 9.07512C12.0464 8.44861 11.2232 6.88375 11.5351 5.32419C11.8139 3.9304 11.1864 2.51184 9.96751 1.78057C9.6615 1.59698 9.31136 1.50001 8.95451 1.50003L5.50005 1.50021L5.59262 2.09611C5.81167 3.50623 5.00962 4.87614 3.67273 5.37529C2.64152 5.7603 1.90304 6.67792 1.74741 7.7676C1.58402 8.91166 1.64414 10.0765 1.92443 11.1977L2.5 13.5Z" fill="#9E9E9E"/>
<path id="Union" fill-rule="evenodd" clip-rule="evenodd" d="M11.0449 5.22621C11.2822 4.03962 10.748 2.83195 9.71033 2.2094L9.24269 1.92883C9.00589 1.78676 8.9291 1.47963 9.07117 1.24284C9.21324 1.00605 9.52037 0.929254 9.75716 1.07132L10.2248 1.35189C11.6249 2.19187 12.3457 3.82132 12.0255 5.42233C11.7599 6.75004 12.4607 8.08225 13.7053 8.61562L14.697 9.04064C14.9508 9.14942 15.0684 9.44336 14.9596 9.69717C14.8508 9.95099 14.5569 10.0686 14.303 9.95978L13.3113 9.53477C11.6322 8.81512 10.6866 7.01762 11.0449 5.22621ZM8.02183 13.3914C9.24521 14.3089 10.8968 14.4117 12.2246 13.653L13.252 13.0659C13.4918 12.9289 13.7972 13.0122 13.9342 13.252C14.0712 13.4918 13.9879 13.7972 13.7481 13.9342L12.7207 14.5213C11.0467 15.4779 8.96428 15.3482 7.42183 14.1914C6.4623 13.4717 5.22129 13.2426 4.06803 13.5721L2.63742 13.9808C2.37191 14.0567 2.09516 13.9029 2.0193 13.6374C1.94344 13.3719 2.09719 13.0952 2.3627 13.0193L3.79331 12.6106C5.24736 12.1951 6.81204 12.484 8.02183 13.3914ZM2.24245 7.83837C2.3722 6.92984 2.98792 6.16479 3.84769 5.84378C5.40683 5.26165 6.34223 3.66399 6.08676 2.01944L5.99419 1.42353C5.9518 1.15066 5.69623 0.963819 5.42336 1.00621C5.15049 1.0486 4.96365 1.30416 5.00604 1.57703L5.09861 2.17294C5.28124 3.34862 4.61253 4.49078 3.49791 4.90695C2.29526 5.35597 1.43399 6.42614 1.2525 7.69698L1.00509 9.42937C0.966045 9.70274 1.156 9.956 1.42937 9.99504C1.70274 10.0341 1.956 9.84412 1.99504 9.57075L2.24245 7.83837Z" fill="black"/>
</g>
</svg>
