<svg width="16" height="16" viewBox="0 0 16 16" fill="none" xmlns="http://www.w3.org/2000/svg">
<g id="fill-between-strokes">
<path class="warning" d="M13.4544 14.43L12.5896 13.274C11.2 11.4165 11.3015 8.83953 12.8328 7.097C14.1443 5.60466 14.4262 3.46868 13.5468 1.68719C13.4902 1.57257 13.3735 1.5 13.2457 1.5H3.66317C3.567 1.5 3.50425 1.60095 3.54682 1.68719C4.4262 3.46868 4.14429 5.60466 2.83282 7.097C1.30147 8.83953 1.20003 11.4165 2.58965 13.274L3.45442 14.43H13.4544Z" fill="#9E9E9E"/>
<path id="Union" fill-rule="evenodd" clip-rule="evenodd" d="M3.09847 1.90862C3.88822 3.50853 3.63505 5.42682 2.45724 6.76705C0.769818 8.68719 0.658031 11.5268 2.18928 13.5737L3.05406 14.7296C3.21948 14.9507 3.53282 14.9959 3.75394 14.8305C3.97505 14.6651 4.0202 14.3517 3.85479 14.1306L2.99001 12.9746C1.74202 11.3064 1.83313 8.99211 3.2084 7.42717C4.65354 5.78274 4.96418 3.42904 3.99517 1.46598L3.90277 1.2788C3.78054 1.03118 3.48072 0.92953 3.23311 1.05176C2.98549 1.17399 2.88384 1.47381 3.00607 1.72143L3.09847 1.90862ZM13.0985 1.90862C13.8882 3.50853 13.635 5.42682 12.4572 6.76705C10.7698 8.68719 10.658 11.5268 12.1893 13.5737L13.0541 14.7296C13.2195 14.9507 13.5328 14.9959 13.7539 14.8305C13.9751 14.6651 14.0202 14.3517 13.8548 14.1306L12.99 12.9746C11.742 11.3064 11.8331 8.99211 13.2084 7.42717C14.6535 5.78274 14.9642 3.42904 13.9952 1.46598L13.9028 1.2788C13.7805 1.03118 13.4807 0.92953 13.2331 1.05176C12.9855 1.17399 12.8838 1.47381 13.0061 1.72143L13.0985 1.90862Z" fill="black"/>
</g>
</svg>
