<svg width="16" height="16" viewBox="0 0 16 16" fill="none" xmlns="http://www.w3.org/2000/svg">
<g id="flatten-down" clip-path="url(#clip0_241_9512)">
<path id="Union" fill-rule="evenodd" clip-rule="evenodd" d="M8.00098 0.399902C8.33235 0.399902 8.60098 0.668532 8.60098 0.999902V6.55137L10.5767 4.57564C10.811 4.34132 11.1909 4.34132 11.4252 4.57564C11.6596 4.80995 11.6596 5.18985 11.4252 5.42417L8.4254 8.42401L8.42524 8.42417L8.00098 8.84843L7.57671 8.42417L4.57671 5.42417C4.3424 5.18985 4.3424 4.80995 4.57671 4.57564C4.81103 4.34132 5.19093 4.34132 5.42524 4.57564L7.40098 6.55137V0.999902C7.40098 0.668532 7.66961 0.399902 8.00098 0.399902ZM3.18081 6.17959L3.91375 6.91252L2.00873 8.0011L8.00095 11.4252L13.9932 8.0011L12.0882 6.91254L12.8211 6.17961L15.249 7.56698L16.0087 8.0011L15.249 8.43523L13.3862 9.49966L15.249 10.5641L16.0087 10.9982L15.249 11.4323L8.24902 15.4323L8.00095 15.5741L7.75288 15.4323L0.752877 11.4323L-0.00683594 10.9982L0.752877 10.5641L2.61564 9.49966L0.752877 8.43523L-0.00683594 8.0011L0.752877 7.56698L3.18081 6.17959ZM3.62343 10.0755L2.00873 10.9982L8.00095 14.4223L13.9932 10.9982L12.3785 10.0755L8.24902 12.4352L8.00095 12.577L7.75288 12.4352L3.62343 10.0755Z" fill="black"/>
</g>
<defs>
<clipPath id="clip0_241_9512">
<rect width="16" height="16" fill="white"/>
</clipPath>
</defs>
</svg>
