<svg width="16" height="16" viewBox="0 0 16 16" fill="none" xmlns="http://www.w3.org/2000/svg">
<g id="flatten" clip-path="url(#clip0_241_9481)">
<path id="Union" fill-rule="evenodd" clip-rule="evenodd" d="M8.00098 0.499902C8.27712 0.499902 8.50098 0.72376 8.50098 0.999902V6.7928L10.6474 4.64635C10.8427 4.45109 11.1593 4.45109 11.3545 4.64635C11.5498 4.84161 11.5498 5.15819 11.3545 5.35346L8.35453 8.35346L8.00098 8.70701L7.64795 8.35399C7.64762 8.35365 7.64729 8.35332 7.64696 8.35299L4.64742 5.35346C4.45216 5.15819 4.45216 4.84161 4.64742 4.64635C4.84269 4.45109 5.15927 4.45109 5.35453 4.64635L7.50098 6.7928V0.999902C7.50098 0.72376 7.72483 0.499902 8.00098 0.499902ZM3.18081 6.17812L3.91375 6.91106L2.00873 7.99964L8.00095 11.4238L13.9932 7.99964L12.0882 6.91108L12.8211 6.17815L15.249 7.56552L16.0087 7.99964L15.249 8.43376L13.3837 9.49966L15.249 10.5656L16.0087 10.9997L15.249 11.4338L8.24902 15.4338L8.00095 15.5756L7.75288 15.4338L0.752877 11.4338L-0.00683594 10.9997L0.752877 10.5656L2.61821 9.49966L0.752877 8.43376L-0.00683594 7.99964L0.752877 7.56552L3.18081 6.17812ZM3.62599 10.0755L2.00873 10.9997L8.00095 14.4238L13.9932 10.9997L12.3759 10.0755L8.24902 12.4338L8.00095 12.5755L7.75288 12.4338L3.62599 10.0755Z" fill="black"/>
</g>
<defs>
<clipPath id="clip0_241_9481">
<rect width="16" height="16" fill="white"/>
</clipPath>
</defs>
</svg>
