<svg width="16" height="16" viewBox="0 0 16 16" fill="none" xmlns="http://www.w3.org/2000/svg">
<g id="font_collections">
<path id="Union" fill-rule="evenodd" clip-rule="evenodd" d="M7.79289 4.70711L8.08579 5H8.5H12.5H13.5V8H7.50098C7.22483 8 7.00098 8.22386 7.00098 8.5V12H2V3L6.08579 3L7.79289 4.70711ZM13.5 4C14.0523 4 14.5 4.44772 14.5 5V8H14.501C14.7771 8 15.001 8.22386 15.001 8.5V14.5C15.001 14.7761 14.7771 15 14.501 15H7.50098C7.22483 15 7.00098 14.7761 7.00098 14.5V13H2C1.44772 13 1 12.5523 1 12V3C1 2.44771 1.44772 2 2 2H6.08579C6.351 2 6.60536 2.10536 6.79289 2.29289L7 2.5H12.5C13.0523 2.5 13.5 2.94772 13.5 3.5V4ZM8 3.5L8.5 4H12.5V3.5H8ZM8.54936 14H9.70277L10.0804 12.8391H11.9185L12.2955 14H13.4489L11.6939 8.90909H10.3068L8.54936 14ZM11.6457 11.9989L11.0202 10.0724H10.9805L10.3537 11.9989H11.6457Z" fill="black"/>
</g>
</svg>
