<svg width="16" height="16" viewBox="0 0 16 16" fill="none" xmlns="http://www.w3.org/2000/svg">
<g id="format-indent-more">
<path id="neutral" fill-rule="evenodd" clip-rule="evenodd" d="M1.57661 3.57564C1.81093 3.34132 2.19083 3.34132 2.42514 3.57564L4.42514 5.57564L4.84941 5.9999L4.42514 6.42417L2.42514 8.42417C2.19083 8.65848 1.81093 8.65848 1.57661 8.42417C1.3423 8.18985 1.3423 7.80995 1.57661 7.57564L3.15235 5.9999L1.57661 4.42417C1.3423 4.18985 1.3423 3.80995 1.57661 3.57564Z" fill="black"/>
<path id="Union" fill-rule="evenodd" clip-rule="evenodd" d="M6.9 4C6.9 3.66863 7.16863 3.4 7.5 3.4H14.5C14.8314 3.4 15.1 3.66863 15.1 4C15.1 4.33137 14.8314 4.6 14.5 4.6H7.5C7.16863 4.6 6.9 4.33137 6.9 4ZM6.9 8C6.9 7.66863 7.16863 7.4 7.5 7.4H14.5C14.8314 7.4 15.1 7.66863 15.1 8C15.1 8.33137 14.8314 8.6 14.5 8.6H7.5C7.16863 8.6 6.9 8.33137 6.9 8ZM1.5 11.4C1.16863 11.4 0.9 11.6686 0.9 12C0.9 12.3314 1.16863 12.6 1.5 12.6H14.5C14.8314 12.6 15.1 12.3314 15.1 12C15.1 11.6686 14.8314 11.4 14.5 11.4H1.5Z" fill="black"/>
</g>
</svg>
