<svg width="16" height="16" viewBox="0 0 16 16" fill="none" xmlns="http://www.w3.org/2000/svg">
<g id="format-justify-center">
<path id="Union" fill-rule="evenodd" clip-rule="evenodd" d="M3.3999 3.9999C3.3999 3.66853 3.66853 3.3999 3.9999 3.3999H11.9999C12.3313 3.3999 12.5999 3.66853 12.5999 3.9999C12.5999 4.33127 12.3313 4.5999 11.9999 4.5999H3.9999C3.66853 4.5999 3.3999 4.33127 3.3999 3.9999ZM1.3999 7.9999C1.3999 7.66853 1.66853 7.3999 1.9999 7.3999H13.9999C14.3313 7.3999 14.5999 7.66853 14.5999 7.9999C14.5999 8.33127 14.3313 8.5999 13.9999 8.5999H1.9999C1.66853 8.5999 1.3999 8.33127 1.3999 7.9999ZM3.9999 11.3999C3.66853 11.3999 3.3999 11.6685 3.3999 11.9999C3.3999 12.3313 3.66853 12.5999 3.9999 12.5999H11.9999C12.3313 12.5999 12.5999 12.3313 12.5999 11.9999C12.5999 11.6685 12.3313 11.3999 11.9999 11.3999H3.9999Z" fill="black"/>
</g>
</svg>
