<svg width="16" height="16" viewBox="0 0 16 16" fill="none" xmlns="http://www.w3.org/2000/svg">
<g id="frmt-text-direction-horizontal">
<path id="Union" fill-rule="evenodd" clip-rule="evenodd" d="M1.19815 8.00007H2.51634L2.94793 6.67336H5.04864L5.4794 8.00007H6.79759L4.7919 2.18188H3.20668L1.19815 8.00007ZM4.73687 5.71313L4.02202 3.51143H3.97656L3.26031 5.71313H4.73687ZM1 9.50007C1 9.22392 1.22386 9.00007 1.5 9.00007L14.5 9.00007C14.7761 9.00007 15 9.22393 15 9.50007C15 9.77621 14.7761 10.0001 14.5 10.0001L1.5 10.0001C1.22386 10.0001 1 9.77621 1 9.50007ZM1 12.5001C1 12.2239 1.22386 12.0001 1.5 12.0001L14.5 12.0001C14.7761 12.0001 15 12.2239 15 12.5001C15 12.7762 14.7761 13.0001 14.5 13.0001L1.5 13.0001C1.22386 13.0001 1 12.7762 1 12.5001Z" fill="black"/>
<path id="neutral" fill-rule="evenodd" clip-rule="evenodd" d="M12.3536 2.64645C12.1583 2.45118 11.8417 2.45118 11.6464 2.64645C11.4512 2.84171 11.4512 3.15829 11.6464 3.35355L12.7929 4.5H9C8.72386 4.5 8.5 4.72386 8.5 5C8.5 5.27614 8.72386 5.5 9 5.5H12.7929L11.6464 6.64645C11.4512 6.84171 11.4512 7.15829 11.6464 7.35355C11.8417 7.54882 12.1583 7.54882 12.3536 7.35355L14.3536 5.35355L14.7071 5L14.3536 4.64645L12.3536 2.64645Z" fill="black"/>
</g>
</svg>
