<svg width="16" height="16" viewBox="0 0 16 16" fill="none" xmlns="http://www.w3.org/2000/svg">
<g id="frmt-text-direction-r2l">
<path id="Union" fill-rule="evenodd" clip-rule="evenodd" d="M9.19815 8.00007H10.5163L10.9479 6.67336H13.0486L13.4794 8.00007H14.7976L12.7919 2.18188H11.2067L9.19815 8.00007ZM12.7369 5.71313L12.022 3.51143H11.9766L11.2603 5.71313H12.7369ZM1 9.50007C1 9.22392 1.22386 9.00007 1.5 9.00007L14.5 9.00007C14.7761 9.00007 15 9.22393 15 9.50007C15 9.77621 14.7761 10.0001 14.5 10.0001L1.5 10.0001C1.22386 10.0001 1 9.77621 1 9.50007ZM1 12.5001C1 12.2239 1.22386 12.0001 1.5 12.0001L14.5 12.0001C14.7761 12.0001 15 12.2239 15 12.5001C15 12.7762 14.7761 13.0001 14.5 13.0001L1.5 13.0001C1.22386 13.0001 1 12.7762 1 12.5001Z" fill="black"/>
<path id="neutral" fill-rule="evenodd" clip-rule="evenodd" d="M3.64652 2.64645C3.84178 2.45118 4.15837 2.45118 4.35363 2.64645C4.54889 2.84171 4.54889 3.15829 4.35363 3.35355L3.20718 4.5H7.00008C7.27622 4.5 7.50008 4.72386 7.50008 5C7.50008 5.27614 7.27622 5.5 7.00008 5.5H3.20718L4.35363 6.64645C4.54889 6.84171 4.54889 7.15829 4.35363 7.35355C4.15837 7.54882 3.84178 7.54882 3.64652 7.35355L1.64652 5.35355L1.29297 5L1.64652 4.64645L3.64652 2.64645Z" fill="black"/>
</g>
</svg>
