<svg width="16" height="16" viewBox="0 0 16 16" fill="none" xmlns="http://www.w3.org/2000/svg">
<g id="frmt-text-direction-vertical-lr">
<path id="Union" fill-rule="evenodd" clip-rule="evenodd" d="M10.0001 1C10.2762 1 10.5001 1.22386 10.5001 1.5L10.5001 14.5C10.5001 14.7761 10.2762 15 10.0001 15C9.72395 15 9.50009 14.7761 9.50009 14.5L9.50009 1.5C9.50009 1.22386 9.72395 1 10.0001 1ZM13.5001 1C13.7762 1 14.0001 1.22386 14.0001 1.5L14.0001 14.5C14.0001 14.7761 13.7762 15 13.5001 15C13.2239 15 13.0001 14.7761 13.0001 14.5L13.0001 1.5C13.0001 1.22386 13.2239 1 13.5001 1ZM1.69824 7H3.01642L3.44802 5.6733H5.54873L5.97949 7H7.29767L5.29199 1.18182H3.70677L1.69824 7ZM5.23696 4.71307L4.52211 2.51136H4.47665L3.7604 4.71307H5.23696Z" fill="black"/>
<path id="neutral" fill-rule="evenodd" clip-rule="evenodd" d="M4 12.7929L2.85355 11.6464C2.65829 11.4512 2.34171 11.4512 2.14645 11.6464C1.95118 11.8417 1.95118 12.1583 2.14645 12.3536L4.14645 14.3536L4.5 14.7071L4.85355 14.3536L6.85355 12.3536C7.04882 12.1583 7.04882 11.8417 6.85355 11.6464C6.65829 11.4512 6.34171 11.4512 6.14645 11.6464L5 12.7929L5 9C5 8.72386 4.77614 8.5 4.5 8.5C4.22386 8.5 4 8.72386 4 9L4 12.7929Z" fill="black"/>
</g>
</svg>
