<svg width="16" height="16" viewBox="0 0 16 16" fill="none" xmlns="http://www.w3.org/2000/svg">
<g id="frmt-text-direction-vertical">
<path id="Union" fill-rule="evenodd" clip-rule="evenodd" d="M3 1.5C3 1.22386 2.77614 1 2.5 1C2.22386 1 2 1.22386 2 1.5V14.5C2 14.7761 2.22386 15 2.5 15C2.77614 15 3 14.7761 3 14.5L3 1.5ZM6 1C6.27614 1 6.5 1.22386 6.5 1.5L6.5 14.5C6.5 14.7761 6.27614 15 6 15C5.72386 15 5.5 14.7761 5.5 14.5L5.5 1.5C5.5 1.22386 5.72386 1 6 1ZM10.0163 7H8.69815L10.7067 1.18182H12.2919L14.2976 7H12.9794L12.5486 5.6733H10.4479L10.0163 7ZM11.522 2.51136L12.2369 4.71307H10.7603L11.4766 2.51136H11.522Z" fill="black"/>
<path id="neutral" fill-rule="evenodd" clip-rule="evenodd" d="M11 12.7929L9.85355 11.6464C9.65829 11.4512 9.34171 11.4512 9.14645 11.6464C8.95118 11.8417 8.95118 12.1583 9.14645 12.3536L11.1464 14.3536L11.5 14.7071L11.8536 14.3536L13.8536 12.3536C14.0488 12.1583 14.0488 11.8417 13.8536 11.6464C13.6583 11.4512 13.3417 11.4512 13.1464 11.6464L12 12.7929L12 9C12 8.72386 11.7761 8.5 11.5 8.5C11.2239 8.5 11 8.72386 11 9L11 12.7929Z" fill="black"/>
</g>
</svg>
