<svg width="16" height="16" viewBox="0 0 16 16" fill="none" xmlns="http://www.w3.org/2000/svg">
<g id="gap-random-x">
<path id="Union" fill-rule="evenodd" clip-rule="evenodd" d="M3.6 7C3.82091 7 4 6.82091 4 6.6V4.4C4 4.17909 3.82091 4 3.6 4H1.4C1.17909 4 1 4.17909 1 4.4V6.6C1 6.82091 1.17909 7 1.4 7H3.6ZM8.1 7C8.32091 7 8.5 6.82091 8.5 6.6V4.4C8.5 4.17909 8.32091 4 8.1 4H5.9C5.67909 4 5.5 4.17909 5.5 4.4L5.5 6.6C5.5 6.82091 5.67909 7 5.9 7H8.1ZM14 6.6C14 6.82091 13.8209 7 13.6 7H11.4C11.1791 7 11 6.82091 11 6.6L11 4.4C11 4.17909 11.1791 4 11.4 4H13.6C13.8209 4 14 4.17909 14 4.4V6.6ZM5.6 12C5.82091 12 6 11.8209 6 11.6V9.4C6 9.17909 5.82091 9 5.6 9L3.4 9C3.17909 9 3 9.17909 3 9.4L3 11.6C3 11.8209 3.17909 12 3.4 12H5.6ZM11 11.6C11 11.8209 10.8209 12 10.6 12H8.4C8.17909 12 8 11.8209 8 11.6L8 9.4C8 9.17909 8.17909 9 8.4 9L10.6 9C10.8209 9 11 9.17909 11 9.4V11.6ZM14.6 12C14.8209 12 15 11.8209 15 11.6V9.4C15 9.17909 14.8209 9 14.6 9L12.4 9C12.1791 9 12 9.17909 12 9.4L12 11.6C12 11.8209 12.1791 12 12.4 12H14.6Z" fill="black"/>
</g>
</svg>
