<svg width="16" height="16" viewBox="0 0 16 16" fill="none" xmlns="http://www.w3.org/2000/svg">
<g id="gap-random-y">
<path id="Union" fill-rule="evenodd" clip-rule="evenodd" d="M9 5.6C9 5.82091 9.17909 6 9.4 6L11.6 6C11.8209 6 12 5.82091 12 5.6L12 3.4C12 3.17909 11.8209 3 11.6 3L9.4 3C9.17909 3 9 3.17909 9 3.4L9 5.6ZM4 3.6C4 3.82091 4.17909 4 4.4 4L6.6 4C6.82091 4 7 3.82091 7 3.6L7 1.4C7 1.17909 6.82091 1 6.6 1L4.4 1C4.17909 1 4 1.17909 4 1.4L4 3.6ZM4 8.1C4 8.32091 4.17909 8.5 4.4 8.5L6.6 8.5C6.82091 8.5 7 8.32091 7 8.1L7 5.9C7 5.67909 6.82091 5.5 6.6 5.5L4.4 5.5C4.17909 5.5 4 5.67909 4 5.9L4 8.1ZM4.4 14C4.17909 14 4 13.8209 4 13.6L4 11.4C4 11.1791 4.17909 11 4.4 11L6.6 11C6.82091 11 7 11.1791 7 11.4L7 13.6C7 13.8209 6.82091 14 6.6 14L4.4 14ZM9.4 11C9.17909 11 9 10.8209 9 10.6L9 8.4C9 8.17909 9.17909 8 9.4 8L11.6 8C11.8209 8 12 8.17909 12 8.4L12 10.6C12 10.8209 11.8209 11 11.6 11L9.4 11ZM9 14.6C9 14.8209 9.17909 15 9.4 15L11.6 15C11.8209 15 12 14.8209 12 14.6L12 12.4C12 12.1791 11.8209 12 11.6 12L9.4 12C9.17909 12 9 12.1791 9 12.4L9 14.6Z" fill="black"/>
</g>
</svg>
