<svg width="16" height="16" viewBox="0 0 16 16" fill="none" xmlns="http://www.w3.org/2000/svg">
<g id="gear" clip-path="url(#clip0_241_9736)">
<g id=".gear">
<path id="Union" fill-rule="evenodd" clip-rule="evenodd" d="M8.75 2.5C8.75 2.08579 8.41421 1.75 8 1.75C7.58579 1.75 7.25 2.08579 7.25 2.5V3.30888C6.49782 3.42819 5.80442 3.72406 5.2136 4.1527L4.64141 3.58051C4.34852 3.28762 3.87365 3.28762 3.58075 3.58051C3.28786 3.8734 3.28786 4.34828 3.58075 4.64117L4.1529 5.21332C3.72415 5.8042 3.42821 6.4977 3.30888 7.25H2.5C2.08579 7.25 1.75 7.58579 1.75 8C1.75 8.41421 2.08579 8.75 2.5 8.75H3.30888C3.4282 9.50227 3.72413 10.1957 4.15285 10.7866L3.58078 11.3587C3.28788 11.6516 3.28788 12.1265 3.58078 12.4193C3.87367 12.7122 4.34854 12.7122 4.64144 12.4193L5.21353 11.8472C5.80436 12.2759 6.49779 12.5718 7.25 12.6911V13.5C7.25 13.9142 7.58579 14.25 8 14.25C8.41421 14.25 8.75 13.9142 8.75 13.5V12.6911C9.50231 12.5718 10.1958 12.2758 10.7867 11.8471L11.3589 12.4193C11.6518 12.7122 12.1267 12.7122 12.4196 12.4193C12.7125 12.1265 12.7125 11.6516 12.4196 11.3587L11.8473 10.7864C12.2759 10.1956 12.5718 9.50218 12.6911 8.75H13.5C13.9142 8.75 14.25 8.41421 14.25 8C14.25 7.58579 13.9142 7.25 13.5 7.25H12.6911C12.5718 6.49779 12.2759 5.80436 11.8472 5.21353L12.4196 4.64117C12.7125 4.34828 12.7125 3.8734 12.4196 3.58051C12.1267 3.28762 11.6518 3.28762 11.359 3.58051L10.7866 4.15285C10.1957 3.72413 9.50227 3.4282 8.75 3.30888V2.5ZM4.75 8C4.75 6.20507 6.20507 4.75 8 4.75C9.79493 4.75 11.25 6.20507 11.25 8C11.25 9.79493 9.79493 11.25 8 11.25C6.20507 11.25 4.75 9.79493 4.75 8Z" fill="black"/>
</g>
</g>
<defs>
<clipPath id="clip0_241_9736">
<rect width="16" height="16" fill="white"/>
</clipPath>
</defs>
</svg>
