<svg width="16" height="16" viewBox="0 0 16 16" fill="none" xmlns="http://www.w3.org/2000/svg">
<g id="gears">
<path class="warning" fill-rule="evenodd" clip-rule="evenodd" d="M8.74905 1.24854V1.99854V3.05517C9.30002 3.13794 9.82156 3.31061 10.2983 3.55777L10.919 2.70338L11.3598 2.09662L12.5734 2.97829L12.1325 3.58506L11.5114 4.43995C11.8984 4.82178 12.2235 5.26628 12.4702 5.75697L13.4736 5.43093L14.1869 5.19916L14.6504 6.62575L13.9372 6.85751L12.9338 7.18353C12.9773 7.44904 13 7.72159 13 7.99944C13 8.27654 12.9775 8.54837 12.9341 8.81321L13.9372 9.13913L14.6505 9.37089L14.187 10.7975L13.4737 10.5657L12.4711 10.24C12.2246 10.731 11.8995 11.1759 11.5124 11.558L12.1325 12.4116L12.5734 13.0183L11.3598 13.9L10.919 13.2933L10.2994 12.4405C9.82242 12.688 9.30047 12.8609 8.74905 12.9437V13.9985V14.7485H7.24905V13.9985V12.9434C6.6978 12.8604 6.17603 12.6874 5.69919 12.4398L5.0791 13.2933L4.63826 13.9L3.42474 13.0183L3.86558 12.4116L4.48654 11.5569C4.09976 11.1749 3.77497 10.7303 3.52862 10.2394L2.52447 10.5657L1.81118 10.7975L1.34766 9.37089L2.06095 9.13913L3.0658 8.81263C3.02251 8.54798 3 8.27634 3 7.99944C3 7.7218 3.02263 7.44944 3.06615 7.18411L2.06098 6.85751L1.34769 6.62575L1.81121 5.19916L2.52451 5.43093L3.52959 5.7575C3.77603 5.26706 4.1008 4.82277 4.48748 4.44104L3.86558 3.58506L3.42474 2.97829L4.63826 2.09662L5.0791 2.70338L5.70037 3.55848C6.17689 3.31123 6.69826 3.13842 7.24905 3.05546V1.99854V1.24854H8.74905ZM8.00005 11.0001C9.6569 11.0001 11 9.65695 11 8.0001C11 6.34324 9.6569 5.0001 8.00005 5.0001C6.34319 5.0001 5.00005 6.34324 5.00005 8.0001C5.00005 9.65695 6.34319 11.0001 8.00005 11.0001Z" fill="#505050"/>
</g>
</svg>
