<svg width="16" height="16" viewBox="0 0 16 16" fill="none" xmlns="http://www.w3.org/2000/svg">
<g id="generic-font">
<path id="Union" fill-rule="evenodd" clip-rule="evenodd" d="M8.50002 5V4.5H7.50002V5V7V7.13387L7.38417 7.06699L5.65212 6.06699L5.21911 5.81699L4.71911 6.68301L5.15212 6.93301L6.88417 7.93301L7.00014 7.99997L6.88406 8.06699L5.15201 9.06699L4.71899 9.31699L5.21899 10.183L5.65201 9.93301L7.38406 8.93301L7.50002 8.86606V9V11V11.5H8.50002V11V9V8.86592L8.61624 8.93301L10.3483 9.93301L10.7813 10.183L11.2813 9.31699L10.8483 9.06699L9.11624 8.06699L9.00015 7.99997L9.11612 7.93301L10.8482 6.93301L11.2812 6.68301L10.7812 5.81699L10.3482 6.06699L8.61612 7.06699L8.50002 7.13401V7V5ZM7.42279 8.0001L7.71141 8.5H8.28888L8.5775 8.0001L8.28877 7.5H7.71152L7.42279 8.0001Z" fill="black"/>
</g>
</svg>
