<svg width="16" height="16" viewBox="0 0 16 16" fill="none" xmlns="http://www.w3.org/2000/svg">
<g id="gradient-spread-reflect">
<g id="illustrated">
<mask id="mask0_241_9620" style="mask-type:alpha" maskUnits="userSpaceOnUse" x="1" y="1" width="14" height="14">
<rect id="rectangle" x="1" y="1" width="14" height="14" rx="1" fill="#D9D9D9"/>
</mask>
<g mask="url(#mask0_241_9620)">
<g id="Group 53">
<rect id="rectangle_2" opacity="0.5" x="2" y="2" width="1" height="12" fill="black"/>
<rect id="rectangle_3" opacity="0.4" x="3" y="2" width="1" height="12" fill="black"/>
<rect id="rectangle_4" opacity="0.3" x="4" y="2" width="1" height="12" fill="black"/>
<rect id="rectangle_5" opacity="0.2" x="5" y="2" width="1" height="12" fill="black"/>
<rect id="rectangle_6" opacity="0.1" x="6" y="2" width="1" height="12" fill="black"/>
</g>
<g id="Group 54">
<rect id="rectangle_7" opacity="0.5" width="1" height="12" transform="matrix(-1 0 0 1 14 2)" fill="black"/>
<rect id="rectangle_8" opacity="0.4" width="1" height="12" transform="matrix(-1 0 0 1 13 2)" fill="black"/>
<rect id="rectangle_9" opacity="0.3" width="1" height="12" transform="matrix(-1 0 0 1 12 2)" fill="black"/>
<rect id="rectangle_10" opacity="0.2" width="1" height="12" transform="matrix(-1 0 0 1 11 2)" fill="black"/>
<rect id="rectangle_11" opacity="0.1" width="1" height="12" transform="matrix(-1 0 0 1 10 2)" fill="black"/>
</g>
</g>
</g>
<path id="Union" fill-rule="evenodd" clip-rule="evenodd" d="M14 2H2V14H14V2ZM2 1C1.44772 1 1 1.44772 1 2V14C1 14.5523 1.44772 15 2 15H14C14.5523 15 15 14.5523 15 14V2C15 1.44772 14.5523 1 14 1H2Z" fill="black"/>
</g>
</svg>
