<svg width="16" height="16" viewBox="0 0 16 16" fill="none" xmlns="http://www.w3.org/2000/svg">
<g id="gradient-library">
<path id="rectangle" opacity="0.5" d="M0 3.5C0 3.22386 0.223858 3 0.5 3H3.5C3.77614 3 4 3.22386 4 3.5V14.5C4 14.7761 3.77614 15 3.5 15H0.5C0.223858 15 0 14.7761 0 14.5V3.5Z" fill="black"/>
<path id="Union" fill-rule="evenodd" clip-rule="evenodd" d="M6 2V14H8V2H6ZM5.5 1C5.22386 1 5 1.22386 5 1.5V14.5C5 14.7761 5.22386 15 5.5 15H8.5C8.77614 15 9 14.7761 9 14.5V1.5C9 1.22386 8.77614 1 8.5 1H5.5ZM1 4V14H3V4H1ZM0.5 3C0.223858 3 0 3.22386 0 3.5V14.5C0 14.7761 0.223858 15 0.5 15H3.5C3.77614 15 4 14.7761 4 14.5V3.5C4 3.22386 3.77614 3 3.5 3H0.5ZM12.7259 14.071L10.7247 6.60261L12.6566 6.08498L14.6578 13.5534L12.7259 14.071ZM9.62941 6.37847C9.55794 6.11174 9.71623 5.83757 9.98296 5.7661L12.8807 4.98964C13.1475 4.91817 13.4216 5.07646 13.4931 5.34319L15.7531 13.7776C15.8246 14.0443 15.6663 14.3185 15.3995 14.3899L12.5018 15.1664C12.235 15.2379 11.9609 15.0796 11.8894 14.8128L9.62941 6.37847Z" fill="black"/>
</g>
</svg>
