<svg width="16" height="16" viewBox="0 0 16 16" fill="none" xmlns="http://www.w3.org/2000/svg">
<g id="grid-axonometric">
<path id="Union" fill-rule="evenodd" clip-rule="evenodd" d="M8.00008 0.5C8.27623 0.5 8.50008 0.723858 8.50008 1V7.13393L13.8122 4.06699C14.0513 3.92892 14.3571 4.01085 14.4952 4.25C14.6333 4.48915 14.5513 4.79494 14.3122 4.93301L9.00001 8L14.3122 11.067C14.5513 11.2051 14.6333 11.5109 14.4952 11.75C14.3571 11.9891 14.0513 12.0711 13.8122 11.933L8.50008 8.86607V15C8.50008 15.2761 8.27623 15.5 8.00008 15.5C7.72394 15.5 7.50008 15.2761 7.50008 15V8.86598L2.18783 11.933C1.94868 12.0711 1.64289 11.9891 1.50481 11.75C1.36674 11.5109 1.44868 11.2051 1.68783 11.067L7.00001 8L1.68783 4.93301C1.44868 4.79494 1.36674 4.48915 1.50481 4.25C1.64289 4.01085 1.94868 3.92892 2.18783 4.06699L7.50008 7.13402V1C7.50008 0.723858 7.72394 0.5 8.00008 0.5Z" fill="black"/>
</g>
</svg>
