<svg width="16" height="16" viewBox="0 0 16 16" fill="none" xmlns="http://www.w3.org/2000/svg">
<g id="grid-modular">
<path id="Union" fill-rule="evenodd" clip-rule="evenodd" d="M2.00195 2V4H4.00195V2H2.00195ZM1.50195 1C1.22581 1 1.00195 1.22386 1.00195 1.5V4.5C1.00195 4.77614 1.22581 5 1.50195 5H4.50195C4.7781 5 5.00195 4.77614 5.00195 4.5V1.5C5.00195 1.22386 4.7781 1 4.50195 1H1.50195ZM7.00195 2V4H9.00195V2H7.00195ZM6.50195 1C6.22581 1 6.00195 1.22386 6.00195 1.5V4.5C6.00195 4.77614 6.22581 5 6.50195 5H9.50195C9.7781 5 10.002 4.77614 10.002 4.5V1.5C10.002 1.22386 9.7781 1 9.50195 1H6.50195ZM12.002 4V2H14.002V4H12.002ZM11.002 1.5C11.002 1.22386 11.2258 1 11.502 1H14.502C14.7781 1 15.002 1.22386 15.002 1.5V4.5C15.002 4.77614 14.7781 5 14.502 5H11.502C11.2258 5 11.002 4.77614 11.002 4.5V1.5ZM2.00195 7V9H4.00195V7H2.00195ZM1.50195 6C1.22581 6 1.00195 6.22386 1.00195 6.5V9.5C1.00195 9.77614 1.22581 10 1.50195 10H4.50195C4.7781 10 5.00195 9.77614 5.00195 9.5V6.5C5.00195 6.22386 4.7781 6 4.50195 6H1.50195ZM2.00195 14V12H4.00195V14H2.00195ZM1.00195 11.5C1.00195 11.2239 1.22581 11 1.50195 11H4.50195C4.7781 11 5.00195 11.2239 5.00195 11.5V14.5C5.00195 14.7761 4.7781 15 4.50195 15H1.50195C1.22581 15 1.00195 14.7761 1.00195 14.5V11.5ZM7.00195 7V9H9.00195V7H7.00195ZM6.50195 6C6.22581 6 6.00195 6.22386 6.00195 6.5V9.5C6.00195 9.77614 6.22581 10 6.50195 10H9.50195C9.7781 10 10.002 9.77614 10.002 9.5V6.5C10.002 6.22386 9.7781 6 9.50195 6H6.50195ZM7.00195 14V12H9.00195V14H7.00195ZM6.00195 11.5C6.00195 11.2239 6.22581 11 6.50195 11H9.50195C9.7781 11 10.002 11.2239 10.002 11.5V14.5C10.002 14.7761 9.7781 15 9.50195 15H6.50195C6.22581 15 6.00195 14.7761 6.00195 14.5V11.5ZM12.002 7V9H14.002V7H12.002ZM11.502 6C11.2258 6 11.002 6.22386 11.002 6.5V9.5C11.002 9.77614 11.2258 10 11.502 10H14.502C14.7781 10 15.002 9.77614 15.002 9.5V6.5C15.002 6.22386 14.7781 6 14.502 6H11.502ZM12.002 14V12H14.002V14H12.002ZM11.002 11.5C11.002 11.2239 11.2258 11 11.502 11H14.502C14.7781 11 15.002 11.2239 15.002 11.5V14.5C15.002 14.7761 14.7781 15 14.502 15H11.502C11.2258 15 11.002 14.7761 11.002 14.5V11.5Z" fill="black"/>
</g>
</svg>
