<svg width="16" height="16" viewBox="0 0 16 16" fill="none" xmlns="http://www.w3.org/2000/svg">
<g id="grid-rectangular">
<path id="Subtract" fill-rule="evenodd" clip-rule="evenodd" d="M9.5 1V2L14 2V6.5H15V2C15 1.44772 14.5523 1 14 1H9.5ZM6.5 1V2H2L2 6.5H1V2C1 1.44772 1.44772 1 2 1H6.5ZM1 9.5V14C1 14.5523 1.44772 15 2 15H6.5V14H2L2 9.5H1ZM9.5 14V15H14C14.5523 15 15 14.5523 15 14V9.5H14V14H9.5Z" fill="black"/>
<path class="error" fill-rule="evenodd" clip-rule="evenodd" d="M8.5 1.5C8.5 1.22386 8.27614 1 8 1C7.72386 1 7.5 1.22386 7.5 1.5V7.5H1.5C1.22386 7.5 1 7.72386 1 8C1 8.27614 1.22386 8.5 1.5 8.5H7.5V14.5C7.5 14.7761 7.72386 15 8 15C8.27614 15 8.5 14.7761 8.5 14.5V8.5H14.5C14.7761 8.5 15 8.27614 15 8C15 7.72386 14.7761 7.5 14.5 7.5H8.5V1.5Z" fill="black"/>
</g>
</svg>
