<svg width="16" height="16" viewBox="0 0 16 16" fill="none" xmlns="http://www.w3.org/2000/svg">
<g id="guides" clip-path="url(#clip0_241_9498)">
<path id="Subtract" fill-rule="evenodd" clip-rule="evenodd" d="M7.5 9.5H9.5V7.5H10.5V9.5H15C15.2761 9.5 15.5 9.72386 15.5 10C15.5 10.2761 15.2761 10.5 15 10.5H10.5V15C10.5 15.2761 10.2761 15.5 10 15.5C9.72386 15.5 9.5 15.2761 9.5 15V10.5H7.5V9.5ZM4.5 9.5H1C0.723858 9.5 0.5 9.72386 0.5 10C0.5 10.2761 0.723858 10.5 1 10.5H4.5V9.5ZM10.5 4.5H9.5V1C9.5 0.723858 9.72386 0.5 10 0.5C10.2761 0.5 10.5 0.723858 10.5 1V4.5Z" fill="black"/>
<path class="error" fill-rule="evenodd" clip-rule="evenodd" d="M6.5 1C6.5 0.723858 6.27614 0.5 6 0.5C5.72386 0.5 5.5 0.723858 5.5 1V5.5H1C0.723858 5.5 0.5 5.72386 0.5 6C0.5 6.27614 0.723858 6.5 1 6.5H5.5V15C5.5 15.2761 5.72386 15.5 6 15.5C6.27614 15.5 6.5 15.2761 6.5 15V6.5L15 6.5C15.2761 6.5 15.5 6.27614 15.5 6C15.5 5.72386 15.2761 5.5 15 5.5L6.5 5.5V1Z" fill="black"/>
</g>
<defs>
<clipPath id="clip0_241_9498">
<rect width="16" height="16" fill="white"/>
</clipPath>
</defs>
</svg>
