<svg width="16" height="16" viewBox="0 0 16 16" fill="none" xmlns="http://www.w3.org/2000/svg">
<g id="hamburger-menu">
<path id="Union" fill-rule="evenodd" clip-rule="evenodd" d="M2.00098 3.5C2.00098 3.22386 2.22483 3 2.50098 3H13.501C13.7771 3 14.001 3.22386 14.001 3.5V4.5C14.001 4.77614 13.7771 5 13.501 5H2.50098C2.22483 5 2.00098 4.77614 2.00098 4.5V3.5ZM2.00098 7.5C2.00098 7.22386 2.22483 7 2.50098 7H13.501C13.7771 7 14.001 7.22386 14.001 7.5V8.5C14.001 8.77614 13.7771 9 13.501 9H2.50098C2.22483 9 2.00098 8.77614 2.00098 8.5V7.5ZM2.50098 11C2.22483 11 2.00098 11.2239 2.00098 11.5V12.5C2.00098 12.7761 2.22483 13 2.50098 13H13.501C13.7771 13 14.001 12.7761 14.001 12.5V11.5C14.001 11.2239 13.7771 11 13.501 11H2.50098Z" fill="black"/>
</g>
</svg>
