<svg width="16" height="16" viewBox="0 0 16 16" fill="none" xmlns="http://www.w3.org/2000/svg">
<g id="hatches" clip-path="url(#clip0_241_9486)">
<path class="warning" fill-rule="evenodd" clip-rule="evenodd" d="M7.57988 5.28228L8.22938 2.86065C8.19499 3.8277 8.07768 4.78632 7.88063 5.72633L8.52131 6.0758C8.92405 4.26281 9.04115 2.38043 8.85146 0.496462C8.81186 0.103146 8.25632 0.0580912 8.1539 0.439942L6.90377 5.10094C6.89656 5.12784 6.88926 5.1547 6.88187 5.18154L7.51217 5.52535C7.5355 5.44461 7.55807 5.36359 7.57988 5.28228ZM6.3473 8.30723L5.73273 7.972C5.10441 9.0886 4.30573 10.1034 3.36383 10.9785L4.79669 8.68562L4.8055 8.67153L4.81293 8.65666L5.11383 8.05486C5.16908 7.94436 5.2218 7.83294 5.27199 7.72068L4.65537 7.38434C4.60264 7.50456 4.54676 7.62376 4.48773 7.74181L4.19427 8.32874L1.71379 12.298C1.51145 12.6218 1.894 12.9926 2.21131 12.7801C3.93468 11.6261 5.34625 10.0892 6.3473 8.30723ZM5.31506 4.3269C5.323 3.65118 5.24364 2.97409 5.07648 2.31293L4.71502 3.99959L4.07405 3.64997L4.65586 0.935181C4.72792 0.598902 5.18949 0.554044 5.32496 0.870149C5.84893 2.09274 6.07387 3.40462 6.00282 4.70205L5.31506 4.3269ZM4.00215 7.02803L3.38109 6.68926C3.07579 7.5428 2.52578 8.29312 1.79356 8.84254L1.28986 9.22048C1.13525 9.3365 1.10396 9.55588 1.21997 9.7105C1.33598 9.86511 1.55537 9.8964 1.70998 9.78039L2.21368 9.40245C3.02655 8.79251 3.64423 7.96739 4.00215 7.02803ZM7.60169 8.99146C7.34665 9.6076 7.05628 10.21 6.73158 10.7955C7.14519 10.2669 7.52653 9.71396 7.87355 9.13975L8.48865 9.47527C7.39054 11.2997 5.96029 12.9188 4.2584 14.2425C3.92065 14.5052 3.49177 14.0574 3.76907 13.7313L4.2142 13.2079C5.38377 11.8325 6.31349 10.2934 6.98349 8.65425L7.60169 8.99146ZM9.80971 6.77858L9.18972 6.44039C9.37315 5.95851 9.53477 5.46689 9.67365 4.96688L10.6464 1.46502C10.758 1.06323 11.3499 1.14381 11.3499 1.56091L11.3499 2.4221C11.3499 4.07766 11.1656 5.7209 10.8063 7.32217L10.1663 6.97306C10.3489 6.12263 10.4806 5.26041 10.5601 4.39112L10.3481 5.15422C10.1948 5.70604 10.015 6.24805 9.80971 6.77858ZM9.31079 9.92371C8.74446 11.4617 8.00362 12.9382 7.09803 14.3215C6.98311 14.4971 7.05236 14.6935 7.16754 14.7898C7.28364 14.8869 7.49262 14.9202 7.64494 14.7712C8.87592 13.5671 9.92891 12.2044 10.7795 10.7248L10.1648 10.3895C9.9105 10.831 9.63747 11.2616 9.34642 11.6802C9.55776 11.2141 9.75297 10.7412 9.93176 10.2624L9.31079 9.92371ZM11.4422 7.66905L12.0629 8.00763C12.2827 7.42507 12.4739 6.83032 12.6352 6.22538L12.8587 5.38726C12.9176 6.38839 12.8843 7.39272 12.7594 8.38753L13.4176 8.74656C13.6438 7.1523 13.6437 5.53178 13.4153 3.93334L13.3485 3.46603C13.2941 3.08538 12.7567 3.05335 12.6575 3.42498L11.9588 6.04501C11.812 6.59567 11.6395 7.13756 11.4422 7.66905ZM12.6232 11.7305L12.0067 11.3942C11.8209 11.8155 11.5988 12.2208 11.3423 12.6055L10.2087 14.306C10.1014 14.4668 10.1449 14.6841 10.3057 14.7914C10.4666 14.8986 10.6839 14.8551 10.7911 14.6943L11.9247 12.9938C12.1927 12.5919 12.4261 12.1693 12.6232 11.7305Z" fill="black"/>
<path id="Union" fill-rule="evenodd" clip-rule="evenodd" d="M-0.0605469 2.93945H0.439453H2.56077H3.06077V3.43945V4.23633L12.9395 9.6247V9.43945V8.93945H13.4395H15.5608H16.0608V9.43945V11.5608V12.0608H15.5608H13.4395H12.9395V11.5608V10.7638L3.06077 5.37542V5.56077V6.06077H2.56077H0.439453H-0.0605469V5.56077V3.43945V2.93945ZM0.939453 3.93945V5.06077H2.06077V3.93945H0.939453ZM13.9395 9.93945V11.0608H15.0608V9.93945H13.9395Z" fill="black"/>
</g>
<defs>
<clipPath id="clip0_241_9486">
<rect width="16" height="16" fill="white"/>
</clipPath>
</defs>
</svg>
