<svg width="16" height="16" viewBox="0 0 16 16" fill="none" xmlns="http://www.w3.org/2000/svg">
<g id="help-contents">
<path id="Union" fill-rule="evenodd" clip-rule="evenodd" d="M14.001 8C14.001 11.3137 11.3147 14 8.00098 14C4.68727 14 2.00098 11.3137 2.00098 8C2.00098 4.68629 4.68727 2 8.00098 2C11.3147 2 14.001 4.68629 14.001 8ZM15.001 8C15.001 11.866 11.867 15 8.00098 15C4.13498 15 1.00098 11.866 1.00098 8C1.00098 4.13401 4.13498 1 8.00098 1C11.867 1 15.001 4.13401 15.001 8ZM7.0874 9.54688V9.64844H8.38818V9.54688C8.39079 9.27083 8.42334 9.03906 8.48584 8.85156C8.55094 8.66146 8.6499 8.49609 8.78271 8.35547C8.91813 8.21484 9.09131 8.07943 9.30225 7.94922C9.54183 7.80599 9.74886 7.64323 9.92334 7.46094C10.0978 7.27865 10.2319 7.07031 10.3257 6.83594C10.422 6.60156 10.4702 6.33594 10.4702 6.03906C10.4702 5.59896 10.3634 5.21875 10.1499 4.89844C9.93896 4.57552 9.64339 4.32682 9.26318 4.15234C8.88558 3.97786 8.44808 3.89062 7.95068 3.89062C7.49495 3.89062 7.07829 3.97396 6.70068 4.14062C6.32568 4.30729 6.0236 4.55729 5.79443 4.89062C5.56787 5.22396 5.44808 5.63802 5.43506 6.13281H6.82568C6.8387 5.88802 6.8986 5.6862 7.00537 5.52734C7.11475 5.36589 7.25146 5.24609 7.41553 5.16797C7.58219 5.08724 7.75798 5.04687 7.94287 5.04687C8.14339 5.04687 8.32438 5.08854 8.48584 5.17188C8.6499 5.25521 8.78011 5.3724 8.87646 5.52344C8.97282 5.67448 9.021 5.85286 9.021 6.05859C9.021 6.24089 8.98454 6.40625 8.91162 6.55469C8.8387 6.70052 8.73844 6.83333 8.61084 6.95312C8.48584 7.07031 8.34391 7.17839 8.18506 7.27734C7.95329 7.42057 7.75667 7.57812 7.59521 7.75C7.43376 7.91927 7.30876 8.14323 7.22021 8.42188C7.13428 8.70052 7.09001 9.07552 7.0874 9.54688ZM7.16162 11.8359C7.33089 12.0026 7.53271 12.0859 7.76709 12.0859C7.92334 12.0859 8.06527 12.0482 8.19287 11.9727C8.32308 11.8945 8.42725 11.7904 8.50537 11.6602C8.5861 11.5299 8.62646 11.3854 8.62646 11.2266C8.62646 10.9922 8.54053 10.7917 8.36865 10.625C8.19938 10.4583 7.99886 10.375 7.76709 10.375C7.53271 10.375 7.33089 10.4583 7.16162 10.625C6.99235 10.7917 6.90771 10.9922 6.90771 11.2266C6.90771 11.4661 6.99235 11.6693 7.16162 11.8359Z" fill="black"/>
</g>
</svg>
