<svg width="16" height="16" viewBox="0 0 16 16" fill="none" xmlns="http://www.w3.org/2000/svg">
<g id="help-keyboard-shortcuts">
<path id="Union" fill-rule="evenodd" clip-rule="evenodd" d="M3.00102 3.15139L2.4208 4.02171C2.14707 4.43231 2.00097 4.91474 2.00093 5.40822L2.00023 12.4999C2.00023 12.578 2.00619 12.6547 2.01771 12.7297L3.49482 9.40779C3.18838 9.07766 3.00102 8.63547 3.00102 8.14951V3.15139ZM3.50023 14C3.18943 14 2.90071 13.9055 2.66125 13.7436L4.3559 9.93251C4.51348 9.97618 4.67952 9.99951 4.85102 9.99951H11.151C11.3222 9.99951 11.4879 9.97627 11.6452 9.93277L13.339 13.7438C13.0996 13.9055 12.8109 14 12.5002 14H3.50023ZM13.9827 12.7299C13.9942 12.655 14.0002 12.5783 14.0002 12.5001L14.0009 5.40844C14.001 4.91479 13.8549 4.43218 13.5811 4.02144L13.001 3.15139V8.14951C13.001 8.63582 12.8134 9.07831 12.5065 9.40851L13.9827 12.7299ZM4.82193 2H11.1801C11.6361 2.01533 12.001 2.3898 12.001 2.84951V8.14951C12.001 8.61895 11.6205 8.99951 11.151 8.99951H4.85102C4.38157 8.99951 4.00102 8.61895 4.00102 8.14951V2.84951C4.00102 2.3898 4.36595 2.01533 4.82193 2ZM11.1939 1H11.4306C12.2665 1 13.0471 1.41775 13.5108 2.11325L14.4131 3.46674C14.7965 4.04178 15.001 4.71743 15.0009 5.40854L15.0002 12.5002C15.0001 13.8809 13.8808 15 12.5002 15H3.50023C2.11943 15 1.0001 13.8806 1.00023 12.4998L1.00093 5.40812C1.00099 4.71725 1.20552 4.04185 1.58875 3.46701L2.49126 2.11325C2.95492 1.41775 3.7355 1 4.57138 1H4.80809C4.82236 0.999675 4.83667 0.999512 4.85102 0.999512H11.151C11.1654 0.999512 11.1797 0.999675 11.1939 1ZM8.75102 5.5V7H7.25102V5.5H6.00102L8.00102 3.5L10.001 5.5H8.75102Z" fill="black"/>
</g>
</svg>
