<svg width="16" height="16" viewBox="0 0 16 16" fill="none" xmlns="http://www.w3.org/2000/svg">
<g id="image-missing">
<path id="Union" fill-rule="evenodd" clip-rule="evenodd" d="M4.85348 4.14637C4.65822 4.34163 4.65822 4.65822 4.85348 4.85348L6.99992 6.99992L4.85348 9.14637C4.65822 9.34163 4.65822 9.65822 4.85348 9.85348L5.14637 10.1464C5.34163 10.3416 5.65822 10.3416 5.85348 10.1464L7.99992 7.99992L10.1464 10.1464C10.3416 10.3416 10.6582 10.3416 10.8535 10.1464L11.1464 9.85348C11.3416 9.65822 11.3416 9.34163 11.1464 9.14637L8.99992 6.99992L11.1464 4.85348C11.3416 4.65822 11.3416 4.34163 11.1464 4.14637L10.8535 3.85348C10.6582 3.65822 10.3416 3.65822 10.1464 3.85348L7.99992 5.99992L5.85348 3.85348C5.65822 3.65822 5.34163 3.65822 5.14637 3.85348L4.85348 4.14637Z" fill="#EC5500"/>
<path id="Union_2" fill-rule="evenodd" clip-rule="evenodd" d="M2 2H14V12H2V2ZM1 2C1 1.44772 1.44772 1 2 1H14C14.5523 1 15 1.44772 15 2V14C15 14.5523 14.5523 15 14 15H2C1.44772 15 1 14.5523 1 14V2Z" fill="black"/>
</g>
</svg>
