<svg width="16" height="16" viewBox="0 0 16 16" fill="none" xmlns="http://www.w3.org/2000/svg">
<g id="info">
<path id="Subtract" fill-rule="evenodd" clip-rule="evenodd" d="M8.00098 15C11.867 15 15.001 11.866 15.001 8C15.001 4.13401 11.867 1 8.00098 1C4.13498 1 1.00098 4.13401 1.00098 8C1.00098 11.866 4.13498 15 8.00098 15ZM7.1665 6V12H8.83057V6H7.1665ZM7.36572 4.98047C7.54281 5.14453 7.75505 5.22656 8.00244 5.22656C8.24984 5.22656 8.46077 5.14453 8.63525 4.98047C8.81234 4.8138 8.90088 4.61458 8.90088 4.38281C8.90088 4.15365 8.81234 3.95703 8.63525 3.79297C8.46077 3.6263 8.24984 3.54297 8.00244 3.54297C7.75505 3.54297 7.54281 3.6263 7.36572 3.79297C7.19124 3.95703 7.104 4.15365 7.104 4.38281C7.104 4.61458 7.19124 4.8138 7.36572 4.98047Z" fill="black"/>
</g>
</svg>
