<svg width="16" height="16" viewBox="0 0 16 16" fill="none" xmlns="http://www.w3.org/2000/svg">
<g id="info-outline">
<path id="Union" fill-rule="evenodd" clip-rule="evenodd" d="M14.001 8C14.001 11.3137 11.3147 14 8.00098 14C4.68727 14 2.00098 11.3137 2.00098 8C2.00098 4.68629 4.68727 2 8.00098 2C11.3147 2 14.001 4.68629 14.001 8ZM15.001 8C15.001 11.866 11.867 15 8.00098 15C4.13498 15 1.00098 11.866 1.00098 8C1.00098 4.13401 4.13498 1 8.00098 1C11.867 1 15.001 4.13401 15.001 8ZM7.29346 6V12H8.70752V6H7.29346ZM7.42627 4.92578C7.58773 5.07422 7.78044 5.14844 8.00439 5.14844C8.23096 5.14844 8.42367 5.07422 8.58252 4.92578C8.74398 4.77474 8.82471 4.59375 8.82471 4.38281C8.82471 4.16927 8.74398 3.98828 8.58252 3.83984C8.42367 3.6888 8.23096 3.61328 8.00439 3.61328C7.78044 3.61328 7.58773 3.6888 7.42627 3.83984C7.26481 3.98828 7.18408 4.16927 7.18408 4.38281C7.18408 4.59375 7.26481 4.77474 7.42627 4.92578Z" fill="black"/>
</g>
</svg>
