<svg width="16" height="16" viewBox="0 0 16 16" fill="none" xmlns="http://www.w3.org/2000/svg">
<g id="interactive_simplify" clip-path="url(#clip0_241_9692)">
<path id="Union" fill-rule="evenodd" clip-rule="evenodd" d="M5.1554 2C4.11899 2 3.352 2.96414 3.58504 3.97402L5.46634 12.1263C5.8056 13.5964 4.68905 15 3.18028 15C1.7305 15 0.627713 13.6982 0.866054 12.2682L1.48893 8.5309C1.49695 8.48279 1.50098 8.43411 1.50098 8.38535C1.50098 7.89638 1.10459 7.5 0.615631 7.5H0.500977C0.224834 7.5 0.000976562 7.27614 0.000976562 7C0.000976562 6.72386 0.224834 6.5 0.500977 6.5H0.615631C1.65688 6.5 2.50098 7.3441 2.50098 8.38535C2.50098 8.48919 2.4924 8.59286 2.47532 8.69529L1.85245 12.4326C1.7157 13.2531 2.34844 14 3.18028 14C4.04596 14 4.68661 13.1947 4.49195 12.3512L2.61065 4.19888C2.233 2.56239 3.4759 1 5.1554 1C6.70593 1 7.915 2.34302 7.75268 3.88503L7.19967 9.13864C7.12308 9.86627 7.6936 10.5 8.42525 10.5C9.19412 10.5 9.77526 9.80367 9.63772 9.0472L9.20406 6.66203C9.04671 5.79662 9.71155 5 10.5911 5C11.3698 5 12.001 5.6312 12.001 6.40983V6.5C12.001 6.91202 12.4714 7.14721 12.801 6.9L12.9153 6.81429C13.1873 6.61028 13.5181 6.5 13.8581 6.5H15.501C15.7771 6.5 16.001 6.72386 16.001 7C16.001 7.27614 15.7771 7.5 15.501 7.5H13.8581C13.7345 7.5 13.6142 7.5401 13.5153 7.61429L13.401 7.7C12.4121 8.44164 11.001 7.73607 11.001 6.5V6.40983C11.001 6.18349 10.8175 6 10.5911 6C10.3355 6 10.1422 6.23157 10.1879 6.48314L10.6216 8.86831C10.8707 10.2386 9.81802 11.5 8.42525 11.5C7.0999 11.5 6.06642 10.352 6.20517 9.03396L6.75818 3.78034C6.85834 2.82877 6.11223 2 5.1554 2Z" fill="black"/>
</g>
<defs>
<clipPath id="clip0_241_9692">
<rect width="16" height="16" fill="white"/>
</clipPath>
</defs>
</svg>
