<svg width="16" height="16" viewBox="0 0 16 16" fill="none" xmlns="http://www.w3.org/2000/svg">
<g id="interpolate">
<path id="Union" fill-rule="evenodd" clip-rule="evenodd" d="M12.7906 1.90691C13.0153 1.7464 13.0674 1.43413 12.9069 1.20942C12.7464 0.984713 12.4341 0.932668 12.2094 1.09317C10.1565 2.55948 9.97689 5.56559 11.9015 7.22209C12.1767 7.45901 12.4408 7.68395 12.679 7.88342C14.1427 9.10886 14.378 11.2711 13.2078 12.7756L12.1053 14.1931C11.9358 14.411 11.9751 14.7252 12.193 14.8947C12.411 15.0642 12.7251 15.025 12.8947 14.807L13.9972 13.3895C15.4996 11.4578 15.1952 8.68576 13.321 7.11666C13.0873 6.921 12.8269 6.69919 12.5538 6.46418C11.1332 5.24146 11.2519 3.00596 12.7906 1.90691ZM2 1.50004C2 1.2239 1.77614 1.00004 1.5 1.00004C1.22386 1.00004 1 1.2239 1 1.50004V4.75004V8.00004V11.25V14.5C1 14.7762 1.22386 15 1.5 15C1.77614 15 2 14.7762 2 14.5V11.25V8.00004V4.75004V1.50004Z" fill="black"/>
<path class="warning" fill-rule="evenodd" clip-rule="evenodd" d="M8.8241 1.74577L9.07002 1.49672L8.57193 1.00488L8.32601 1.25393C8.10509 1.47765 7.91897 1.71516 7.76556 1.96349L7.58161 2.26125L8.17713 2.62916L8.36108 2.3314C8.48614 2.12896 8.63935 1.93286 8.8241 1.74577ZM7.90763 3.73367L7.93593 3.38482L7.23822 3.32822L7.20992 3.67708C7.1619 4.2691 7.24082 4.86688 7.4107 5.43843L7.51042 5.77392L8.18141 5.57448L8.08169 5.23899C7.93253 4.73717 7.86764 4.22667 7.90763 3.73367ZM8.733 6.64586L8.54441 6.35102L7.95472 6.72819L8.1433 7.02303C8.30127 7.27001 8.47466 7.50531 8.66004 7.72535C8.78989 7.87949 8.9039 8.03509 9.00345 8.19177L9.19115 8.48719L9.78198 8.11179L9.59428 7.81638C9.47744 7.63248 9.34478 7.45168 9.19538 7.27434C9.02975 7.07774 8.87451 6.86711 8.733 6.64586ZM10.1407 9.05318L10.05 8.71514L9.3739 8.89655L9.46461 9.23459C9.56448 9.6068 9.6043 9.98764 9.59513 10.3744L9.58684 10.7243L10.2866 10.7409L10.2949 10.391C10.3055 9.94486 10.2597 9.49673 10.1407 9.05318ZM10.1148 11.7022L10.197 11.362L9.51654 11.1976L9.43435 11.5379C9.34231 11.9189 9.21521 12.3006 9.06378 12.6797L8.93395 13.0047L9.584 13.2644L9.71384 12.9394C9.87503 12.5359 10.0134 12.1219 10.1148 11.7022ZM9.17983 14.106L9.33877 13.7942L8.7151 13.4763L8.55617 13.7882C8.46267 13.9716 8.3662 14.1529 8.26819 14.3315L8.09986 14.6384L8.71357 14.975L8.88191 14.6682C8.98275 14.4844 9.08261 14.2968 9.17983 14.106ZM5.30671 1.63333L5.44019 1.30978L4.79309 1.04282L4.65961 1.36637C4.55608 1.61733 4.47046 1.87463 4.40119 2.13629L4.31161 2.47464L4.9883 2.65378L5.07788 2.31544C5.13969 2.08196 5.21562 1.85411 5.30671 1.63333ZM4.86906 3.75356L4.88302 3.40384L4.18358 3.37593L4.16962 3.72565C4.14848 4.25544 4.17756 4.78931 4.24606 5.31403L4.29137 5.66109L4.98548 5.57047L4.94017 5.22341C4.87621 4.73348 4.84967 4.23948 4.86906 3.75356ZM5.23767 6.6752L5.14384 6.33801L4.46946 6.52567L4.56329 6.86286C4.63482 7.11991 4.7143 7.37157 4.80036 7.61605C4.86314 7.79442 4.91806 7.974 4.96571 8.15466L5.05497 8.49308L5.73183 8.31456L5.64256 7.97613C5.59025 7.77779 5.52984 7.58022 5.46065 7.38364C5.37971 7.15369 5.30494 6.91696 5.23767 6.6752ZM5.86646 9.18922L5.82779 8.84137L5.13207 8.91872L5.17075 9.26657C5.21259 9.64284 5.22908 10.0228 5.22499 10.4053L5.22125 10.7553L5.92121 10.7628L5.92495 10.4128C5.92931 10.0053 5.91178 9.5968 5.86646 9.18922ZM5.85255 11.6262L5.88889 11.2781L5.19267 11.2054L5.15634 11.5535C5.1164 11.9361 5.06103 12.3193 4.99506 12.702L4.93559 13.0469L5.62542 13.1658L5.68488 12.8209C5.75297 12.4259 5.81071 12.027 5.85255 11.6262ZM5.45414 13.9965L5.52813 13.6544L4.84395 13.5064L4.76996 13.8485C4.7285 14.0402 4.68563 14.2313 4.64201 14.4217L4.56381 14.7628L5.24612 14.9192L5.32431 14.578C5.36842 14.3856 5.41193 14.1917 5.45414 13.9965Z" fill="#9E9E9E"/>
</g>
</svg>
