<svg width="16" height="16" viewBox="0 0 16 16" fill="none" xmlns="http://www.w3.org/2000/svg">
<g id="interpolate-scale-none">
<path id="Union" fill-rule="evenodd" clip-rule="evenodd" d="M4.1 4.5C4.32091 4.5 4.5 4.32091 4.5 4.1V1.9C4.5 1.67909 4.32091 1.5 4.1 1.5H1.9C1.67909 1.5 1.5 1.67909 1.5 1.9V4.1C1.5 4.32091 1.67909 4.5 1.9 4.5H4.1ZM9.50098 4.1C9.50098 4.32091 9.32189 4.5 9.10098 4.5H6.90098C6.68006 4.5 6.50098 4.32091 6.50098 4.1L6.50098 1.9C6.50098 1.67909 6.68006 1.5 6.90098 1.5H9.10098C9.32189 1.5 9.50098 1.67909 9.50098 1.9V4.1ZM14.501 14.1C14.501 14.3209 14.3219 14.5 14.101 14.5H11.901C11.6801 14.5 11.501 14.3209 11.501 14.1L11.501 11.9C11.501 11.6791 11.6801 11.5 11.901 11.5L14.101 11.5C14.3219 11.5 14.501 11.6791 14.501 11.9V14.1ZM14.501 4.1C14.501 4.32091 14.3219 4.5 14.101 4.5H11.901C11.6801 4.5 11.501 4.32091 11.501 4.1L11.501 1.9C11.501 1.67909 11.6801 1.5 11.901 1.5H14.101C14.3219 1.5 14.501 1.67909 14.501 1.9V4.1ZM4.1 9.5C4.32091 9.5 4.5 9.32091 4.5 9.1V6.9C4.5 6.67909 4.32091 6.5 4.1 6.5L1.9 6.5C1.67909 6.5 1.5 6.67909 1.5 6.9V9.1C1.5 9.32091 1.67909 9.5 1.9 9.5H4.1ZM9.50098 9.1C9.50098 9.32091 9.32189 9.5 9.10098 9.5H6.90098C6.68006 9.5 6.50098 9.32091 6.50098 9.1L6.50098 6.9C6.50098 6.67909 6.68006 6.5 6.90098 6.5L9.10098 6.5C9.32189 6.5 9.50098 6.67909 9.50098 6.9V9.1ZM14.101 9.5C14.3219 9.5 14.501 9.32091 14.501 9.1V6.9C14.501 6.67909 14.3219 6.5 14.101 6.5L11.901 6.5C11.6801 6.5 11.501 6.67909 11.501 6.9L11.501 9.1C11.501 9.32091 11.6801 9.5 11.901 9.5H14.101ZM4.50098 14.1C4.50098 14.3209 4.32189 14.5 4.10098 14.5H1.90098C1.68006 14.5 1.50098 14.3209 1.50098 14.1L1.50098 11.9C1.50098 11.6791 1.68006 11.5 1.90098 11.5L4.10098 11.5C4.32189 11.5 4.50098 11.6791 4.50098 11.9V14.1ZM9.10098 14.5C9.32189 14.5 9.50098 14.3209 9.50098 14.1V11.9C9.50098 11.6791 9.32189 11.5 9.10098 11.5L6.90098 11.5C6.68006 11.5 6.50098 11.6791 6.50098 11.9L6.50098 14.1C6.50098 14.3209 6.68006 14.5 6.90098 14.5H9.10098Z" fill="black"/>
</g>
</svg>
