<svg width="16" height="16" viewBox="0 0 16 16" fill="none" xmlns="http://www.w3.org/2000/svg">
<g id="interpolate-points" clip-path="url(#clip0_241_9441)">
<path class="warning" fill-rule="evenodd" clip-rule="evenodd" d="M1 2.5L2.5 1L3.5 2H11.4998V3H3.70711L13.1036 12.3964L13.5 12L15 13.5L13.5 15L12.5 14H4.49981V13H12.2929L2.89645 3.60355L2.5 4L1 2.5Z" fill="#9E9E9E"/>
<path id="Union" fill-rule="evenodd" clip-rule="evenodd" d="M11.5 3L11.6566 3.1566L12.8434 4.3434L13.5 5L14.1566 4.3434L15.3434 3.1566L16 2.5L15.3434 1.8434L14.1566 0.656599L13.5 0L12.8434 0.656599L11.6566 1.8434L11.5 2H10.1394C6.79589 2 5.19745 6.10928 7.66214 8.36858C9.45453 10.0116 8.2921 13 5.86059 13H4.5L4.3434 12.8434L3.1566 11.6566L2.5 11L1.8434 11.6566L0.656599 12.8434L0 13.5L0.656599 14.1566L1.8434 15.3434L2.5 16L3.1566 15.3434L4.3434 14.1566L4.5 14H5.86059C9.20411 14 10.8025 9.89072 8.33786 7.63142C6.54547 5.9884 7.7079 3 10.1394 3H11.5ZM13.5 3.6868L12.3132 2.5L13.5 1.3132L14.6868 2.5L13.5 3.6868ZM1.3132 13.5L2.5 14.6868L3.6868 13.5L2.5 12.3132L1.3132 13.5Z" fill="black"/>
</g>
<defs>
<clipPath id="clip0_241_9441">
<rect width="16" height="16" fill="white"/>
</clipPath>
</defs>
</svg>
