<svg width="16" height="16" viewBox="0 0 16 16" fill="none" xmlns="http://www.w3.org/2000/svg">
<g id="interpolate-rotate-none">
<path id="Union" fill-rule="evenodd" clip-rule="evenodd" d="M2.00098 1.4C2.00098 1.17909 2.18006 1 2.40098 1H3.60098C3.82189 1 4.00098 1.17909 4.00098 1.4V4.6C4.00098 4.82091 3.82189 5 3.60098 5H2.40098C2.18006 5 2.00098 4.82091 2.00098 4.6V1.4ZM2.00098 6.4C2.00098 6.17909 2.18006 6 2.40098 6H3.60098C3.82189 6 4.00098 6.17909 4.00098 6.4V9.6C4.00098 9.82091 3.82189 10 3.60098 10H2.40098C2.18006 10 2.00098 9.82091 2.00098 9.6V6.4ZM2.40098 11C2.18006 11 2.00098 11.1791 2.00098 11.4V14.6C2.00098 14.8209 2.18006 15 2.40098 15H3.60098C3.82189 15 4.00098 14.8209 4.00098 14.6V11.4C4.00098 11.1791 3.82189 11 3.60098 11H2.40098ZM7.00098 1.4C7.00098 1.17909 7.18006 1 7.40098 1H8.60098C8.82189 1 9.00098 1.17909 9.00098 1.4V4.6C9.00098 4.82091 8.82189 5 8.60098 5H7.40098C7.18006 5 7.00098 4.82091 7.00098 4.6V1.4ZM7.40098 6C7.18006 6 7.00098 6.17909 7.00098 6.4V9.6C7.00098 9.82091 7.18006 10 7.40098 10H8.60098C8.82189 10 9.00098 9.82091 9.00098 9.6V6.4C9.00098 6.17909 8.82189 6 8.60098 6H7.40098ZM7.00098 11.4C7.00098 11.1791 7.18006 11 7.40098 11H8.60098C8.82189 11 9.00098 11.1791 9.00098 11.4V14.6C9.00098 14.8209 8.82189 15 8.60098 15H7.40098C7.18006 15 7.00098 14.8209 7.00098 14.6V11.4ZM12.401 1C12.1801 1 12.001 1.17909 12.001 1.4V4.6C12.001 4.82091 12.1801 5 12.401 5H13.601C13.8219 5 14.001 4.82091 14.001 4.6V1.4C14.001 1.17909 13.8219 1 13.601 1H12.401ZM12.001 6.4C12.001 6.17909 12.1801 6 12.401 6H13.601C13.8219 6 14.001 6.17909 14.001 6.4V9.6C14.001 9.82091 13.8219 10 13.601 10H12.401C12.1801 10 12.001 9.82091 12.001 9.6V6.4ZM12.401 11C12.1801 11 12.001 11.1791 12.001 11.4V14.6C12.001 14.8209 12.1801 15 12.401 15H13.601C13.8219 15 14.001 14.8209 14.001 14.6V11.4C14.001 11.1791 13.8219 11 13.601 11H12.401Z" fill="black"/>
</g>
</svg>
