<svg width="16" height="16" viewBox="0 0 16 16" fill="none" xmlns="http://www.w3.org/2000/svg">
<g id="interpolate-rotate-both">
<path id="Union" fill-rule="evenodd" clip-rule="evenodd" d="M7.68936 1.13912C7.7739 0.935023 8.00788 0.838103 8.21198 0.922643L9.32064 1.38186C9.52473 1.4664 9.62165 1.70039 9.53712 1.90449L8.31253 4.8609C8.22799 5.065 7.994 5.16192 7.7899 5.07738L6.68125 4.61816C6.47715 4.53362 6.38023 4.29963 6.46477 4.09554L7.68936 1.13912ZM2.00088 1.40073C2.00088 1.17982 2.17996 1.00073 2.40088 1.00073H3.60088C3.82179 1.00073 4.00088 1.17982 4.00088 1.40073V4.60073C4.00088 4.82165 3.82179 5.00073 3.60088 5.00073H2.40088C2.17996 5.00073 2.00088 4.82165 2.00088 4.60073V1.40073ZM2.68936 6.13985C2.7739 5.93576 3.00788 5.83884 3.21198 5.92338L4.32064 6.3826C4.52473 6.46714 4.62165 6.70112 4.53711 6.90522L3.31253 9.86164C3.22799 10.0657 2.994 10.1627 2.7899 10.0781L1.68125 9.61889C1.47715 9.53435 1.38023 9.30037 1.46477 9.09627L2.68936 6.13985ZM3.99099 11.1606C3.83478 11.0044 3.58152 11.0044 3.42531 11.1606L1.16257 13.4233C1.00636 13.5795 1.00636 13.8328 1.16257 13.989L2.0111 14.8375C2.16731 14.9937 2.42057 14.9937 2.57678 14.8375L4.83952 12.5748C4.99573 12.4186 4.99573 12.1653 4.83952 12.0091L3.99099 11.1606ZM8.99099 6.16276C8.83478 6.00655 8.58152 6.00655 8.42531 6.16276L6.16257 8.42551C6.00636 8.58172 6.00636 8.83498 6.16257 8.99119L7.0111 9.83972C7.16731 9.99593 7.42057 9.99593 7.57678 9.83972L9.83952 7.57698C9.99573 7.42077 9.99573 7.1675 9.83952 7.01129L8.99099 6.16276ZM9.09641 11.4629C9.30051 11.3784 9.5345 11.4753 9.61904 11.6794L10.0783 12.7881C10.1628 12.9922 10.0659 13.2261 9.86178 13.3107L6.90536 14.5353C6.70127 14.6198 6.46728 14.5229 6.38274 14.3188L5.92352 13.2101C5.83898 13.006 5.9359 12.7721 6.14 12.6875L9.09641 11.4629ZM13.9908 1.16252C13.8345 1.00631 13.5813 1.00631 13.4251 1.16252L11.1623 3.42526C11.0061 3.58147 11.0061 3.83474 11.1623 3.99095L12.0109 4.83947C12.1671 4.99568 12.4203 4.99568 12.5765 4.83947L14.8393 2.57673C14.9955 2.42052 14.9955 2.16726 14.8393 2.01105L13.9908 1.16252ZM14.0964 6.46439C14.3005 6.37985 14.5345 6.47677 14.619 6.68087L15.0783 7.78952C15.1628 7.99362 15.0659 8.22761 14.8618 8.31215L11.9054 9.53674C11.7013 9.62128 11.4673 9.52436 11.3827 9.32026L10.9235 8.2116C10.839 8.0075 10.9359 7.77352 11.14 7.68898L14.0964 6.46439ZM15.0009 12.3988C15.0009 12.1779 14.8218 11.9988 14.6009 11.9988H11.4009C11.18 11.9988 11.0009 12.1779 11.0009 12.3988V13.5988C11.0009 13.8197 11.18 13.9988 11.4009 13.9988H14.6009C14.8218 13.9988 15.0009 13.8197 15.0009 13.5988V12.3988Z" fill="black"/>
</g>
</svg>
