<svg width="16" height="16" viewBox="0 0 16 16" fill="none" xmlns="http://www.w3.org/2000/svg">
<g id="interpolate-scale-x">
<path id="Union" fill-rule="evenodd" clip-rule="evenodd" d="M5.00098 4.8C5.00098 4.91046 4.91143 5 4.80098 5H1.20098C1.09052 5 1.00098 4.91046 1.00098 4.8V1.2C1.00098 1.08954 1.09052 1 1.20098 1H4.80098C4.91143 1 5.00098 1.08954 5.00098 1.2V4.8ZM14.001 13.8C14.001 13.9105 13.9114 14 13.801 14H12.201C12.0905 14 12.001 13.9105 12.001 13.8L12.001 12.2C12.001 12.0895 12.0905 12 12.201 12L13.801 12C13.9114 12 14.001 12.0895 14.001 12.2V13.8ZM9.8 4.5C9.91046 4.5 10 4.41046 10 4.3V1.7C10 1.58954 9.91046 1.5 9.8 1.5L7.2 1.5C7.08954 1.5 7 1.58954 7 1.7L7 4.3C7 4.41046 7.08954 4.5 7.2 4.5H9.8ZM14.001 3.8C14.001 3.91046 13.9114 4 13.801 4H12.201C12.0905 4 12.001 3.91046 12.001 3.8L12.001 2.2C12.001 2.08954 12.0905 2 12.201 2L13.801 2C13.9114 2 14.001 2.08954 14.001 2.2V3.8ZM4.80098 10C4.91143 10 5.00098 9.91046 5.00098 9.8V6.2C5.00098 6.08954 4.91143 6 4.80098 6L1.20098 6C1.09052 6 1.00098 6.08954 1.00098 6.2V9.8C1.00098 9.91046 1.09052 10 1.20098 10H4.80098ZM10 9.3C10 9.41046 9.91046 9.5 9.8 9.5H7.2C7.08954 9.5 7 9.41046 7 9.3L7 6.7C7 6.58954 7.08954 6.5 7.2 6.5L9.8 6.5C9.91046 6.5 10 6.58954 10 6.7V9.3ZM13.801 9C13.9114 9 14.001 8.91046 14.001 8.8V7.2C14.001 7.08954 13.9114 7 13.801 7L12.201 7C12.0905 7 12.001 7.08954 12.001 7.2L12.001 8.8C12.001 8.91046 12.0905 9 12.201 9H13.801ZM5.00098 14.8C5.00098 14.9105 4.91143 15 4.80098 15H1.20098C1.09052 15 1.00098 14.9105 1.00098 14.8V11.2C1.00098 11.0895 1.09052 11 1.20098 11L4.80098 11C4.91143 11 5.00098 11.0895 5.00098 11.2V14.8ZM9.8 14.5C9.91046 14.5 10 14.4105 10 14.3V11.7C10 11.5895 9.91046 11.5 9.8 11.5L7.2 11.5C7.08954 11.5 7 11.5895 7 11.7L7 14.3C7 14.4105 7.08954 14.5 7.2 14.5H9.8Z" fill="black"/>
</g>
</svg>
