<svg width="16" height="16" viewBox="0 0 16 16" fill="none" xmlns="http://www.w3.org/2000/svg">
<g id="interpolate-scale-both" clip-path="url(#clip0_241_9428)">
<g id="interpolate-scale-both_2">
<path id="Union" fill-rule="evenodd" clip-rule="evenodd" d="M12.201 4C12.0905 4 12.001 3.91046 12.001 3.8L12.001 2.2C12.001 2.08954 12.0905 2 12.201 2L13.801 2C13.9114 2 14.001 2.08954 14.001 2.2L14.001 3.8C14.001 3.91046 13.9114 4 13.801 4L12.201 4ZM2.20108 14C2.09063 14 2.00108 13.9105 2.00108 13.8L2.00108 12.2C2.00108 12.0895 2.09063 12 2.20108 12L3.80108 12C3.91154 12 4.00108 12.0895 4.00108 12.2L4.00108 13.8C4.00108 13.9105 3.91154 14 3.80108 14L2.20108 14ZM12.501 8.79805C12.501 8.9085 12.5905 8.99805 12.701 8.99805L13.301 8.99805C13.4114 8.99805 13.501 8.9085 13.501 8.79805L13.501 8.19805C13.501 8.08759 13.4114 7.99805 13.301 7.99805L12.701 7.99805C12.5905 7.99805 12.501 8.08759 12.501 8.19805L12.501 8.79805ZM12.9514 13.25C12.8409 13.25 12.7514 13.1605 12.7514 13.05L12.7514 12.95C12.7514 12.8395 12.8409 12.75 12.9514 12.75L13.0514 12.75C13.1618 12.75 13.2514 12.8395 13.2514 12.95L13.2514 13.05C13.2514 13.1605 13.1618 13.25 13.0514 13.25L12.9514 13.25ZM7.00098 4.3C7.00098 4.41046 7.09052 4.5 7.20098 4.5L9.80098 4.5C9.91143 4.5 10.001 4.41046 10.001 4.3L10.001 1.7C10.001 1.58954 9.91143 1.5 9.80098 1.5L7.20098 1.5C7.09052 1.5 7.00098 1.58954 7.00098 1.7L7.00098 4.3ZM7.70098 9.49805C7.59052 9.49805 7.50098 9.4085 7.50098 9.29805L7.50098 7.69805C7.50098 7.58759 7.59052 7.49805 7.70098 7.49805L9.30098 7.49805C9.41143 7.49805 9.50098 7.58759 9.50098 7.69805L9.50098 9.29805C9.50098 9.4085 9.41143 9.49805 9.30098 9.49805L7.70098 9.49805ZM8.00098 13.3C8.00098 13.4105 8.09052 13.5 8.20098 13.5L8.80098 13.5C8.91143 13.5 9.00098 13.4105 9.00098 13.3L9.00098 12.7C9.00098 12.5895 8.91143 12.5 8.80098 12.5L8.20098 12.5C8.09052 12.5 8.00098 12.5895 8.00098 12.7L8.00098 13.3ZM1.20108 5C1.09063 5 1.00108 4.91046 1.00108 4.8L1.00108 1.2C1.00108 1.08954 1.09063 1 1.20108 0.999999L4.80108 1C4.91154 1 5.00108 1.08954 5.00108 1.2L5.00108 4.8C5.00108 4.91046 4.91154 5 4.80108 5L1.20108 5ZM1.50108 9.79805C1.50108 9.9085 1.59063 9.99805 1.70108 9.99805L4.30108 9.99805C4.41154 9.99805 4.50108 9.9085 4.50108 9.79805L4.50108 7.19805C4.50108 7.08759 4.41154 6.99805 4.30108 6.99805L1.70108 6.99805C1.59063 6.99805 1.50108 7.08759 1.50108 7.19805L1.50108 9.79805Z" fill="black"/>
</g>
</g>
<defs>
<clipPath id="clip0_241_9428">
<rect width="16" height="16" fill="white"/>
</clipPath>
</defs>
</svg>
