<svg width="16" height="16" viewBox="0 0 16 16" fill="none" xmlns="http://www.w3.org/2000/svg">
<g id="interpolate-rotate-x">
<path id="Union" fill-rule="evenodd" clip-rule="evenodd" d="M7.68946 1.13912C7.774 0.935023 8.00798 0.838103 8.21208 0.922643L9.32074 1.38186C9.52483 1.4664 9.62175 1.70039 9.53722 1.90449L8.31263 4.8609C8.22809 5.065 7.9941 5.16192 7.79 5.07738L6.68135 4.61816C6.47725 4.53362 6.38033 4.29963 6.46487 4.09554L7.68946 1.13912ZM2.00098 1.40073C2.00098 1.17982 2.18006 1.00073 2.40098 1.00073H3.60098C3.82189 1.00073 4.00098 1.17982 4.00098 1.40073V4.60073C4.00098 4.82165 3.82189 5.00073 3.60098 5.00073H2.40098C2.18006 5.00073 2.00098 4.82165 2.00098 4.60073V1.40073ZM2.00098 6.40077C2.00098 6.17986 2.18006 6.00077 2.40098 6.00077H3.60098C3.82189 6.00077 4.00098 6.17986 4.00098 6.40077V9.60077C4.00098 9.82168 3.82189 10.0008 3.60098 10.0008H2.40098C2.18006 10.0008 2.00098 9.82168 2.00098 9.60077V6.40077ZM2.40098 11.0008C2.18006 11.0008 2.00098 11.1799 2.00098 11.4008V14.6008C2.00098 14.8217 2.18006 15.0008 2.40098 15.0008H3.60098C3.82189 15.0008 4.00098 14.8217 4.00098 14.6008V11.4008C4.00098 11.1799 3.82189 11.0008 3.60098 11.0008H2.40098ZM8.21208 5.92362C8.00798 5.83908 7.774 5.936 7.68946 6.1401L6.46487 9.09651C6.38033 9.30061 6.47725 9.5346 6.68135 9.61914L7.79 10.0784C7.9941 10.1629 8.22809 10.066 8.31263 9.86188L9.53722 6.90546C9.62175 6.70137 9.52483 6.46738 9.32074 6.38284L8.21208 5.92362ZM7.68946 11.1401C7.774 10.936 8.00798 10.8391 8.21208 10.9236L9.32074 11.3828C9.52483 11.4674 9.62175 11.7014 9.53722 11.9055L8.31263 14.8619C8.22809 15.066 7.9941 15.1629 7.79 15.0784L6.68135 14.6191C6.47725 14.5346 6.38033 14.3006 6.46487 14.0965L7.68946 11.1401ZM13.9909 1.15861C13.8346 1.0024 13.5814 1.0024 13.4252 1.15861L11.1624 3.42135C11.0062 3.57756 11.0062 3.83083 11.1624 3.98704L12.011 4.83557C12.1672 4.99178 12.4204 4.99178 12.5766 4.83557L14.8394 2.57283C14.9956 2.41662 14.9956 2.16335 14.8394 2.00714L13.9909 1.15861ZM13.4252 6.16057C13.5814 6.00436 13.8346 6.00436 13.9909 6.16057L14.8394 7.00909C14.9956 7.1653 14.9956 7.41857 14.8394 7.57478L12.5766 9.83752C12.4204 9.99373 12.1672 9.99373 12.011 9.83752L11.1624 8.98899C11.0062 8.83278 11.0062 8.57952 11.1624 8.42331L13.4252 6.16057ZM13.9909 11.1606C13.8346 11.0044 13.5814 11.0044 13.4252 11.1606L11.1624 13.4233C11.0062 13.5795 11.0062 13.8328 11.1624 13.989L12.011 14.8375C12.1672 14.9937 12.4204 14.9937 12.5766 14.8375L14.8394 12.5748C14.9956 12.4186 14.9956 12.1653 14.8394 12.0091L13.9909 11.1606Z" fill="black"/>
</g>
</svg>
