<svg width="16" height="16" viewBox="0 0 16 16" fill="none" xmlns="http://www.w3.org/2000/svg">
<g id="interpolate-rotate-y">
<path id="Union" fill-rule="evenodd" clip-rule="evenodd" d="M2.00088 1.4C2.00088 1.17909 2.17996 1 2.40088 1H3.60088C3.82179 1 4.00088 1.17909 4.00088 1.4V4.6C4.00088 4.82091 3.82179 5 3.60088 5H2.40088C2.17996 5 2.00088 4.82091 2.00088 4.6V1.4ZM2.68936 6.13908C2.7739 5.93499 3.00788 5.83806 3.21198 5.9226L4.32064 6.38182C4.52473 6.46636 4.62165 6.70035 4.53711 6.90445L3.31253 9.86086C3.22799 10.065 2.994 10.1619 2.7899 10.0773L1.68125 9.61812C1.47715 9.53358 1.38023 9.29959 1.46477 9.0955L2.68936 6.13908ZM3.99099 11.1617C3.83478 11.0055 3.58152 11.0055 3.42531 11.1617L1.16257 13.4245C1.00636 13.5807 1.00636 13.834 1.16257 13.9902L2.0111 14.8387C2.16731 14.9949 2.42057 14.9949 2.57678 14.8387L4.83952 12.576C4.99573 12.4198 4.99573 12.1665 4.83952 12.0103L3.99099 11.1617ZM7.00088 1.4C7.00088 1.17909 7.17996 1 7.40088 1H8.60088C8.82179 1 9.00088 1.17909 9.00088 1.4V4.6C9.00088 4.82091 8.82179 5 8.60088 5H7.40088C7.17996 5 7.00088 4.82091 7.00088 4.6V1.4ZM8.21174 5.9226C8.00764 5.83806 7.77365 5.93499 7.68911 6.13908L6.46452 9.0955C6.37998 9.29959 6.47691 9.53358 6.681 9.61812L7.78966 10.0773C7.99376 10.1619 8.22774 10.065 8.31228 9.86086L9.53687 6.90445C9.62141 6.70035 9.52449 6.46636 9.32039 6.38182L8.21174 5.9226ZM8.42507 11.1615C8.58127 11.0053 8.83454 11.0053 8.99075 11.1615L9.83928 12.01C9.99549 12.1662 9.99549 12.4195 9.83928 12.5757L7.57654 14.8385C7.42033 14.9947 7.16706 14.9947 7.01085 14.8385L6.16232 13.9899C6.00611 13.8337 6.00611 13.5805 6.16232 13.4242L8.42507 11.1615ZM12.4009 1C12.18 1 12.0009 1.17909 12.0009 1.4V4.6C12.0009 4.82091 12.18 5 12.4009 5H13.6009C13.8218 5 14.0009 4.82091 14.0009 4.6V1.4C14.0009 1.17909 13.8218 1 13.6009 1H12.4009ZM12.6894 6.13908C12.7739 5.93499 13.0079 5.83806 13.212 5.9226L14.3206 6.38182C14.5247 6.46636 14.6217 6.70035 14.5371 6.90445L13.3125 9.86086C13.228 10.065 12.994 10.1619 12.7899 10.0773L11.6812 9.61812C11.4771 9.53358 11.3802 9.29959 11.4648 9.0955L12.6894 6.13908ZM13.9908 11.1617C13.8345 11.0055 13.5813 11.0055 13.4251 11.1617L11.1623 13.4245C11.0061 13.5807 11.0061 13.834 11.1623 13.9902L12.0109 14.8387C12.1671 14.9949 12.4203 14.9949 12.5765 14.8387L14.8393 12.576C14.9955 12.4198 14.9955 12.1665 14.8393 12.0103L13.9908 11.1617Z" fill="black"/>
</g>
</svg>
