<svg width="16" height="16" viewBox="0 0 16 16" fill="none" xmlns="http://www.w3.org/2000/svg">
<g id="interpolate-scale-y">
<path id="Union" fill-rule="evenodd" clip-rule="evenodd" d="M11.201 5C11.0905 5 11.001 4.91046 11.001 4.8L11.001 1.2C11.001 1.08954 11.0905 1 11.201 1L14.801 1C14.9114 1 15.001 1.08954 15.001 1.2L15.001 4.8C15.001 4.91046 14.9114 5 14.801 5L11.201 5ZM2.20098 14C2.09052 14 2.00098 13.9105 2.00098 13.8L2.00098 12.2C2.00098 12.0895 2.09052 12 2.20098 12L3.80098 12C3.91143 12 4.00098 12.0895 4.00098 12.2L4.00098 13.8C4.00098 13.9105 3.91143 14 3.80098 14L2.20098 14ZM11.501 9.79902C11.501 9.90948 11.5905 9.99902 11.701 9.99902L14.301 9.99902C14.4114 9.99902 14.501 9.90948 14.501 9.79902L14.501 7.19902C14.501 7.08857 14.4114 6.99902 14.301 6.99902L11.701 6.99902C11.5905 6.99902 11.501 7.08857 11.501 7.19902L11.501 9.79902ZM12.201 14C12.0905 14 12.001 13.9105 12.001 13.8L12.001 12.2C12.001 12.0895 12.0905 12 12.201 12L13.801 12C13.9114 12 14.001 12.0895 14.001 12.2L14.001 13.8C14.001 13.9105 13.9114 14 13.801 14L12.201 14ZM6.00098 4.8C6.00098 4.91046 6.09052 5 6.20098 5L9.80098 5C9.91143 5 10.001 4.91046 10.001 4.8L10.001 1.2C10.001 1.08954 9.91143 1 9.80097 1L6.20098 1C6.09052 1 6.00098 1.08954 6.00098 1.2L6.00098 4.8ZM6.70098 9.99902C6.59052 9.99902 6.50098 9.90948 6.50098 9.79902L6.50098 7.19902C6.50098 7.08857 6.59052 6.99902 6.70098 6.99902L9.30098 6.99902C9.41143 6.99902 9.50097 7.08857 9.50097 7.19902L9.50098 9.79902C9.50098 9.90948 9.41143 9.99902 9.30098 9.99902L6.70098 9.99902ZM7.00098 13.8C7.00098 13.9105 7.09052 14 7.20098 14L8.80098 14C8.91143 14 9.00098 13.9105 9.00098 13.8L9.00098 12.2C9.00098 12.0895 8.91143 12 8.80098 12L7.20098 12C7.09052 12 7.00098 12.0895 7.00098 12.2L7.00098 13.8ZM1.20098 5C1.09052 5 1.00098 4.91046 1.00098 4.8L1.00098 1.2C1.00098 1.08954 1.09052 1 1.20098 0.999999L4.80097 1C4.91143 1 5.00097 1.08954 5.00097 1.2L5.00098 4.8C5.00098 4.91046 4.91143 5 4.80098 5L1.20098 5ZM1.50098 9.79902C1.50098 9.90948 1.59052 9.99902 1.70098 9.99902L4.30098 9.99902C4.41143 9.99902 4.50098 9.90948 4.50098 9.79902L4.50098 7.19902C4.50098 7.08857 4.41143 6.99902 4.30097 6.99902L1.70098 6.99902C1.59052 6.99902 1.50098 7.08857 1.50098 7.19902L1.50098 9.79902Z" fill="black"/>
</g>
</svg>
