<svg width="16" height="16" viewBox="0 0 16 16" fill="none" xmlns="http://www.w3.org/2000/svg">
<g id="join-type">
<path class="warning" fill-rule="evenodd" clip-rule="evenodd" d="M5.8999 7.40058V9.50009C5.8999 10.6949 5.42733 11.5114 4.68367 12.0496C3.91433 12.6063 2.8025 12.9001 1.4999 12.9001C1.16853 12.9001 0.899902 13.1687 0.899902 13.5001C0.899902 13.8315 1.16853 14.1001 1.4999 14.1001C2.95872 14.1001 4.3469 13.7746 5.3872 13.0217C6.45319 12.2502 7.0999 11.0667 7.0999 9.50009V8.40058L6.9999 8.50058L5.8999 7.40058ZM10.6244 4.87612L11.4999 4.00058L11.4622 3.96289C12.2618 4.41753 12.9146 5.02288 13.4339 5.78819C14.7328 7.70244 15.0999 10.4947 15.0999 14.0001C15.0999 14.3315 14.8313 14.6001 14.4999 14.6001C14.1685 14.6001 13.8999 14.3315 13.8999 14.0001C13.8999 10.5055 13.517 8.04774 12.4409 6.46199C11.9918 5.80014 11.404 5.26713 10.6244 4.87612Z" fill="#9E9E9E"/>
<path id="Union" fill-rule="evenodd" clip-rule="evenodd" d="M4.70711 4.70711L4 4L4.70711 3.29289L6.29289 1.70711L7 1L7.70711 1.70711L9.29289 3.29289L10 4L9.29289 4.70711L7.70711 6.29289L7 7L6.29289 6.29289L4.70711 4.70711ZM7 5.58579L8.58579 4L7 2.41421L5.41421 4L7 5.58579Z" fill="black"/>
</g>
</svg>
