<svg width="16" height="16" viewBox="0 0 16 16" fill="none" xmlns="http://www.w3.org/2000/svg">
<g id="lattice2">
<path id="Union" fill-rule="evenodd" clip-rule="evenodd" d="M9.86612 2.12448C9.33614 2.26527 8.83643 2.52663 8.4098 2.89993C7.7531 3.47455 6.9618 3.83607 6.13421 3.9696V7.12476C6.82623 6.98536 7.48443 6.66837 8.03729 6.1846C8.57462 5.71444 9.19883 5.36863 9.86612 5.16094V2.12448ZM10.7991 2.00282V4.96456C11.1715 4.92226 11.5504 4.92111 11.9293 4.96321L13.5989 5.14873V2.74069L11.9437 2.18894C11.569 2.06405 11.1827 2.00298 10.7991 2.00282ZM9.86612 6.14902C9.42623 6.3211 9.01465 6.56914 8.65167 6.88674C7.92495 7.52263 7.04977 7.92349 6.13421 8.07296V10.4394C6.86739 10.3826 7.59279 10.223 8.28854 9.9621C8.80096 9.76994 9.32915 9.6264 9.86612 9.53274V6.14902ZM10.7991 9.42094V5.90493C11.1365 5.85778 11.4814 5.85217 11.8263 5.89049L13.5989 6.08745V6.60291V9.40188H11.3779C11.1846 9.40188 10.9916 9.40826 10.7991 9.42094ZM9.86612 10.4815C9.44125 10.5647 9.02313 10.6831 8.61613 10.8357C7.81507 11.1361 6.97887 11.3165 6.13421 11.3749V14.0668H6.13511H9.86612V10.4815ZM10.7991 14.0668V10.3562C10.9915 10.342 11.1845 10.3349 11.3779 10.3349L13.5989 10.3349V14.0668H10.7991ZM3.55662 3.63492C4.08558 3.87002 4.64334 3.99801 5.20122 4.02324V7.20453C4.67272 7.1896 4.14301 7.07301 3.64186 6.85027L2.4032 6.29975V3.12228L3.55662 3.63492ZM3.26293 7.70285C3.88573 7.97965 4.54449 8.12273 5.20122 8.13784V10.4562C4.73857 10.437 4.2765 10.377 3.82045 10.2756L2.4032 9.96067V7.32074L3.26293 7.70285ZM3.61806 11.1864C4.14089 11.3026 4.6708 11.3702 5.20122 11.3899V14.0668H2.4032V10.9164L3.61806 11.1864ZM7.79542 2.19779C9.01296 1.13244 10.7039 0.792224 12.2387 1.30383L14.213 1.96191L14.5319 2.06823V2.40446V6.60291V10.3349V14.5333V14.9998H14.0654H9.86703H6.13511H1.93671H1.47021V14.5333V10.3349V6.60291V2.40446V1.68664L2.12617 1.97818L3.93555 2.78235C5.2262 3.35598 6.7325 3.12786 7.79542 2.19779Z" fill="black"/>
</g>
</svg>
