<svg width="16" height="16" viewBox="0 0 16 16" fill="none" xmlns="http://www.w3.org/2000/svg">
<g id="layer-next">
<path id="rectangle" d="M7.99904 9.43954L14.8809 5.99914L7.99904 2.55875H7.99901L1.11719 5.99914L7.99901 9.43954L7.99904 9.43954Z" stroke="black"/>
<path id="neutral" fill-rule="evenodd" clip-rule="evenodd" d="M10.8804 8.55862L13.7634 9.99993L7.99979 12.8813L2.23613 9.99993L5.1194 8.55851L4.00123 7.99951L0.894323 9.55273C0.525785 9.73697 0.525785 10.2629 0.894323 10.4471L7.77622 13.8876C7.91696 13.9579 8.08261 13.9579 8.22335 13.8876L15.1053 10.4471C15.4738 10.2629 15.4738 9.73697 15.1053 9.55273L11.9986 7.99962L10.8804 8.55862Z" fill="black"/>
<path id="neutral_2" opacity="0.3" fill-rule="evenodd" clip-rule="evenodd" d="M8.44716 9.77505C8.16566 9.91577 7.83434 9.91577 7.55284 9.77505L4.00123 7.99951L0.894323 9.55273C0.525785 9.73697 0.525785 10.2629 0.894323 10.4471L7.77622 13.8876C7.91696 13.9579 8.08261 13.9579 8.22335 13.8876L15.1053 10.4471C15.4738 10.2629 15.4738 9.73697 15.1053 9.55273L11.9986 7.99962L8.44716 9.77505Z" fill="black"/>
</g>
</svg>
