<svg width="16" height="16" viewBox="0 0 16 16" fill="none" xmlns="http://www.w3.org/2000/svg">
<g id="layer-bottom">
<path id="Union" fill-rule="evenodd" clip-rule="evenodd" d="M12.5 10.5C12.5 10.2239 12.7239 10 13 10C13.2761 10 13.5 10.2239 13.5 10.5L13.5 13.2929L14.6464 12.1464C14.8417 11.9512 15.1583 11.9512 15.3536 12.1464C15.5488 12.3417 15.5488 12.6583 15.3536 12.8536L13.3538 14.8534C13.3537 14.8534 13.3536 14.8535 13.3536 14.8536L13 15.2071L12.6464 14.8536L12.6462 14.8533L10.6464 12.8536C10.4512 12.6583 10.4512 12.3417 10.6464 12.1464C10.8417 11.9512 11.1583 11.9512 11.3536 12.1464L12.5 13.2929L12.5 10.5Z" fill="black"/>
<path id="Subtract" fill-rule="evenodd" clip-rule="evenodd" d="M0 13.4989L2.7765 14.8869C2.91724 14.9573 3.08289 14.9573 3.22363 14.8869L10.1055 11.4465C10.4741 11.2623 10.4741 10.7363 10.1055 10.5521L7.99961 9.4993L10.1055 8.4465C10.4741 8.26226 10.4741 7.73634 10.1055 7.5521L7.99879 6.49889L10.1045 5.44619C10.4731 5.26195 10.4731 4.73603 10.1045 4.55179L3.22262 1.11136C3.08188 1.041 2.91623 1.041 2.77549 1.11136L0 2.4989V3.6169L2.99905 2.1176L8.76271 4.99899L2.99905 7.88038L0 6.38108V7.49908L2.77549 8.88661C2.91623 8.95697 3.08188 8.95697 3.22262 8.88661L6.88062 7.05789L8.76372 7.9993L3.00006 10.8807L0 9.38089V10.4989L2.7765 11.8869C2.91724 11.9573 3.08289 11.9573 3.22363 11.8869L6.88144 10.0583L8.76372 10.9993L3.00006 13.8807L0 12.3809V13.4989Z" fill="black"/>
<path id="neutral" opacity="0.3" fill-rule="evenodd" clip-rule="evenodd" d="M0 13.499L2.77546 14.8865C2.9162 14.9569 3.08185 14.9569 3.22259 14.8865L10.1045 11.4461C10.473 11.2619 10.473 10.736 10.1045 10.5517L7.99879 9.49902L3.22259 11.8868C3.08185 11.9571 2.9162 11.9571 2.77546 11.8868L0 10.4992V13.499Z" fill="black"/>
</g>
</svg>
