<svg width="16" height="16" viewBox="0 0 16 16" fill="none" xmlns="http://www.w3.org/2000/svg">
<g id="layer-top">
<path id="Union" fill-rule="evenodd" clip-rule="evenodd" d="M14.6464 3.85363C14.8417 4.04889 15.1583 4.04889 15.3536 3.85363C15.5488 3.65837 15.5488 3.34178 15.3536 3.14652L13.3536 1.14652L13 0.792969L12.6464 1.14652L10.6464 3.14652C10.4512 3.34178 10.4512 3.65837 10.6464 3.85363C10.8417 4.04889 11.1583 4.04889 11.3536 3.85363L12.5 2.70718L12.5 6.00008C12.5 6.27622 12.7239 6.50008 13 6.50008C13.2761 6.50008 13.5 6.27622 13.5 6.00008L13.5 2.70718L14.6464 3.85363Z" fill="black"/>
<path id="Subtract" fill-rule="evenodd" clip-rule="evenodd" d="M0 13.4989L2.7765 14.8869C2.91724 14.9573 3.08289 14.9573 3.22363 14.8869L10.1055 11.4465C10.4741 11.2623 10.4741 10.7363 10.1055 10.5521L7.99961 9.4993L10.1055 8.4465C10.4741 8.26226 10.4741 7.73634 10.1055 7.5521L7.99879 6.49889L10.1045 5.44619C10.4731 5.26195 10.4731 4.73603 10.1045 4.55179L3.22262 1.11136C3.08188 1.041 2.91623 1.041 2.77549 1.11136L0 2.4989V3.6169L2.99905 2.1176L8.76271 4.99899L2.99905 7.88038L0 6.38108V7.49908L2.77549 8.88661C2.91623 8.95697 3.08188 8.95697 3.22262 8.88661L6.88062 7.05789L8.76372 7.9993L3.00006 10.8807L0 9.38089V10.4989L2.7765 11.8869C2.91724 11.9573 3.08289 11.9573 3.22363 11.8869L6.88144 10.0583L8.76372 10.9993L3.00006 13.8807L0 12.3809V13.4989Z" fill="black"/>
<path id="neutral" opacity="0.3" fill-rule="evenodd" clip-rule="evenodd" d="M3.22259 8.88661C3.08185 8.95697 2.9162 8.95697 2.77546 8.88661L0 7.4991V2.49888L2.77546 1.11136C2.9162 1.041 3.08185 1.041 3.22259 1.11136L10.1045 4.55179C10.473 4.73603 10.473 5.26195 10.1045 5.44619L3.22259 8.88661Z" fill="black"/>
</g>
</svg>
