<svg width="16" height="16" viewBox="0 0 16 16" fill="none" xmlns="http://www.w3.org/2000/svg">
<g id="layer-new" clip-path="url(#clip0_241_9417)">
<g id=".plus">
<path id="Union" fill-rule="evenodd" clip-rule="evenodd" d="M8 14C11.3137 14 14 11.3137 14 8C14 4.68629 11.3137 2 8 2C4.68629 2 2 4.68629 2 8C2 11.3137 4.68629 14 8 14ZM8 15C11.866 15 15 11.866 15 8C15 4.13401 11.866 1 8 1C4.13401 1 1 4.13401 1 8C1 11.866 4.13401 15 8 15ZM4.35 8C4.35 7.64102 4.64102 7.35 5 7.35H7.35V5C7.35 4.64102 7.64102 4.35 8 4.35C8.35898 4.35 8.65 4.64101 8.65 5V7.35H11C11.359 7.35 11.65 7.64102 11.65 8C11.65 8.35899 11.359 8.65 11 8.65H8.65V11C8.65 11.359 8.35899 11.65 8 11.65C7.64102 11.65 7.35 11.359 7.35 11V8.65H5C4.64101 8.65 4.35 8.35898 4.35 8Z" fill="black"/>
</g>
</g>
<defs>
<clipPath id="clip0_241_9417">
<rect width="16" height="16" fill="white"/>
</clipPath>
</defs>
</svg>
