<svg width="16" height="16" viewBox="0 0 16 16" fill="none" xmlns="http://www.w3.org/2000/svg">
<g id="layer-rename">
<rect id="Rectangle 503" opacity="0.15" x="2" y="3" width="14" height="10" fill="black"/>
<path id="Union" fill-rule="evenodd" clip-rule="evenodd" d="M0 2.5C0 2.22386 0.223858 2 0.5 2H1H2H2.5C2.77614 2 3 2.22386 3 2.5C3 2.77614 2.77614 3 2.5 3H2V13H2.5C2.77614 13 3 13.2239 3 13.5C3 13.7761 2.77614 14 2.5 14H2H1H0.5C0.223858 14 0 13.7761 0 13.5C0 13.2239 0.223858 13 0.5 13H1V3H0.5C0.223858 3 0 2.77614 0 2.5ZM3.54297 11H5.05433L5.43708 9.77841H7.44636L7.8299 11H9.34126L7.3782 5.18182H5.50604L3.54297 11ZM7.11098 8.71023L6.46342 6.64773H6.41797L5.77175 8.71023H7.11098ZM9.96768 5.18182V11H11.3427V10.2926H11.3853C11.444 10.4271 11.5273 10.553 11.6353 10.6705C11.7451 10.7879 11.8806 10.8826 12.0415 10.9545C12.2025 11.0265 12.3929 11.0625 12.6126 11.0625C12.9345 11.0625 13.2272 10.9792 13.4904 10.8125C13.7556 10.6458 13.9658 10.3958 14.1211 10.0625C14.2783 9.72917 14.3569 9.31534 14.3569 8.82102C14.3569 8.30777 14.2754 7.88542 14.1126 7.55398C13.9497 7.22254 13.7357 6.97727 13.4705 6.81818C13.2073 6.65909 12.9241 6.57955 12.6211 6.57955C12.3919 6.57955 12.195 6.61932 12.0302 6.69886C11.8673 6.77652 11.7328 6.87689 11.6268 7C11.5226 7.12311 11.4421 7.25095 11.3853 7.38352H11.3569V5.18182H9.96768ZM11.4222 9.43182C11.3597 9.25758 11.3285 9.05303 11.3285 8.81818C11.3285 8.57955 11.3597 8.37405 11.4222 8.2017C11.4866 8.02936 11.5785 7.89678 11.6978 7.80398C11.8171 7.71117 11.962 7.66477 12.1325 7.66477C12.3048 7.66477 12.4497 7.71212 12.5671 7.80682C12.6864 7.90152 12.7764 8.03504 12.837 8.20739C12.8995 8.37973 12.9308 8.58333 12.9308 8.81818C12.9308 9.05303 12.8995 9.25758 12.837 9.43182C12.7764 9.60606 12.6864 9.74148 12.5671 9.83807C12.4478 9.93277 12.3029 9.98011 12.1325 9.98011C11.9639 9.98011 11.819 9.93277 11.6978 9.83807C11.5785 9.74148 11.4866 9.60606 11.4222 9.43182Z" fill="black"/>
</g>
</svg>
