<svg width="16" height="16" viewBox="0 0 16 16" fill="none" xmlns="http://www.w3.org/2000/svg">
<g id="layer-previous">
<path id="Subtract" fill-rule="evenodd" clip-rule="evenodd" d="M10.8804 8.55802L13.7637 9.99943L8.00003 12.8808L2.23637 9.99943L5.11862 8.55853L4.00045 7.99953L0.894568 9.55223C0.52603 9.73647 0.52603 10.2624 0.894568 10.4466L7.77647 13.8871C7.91721 13.9574 8.08286 13.9574 8.2236 13.8871L15.1055 10.4466C15.474 10.2624 15.474 9.73647 15.1055 9.55223L11.9986 7.99902L10.8804 8.55802Z" fill="black"/>
<path id="neutral" d="M7.99904 9.43954L14.8809 5.99914L7.99904 2.55875H7.99901L1.11719 5.99914L7.99901 9.43954L7.99904 9.43954Z" stroke="black"/>
<path id="neutral_2" opacity="0.3" d="M7.77546 9.88677C7.9162 9.95713 8.08185 9.95713 8.22259 9.88677L15.1045 6.44634C15.473 6.2621 15.473 5.73619 15.1045 5.55194L8.22259 2.11152C8.08185 2.04116 7.9162 2.04116 7.77546 2.11152L0.893559 5.55194C0.525021 5.73619 0.525021 6.2621 0.893559 6.44634L7.77546 9.88677Z" fill="black"/>
</g>
</svg>
