<svg width="16" height="16" viewBox="0 0 16 16" fill="none" xmlns="http://www.w3.org/2000/svg">
<g id="layer-duplicate">
<g id="edit-duplicate">
<path id="Union" fill-rule="evenodd" clip-rule="evenodd" d="M2 2H11V4H5C4.44772 4 4 4.44772 4 5V11H2L2 2ZM12 2V4H14C14.5523 4 15 4.44772 15 5V14C15 14.5523 14.5523 15 14 15H5C4.44772 15 4 14.5523 4 14V12H2C1.44771 12 1 11.5523 1 11V2C1 1.44771 1.44772 1 2 1H11C11.5523 1 12 1.44772 12 2ZM11 5H12H14V14H5L5 12V11V5H11ZM9.00098 12.0001L9.00059 10H7.00098C6.72483 10 6.50098 9.77614 6.50098 9.5C6.50098 9.22386 6.72483 9 7.00098 9H9.00039L9 7.0001C8.99995 6.72396 9.22376 6.50005 9.4999 6.5C9.77605 6.49995 9.99995 6.72376 10 6.9999L10.0004 9L12.001 9C12.2771 9 12.501 9.22386 12.501 9.5C12.501 9.77614 12.2771 10 12.001 10L10.0006 10L10.001 11.9999C10.001 12.276 9.77722 12.4999 9.50107 12.5C9.22493 12.5001 9.00103 12.2762 9.00098 12.0001Z" fill="black"/>
</g>
</g>
</svg>
