<svg width="16" height="16" viewBox="0 0 16 16" fill="none" xmlns="http://www.w3.org/2000/svg">
<g id="layout-vertical">
<path id="Union" fill-rule="evenodd" clip-rule="evenodd" d="M2.00088 8.50016L2.00088 14L14.0009 14L14.0009 8.50016L2.00088 8.50016ZM15.0009 7.99004L15.0009 2C15.0009 1.44771 14.5532 1 14.0009 1L2.00088 0.999999C1.44859 0.999999 1.00088 1.44772 1.00088 2L1.00088 14C1.00088 14.5523 1.44859 15 2.00088 15L14.0009 15C14.5532 15 15.0009 14.5523 15.0009 14L15.0009 8.01028C15.0009 8.00691 15.001 8.00354 15.001 8.00016C15.001 7.99678 15.0009 7.99341 15.0009 7.99004ZM14.0009 7.50016L2.00088 7.50016L2.00088 2L14.0009 2L14.0009 7.50016Z" fill="black"/>
</g>
</svg>
