<svg width="16" height="16" viewBox="0 0 16 16" fill="none" xmlns="http://www.w3.org/2000/svg">
<g id="layout-auto">
<path id="Union" fill-rule="evenodd" clip-rule="evenodd" d="M1.00098 2C1.00098 1.44772 1.44869 1 2.00098 1H14.001C14.5533 1 15.001 1.44771 15.001 2V7C15.001 7.27614 14.7771 7.5 14.501 7.5C14.2248 7.5 14.001 7.27614 14.001 7V2L2.00098 2V14H7.00098C7.27712 14 7.50098 14.2239 7.50098 14.5C7.50098 14.7761 7.27712 15 7.00098 15H2.00098C1.44869 15 1.00098 14.5523 1.00098 14V2ZM14.8545 9.14645C15.0498 9.34171 15.0498 9.65829 14.8545 9.85355L9.85453 14.8536C9.65927 15.0488 9.34269 15.0488 9.14742 14.8536C8.95216 14.6583 8.95216 14.3417 9.14742 14.1464L14.1474 9.14645C14.3427 8.95118 14.6593 8.95118 14.8545 9.14645ZM14.8544 12.8536C15.0498 12.6584 15.0498 12.3418 14.8546 12.1465C14.6594 11.9512 14.3428 11.9511 14.1475 12.1464L12.1465 14.1464C11.9512 14.3416 11.9511 14.6582 12.1464 14.8535C12.3416 15.0488 12.6582 15.0489 12.8535 14.8536L14.8544 12.8536Z" fill="black"/>
</g>
</svg>
