<svg width="16" height="16" viewBox="0 0 16 16" fill="none" xmlns="http://www.w3.org/2000/svg">
<g id="markers">
<path id="Union" fill-rule="evenodd" clip-rule="evenodd" d="M11.6475 2.35354C11.4523 2.15826 11.4523 1.84168 11.6476 1.64643C11.8428 1.45118 12.1594 1.45119 12.3547 1.64646L14.8544 4.14646L15.2079 4.5L14.8544 4.85354L12.3547 7.35354C12.1594 7.54881 11.8428 7.54882 11.6476 7.35357C11.4523 7.15832 11.4523 6.84174 11.6475 6.64646L13.2938 5H4.50084V6.25H1.00084V2.75H4.50084V4H13.2938L11.6475 2.35354ZM4.35462 9.35357C4.54989 9.15832 4.54991 8.84174 4.35466 8.64646C4.1594 8.45119 3.84282 8.45118 3.64755 8.64643L1.14731 11.1464L0.793701 11.5L1.14731 11.8536L3.64755 14.3536C3.84282 14.5488 4.1594 14.5488 4.35466 14.3535C4.54991 14.1583 4.54989 13.8417 4.35462 13.6464L2.70803 12H10.5639C10.7859 12.8626 11.5689 13.5 12.5008 13.5C13.6054 13.5 14.5008 12.6046 14.5008 11.5C14.5008 10.3954 13.6054 9.5 12.5008 9.5C11.5689 9.5 10.7859 10.1374 10.5639 11H2.70803L4.35462 9.35357Z" fill="black"/>
</g>
</svg>
