<svg width="16" height="16" viewBox="0 0 16 16" fill="none" xmlns="http://www.w3.org/2000/svg">
<g id="matrix-2d" clip-path="url(#clip0_241_9388)">
<path id="Union" fill-rule="evenodd" clip-rule="evenodd" d="M0.75 0.75L3 0.75C3.13807 0.75 3.25 0.638071 3.25 0.5C3.25 0.361929 3.13807 0.25 3 0.25L0.5 0.25L0.25 0.25V0.5L0.250001 15.5L0.250001 15.75H0.5H3C3.13807 15.75 3.25 15.6381 3.25 15.5C3.25 15.3619 3.13807 15.25 3 15.25H0.750001L0.75 0.75ZM15.25 0.75L13 0.75C12.8619 0.75 12.75 0.638071 12.75 0.5C12.75 0.361929 12.8619 0.25 13 0.25L15.5 0.25L15.75 0.25V0.5L15.75 15.5V15.75H15.5H13C12.8619 15.75 12.75 15.6381 12.75 15.5C12.75 15.3619 12.8619 15.25 13 15.25H15.25L15.25 0.75ZM2.75071 5H3.12003L3.41249 4.17614H4.58893L4.88139 5H5.25071L4.18253 2.09091H3.81889L2.75071 5ZM4.478 3.86364L4.01207 2.55114H3.98935L3.52342 3.86364H4.478ZM9.2381 3H8.88583C8.865 2.89867 8.82854 2.80966 8.77646 2.73295C8.72532 2.65625 8.66282 2.59186 8.58896 2.53977C8.51604 2.48674 8.43507 2.44697 8.34606 2.42045C8.25704 2.39394 8.16424 2.38068 8.06765 2.38068C7.89151 2.38068 7.73195 2.42519 7.58896 2.5142C7.44691 2.60322 7.33375 2.73438 7.24947 2.90767C7.16613 3.08097 7.12447 3.29356 7.12447 3.54545C7.12447 3.79735 7.16613 4.00994 7.24947 4.18324C7.33375 4.35653 7.44691 4.48769 7.58896 4.5767C7.73195 4.66572 7.89151 4.71023 8.06765 4.71023C8.16424 4.71023 8.25704 4.69697 8.34606 4.67045C8.43507 4.64394 8.51604 4.60464 8.58896 4.55256C8.66282 4.49953 8.72532 4.43466 8.77646 4.35795C8.82854 4.2803 8.865 4.19129 8.88583 4.09091H9.2381C9.21159 4.23958 9.16329 4.37263 9.09322 4.49006C9.02314 4.60748 8.93602 4.70739 8.83185 4.78977C8.72769 4.87121 8.61074 4.93324 8.481 4.97585C8.35221 5.01847 8.21443 5.03977 8.06765 5.03977C7.81954 5.03977 7.5989 4.97917 7.40572 4.85795C7.21254 4.73674 7.06055 4.56439 6.94975 4.34091C6.83896 4.11742 6.78356 3.85227 6.78356 3.54545C6.78356 3.23864 6.83896 2.97348 6.94975 2.75C7.06055 2.52652 7.21254 2.35417 7.40572 2.23295C7.5989 2.11174 7.81954 2.05114 8.06765 2.05114C8.21443 2.05114 8.35221 2.07244 8.481 2.11506C8.61074 2.15767 8.72769 2.22017 8.83185 2.30256C8.93602 2.384 9.02314 2.48343 9.09322 2.60085C9.16329 2.71733 9.21159 2.85038 9.2381 3ZM12.9126 2.09091H11.157V5H12.9354V4.6875H11.5092V3.69886H12.8217V3.38636H11.5092V2.40341H12.9126V2.09091ZM3.05149 9.5V6.59091H4.06854C4.27119 6.59091 4.43833 6.62595 4.56996 6.69602C4.70159 6.76515 4.7996 6.85843 4.86399 6.97585C4.92839 7.09233 4.96058 7.22159 4.96058 7.36364C4.96058 7.48864 4.93833 7.59186 4.89382 7.6733C4.85026 7.75473 4.7925 7.81913 4.72053 7.86648C4.6495 7.91383 4.57232 7.94886 4.48899 7.97159V8C4.57801 8.00568 4.6675 8.03693 4.75746 8.09375C4.84742 8.15057 4.9227 8.23201 4.98331 8.33807C5.04392 8.44413 5.07422 8.57386 5.07422 8.72727C5.07422 8.87311 5.04107 9.00426 4.97479 9.12074C4.9085 9.23722 4.80386 9.32955 4.66087 9.39773C4.51787 9.46591 4.33179 9.5 4.10263 9.5H3.05149ZM3.40376 9.1875H4.10263C4.33274 9.1875 4.49609 9.14299 4.59268 9.05398C4.69022 8.96402 4.73899 8.85511 4.73899 8.72727C4.73899 8.62879 4.7139 8.53788 4.66371 8.45455C4.61352 8.37027 4.54202 8.30303 4.44922 8.25284C4.35642 8.2017 4.24657 8.17614 4.11967 8.17614H3.40376V9.1875ZM3.40376 7.86932H4.05717C4.16323 7.86932 4.25888 7.84848 4.34411 7.80682C4.43028 7.76515 4.49846 7.70644 4.54865 7.63068C4.59979 7.55492 4.62536 7.46591 4.62536 7.36364C4.62536 7.2358 4.58085 7.12737 4.49183 7.03835C4.40282 6.94839 4.26172 6.90341 4.06854 6.90341H3.40376V7.86932ZM6.91477 9.5H7.8125C8.10795 9.5 8.3589 9.44176 8.56534 9.32528C8.77178 9.20786 8.92898 9.04025 9.03693 8.82244C9.14489 8.60369 9.19886 8.3428 9.19886 8.03977C9.19886 7.73864 9.14536 7.48011 9.03835 7.2642C8.93134 7.04735 8.77746 6.88116 8.5767 6.76562C8.37595 6.64915 8.13447 6.59091 7.85227 6.59091H6.91477V9.5ZM7.78977 9.1875H7.26705V6.90341H7.82955C8.05682 6.90341 8.24669 6.94934 8.39915 7.04119C8.55161 7.1321 8.66619 7.26278 8.7429 7.43324C8.8196 7.60275 8.85795 7.80492 8.85795 8.03977C8.85795 8.27652 8.81913 8.48059 8.74148 8.65199C8.66383 8.82339 8.54593 8.95549 8.38778 9.0483C8.22964 9.1411 8.0303 9.1875 7.78977 9.1875ZM11.1784 9.5V6.59091H12.9228V6.90341H11.5307V7.88636H12.7921V8.19886H11.5307V9.5H11.1784ZM3.45312 13.8651C3.60369 13.9815 3.78598 14.0398 4 14.0398C4.21402 14.0398 4.39631 13.9815 4.54688 13.8651C4.69744 13.7476 4.8125 13.5777 4.89205 13.3551C4.97159 13.1316 5.01136 12.8617 5.01136 12.5455C5.01136 12.2311 4.97112 11.9626 4.89062 11.7401C4.81108 11.5166 4.69555 11.3461 4.54403 11.2287C4.39347 11.1103 4.21212 11.0511 4 11.0511C3.78788 11.0511 3.60606 11.1103 3.45455 11.2287C3.30398 11.3461 3.18845 11.5166 3.10795 11.7401C3.02841 11.9626 2.98864 12.2311 2.98864 12.5455C2.98864 12.8617 3.02841 13.1316 3.10795 13.3551C3.1875 13.5777 3.30256 13.7476 3.45312 13.8651ZM4.49432 13.4205C4.37689 13.625 4.21212 13.7273 4 13.7273C3.8589 13.7273 3.73816 13.6813 3.63778 13.5895C3.53835 13.4976 3.46212 13.3636 3.40909 13.1875C3.35606 13.0114 3.32955 12.7973 3.32955 12.5455C3.32955 12.1676 3.38873 11.8755 3.5071 11.669C3.62547 11.4616 3.78977 11.358 4 11.358C4.14015 11.358 4.25994 11.4044 4.35938 11.4972C4.45975 11.59 4.53646 11.7249 4.58949 11.902C4.64347 12.0791 4.67045 12.2936 4.67045 12.5455C4.67045 12.9242 4.61174 13.2159 4.49432 13.4205ZM8 14.0398C7.78598 14.0398 7.60369 13.9815 7.45312 13.8651C7.30256 13.7476 7.1875 13.5777 7.10795 13.3551C7.02841 13.1316 6.98864 12.8617 6.98864 12.5455C6.98864 12.2311 7.02841 11.9626 7.10795 11.7401C7.18845 11.5166 7.30398 11.3461 7.45455 11.2287C7.60606 11.1103 7.78788 11.0511 8 11.0511C8.21212 11.0511 8.39347 11.1103 8.54403 11.2287C8.69555 11.3461 8.81108 11.5166 8.89062 11.7401C8.97112 11.9626 9.01136 12.2311 9.01136 12.5455C9.01136 12.8617 8.97159 13.1316 8.89205 13.3551C8.8125 13.5777 8.69744 13.7476 8.54688 13.8651C8.39631 13.9815 8.21402 14.0398 8 14.0398ZM8 13.7273C8.21212 13.7273 8.37689 13.625 8.49432 13.4205C8.61174 13.2159 8.67045 12.9242 8.67045 12.5455C8.67045 12.2936 8.64347 12.0791 8.58949 11.902C8.53646 11.7249 8.45975 11.59 8.35938 11.4972C8.25994 11.4044 8.14015 11.358 8 11.358C7.78977 11.358 7.62547 11.4616 7.5071 11.669C7.38873 11.8755 7.32955 12.1676 7.32955 12.5455C7.32955 12.7973 7.35606 13.0114 7.40909 13.1875C7.46212 13.3636 7.53835 13.4976 7.63778 13.5895C7.73816 13.6813 7.8589 13.7273 8 13.7273ZM12.0419 14H12.3942V11.0909H12.0419L11.3146 11.5739V11.9318L12.0249 11.4602H12.0419V14Z" fill="black"/>
</g>
<defs>
<clipPath id="clip0_241_9388">
<rect width="16" height="16" fill="white"/>
</clipPath>
</defs>
</svg>
