<svg width="16" height="16" viewBox="0 0 16 16" fill="none" xmlns="http://www.w3.org/2000/svg">
<g id="measure-segments">
<path class="warning" fill-rule="evenodd" clip-rule="evenodd" d="M0.5 7C0.223858 7 0 7.22386 0 7.5V15.5C0 15.7761 0.223858 16 0.5 16C0.776142 16 1 15.7761 1 15.5V7.5C1 7.22386 0.776142 7 0.5 7ZM15.5 7C15.2239 7 15 7.22386 15 7.5V15.5C15 15.7761 15.2239 16 15.5 16C15.7761 16 16 15.7761 16 15.5V7.5C16 7.22386 15.7761 7 15.5 7Z" fill="#9E9E9E"/>
<path id="Union" fill-rule="evenodd" clip-rule="evenodd" d="M3.35363 9.14645C3.54889 9.34171 3.54889 9.65829 3.35363 9.85355L2.20718 11H13.793L12.6465 9.85355C12.4513 9.65829 12.4513 9.34171 12.6465 9.14645C12.8418 8.95118 13.1584 8.95118 13.3536 9.14645L15.3536 11.1464L15.7072 11.5L15.3536 11.8536L13.3536 13.8536C13.1584 14.0488 12.8418 14.0488 12.6465 13.8536C12.4513 13.6583 12.4513 13.3417 12.6465 13.1464L13.793 12H2.20718L3.35363 13.1464C3.54889 13.3417 3.54889 13.6583 3.35363 13.8536C3.15837 14.0488 2.84178 14.0488 2.64652 13.8536L0.646522 11.8536L0.292969 11.5L0.646522 11.1464L2.64652 9.14645C2.84178 8.95118 3.15837 8.95118 3.35363 9.14645Z" fill="black"/>
<path id="Union_2" d="M4.04528 7.07932C3.62103 7.07932 3.24319 7.00641 2.91175 6.86057C2.58221 6.71285 2.32179 6.51019 2.1305 6.25262C1.94111 5.99315 1.84357 5.69391 1.83789 5.35489H3.07653C3.0841 5.49694 3.1305 5.62194 3.21573 5.72989C3.30285 5.83595 3.41838 5.91834 3.56232 5.97705C3.70626 6.03576 3.86819 6.06512 4.04812 6.06512C4.23562 6.06512 4.40134 6.03198 4.54528 5.96569C4.68922 5.8994 4.80191 5.80754 4.88335 5.69012C4.96478 5.57269 5.0055 5.43728 5.0055 5.28387C5.0055 5.12857 4.96194 4.99126 4.87482 4.87194C4.7896 4.75073 4.66649 4.65603 4.5055 4.58785C4.34641 4.51966 4.15702 4.48557 3.93732 4.48557H3.39471V3.58216H3.93732C4.12293 3.58216 4.28675 3.54997 4.4288 3.48557C4.57274 3.42118 4.68448 3.33216 4.76403 3.21853C4.84357 3.103 4.88335 2.96853 4.88335 2.81512C4.88335 2.66929 4.84831 2.54144 4.77823 2.4316C4.71005 2.31985 4.61346 2.23273 4.48846 2.17023C4.36535 2.10773 4.22141 2.07648 4.05664 2.07648C3.88997 2.07648 3.73751 2.10679 3.59925 2.16739C3.461 2.2261 3.3502 2.31038 3.26687 2.42023C3.18353 2.53008 3.13903 2.65887 3.13335 2.8066H1.95437C1.96005 2.47137 2.05569 2.17591 2.2413 1.92023C2.42691 1.66455 2.67691 1.46474 2.9913 1.3208C3.30759 1.17497 3.6646 1.10205 4.06232 1.10205C4.46384 1.10205 4.81516 1.17497 5.1163 1.3208C5.41744 1.46663 5.65134 1.6636 5.818 1.91171C5.98657 2.15792 6.0699 2.43444 6.068 2.74126C6.0699 3.06701 5.96857 3.33879 5.76403 3.5566C5.56138 3.7744 5.29717 3.91266 4.97141 3.97137V4.01682C5.39944 4.07175 5.7252 4.22042 5.94869 4.46285C6.17407 4.70338 6.28581 5.00451 6.28391 5.36626C6.28581 5.69769 6.19016 5.9922 5.99698 6.24978C5.80569 6.50735 5.54149 6.71001 5.20437 6.85773C4.86725 7.00546 4.48088 7.07932 4.04528 7.07932ZM7.76224 1.1816H9.27928L10.8816 5.09069H10.9497L12.552 1.1816H14.0691V6.99978H12.8759V3.21285H12.8276L11.3219 6.97137H10.5094L9.00371 3.19864H8.95542V6.99978H7.76224V1.1816Z" fill="black"/>
</g>
</svg>
