<svg width="16" height="16" viewBox="0 0 16 16" fill="none" xmlns="http://www.w3.org/2000/svg">
<g id="mesh-gradient">
<path id="Union" fill-rule="evenodd" clip-rule="evenodd" d="M8.5 3H12.5C12.7761 3 13 3.22386 13 3.5V7.5H10.5L8.5 5.5V3ZM7.5 2H8.5H12.5C13.3284 2 14 2.67157 14 3.5V7.5V8.5V12.5C14 13.3284 13.3284 14 12.5 14H8.5H7.5H3.5C2.67157 14 2 13.3284 2 12.5V8.5V7.5V3.5C2 2.67157 2.67157 2 3.5 2H7.5ZM3 7.5V3.5C3 3.22386 3.22386 3 3.5 3H7.5V5.5L5.5 7.5H3ZM3 8.5V12.5C3 12.7761 3.22386 13 3.5 13H7.5V10.5L5.5 8.5H3ZM8.5 13H12.5C12.7761 13 13 12.7761 13 12.5V8.5H10.5L8.5 10.5V13ZM8 6.5L9.5 8L8 9.5L6.5 8L8 6.5Z" fill="black"/>
</g>
</svg>
