<svg width="16" height="16" viewBox="0 0 16 16" fill="none" xmlns="http://www.w3.org/2000/svg">
<g id="mesh-gradient-fit">
<path id="Union" fill-rule="evenodd" clip-rule="evenodd" d="M12.5 3H3.5C3.22386 3 3 3.22386 3 3.5V12.5C3 12.7761 3.22386 13 3.5 13H12.5C12.7761 13 13 12.7761 13 12.5V3.5C13 3.22386 12.7761 3 12.5 3ZM3.5 2C2.67157 2 2 2.67157 2 3.5V12.5C2 13.3284 2.67157 14 3.5 14H12.5C13.3284 14 14 13.3284 14 12.5V3.5C14 2.67157 13.3284 2 12.5 2H3.5Z" fill="black"/>
<path id="neutral" opacity="0.3" fill-rule="evenodd" clip-rule="evenodd" d="M8 3H3V8V13H8H13V8V3H8ZM8 3L3 8L8 13L13 8L8 3Z" fill="black"/>
</g>
</svg>
