<svg width="16" height="16" viewBox="0 0 16 16" fill="none" xmlns="http://www.w3.org/2000/svg">
<g id="mirroring-0000">
<g id="tile grid">
<path id="Union" opacity="0.8" fill-rule="evenodd" clip-rule="evenodd" d="M14 2H8.5V7.5H14V2ZM14 8.5H8.5V14H14V8.5ZM7.5 7.5V2H2V7.5H7.5ZM2 8.5H7.5V14H2V8.5ZM2 1C1.44772 1 1 1.44772 1 2V14C1 14.5523 1.44772 15 2 15H14C14.5523 15 15 14.5523 15 14V2C15 1.44772 14.5523 1 14 1H2Z" fill="black"/>
</g>
<g id="tile">
<path id="Vector 703" d="M7.5 2L2 7.5H7.5V2Z" fill="black"/>
</g>
<g id="Rectangle 523" opacity="0.4">
<path id="Vector 703_2" d="M7.5 8.5L2 14H7.5V8.5Z" fill="black"/>
</g>
<g id="Rectangle 522" opacity="0.4">
<path id="Vector 703_3" d="M14 2L8.5 7.5H14V2Z" fill="black"/>
</g>
<g id="Rectangle 524" opacity="0.4">
<path id="Vector 703_4" d="M14 8.5L8.5 14H14V8.5Z" fill="black"/>
</g>
</g>
</svg>
