<svg width="16" height="16" viewBox="0 0 16 16" fill="none" xmlns="http://www.w3.org/2000/svg">
<g id="mirror-symmetry" clip-path="url(#clip0_241_9622)">
<path class="warning" fill-rule="evenodd" clip-rule="evenodd" d="M9.74246 2.85301C12.09 1.03677 15.5001 2.71 15.5001 5.67813C15.5001 7.49081 14.1498 8.98813 12.4003 9.21914C12.9489 9.60298 13.4247 10.1227 13.543 10.773C14.1229 13.9628 10.0075 15.7599 8.06204 13.1663L7.49951 12.4164V4.5883L9.74246 2.85301Z" fill="#9E9E9E"/>
<path id="Union" fill-rule="evenodd" clip-rule="evenodd" d="M8 0C8.27614 0 8.5 0.223858 8.5 0.5V4.25V8V11.75V15.5C8.5 15.7761 8.27614 16 8 16C7.72386 16 7.5 15.7761 7.5 15.5V13.6478C5.43941 15.5012 1.91824 13.7393 2.45758 10.7729C2.57158 10.1459 2.87101 9.59245 3.29308 9.16484C1.69515 8.80924 0.500488 7.38323 0.500488 5.67819C0.500488 2.71005 3.91056 1.03682 6.25813 2.85306L7.5 3.81385V0.5C7.5 0.223858 7.72386 0 8 0ZM7.5 5.0782L5.64622 3.64398C3.95587 2.33622 1.50049 3.54102 1.50049 5.67819C1.50049 7.09862 2.65198 8.25011 4.07242 8.25011H5.4539C5.46279 8.25004 5.47168 8.25 5.48059 8.25H7.5V8V5.0782ZM5.45867 9.25011H7.5V11.75V12.0844L7.13854 12.5662C5.82624 14.3157 3.05024 13.1035 3.44145 10.9518C3.61932 9.97353 4.46645 9.26048 5.45867 9.25011Z" fill="black"/>
</g>
<defs>
<clipPath id="clip0_241_9622">
<rect width="16" height="16" fill="white"/>
</clipPath>
</defs>
</svg>
