<svg width="16" height="16" viewBox="0 0 16 16" fill="none" xmlns="http://www.w3.org/2000/svg">
<g id="node_insert_min_y" clip-path="url(#clip0_241_9708)">
<path id="Union" fill-rule="evenodd" clip-rule="evenodd" d="M10.5013 7.0013C12.8496 6.02143 14.5 3.70345 14.5 1V0.5H15.5V1C15.5 4.30715 13.3595 7.11435 10.3883 8.11173L10.2929 8.20711L8.70711 9.79289L8 10.5L7.29289 9.79289L5.70711 8.20711L5.61173 8.11173C2.64053 7.11435 0.5 4.30715 0.5 1V0.5H1.5V1C1.5 3.70345 3.15044 6.02142 5.4987 7.0013L5.70711 6.79289L7.29289 5.20711L8 4.5L8.70711 5.20711L10.2929 6.79289L10.5013 7.0013ZM8 5.91421L6.41421 7.5L8 9.08579L9.58579 7.5L8 5.91421ZM7.49902 14.5V16H8.49902V14.5H9.99902V13.5H8.49902V12H7.49902V13.5H5.99902V14.5H7.49902Z" fill="black"/>
</g>
<defs>
<clipPath id="clip0_241_9708">
<rect width="16" height="16" fill="white"/>
</clipPath>
</defs>
</svg>
