<svg width="16" height="16" viewBox="0 0 16 16" fill="none" xmlns="http://www.w3.org/2000/svg">
<g id="node-break">
<path id="Union" fill-rule="evenodd" clip-rule="evenodd" d="M4 9L3.29289 9.70711L1.70711 11.2929L1.5 11.5H0V12.5H1.5L1.70711 12.7071L3.29289 14.2929L4 15L4.70711 14.2929L6.29289 12.7071L7 12L6.29289 11.2929L4.70711 9.70711L4 9ZM4 13.5858L2.41421 12L4 10.4142L5.58579 12L4 13.5858ZM12 9L11.2929 9.70711L9.70711 11.2929L9 12L9.70711 12.7071L11.2929 14.2929L12 15L12.7071 14.2929L14.2929 12.7071L14.5 12.5H16V11.5H14.5L14.2929 11.2929L12.7071 9.70711L12 9ZM12 13.5858L10.4142 12L12 10.4142L13.5858 12L12 13.5858Z" fill="black"/>
<path id="Union_2" opacity="0.4" fill-rule="evenodd" clip-rule="evenodd" d="M10 3.5L8 1.5L6 3.5H0V4.5H6L8 6.5L10 4.5H16V3.5H10Z" fill="black"/>
</g>
</svg>
