<svg width="16" height="16" viewBox="0 0 16 16" fill="none" xmlns="http://www.w3.org/2000/svg">
<g id="node_insert_max_y" clip-path="url(#clip0_241_9596)">
<path id="Union" fill-rule="evenodd" clip-rule="evenodd" d="M8.50098 1.5V0H7.50098V1.5H6.00098V2.5H7.50098V4H8.50098V2.5H10.001V1.5H8.50098ZM5.61173 7.88827L5.70711 7.79289L7.29289 6.20711L8 5.5L8.70711 6.20711L10.2929 7.79289L10.3883 7.88827C13.3595 8.88565 15.5 11.6929 15.5 15V15.5H14.5V15C14.5 12.2965 12.8496 9.97857 10.5013 8.9987L10.2929 9.20711L8.70711 10.7929L8 11.5L7.29289 10.7929L5.70711 9.20711L5.4987 8.9987C3.15044 9.97857 1.5 12.2965 1.5 15V15.5H0.5V15C0.5 11.6929 2.64053 8.88565 5.61173 7.88827ZM8 10.0858L9.58579 8.5L8 6.91421L6.41421 8.5L8 10.0858Z" fill="black"/>
</g>
<defs>
<clipPath id="clip0_241_9596">
<rect width="16" height="16" fill="white"/>
</clipPath>
</defs>
</svg>
