<svg width="16" height="16" viewBox="0 0 16 16" fill="none" xmlns="http://www.w3.org/2000/svg">
<g id="node_insert_min_x" clip-path="url(#clip0_241_9340)">
<path id="Union" fill-rule="evenodd" clip-rule="evenodd" d="M8.9987 10.5013C9.97858 12.8496 12.2965 14.5 15 14.5H15.5V15.5H15C11.6929 15.5 8.88565 13.3595 7.88827 10.3883L7.79289 10.2929L6.20711 8.70711L5.5 8L6.20711 7.29289L7.79289 5.70711L7.88827 5.61173C8.88565 2.64053 11.6929 0.5 15 0.5H15.5V1.5L15 1.5C12.2965 1.5 9.97858 3.15044 8.9987 5.4987L9.20711 5.70711L10.7929 7.29289L11.5 8L10.7929 8.70711L9.20711 10.2929L8.9987 10.5013ZM10.0858 8L8.5 6.41421L6.91421 8L8.5 9.58579L10.0858 8ZM2.5 7.49902V5.99902H1.5L1.5 7.49902H0V8.49902H1.5L1.5 9.99902H2.5V8.49902H4V7.49902H2.5Z" fill="black"/>
</g>
<defs>
<clipPath id="clip0_241_9340">
<rect width="16" height="16" fill="white"/>
</clipPath>
</defs>
</svg>
