<svg width="16" height="16" viewBox="0 0 16 16" fill="none" xmlns="http://www.w3.org/2000/svg">
<g id="node-join-segment">
<path id="Union" fill-rule="evenodd" clip-rule="evenodd" d="M3.29289 9.70711L4 9L4.70711 9.70711L6.29289 11.2929L6.5 11.5H9.5L9.70711 11.2929L11.2929 9.70711L12 9L12.7071 9.70711L14.2929 11.2929L14.5 11.5H16V12.5H14.5L14.2929 12.7071L12.7071 14.2929L12 15L11.2929 14.2929L9.70711 12.7071L9.5 12.5H6.5L6.29289 12.7071L4.70711 14.2929L4 15L3.29289 14.2929L1.70711 12.7071L1.5 12.5H0V11.5H1.5L1.70711 11.2929L3.29289 9.70711ZM2.41421 12L4 13.5858L5.58579 12L4 10.4142L2.41421 12ZM10.4142 12L12 13.5858L13.5858 12L12 10.4142L10.4142 12Z" fill="black"/>
<path id="Union_2" opacity="0.4" fill-rule="evenodd" clip-rule="evenodd" d="M6.5 4L4 1.5L2 3.5H0V4.5H2L4 6.5L6.5 4ZM14 3.5L12 1.5L9.5 4L12 6.5L14 4.5H16V3.5H14Z" fill="black"/>
</g>
</svg>
