<svg width="16" height="16" viewBox="0 0 16 16" fill="none" xmlns="http://www.w3.org/2000/svg">
<g id="node-transform">
<path id="Union" fill-rule="evenodd" clip-rule="evenodd" d="M1.00195 1V1.45571C0.999349 1.48518 0.999349 1.51482 1.00195 1.54429V4C1.00195 4.27614 1.22581 4.5 1.50195 4.5C1.7781 4.5 2.00195 4.27614 2.00195 4V2.70906L5.29289 6H4C3.72386 6 3.5 6.22386 3.5 6.5C3.5 6.77614 3.72386 7 4 7H6.49965H6.50035H6.50195H7.00234L7.00195 6.49961L7 3.99961C6.99978 3.72347 6.77575 3.49978 6.49961 3.5C6.22347 3.50022 5.99978 3.72425 6 4.00039L6.00101 5.2939L2.70711 2H4C4.27614 2 4.5 1.77614 4.5 1.5C4.5 1.22386 4.27614 1 4 1H1.50195H1.50009H1.49991H1.00195ZM14.5001 1H14.502H15.002V1.5V4C15.002 4.27614 14.7781 4.5 14.502 4.5C14.2258 4.5 14.002 4.27614 14.002 4V2.70515L10.7071 6H12C12.2761 6 12.5 6.22386 12.5 6.5C12.5 6.77614 12.2761 7 12 7H9.50195H9.50035C9.50012 7 9.49989 7 9.49965 7H9.00234L9.00199 6.54468C8.99936 6.51522 8.99934 6.48557 9.00192 6.4561L9 4.00039C8.99978 3.72425 9.22347 3.50022 9.49961 3.5C9.77575 3.49978 9.99979 3.72347 10 3.99961L10.001 5.29188L13.2929 2H12C11.7239 2 11.5 1.77614 11.5 1.5C11.5 1.22386 11.7239 1 12 1H14.4999H14.5001ZM4 10C3.72386 10 3.5 9.77614 3.5 9.5C3.5 9.22386 3.72386 9 4 9H6.49951H6.50049H6.50195H7.00195V9.5V12C7.00195 12.2761 6.7781 12.5 6.50195 12.5C6.22581 12.5 6.00195 12.2761 6.00195 12V10.7052L2.70711 14H4C4.27614 14 4.5 14.2239 4.5 14.5C4.5 14.7761 4.27614 15 4 15H1.50195H1.50049H1.49951H1.00195V14.5443C0.999349 14.5148 0.999349 14.4852 1.00195 14.4557V12C1.00195 11.7239 1.22581 11.5 1.50195 11.5C1.7781 11.5 2.00195 11.7239 2.00195 12V13.2909L5.29289 10H4ZM9.00195 9.45571V9H9.5H9.50195H12C12.2761 9 12.5 9.22386 12.5 9.5C12.5 9.77614 12.2761 10 12 10H10.7074L14.002 13.2932V12C14.002 11.7239 14.2258 11.5 14.502 11.5C14.7781 11.5 15.002 11.7239 15.002 12V14.4996V14.5L10.0799 10H10.0798L15.002 14.5004V15H14.502H12C11.7239 15 11.5 14.7761 11.5 14.5C11.5 14.2239 11.7239 14 12 14H13.2945L10.002 10.7087V12C10.002 12.2761 9.7781 12.5 9.50195 12.5C9.22581 12.5 9.00195 12.2761 9.00195 12V9.54428C8.99935 9.51482 8.99935 9.48518 9.00195 9.45571Z" fill="black"/>
</g>
</svg>
