<svg width="16" height="16" viewBox="0 0 16 16" fill="none" xmlns="http://www.w3.org/2000/svg">
<g id="node-type-cusp">
<path id="Union" fill-rule="evenodd" clip-rule="evenodd" d="M8.00098 3L7.29387 3.70711L5.70808 5.29289L5.00098 6L5.70808 6.70711L7.29387 8.29289L8.00098 9L8.70808 8.29289L10.2939 6.70711L11.001 6L10.2939 5.29289L8.70808 3.70711L8.00098 3ZM8.00098 7.58579L6.41519 6L8.00098 4.41421L9.58676 6L8.00098 7.58579ZM2.59313 8.70962C3.02565 8.10409 3.52208 7.54694 4.07357 7.07275L4.7825 7.78168C4.28117 8.20311 3.81911 8.71371 3.40687 9.29086C2.21262 10.9628 1.5 13.1124 1.5 15.0002C1.5 15.2764 1.27614 15.5002 1 15.5002C0.723858 15.5002 0.5 15.2764 0.5 15.0002C0.5 12.888 1.28738 10.5377 2.59313 8.70962ZM9.48309 13.4545C8.89514 12.7825 8.43801 11.935 8.1116 10.8895L8.92216 10.079C9.22124 11.2668 9.66953 12.149 10.2357 12.796C11.3033 14.0161 12.8808 14.5002 15 14.5002C15.2761 14.5002 15.5 14.7241 15.5 15.0002C15.5 15.2764 15.2761 15.5002 15 15.5002C12.7442 15.5002 10.8217 14.9844 9.48309 13.4545Z" fill="black"/>
</g>
</svg>
