<svg width="16" height="16" viewBox="0 0 16 16" fill="none" xmlns="http://www.w3.org/2000/svg">
<g id="node-type-auto-smooth">
<path id="Union" fill-rule="evenodd" clip-rule="evenodd" d="M8 8C6.89543 8 6 7.10457 6 6C6 4.89543 6.89543 4 8 4C9.10457 4 10 4.89543 10 6C10 7.10457 9.10457 8 8 8ZM5 6C5 4.34315 6.34315 3 8 3C9.65685 3 11 4.34315 11 6C11 7.65685 9.65685 9 8 9C6.34315 9 5 7.65685 5 6ZM0.5 15.0001C0.5 11.0327 1.99449 8.25775 4.07413 6.77051C4.14287 7.12281 4.25785 7.45858 4.4125 7.77122C2.73398 9.09768 1.5 11.4799 1.5 15.0001C1.5 15.2762 1.27614 15.5001 1 15.5001C0.723858 15.5001 0.5 15.2762 0.5 15.0001ZM14.5 15.0001C14.5 11.4799 13.266 9.09768 11.5875 7.77123C11.7422 7.45858 11.8571 7.12281 11.9259 6.77051C14.0055 8.25775 15.5 11.0327 15.5 15.0001C15.5 15.2762 15.2761 15.5001 15 15.5001C14.7239 15.5001 14.5 15.2762 14.5 15.0001Z" fill="black"/>
</g>
</svg>
