<svg width="16" height="16" viewBox="0 0 16 16" fill="none" xmlns="http://www.w3.org/2000/svg">
<g id="node-type-symmetric">
<path id="Union" fill-rule="evenodd" clip-rule="evenodd" d="M5.5 3H5V3.5V5.5H1.86622C1.69331 5.2011 1.37014 5 1 5C0.447715 5 0 5.44772 0 6C0 6.55228 0.447715 7 1 7C1.37014 7 1.69331 6.7989 1.86622 6.5H5V8.5V9H5.5H10.5H11V8.5V6.5L14.1338 6.5C14.3067 6.7989 14.6299 7 15 7C15.5523 7 16 6.55228 16 6C16 5.44772 15.5523 5 15 5C14.6299 5 14.3067 5.2011 14.1338 5.5L11 5.5V3.5V3H10.5H5.5ZM10 5.5V4H6V5.5V6.5V8H10V6.5V5.5ZM0.5 15C0.5 11.8425 1.44664 9.44021 2.88149 7.84131L3.49482 8.65908C2.3031 10.0609 1.5 12.1601 1.5 15C1.5 15.2761 1.27614 15.5 1 15.5C0.723858 15.5 0.5 15.2761 0.5 15ZM14.5 15C14.5 12.1601 13.6969 10.0609 12.5052 8.65908L13.1185 7.84131C14.5534 9.44021 15.5 11.8425 15.5 15C15.5 15.2761 15.2761 15.5 15 15.5C14.7239 15.5 14.5 15.2761 14.5 15Z" fill="black"/>
</g>
</svg>
