<svg width="16" height="16" viewBox="0 0 16 16" fill="none" xmlns="http://www.w3.org/2000/svg">
<g id="node-join">
<path id="Union" fill-rule="evenodd" clip-rule="evenodd" d="M8 9L7.29289 9.70711L5.70711 11.2929L5.5 11.5H0V12.5H5.5L5.70711 12.7071L7.29289 14.2929L8 15L8.70711 14.2929L10.2929 12.7071L10.5 12.5H16V11.5H10.5L10.2929 11.2929L8.70711 9.70711L8 9ZM8 13.5858L6.41421 12L8 10.4142L9.58579 12L8 13.5858Z" fill="black"/>
<path id="Union_2" opacity="0.4" fill-rule="evenodd" clip-rule="evenodd" d="M6.5 4L4 1.5L2 3.5H0V4.5H2L4 6.5L6.5 4ZM14 3.5L12 1.5L9.5 4L12 6.5L14 4.5H16V3.5H14Z" fill="black"/>
</g>
</svg>
