<svg width="16" height="16" viewBox="0 0 16 16" fill="none" xmlns="http://www.w3.org/2000/svg">
<g id="node_insert_max_x" clip-path="url(#clip0_241_9356)">
<path id="Union" fill-rule="evenodd" clip-rule="evenodd" d="M7.0013 5.4987C6.02142 3.15044 3.70345 1.5 1 1.5H0.5V0.5H1C4.30715 0.5 7.11435 2.64053 8.11173 5.61173L8.20711 5.70711L9.79289 7.29289L10.5 8L9.79289 8.70711L8.20711 10.2929L8.11173 10.3883C7.11435 13.3595 4.30715 15.5 1 15.5H0.5V14.5H1C3.70345 14.5 6.02142 12.8496 7.0013 10.5013L6.79289 10.2929L5.20711 8.70711L4.5 8L5.20711 7.29289L6.79289 5.70711L7.0013 5.4987ZM5.91421 8L7.5 9.58579L9.08579 8L7.5 6.41421L5.91421 8ZM13.5 8.50098V10.001H14.5V8.50098H16V7.50098H14.5V6.00098H13.5V7.50098H12V8.50098H13.5Z" fill="black"/>
</g>
<defs>
<clipPath id="clip0_241_9356">
<rect width="16" height="16" fill="white"/>
</clipPath>
</defs>
</svg>
