<svg width="16" height="16" viewBox="0 0 16 16" fill="none" xmlns="http://www.w3.org/2000/svg">
<g id="node-type-smooth">
<path id="Union" fill-rule="evenodd" clip-rule="evenodd" d="M5.5 4H5V4.5V9.5V10H5.5H10.5H11V9.5V4.5V4H10.5H5.5ZM6 9V5H10V9H6ZM0.5 15C0.5 11.08 1.95907 8.32405 4 6.82422V8.12728C2.53566 9.50525 1.5 11.7751 1.5 15C1.5 15.2762 1.27614 15.5 1 15.5C0.723858 15.5 0.5 15.2762 0.5 15ZM14.5 15C14.5 11.7751 13.4643 9.50525 12 8.12728V6.82422C14.0409 8.32405 15.5 11.08 15.5 15C15.5 15.2762 15.2761 15.5 15 15.5C14.7239 15.5 14.5 15.2762 14.5 15Z" fill="black"/>
</g>
</svg>
