<svg width="16" height="16" viewBox="0 0 16 16" fill="none" xmlns="http://www.w3.org/2000/svg">
<g id="none" clip-path="url(#clip0_241_9378)">
<g id=".clear">
<path id="Union" fill-rule="evenodd" clip-rule="evenodd" d="M11.8535 3.85348C11.6582 3.65822 11.3416 3.65822 11.1464 3.85348L7.99992 6.99992L4.85348 3.85348C4.65822 3.65822 4.34163 3.65822 4.14637 3.85348L3.85348 4.14637C3.65822 4.34163 3.65822 4.65822 3.85348 4.85348L6.99992 7.99992L3.85348 11.1464C3.65822 11.3416 3.65822 11.6582 3.85348 11.8535L4.14637 12.1464C4.34163 12.3416 4.65822 12.3416 4.85348 12.1464L7.99992 8.99992L11.1464 12.1464C11.3416 12.3416 11.6582 12.3416 11.8535 12.1464L12.1464 11.8535C12.3416 11.6582 12.3416 11.3416 12.1464 11.1464L8.99992 7.99992L12.1464 4.85348C12.3416 4.65822 12.3416 4.34163 12.1464 4.14637L11.8535 3.85348Z" fill="black"/>
</g>
</g>
<defs>
<clipPath id="clip0_241_9378">
<rect width="16" height="16" fill="white"/>
</clipPath>
</defs>
</svg>
