<svg width="16" height="16" viewBox="0 0 16 16" fill="none" xmlns="http://www.w3.org/2000/svg">
<g id="object-rows">
<path id="Union" fill-rule="evenodd" clip-rule="evenodd" d="M4 5V3H12V5H4ZM3 2.5C3 2.22386 3.22386 2 3.5 2H12.5C12.7761 2 13 2.22386 13 2.5V5.5C13 5.77614 12.7761 6 12.5 6H3.5C3.22386 6 3 5.77614 3 5.5V2.5ZM0.5 7.5C0.223858 7.5 0 7.72386 0 8C0 8.27614 0.223858 8.5 0.5 8.5H15.5C15.7761 8.5 16 8.27614 16 8C16 7.72386 15.7761 7.5 15.5 7.5H0.5ZM4 11V13H12V11H4ZM3.5 10C3.22386 10 3 10.2239 3 10.5V13.5C3 13.7761 3.22386 14 3.5 14H12.5C12.7761 14 13 13.7761 13 13.5V10.5C13 10.2239 12.7761 10 12.5 10H3.5Z" fill="black"/>
</g>
</svg>
