<svg width="16" height="16" viewBox="0 0 16 16" fill="none" xmlns="http://www.w3.org/2000/svg">
<g id="object-tweak-attract">
<path id="Union" fill-rule="evenodd" clip-rule="evenodd" d="M2.3125 3.625C3.03737 3.625 3.625 3.03737 3.625 2.3125C3.625 1.58763 3.03737 1 2.3125 1C1.58763 1 1 1.58763 1 2.3125C1 3.03737 1.58763 3.625 2.3125 3.625ZM4.71875 6.03055C5.44362 6.03055 6.03125 5.44308 6.03125 4.7184C6.03125 3.99372 5.44362 3.40625 4.71875 3.40625C3.99388 3.40625 3.40625 3.99372 3.40625 4.7184C3.40625 5.44308 3.99388 6.03055 4.71875 6.03055ZM12.5938 4.7184C12.5938 5.44308 12.0061 6.03055 11.2812 6.03055C10.5564 6.03055 9.96875 5.44308 9.96875 4.7184C9.96875 3.99372 10.5564 3.40625 11.2812 3.40625C12.0061 3.40625 12.5938 3.99372 12.5938 4.7184ZM4.71875 12.593C5.44362 12.593 6.03125 12.0056 6.03125 11.2809C6.03125 10.5562 5.44362 9.96875 4.71875 9.96875C3.99388 9.96875 3.40625 10.5562 3.40625 11.2809C3.40625 12.0056 3.99388 12.593 4.71875 12.593ZM12.5938 11.2809C12.5938 12.0056 12.0061 12.593 11.2812 12.593C10.5564 12.593 9.96875 12.0056 9.96875 11.2809C9.96875 10.5562 10.5564 9.96875 11.2812 9.96875C12.0061 9.96875 12.5938 10.5562 12.5938 11.2809ZM5.8125 9.3125C6.1082 9.3125 6.38106 9.21471 6.60051 9.04971C6.38095 8.75728 6.25085 8.39383 6.25085 8C6.25085 7.60617 6.38095 7.24272 6.60051 6.95029C6.38106 6.78529 6.1082 6.6875 5.8125 6.6875C5.08763 6.6875 4.5 7.27513 4.5 8C4.5 8.72487 5.08763 9.3125 5.8125 9.3125ZM6.68835 10.1875C6.68835 9.89205 6.78598 9.61939 6.95073 9.40004C7.24323 9.61978 7.60684 9.75 8.00085 9.75C8.39487 9.75 8.75848 9.61978 9.05098 9.40004C9.21573 9.61939 9.31335 9.89205 9.31335 10.1875C9.31335 10.9124 8.72573 11.5 8.00085 11.5C7.27598 11.5 6.68835 10.9124 6.68835 10.1875ZM10.1875 9.3125C9.89229 9.3125 9.61984 9.21504 9.40058 9.05053C9.62052 8.75796 9.75085 8.3942 9.75085 8C9.75085 7.6058 9.62052 7.24204 9.40058 6.94947C9.61984 6.78496 9.89229 6.6875 10.1875 6.6875C10.9124 6.6875 11.5 7.27513 11.5 8C11.5 8.72487 10.9124 9.3125 10.1875 9.3125ZM9.31335 5.8125C9.31335 6.10796 9.21573 6.38061 9.05098 6.59996C8.75848 6.38022 8.39487 6.25 8.00085 6.25C7.60684 6.25 7.24323 6.38022 6.95073 6.59996C6.78598 6.38061 6.68835 6.10796 6.68835 5.8125C6.68835 5.08763 7.27598 4.5 8.00085 4.5C8.72573 4.5 9.31335 5.08763 9.31335 5.8125ZM3.625 13.6875C3.625 14.4124 3.03737 15 2.3125 15C1.58763 15 1 14.4124 1 13.6875C1 12.9626 1.58763 12.375 2.3125 12.375C3.03737 12.375 3.625 12.9626 3.625 13.6875ZM13.6875 3.625C14.4124 3.625 15 3.03737 15 2.3125C15 1.58763 14.4124 1 13.6875 1C12.9626 1 12.375 1.58763 12.375 2.3125C12.375 3.03737 12.9626 3.625 13.6875 3.625ZM13.6875 15C14.4124 15 15 14.4124 15 13.6875C15 12.9626 14.4124 12.375 13.6875 12.375C12.9626 12.375 12.375 12.9626 12.375 13.6875C12.375 14.4124 12.9626 15 13.6875 15ZM8.00085 9.3125C8.72573 9.3125 9.31335 8.72487 9.31335 8C9.31335 7.27513 8.72573 6.6875 8.00085 6.6875C7.27598 6.6875 6.68835 7.27513 6.68835 8C6.68835 8.72487 7.27598 9.3125 8.00085 9.3125Z" fill="black"/>
</g>
</svg>
