<svg width="16" height="16" viewBox="0 0 16 16" fill="none" xmlns="http://www.w3.org/2000/svg">
<g id="object-level" clip-path="url(#clip0_241_9662)">
<path id="Union" fill-rule="evenodd" clip-rule="evenodd" d="M0 1C0 0.723858 0.223858 0.5 0.5 0.5H15.5C15.7761 0.5 16 0.723858 16 1C16 1.27614 15.7761 1.5 15.5 1.5H0.5C0.223858 1.5 0 1.27614 0 1ZM7.45485 2.5363C7.63985 2.02699 8.36015 2.02699 8.54515 2.5363L9.80766 6.01197L13.5034 6.13865C14.0449 6.15721 14.2675 6.84225 13.8403 7.17558L10.9249 9.45034L11.9464 13.0043C12.0961 13.5251 11.5134 13.9485 11.0643 13.6452L8 11.5754L4.93566 13.6452C4.48663 13.9485 3.9039 13.5251 4.05359 13.0043L5.07515 9.45034L2.15972 7.17558C1.73251 6.84225 1.9551 6.15721 2.49664 6.13865L6.19234 6.01197L7.45485 2.5363ZM8 3.96449L7.0354 6.62003C6.95459 6.84251 6.74668 6.99356 6.51012 7.00167L3.68648 7.09845L5.91396 8.83645C6.10058 8.98206 6.17999 9.22646 6.1146 9.45395L5.3341 12.1693L7.67536 10.5879C7.87151 10.4554 8.12849 10.4554 8.32464 10.5879L10.6659 12.1693L9.8854 9.45395C9.82001 9.22646 9.89942 8.98206 10.086 8.83645L12.3135 7.09845L9.48988 7.00167C9.25332 6.99356 9.04541 6.84251 8.9646 6.62003L8 3.96449ZM0.5 14.5C0.223858 14.5 0 14.7239 0 15C0 15.2761 0.223858 15.5 0.5 15.5H15.5C15.7761 15.5 16 15.2761 16 15C16 14.7239 15.7761 14.5 15.5 14.5H0.5Z" fill="black"/>
</g>
<defs>
<clipPath id="clip0_241_9662">
<rect width="16" height="16" fill="white"/>
</clipPath>
</defs>
</svg>
