<svg width="16" height="16" viewBox="0 0 16 16" fill="none" xmlns="http://www.w3.org/2000/svg">
<g id="object-group" clip-path="url(#clip0_241_9474)">
<path id="Union" fill-rule="evenodd" clip-rule="evenodd" d="M0.5 0C0.223858 0 0 0.223858 0 0.5V1.5C0 1.77614 0.223858 2 0.5 2H1V14H0.5C0.223858 14 0 14.2239 0 14.5V15.5C0 15.7761 0.223858 16 0.5 16H1.5C1.77614 16 2 15.7761 2 15.5V15H14V15.5C14 15.7761 14.2239 16 14.5 16H15.5C15.7761 16 16 15.7761 16 15.5V14.5C16 14.2239 15.7761 14 15.5 14H15V2L15.5 2C15.7761 2 16 1.77614 16 1.5V0.5C16 0.223858 15.7761 0 15.5 0H14.5C14.2239 0 14 0.223858 14 0.5V1H2L2 0.5C2 0.223858 1.77614 0 1.5 0H0.5ZM14 2H2V14H14V2ZM5 5V8H7V7.5C7 7.22386 7.22386 7 7.5 7H8V5H5ZM4.5 9H7V11.5C7 11.7761 7.22386 12 7.5 12H11.5C11.7761 12 12 11.7761 12 11.5V7.5C12 7.22386 11.7761 7 11.5 7H9V4.5C9 4.22386 8.77614 4 8.5 4H4.5C4.22386 4 4 4.22386 4 4.5V8.5C4 8.77614 4.22386 9 4.5 9Z" fill="black"/>
</g>
<defs>
<clipPath id="clip0_241_9474">
<rect width="16" height="16" fill="white"/>
</clipPath>
</defs>
</svg>
