<svg width="16" height="16" viewBox="0 0 16 16" fill="none" xmlns="http://www.w3.org/2000/svg">
<g id="object-tweak-paint">
<rect id="rectangle" x="6.28564" y="6.28564" width="3.42857" height="3.42857" rx="1.71429" fill="black"/>
<path id="Union" opacity="0.5" fill-rule="evenodd" clip-rule="evenodd" d="M8 2C7.05323 2 6.28571 2.76751 6.28571 3.71429C6.28571 4.66106 7.05323 5.42857 8 5.42857C8.94677 5.42857 9.71429 4.66106 9.71429 3.71429C9.71429 2.76751 8.94677 2 8 2ZM3.71429 6.28571C2.76751 6.28571 2 7.05323 2 8C2 8.94677 2.76751 9.71429 3.71429 9.71429C4.66106 9.71429 5.42857 8.94677 5.42857 8C5.42857 7.05323 4.66106 6.28571 3.71429 6.28571ZM6.28571 12.2857C6.28571 11.3389 7.05323 10.5714 8 10.5714C8.94677 10.5714 9.71429 11.3389 9.71429 12.2857C9.71429 13.2325 8.94677 14 8 14C7.05323 14 6.28571 13.2325 6.28571 12.2857ZM12.2857 6.28571C11.3389 6.28571 10.5714 7.05323 10.5714 8C10.5714 8.94677 11.3389 9.71429 12.2857 9.71429C13.2325 9.71429 14 8.94677 14 8C14 7.05323 13.2325 6.28571 12.2857 6.28571Z" fill="black"/>
<path id="Union_2" opacity="0.2" fill-rule="evenodd" clip-rule="evenodd" d="M3.71429 2C2.76751 2 2 2.76751 2 3.71429C2 4.66106 2.76751 5.42857 3.71429 5.42857C4.66106 5.42857 5.42857 4.66106 5.42857 3.71429C5.42857 2.76751 4.66106 2 3.71429 2ZM3.71429 10.5714C2.76751 10.5714 2 11.3389 2 12.2857C2 13.2325 2.76751 14 3.71429 14C4.66106 14 5.42857 13.2325 5.42857 12.2857C5.42857 11.3389 4.66106 10.5714 3.71429 10.5714ZM10.5714 3.71429C10.5714 2.76751 11.3389 2 12.2857 2C13.2325 2 14 2.76751 14 3.71429C14 4.66106 13.2325 5.42857 12.2857 5.42857C11.3389 5.42857 10.5714 4.66106 10.5714 3.71429ZM12.2857 10.5714C11.3389 10.5714 10.5714 11.3389 10.5714 12.2857C10.5714 13.2325 11.3389 14 12.2857 14C13.2325 14 14 13.2325 14 12.2857C14 11.3389 13.2325 10.5714 12.2857 10.5714Z" fill="black"/>
</g>
</svg>
