<svg width="16" height="16" viewBox="0 0 16 16" fill="none" xmlns="http://www.w3.org/2000/svg">
<g id="object-ungroup-pop-selection" clip-path="url(#clip0_241_9507)">
<path id="Union" fill-rule="evenodd" clip-rule="evenodd" d="M10.0026 10.4489C10.0282 10.1967 10.2411 10 10.5 10L11.5 10L11.5007 10L15.5 10C15.7761 10 16 10.2239 16 10.5L16 15.5C16 15.7761 15.7761 16 15.5 16L10.5 16C10.2239 16 10 15.7761 10 15.5L10 11.5L10 10.5C10 10.4827 10.0009 10.4657 10.0026 10.4489ZM7.5 7.5L7.5 4.5L4.5 4.5L4.5 7.5L7.5 7.5ZM7.875 8.5C8.22018 8.5 8.5 8.22018 8.5 7.875L8.5 4.125C8.5 3.77982 8.22018 3.5 7.875 3.5L4.125 3.5C3.77982 3.5 3.5 3.77982 3.5 4.125L3.5 7.875C3.5 8.22018 3.77982 8.5 4.125 8.5L7.875 8.5ZM0.500001 -1.35505e-06C0.223859 -1.37919e-06 1.37919e-06 0.223856 1.35505e-06 0.499999L1.26763e-06 1.5C1.24349e-06 1.77614 0.223859 2 0.500001 2L1.5 2C1.77614 2 2 1.77614 2 1.5L2 0.499999C2 0.223857 1.77614 -1.24349e-06 1.5 -1.26763e-06L0.500001 -1.35505e-06ZM10 0.499999C10 0.223857 10.2239 -5.04966e-07 10.5 -4.80825e-07L11.5 -3.93402e-07C11.7761 -3.69261e-07 12 0.223858 12 0.5L12 1.5C12 1.77614 11.7761 2 11.5 2L10.5 2C10.2239 2 10 1.77614 10 1.5L10 0.499999ZM4.80825e-07 10.5C5.04966e-07 10.2239 0.223858 10 0.500001 10L1.5 10C1.77614 10 2 10.2239 2 10.5L2 11.5C2 11.7761 1.77614 12 1.5 12L0.5 12C0.223858 12 3.69261e-07 11.7761 3.93402e-07 11.5L4.80825e-07 10.5ZM4.375 1.5C4.375 1.22386 4.59886 0.999999 4.875 0.999999L7.125 0.999999C7.40114 0.999999 7.625 1.22386 7.625 1.5C7.625 1.77614 7.40114 2 7.125 2L4.875 2C4.59886 2 4.375 1.77614 4.375 1.5ZM1.5 4.375C1.77614 4.375 2 4.59886 2 4.875L2 7.125C2 7.40114 1.77614 7.625 1.5 7.625C1.22386 7.625 1 7.40114 1 7.125L1 4.875C1 4.59886 1.22386 4.375 1.5 4.375ZM10.5 4.375C10.7761 4.375 11 4.59886 11 4.875L11 7.125C11 7.40114 10.7761 7.625 10.5 7.625C10.2239 7.625 10 7.40114 10 7.125L10 4.875C10 4.59886 10.2239 4.375 10.5 4.375ZM4.375 10.5C4.375 10.2239 4.59886 10 4.875 10L7.125 10C7.40114 10 7.625 10.2239 7.625 10.5C7.625 10.7761 7.40114 11 7.125 11L4.875 11C4.59886 11 4.375 10.7761 4.375 10.5Z" fill="black"/>
</g>
<defs>
<clipPath id="clip0_241_9507">
<rect width="16" height="16" fill="white"/>
</clipPath>
</defs>
</svg>
