<svg width="16" height="16" viewBox="0 0 16 16" fill="none" xmlns="http://www.w3.org/2000/svg">
<g id="object-flip-vertical">
<path id="Union" fill-rule="evenodd" clip-rule="evenodd" d="M13.0001 2.56293L5.55306 6.00002L13.0001 6.00002V2.56293ZM3.06704 6.04604C2.58026 6.27071 2.74044 7.00002 3.27657 7.00002L13.5001 7.00002C13.7762 7.00002 14.0001 6.77616 14.0001 6.50002V1.78147C14.0001 1.41658 13.6219 1.17458 13.2906 1.32749L3.06704 6.04604ZM13.0001 13.4371L5.55306 10L13.0001 10V13.4371ZM3.06704 9.954C2.58026 9.72933 2.74044 9.00002 3.27657 9.00002L13.5001 9.00002C13.7762 9.00002 14.0001 9.22388 14.0001 9.50002V14.2186C14.0001 14.5835 13.6219 14.8255 13.2906 14.6725L3.06704 9.954Z" fill="black"/>
<path id="neutral" opacity="0.3" d="M3.06696 9.95398C2.58017 9.72931 2.74035 9 3.27649 9L13.5 9C13.7761 9 14 9.22386 14 9.5L14 14.2185C14 14.5834 13.6218 14.8254 13.2905 14.6725L3.06696 9.95398Z" fill="black"/>
</g>
</svg>
