<svg width="16" height="16" viewBox="0 0 16 16" fill="none" xmlns="http://www.w3.org/2000/svg">
<g id="object-flip-hor">
<path id="Union" fill-rule="evenodd" clip-rule="evenodd" d="M2.56281 13L5.9999 5.55293V13H2.56281ZM6.04592 3.06692C6.27059 2.58014 6.9999 2.74032 6.9999 3.27645V13.5C6.9999 13.7761 6.77604 14 6.4999 14H1.78135C1.41646 14 1.17446 13.6217 1.32737 13.2904L6.04592 3.06692ZM13.437 13L9.9999 5.55293V13H13.437ZM9.95388 3.06692C9.72921 2.58014 8.9999 2.74032 8.9999 3.27645V13.5C8.9999 13.7761 9.22375 14 9.4999 14H14.2184C14.5833 14 14.8253 13.6217 14.6724 13.2904L9.95388 3.06692Z" fill="black"/>
<path id="neutral" opacity="0.3" d="M6.04602 3.06696C6.27069 2.58017 7 2.74035 7 3.27649V13.5C7 13.7761 6.77614 14 6.5 14H1.78145C1.41656 14 1.17456 13.6218 1.32747 13.2905L6.04602 3.06696Z" fill="black"/>
</g>
</svg>
