<svg width="16" height="16" viewBox="0 0 16 16" fill="none" xmlns="http://www.w3.org/2000/svg">
<g id="object-tweak-blur">
<path id="Union" opacity="0.2" d="M9.38569 8.00009C9.38569 8.7648 8.76577 9.38471 8.00107 9.38471C7.23637 9.38471 6.61646 8.7648 6.61646 8.00009C6.61646 7.23539 7.23637 6.61548 8.00107 6.61548C8.76577 6.61548 9.38569 7.23539 9.38569 8.00009Z" fill="black"/>
<path id="Union_2" opacity="0.6" fill-rule="evenodd" clip-rule="evenodd" d="M8.69328 3.38462C8.69328 3.76697 8.38333 4.07692 8.00098 4.07692C7.61863 4.07692 7.30867 3.76697 7.30867 3.38462C7.30867 3.00226 7.61863 2.69231 8.00098 2.69231C8.38333 2.69231 8.69328 3.00226 8.69328 3.38462ZM9.38559 3.38462C9.38559 4.14932 8.76568 4.76923 8.00098 4.76923C7.23627 4.76923 6.61636 4.14932 6.61636 3.38462C6.61636 2.61991 7.23627 2 8.00098 2C8.76568 2 9.38559 2.61991 9.38559 3.38462ZM4.0779 8C4.0779 8.38235 3.76794 8.69231 3.38559 8.69231C3.00324 8.69231 2.69328 8.38235 2.69328 8C2.69328 7.61765 3.00324 7.30769 3.38559 7.30769C3.76794 7.30769 4.0779 7.61765 4.0779 8ZM4.77021 8C4.77021 8.7647 4.15029 9.38462 3.38559 9.38462C2.62089 9.38462 2.00098 8.7647 2.00098 8C2.00098 7.2353 2.62089 6.61538 3.38559 6.61538C4.15029 6.61538 4.77021 7.2353 4.77021 8ZM8.00098 13.3077C8.38333 13.3077 8.69328 12.9977 8.69328 12.6154C8.69328 12.233 8.38333 11.9231 8.00098 11.9231C7.61863 11.9231 7.30867 12.233 7.30867 12.6154C7.30867 12.9977 7.61863 13.3077 8.00098 13.3077ZM8.00098 14C8.76568 14 9.38559 13.3801 9.38559 12.6154C9.38559 11.8507 8.76568 11.2308 8.00098 11.2308C7.23627 11.2308 6.61636 11.8507 6.61636 12.6154C6.61636 13.3801 7.23627 14 8.00098 14ZM13.3087 8C13.3087 8.38235 12.9987 8.69231 12.6164 8.69231C12.234 8.69231 11.9241 8.38235 11.9241 8C11.9241 7.61765 12.234 7.30769 12.6164 7.30769C12.9987 7.30769 13.3087 7.61765 13.3087 8ZM14.001 8C14.001 8.7647 13.3811 9.38462 12.6164 9.38462C11.8517 9.38462 11.2317 8.7647 11.2317 8C11.2317 7.2353 11.8517 6.61538 12.6164 6.61538C13.3811 6.61538 14.001 7.2353 14.001 8Z" fill="black"/>
<path id="Union_3" fill-rule="evenodd" clip-rule="evenodd" d="M3.38559 4.76923C4.15029 4.76923 4.77021 4.14932 4.77021 3.38462C4.77021 2.61991 4.15029 2 3.38559 2C2.62089 2 2.00098 2.61991 2.00098 3.38462C2.00098 4.14932 2.62089 4.76923 3.38559 4.76923ZM3.38559 14C4.15029 14 4.77021 13.3801 4.77021 12.6154C4.77021 11.8507 4.15029 11.2308 3.38559 11.2308C2.62089 11.2308 2.00098 11.8507 2.00098 12.6154C2.00098 13.3801 2.62089 14 3.38559 14ZM14.001 3.38462C14.001 4.14932 13.3811 4.76923 12.6164 4.76923C11.8517 4.76923 11.2317 4.14932 11.2317 3.38462C11.2317 2.61991 11.8517 2 12.6164 2C13.3811 2 14.001 2.61991 14.001 3.38462ZM12.6164 14C13.3811 14 14.001 13.3801 14.001 12.6154C14.001 11.8507 13.3811 11.2308 12.6164 11.2308C11.8517 11.2308 11.2317 11.8507 11.2317 12.6154C11.2317 13.3801 11.8517 14 12.6164 14Z" fill="black"/>
</g>
</svg>
