<svg width="16" height="16" viewBox="0 0 16 16" fill="none" xmlns="http://www.w3.org/2000/svg">
<g id="object-stroke-style">
<path id="Union" fill-rule="evenodd" clip-rule="evenodd" d="M3 3V4L3 4.5H2V4V2.5C2 2.22386 2.22386 2 2.5 2H4H4.5L4.5 3H4H3ZM7 2H6.5V3H7H9H9.5V2H9H7ZM14 7V6.5H13V7V9V9.5H14V9V7ZM13 3V4V4.5H14V4V2.5C14 2.22386 13.7761 2 13.5 2H12H11.5V3H12H13ZM13 12V13H12H11.5V14H12H13.5C13.7761 14 14 13.7761 14 13.5V12V11.5H13V12ZM3 12V13H4H4.5L4.5 14H4H2.5C2.22386 14 2 13.7761 2 13.5V12V11.5H3L3 12ZM6.5 13H7H9H9.5V14H9H7H6.5V13ZM3 7V6.5H2V7V9V9.5H3V9L3 7Z" fill="black"/>
<path id="neutral" opacity="0.5" fill-rule="evenodd" clip-rule="evenodd" d="M6.5 3H7H9H9.5V4H9H7H6.5V3ZM13 6.5V7V9V9.5H12V9V7V6.5H13ZM7 12H6.5V13H7H9H9.5V12H9H7ZM4 6.5V7V9V9.5H3V9V7V6.5H4ZM3 3H4.5V4.5H3V3ZM3 11.5H4.5V13H3V11.5ZM13 3H11.5V4.5H13V3ZM11.5 11.5H13V13H11.5V11.5Z" fill="black"/>
</g>
</svg>
