<svg width="16" height="16" viewBox="0 0 16 16" fill="none" xmlns="http://www.w3.org/2000/svg">
<g id="object-columns">
<path id="Union" fill-rule="evenodd" clip-rule="evenodd" d="M8.5 0.5V15.5C8.5 15.7761 8.27614 16 8 16C7.72386 16 7.5 15.7761 7.5 15.5V0.5C7.5 0.223858 7.72386 0 8 0C8.27614 0 8.5 0.223858 8.5 0.5ZM3 4V12H5V4H3ZM2.5 3C2.22386 3 2 3.22386 2 3.5V12.5C2 12.7761 2.22386 13 2.5 13H5.5C5.77614 13 6 12.7761 6 12.5V3.5C6 3.22386 5.77614 3 5.5 3H2.5ZM11 12V4H13V12H11ZM10 3.5C10 3.22386 10.2239 3 10.5 3H13.5C13.7761 3 14 3.22386 14 3.5V12.5C14 12.7761 13.7761 13 13.5 13H10.5C10.2239 13 10 12.7761 10 12.5V3.5Z" fill="black"/>
</g>
</svg>
