<svg width="16" height="16" viewBox="0 0 16 16" fill="none" xmlns="http://www.w3.org/2000/svg">
<g id="object-visible">
<path id="Union" fill-rule="evenodd" clip-rule="evenodd" d="M2.10878 7.93813L2.10848 7.93854C1.86642 8.27438 1.39798 8.3506 1.06192 8.10872C0.725737 7.86675 0.649362 7.39805 0.891336 7.06187L1.50006 7.5C0.891336 7.06187 0.891506 7.06163 0.891686 7.06138L0.892095 7.06082L0.893089 7.05944L0.895782 7.05573L0.903976 7.04457C0.910683 7.03548 0.919877 7.02314 0.931527 7.00776C0.954822 6.97702 0.987967 6.93409 1.03071 6.88073C1.11614 6.77408 1.24023 6.62533 1.40098 6.44855C1.72175 6.09579 2.19248 5.62699 2.79735 5.15752C4.00081 4.22345 5.78426 3.25 7.99976 3.25C10.2153 3.25 11.9988 4.22345 13.2024 5.15749C13.8074 5.62696 14.2782 6.09575 14.599 6.4485C14.7598 6.62528 14.8839 6.77402 14.9693 6.88067C15.0121 6.93403 15.0452 6.97696 15.0685 7.0077C15.0802 7.02308 15.0894 7.03542 15.0961 7.0445L15.1043 7.05567L15.107 7.05937L15.108 7.06075L15.1084 7.06131C15.1086 7.06156 15.1087 7.0618 14.5001 7.5L15.1087 7.0618C15.3507 7.39796 15.2744 7.86666 14.9383 8.10867C14.6024 8.35044 14.1343 8.27451 13.8921 7.93922L13.8919 7.93893L13.8917 7.93861L13.8914 7.9382L13.8893 7.93542L13.873 7.91369C13.8575 7.89316 13.8326 7.86089 13.7987 7.81855C13.7308 7.73379 13.627 7.6091 13.4893 7.45775C13.2133 7.15425 12.8054 6.74804 12.2828 6.34251C11.2314 5.52656 9.76482 4.75 7.99976 4.75C6.23472 4.75 4.76832 5.52655 3.71706 6.34248C3.19458 6.74801 2.78673 7.15421 2.51077 7.4577C2.37314 7.60905 2.26933 7.73374 2.20144 7.81849C2.16753 7.86083 2.14266 7.8931 2.12711 7.91362L2.11083 7.93535L2.10878 7.93813ZM9.99998 9C9.99998 10.1046 9.10455 11 7.99998 11C6.89541 11 5.99998 10.1046 5.99998 9C5.99998 7.89543 6.89541 7 7.99998 7C9.10455 7 9.99998 7.89543 9.99998 9Z" fill="black"/>
</g>
</svg>
