<svg width="16" height="16" viewBox="0 0 16 16" fill="none" xmlns="http://www.w3.org/2000/svg">
<g id="object-tweak-randomize">
<path id="Union" fill-rule="evenodd" clip-rule="evenodd" d="M1.00098 2.75C1.00098 1.7835 1.78448 1 2.75098 1C3.71747 1 4.50098 1.7835 4.50098 2.75C4.50098 3.7165 3.71747 4.5 2.75098 4.5C1.78448 4.5 1.00098 3.7165 1.00098 2.75ZM2.75098 7.125C2.75098 6.1585 3.53448 5.375 4.50098 5.375C5.46747 5.375 6.25098 6.1585 6.25098 7.125C6.25098 8.0915 5.46747 8.875 4.50098 8.875C3.53448 8.875 2.75098 8.0915 2.75098 7.125ZM2.75098 8.875C1.78448 8.875 1.00098 9.6585 1.00098 10.625C1.00098 11.5915 1.78448 12.375 2.75098 12.375C3.71747 12.375 4.50098 11.5915 4.50098 10.625C4.50098 9.6585 3.71747 8.875 2.75098 8.875ZM7.12598 4.5C7.12598 3.5335 7.90948 2.75 8.87598 2.75C9.84247 2.75 10.626 3.5335 10.626 4.5C10.626 5.4665 9.84247 6.25 8.87598 6.25C7.90948 6.25 7.12598 5.4665 7.12598 4.5ZM8.00098 7.125C7.03448 7.125 6.25098 7.9085 6.25098 8.875C6.25098 9.8415 7.03448 10.625 8.00098 10.625C8.96747 10.625 9.75098 9.8415 9.75098 8.875C9.75098 7.9085 8.96747 7.125 8.00098 7.125ZM5.37598 13.25C5.37598 12.2835 6.15948 11.5 7.12598 11.5C8.09247 11.5 8.87598 12.2835 8.87598 13.25C8.87598 14.2165 8.09247 15 7.12598 15C6.15948 15 5.37598 14.2165 5.37598 13.25ZM12.376 1C11.4095 1 10.626 1.7835 10.626 2.75C10.626 3.7165 11.4095 4.5 12.376 4.5C13.3425 4.5 14.126 3.7165 14.126 2.75C14.126 1.7835 13.3425 1 12.376 1ZM11.501 8C11.501 7.0335 12.2845 6.25 13.251 6.25C14.2175 6.25 15.001 7.0335 15.001 8C15.001 8.9665 14.2175 9.75 13.251 9.75C12.2845 9.75 11.501 8.9665 11.501 8ZM11.501 10.625C10.5345 10.625 9.75098 11.4085 9.75098 12.375C9.75098 13.3415 10.5345 14.125 11.501 14.125C12.4675 14.125 13.251 13.3415 13.251 12.375C13.251 11.4085 12.4675 10.625 11.501 10.625Z" fill="black"/>
</g>
</svg>
