<svg width="16" height="16" viewBox="0 0 16 16" fill="none" xmlns="http://www.w3.org/2000/svg">
<g id="object-hidden">
<path id="Union" fill-rule="evenodd" clip-rule="evenodd" d="M1.60879 8C1.67269 8.08662 1.75287 8.19136 1.84902 8.3097C2.13847 8.66595 2.5699 9.14201 3.13459 9.61754C4.26604 10.5703 5.90587 11.5 8.00002 11.5C10.0942 11.5 11.734 10.5703 12.8655 9.61754C13.4301 9.14201 13.8616 8.66595 14.151 8.3097C14.2472 8.19137 14.3274 8.08662 14.3913 8C14.3274 7.91337 14.2472 7.80863 14.151 7.6903C13.8616 7.33405 13.4301 6.85799 12.8655 6.38246C11.734 5.42966 10.0942 4.5 8.00002 4.5C5.90587 4.5 4.26604 5.42966 3.13459 6.38246C2.5699 6.85799 2.13847 7.33405 1.84902 7.6903C1.75287 7.80864 1.67269 7.91337 1.60879 8ZM15 8C15.424 7.735 15.4239 7.73482 15.4238 7.73462L15.4235 7.73415L15.4227 7.73293L15.4205 7.7294L15.4132 7.71806C15.4072 7.70864 15.3987 7.69551 15.3877 7.67893C15.3657 7.64578 15.3339 7.59878 15.2924 7.53993C15.2094 7.42226 15.0873 7.25688 14.9271 7.0597C14.6072 6.66595 14.1324 6.14201 13.5096 5.61754C12.266 4.57034 10.4059 3.5 8.00002 3.5C5.59418 3.5 3.73401 4.57034 2.49046 5.61754C1.86765 6.14201 1.39283 6.66595 1.0729 7.0597C0.912699 7.25688 0.790645 7.42226 0.70765 7.53993C0.666135 7.59878 0.634338 7.64578 0.612374 7.67893C0.60139 7.69551 0.592861 7.70864 0.586799 7.71806L0.579557 7.7294L0.577327 7.73293L0.57656 7.73415L0.576263 7.73462C0.576139 7.73482 0.576025 7.735 1.00002 8L0.576025 7.735C0.474691 7.89714 0.474691 8.10286 0.576025 8.265L1.00002 8C0.576025 8.265 0.576139 8.26518 0.576263 8.26538L0.57656 8.26585L0.577327 8.26707L0.579557 8.2706L0.586799 8.28194C0.592861 8.29136 0.60139 8.30449 0.612374 8.32107C0.634338 8.35422 0.666135 8.40122 0.70765 8.46007C0.790645 8.57774 0.912699 8.74312 1.0729 8.9403C1.39283 9.33405 1.86765 9.85799 2.49046 10.3825C3.73401 11.4297 5.59418 12.5 8.00002 12.5C10.4059 12.5 12.266 11.4297 13.5096 10.3825C14.1324 9.85799 14.6072 9.33405 14.9271 8.9403C15.0873 8.74312 15.2094 8.57774 15.2924 8.46007C15.3339 8.40122 15.3657 8.35422 15.3877 8.32107C15.3987 8.30449 15.4072 8.29136 15.4132 8.28194L15.4205 8.2706L15.4227 8.26707L15.4235 8.26585L15.4238 8.26538C15.4239 8.26518 15.424 8.265 15 8ZM15 8L15.424 8.265C15.5254 8.10286 15.5254 7.89714 15.424 7.735L15 8Z" fill="black"/>
<path id="Intersect" opacity="0.2" fill-rule="evenodd" clip-rule="evenodd" d="M13.3393 6.13037C13.1692 6.28161 13.0171 6.45875 12.8892 6.66036L12.8867 6.66413C12.8801 6.67415 12.8647 6.69698 12.8409 6.73082C12.7929 6.79876 12.7118 6.90934 12.5988 7.04846C12.3703 7.32967 12.0256 7.71001 11.5772 8.08766C10.6699 8.85165 9.47078 9.49994 8 9.49994C6.52922 9.49994 5.33008 8.85165 4.42284 8.08766C3.97437 7.71001 3.62971 7.32967 3.40122 7.04846C3.28819 6.90934 3.20705 6.79876 3.15914 6.73082C3.13527 6.69698 3.11994 6.67415 3.1133 6.66413L3.1108 6.66034L3.11079 6.66033C2.98289 6.45872 2.83081 6.2816 2.66071 6.13037C1.5718 7.08506 1 7.99994 1 7.99994C1 7.99994 3.5 11.9999 8 11.9999C12.5 11.9999 15 7.99994 15 7.99994C15 7.99994 14.4282 7.08506 13.3393 6.13037Z" fill="black"/>
</g>
</svg>
