<svg width="16" height="16" viewBox="0 0 16 16" fill="none" xmlns="http://www.w3.org/2000/svg">
<g id="object-to-path" clip-path="url(#clip0_241_9305)">
<path id="neutral" opacity="0.3" fill-rule="evenodd" clip-rule="evenodd" d="M5.00096 3H11.0015L13.001 4.99943V11.0001L13.0009 11L11.0015 12.9999L11.0015 13H5.00096L3.00098 11.0001V4.99943L3.00155 5L5.00098 3.00002L5.00096 3Z" fill="black"/>
<path id="Union" fill-rule="evenodd" clip-rule="evenodd" d="M3.35448 0.646554L5.10809 2.40011H10.8942L12.6473 0.646603L13.0009 0.292969L13.3545 0.646554L15.3546 2.64657L15.7081 3.00008L15.3546 3.35364L13.601 5.10772L13.601 10.8931L15.3546 12.6466L15.7081 13.0001L15.3546 13.3536L13.3552 15.3536L13.0016 15.7073L12.648 15.3537L10.8945 13.6001H5.1082L3.35518 15.3536L3.00163 15.7073L2.64803 15.3537L0.647944 13.3536L0.294434 13.0001L0.647901 12.6465L2.40101 10.893L2.40101 5.10665L0.647944 3.35359L0.294434 3.00008L0.647901 2.64652L2.64733 0.646603L3.00088 0.292969L3.35448 0.646554ZM3.60101 5.10772L3.60101 10.8931L5.10809 12.4001H10.8942L12.401 10.893V5.10665L10.8945 3.60011H5.1082L3.60101 5.10772ZM3.00098 1.70726L4.29395 3.00019L3.00153 4.29296L1.70856 2.99999L3.00098 1.70726ZM3.00098 11.7073L4.29395 13.0002L3.00153 14.293L1.70856 13L3.00098 11.7073ZM14.2939 3.00019L13.001 1.70726L11.7086 2.99999L13.0015 4.29296L14.2939 3.00019ZM13.001 11.7073L14.2939 13.0002L13.0015 14.293L11.7086 13L13.001 11.7073Z" fill="black"/>
</g>
<defs>
<clipPath id="clip0_241_9305">
<rect width="16" height="16" fill="white"/>
</clipPath>
</defs>
</svg>
