<svg width="16" height="16" viewBox="0 0 16 16" fill="none" xmlns="http://www.w3.org/2000/svg">
<g id="object-rotate-left">
<path id="Union" fill-rule="evenodd" clip-rule="evenodd" d="M7.99997 2.5C8.27612 2.5 8.49997 2.72386 8.49997 3C8.49997 3.27614 8.27612 3.5 7.99997 3.5H4.99997C4.72383 3.5 4.49997 3.72386 4.49997 4V5.5H5.62627C5.78601 5.5 5.88129 5.67803 5.79268 5.81094L4.16638 8.25038C4.08722 8.36913 3.91273 8.36913 3.83356 8.25039L2.20727 5.81094C2.11866 5.67803 2.21394 5.5 2.37368 5.5H3.49997V4C3.49997 3.17157 4.17155 2.5 4.99997 2.5H7.99997Z" fill="black"/>
<rect id="neutral" opacity="0.3" x="10" y="1" width="5" height="10" rx="0.5" fill="black"/>
<path id="Union_2" fill-rule="evenodd" clip-rule="evenodd" d="M11 10V2H14V10H11ZM10 10V1.5C10 1.22386 10.2239 1 10.5 1H14.5C14.7761 1 15 1.22386 15 1.5V10.5V14.5C15 14.7761 14.7761 15 14.5 15H1.5C1.22386 15 1 14.7761 1 14.5V10.5C1 10.2239 1.22386 10 1.5 10H10ZM14 11H10.5H2V14H14V11Z" fill="black"/>
</g>
</svg>
