<svg width="16" height="16" viewBox="0 0 16 16" fill="none" xmlns="http://www.w3.org/2000/svg">
<g id="object-tweak-push">
<path id="Union" fill-rule="evenodd" clip-rule="evenodd" d="M6.28669 2.85711C6.28669 1.91033 7.0542 1.14282 8.00098 1.14282C8.94775 1.14282 9.71526 1.91033 9.71526 2.85711C9.71526 3.80388 8.94775 4.57139 8.00098 4.57139C7.0542 4.57139 6.28669 3.80388 6.28669 2.85711ZM2.00098 4.57139C2.00098 3.62462 2.76849 2.85711 3.71526 2.85711C4.66204 2.85711 5.42955 3.62462 5.42955 4.57139C5.42955 5.51817 4.66204 6.28568 3.71526 6.28568C2.76849 6.28568 2.00098 5.51817 2.00098 4.57139ZM2.00098 8.42854C2.00098 7.48176 2.76849 6.71425 3.71526 6.71425C4.66204 6.71425 5.42955 7.48176 5.42955 8.42854C5.42955 9.37531 4.66204 10.1428 3.71526 10.1428C2.76849 10.1428 2.00098 9.37531 2.00098 8.42854ZM3.71526 11.4285C2.76849 11.4285 2.00098 12.196 2.00098 13.1428C2.00098 14.0896 2.76849 14.8571 3.71526 14.8571C4.66204 14.8571 5.42955 14.0896 5.42955 13.1428C5.42955 12.196 4.66204 11.4285 3.71526 11.4285ZM8.00098 4.99996C7.0542 4.99996 6.28669 5.76748 6.28669 6.71425C6.28669 7.66102 7.0542 8.42854 8.00098 8.42854C8.94775 8.42854 9.71526 7.66102 9.71526 6.71425C9.71526 5.76748 8.94775 4.99996 8.00098 4.99996ZM6.28669 11C6.28669 10.0532 7.0542 9.28568 8.00098 9.28568C8.94775 9.28568 9.71526 10.0532 9.71526 11C9.71526 11.9467 8.94775 12.7143 8.00098 12.7143C7.0542 12.7143 6.28669 11.9467 6.28669 11ZM12.2867 2.85711C11.3399 2.85711 10.5724 3.62462 10.5724 4.57139C10.5724 5.51817 11.3399 6.28568 12.2867 6.28568C13.2335 6.28568 14.001 5.51817 14.001 4.57139C14.001 3.62462 13.2335 2.85711 12.2867 2.85711ZM10.5724 8.42854C10.5724 7.48176 11.3399 6.71425 12.2867 6.71425C13.2335 6.71425 14.001 7.48176 14.001 8.42854C14.001 9.37531 13.2335 10.1428 12.2867 10.1428C11.3399 10.1428 10.5724 9.37531 10.5724 8.42854ZM12.2867 11.4285C11.3399 11.4285 10.5724 12.196 10.5724 13.1428C10.5724 14.0896 11.3399 14.8571 12.2867 14.8571C13.2335 14.8571 14.001 14.0896 14.001 13.1428C14.001 12.196 13.2335 11.4285 12.2867 11.4285Z" fill="black"/>
</g>
</svg>
