<svg width="16" height="16" viewBox="0 0 16 16" fill="none" xmlns="http://www.w3.org/2000/svg">
<g id="object-ungroup" clip-path="url(#clip0_241_9511)">
<path id="Union" fill-rule="evenodd" clip-rule="evenodd" d="M0.5 0C0.223858 0 0 0.223858 0 0.5V1.5C0 1.77614 0.223858 2 0.5 2H1.5C1.77614 2 2 1.77614 2 1.5V0.5C2 0.223858 1.77614 0 1.5 0H0.5ZM14.5 0C14.2239 0 14 0.223858 14 0.5V1.5C14 1.77614 14.2239 2 14.5 2H15.5C15.7761 2 16 1.77614 16 1.5V0.5C16 0.223858 15.7761 0 15.5 0H14.5ZM14 14.5C14 14.2239 14.2239 14 14.5 14H15.5C15.7761 14 16 14.2239 16 14.5V15.5C16 15.7761 15.7761 16 15.5 16H14.5C14.2239 16 14 15.7761 14 15.5V14.5ZM0.5 14C0.223858 14 0 14.2239 0 14.5V15.5C0 15.7761 0.223858 16 0.5 16H1.5C1.77614 16 2 15.7761 2 15.5V14.5C2 14.2239 1.77614 14 1.5 14H0.5ZM6.125 0C5.84886 0 5.625 0.223858 5.625 0.5C5.625 0.776142 5.84886 1 6.125 1H9.875C10.1511 1 10.375 0.776142 10.375 0.5C10.375 0.223858 10.1511 0 9.875 0H6.125ZM1 6.125C1 5.84886 0.776142 5.625 0.5 5.625C0.223858 5.625 0 5.84886 0 6.125V9.875C0 10.1511 0.223858 10.375 0.5 10.375C0.776142 10.375 1 10.1511 1 9.875V6.125ZM16 6.125C16 5.84886 15.7761 5.625 15.5 5.625C15.2239 5.625 15 5.84886 15 6.125V9.875C15 10.1511 15.2239 10.375 15.5 10.375C15.7761 10.375 16 10.1511 16 9.875V6.125ZM6.125 15C5.84886 15 5.625 15.2239 5.625 15.5C5.625 15.7761 5.84886 16 6.125 16H9.875C10.1511 16 10.375 15.7761 10.375 15.5C10.375 15.2239 10.1511 15 9.875 15H6.125ZM5 5V8H7V7.5C7 7.22386 7.22386 7 7.5 7H8V5H5ZM4.5 9H7V11.5C7 11.7761 7.22386 12 7.5 12H11.5C11.7761 12 12 11.7761 12 11.5V7.5C12 7.22386 11.7761 7 11.5 7H9V4.5C9 4.22386 8.77614 4 8.5 4H4.5C4.22386 4 4 4.22386 4 4.5V8.5C4 8.77614 4.22386 9 4.5 9Z" fill="black"/>
</g>
<defs>
<clipPath id="clip0_241_9511">
<rect width="16" height="16" fill="white"/>
</clipPath>
</defs>
</svg>
