<svg width="16" height="16" viewBox="0 0 16 16" fill="none" xmlns="http://www.w3.org/2000/svg">
<g id="object-tweak-shrink">
<rect id="rectangle" opacity="0.5" x="7.14307" y="7.14307" width="1.71429" height="1.71429" rx="0.857143" fill="black"/>
<path id="Union" opacity="0.8" fill-rule="evenodd" clip-rule="evenodd" d="M8.00014 2.42871C7.29006 2.42871 6.71443 3.00434 6.71443 3.71443C6.71443 4.42451 7.29006 5.00014 8.00014 5.00014C8.71022 5.00014 9.28585 4.42451 9.28585 3.71443C9.28585 3.00434 8.71022 2.42871 8.00014 2.42871ZM3.71443 6.71443C3.00434 6.71443 2.42871 7.29006 2.42871 8.00014C2.42871 8.71022 3.00434 9.28585 3.71443 9.28585C4.42451 9.28585 5.00014 8.71022 5.00014 8.00014C5.00014 7.29006 4.42451 6.71443 3.71443 6.71443ZM6.71443 12.2859C6.71443 11.5758 7.29006 11.0001 8.00014 11.0001C8.71022 11.0001 9.28585 11.5758 9.28585 12.2859C9.28585 12.9959 8.71022 13.5716 8.00014 13.5716C7.29006 13.5716 6.71443 12.9959 6.71443 12.2859ZM12.2859 6.71443C11.5758 6.71443 11.0001 7.29006 11.0001 8.00014C11.0001 8.71022 11.5758 9.28585 12.2859 9.28585C12.9959 9.28585 13.5716 8.71022 13.5716 8.00014C13.5716 7.29006 12.9959 6.71443 12.2859 6.71443Z" fill="black"/>
<path id="Union_2" fill-rule="evenodd" clip-rule="evenodd" d="M3.71429 2C2.76751 2 2 2.76751 2 3.71429C2 4.66106 2.76751 5.42857 3.71429 5.42857C4.66106 5.42857 5.42857 4.66106 5.42857 3.71429C5.42857 2.76751 4.66106 2 3.71429 2ZM3.71429 10.5714C2.76751 10.5714 2 11.3389 2 12.2857C2 13.2325 2.76751 14 3.71429 14C4.66106 14 5.42857 13.2325 5.42857 12.2857C5.42857 11.3389 4.66106 10.5714 3.71429 10.5714ZM10.5714 3.71429C10.5714 2.76751 11.3389 2 12.2857 2C13.2325 2 14 2.76751 14 3.71429C14 4.66106 13.2325 5.42857 12.2857 5.42857C11.3389 5.42857 10.5714 4.66106 10.5714 3.71429ZM12.2857 10.5714C11.3389 10.5714 10.5714 11.3389 10.5714 12.2857C10.5714 13.2325 11.3389 14 12.2857 14C13.2325 14 14 13.2325 14 12.2857C14 11.3389 13.2325 10.5714 12.2857 10.5714Z" fill="black"/>
</g>
</svg>
