<svg width="16" height="16" viewBox="0 0 16 16" fill="none" xmlns="http://www.w3.org/2000/svg">
<g id="offset">
<path id="Subtract" fill-rule="evenodd" clip-rule="evenodd" d="M8 12C10.2091 12 12 10.2091 12 8C12 5.79086 10.2091 4 8 4C5.79086 4 4 5.79086 4 8C4 10.2091 5.79086 12 8 12ZM8 11C9.65685 11 11 9.65685 11 8C11 6.34315 9.65685 5 8 5C6.34315 5 5 6.34315 5 8C5 9.65685 6.34315 11 8 11Z" fill="black"/>
<path class="warning" fill-rule="evenodd" clip-rule="evenodd" d="M8.00098 15C11.867 15 15.001 11.866 15.001 8C15.001 4.13401 11.867 1 8.00098 1C4.13498 1 1.00098 4.13401 1.00098 8C1.00098 11.866 4.13498 15 8.00098 15ZM8 12C10.2091 12 12 10.2091 12 8C12 5.79086 10.2091 4 8 4C5.79086 4 4 5.79086 4 8C4 10.2091 5.79086 12 8 12Z" fill="#9E9E9E"/>
</g>
</svg>
