<svg width="16" height="16" viewBox="0 0 16 16" fill="none" xmlns="http://www.w3.org/2000/svg">
<g id="orient-auto">
<path id="Union" fill-rule="evenodd" clip-rule="evenodd" d="M2.42417 4.57564C2.18985 4.34132 1.80995 4.34132 1.57564 4.57564C1.34132 4.80995 1.34132 5.18985 1.57564 5.42417L4.15137 7.9999L1.57564 10.5756C1.34132 10.81 1.34132 11.1899 1.57564 11.4242C1.80995 11.6585 2.18985 11.6585 2.42417 11.4242L5.24843 8.5999H13.5515L11.5757 10.5756C11.3414 10.81 11.3414 11.1899 11.5757 11.4242C11.8101 11.6585 12.1899 11.6585 12.4243 11.4242L15.4064 8.44204C15.4191 8.43039 15.4313 8.4182 15.4429 8.40551L15.8485 7.9999L15.4429 7.59429C15.4313 7.5816 15.4191 7.56942 15.4064 7.55777L12.4243 4.57564C12.1899 4.34132 11.8101 4.34132 11.5757 4.57564C11.3414 4.80995 11.3414 5.18985 11.5757 5.42417L13.5515 7.3999H5.24843L2.42417 4.57564Z" fill="black"/>
</g>
</svg>
