<svg width="16" height="16" viewBox="0 0 16 16" fill="none" xmlns="http://www.w3.org/2000/svg">
<g id="orient-angle">
<path id="Union" fill-rule="evenodd" clip-rule="evenodd" d="M3.0999 2.4999C3.0999 2.16853 2.83127 1.8999 2.4999 1.8999C2.16853 1.8999 1.8999 2.16853 1.8999 2.4999V13.4999V14.0999H1.89995V14.1H2.49995H8.99995H9.59995V14.0999H13.5009C13.8323 14.0999 14.1009 13.8313 14.1009 13.4999C14.1009 13.1685 13.8323 12.8999 13.5009 12.8999H9.57455C9.5129 12.1731 9.33953 11.459 9.05949 10.7829C8.70269 9.92154 8.1797 9.13884 7.52041 8.47954C6.86111 7.82025 6.07841 7.29726 5.217 6.94046C4.5409 6.66041 3.82671 6.48703 3.0999 6.42539V2.4999ZM8.36935 12.8999H3.09995V7.63059C3.66889 7.68875 4.22744 7.82944 4.75778 8.04911C5.4736 8.34561 6.12401 8.7802 6.67188 9.32807C7.21975 9.87594 7.65434 10.5263 7.95084 11.2422C8.1705 11.7725 8.31119 12.331 8.36935 12.8999Z" fill="black"/>
</g>
</svg>
