<svg width="16" height="16" viewBox="0 0 16 16" fill="none" xmlns="http://www.w3.org/2000/svg">
<g id="orient-auto-reverse">
<path id="Union" fill-rule="evenodd" clip-rule="evenodd" d="M4.42416 5.42417C4.65847 5.18985 4.65847 4.80995 4.42416 4.57564C4.18985 4.34132 3.80995 4.34132 3.57563 4.57564L0.575631 7.57564L0.151367 7.9999L0.575631 8.42417L3.57563 11.4242C3.80995 11.6585 4.18985 11.6585 4.42416 11.4242C4.65847 11.1899 4.65847 10.81 4.42416 10.5756L2.44842 8.5999H13.5514L11.5756 10.5756C11.3413 10.81 11.3413 11.1899 11.5756 11.4242C11.8099 11.6585 12.1898 11.6585 12.4242 11.4242L15.4165 8.43182C15.4217 8.42676 15.4269 8.42161 15.432 8.41637L15.8484 7.9999L15.432 7.58343C15.4269 7.57819 15.4217 7.57304 15.4165 7.56798L12.4242 4.57564C12.1898 4.34132 11.8099 4.34132 11.5756 4.57564C11.3413 4.80995 11.3413 5.18985 11.5756 5.42417L13.5514 7.3999H2.44842L4.42416 5.42417Z" fill="black"/>
</g>
</svg>
