<svg width="16" height="16" viewBox="0 0 16 16" fill="none" xmlns="http://www.w3.org/2000/svg">
<g id="overlay-clipmask" clip-path="url(#clip0_241_9366)">
<path id="Union" fill-rule="evenodd" clip-rule="evenodd" d="M14.7931 8.85552C14.8943 8.73408 15.078 8.72575 15.1897 8.83753C15.5561 9.20391 15.5827 9.78921 15.2509 10.1873L13.3318 12.4901L13.8601 13.143C14.0544 13.051 14.2717 12.9996 14.501 12.9996C15.3294 12.9996 16.001 13.6712 16.001 14.4996C16.001 15.328 15.3294 15.9996 14.501 15.9996C13.6725 15.9996 13.001 15.328 13.001 14.4996C13.001 14.1724 13.1058 13.8696 13.2836 13.6231L12.5001 12.6548L11.7175 13.6219C11.8959 13.8687 12.001 14.1719 12.001 14.4996C12.001 15.328 11.3294 15.9996 10.501 15.9996C9.67255 15.9996 9.00098 15.328 9.00098 14.4996C9.00098 13.6712 9.67255 12.9996 10.501 12.9996C10.7298 12.9996 10.9466 13.0508 11.1406 13.1424L11.668 12.4907L9.74833 10.1873C9.41661 9.78921 9.44316 9.20391 9.80954 8.83753C9.92131 8.72575 10.1049 8.73408 10.2061 8.85552L12.4996 11.6076L14.7931 8.85552ZM10.501 15.1996C10.8876 15.1996 11.201 14.8862 11.201 14.4996C11.201 14.113 10.8876 13.7996 10.501 13.7996C10.1144 13.7996 9.80098 14.113 9.80098 14.4996C9.80098 14.8862 10.1144 15.1996 10.501 15.1996ZM14.501 15.1996C14.8876 15.1996 15.201 14.8862 15.201 14.4996C15.201 14.113 14.8876 13.7996 14.501 13.7996C14.1144 13.7996 13.801 14.113 13.801 14.4996C13.801 14.8862 14.1144 15.1996 14.501 15.1996Z" fill="black"/>
<path id="Subtract" fill-rule="evenodd" clip-rule="evenodd" d="M7 12.4253V8.95449C7 8.95449 4.91676 8 3.5 8C2.08324 8 0 8.95449 0 8.95449V12.4253C0 13.3334 0.390389 14.2 1.15934 14.683C2.24278 15.3637 3.5 16 3.5 16C3.5 16 4.75722 15.3637 5.84066 14.683C6.60961 14.2 7 13.3334 7 12.4253ZM3 11.5H1L1.30132 10.5961C1.41997 10.2401 1.75308 10 2.12829 10C2.60972 10 3 10.3903 3 10.8717V11.5ZM4 11.5H6L5.69868 10.5961C5.58003 10.2401 5.24692 10 4.87171 10C4.39028 10 4 10.3903 4 10.8717V11.5ZM1.9453 13.1679L1.5 12.5H5.5L5.0547 13.1679C4.70815 13.6878 4.12474 14 3.5 14C2.87526 14 2.29185 13.6878 1.9453 13.1679Z" fill="black"/>
</g>
<defs>
<clipPath id="clip0_241_9366">
<rect width="16" height="16" fill="white"/>
</clipPath>
</defs>
</svg>
