<svg width="16" height="16" viewBox="0 0 16 16" fill="none" xmlns="http://www.w3.org/2000/svg">
<g id="overlay-mask" clip-path="url(#clip0_241_9292)">
<path id="Subtract" fill-rule="evenodd" clip-rule="evenodd" d="M16 12.4253V8.95449C16 8.95449 13.9168 8 12.5 8C11.0832 8 9 8.95449 9 8.95449V12.4253C9 13.3334 9.39039 14.2 10.1593 14.683C11.2428 15.3637 12.5 16 12.5 16C12.5 16 13.7572 15.3637 14.8407 14.683C15.6096 14.2 16 13.3334 16 12.4253ZM12 11.5H10L10.3013 10.5961C10.42 10.2401 10.7531 10 11.1283 10C11.6097 10 12 10.3903 12 10.8717V11.5ZM13 11.5H15L14.6987 10.5961C14.58 10.2401 14.2469 10 13.8717 10C13.3903 10 13 10.3903 13 10.8717V11.5ZM10.9453 13.1679L10.5 12.5H14.5L14.0547 13.1679C13.7082 13.6878 13.1247 14 12.5 14C11.8753 14 11.2918 13.6878 10.9453 13.1679Z" fill="black"/>
</g>
<defs>
<clipPath id="clip0_241_9292">
<rect width="16" height="16" fill="white"/>
</clipPath>
</defs>
</svg>
