<svg width="16" height="16" viewBox="0 0 16 16" fill="none" xmlns="http://www.w3.org/2000/svg">
<g id="overlay-clip" clip-path="url(#clip0_241_9294)">
<path id="Union" fill-rule="evenodd" clip-rule="evenodd" d="M14.7931 8.856C14.8943 8.73456 15.078 8.72624 15.1897 8.83802C15.5561 9.2044 15.5827 9.7897 15.2509 10.1877L13.3318 12.4906L13.8601 13.1435C14.0544 13.0515 14.2717 13.0001 14.501 13.0001C15.3294 13.0001 16.001 13.6717 16.001 14.5001C16.001 15.3285 15.3294 16.0001 14.501 16.0001C13.6725 16.0001 13.001 15.3285 13.001 14.5001C13.001 14.1729 13.1058 13.8701 13.2836 13.6235L12.5001 12.6553L11.7175 13.6224C11.8959 13.8692 12.001 14.1724 12.001 14.5001C12.001 15.3285 11.3294 16.0001 10.501 16.0001C9.67255 16.0001 9.00098 15.3285 9.00098 14.5001C9.00098 13.6717 9.67255 13.0001 10.501 13.0001C10.7298 13.0001 10.9466 13.0513 11.1406 13.1429L11.668 12.4912L9.74833 10.1877C9.41661 9.7897 9.44316 9.2044 9.80954 8.83802C9.92131 8.72624 10.1049 8.73456 10.2061 8.856L12.4996 11.6081L14.7931 8.856ZM10.501 15.2001C10.8876 15.2001 11.201 14.8867 11.201 14.5001C11.201 14.1135 10.8876 13.8001 10.501 13.8001C10.1144 13.8001 9.80098 14.1135 9.80098 14.5001C9.80098 14.8867 10.1144 15.2001 10.501 15.2001ZM14.501 15.2001C14.8876 15.2001 15.201 14.8867 15.201 14.5001C15.201 14.1135 14.8876 13.8001 14.501 13.8001C14.1144 13.8001 13.801 14.1135 13.801 14.5001C13.801 14.8867 14.1144 15.2001 14.501 15.2001Z" fill="black"/>
</g>
<defs>
<clipPath id="clip0_241_9294">
<rect width="16" height="16" fill="white"/>
</clipPath>
</defs>
</svg>
