<svg width="16" height="16" viewBox="0 0 16 16" fill="none" xmlns="http://www.w3.org/2000/svg">
<g id="pack-more">
<path id="Union" fill-rule="evenodd" clip-rule="evenodd" d="M9.5 3L6.5 3V5.5H9.5V3ZM5.5 3V5.5H3L3 3L5.5 3ZM5.5 6.5H3V9.5H5.5V6.5ZM5.5 10.5H3V13H5.5V10.5ZM6.5 10.5H9.5V13H6.5V10.5ZM9.5 9.5H6.5V6.5H9.5V9.5ZM10.5 10.5V13H13V10.5H10.5ZM13 9.5H10.5V6.5H13V9.5ZM13 3V5.5H10.5V3L13 3ZM14 2.5C14 2.22386 13.7761 2 13.5 2H2.5C2.22386 2 2 2.22386 2 2.5V13.5C2 13.7761 2.22386 14 2.5 14L13.5 14C13.7761 14 14 13.7761 14 13.5V2.5Z" fill="black"/>
</g>
</svg>
