<svg width="16" height="16" viewBox="0 0 16 16" fill="none" xmlns="http://www.w3.org/2000/svg">
<g id="pages-order-backwards" clip-path="url(#clip0_241_9288)">
<g id=".previous">
<path id="Union" fill-rule="evenodd" clip-rule="evenodd" d="M3.00137 3.3999C3.33274 3.3999 3.60137 3.66853 3.60137 3.9999L3.60137 7.55137L7.5771 3.57564C7.81142 3.34132 8.19132 3.34132 8.42563 3.57564C8.65995 3.80995 8.65995 4.18985 8.42563 4.42417L5.44989 7.3999L13.0014 7.3999C13.3327 7.3999 13.6014 7.66853 13.6014 7.9999C13.6014 8.33127 13.3327 8.5999 13.0014 8.5999L5.4499 8.5999L8.42563 11.5756C8.65995 11.81 8.65995 12.1899 8.42563 12.4242C8.19132 12.6585 7.81142 12.6585 7.5771 12.4242L3.60137 8.44843L3.60137 11.9999C3.60137 12.3313 3.33274 12.5999 3.00137 12.5999C2.67 12.5999 2.40137 12.3313 2.40137 11.9999V3.9999C2.40137 3.66853 2.67 3.3999 3.00137 3.3999Z" fill="black"/>
</g>
</g>
<defs>
<clipPath id="clip0_241_9288">
<rect width="16" height="16" fill="white"/>
</clipPath>
</defs>
</svg>
