<svg width="16" height="16" viewBox="0 0 16 16" fill="none" xmlns="http://www.w3.org/2000/svg">
<g id="pages-resize" clip-path="url(#clip0_241_9639)">
<path id="Union" fill-rule="evenodd" clip-rule="evenodd" d="M10.001 0L8.00098 2L6.00098 0H10.001ZM2.00098 8L0.000976562 6V10L2.00098 8ZM16.001 6L14.001 8L16.001 10V6ZM10.001 16L8.00098 14L6.00098 16H10.001ZM11.2 12.2V7.17255H9C8.50294 7.17255 8.1 6.76961 8.1 6.27255V3.8H4.8V12.2H11.2ZM8.9 4.17221L10.9227 6.37255H9C8.94477 6.37255 8.9 6.32778 8.9 6.27255V4.17221ZM4.5 3C4.22386 3 4 3.22386 4 3.5V12.5C4 12.7761 4.22386 13 4.5 13H11.5C11.7761 13 12 12.7761 12 12.5V6.55729C12 6.43195 11.9529 6.31118 11.8681 6.21891L9.05766 3.16162C8.96298 3.05862 8.82947 3 8.68956 3H4.5Z" fill="black"/>
</g>
<defs>
<clipPath id="clip0_241_9639">
<rect width="16" height="16" fill="white"/>
</clipPath>
</defs>
</svg>
