<svg width="16" height="16" viewBox="0 0 16 16" fill="none" xmlns="http://www.w3.org/2000/svg">
<g id="pages-order-forwards" clip-path="url(#clip0_241_9287)">
<g id=".next">
<path id="Union" fill-rule="evenodd" clip-rule="evenodd" d="M13.0014 3.3999C13.3327 3.3999 13.6014 3.66853 13.6014 3.9999V11.9999C13.6014 12.3313 13.3327 12.5999 13.0014 12.5999C12.67 12.5999 12.4014 12.3313 12.4014 11.9999V8.44843L8.42563 12.4242C8.19132 12.6585 7.81142 12.6585 7.5771 12.4242C7.34279 12.1899 7.34279 11.81 7.5771 11.5756L10.5528 8.5999H3.00137C2.67 8.5999 2.40137 8.33127 2.40137 7.9999C2.40137 7.66853 2.67 7.3999 3.00137 7.3999H10.5528L7.5771 4.42417C7.34279 4.18985 7.34279 3.80995 7.5771 3.57564C7.81142 3.34132 8.19132 3.34132 8.42563 3.57564L12.4014 7.55137V3.9999C12.4014 3.66853 12.67 3.3999 13.0014 3.3999Z" fill="black"/>
</g>
</g>
<defs>
<clipPath id="clip0_241_9287">
<rect width="16" height="16" fill="white"/>
</clipPath>
</defs>
</svg>
