<svg width="16" height="16" viewBox="0 0 16 16" fill="none" xmlns="http://www.w3.org/2000/svg">
<g id="pages-move-toggle">
<path id="Union" fill-rule="evenodd" clip-rule="evenodd" d="M4.00049 1C3.44819 1 3.00047 1.44774 3.00049 2.00004L3.0006 5H0.500977C0.224834 5 0.000976562 5.22386 0.000976562 5.5V10.5C0.000976562 10.7761 0.224834 11 0.500976 11H3.00083L3.00094 14C3.00096 14.5523 3.44867 15 4.00094 15H13.0009C13.5532 15 14.001 14.5523 14.0009 13.9999L14.0005 5.70706C14.0005 5.44187 13.8951 5.18753 13.7076 5.00001L10.0005 1.29289C9.81293 1.10536 9.55858 1 9.29336 1H4.00049ZM4.00083 11L4.00094 14L13.0009 14L13.0005 6H10.1368C9.50923 6 9.00047 5.49124 9.00047 4.86364V2L4.00049 2L4.0006 5H5.50098C5.77712 5 6.00098 5.22386 6.00098 5.5V10.5C6.00098 10.7761 5.77712 11 5.50098 11H4.00083ZM12.2934 5L10.0005 2.70711V4.86364C10.0005 4.93895 10.0615 5 10.1368 5H12.2934ZM1.00098 10V6H5.00098V10H1.00098Z" fill="black"/>
<rect id="neutral" opacity="0.3" x="0.000976562" y="5" width="6" height="6" rx="0.5" fill="black"/>
</g>
</svg>
