<svg width="16" height="16" viewBox="0 0 16 16" fill="none" xmlns="http://www.w3.org/2000/svg">
<g id="page-portrait">
<path id="Union" fill-rule="evenodd" clip-rule="evenodd" d="M4.00049 1C3.44819 1 3.00047 1.44774 3.00049 2.00004L3.00094 14C3.00096 14.5523 3.44867 15 4.00094 15H12.0009C12.5532 15 13.001 14.5523 13.0009 13.9999L13.0005 5.70706C13.0005 5.44187 12.8951 5.18753 12.7076 5.00001L9.00047 1.29289C8.81293 1.10536 8.55858 1 8.29336 1H4.00049ZM8.00047 2L4.00049 2L4.00094 14L12.0009 14L12.0005 6H9.13683C8.50923 6 8.00047 5.49124 8.00047 4.86364V2ZM11.2934 5L9.00047 2.70711V4.86364C9.00047 4.93895 9.06152 5 9.13683 5H11.2934Z" fill="black"/>
</g>
</svg>
