<svg width="16" height="16" viewBox="0 0 16 16" fill="none" xmlns="http://www.w3.org/2000/svg">
<g id="page-landscape">
<path id="Union" fill-rule="evenodd" clip-rule="evenodd" d="M2.00098 3C1.44869 3 1.00098 3.44772 1.00098 4V12C1.00098 12.5523 1.44869 13 2.00098 13H14.001C14.5533 13 15.001 12.5523 15.001 12V7.70712C15.001 7.44189 14.8956 7.18751 14.708 6.99997L11.0005 3.29285C10.8129 3.10534 10.5586 3 10.2934 3H2.00098ZM10.0005 4L2.00098 4V12H14.001V8H11.1368C10.5093 8 10.0005 7.49124 10.0005 6.86364V4ZM13.2938 7L11.0005 4.707V6.86364C11.0005 6.93895 11.0615 7 11.1368 7H13.2938Z" fill="black"/>
</g>
</svg>
