<svg width="16" height="16" viewBox="0 0 16 16" fill="none" xmlns="http://www.w3.org/2000/svg">
<g id="paint-pattern">
<path id="Union" fill-rule="evenodd" clip-rule="evenodd" d="M13.5 2H2.5C2.22386 2 2 2.22386 2 2.5V13.5C2 13.7761 2.22386 14 2.5 14H13.5C13.7761 14 14 13.7761 14 13.5V2.5C14 2.22386 13.7761 2 13.5 2ZM2.5 1C1.67157 1 1 1.67157 1 2.5V13.5C1 14.3284 1.67157 15 2.5 15H13.5C14.3284 15 15 14.3284 15 13.5V2.5C15 1.67157 14.3284 1 13.5 1H2.5Z" fill="black"/>
<path id="Intersect" opacity="0.5" fill-rule="evenodd" clip-rule="evenodd" d="M2 2H5V5H2V2ZM8 5H5V8H2V11H5V14H8V11H11V14H14V11H11V8H14V5H11V2H8V5ZM8 8H11V5H8V8ZM8 8V11H5V8H8Z" fill="black"/>
</g>
</svg>
