<svg width="16" height="16" viewBox="0 0 16 16" fill="none" xmlns="http://www.w3.org/2000/svg">
<g id="paint-order-smf">
<path id="Subtract" fill-rule="evenodd" clip-rule="evenodd" d="M7 4C6.60603 4 6.21593 4.0776 5.85195 4.22836C5.48797 4.37913 5.15726 4.6001 4.87868 4.87868C4.6001 5.15726 4.37913 5.48797 4.22836 5.85195C4.0776 6.21593 4 6.60603 4 7C4 7.79565 4.31607 8.55871 4.87868 9.12132C5.44129 9.68393 6.20435 10 7 10V15H6V11.899C5.04656 11.7044 4.16285 11.2339 3.46447 10.5355C2.52678 9.59785 2 8.32608 2 7C2 6.34339 2.12933 5.69321 2.3806 5.08658C2.63188 4.47996 3.00017 3.92876 3.46447 3.46447C3.92876 3.00017 4.47996 2.63188 5.08658 2.3806C5.69321 2.12933 6.34339 2 7 2C7.65661 2 8.30679 2.12933 8.91342 2.3806C9.52005 2.63188 10.0712 3.00017 10.5355 3.46447C10.9998 3.92876 11.3681 4.47995 11.6194 5.08658C11.7418 5.38215 11.8353 5.68805 11.899 6H15V7H10C10 6.60603 9.9224 6.21593 9.77164 5.85195C9.62088 5.48797 9.3999 5.15726 9.12132 4.87868C8.84274 4.6001 8.51203 4.37913 8.14805 4.22836C7.78407 4.0776 7.39397 4 7 4Z" fill="black"/>
<path id="shape" opacity="0.3" d="M7 7H15V15H7V7Z" fill="black"/>
</g>
</svg>
