<svg width="16" height="16" viewBox="0 0 16 16" fill="none" xmlns="http://www.w3.org/2000/svg">
<g id="paint-swatch">
<path id="Subtract" opacity="0.5" fill-rule="evenodd" clip-rule="evenodd" d="M15.001 14L15.001 9C15.001 8.44772 14.5533 8 14.001 8H12.4152C12.15 8 11.8956 8.10536 11.7081 8.29289L7.00098 13V15L14.001 15C14.5533 15 15.001 14.5523 15.001 14Z" fill="black"/>
<path id="Subtract_2" opacity="0.25" fill-rule="evenodd" clip-rule="evenodd" d="M11.1846 1.70744C10.7941 1.31692 10.161 1.31692 9.77043 1.70744L8.00098 3.4769V13.3764L14.7202 6.65719C15.1107 6.26667 15.1107 5.6335 14.7202 5.24298L11.1846 1.70744Z" fill="black"/>
<path id="Union" fill-rule="evenodd" clip-rule="evenodd" d="M2 2H7V14H2L2 2ZM1 2C1 1.44772 1.44772 1 2 1H7C7.55228 1 8 1.44772 8 2V12.001L8.00098 12V11.8769L14.011 5.94521L10.4777 2.41412L8.00098 4.89083V3.47662L9.77058 1.70702C10.161 1.31658 10.794 1.31648 11.1846 1.7068L14.7179 5.23788C15.1104 5.63018 15.1084 6.26709 14.7134 6.65693L13.3526 8H14.001C14.5533 8 15.001 8.44772 15.001 9V14C15.001 14.5523 14.5533 15 14.001 15H8H7.00098H7H2C1.44772 15 1 14.5523 1 14V2ZM8 14H14.001V9H12.4152L8 13.4152V14ZM4.5 12.5C5.05228 12.5 5.5 12.0523 5.5 11.5C5.5 10.9477 5.05228 10.5 4.5 10.5C3.94772 10.5 3.5 10.9477 3.5 11.5C3.5 12.0523 3.94772 12.5 4.5 12.5Z" fill="black"/>
</g>
</svg>
