<svg width="16" height="16" viewBox="0 0 16 16" fill="none" xmlns="http://www.w3.org/2000/svg">
<g id="paint-gradient-linear">
<g id="illustrated">
<mask id="mask0_241_9728" style="mask-type:alpha" maskUnits="userSpaceOnUse" x="1" y="1" width="14" height="14">
<rect id="rectangle" x="1" y="1" width="14" height="14" rx="1" fill="#D9D9D9"/>
</mask>
<g mask="url(#mask0_241_9728)">
<rect id="rectangle_2" opacity="0.55" x="2" y="2" width="1" height="12" fill="black"/>
<rect id="rectangle_3" opacity="0.5" x="3" y="2" width="1" height="12" fill="black"/>
<rect id="rectangle_4" opacity="0.45" x="4" y="2" width="1" height="12" fill="black"/>
<rect id="rectangle_5" opacity="0.4" x="5" y="2" width="1" height="12" fill="black"/>
<rect id="rectangle_6" opacity="0.35" x="6" y="2" width="1" height="12" fill="black"/>
<rect id="rectangle_7" opacity="0.3" x="7" y="2" width="1" height="12" fill="black"/>
<rect id="rectangle_8" opacity="0.25" x="8" y="2" width="1" height="12" fill="black"/>
<rect id="rectangle_9" opacity="0.2" x="9" y="2" width="1" height="12" fill="black"/>
<rect id="rectangle_10" opacity="0.15" x="10" y="2" width="1" height="12" fill="black"/>
<rect id="rectangle_11" opacity="0.1" x="11" y="2" width="1" height="12" fill="black"/>
<rect id="rectangle_12" opacity="0.05" x="12" y="2" width="1" height="12" fill="black"/>
</g>
</g>
<path id="Union" fill-rule="evenodd" clip-rule="evenodd" d="M14 2H2V14H14V2ZM2 1C1.44772 1 1 1.44772 1 2V14C1 14.5523 1.44772 15 2 15H14C14.5523 15 15 14.5523 15 14V2C15 1.44772 14.5523 1 14 1H2Z" fill="black"/>
</g>
</svg>
