<svg width="16" height="16" viewBox="0 0 16 16" fill="none" xmlns="http://www.w3.org/2000/svg">
<g id="paint-order-fsm">
<path id="shape" opacity="0.3" d="M7 15V12L10 10L11 7H15V15H7Z" fill="black"/>
<path id="Union" fill-rule="evenodd" clip-rule="evenodd" d="M5.85195 4.22836C6.21593 4.0776 6.60603 4 7 4C7.39397 4 7.78407 4.0776 8.14805 4.22836C8.51203 4.37913 8.84274 4.6001 9.12132 4.87868C9.3999 5.15726 9.62088 5.48797 9.77164 5.85195C9.9224 6.21593 10 6.60603 10 7C10 7.39397 9.9224 7.78407 9.77164 8.14805C9.62088 8.51203 9.3999 8.84274 9.12132 9.12132C8.84274 9.3999 8.51203 9.62087 8.14805 9.77164C7.78407 9.9224 7.39397 10 7 10C6.20435 10 5.44129 9.68393 4.87868 9.12132C4.31607 8.55871 4 7.79565 4 7C4 6.60603 4.0776 6.21593 4.22836 5.85195C4.37913 5.48797 4.6001 5.15726 4.87868 4.87868C5.15726 4.6001 5.48797 4.37913 5.85195 4.22836ZM7 2C6.34339 2 5.69321 2.12933 5.08658 2.3806C4.47996 2.63188 3.92876 3.00017 3.46447 3.46447C3.00017 3.92876 2.63188 4.47996 2.3806 5.08658C2.12933 5.69321 2 6.34339 2 7C2 8.32608 2.52678 9.59785 3.46447 10.5355C4.16285 11.2339 5.04656 11.7044 6 11.899V15H8V11.899C8.31195 11.8353 8.61785 11.7418 8.91342 11.6194C9.52005 11.3681 10.0712 10.9998 10.5355 10.5355C10.9998 10.0712 11.3681 9.52005 11.6194 8.91342C11.7418 8.61785 11.8353 8.31195 11.899 8H15V6H11.899C11.8353 5.68805 11.7418 5.38215 11.6194 5.08658C11.3681 4.47995 10.9998 3.92876 10.5355 3.46447C10.0712 3.00017 9.52005 2.63188 8.91342 2.3806C8.30679 2.12933 7.65661 2 7 2Z" fill="black"/>
</g>
</svg>
