<svg width="16" height="16" viewBox="0 0 16 16" fill="none" xmlns="http://www.w3.org/2000/svg">
<g id="paint-gradient-mesh">
<path id="Union" fill-rule="evenodd" clip-rule="evenodd" d="M13.5 2H2.5C2.22386 2 2 2.22386 2 2.5V13.5C2 13.7761 2.22386 14 2.5 14H13.5C13.7761 14 14 13.7761 14 13.5V2.5C14 2.22386 13.7761 2 13.5 2ZM2.5 1C1.67157 1 1 1.67157 1 2.5V13.5C1 14.3284 1.67157 15 2.5 15H13.5C14.3284 15 15 14.3284 15 13.5V2.5C15 1.67157 14.3284 1 13.5 1H2.5Z" fill="black"/>
<g id="Group 275" opacity="0.5">
<path id="Subtract" opacity="0.7" fill-rule="evenodd" clip-rule="evenodd" d="M2 11.6076V14H4.39241C3.41312 13.4099 2.59008 12.5869 2 11.6076ZM11.6076 14H14V11.6076C13.4099 12.5869 12.5869 13.4099 11.6076 14ZM14 4.39241V2H11.6076C12.5869 2.59008 13.4099 3.41312 14 4.39241ZM4.39241 2H2V4.39241C2.59008 3.41313 3.41313 2.59008 4.39241 2Z" fill="black"/>
<path id="Subtract_2" opacity="0.55" fill-rule="evenodd" clip-rule="evenodd" d="M8 1C4.13401 1 1 4.13401 1 8C1 11.866 4.13401 15 8 15C11.866 15 15 11.866 15 8C15 4.13401 11.866 1 8 1ZM8 2C4.68629 2 2 4.68629 2 8C2 11.3137 4.68629 14 8 14C11.3137 14 14 11.3137 14 8C14 4.68629 11.3137 2 8 2Z" fill="black"/>
<path id="Subtract_3" opacity="0.4" fill-rule="evenodd" clip-rule="evenodd" d="M8 2C4.68629 2 2 4.68629 2 8C2 11.3137 4.68629 14 8 14C11.3137 14 14 11.3137 14 8C14 4.68629 11.3137 2 8 2ZM8 3C5.23858 3 3 5.23858 3 8C3 10.7614 5.23858 13 8 13C10.7614 13 13 10.7614 13 8C13 5.23858 10.7614 3 8 3Z" fill="black"/>
<path id="Subtract_4" opacity="0.25" fill-rule="evenodd" clip-rule="evenodd" d="M8 3C5.23858 3 3 5.23858 3 8C3 10.7614 5.23858 13 8 13C10.7614 13 13 10.7614 13 8C13 5.23858 10.7614 3 8 3ZM8 4C5.79086 4 4 5.79086 4 8C4 10.2091 5.79086 12 8 12C10.2091 12 12 10.2091 12 8C12 5.79086 10.2091 4 8 4Z" fill="black"/>
<path id="Subtract_5" opacity="0.1" fill-rule="evenodd" clip-rule="evenodd" d="M8 4C5.79086 4 4 5.79086 4 8C4 10.2091 5.79086 12 8 12C10.2091 12 12 10.2091 12 8C12 5.79086 10.2091 4 8 4ZM8 5C6.34315 5 5 6.34315 5 8C5 9.65685 6.34315 11 8 11C9.65685 11 11 9.65685 11 8C11 6.34315 9.65685 5 8 5Z" fill="black"/>
</g>
<path id="Intersect" fill-rule="evenodd" clip-rule="evenodd" d="M9.5 2H6.5L7.5 3V6L7.29289 6.20711L6.20711 7.29289L6 7.5H3L2 6.5V9.5L3 8.5H6L6.20711 8.70711L7.29289 9.79289L7.5 10V13L6.5 14H9.5L8.5 13V10L8.70711 9.79289L9.79289 8.70711L10 8.5H13L14 9.5V6.5L13 7.5H10L9.79289 7.29289L8.70711 6.20711L8.5 6V3L9.5 2ZM13.5 2H14V2.5L13.5 2ZM14 13.5L13.5 14H14V13.5ZM2.5 14L2 13.5V14H2.5ZM2 2.5L2.5 2H2V2.5ZM8 9.08579L6.91421 8L8 6.91421L9.08579 8L8 9.08579Z" fill="black"/>
</g>
</svg>
