<svg width="16" height="16" viewBox="0 0 16 16" fill="none" xmlns="http://www.w3.org/2000/svg">
<g id="paint-unknown">
<rect id="color / fill" x="1" y="1" width="14" height="14" rx="1.5" fill="black" fill-opacity="0.07"/>
<path id="Union" fill-rule="evenodd" clip-rule="evenodd" d="M2.5 2H13.5C13.7761 2 14 2.22386 14 2.5V13.5C14 13.7761 13.7761 14 13.5 14H2.5C2.22386 14 2 13.7761 2 13.5V2.5C2 2.22386 2.22386 2 2.5 2ZM1 2.5C1 1.67157 1.67157 1 2.5 1H13.5C14.3284 1 15 1.67157 15 2.5V13.5C15 14.3284 14.3284 15 13.5 15H2.5C1.67157 15 1 14.3284 1 13.5V2.5ZM7 9.46875V9.60156H8.48047V9.46875C8.48307 9.21354 8.51562 8.9987 8.57813 8.82422C8.64323 8.64974 8.74089 8.49609 8.87109 8.36328C9.00391 8.23047 9.17318 8.10286 9.37891 7.98047C9.6237 7.83464 9.83594 7.67188 10.0156 7.49219C10.1953 7.3099 10.3346 7.10156 10.4336 6.86719C10.5352 6.63021 10.5859 6.35937 10.5859 6.05469C10.5859 5.59896 10.4727 5.20964 10.2461 4.88672C10.0195 4.5638 9.70703 4.31771 9.30859 4.14844C8.91016 3.97656 8.45182 3.89062 7.93359 3.89062C7.46224 3.89062 7.03125 3.97526 6.64062 4.14453C6.25 4.3112 5.9362 4.5651 5.69922 4.90625C5.46224 5.24479 5.33724 5.67448 5.32422 6.19531H6.91797C6.92578 5.98177 6.97786 5.80339 7.07422 5.66016C7.17057 5.51432 7.29427 5.40495 7.44531 5.33203C7.59635 5.25651 7.75651 5.21875 7.92578 5.21875C8.10026 5.21875 8.25911 5.25521 8.40234 5.32812C8.54818 5.40104 8.66406 5.50521 8.75 5.64062C8.83594 5.77604 8.87891 5.93359 8.87891 6.11328C8.87891 6.28255 8.84115 6.4362 8.76562 6.57422C8.6901 6.70964 8.58854 6.83333 8.46094 6.94531C8.33333 7.05729 8.1888 7.16536 8.02734 7.26953C7.8112 7.40495 7.6263 7.55599 7.47266 7.72266C7.31901 7.88932 7.20182 8.10807 7.12109 8.37891C7.04297 8.64974 7.0026 9.01302 7 9.46875ZM7.10547 11.8281C7.29036 12.0104 7.51302 12.1016 7.77344 12.1016C7.9401 12.1016 8.09375 12.0599 8.23438 11.9766C8.375 11.8906 8.48828 11.7773 8.57422 11.6367C8.66276 11.4935 8.70833 11.3359 8.71094 11.1641C8.70833 10.9089 8.61328 10.6901 8.42578 10.5078C8.23828 10.3255 8.02083 10.2344 7.77344 10.2344C7.51302 10.2344 7.29036 10.3255 7.10547 10.5078C6.92318 10.6901 6.83333 10.9089 6.83594 11.1641C6.83333 11.4219 6.92318 11.6432 7.10547 11.8281Z" fill="black"/>
</g>
</svg>
