<svg width="16" height="16" viewBox="0 0 16 16" fill="none" xmlns="http://www.w3.org/2000/svg">
<g id="path-simplify">
<path id="Union" fill-rule="evenodd" clip-rule="evenodd" d="M3.32996 3.30308C3.69147 1.91732 5.7129 2.0966 5.82488 3.52434L6.04338 6.31031C6.26497 9.13549 10.2738 9.47042 10.9611 6.72117L11.1274 6.05574C11.3756 5.06302 12.778 5.03965 13.0591 6.02355L13.2455 6.67589C13.4694 7.45968 14.1858 8.00005 15.001 8.00005C15.2771 8.00005 15.501 7.7762 15.501 7.50005C15.501 7.22391 15.2771 7.00005 15.001 7.00005C14.6323 7.00005 14.3083 6.75566 14.207 6.40117L14.0206 5.74883C13.4584 3.78103 10.6537 3.82776 10.1573 5.8132L9.99094 6.47864C9.57856 8.12818 7.17327 7.92723 7.04032 6.23212L6.82181 3.44615C6.62166 0.894155 3.0085 0.573727 2.36235 3.05066C2.21647 3.60986 1.71143 4.00005 1.13351 4.00005H1.00098C0.724834 4.00005 0.500977 4.22391 0.500977 4.50005C0.500977 4.7762 0.724834 5.00005 1.00098 5.00005H1.13351C2.16649 5.00005 3.06922 4.30261 3.32996 3.30308ZM1.50098 12.2501C1.08676 12.2501 0.750977 12.5858 0.750977 13.0001C0.750977 13.4143 1.08676 13.7501 1.50098 13.7501H14.501C14.9152 13.7501 15.251 13.4143 15.251 13.0001C15.251 12.5858 14.9152 12.2501 14.501 12.2501H1.50098Z" fill="black"/>
</g>
</svg>
