<svg width="16" height="16" viewBox="0 0 16 16" fill="none" xmlns="http://www.w3.org/2000/svg">
<g id="path-union" clip-path="url(#clip0_241_9276)">
<path id="neutral" opacity="0.3" fill-rule="evenodd" clip-rule="evenodd" d="M1 0.5C0.723858 0.5 0.5 0.723858 0.5 1V10C0.5 10.2761 0.723858 10.5 1 10.5H4.52242C4.77504 13.3033 7.13098 15.5 10 15.5C13.0376 15.5 15.5 13.0376 15.5 10C15.5 7.13098 13.3033 4.77504 10.5 4.52242V1C10.5 0.723858 10.2761 0.5 10 0.5H1Z" fill="black"/>
<path id="Union" fill-rule="evenodd" clip-rule="evenodd" d="M0 1C0 0.447716 0.447715 0 1 0H10C10.5523 0 11 0.447715 11 1V4.08303C13.8379 4.55933 16 7.02692 16 10C16 13.3137 13.3137 16 10 16C7.02692 16 4.55933 13.8379 4.08303 11H1C0.447715 11 0 10.5523 0 10V1ZM10 1L1 1V10H4.52242H4.97939L5.0204 10.4551C5.25001 13.003 7.39207 15 10 15C12.7614 15 15 12.7614 15 10C15 7.39207 13.003 5.25001 10.4551 5.0204L10 4.97939V4.52242V1Z" fill="black"/>
</g>
<defs>
<clipPath id="clip0_241_9276">
<rect width="16" height="16" fill="white"/>
</clipPath>
</defs>
</svg>
