<svg width="16" height="16" viewBox="0 0 16 16" fill="none" xmlns="http://www.w3.org/2000/svg">
<g id="path-mode-polyline">
<path id="Union" fill-rule="evenodd" clip-rule="evenodd" d="M7.30352 1.48239C7.51797 1.6082 7.63261 1.85325 7.59175 2.0985L6.63708 7.82934L9.48041 9.36948L11.6094 7.54438C11.861 7.32871 12.2398 7.35782 12.4554 7.6094C12.6711 7.86098 12.642 8.23976 12.3904 8.45543L10.6103 9.98148L14.2857 11.9723C14.577 12.1302 14.6853 12.4943 14.5275 12.7857C14.3697 13.077 14.0055 13.1853 13.7141 13.0275L9.63471 10.8178L5.39139 14.4554C5.1998 14.6197 4.9259 14.6465 4.7061 14.5225C4.4863 14.3985 4.36757 14.1502 4.40904 13.9013L5.3127 8.4767L1.71414 6.52748C1.53729 6.43169 1.4202 6.25366 1.40229 6.05333C1.38438 5.853 1.46804 5.65703 1.62509 5.53138L6.62509 1.53138C6.81924 1.37607 7.08907 1.35658 7.30352 1.48239ZM5.52123 7.22492L6.15043 3.44786L3.08121 5.90324L5.52123 7.22492ZM6.42855 9.08112L5.86407 12.4696L8.50486 10.2058L6.42855 9.08112Z" fill="black"/>
</g>
</svg>
