<svg width="16" height="16" viewBox="0 0 16 16" fill="none" xmlns="http://www.w3.org/2000/svg">
<g id="path-offset-linked" clip-path="url(#clip0_241_9341)">
<g id=".accessory / lock">
<path id="Union" fill-rule="evenodd" clip-rule="evenodd" d="M12.001 2C12.001 1.44772 12.4487 1 13.001 1C13.5533 1 14.001 1.44772 14.001 2V3.5H12.001V2ZM11.001 3.5V2C11.001 0.895431 11.8964 0 13.001 0C14.1055 0 15.001 0.895431 15.001 2V3.5C15.2771 3.5 15.501 3.72386 15.501 4V6.5C15.501 6.77614 15.2771 7 15.001 7H11.001C10.7248 7 10.501 6.77614 10.501 6.5V4C10.501 3.72386 10.7248 3.5 11.001 3.5Z" fill="black"/>
</g>
<g id="path">
<mask id="mask0_241_9341" style="mask-type:alpha" maskUnits="userSpaceOnUse" x="0" y="0" width="17" height="16">
<rect id="rectangle" x="0.000976562" width="16" height="16" fill="#D9D9D9"/>
</mask>
<g mask="url(#mask0_241_9341)">
<path id="neutral" opacity="0.3" fill-rule="evenodd" clip-rule="evenodd" d="M0.000976562 29C7.18068 29 13.001 23.1797 13.001 16C13.001 8.8203 7.18068 3 0.000976562 3C-7.17873 3 -12.999 8.8203 -12.999 16C-12.999 23.1797 -7.17873 29 0.000976562 29ZM0.000976562 22C3.31469 22 6.00098 19.3137 6.00098 16C6.00098 12.6863 3.31469 10 0.000976562 10C-3.31273 10 -5.99902 12.6863 -5.99902 16C-5.99902 19.3137 -3.31273 22 0.000976562 22Z" fill="black"/>
<path id="stroke" fill-rule="evenodd" clip-rule="evenodd" d="M0.000976562 28C6.62839 28 12.001 22.6274 12.001 16C12.001 9.37258 6.62839 4 0.000976562 4C-6.62644 4 -11.999 9.37258 -11.999 16C-11.999 22.6274 -6.62644 28 0.000976562 28ZM7.00098 16C7.00098 19.866 3.86697 23 0.000976562 23C-3.86502 23 -6.99902 19.866 -6.99902 16C-6.99902 12.134 -3.86502 9 0.000976562 9C3.86697 9 7.00098 12.134 7.00098 16ZM13.001 16C13.001 23.1797 7.18068 29 0.000976562 29C-7.17873 29 -12.999 23.1797 -12.999 16C-12.999 8.8203 -7.17873 3 0.000976562 3C7.18068 3 13.001 8.8203 13.001 16ZM6.00098 16C6.00098 19.3137 3.31469 22 0.000976562 22C-3.31273 22 -5.99902 19.3137 -5.99902 16C-5.99902 12.6863 -3.31273 10 0.000976562 10C3.31469 10 6.00098 12.6863 6.00098 16Z" fill="black"/>
</g>
</g>
</g>
<defs>
<clipPath id="clip0_241_9341">
<rect width="16" height="16" fill="white"/>
</clipPath>
</defs>
</svg>
