<svg width="16" height="16" viewBox="0 0 16 16" fill="none" xmlns="http://www.w3.org/2000/svg">
<g id="path-cut" clip-path="url(#clip0_241_9532)">
<path id="Union" fill-rule="evenodd" clip-rule="evenodd" d="M4.08301 9.00008C4.50431 6.48739 6.48732 4.50416 8.9999 4.08252V5.09959C7.0407 5.49739 5.49753 7.04077 5.10005 9.00008H4.08301ZM9.99976 15.9997C7.38747 15.9997 5.16509 14.3303 4.34131 12.0001H5.41597C6.18762 13.7658 7.94959 14.9997 9.99976 14.9997C12.7612 14.9997 14.9998 12.7611 14.9998 9.99969C14.9998 7.94933 13.7656 6.18722 11.9997 5.41569V4.34106C14.3301 5.16471 15.9998 7.38721 15.9998 9.99969C15.9998 13.3134 13.3135 15.9997 9.99976 15.9997Z" fill="black"/>
<path id="Union_2" opacity="0.5" fill-rule="evenodd" clip-rule="evenodd" d="M0 1C0 0.447716 0.447715 0 1 0H10C10.5523 0 11 0.447715 11 1V10C11 10.5523 10.5523 11 10 11H1C0.447716 11 0 10.5523 0 10V1ZM10 1L1 1V10H10V1Z" fill="black"/>
</g>
<defs>
<clipPath id="clip0_241_9532">
<rect width="16" height="16" fill="white"/>
</clipPath>
</defs>
</svg>
