<svg width="16" height="16" viewBox="0 0 16 16" fill="none" xmlns="http://www.w3.org/2000/svg">
<g id="path-exclusion" clip-path="url(#clip0_241_9281)">
<path id="neutral" opacity="0.3" fill-rule="evenodd" clip-rule="evenodd" d="M0.5 1C0.5 0.723858 0.723858 0.5 1 0.5H10C10.2761 0.5 10.5 0.723858 10.5 1V4.52242C10.3353 4.50758 10.1685 4.5 10 4.5C6.96243 4.5 4.5 6.96243 4.5 10C4.5 10.1685 4.50758 10.3353 4.52242 10.5H1C0.723858 10.5 0.5 10.2761 0.5 10V1ZM10 15.5C7.13102 15.5 4.77508 13.3033 4.52246 10.5H10C10.2762 10.5 10.5 10.2762 10.5 10V4.52246C13.3033 4.77508 15.5 7.13102 15.5 10C15.5 13.0376 13.0376 15.5 10 15.5Z" fill="black"/>
<path id="Union" fill-rule="evenodd" clip-rule="evenodd" d="M1 0C0.447715 0 0 0.447716 0 1V10C0 10.5523 0.447715 11 1 11H4.02054H4.08236L4.09895 11.0903C4.61199 13.8835 7.05832 16 10 16C13.3137 16 16 13.3137 16 10C16 7.05832 13.8835 4.61199 11.0903 4.09895L11 4.08236V4.02054V1C11 0.447715 10.5523 0 10 0H1ZM10.5 4.52224L10.4589 4.51884C10.3077 4.50637 10.1546 4.5 10 4.5C6.96243 4.5 4.5 6.96243 4.5 10C4.5 10.1546 4.50637 10.3077 4.51884 10.4589L4.52224 10.5H4.59072H10.5V4.59072V4.52224ZM1 1L10 1V3.5C6.41015 3.5 3.5 6.41015 3.5 10H1V1ZM11.5 10.5V5.22879C13.5286 5.86579 15 7.76151 15 10C15 12.7615 12.7615 15 10 15C7.76151 15 5.86579 13.5286 5.22879 11.5H10.5C11.0523 11.5 11.5 11.0523 11.5 10.5Z" fill="black"/>
</g>
<defs>
<clipPath id="clip0_241_9281">
<rect width="16" height="16" fill="white"/>
</clipPath>
</defs>
</svg>
