<svg width="16" height="16" viewBox="0 0 16 16" fill="none" xmlns="http://www.w3.org/2000/svg">
<g id="path-mode-spiro" clip-path="url(#clip0_241_9346)">
<path id="Union" fill-rule="evenodd" clip-rule="evenodd" d="M8.54311 2.791C6.95498 1.20287 4.38011 1.20287 2.79198 2.791C1.20385 4.37913 1.20385 6.954 2.79198 8.54214C3.02629 8.77645 3.02629 9.15635 2.79198 9.39067C2.55766 9.62498 2.17776 9.62498 1.94345 9.39067C-0.113311 7.3339 -0.113311 3.99923 1.94345 1.94247C4.00021 -0.114288 7.33488 -0.114288 9.39164 1.94247C11.4068 3.95765 11.5913 7.2496 9.42096 9.41998C8.32205 10.5189 8.32326 12.4235 9.45027 13.5505C10.5828 14.683 12.419 14.683 13.5515 13.5505C14.684 12.418 14.684 10.5818 13.5515 9.44929C13.3172 9.21498 13.3172 8.83508 13.5515 8.60076C13.7858 8.36645 14.1657 8.36645 14.4 8.60077C16.0012 10.2019 16.0012 12.7979 14.4 14.399C12.7989 16.0002 10.2029 16.0002 8.60174 14.399C7.01475 12.812 6.99629 10.1476 8.57243 8.57145C10.2438 6.90012 10.1207 4.36855 8.54311 2.791Z" fill="black"/>
</g>
<defs>
<clipPath id="clip0_241_9346">
<rect width="16" height="16" fill="white"/>
</clipPath>
</defs>
</svg>
