<svg width="16" height="16" viewBox="0 0 16 16" fill="none" xmlns="http://www.w3.org/2000/svg">
<g id="path-split" clip-path="url(#clip0_241_9734)">
<path id="neutral" opacity="0.3" fill-rule="evenodd" clip-rule="evenodd" d="M0.833333 0C0.373096 0 0 0.373096 0 0.833333V7.16667C0 7.6269 0.373096 8 0.833333 8H7.16667C7.6269 8 8 7.6269 8 7.16667V0.833333C8 0.373096 7.6269 0 7.16667 0H0.833333ZM11.5 16C13.9853 16 16 13.9853 16 11.5C16 9.01472 13.9853 7 11.5 7C9.01472 7 7 9.01472 7 11.5C7 13.9853 9.01472 16 11.5 16Z" fill="black"/>
<path id="Union" fill-rule="evenodd" clip-rule="evenodd" d="M1 7V1H7V7H1ZM0 0.833333C0 0.373096 0.373096 0 0.833333 0H7.16667C7.6269 0 8 0.373096 8 0.833333V7.16667C8 7.6269 7.6269 8 7.16667 8H0.833333C0.373096 8 0 7.6269 0 7.16667V0.833333ZM15 11.5C15 13.433 13.433 15 11.5 15C9.567 15 8 13.433 8 11.5C8 9.567 9.567 8 11.5 8C13.433 8 15 9.567 15 11.5ZM16 11.5C16 13.9853 13.9853 16 11.5 16C9.01472 16 7 13.9853 7 11.5C7 9.01472 9.01472 7 11.5 7C13.9853 7 16 9.01472 16 11.5Z" fill="black"/>
</g>
<defs>
<clipPath id="clip0_241_9734">
<rect width="16" height="16" fill="white"/>
</clipPath>
</defs>
</svg>
