<svg width="16" height="16" viewBox="0 0 16 16" fill="none" xmlns="http://www.w3.org/2000/svg">
<g id="path-reverse" clip-path="url(#clip0_241_9354)">
<path id="Union" fill-rule="evenodd" clip-rule="evenodd" d="M3.35363 1.35355C3.54889 1.15829 3.54889 0.841709 3.35363 0.646447C3.15837 0.451184 2.84178 0.451184 2.64652 0.646447L0.646522 2.64645L0.292969 3L0.646522 3.35355L2.64652 5.35355C2.84178 5.54882 3.15837 5.54882 3.35363 5.35355C3.54889 5.15829 3.54889 4.84171 3.35363 4.64645L2.20718 3.5H12.5001C13.6046 3.5 14.5001 4.39543 14.5001 5.5C14.5001 6.60457 13.6046 7.5 12.5001 7.5H10.5003L10.2928 7.29256L8.00019 5.00055L5.70738 7.29343L5.00045 8.00038L5.00008 8L5.50008 7.5H3.50008C1.84322 7.5 0.500076 8.84315 0.500076 10.5C0.500076 12.1569 1.84322 13.5 3.50008 13.5H13.793L12.6465 14.6464C12.4513 14.8417 12.4513 15.1583 12.6465 15.3536C12.8418 15.5488 13.1584 15.5488 13.3536 15.3536L15.3536 13.3536L15.7072 13L15.3536 12.6464L13.3536 10.6464C13.1584 10.4512 12.8418 10.4512 12.6465 10.6464C12.4513 10.8417 12.4513 11.1583 12.6465 11.3536L13.793 12.5H3.50008C2.39551 12.5 1.50008 11.6046 1.50008 10.5C1.50008 9.39543 2.39551 8.5 3.50008 8.5H5.49986L5.70748 8.70757L8.00004 10.9996L10.2929 8.70668L10.9998 7.99977L11.0001 8L10.5001 8.5H12.5001C14.1569 8.5 15.5001 7.15685 15.5001 5.5C15.5001 3.84315 14.1569 2.5 12.5001 2.5H2.20718L3.35363 1.35355ZM6.41457 8.00045L8.0003 6.41467L9.58573 7.99967L7.99996 9.58544L6.41457 8.00045Z" fill="black"/>
</g>
<defs>
<clipPath id="clip0_241_9354">
<rect width="16" height="16" fill="white"/>
</clipPath>
</defs>
</svg>
