<svg width="16" height="16" viewBox="0 0 16 16" fill="none" xmlns="http://www.w3.org/2000/svg">
<g id="path-effect-parameter-next" clip-path="url(#clip0_417_4745)">
<path id="Union" fill-rule="evenodd" clip-rule="evenodd" d="M4.93358 0.885243C3.04507 -0.845605 0 0.49408 0 3.05577C0 4.46042 0.983639 5.63533 2.29968 5.92925C1.98864 6.28631 1.76854 6.72798 1.67884 7.22134C1.16855 10.0279 4.78668 11.6099 6.501 9.33324C6.62354 9.49588 6.75761 9.64029 6.90129 9.76652C7.10875 9.94878 7.42467 9.92835 7.60693 9.7209C7.78918 9.51344 7.76875 9.19752 7.5613 9.01526C7.46918 8.93433 7.38036 8.83907 7.29688 8.72776C7.22114 8.62677 7.11453 8.5626 7 8.5385V8.53216C7.00134 8.51097 7.00134 8.48975 7 8.46864V3.2204L7.1562 3.07724C7.35978 2.89067 7.37357 2.57439 7.18699 2.37081C7.00663 2.17401 6.70505 2.15457 6.50126 2.32205L4.93358 0.885243ZM6 3.21911L4.25791 1.62245C3.01083 0.479479 1 1.36414 1 3.05577C1 4.12955 1.87047 5.00003 2.94425 5.00003H4.34044H6V3.21911ZM6 6.00003H4.34044C3.51632 6.00003 2.81013 6.5894 2.66271 7.40022C2.34083 9.17053 4.62484 10.1679 5.70455 8.72851L6 8.33464V6.00003ZM12.0214 15.1465C11.8262 15.3417 11.8262 15.6583 12.0214 15.8536C12.2167 16.0488 12.5333 16.0488 12.7286 15.8536L15 13.5821V15.5C15 15.7762 15.2239 16 15.5 16C15.7761 16 16 15.7762 16 15.5V10.5C16 10.2239 15.7761 10 15.5 10C15.2239 10 15 10.2239 15 10.5V12.4179L12.7286 10.1465C12.5333 9.95119 12.2167 9.95119 12.0214 10.1465C11.8262 10.3417 11.8262 10.6583 12.0214 10.8536L13.6679 12.5H9.25C8.97386 12.5 8.75 12.7239 8.75 13C8.75 13.2762 8.97386 13.5 9.25 13.5H13.6679L12.0214 15.1465ZM10.1069 0.557791C10.1689 0.288714 10.4374 0.120898 10.7064 0.182964C11.0744 0.26783 11.4246 0.421888 11.7358 0.635758C11.9633 0.79217 12.021 1.10345 11.8646 1.33103C11.7082 1.5586 11.3969 1.61629 11.1693 1.45988C10.9616 1.3171 10.7273 1.21403 10.4817 1.15738C10.2126 1.09531 10.0448 0.826868 10.1069 0.557791ZM9.20485 0.703949C9.35091 0.938299 9.27934 1.24669 9.04499 1.39275C8.94181 1.45706 8.84077 1.53336 8.74326 1.62275L8.74322 1.62279L8.42582 1.91368C8.22224 2.10026 7.90595 2.08647 7.71938 1.88289C7.5328 1.67931 7.54659 1.36303 7.75017 1.17645L8.06753 0.8856L8.06757 0.885564C8.20992 0.755079 8.36 0.64135 8.51605 0.544091C8.7504 0.398028 9.05878 0.469598 9.20485 0.703949ZM12.3664 2.09471C12.6378 2.04402 12.899 2.22299 12.9496 2.49444C12.9834 2.67521 13.001 2.8627 13.001 3.05583C13.001 3.21139 12.9889 3.36446 12.9655 3.51407C12.9228 3.78689 12.667 3.97344 12.3942 3.93075C12.1213 3.88805 11.9348 3.63227 11.9775 3.35945C11.9929 3.26081 12.001 3.15943 12.001 3.05583C12.001 2.92354 11.989 2.7975 11.9666 2.67799C11.916 2.40653 12.0949 2.14539 12.3664 2.09471ZM12.143 4.42397C12.3388 4.61863 12.3398 4.93521 12.1452 5.13108C12.0371 5.2398 11.9206 5.34014 11.7967 5.43104C11.574 5.59436 11.2611 5.54626 11.0978 5.3236C10.9345 5.10093 10.9826 4.78803 11.2052 4.6247C11.2872 4.56458 11.3643 4.49817 11.4359 4.42617C11.6305 4.23031 11.9471 4.22932 12.143 4.42397ZM8.16081 5.49989C8.16081 5.22375 8.38466 4.99989 8.66081 4.99989C8.87356 4.99989 9.08177 5.02472 9.28222 5.07197C9.551 5.13533 9.71752 5.40458 9.65416 5.67335C9.5908 5.94213 9.32155 6.10865 9.05278 6.04529C8.92684 6.0156 8.79561 5.99989 8.66081 5.99989C8.38466 5.99989 8.16081 5.77604 8.16081 5.49989ZM10.4818 6.36408C10.7349 6.25366 11.0296 6.36934 11.14 6.62244C11.2224 6.81121 11.284 7.01162 11.3221 7.22094C11.359 7.42371 11.3741 7.62248 11.369 7.81581C11.3616 8.09185 11.1319 8.30967 10.8559 8.30232C10.5798 8.29498 10.362 8.06524 10.3693 7.7892C10.3726 7.66662 10.3631 7.53672 10.3382 7.39982C10.3141 7.2672 10.2752 7.14089 10.2234 7.0223C10.113 6.76919 10.2287 6.4745 10.4818 6.36408ZM10.377 9.18936C10.5385 9.41341 10.4877 9.72589 10.2636 9.88731C9.93872 10.1214 9.56453 10.2848 9.17197 10.364C8.90128 10.4186 8.63758 10.2434 8.58298 9.9727C8.52838 9.70201 8.70356 9.43831 8.97425 9.38371C9.22732 9.33266 9.46963 9.22686 9.67909 9.07595C9.90314 8.91453 10.2156 8.96531 10.377 9.18936Z" fill="black"/>
</g>
<defs>
<clipPath id="clip0_417_4745">
<rect width="16" height="16" fill="white"/>
</clipPath>
</defs>
</svg>
