<svg width="16" height="16" viewBox="0 0 16 16" fill="none" xmlns="http://www.w3.org/2000/svg">
<g id="path-mode-polyline-paraxial">
<path id="Union" fill-rule="evenodd" clip-rule="evenodd" d="M14.9213 0.871744C15.2083 1.03743 15.3066 1.40438 15.1409 1.69136L10.1911 10.2647L12.2394 11.4473C12.5264 11.6129 12.6247 11.9799 12.459 12.2669C12.2933 12.5538 11.9264 12.6522 11.6394 12.4865L9.59113 11.3039L7.6412 14.6813C7.56163 14.8191 7.43058 14.9197 7.27688 14.9609C7.12317 15.0021 6.95939 14.9805 6.82158 14.9009L3.23095 12.8279C3.09238 12.7479 2.99151 12.6158 2.95074 12.4611C2.90998 12.3064 2.93271 12.1418 3.01388 12.0039L4.98974 8.64732L1.2774 6.50399C0.99042 6.33831 0.892094 5.97135 1.05778 5.68438L3.55758 1.3546C3.63715 1.21679 3.7682 1.11623 3.9219 1.07504C4.07561 1.03386 4.23938 1.05542 4.3772 1.13498L8.65008 3.60193C8.78865 3.68193 8.88952 3.81397 8.93028 3.9687C8.97104 4.12343 8.94831 4.28803 8.86714 4.42592L6.63777 8.21317L9.1519 9.6647L14.1017 1.09136C14.2674 0.804385 14.6343 0.706059 14.9213 0.871744ZM8.5519 10.7039L6.02901 9.24734L4.35497 12.0912L6.90197 13.5617L8.5519 10.7039ZM5.5985 7.61315L7.52606 4.33862L4.29681 2.47421L2.39701 5.76476L5.5985 7.61315Z" fill="black"/>
</g>
</svg>
