<svg width="16" height="16" viewBox="0 0 16 16" fill="none" xmlns="http://www.w3.org/2000/svg">
<g id="path-clip-edit">
<path id="Subtract" fill-rule="evenodd" clip-rule="evenodd" d="M9 5.8477V7.48066L12.8499 2.51062C13.054 3.3969 12.8571 4.34338 12.2854 5.08246L9.4661 8.72686L9 8.15109V10.5351L10.0803 11.8695C10.0279 12.071 10 12.2825 10 12.5004C10 13.8811 11.1193 15.0004 12.5 15.0004C13.8807 15.0004 15 13.8811 15 12.5004C15 11.1197 13.8807 10.0004 12.5 10.0004C11.9097 10.0004 11.3673 10.2049 10.9396 10.547L10.1126 9.52548L13.0763 5.69434C14.0342 4.45614 14.1981 2.77868 13.4981 1.37848C13.3098 1.00194 12.7929 0.951272 12.5351 1.28407L9 5.8477ZM3.54345 15H3.45654C3.471 15.0002 3.48548 15.0004 3.5 15.0004C3.51451 15.0004 3.52899 15.0002 3.54345 15ZM12.5 13.5004C13.0523 13.5004 13.5 13.0527 13.5 12.5004C13.5 11.9481 13.0523 11.5004 12.5 11.5004C11.9477 11.5004 11.5 11.9481 11.5 12.5004C11.5 13.0527 11.9477 13.5004 12.5 13.5004Z" fill="black"/>
<path id="Intersect" fill-rule="evenodd" clip-rule="evenodd" d="M1 3V13C1 13.5523 1.44772 14 2 14H6V13H2V3H6V2H2C1.44772 2 1 2.44772 1 3Z" fill="black"/>
<path class="error" fill-rule="evenodd" clip-rule="evenodd" d="M7.5 0C7.77614 0 8 0.223858 8 0.5V15.5C8 15.7761 7.77614 16 7.5 16C7.22386 16 7 15.7761 7 15.5V0.5C7 0.223858 7.22386 0 7.5 0Z" fill="black"/>
</g>
</svg>
