<svg width="16" height="16" viewBox="0 0 16 16" fill="none" xmlns="http://www.w3.org/2000/svg">
<g id="path-flatten" clip-path="url(#clip0_241_9671)">
<path id="neutral" opacity="0.3" fill-rule="evenodd" clip-rule="evenodd" d="M1 0.5C0.723858 0.5 0.5 0.723858 0.5 1V9C0.5 9.27614 0.723858 9.5 1 9.5H9.5V1C9.5 0.723858 9.27614 0.5 9 0.5H1ZM10 15.5002C7.48244 15.5002 5.35996 13.8087 4.70703 11.5002H11.3C11.4105 11.5002 11.5 11.4107 11.5 11.3002V4.70728C13.8085 5.3602 15.5 7.48269 15.5 10.0002C15.5 13.0378 13.0376 15.5002 10 15.5002Z" fill="black"/>
<path id="Union" fill-rule="evenodd" clip-rule="evenodd" d="M1 0C0.447715 0 0 0.447716 0 1V9C0 9.55229 0.447716 10 1 10H9.5H10V9.5V1C10 0.447715 9.55228 0 9 0H1ZM1 1L9 1V9H1V1ZM11.6361 4.22615L11 4.04624V4.70728V11.0002H4.70703H4.046L4.2259 11.6363C4.93812 14.1544 7.25285 16.0002 10 16.0002C13.3137 16.0002 16 13.314 16 10.0002C16 7.2531 14.1542 4.93836 11.6361 4.22615ZM12 11.3002V5.41613C13.7662 6.18777 15 7.95044 15 10.0002C15 12.7617 12.7614 15.0002 10 15.0002C7.95019 15.0002 6.18752 13.7664 5.41588 12.0002H11.3C11.6866 12.0002 12 11.6868 12 11.3002Z" fill="black"/>
</g>
<defs>
<clipPath id="clip0_241_9671">
<rect width="16" height="16" fill="white"/>
</clipPath>
</defs>
</svg>
