<svg width="16" height="16" viewBox="0 0 16 16" fill="none" xmlns="http://www.w3.org/2000/svg">
<g id="path-tweak-attract">
<path id="Union" fill-rule="evenodd" clip-rule="evenodd" d="M1.00088 1.8999C0.669508 1.8999 0.400879 2.16853 0.400879 2.4999C0.400879 2.83127 0.669508 3.0999 1.00088 3.0999H2.05661C2.58444 3.0999 3.10502 3.2228 3.57713 3.45885L5.9437 4.64213C7.23872 5.28964 8.76303 5.28964 10.0581 4.64213L12.4246 3.45885C12.8967 3.2228 13.4173 3.0999 13.9452 3.0999H15.0009C15.3323 3.0999 15.6009 2.83127 15.6009 2.4999C15.6009 2.16853 15.3323 1.8999 15.0009 1.8999H13.9452C13.231 1.8999 12.5267 2.06617 11.888 2.38554L9.52141 3.56882C8.56421 4.04742 7.43754 4.04741 6.48035 3.56882L4.11379 2.38554C3.47505 2.06617 2.77073 1.8999 2.05661 1.8999H1.00088ZM1.00088 14.0999C0.669508 14.0999 0.400879 13.8313 0.400879 13.4999C0.400879 13.1685 0.669508 12.8999 1.00088 12.8999H2.05661C2.58444 12.8999 3.10502 12.777 3.57713 12.541L5.9437 11.3577C7.23872 10.7102 8.76303 10.7102 10.0581 11.3577L12.4246 12.541C12.8967 12.777 13.4173 12.8999 13.9452 12.8999H15.0009C15.3323 12.8999 15.6009 13.1685 15.6009 13.4999C15.6009 13.8313 15.3323 14.0999 15.0009 14.0999H13.9452C13.231 14.0999 12.5267 13.9336 11.888 13.6143L9.52141 12.431C8.56421 11.9524 7.43754 11.9524 6.48035 12.431L4.11379 13.6143C3.47505 13.9336 2.77073 14.0999 2.05661 14.0999H1.00088Z" fill="black"/>
</g>
</svg>
