<svg width="16" height="16" viewBox="0 0 16 16" fill="none" xmlns="http://www.w3.org/2000/svg">
<g id="path-mode-bezier" clip-path="url(#clip0_241_9542)">
<path id="Union" fill-rule="evenodd" clip-rule="evenodd" d="M12.2939 0.707107L13.001 0L13.7081 0.707107L15.2939 2.29289L16.001 3L15.2939 3.70711L13.7081 5.29289L13.001 6L12.2939 5.29289L10.7656 3.76462C7.31447 4.59699 4.59797 7.3135 3.76559 10.7646L5.29387 12.2929L6.00098 13L5.29387 13.7071L3.70808 15.2929L3.00098 16L2.29387 15.2929L0.708083 13.7071L0.000976562 13L0.708083 12.2929L2.29387 10.7071L2.50098 10.5V3.91465C1.91838 3.70873 1.50098 3.15311 1.50098 2.5C1.50098 1.67157 2.17255 1 3.00098 1C3.8294 1 4.50098 1.67157 4.50098 2.5C4.50098 3.15311 4.08357 3.70873 3.50098 3.91465V8.52238C4.77762 5.81855 7.17456 3.74748 10.0929 2.90804L10.7081 2.29289L12.2939 0.707107ZM11.4152 3L13.001 4.58579L14.5868 3L13.001 1.41421L11.4152 3ZM1.41519 13L3.00098 14.5858L4.58676 13L3.00098 11.4142L1.41519 13Z" fill="black"/>
</g>
<defs>
<clipPath id="clip0_241_9542">
<rect width="16" height="16" fill="white"/>
</clipPath>
</defs>
</svg>
