<svg width="16" height="16" viewBox="0 0 16 16" fill="none" xmlns="http://www.w3.org/2000/svg">
<g id="path-mask-edit" clip-path="url(#clip0_241_9539)">
<path id="Subtract" fill-rule="evenodd" clip-rule="evenodd" d="M14.501 9.75671V3C14.501 3 11.2273 1.5 9.00098 1.5V10.5C9.00099 10.5 9.00101 10.5 9.00103 10.5C10.0716 10.5 11.0167 10.0553 11.7237 9.58397C11.9534 9.4308 12.2639 9.49289 12.4171 9.72265C12.5702 9.95241 12.5081 10.2628 12.2784 10.416C11.4854 10.9447 10.3457 11.5 9.00103 11.5C9.00101 11.5 9.00099 11.5 9.00098 11.5V14.5C9.00098 14.5 10.9096 13.955 12.5916 13.164C13.8829 12.5567 14.501 11.1837 14.501 9.75671ZM11.1584 6.56609C11.0801 6.60523 10.9957 6.67242 10.9001 6.8C10.7344 7.02091 10.421 7.06569 10.2001 6.9C9.97914 6.73432 9.93437 6.42092 10.1001 6.2C10.2665 5.97801 10.4642 5.79503 10.7116 5.67148C10.9589 5.54794 11.2239 5.49978 11.5014 5.5C11.7784 5.50022 12.0429 5.54858 12.2898 5.67212C12.5366 5.79566 12.7339 5.9784 12.9001 6.2C13.0657 6.42092 13.021 6.73432 12.8001 6.9C12.5791 7.06569 12.2657 7.02091 12.1001 6.8C12.0045 6.67258 11.9204 6.60549 11.8422 6.56637C11.764 6.52725 11.6599 6.50012 11.5006 6.5C11.3412 6.49988 11.2368 6.52694 11.1584 6.56609Z" fill="black"/>
<path id="Union" fill-rule="evenodd" clip-rule="evenodd" d="M3.51864 1.68834C4.27228 1.44113 5.15411 1.19731 6 1.07715V2.08825C5.28835 2.2014 4.52573 2.41042 3.83033 2.63853C3.04023 2.8977 2.36644 3.17143 2.00098 3.32699V9.75671C2.00098 11.0564 2.56013 12.2116 3.62312 12.7115C4.441 13.0962 5.31967 13.4234 5.99821 13.6555L6 13.6561V14.7111C5.89805 14.6774 5.78918 14.6409 5.67458 14.6017C4.97829 14.3636 4.06164 14.0228 3.19754 13.6164C1.67788 12.9018 1.00098 11.311 1.00098 9.75671V3.06418C1.00098 2.84377 1.12355 2.62053 1.35389 2.5179C1.5833 2.41569 2.44757 2.03968 3.51864 1.68834ZM4.15912 6.56623C4.08085 6.60536 3.99663 6.6725 3.90101 6.8C3.73532 7.02091 3.42192 7.06569 3.20101 6.9C2.98009 6.73431 2.93532 6.42091 3.10101 6.2C3.26735 5.9782 3.46482 5.79534 3.71191 5.6718C3.95899 5.54826 4.22376 5.5 4.50101 5.5C4.77825 5.5 5.04302 5.54826 5.29011 5.6718C5.53719 5.79534 5.73466 5.9782 5.90101 6.2C6.06669 6.42091 6.02192 6.73431 5.80101 6.9C5.58009 7.06569 5.26669 7.02091 5.10101 6.8C5.00538 6.6725 4.92116 6.60536 4.84289 6.56623C4.76462 6.52709 4.66038 6.5 4.50101 6.5C4.34163 6.5 4.23739 6.52709 4.15912 6.56623ZM6.00008 10.3733C5.34086 10.2079 4.75543 9.90204 4.27841 9.58403C4.04864 9.43085 3.73821 9.49294 3.58503 9.7227C3.43186 9.95247 3.49394 10.2629 3.72371 10.4161C4.31136 10.8078 5.08935 11.2142 6.00008 11.3984V10.3733Z" fill="black"/>
<path id="Subtract_2" fill-rule="evenodd" clip-rule="evenodd" d="M9 15.0197L9.00098 15.02L9.13826 14.9808L9.00098 14.5L9.13835 14.9808L9.13849 14.9807L9.13889 14.9806L9.14022 14.9802L9.14493 14.9789L9.16244 14.9738L9.2284 14.9544C9.28559 14.9375 9.36859 14.9125 9.47319 14.8802C9.68231 14.8155 9.97824 14.7211 10.3274 14.6017C11.0237 14.3636 11.9403 14.0228 12.8044 13.6164C14.3241 12.9018 15.001 11.311 15.001 9.75671V3.06418C15.001 2.84377 14.8784 2.62053 14.6481 2.51791C14.4187 2.41569 13.5544 2.03968 12.4833 1.68834C11.4239 1.34082 10.1111 1 9.00098 1C9.00065 1 9.00033 1 9 1V2C9.00033 2 9.00065 2 9.00098 2C9.94552 2 11.1335 2.29799 12.1716 2.63853C12.9617 2.8977 13.6355 3.17143 14.001 3.32699V9.75671C14.001 11.0564 13.4418 12.2116 12.3788 12.7115C11.561 13.0962 10.6823 13.4234 10.0037 13.6555C9.66547 13.7712 9.3791 13.8626 9.17779 13.9248C9.10817 13.9463 9.04877 13.9644 9.00098 13.9787C9.00065 13.9786 9.00033 13.9785 9 13.9784V14.5034V15.0197Z" fill="black"/>
<path class="error" fill-rule="evenodd" clip-rule="evenodd" d="M7.5 0C7.77614 0 8 0.223858 8 0.5V15.5C8 15.7761 7.77614 16 7.5 16C7.22386 16 7 15.7761 7 15.5V0.5C7 0.223858 7.22386 0 7.5 0Z" fill="black"/>
</g>
<defs>
<clipPath id="clip0_241_9539">
<rect width="16" height="16" fill="white"/>
</clipPath>
</defs>
</svg>
