<svg width="16" height="16" viewBox="0 0 16 16" fill="none" xmlns="http://www.w3.org/2000/svg">
<g id="path-break-apart" clip-path="url(#clip0_241_9284)">
<path id="Union" fill-rule="evenodd" clip-rule="evenodd" d="M2 1C1.44771 1 1 1.44772 1 2V10C1 10.5523 1.44772 11 2 11H10C10.5523 11 11 10.5523 11 10V2C11 1.44771 10.5523 1 10 1H2ZM2 2L10 2V10H2V2ZM5.20703 12.0001C5.85996 14.3086 7.98244 16.0001 10.5 16.0001C13.5376 16.0001 16 13.5376 16 10.5001C16 7.98242 14.3084 5.85988 11.9998 5.20703V6.25604C13.7477 6.87373 15 8.54065 15 10.5001C15 12.9853 12.9853 15.0001 10.5 15.0001C8.54067 15.0001 6.87381 13.7479 6.25606 12.0001H5.20703ZM9 5.2071C7.16844 5.72522 5.72532 7.16841 5.20728 9H6.2563C6.7082 7.72146 7.72149 6.70812 9 6.25615V5.2071Z" fill="black"/>
</g>
<defs>
<clipPath id="clip0_241_9284">
<rect width="16" height="16" fill="white"/>
</clipPath>
</defs>
</svg>
