<svg width="16" height="16" viewBox="0 0 16 16" fill="none" xmlns="http://www.w3.org/2000/svg">
<g id="path-difference" clip-path="url(#clip0_241_9529)">
<path id="neutral" opacity="0.3" fill-rule="evenodd" clip-rule="evenodd" d="M4.52246 10.5C4.77508 13.3033 7.13102 15.5 10 15.5C13.0376 15.5 15.5 13.0376 15.5 10C15.5 7.13102 13.3033 4.77508 10.5 4.52246V10.5H4.52246Z" fill="black"/>
<path id="Union" opacity="0.3" fill-rule="evenodd" clip-rule="evenodd" d="M0 1C0 0.447716 0.447715 0 1 0H10C10.5523 0 11 0.447715 11 1V10.5V11H10.5H1C0.447716 11 0 10.5523 0 10V1ZM10 1L1 1V10H10V1Z" fill="black"/>
<path id="Union_2" fill-rule="evenodd" clip-rule="evenodd" d="M10.0247 4L10.5695 4.0491C13.6282 4.32473 16.0247 6.89455 16.0247 10.0247C16.0247 13.3384 13.3384 16.0247 10.0247 16.0247C6.89455 16.0247 4.32473 13.6282 4.0491 10.5695L4 10.0247H4.54708H10.0247V4.54708V4ZM11.0247 5.1246V10.5247V11.0247H10.5247H5.1246C5.58769 13.3067 7.60579 15.0247 10.0247 15.0247C12.7861 15.0247 15.0247 12.7861 15.0247 10.0247C15.0247 7.60579 13.3067 5.58769 11.0247 5.1246Z" fill="black"/>
</g>
<defs>
<clipPath id="clip0_241_9529">
<rect width="16" height="16" fill="white"/>
</clipPath>
</defs>
</svg>
