<svg width="16" height="16" viewBox="0 0 16 16" fill="none" xmlns="http://www.w3.org/2000/svg">
<g id="path-mode-bspline">
<path id="Union" fill-rule="evenodd" clip-rule="evenodd" d="M1.24146 1.50009C1.24146 1.35671 1.35769 1.24048 1.50107 1.24048H14.7501C14.8935 1.24048 15.0097 1.35671 15.0097 1.50009C15.0097 1.64348 14.8935 1.75971 14.7501 1.75971H1.76069V14.7501C1.76069 14.8935 1.64445 15.0097 1.50107 15.0097C1.35769 15.0097 1.24146 14.8935 1.24146 14.7501V1.50009Z" fill="black"/>
<path id="Union_2" fill-rule="evenodd" clip-rule="evenodd" d="M14.5011 3.60015C8.48122 3.60015 3.60112 8.48024 3.60112 14.5001C3.60112 14.8315 3.33249 15.1001 3.00112 15.1001C2.66975 15.1001 2.40112 14.8315 2.40112 14.5001C2.40112 7.8175 7.81848 2.40015 14.5011 2.40015C14.8325 2.40015 15.1011 2.66878 15.1011 3.00015C15.1011 3.33152 14.8325 3.60015 14.5011 3.60015Z" fill="black"/>
</g>
</svg>
