<svg width="16" height="16" viewBox="0 0 16 16" fill="none" xmlns="http://www.w3.org/2000/svg">
<g id="perspective-parallel">
<path id="Union" fill-rule="evenodd" clip-rule="evenodd" d="M8.21679 1.72052C8.3386 1.32462 8.11642 0.904935 7.72052 0.783121C7.32462 0.661307 6.90494 0.883494 6.78312 1.27939L2.78312 14.2794C2.66131 14.6753 2.88349 15.095 3.27939 15.2168C3.67529 15.3386 4.09498 15.1164 4.21679 14.7205L8.21679 1.72052ZM13.2168 1.72052C13.3386 1.32462 13.1164 0.904935 12.7205 0.783121C12.3246 0.661307 11.9049 0.883494 11.7831 1.27939L7.78312 14.2794C7.66131 14.6753 7.88349 15.095 8.27939 15.2168C8.67529 15.3386 9.09497 15.1164 9.21679 14.7205L13.2168 1.72052Z" fill="black"/>
</g>
</svg>
