<svg width="16" height="16" viewBox="0 0 16 16" fill="none" xmlns="http://www.w3.org/2000/svg">
<g id="perspective-envelope" clip-path="url(#clip0_241_9351)">
<path class="warning" d="M7.50098 3.5L9.00098 6.5L13.001 7.5L10.001 8.5L11.501 12L8.00098 10L3.50098 13L5.50098 8L3.00098 5.5L6.50098 6L7.50098 3.5Z" fill="#9E9E9E"/>
<path id="Union" fill-rule="evenodd" clip-rule="evenodd" d="M2.50008 0.292969L2.85363 0.646522L4.25537 2.04827L11.8477 3.94634L13.1475 2.64652L13.5011 2.29297L13.8546 2.64652L15.3546 4.14652L15.7082 4.50008L15.3546 4.85363L14.0011 6.20718V9.79297L15.3546 11.1465L15.7082 11.5001L15.3546 11.8536L13.8546 13.3536L13.5011 13.7072L13.1475 13.3536L11.8477 12.0538L4.25537 13.9519L2.85363 15.3536L2.50008 15.7072L2.14652 15.3536L0.646522 13.8536L0.292969 13.5001L0.646522 13.1465L2.00105 11.792V4.20816L0.646522 2.85363L0.292969 2.50008L0.646522 2.14652L2.14652 0.646522L2.50008 0.292969ZM3.00105 4.20621V11.7939L4.15365 12.9465L11.7454 11.0486L13.0011 9.79297V6.20718L11.7454 4.95156L4.15365 3.05361L3.00105 4.20621ZM1.70718 2.50008L2.50008 3.29297L3.29297 2.50008L2.50008 1.70718L1.70718 2.50008ZM12.7082 4.50008L13.5011 5.29297L14.2939 4.50008L13.5011 3.70718L12.7082 4.50008ZM2.50008 14.293L1.70718 13.5001L2.50008 12.7072L3.29297 13.5001L2.50008 14.293ZM12.7082 11.5001L13.5011 12.293L14.2939 11.5001L13.5011 10.7072L12.7082 11.5001Z" fill="black"/>
</g>
<defs>
<clipPath id="clip0_241_9351">
<rect width="16" height="16" fill="white"/>
</clipPath>
</defs>
</svg>
