<svg width="16" height="16" viewBox="0 0 16 16" fill="none" xmlns="http://www.w3.org/2000/svg">
<g id="play">
<path id="Union" fill-rule="evenodd" clip-rule="evenodd" d="M2.00098 8C2.00098 4.68629 4.68727 2 8.00098 2C11.3147 2 14.001 4.68629 14.001 8C14.001 11.3137 11.3147 14 8.00098 14C4.68727 14 2.00098 11.3137 2.00098 8ZM8.00098 1C4.13498 1 1.00098 4.13401 1.00098 8C1.00098 11.866 4.13498 15 8.00098 15C11.867 15 15.001 11.866 15.001 8C15.001 4.13401 11.867 1 8.00098 1ZM6.75098 11.0311L11.251 8.43301C11.5843 8.24056 11.5843 7.75944 11.251 7.56699L6.75098 4.96891C6.41764 4.77646 6.00098 5.01702 6.00098 5.40192L6.00098 10.5981C6.00098 10.983 6.41764 11.2235 6.75098 11.0311Z" fill="black"/>
</g>
</svg>
