<svg width="16" height="16" viewBox="0 0 16 16" fill="none" xmlns="http://www.w3.org/2000/svg">
<g id="powerstroke" clip-path="url(#clip0_241_9339)">
<path class="warning" fill-rule="evenodd" clip-rule="evenodd" d="M6.50098 0C9.50098 0 11.001 2.5 11.001 6V10C11.001 12.5 12.501 14 15.001 14V16H9.50098C6.50098 16 5.00098 13.5 5.00098 10V6C5.00098 3.5 3.50098 2 1.00098 2V0H6.50098ZM8.00098 10C9.10555 10 10.001 9.10457 10.001 8C10.001 6.89543 9.10555 6 8.00098 6C6.89641 6 6.00098 6.89543 6.00098 8C6.00098 9.10457 6.89641 10 8.00098 10Z" fill="#9E9E9E"/>
<path id="Union" fill-rule="evenodd" clip-rule="evenodd" d="M4.00098 1.5H1.00098V0.5H4.00098C6.48626 0.5 8.50098 2.51472 8.50098 5V6.06301C9.36359 6.28503 10.001 7.06808 10.001 8C10.001 8.93192 9.36359 9.71497 8.50098 9.93699V11C8.50098 12.933 10.068 14.5 12.001 14.5H15.001V15.5H12.001C9.5157 15.5 7.50098 13.4853 7.50098 11V9.93699C6.63836 9.71497 6.00098 8.93192 6.00098 8C6.00098 7.06808 6.63836 6.28503 7.50098 6.06301V5C7.50098 3.067 5.93397 1.5 4.00098 1.5ZM9.00098 8C9.00098 8.55228 8.55326 9 8.00098 9C7.44869 9 7.00098 8.55228 7.00098 8C7.00098 7.44772 7.44869 7 8.00098 7C8.55326 7 9.00098 7.44772 9.00098 8Z" fill="black"/>
<path id="Vector 489" d="M16.001 8L14.001 6V10L16.001 8Z" fill="black"/>
<path id="Vector 490" d="M0.000976562 8L2.00098 6V10L0.000976562 8Z" fill="black"/>
</g>
<defs>
<clipPath id="clip0_241_9339">
<rect width="16" height="16" fill="white"/>
</clipPath>
</defs>
</svg>
