<svg width="16" height="16" viewBox="0 0 16 16" fill="none" xmlns="http://www.w3.org/2000/svg">
<g id="powermask">
<path class="warning" fill-rule="evenodd" clip-rule="evenodd" d="M13.501 9.75671V3C13.501 3 10.2273 1.5 8.00098 1.5V10.5C8.00099 10.5 8.00101 10.5 8.00103 10.5C9.07159 10.5 10.0167 10.0553 10.7237 9.58397C10.9534 9.4308 11.2639 9.49289 11.4171 9.72265C11.5702 9.95241 11.5081 10.2628 11.2784 10.416C10.4854 10.9447 9.34573 11.5 8.00103 11.5C8.00101 11.5 8.00099 11.5 8.00098 11.5V14.5C8.00098 14.5 9.90965 13.955 11.5916 13.164C12.8829 12.5567 13.501 11.1837 13.501 9.75671ZM10.1584 6.56609C10.0801 6.60523 9.99574 6.67242 9.90005 6.8C9.73437 7.02091 9.42097 7.06569 9.20005 6.9C8.97914 6.73432 8.93437 6.42092 9.10005 6.2C9.26655 5.97801 9.46424 5.79503 9.71157 5.67148C9.95889 5.54794 10.2239 5.49978 10.5014 5.5C10.7784 5.50022 11.0429 5.54858 11.2898 5.67212C11.5366 5.79566 11.7339 5.9784 11.9001 6.2C12.0657 6.42092 12.021 6.73432 11.8001 6.9C11.5791 7.06569 11.2657 7.02091 11.1001 6.8C11.0045 6.67258 10.9204 6.60549 10.8422 6.56637C10.764 6.52725 10.6599 6.50012 10.5006 6.5C10.3412 6.49988 10.2368 6.52694 10.1584 6.56609Z" fill="#505050"/>
<path id="Union" fill-rule="evenodd" clip-rule="evenodd" d="M4.51864 1.68834C5.57777 1.34092 6.89007 1.0002 8 1V2C7.05561 2.00021 5.86812 2.29811 4.83033 2.63853C4.04023 2.8977 3.36644 3.17143 3.00098 3.32699V9.75671C3.00098 11.0564 3.56013 12.2116 4.62312 12.7115C5.441 13.0962 6.31967 13.4234 6.99821 13.6555C7.33648 13.7712 7.62285 13.8626 7.82417 13.9248C7.89331 13.9462 7.95237 13.9641 8 13.9784V14.5034L7.8636 14.9808L7.86347 14.9807L7.86306 14.9806L7.86173 14.9802L7.85702 14.9789L7.83951 14.9738L7.77355 14.9544C7.71636 14.9375 7.63337 14.9125 7.52877 14.8802C7.31964 14.8155 7.02372 14.7211 6.67458 14.6017C5.97829 14.3636 5.06164 14.0228 4.19754 13.6164C2.67788 12.9018 2.00098 11.311 2.00098 9.75671V3.06418C2.00098 2.84377 2.12355 2.62053 2.35389 2.51791C2.5833 2.41569 3.44757 2.03968 4.51864 1.68834ZM8 14.5034V15.0197L7.8637 14.9808L8 14.5034ZM5.15912 6.56626C5.08085 6.60539 4.99663 6.67253 4.90101 6.80003C4.73532 7.02094 4.42192 7.06571 4.20101 6.90003C3.98009 6.73434 3.93532 6.42094 4.10101 6.20003C4.26735 5.97823 4.46482 5.79537 4.71191 5.67183C4.95899 5.54829 5.22376 5.50003 5.50101 5.50003C5.77825 5.50003 6.04302 5.54829 6.29011 5.67183C6.53719 5.79537 6.73466 5.97823 6.90101 6.20003C7.06669 6.42094 7.02192 6.73434 6.80101 6.90003C6.58009 7.06571 6.26669 7.02094 6.10101 6.80003C6.00538 6.67253 5.92116 6.60539 5.84289 6.56626C5.76462 6.52712 5.66038 6.50003 5.50101 6.50003C5.34163 6.50003 5.23739 6.52712 5.15912 6.56626ZM8.00008 10.5001C6.92993 10.4998 5.98517 10.0552 5.27841 9.58406C5.04864 9.43088 4.73821 9.49297 4.58503 9.72273C4.43186 9.9525 4.49394 10.2629 4.72371 10.4161C5.51654 10.9447 6.6558 11.4998 8.00008 11.5001V10.5001Z" fill="black"/>
<path id="Subtract" fill-rule="evenodd" clip-rule="evenodd" d="M8 15.0197L8.00098 15.02L8.13826 14.9808L8.00098 14.5L8.13835 14.9808L8.13849 14.9807L8.13889 14.9806L8.14022 14.9802L8.14493 14.9789L8.16244 14.9738L8.2284 14.9544C8.28559 14.9375 8.36859 14.9125 8.47319 14.8802C8.68231 14.8155 8.97824 14.7211 9.32738 14.6017C10.0237 14.3636 10.9403 14.0228 11.8044 13.6164C13.3241 12.9018 14.001 11.311 14.001 9.75671V3.06418C14.001 2.84377 13.8784 2.62053 13.6481 2.51791C13.4187 2.41569 12.5544 2.03968 11.4833 1.68834C10.4239 1.34082 9.11111 1 8.00098 1C8.00065 1 8.00033 1 8 1V2C8.00033 2 8.00065 2 8.00098 2C8.94552 2 10.1335 2.29799 11.1716 2.63853C11.9617 2.8977 12.6355 3.17143 13.001 3.32699V9.75671C13.001 11.0564 12.4418 12.2116 11.3788 12.7115C10.561 13.0962 9.68229 13.4234 9.00374 13.6555C8.66547 13.7712 8.3791 13.8626 8.17779 13.9248C8.10817 13.9463 8.04877 13.9644 8.00098 13.9787C8.00065 13.9786 8.00033 13.9785 8 13.9784V14.5034V15.0197Z" fill="black"/>
</g>
</svg>
