<svg width="16" height="16" viewBox="0 0 16 16" fill="none" xmlns="http://www.w3.org/2000/svg">
<g id="powerclip">
<path id="rectangle" d="M8 2H13C13.5523 2 14 2.44772 14 3V13C14 13.5523 13.5523 14 13 14H8V2Z" fill="#949494"/>
<path id="Union" fill-rule="evenodd" clip-rule="evenodd" d="M8 0.5C8 0.223858 8.22385 0 8.5 0C8.77614 0 9 0.223858 9 0.5V15.5C9 15.7761 8.77614 16 8.5 16C8.22385 16 8 15.7761 8 15.5L8 9.29978L5.91973 11.8695C5.97212 12.071 6 12.2825 6 12.5004C6 13.8811 4.88071 15.0004 3.5 15.0004C2.11929 15.0004 1 13.8811 1 12.5004C1 11.1197 2.11929 10.0004 3.5 10.0004C4.09026 10.0004 4.63275 10.2049 5.06043 10.547L5.8874 9.52548L2.92365 5.69434C1.96579 4.45614 1.80188 2.77868 2.50193 1.37848C2.69019 1.00194 3.20712 0.951272 3.46491 1.28407L8 7.13864V0.5ZM12.5242 15.0003C12.5306 15.0002 12.537 15.0001 12.5435 15H12.4565C12.471 15.0002 12.4855 15.0004 12.5 15.0004C12.5081 15.0004 12.5162 15.0003 12.5242 15.0003ZM3.1501 2.51062C2.94597 3.3969 3.14285 4.34338 3.71461 5.08246L6.5339 8.72686L7.26539 7.82326L3.1501 2.51062ZM2.5 12.5004C2.5 13.0527 2.94772 13.5004 3.5 13.5004C4.05228 13.5004 4.5 13.0527 4.5 12.5004C4.5 11.9481 4.05228 11.5004 3.5 11.5004C2.94772 11.5004 2.5 11.9481 2.5 12.5004Z" fill="black"/>
</g>
</svg>
