<svg width="16" height="16" viewBox="0 0 16 16" fill="none" xmlns="http://www.w3.org/2000/svg">
<g id="preferences-system">
<path id="Union" fill-rule="evenodd" clip-rule="evenodd" d="M4.90322 1.76054C5.40529 1.59144 5.94248 1.5 6.5 1.5C9.26142 1.5 11.5 3.73858 11.5 6.5C11.5 7.14408 11.378 7.76063 11.1555 8.32709L13.4142 10.5858C14.1953 11.3668 14.1953 12.6332 13.4142 13.4142C12.6332 14.1953 11.3668 14.1953 10.5858 13.4142L8.32709 11.1555C7.76063 11.378 7.14408 11.5 6.5 11.5C3.73858 11.5 1.5 9.26142 1.5 6.5C1.5 5.94248 1.59144 5.40529 1.76054 4.90322L2.01786 4.13918L2.58794 4.70926L5.58579 7.70711L7.70711 5.58579L4.70926 2.58794L4.13918 2.01786L4.90322 1.76054ZM6.05947 2.52394L8.76777 5.23223L9.12132 5.58579L8.76777 5.93934L5.93934 8.76777L5.58579 9.12132L5.23223 8.76777L2.52394 6.05947C2.50812 6.20404 2.5 6.35101 2.5 6.5C2.5 8.70914 4.29086 10.5 6.5 10.5C7.11844 10.5 7.70278 10.36 8.22429 10.1104L8.54347 9.95768L8.79368 10.2079L11.2929 12.7071C11.6834 13.0976 12.3166 13.0976 12.7071 12.7071C13.0976 12.3166 13.0976 11.6834 12.7071 11.2929L10.2079 8.79368L9.95768 8.54347L10.1104 8.22429C10.36 7.70278 10.5 7.11844 10.5 6.5C10.5 4.29086 8.70914 2.5 6.5 2.5C6.35101 2.5 6.20404 2.50812 6.05947 2.52394Z" fill="black"/>
</g>
</svg>
