<svg width="16" height="16" viewBox="0 0 16 16" fill="none" xmlns="http://www.w3.org/2000/svg">
<g id="pts2ellipse">
<path class="warning" fill-rule="evenodd" clip-rule="evenodd" d="M13.4214 3.48034C13.3096 3.81137 13.0855 4.0906 12.7944 4.27269C13.698 5.25269 14.2499 6.56188 14.2499 8C14.2499 9.43812 13.698 10.7473 12.7944 11.7273C13.0855 11.9094 13.3096 12.1886 13.4214 12.5197C14.5534 11.3499 15.2499 9.75631 15.2499 8C15.2499 6.24369 14.5534 4.65007 13.4214 3.48034ZM10.9857 14.1053C10.7359 13.876 10.5641 13.563 10.5146 13.2108C9.9607 13.3983 9.36719 13.5 8.74994 13.5C6.17626 13.5 4.01546 11.7322 3.41551 9.3447C3.21497 9.44412 2.989 9.5 2.74994 9.5C2.63484 9.5 2.52278 9.48705 2.41513 9.46252C3.07862 12.3481 5.66297 14.5 8.74994 14.5C9.53553 14.5 10.2886 14.3606 10.9857 14.1053ZM2.41513 6.53748C3.07862 3.65191 5.66297 1.5 8.74994 1.5C9.53553 1.5 10.2886 1.63937 10.9857 1.89473C10.7359 2.12405 10.5641 2.43697 10.5146 2.78921C9.9607 2.60168 9.36719 2.5 8.74994 2.5C6.17626 2.5 4.01546 4.26775 3.4155 6.6553C3.21497 6.55588 2.989 6.5 2.74994 6.5C2.63484 6.5 2.52278 6.51295 2.41513 6.53748Z" fill="#9E9E9E"/>
<path id="Union" fill-rule="evenodd" clip-rule="evenodd" d="M12 4C12.5523 4 13 3.55228 13 3C13 2.44772 12.5523 2 12 2C11.4477 2 11 2.44772 11 3C11 3.55228 11.4477 4 12 4ZM12 5C13.1046 5 14 4.10457 14 3C14 1.89543 13.1046 1 12 1C10.8954 1 10 1.89543 10 3C10 4.10457 10.8954 5 12 5ZM2.75 9C3.30228 9 3.75 8.55228 3.75 8C3.75 7.44772 3.30228 7 2.75 7C2.19772 7 1.75 7.44772 1.75 8C1.75 8.55228 2.19772 9 2.75 9ZM2.75 10C3.85457 10 4.75 9.10457 4.75 8C4.75 6.89543 3.85457 6 2.75 6C1.64543 6 0.75 6.89543 0.75 8C0.75 9.10457 1.64543 10 2.75 10ZM13 13C13 13.5523 12.5523 14 12 14C11.4477 14 11 13.5523 11 13C11 12.4477 11.4477 12 12 12C12.5523 12 13 12.4477 13 13ZM14 13C14 14.1046 13.1046 15 12 15C10.8954 15 10 14.1046 10 13C10 11.8954 10.8954 11 12 11C13.1046 11 14 11.8954 14 13Z" fill="black"/>
</g>
</svg>
