<svg width="16" height="16" viewBox="0 0 16 16" fill="none" xmlns="http://www.w3.org/2000/svg">
<g id="randomize">
<path id="Intersect" fill-rule="evenodd" clip-rule="evenodd" d="M14.3332 12.3768C14.3043 12.3961 14.2746 12.4145 14.2442 12.4319L8.74419 15.5747C8.28304 15.8383 7.71692 15.8383 7.25577 15.5747L1.75577 12.4319C1.72164 12.4124 1.68845 12.3916 1.65627 12.3698C1.24386 11.9951 1.00119 11.4596 1.00117 10.8895L1.00098 4.81577C1.01979 4.29869 1.30429 3.82611 1.75577 3.56812L7.25577 0.425262C7.26562 0.419637 7.27551 0.414131 7.28545 0.408746C7.75331 0.269684 8.25247 0.270659 8.71989 0.411671C8.72802 0.416121 8.73612 0.420651 8.74419 0.425262L14.2442 3.56812C14.7116 3.83518 15 4.3322 15 4.87048V10.886C15 11.4614 14.7527 12.0017 14.3332 12.3768ZM7.24789 1.50608C7.71194 1.23821 8.28363 1.23821 8.74768 1.50608L13.4974 4.24781L13.0367 4.51402L7.99778 7.42272L2.49792 4.24796L7.24789 1.50608ZM14 5.11264L13.536 5.38048L8.50583 8.28747L8.50562 14.6382L13.5003 11.7518C13.8095 11.5731 14 11.2431 14 10.886V5.11264ZM8.88387 4.69173C9.37202 4.44765 9.37202 4.05192 8.88387 3.80785C8.39571 3.56377 7.60425 3.56377 7.1161 3.80785C6.62794 4.05192 6.62794 4.44765 7.1161 4.69173C7.60425 4.93581 8.39571 4.93581 8.88387 4.69173ZM2.00099 5.11587L2.00117 10.8894C2.00118 11.2467 2.19176 11.5768 2.50113 11.7554L7.50093 14.6423L7.50073 8.29147L2.00099 5.11587ZM5.55003 11.7852C5.55005 12.2635 5.88584 12.8451 6.30006 13.0843C6.71427 13.3234 7.05005 13.1296 7.05003 12.6513C7.05002 12.173 6.71422 11.5914 6.3 11.3522C5.88579 11.1131 5.55002 11.3069 5.55003 11.7852ZM3.20997 8.30401C2.79576 8.06485 2.45996 7.48324 2.45994 7.00495C2.45993 6.52665 2.7957 6.3328 3.20992 6.57196C3.62413 6.81112 3.95993 7.39273 3.95994 7.87102C3.95996 8.34932 3.62418 8.54317 3.20997 8.30401ZM4.05003 9.39557C4.05005 9.87387 4.38584 10.4555 4.80006 10.6946C5.21427 10.9338 5.55005 10.7399 5.55003 10.2616C5.55002 9.78335 5.21422 9.20174 4.8 8.96258C4.38579 8.72342 4.05002 8.91728 4.05003 9.39557ZM11.345 8.49488C11.3449 9.05277 11.7367 9.27888 12.2199 8.99993C12.7032 8.72097 13.0949 8.04257 13.095 7.48468C13.095 6.92679 12.7032 6.70067 12.22 6.97963C11.7367 7.25859 11.345 7.93699 11.345 8.49488ZM10.3 12.7714C9.81675 13.0504 9.42501 12.8243 9.42503 12.2664C9.42505 11.7085 9.81681 11.0301 10.3001 10.7511C10.7833 10.4722 11.175 10.6983 11.175 11.2562C11.175 11.8141 10.7832 12.4925 10.3 12.7714Z" fill="black"/>
</g>
</svg>
