<svg width="16" height="16" viewBox="0 0 16 16" fill="none" xmlns="http://www.w3.org/2000/svg">
<g id="rectangle-make-corners-sharp">
<path id="Union" fill-rule="evenodd" clip-rule="evenodd" d="M13.9811 3.92119C13.8301 3.97229 13.6683 4 13.5 4C13.3247 4 13.1564 3.96992 13 3.91465C12.5738 3.76401 12.236 3.42621 12.0854 3C12.0831 2.99372 12.081 2.98741 12.0788 2.98109C12.0277 2.83008 12 2.66827 12 2.5C12 2.32468 12.0301 2.15639 12.0854 2C12.2913 1.4174 12.8469 1 13.5 1C14.3284 1 15 1.67157 15 2.5C15 3.15311 14.5826 3.70873 14 3.91465C13.9937 3.91687 13.9874 3.91905 13.9811 3.92119ZM14 4.94999C15.1411 4.71836 16 3.70948 16 2.5C16 1.11929 14.8807 0 13.5 0C12.2905 0 11.2816 0.85888 11.05 2H1.5C1.22386 2 1 2.22386 1 2.5C1 2.77614 1.22386 3 1.5 3H11.05C11.2488 3.97957 12.0204 4.75115 13 4.94999V14.5C13 14.7761 13.2239 15 13.5 15C13.7761 15 14 14.7761 14 14.5V4.94999Z" fill="black"/>
</g>
</svg>
