<svg width="16" height="16" viewBox="0 0 16 16" fill="none" xmlns="http://www.w3.org/2000/svg">
<g id="reset-settings" clip-path="url(#clip0_241_9574)">
<path id="Union" fill-rule="evenodd" clip-rule="evenodd" d="M3.5 8C3.5 5.51472 5.51472 3.5 8 3.5C10.4853 3.5 12.5 5.51472 12.5 8V8.84367L10.8536 7.19723C10.6583 7.00197 10.3417 7.00197 10.1464 7.19723C9.95118 7.39249 9.95118 7.70907 10.1464 7.90433L12.6464 10.4043L13 10.7579L13.3536 10.4043L15.8536 7.90433C16.0488 7.70907 16.0488 7.39249 15.8536 7.19723C15.6583 7.00197 15.3417 7.00197 15.1464 7.19723L13.5 8.84367V8C13.5 4.96243 11.0376 2.5 8 2.5C4.96243 2.5 2.5 4.96243 2.5 8C2.5 11.0376 4.96243 13.5 8 13.5C9.18353 13.5 10.2811 13.1256 11.1788 12.4888C11.404 12.3291 11.4571 12.017 11.2974 11.7917C11.1376 11.5665 10.8255 11.5134 10.6003 11.6732C9.86607 12.194 8.96952 12.5 8 12.5C5.51472 12.5 3.5 10.4853 3.5 8Z" fill="black"/>
</g>
<defs>
<clipPath id="clip0_241_9574">
<rect width="16" height="16" fill="white"/>
</clipPath>
</defs>
</svg>
