<svg width="16" height="16" viewBox="0 0 16 16" fill="none" xmlns="http://www.w3.org/2000/svg">
<g id="reset">
<path id="Union" fill-rule="evenodd" clip-rule="evenodd" d="M8.5 1C8.5 0.723858 8.27614 0.5 8 0.5C7.72386 0.5 7.5 0.723858 7.5 1V7C7.5 7.27614 7.72386 7.5 8 7.5C8.27614 7.5 8.5 7.27614 8.5 7V1ZM5.27727 3.90534C5.50706 3.75221 5.56921 3.44178 5.41608 3.21199C5.26295 2.98219 4.95253 2.92005 4.72273 3.07318C3.13262 4.1328 2.08325 5.94376 2.08325 8.00003C2.08325 11.2677 4.73223 13.9167 7.99992 13.9167C11.2676 13.9167 13.9166 11.2677 13.9166 8.00003C13.9166 5.94384 12.8673 4.13294 11.2773 3.0733C11.0475 2.92016 10.7371 2.98229 10.5839 3.21208C10.4308 3.44187 10.4929 3.7523 10.7227 3.90544C12.0463 4.78752 12.9166 6.29225 12.9166 8.00003C12.9166 10.7154 10.7153 12.9167 7.99992 12.9167C5.28452 12.9167 3.08325 10.7154 3.08325 8.00003C3.08325 6.29218 3.9536 4.78741 5.27727 3.90534Z" fill="black"/>
</g>
</svg>
