<svg width="16" height="16" viewBox="0 0 16 16" fill="none" xmlns="http://www.w3.org/2000/svg">
<g id="roughen" clip-path="url(#clip0_241_9566)">
<path class="warning" fill-rule="evenodd" clip-rule="evenodd" d="M6.49829 15.0739V0.925781C6.20208 1.02719 5.91788 1.17493 5.65669 1.36903C5.28265 1.64697 4.84552 1.83766 4.38778 1.92496C3.07997 2.17437 2.04986 3.21462 1.82977 4.52768L1.79833 4.71523C1.71951 5.18544 1.54135 5.63868 1.28064 6.03786C0.507719 7.22131 0.507719 8.77832 1.28064 9.96177C1.54135 10.361 1.71951 10.8142 1.79833 11.2844L1.82977 11.472C2.04986 12.785 3.07997 13.8253 4.38778 14.0747C4.84552 14.162 5.28265 14.3527 5.65669 14.6306C5.91788 14.8247 6.20208 14.9724 6.49829 15.0739Z" fill="#9E9E9E"/>
<path id="Union" fill-rule="evenodd" clip-rule="evenodd" d="M7.49829 0.5C7.49829 0.223858 7.72215 0 7.99829 0C8.27443 0 8.49829 0.223858 8.49829 0.5V15.5C8.49829 15.7761 8.27443 16 7.99829 16C7.72215 16 7.49829 15.7761 7.49829 15.5V0.5ZM15.0779 7.40493L15.9985 7.99905V8.00095L15.0779 8.59507L13.3433 9.71442L13.839 11.8446L14.0962 12.9497L13.0007 12.6541L11.092 12.139L10.0722 13.9717L9.5 15L9.49854 14.9974V12.9407L9.5 12.9434L10.2181 11.6528L10.5981 10.9699L11.3525 11.1735L12.7435 11.5489L12.3694 9.94107L12.2099 9.25573L12.8011 8.87419L14.1558 8L12.8011 7.12581L12.2099 6.74427L12.3694 6.05894L12.7435 4.45109L11.3525 4.82648L10.5981 5.03008L10.2181 4.34725L9.5 3.05665L9.49854 3.05928V1.00263L9.5 1L10.0722 2.02832L11.092 3.86102L13.0007 3.3459L14.0962 3.05025L13.839 4.15543L13.3433 6.28558L15.0779 7.40493Z" fill="black"/>
</g>
<defs>
<clipPath id="clip0_241_9566">
<rect width="16" height="16" fill="white"/>
</clipPath>
</defs>
</svg>
