<svg width="16" height="16" viewBox="0 0 16 16" fill="none" xmlns="http://www.w3.org/2000/svg">
<g id="rounding" clip-path="url(#clip0_241_9569)">
<circle id="Ellipse 80" cx="14.3293" cy="11.5" r="1.1" transform="rotate(-45 14.3293 11.5)" stroke="black" stroke-width="0.8"/>
<circle id="Ellipse 81" cx="11.501" cy="14.3281" r="1.1" transform="rotate(-45 11.501 14.3281)" stroke="black" stroke-width="0.8"/>
<path id="Vector 243" d="M11.4172 13.3601L11.001 7.49854" stroke="black" stroke-width="0.750114"/>
<path id="Vector 241" d="M11.1475 11.8516L7.94205 11.5602C7.55483 11.525 7.25834 11.2004 7.25834 10.8116C7.25834 10.8005 7.26783 10.7918 7.27883 10.7928L11.1475 11.1445V11.8516Z" fill="black" stroke="black" stroke-width="0.500076"/>
<path id="Vector 244" d="M11.8545 11.146L11.7692 8.38257C11.7524 7.83857 11.3654 7.37677 10.8328 7.26507C10.8134 7.26101 10.7956 7.2768 10.7974 7.29651L11.1362 11.1337L11.8545 11.146Z" fill="black" stroke="black" stroke-width="0.500076"/>
<path id="Vector 242" d="M13.3585 11.4164L7.50098 11" stroke="black" stroke-width="0.750114"/>
<path id="12" d="M3.24494 2.45455V9H2.05922V3.60831H2.02086L0.489968 4.58629V3.49964L2.11674 2.45455H3.24494ZM4.90687 9V8.14347L7.17924 5.91584C7.39657 5.69638 7.57768 5.50142 7.72257 5.33097C7.86745 5.16051 7.97612 4.99538 8.04856 4.83558C8.12101 4.67578 8.15723 4.50533 8.15723 4.32422C8.15723 4.11754 8.11035 3.9407 8.0166 3.79368C7.92285 3.64453 7.79395 3.52947 7.62988 3.44851C7.46582 3.36754 7.27939 3.32706 7.07058 3.32706C6.85538 3.32706 6.66681 3.3718 6.50488 3.46129C6.34295 3.54865 6.21724 3.6733 6.12775 3.83523C6.04039 3.99716 5.99672 4.18999 5.99672 4.41371H4.86852C4.86852 3.99822 4.96333 3.63707 5.15297 3.33026C5.3426 3.02344 5.6036 2.78587 5.93599 2.61754C6.27051 2.44922 6.65403 2.36506 7.08656 2.36506C7.52548 2.36506 7.91113 2.44709 8.24352 2.61115C8.57591 2.77521 8.83372 3 9.01696 3.28551C9.20233 3.57102 9.29501 3.89702 9.29501 4.26349C9.29501 4.50852 9.24814 4.74929 9.15439 4.9858C9.06064 5.2223 8.89551 5.48437 8.659 5.77202C8.42463 6.05966 8.09544 6.40803 7.67143 6.81712L6.54324 7.96449V8.00923H9.39409V9H4.90687Z" fill="black"/>
</g>
<defs>
<clipPath id="clip0_241_9569">
<rect width="16" height="16" fill="white"/>
</clipPath>
</defs>
</svg>
