<svg width="16" height="16" viewBox="0 0 16 16" fill="none" xmlns="http://www.w3.org/2000/svg">
<path fill-rule="evenodd" clip-rule="evenodd" d="M11.6 2C11.8209 2 12 2.17909 12 2.4V4.6C12 4.82091 11.8209 5 11.6 5L3.4 5C3.17909 5 3 4.82091 3 4.6V2.4C3 2.17909 3.17909 2 3.4 2H11.6ZM11.6 11C11.8209 11 12 11.1791 12 11.4V13.6C12 13.8209 11.8209 14 11.6 14H3.4C3.17909 14 3 13.8209 3 13.6V11.4C3 11.1791 3.17909 11 3.4 11H11.6ZM6 7L13 7V9H6L6 7ZM13.6 6C13.8209 6 14 6.17909 14 6.4V9.6C14 9.82091 13.8209 10 13.6 10H5.4C5.17909 10 5 9.82091 5 9.6V6.4C5 6.17909 5.17909 6 5.4 6H13.6Z" fill="black"/>
</svg>
