<svg width="16" height="16" viewBox="0 0 16 16" fill="none" xmlns="http://www.w3.org/2000/svg">
<g id="ruler">
<path class="warning" opacity="0.8" fill-rule="evenodd" clip-rule="evenodd" d="M15.2298 5.65572C15.5359 5.52891 15.6813 5.17793 15.5545 4.87179C15.4277 4.56564 15.0767 4.42026 14.7706 4.54707L13.2872 5.1615C13.0569 4.73358 12.7762 4.33682 12.453 3.97918L13.1324 3.29985C13.2886 3.14364 13.2886 2.89037 13.1324 2.73416C12.9761 2.57795 12.7229 2.57795 12.5667 2.73416L11.8784 3.4224C11.5592 3.15169 11.2113 2.91378 10.8399 2.71386L11.4541 1.23113C11.5809 0.924982 11.4355 0.574003 11.1294 0.447195C10.8232 0.320387 10.4722 0.465769 10.3454 0.771915L9.73145 2.25415C9.30563 2.12603 8.85987 2.04394 8.39996 2.01368L8.39996 1.50032C8.39996 1.2794 8.22088 1.10032 7.99996 1.10032C7.77905 1.10032 7.59996 1.2794 7.59996 1.50032L7.59996 2.01369L7.59996 3.51736C7.73175 3.50576 7.86516 3.49983 7.99996 3.49983C10.4852 3.49983 12.5 5.51455 12.5 7.99983C12.5 10.4851 10.4852 12.4998 7.99996 12.4998C7.86516 12.4998 7.73175 12.4939 7.59996 12.4823L7.59996 13.9874L7.59996 14.5003C7.59996 14.5006 7.59996 14.5009 7.59996 14.5012C7.60044 14.7217 7.77934 14.9003 7.99996 14.9003C8.22088 14.9003 8.39996 14.7212 8.39996 14.5003L8.39996 13.9874C8.8596 13.9572 9.3051 13.8752 9.73069 13.7472L10.3453 15.2309C10.4721 15.537 10.8231 15.6824 11.1292 15.5556C11.4354 15.4288 11.5807 15.0778 11.4539 14.7717L10.8392 13.2876C11.211 13.0876 11.5593 12.8494 11.8788 12.5784L12.5665 13.2661C12.7227 13.4223 12.9759 13.4223 13.1321 13.2661C13.2883 13.1099 13.2883 12.8566 13.1321 12.7004L12.4534 12.0216C12.7763 11.6642 13.0568 11.2677 13.287 10.84L14.7706 11.4545C15.0767 11.5814 15.4277 11.436 15.5545 11.1298C15.6813 10.8237 15.5359 10.4727 15.2298 10.3459L13.7466 9.73154C13.8747 9.3058 13.9567 8.86013 13.9869 8.40032L14.5 8.40032C14.7209 8.40032 14.9 8.22123 14.9 8.00032C14.9 7.7794 14.7209 7.60032 14.5 7.60032L13.9869 7.60032C13.9567 7.14083 13.8747 6.69548 13.7467 6.27002L15.2298 5.65572Z" fill="black"/>
<path id="Intersect" fill-rule="evenodd" clip-rule="evenodd" d="M7 2.68437C7 2.36978 6.71635 2.12933 6.41291 2.21235C3.86937 2.90821 2 5.2359 2 8.0002C2 10.7645 3.86937 13.0922 6.41291 13.7881C6.71635 13.8711 7 13.6306 7 13.316C7 13.0741 6.82859 12.8683 6.59632 12.8005C4.51819 12.1938 3 10.2743 3 8.0002C3 5.7261 4.51819 3.80659 6.59632 3.19992C6.82859 3.13212 7 2.92633 7 2.68437Z" fill="#9E9E9E"/>
</g>
</svg>
