<svg width="16" height="16" viewBox="0 0 16 16" fill="none" xmlns="http://www.w3.org/2000/svg">
<g id="scale-unlinked">
<path id="Union" fill-rule="evenodd" clip-rule="evenodd" d="M6 2H7.5V4H5C4.44772 4 4 4.44772 4 5V7.5H2L2 6H1V10H2V8.5H4V11C4 11.5523 4.44772 12 5 12H7.5V14H6V15H10V14H8.5V12H11C11.5523 12 12 11.5523 12 11V8.5H14V10H15V6H14V7.5H12V5C12 4.44772 11.5523 4 11 4H8.5V2H10V1H6V2ZM5 8.5V11H7.5H8.5H11V8.5V7.5V5H8.5H7.5H5V7.5V8.5Z" fill="black"/>
<path id="Union_2" opacity="0.3" fill-rule="evenodd" clip-rule="evenodd" d="M2 2L4 2V1H2C1.44772 1 1 1.44772 1 2V4H2L2 2ZM14.0001 1H12.0001V2H14.0001V4H15.0001V2C15.0001 1.44772 14.5524 1 14.0001 1ZM15 14V12H14V14H12V15H14C14.5523 15 15 14.5523 15 14ZM2.00011 12V14H4.00011V15H2.00011C1.44783 15 1.00011 14.5523 1.00011 14V12H2.00011Z" fill="black"/>
</g>
</svg>
