<svg width="16" height="16" viewBox="0 0 16 16" fill="none" xmlns="http://www.w3.org/2000/svg">
<g id="scale-linked">
<path id="Union" fill-rule="evenodd" clip-rule="evenodd" d="M11 5H5V11H11V5ZM5 4C4.44772 4 4 4.44772 4 5V11C4 11.5523 4.44772 12 5 12H11C11.5523 12 12 11.5523 12 11V5C12 4.44772 11.5523 4 11 4H5Z" fill="black"/>
<path id="Union_2" opacity="0.3" fill-rule="evenodd" clip-rule="evenodd" d="M4.5 2C4.77614 2 5 1.77614 5 1.5C5 1.22386 4.77614 1 4.5 1H2C1.44772 1 1 1.44772 1 2V4.5C1 4.77614 1.22386 5 1.5 5C1.77614 5 2 4.77614 2 4.5L2 2H4.5ZM11.5001 1C11.224 1 11.0001 1.22386 11.0001 1.5C11.0001 1.77614 11.224 2 11.5001 2H14.0001V4.5C14.0001 4.77614 14.224 5 14.5001 5C14.7763 5 15.0001 4.77614 15.0001 4.5V2C15.0001 1.44772 14.5524 1 14.0001 1H11.5001ZM15 11.5C15 11.2239 14.7761 11 14.5 11C14.2239 11 14 11.2239 14 11.5V14H11.5C11.2239 14 11 14.2239 11 14.5C11 14.7761 11.2239 15 11.5 15H14C14.5523 15 15 14.5523 15 14V11.5ZM1.50011 11C1.77625 11 2.00011 11.2239 2.00011 11.5V14H4.50011C4.77625 14 5.00011 14.2239 5.00011 14.5C5.00011 14.7761 4.77625 15 4.50011 15H2.00011C1.44783 15 1.00011 14.5523 1.00011 14V11.5C1.00011 11.2239 1.22397 11 1.50011 11ZM6.5 1.5C6.5 1.22386 6.72386 1 7 1H9C9.27614 1 9.5 1.22386 9.5 1.5C9.5 1.77614 9.27614 2 9 2H7C6.72386 2 6.5 1.77614 6.5 1.5ZM15 7C15 6.72386 14.7761 6.5 14.5 6.5C14.2239 6.5 14 6.72386 14 7V9C14 9.27614 14.2239 9.5 14.5 9.5C14.7761 9.5 15 9.27614 15 9V7ZM6.5 14.5C6.5 14.2239 6.72386 14 7 14H9C9.27614 14 9.5 14.2239 9.5 14.5C9.5 14.7761 9.27614 15 9 15H7C6.72386 15 6.5 14.7761 6.5 14.5ZM2 7C2 6.72386 1.77614 6.5 1.5 6.5C1.22386 6.5 1 6.72386 1 7V9C1 9.27614 1.22386 9.5 1.5 9.5C1.77614 9.5 2 9.27614 2 9L2 7Z" fill="black"/>
</g>
</svg>
