<svg width="16" height="16" viewBox="0 0 16 16" fill="none" xmlns="http://www.w3.org/2000/svg">
<g id="selection-bottom">
<path id="Union" fill-rule="evenodd" clip-rule="evenodd" d="M1.25 2C1.25 1.58579 1.58579 1.25 2 1.25H8C8.41421 1.25 8.75 1.58579 8.75 2C8.75 2.41421 8.41421 2.75 8 2.75H2C1.58579 2.75 1.25 2.41421 1.25 2ZM12 9.29289V5.5C12 5.22386 12.2239 5 12.5 5C12.7761 5 13 5.22386 13 5.5V9.29289L14.1464 8.14645C14.3417 7.95118 14.6583 7.95118 14.8536 8.14645C15.0488 8.34171 15.0488 8.65829 14.8536 8.85355L12.8536 10.8536L12.5 11.2071L12.1464 10.8536L10.1464 8.85355C9.95118 8.65829 9.95118 8.34171 10.1464 8.14645C10.3417 7.95118 10.6583 7.95118 10.8536 8.14645L12 9.29289ZM2 5.25C1.58579 5.25 1.25 5.58579 1.25 6C1.25 6.41421 1.58579 6.75 2 6.75H8C8.41421 6.75 8.75 6.41421 8.75 6C8.75 5.58579 8.41421 5.25 8 5.25H2ZM1.25 10C1.25 9.58579 1.58579 9.25 2 9.25H8C8.41421 9.25 8.75 9.58579 8.75 10C8.75 10.4142 8.41421 10.75 8 10.75H2C1.58579 10.75 1.25 10.4142 1.25 10ZM2.5 15H13.5C13.7761 15 14 14.7761 14 14.5C14 14.2239 13.7761 14 13.5 14H2.5C2.22386 14 2 14.2239 2 14.5C2 14.7761 2.22386 15 2.5 15ZM1 14.5C1 15.3284 1.67157 16 2.5 16H13.5C14.3284 16 15 15.3284 15 14.5C15 13.6716 14.3284 13 13.5 13H2.5C1.67157 13 1 13.6716 1 14.5Z" fill="black"/>
<path id="neutral" opacity="0.3" d="M1 14.5C1 15.3284 1.67157 16 2.5 16H13.5C14.3284 16 15 15.3284 15 14.5C15 13.6716 14.3284 13 13.5 13H2.5C1.67157 13 1 13.6716 1 14.5Z" fill="black"/>
</g>
</svg>
