<svg width="16" height="16" viewBox="0 0 16 16" fill="none" xmlns="http://www.w3.org/2000/svg">
<g id="selection-move-to-layer">
<path id="Vector 57" d="M8 8L14.5 8" stroke="black" stroke-linecap="round"/>
<path id="Vector 58" d="M13 6L15 8L13 10" stroke="black" stroke-linecap="round"/>
<path id="Subtract" opacity="0.5" fill-rule="evenodd" clip-rule="evenodd" d="M1.73686 9.08412L2.00183 8.66011L2.26681 8.23609L1.88687 7.99866L2.26681 7.76123L2.00183 7.33721L1.73686 6.9132L0.678369 7.57467C0.365023 7.77049 0.365023 8.22683 0.678369 8.42265L1.73686 9.08412ZM3.41315 6.45525L3.14817 6.03123L5.26514 4.70829L5.53012 5.1323L5.7951 5.55631L3.67812 6.87926L3.41315 6.45525ZM6.94143 4.25034L6.67646 3.82632L7.73495 3.16485C7.89706 3.06354 8.10275 3.06354 8.26487 3.16485L9.32335 3.82632L9.05838 4.25034L8.7934 4.67435L7.99991 4.17848L7.20641 4.67435L6.94143 4.25034ZM9.05838 11.747L9.32335 12.171L8.26487 12.8325C8.10275 12.9338 7.89706 12.9338 7.73495 12.8325L6.67646 12.171L6.94144 11.747L7.20641 11.323L7.99991 11.8188L8.7934 11.323L9.05838 11.747ZM5.53012 10.865L5.26514 11.289L3.14817 9.96609L3.41315 9.54207L3.67812 9.11806L5.7951 10.441L5.53012 10.865Z" fill="black"/>
<circle id="Ellipse 280" cx="8" cy="8" r="1" fill="black"/>
</g>
</svg>
