<svg width="16" height="16" viewBox="0 0 16 16" fill="none" xmlns="http://www.w3.org/2000/svg">
<g id="selection-lower">
<path id="Union" fill-rule="evenodd" clip-rule="evenodd" d="M12 5.29289V1.5C12 1.22386 12.2239 1 12.5 1C12.7761 1 13 1.22386 13 1.5V5.29289L14.1464 4.14645C14.3417 3.95118 14.6583 3.95118 14.8536 4.14645C15.0488 4.34171 15.0488 4.65829 14.8536 4.85355L12.8536 6.85355L12.5 7.20711L12.1464 6.85355L10.1464 4.85355C9.95118 4.65829 9.95118 4.34171 10.1464 4.14645C10.3417 3.95118 10.6583 3.95118 10.8536 4.14645L12 5.29289ZM1.25 2C1.25 1.58579 1.58579 1.25 2 1.25H8C8.41421 1.25 8.75 1.58579 8.75 2C8.75 2.41421 8.41421 2.75 8 2.75H2C1.58579 2.75 1.25 2.41421 1.25 2ZM2 5.25C1.58579 5.25 1.25 5.58579 1.25 6C1.25 6.41421 1.58579 6.75 2 6.75H8C8.41421 6.75 8.75 6.41421 8.75 6C8.75 5.58579 8.41421 5.25 8 5.25H2ZM1.25 15C1.25 14.5858 1.58579 14.25 2 14.25H8C8.41421 14.25 8.75 14.5858 8.75 15C8.75 15.4142 8.41421 15.75 8 15.75H2C1.58579 15.75 1.25 15.4142 1.25 15ZM2.5 11H13.5C13.7761 11 14 10.7761 14 10.5C14 10.2239 13.7761 10 13.5 10H2.5C2.22386 10 2 10.2239 2 10.5C2 10.7761 2.22386 11 2.5 11ZM1 10.5C1 11.3284 1.67157 12 2.5 12H13.5C14.3284 12 15 11.3284 15 10.5C15 9.67157 14.3284 9 13.5 9H2.5C1.67157 9 1 9.67157 1 10.5Z" fill="black"/>
<path id="neutral" opacity="0.3" d="M1 10.5C1 11.3284 1.67157 12 2.5 12H13.5C14.3284 12 15 11.3284 15 10.5C15 9.67157 14.3284 9 13.5 9H2.5C1.67157 9 1 9.67157 1 10.5Z" fill="black"/>
</g>
</svg>
