<svg width="16" height="16" viewBox="0 0 16 16" fill="none" xmlns="http://www.w3.org/2000/svg">
<g id="selection-move-to-layer-below">
<path id="Subtract" fill-rule="evenodd" clip-rule="evenodd" d="M3.00049 10.499L0.893591 11.5523C0.525053 11.7366 0.525053 12.2625 0.893591 12.4467L7.77549 15.8871C7.91623 15.9575 8.08188 15.9575 8.22262 15.8871L15.1045 12.4467C15.4731 12.2625 15.4731 11.7366 15.1045 11.5523L12.9986 10.4995L11.6569 11.1703L13.3156 11.9995L7.99905 14.6574L2.6825 11.9995L4.34221 11.1698L3.00049 10.499Z" fill="black"/>
<path id="Vector 57" d="M8 4.5L8 11" stroke="black" stroke-linecap="round"/>
<path id="Vector 58" d="M10 9.5L8 11.5L6 9.5" stroke="black" stroke-linecap="round"/>
<path id="Subtract_2" opacity="0.5" fill-rule="evenodd" clip-rule="evenodd" d="M1.92685 4.96225L2.15043 4.51503L2.37401 4.0678L2.23637 3.99899L2.37401 3.93018L2.15043 3.48295L1.92685 3.03572L0.894568 3.55179C0.52603 3.73603 0.52603 4.26195 0.894568 4.44619L1.92685 4.96225ZM3.52681 2.79487L3.30323 2.34764L5.3678 1.31551L5.59138 1.76274L5.81496 2.20997L3.75039 3.24209L3.52681 2.79487ZM6.96776 1.07465L6.74418 0.627427L7.77647 0.111363C7.91721 0.0410039 8.08286 0.0410039 8.2236 0.111363L9.25588 0.627427L9.0323 1.07465L8.80872 1.52188L8.00003 1.1176L7.19134 1.52188L6.96776 1.07465ZM10.4087 1.76274L10.6323 1.31551L12.6968 2.34764L12.4733 2.79487L12.2497 3.24209L10.1851 2.20997L10.4087 1.76274ZM13.8496 3.48295L14.0732 3.03572L15.1055 3.55179C15.474 3.73603 15.474 4.26195 15.1055 4.44619L14.0732 4.96225L13.8496 4.51503L13.6261 4.0678L13.7637 3.99899L13.6261 3.93018L13.8496 3.48295ZM12.4733 5.20311L12.6968 5.65034L11 6.49862V5.38062L12.2497 4.75588L12.4733 5.20311ZM5 5.38059L3.75039 4.75588L3.52681 5.20311L3.30323 5.65034L5 6.49859V5.38059Z" fill="black"/>
<circle id="Ellipse 280" cx="8" cy="5" r="1" fill="black"/>
</g>
</svg>
