<svg width="16" height="16" viewBox="0 0 16 16" fill="none" xmlns="http://www.w3.org/2000/svg">
<g id="selection-raise">
<path id="Union" fill-rule="evenodd" clip-rule="evenodd" d="M2 1.25C1.58579 1.25 1.25 1.58579 1.25 2C1.25 2.41421 1.58579 2.75 2 2.75H8C8.41421 2.75 8.75 2.41421 8.75 2C8.75 1.58579 8.41421 1.25 8 1.25H2ZM2 10.25C1.58579 10.25 1.25 10.5858 1.25 11C1.25 11.4142 1.58579 11.75 2 11.75H8C8.41421 11.75 8.75 11.4142 8.75 11C8.75 10.5858 8.41421 10.25 8 10.25H2ZM1.25 15C1.25 14.5858 1.58579 14.25 2 14.25H8C8.41421 14.25 8.75 14.5858 8.75 15C8.75 15.4142 8.41421 15.75 8 15.75H2C1.58579 15.75 1.25 15.4142 1.25 15ZM10.8536 12.8536L12 11.7071V15.5C12 15.7761 12.2239 16 12.5 16C12.7761 16 13 15.7761 13 15.5V11.7071L14.1464 12.8536C14.3417 13.0488 14.6583 13.0488 14.8536 12.8536C15.0488 12.6583 15.0488 12.3417 14.8536 12.1464L12.8536 10.1464L12.5 9.79289L12.1464 10.1464L10.1464 12.1464C9.95118 12.3417 9.95118 12.6583 10.1464 12.8536C10.3417 13.0488 10.6583 13.0488 10.8536 12.8536ZM2.5 7H13.5C13.7761 7 14 6.77614 14 6.5C14 6.22386 13.7761 6 13.5 6H2.5C2.22386 6 2 6.22386 2 6.5C2 6.77614 2.22386 7 2.5 7ZM1 6.5C1 7.32843 1.67157 8 2.5 8H13.5C14.3284 8 15 7.32843 15 6.5C15 5.67157 14.3284 5 13.5 5H2.5C1.67157 5 1 5.67157 1 6.5Z" fill="black"/>
<path id="neutral" opacity="0.3" d="M1 6.5C1 7.32843 1.67157 8 2.5 8H13.5C14.3284 8 15 7.32843 15 6.5C15 5.67157 14.3284 5 13.5 5H2.5C1.67157 5 1 5.67157 1 6.5Z" fill="black"/>
</g>
</svg>
