<svg width="16" height="16" viewBox="0 0 16 16" fill="none" xmlns="http://www.w3.org/2000/svg">
<g id="selection-touch">
<rect id="neutral" opacity="0.3" y="5" width="6" height="6" rx="0.5" fill="black"/>
<path id="Union" fill-rule="evenodd" clip-rule="evenodd" d="M2.5 2.5C2.5 1.94772 2.94771 1.5 3.5 1.5H4.41667V2.5L3.5 2.5V3.41667H2.5V2.5ZM8.08333 2.5H6.25V1.5H8.08333V2.5ZM11.75 2.5H9.91667V1.5H11.75V2.5ZM14.5 2.5H13.5833V1.5H14.5C15.0523 1.5 15.5 1.94771 15.5 2.5V3.41667H14.5V2.5ZM14.5 7.08333V5.25H15.5V7.08333H14.5ZM14.5 10.75V8.91667H15.5V10.75H14.5ZM3.5 12.5833V13.5H4.41667V14.5H3.5C2.94772 14.5 2.5 14.0523 2.5 13.5V12.5833H3.5ZM14.5 13.5V12.5833H15.5V13.5C15.5 14.0523 15.0523 14.5 14.5 14.5H13.5833V13.5H14.5ZM6.25 13.5H8.08333V14.5H6.25V13.5ZM9.91667 13.5H11.75V14.5H9.91667V13.5ZM1 10V6H5V10H1ZM0 5.5C0 5.22386 0.223858 5 0.5 5H5.5C5.77614 5 6 5.22386 6 5.5V10.5C6 10.7761 5.77614 11 5.5 11H0.5C0.223858 11 0 10.7761 0 10.5V5.5Z" fill="black"/>
</g>
</svg>
