<svg width="16" height="16" viewBox="0 0 16 16" fill="none" xmlns="http://www.w3.org/2000/svg">
<g id="selection-move-to-layer-above">
<path id="Subtract" fill-rule="evenodd" clip-rule="evenodd" d="M3.00049 5.49951L0.893591 4.44622C0.525053 4.26198 0.525053 3.73606 0.893591 3.55182L7.77549 0.111398C7.91623 0.041039 8.08188 0.041039 8.22262 0.111398L15.1045 3.55182C15.4731 3.73606 15.4731 4.26198 15.1045 4.44622L12.9986 5.49902L11.6569 4.82826L13.3156 3.99902L7.99905 1.34115L2.6825 3.99902L4.34221 4.82875L3.00049 5.49951Z" fill="black"/>
<path id="Vector 57" d="M8 11.4985L8 4.99854" stroke="black" stroke-linecap="round"/>
<path id="Vector 58" d="M10 6.49854L8 4.49854L6 6.49854" stroke="black" stroke-linecap="round"/>
<path id="Subtract_2" opacity="0.5" fill-rule="evenodd" clip-rule="evenodd" d="M1.92685 11.0363L2.15043 11.4835L2.37401 11.9307L2.23637 11.9995L2.37401 12.0684L2.15043 12.5156L1.92685 12.9628L0.894568 12.4467C0.52603 12.2625 0.52603 11.7366 0.894568 11.5523L1.92685 11.0363ZM3.52681 13.2037L3.30323 13.6509L5.3678 14.683L5.59138 14.2358L5.81496 13.7886L3.75039 12.7564L3.52681 13.2037ZM6.96776 14.9239L6.74418 15.3711L7.77647 15.8872C7.91721 15.9575 8.08286 15.9575 8.2236 15.8872L9.25588 15.3711L9.0323 14.9239L8.80872 14.4767L8.00003 14.8809L7.19134 14.4767L6.96776 14.9239ZM10.4087 14.2358L10.6323 14.683L12.6968 13.6509L12.4733 13.2037L12.2497 12.7564L10.1851 13.7886L10.4087 14.2358ZM13.8496 12.5156L14.0732 12.9628L15.1055 12.4467C15.474 12.2625 15.474 11.7366 15.1055 11.5523L14.0732 11.0363L13.8496 11.4835L13.6261 11.9307L13.7637 11.9995L13.6261 12.0684L13.8496 12.5156ZM12.4733 10.7954L12.6968 10.3482L11 9.49991V10.6179L12.2497 11.2427L12.4733 10.7954ZM5 10.6179L3.75039 11.2427L3.52681 10.7954L3.30323 10.3482L5 9.49994V10.6179Z" fill="black"/>
<circle id="Ellipse 280" cx="1" cy="1" r="1" transform="matrix(1 0 0 -1 7 11.9985)" fill="black"/>
</g>
</svg>
