<svg width="16" height="16" viewBox="0 0 16 16" fill="none" xmlns="http://www.w3.org/2000/svg">
<g id="selection-top">
<path id="Union" fill-rule="evenodd" clip-rule="evenodd" d="M2.5 3H13.5C13.7761 3 14 2.77614 14 2.5C14 2.22386 13.7761 2 13.5 2H2.5C2.22386 2 2 2.22386 2 2.5C2 2.77614 2.22386 3 2.5 3ZM1 2.5C1 3.32843 1.67157 4 2.5 4H13.5C14.3284 4 15 3.32843 15 2.5C15 1.67157 14.3284 1 13.5 1H2.5C1.67157 1 1 1.67157 1 2.5ZM14.8536 8.85351C14.6583 9.04877 14.3417 9.04877 14.1464 8.85351L13 7.70706V11.5C13 11.7761 12.7761 12 12.5 12C12.2239 12 12 11.7761 12 11.5V7.70706L10.8536 8.85351C10.6583 9.04877 10.3417 9.04877 10.1464 8.85351C9.95118 8.65825 9.95118 8.34166 10.1464 8.1464L12.1464 6.1464L12.5 5.79285L12.8536 6.1464L14.8536 8.1464C15.0488 8.34166 15.0488 8.65824 14.8536 8.85351ZM2 6.24995C1.58579 6.24995 1.25 6.58574 1.25 6.99995C1.25 7.41417 1.58579 7.74995 2 7.74995H8C8.41421 7.74995 8.75 7.41417 8.75 6.99995C8.75 6.58574 8.41421 6.24995 8 6.24995H2ZM2 10.25C1.58579 10.25 1.25 10.5857 1.25 11C1.25 11.4142 1.58579 11.75 2 11.75H8C8.41421 11.75 8.75 11.4142 8.75 11C8.75 10.5857 8.41421 10.25 8 10.25H2ZM1.25 15C1.25 14.5857 1.58579 14.25 2 14.25H8C8.41421 14.25 8.75 14.5857 8.75 15C8.75 15.4142 8.41421 15.75 8 15.75H2C1.58579 15.75 1.25 15.4142 1.25 15Z" fill="black"/>
<path id="neutral" opacity="0.3" d="M1 2.5C1 3.32843 1.67157 4 2.5 4H13.5C14.3284 4 15 3.32843 15 2.5C15 1.67157 14.3284 1 13.5 1H2.5C1.67157 1 1 1.67157 1 2.5Z" fill="black"/>
</g>
</svg>
