<svg width="16" height="16" viewBox="0 0 16 16" fill="none" xmlns="http://www.w3.org/2000/svg">
<g id="shape-ellipse">
<path id="Union" fill-rule="evenodd" clip-rule="evenodd" d="M2.98251 6.36808C3.3396 7.67741 4.20855 9.15781 5.52525 10.4745C6.84196 11.7912 8.32236 12.6602 9.63169 13.0173C10.9567 13.3786 11.9969 13.1953 12.5963 12.5958C13.1957 11.9964 13.3791 10.9562 13.0177 9.6312C12.6607 8.32187 11.7917 6.84147 10.475 5.52477C9.1583 4.20806 7.6779 3.33911 6.36857 2.98202C5.04352 2.62065 4.00335 2.80403 3.40393 3.40345C2.80452 4.00287 2.62113 5.04303 2.98251 6.36808ZM2.01775 6.6312C1.61136 5.1411 1.73415 3.65902 2.69683 2.69634C3.65951 1.73366 5.14159 1.61087 6.63169 2.01726C8.1375 2.42793 9.76515 3.4007 11.1821 4.81766C12.5991 6.23462 13.5718 7.86227 13.9825 9.36808C14.3889 10.8582 14.2661 12.3403 13.3034 13.3029C12.3408 14.2656 10.8587 14.3884 9.36857 13.982C7.86276 13.5713 6.23511 12.5986 4.81815 11.1816C3.40118 9.76466 2.42842 8.13701 2.01775 6.6312Z" fill="black"/>
</g>
</svg>
