<svg width="16" height="16" viewBox="0 0 16 16" fill="none" xmlns="http://www.w3.org/2000/svg">
<g id="shape-symbol" clip-path="url(#clip0_241_9259)">
<g id=".symbol">
<path id="Union" fill-rule="evenodd" clip-rule="evenodd" d="M1.99993 1.03564C1.46737 1.03564 1.03564 1.46737 1.03564 1.99993V13.9999C1.03564 14.5325 1.46737 14.9642 1.99993 14.9642H13.9999C14.5325 14.9642 14.9642 14.5325 14.9642 13.9999V1.99993C14.9642 1.46737 14.5325 1.03564 13.9999 1.03564H1.99993ZM1.96422 1.99993C1.96422 1.98021 1.98021 1.96422 1.99993 1.96422H13.9999C14.0197 1.96422 14.0356 1.98021 14.0356 1.99993V13.9999C14.0356 14.0197 14.0197 14.0356 13.9999 14.0356H1.99993C1.98021 14.0356 1.96422 14.0197 1.96422 13.9999V1.99993ZM4.11308 5.1668C3.22391 6.05597 3.37046 7.37199 4.11308 8.38675C4.83175 9.3688 5.63242 10.0371 6.46407 10.7312C6.96843 11.1521 7.48417 11.5826 7.99993 12.0983C8.51575 11.5825 9.03157 11.1519 9.53603 10.7309C10.3675 10.0369 11.1681 9.36865 11.8868 8.38675C12.6294 7.37204 12.7759 6.05597 11.8868 5.1668C10.9976 4.27764 9.55596 4.27764 8.66679 5.1668C8.22221 5.61139 7.99992 6.19408 7.99992 6.77678C7.99992 6.19408 7.77762 5.61139 7.33304 5.1668C6.44387 4.27764 5.00225 4.27764 4.11308 5.1668Z" fill="black"/>
</g>
</g>
<defs>
<clipPath id="clip0_241_9259">
<rect width="16" height="16" fill="white"/>
</clipPath>
</defs>
</svg>
