<svg width="16" height="16" viewBox="0 0 16 16" fill="none" xmlns="http://www.w3.org/2000/svg">
<g id="shape-image">
<path id="Union" fill-rule="evenodd" clip-rule="evenodd" d="M15 2H1V11.0858L3.79289 8.29289L4.5 7.58579L5.20711 8.29289L6.75 9.83579L10.7929 5.79289L11.5 5.08579L12.2071 5.79289L15 8.58579V2ZM1 13.5V12.5L3.79289 9.70711L4.5 9L5.20711 9.70711L6.04289 10.5429L6.75 11.25L7.45711 10.5429L10.7929 7.20711L11.5 6.5L12.2071 7.20711L15 10V13.5C15 13.7761 14.7761 14 14.5 14H1.5C1.22386 14 1 13.7761 1 13.5ZM0 2V12.0858V12.5V13.5V14C0 14.5523 0.447715 15 1 15H1.5H14.5H15C15.5523 15 16 14.5523 16 14V13.5V10V9.58579V2C16 1.44772 15.5523 1 15 1H1C0.447715 1 0 1.44772 0 2ZM6.5 4.75C6.5 5.16421 6.16421 5.5 5.75 5.5C5.33579 5.5 5 5.16421 5 4.75C5 4.33579 5.33579 4 5.75 4C6.16421 4 6.5 4.33579 6.5 4.75ZM7.5 4.75C7.5 5.7165 6.7165 6.5 5.75 6.5C4.7835 6.5 4 5.7165 4 4.75C4 3.7835 4.7835 3 5.75 3C6.7165 3 7.5 3.7835 7.5 4.75Z" fill="black"/>
</g>
</svg>
