<svg width="16" height="16" viewBox="0 0 16 16" fill="none" xmlns="http://www.w3.org/2000/svg">
<g id="shape-clone">
<path id="Union" fill-rule="evenodd" clip-rule="evenodd" d="M2 1C1.44771 1 1 1.44772 1 2V14C1 14.5523 1.44772 15 2 15H14C14.5523 15 15 14.5523 15 14V2C15 1.44771 14.5523 1 14 1H2ZM2 2L14 2V14H2V2ZM8 5.5C7.44772 5.5 7 5.94772 7 6.5V8H9V6.5C9 5.94772 8.55228 5.5 8 5.5ZM6 6.5V8H5.5C5.22386 8 5 8.22386 5 8.5V11C5 11.2761 5.22386 11.5 5.5 11.5H10.5C10.7761 11.5 11 11.2761 11 11V8.5C11 8.22386 10.7761 8 10.5 8H10V6.5C10 5.39543 9.10457 4.5 8 4.5C6.89543 4.5 6 5.39543 6 6.5Z" fill="black"/>
</g>
</svg>
