<svg width="16" height="16" viewBox="0 0 16 16" fill="none" xmlns="http://www.w3.org/2000/svg">
<g id="shape-spiral">
<path id="Union" fill-rule="evenodd" clip-rule="evenodd" d="M12.5704 5.43344C10.5133 2.80543 6.58373 2.14211 3.9778 4.25758L3.97779 4.25759C1.81333 6.01465 1.28898 9.32078 3.09376 11.4633C4.53984 13.18 7.20101 13.5651 8.86218 12.0664L9.19712 12.4376L8.86218 12.0664C10.1287 10.9237 10.3723 8.88504 9.19195 7.69783L9.54653 7.34531L9.19195 7.69783C8.79532 7.29889 8.23089 7.05137 7.67522 7.02396C7.12759 6.99696 6.61659 7.18229 6.2632 7.61358C6.07931 7.83801 5.96083 8.18324 5.97417 8.4985C5.98687 8.79862 6.10896 9.00608 6.33744 9.11091C6.58843 9.22607 6.69854 9.52288 6.58339 9.77387C6.46824 10.0249 6.17142 10.135 5.92044 10.0198C5.26619 9.71964 4.99929 9.11342 4.97506 8.54078C4.95147 7.98329 5.14811 7.39667 5.48969 6.97979C6.07626 6.26392 6.91481 5.98525 7.72448 6.02518C8.52613 6.06472 9.32676 6.41509 9.90111 6.99279L9.56524 7.32671L9.90111 6.99279C11.5707 8.67215 11.1258 11.371 9.53205 12.8089C7.38103 14.7496 4.07575 14.1812 2.32895 12.1075L2.70848 11.7878L2.32894 12.1075C0.115763 9.4802 0.808945 5.54196 3.34754 3.4812C6.43747 0.972816 10.997 1.80095 13.3578 4.81707L13.0062 5.09232L13.3578 4.81707C15.1536 7.11125 15.4746 10.2749 14.3307 12.9159C14.2209 13.1693 13.9265 13.2858 13.6731 13.176C13.4197 13.0662 13.3033 12.7719 13.413 12.5185C14.4196 10.1947 14.1277 7.42309 12.5704 5.43344Z" fill="black"/>
</g>
</svg>
