<svg width="16" height="16" viewBox="0 0 16 16" fill="none" xmlns="http://www.w3.org/2000/svg">
<g id="shape-star">
<path id="Union" fill-rule="evenodd" clip-rule="evenodd" d="M7.43616 1.08802C7.62754 0.561155 8.37268 0.561153 8.56406 1.08802L10.0499 5.17863L14.3995 5.32772C14.9597 5.34692 15.19 6.05558 14.748 6.40041L11.3168 9.07763L12.5191 13.2604C12.6739 13.7991 12.0711 14.2371 11.6066 13.9233L8.00011 11.4873L4.39361 13.9233C3.9291 14.2371 3.32627 13.7991 3.48112 13.2604L4.68342 9.07763L1.25218 6.40041C0.810243 6.05558 1.0405 5.34692 1.60072 5.32772L5.95028 5.17863L7.43616 1.08802ZM8.00011 2.46447L6.79795 5.77399C6.71435 6.00414 6.49928 6.1604 6.25456 6.16879L2.73553 6.28941L5.51159 8.45542C5.70464 8.60605 5.78679 8.85888 5.71914 9.09422L4.74642 12.4783L7.66427 10.5074C7.86719 10.3704 8.13303 10.3704 8.33594 10.5074L11.2538 12.4783L10.2811 9.09422C10.2134 8.85888 10.2956 8.60605 10.4886 8.45542L13.2647 6.28941L9.74566 6.16879C9.50094 6.1604 9.28586 6.00414 9.20226 5.77399L8.00011 2.46447Z" fill="black"/>
</g>
</svg>
