<svg width="16" height="16" viewBox="0 0 16 16" fill="none" xmlns="http://www.w3.org/2000/svg">
<g id="shape-text-flow">
<path id="Union" fill-rule="evenodd" clip-rule="evenodd" d="M2 1C1.44771 1 1 1.44772 1 2V14C1 14.5523 1.44772 15 2 15H14C14.5523 15 15 14.5523 15 14V2C15 1.44771 14.5523 1 14 1H2ZM2 2L14 2V14H2V2ZM7.25 3.5H3.5V4.24887V4.25126V4.625V6.12626V6.49887H4.25V6.12626H4.25015C4.25079 5.29843 4.92204 4.62753 5.75 4.62745V4.625H7.25V11.7499H7.24995V10.2506C7.24995 11.0633 6.60372 11.725 5.79712 11.7499H4.99985V12.4999H7.25V12.5H8.75V12.4999H10.9999V11.7499H10.2029C9.39628 11.725 8.75005 11.0633 8.75005 10.2506V11.7499H8.75V4.625H10.25V4.62745C11.078 4.62753 11.7492 5.29843 11.7499 6.12626V6.49887H12.4999V6.12626H12.5V4.625V4.25126V3.5H8.75H7.25Z" fill="black"/>
</g>
</svg>
