<svg width="16" height="16" viewBox="0 0 16 16" fill="none" xmlns="http://www.w3.org/2000/svg">
<g id="shape-group">
<path id="Union" fill-rule="evenodd" clip-rule="evenodd" d="M15 6V14H1V3L5.66667 3L7 4L9.13333 5.6C9.47953 5.85964 9.90059 6 10.3333 6H15ZM7.33333 3L6.26667 2.2C6.09357 2.07018 5.88304 2 5.66667 2H1C0.447715 2 0 2.44772 0 3V14C0 14.5523 0.447715 15 1 15H15C15.5523 15 16 14.5523 16 14V6C16 5.44772 15.5523 5 15 5V4C15 3.44772 14.5523 3 14 3H7.33333ZM8.66667 4L9.73333 4.8C9.90643 4.92982 10.117 5 10.3333 5H14V4H8.66667Z" fill="black"/>
</g>
</svg>
