<svg width="16" height="16" viewBox="0 0 16 16" fill="none" xmlns="http://www.w3.org/2000/svg">
<g id="shape-link" clip-path="url(#clip0_241_9651)">
<path id="Union" fill-rule="evenodd" clip-rule="evenodd" d="M7.85344 2.14682C6.27747 0.57085 3.72231 0.570851 2.14633 2.14682C0.570361 3.7228 0.570363 6.27796 2.14634 7.85393L3.73212 9.43972C3.92738 9.63498 4.24397 9.63498 4.43923 9.43972C4.63449 9.24446 4.63449 8.92787 4.43923 8.73261L2.85344 7.14683C1.66799 5.96138 1.66799 4.03938 2.85344 2.85393C4.03889 1.66848 5.96088 1.66848 7.14633 2.85393L8.73212 4.43972C8.92738 4.63498 9.24397 4.63498 9.43923 4.43972C9.63449 4.24446 9.63449 3.92787 9.43923 3.73261L7.85344 2.14682ZM12.2677 6.56104C12.0724 6.36578 11.7558 6.36578 11.5605 6.56104C11.3653 6.7563 11.3653 7.07288 11.5605 7.26814L13.1463 8.85393C14.3318 10.0394 14.3318 11.9614 13.1463 13.1468C11.9609 14.3323 10.0389 14.3323 8.85344 13.1468L7.26766 11.561C7.07239 11.3658 6.75581 11.3658 6.56055 11.561C6.36529 11.7563 6.36529 12.0729 6.56055 12.2681L8.14634 13.8539C9.72231 15.4299 12.2775 15.4299 13.8534 13.8539C15.4294 12.278 15.4294 9.7228 13.8534 8.14682L12.2677 6.56104ZM5.85355 5.14645C5.65829 4.95118 5.34171 4.95118 5.14645 5.14645C4.95118 5.34171 4.95118 5.65829 5.14645 5.85355L10.1464 10.8536C10.3417 11.0488 10.6583 11.0488 10.8536 10.8536C11.0488 10.6583 11.0488 10.3417 10.8536 10.1464L5.85355 5.14645Z" fill="black"/>
</g>
<defs>
<clipPath id="clip0_241_9651">
<rect width="16" height="16" fill="white"/>
</clipPath>
</defs>
</svg>
