<svg width="16" height="16" viewBox="0 0 16 16" fill="none" xmlns="http://www.w3.org/2000/svg">
<g id="shape-text-data">
<path id="Union" fill-rule="evenodd" clip-rule="evenodd" d="M0 2H5H7H12V3V3.5V5.5V6H11V5.5C11 4.39543 10.1046 3.5 9 3.5H7V13V14H5H3H2V13H3C4.10457 13 5 12.1046 5 11V3.5H3C1.89543 3.5 1 4.39543 1 5.5V6H0V5.5V3.5V3V2ZM10.8537 10.6464C10.6585 10.4512 10.3419 10.4512 10.1466 10.6464L8.14663 12.6464L7.79308 13L8.14663 13.3536L10.1466 15.3536C10.3419 15.5488 10.6585 15.5488 10.8537 15.3536C11.049 15.1583 11.049 14.8417 10.8537 14.6464L9.20729 13L10.8537 11.3536C11.049 11.1583 11.049 10.8417 10.8537 10.6464ZM12.6474 10.6464C12.8426 10.4512 13.1592 10.4512 13.3545 10.6464L15.3545 12.6464L15.708 13L15.3545 13.3536L13.3545 15.3536C13.1592 15.5488 12.8426 15.5488 12.6474 15.3536C12.4521 15.1583 12.4521 14.8417 12.6474 14.6464L14.2938 13L12.6474 11.3536C12.4521 11.1583 12.4521 10.8417 12.6474 10.6464Z" fill="black"/>
</g>
</svg>
