<svg width="16" height="16" viewBox="0 0 16 16" fill="none" xmlns="http://www.w3.org/2000/svg">
<g id="shape-layer" clip-path="url(#clip0_241_9581)">
<g id="dialog-objects">
<path id="Union" fill-rule="evenodd" clip-rule="evenodd" d="M2.47647 5.97127L7.99989 2.51955L13.5233 5.97127L7.99989 9.42299L2.47647 5.97127ZM7.75446 1.49372C7.90463 1.39988 8.09516 1.39988 8.24533 1.49372L14.7818 5.57853C15.0721 5.75992 15.0721 6.18263 14.7818 6.36401L8.24533 10.4488C8.09516 10.5427 7.90463 10.5427 7.75446 10.4488L1.21797 6.36401C0.927715 6.18263 0.927715 5.75992 1.21797 5.57853L7.75446 1.49372ZM2.56041 8.79206C2.64897 8.73672 2.76107 8.7357 2.85062 8.78942L7.85649 11.7926C7.94448 11.8454 8.0544 11.8454 8.14239 11.7926L13.1479 8.78961C13.2375 8.73589 13.3496 8.73691 13.4382 8.79225L14.7811 9.63146C15.0713 9.81285 15.0713 10.2356 14.7811 10.4169L8.24456 14.5018C8.0944 14.5956 7.90386 14.5956 7.7537 14.5018L1.2172 10.4169C0.926949 10.2356 0.926949 9.81285 1.2172 9.63146L2.56041 8.79206Z" fill="black"/>
</g>
</g>
<defs>
<clipPath id="clip0_241_9581">
<rect width="16" height="16" fill="white"/>
</clipPath>
</defs>
</svg>
