<svg width="16" height="16" viewBox="0 0 16 16" fill="none" xmlns="http://www.w3.org/2000/svg">
<g id="shape-path">
<path id="Union" fill-rule="evenodd" clip-rule="evenodd" d="M7.29289 3.70711L8 3L8.70711 3.70711L10.2929 5.29289L10.5 5.5L14.1338 5.5C14.3067 5.2011 14.6299 5 15 5C15.5523 5 16 5.44772 16 6C16 6.55228 15.5523 7 15 7C14.6299 7 14.3067 6.7989 14.1338 6.5L11.7838 6.5C13.916 7.70619 15.5 9.95695 15.5 12.9995C15.5 13.2757 15.2761 13.4995 15 13.4995C14.7239 13.4995 14.5 13.2757 14.5 12.9995C14.5 9.84613 12.5477 7.66914 10.1452 6.85481L8.70711 8.29289L8 9L7.29289 8.29289L5.85481 6.85481C3.4523 7.66914 1.5 9.84613 1.5 12.9995C1.5 13.2757 1.27614 13.4995 1 13.4995C0.723858 13.4995 0.5 13.2757 0.5 12.9995C0.5 9.95695 2.08403 7.70619 4.21616 6.5H1.86622C1.69331 6.7989 1.37014 7 1 7C0.447715 7 0 6.55228 0 6C0 5.44772 0.447715 5 1 5C1.37014 5 1.69331 5.2011 1.86622 5.5H5.5L5.70711 5.29289L7.29289 3.70711ZM6.41421 6L8 7.58579L9.58579 6L8 4.41421L6.41421 6Z" fill="black"/>
</g>
</svg>
