<svg width="16" height="16" viewBox="0 0 16 16" fill="none" xmlns="http://www.w3.org/2000/svg">
<g id="shapebuilder-tool-difference">
<path id="Union" fill-rule="evenodd" clip-rule="evenodd" d="M3 10V3H10V5C7.23858 5 5 7.23858 5 10H3ZM11 2.83333V5.10002C13.2822 5.56329 15 7.58104 15 10C15 12.7614 12.7614 15 10 15C7.58104 15 5.56329 13.2822 5.10002 11H2.83333C2.3731 11 2 10.6269 2 10.1667V2.83333C2 2.3731 2.3731 2 2.83333 2H10.1667C10.6269 2 11 2.3731 11 2.83333ZM10 6C10.3453 6 10.6804 6.04375 11 6.12602C12.7252 6.57006 14 8.13616 14 10C14 12.2091 12.2091 14 10 14C8.13616 14 6.57006 12.7252 6.12602 11C6.04375 10.6804 6 10.3453 6 10C6 7.79086 7.79086 6 10 6ZM8.5 9.25C8.08579 9.25 7.75 9.58579 7.75 10C7.75 10.4142 8.08579 10.75 8.5 10.75H11.5C11.9142 10.75 12.25 10.4142 12.25 10C12.25 9.58579 11.9142 9.25 11.5 9.25H8.5Z" fill="black"/>
</g>
</svg>
