<svg width="16" height="16" viewBox="0 0 16 16" fill="none" xmlns="http://www.w3.org/2000/svg">
<g id="shape-switch">
<path id="Union" fill-rule="evenodd" clip-rule="evenodd" d="M15 8V6H10.3333C9.90059 6 9.47953 5.85964 9.13333 5.6L7 4L5.66667 3L1 3V14H5V15H1C0.447715 15 0 14.5523 0 14V3C0 2.44772 0.447715 2 1 2H5.66667C5.88304 2 6.09357 2.07018 6.26667 2.2L7.33333 3H14C14.5523 3 15 3.44772 15 4V5C15.5523 5 16 5.44772 16 6V8H15ZM9.73333 4.8L8.66667 4H14V5H10.3333C10.117 5 9.90643 4.92982 9.73333 4.8ZM9.35323 11.3539L8.20502 12.5L13.795 12.5L12.6468 11.3539C12.4513 11.1588 12.451 10.8422 12.6461 10.6468C12.8412 10.4513 13.1578 10.451 13.3532 10.6461L15.3532 12.6425L15.7071 12.9957L15.3539 13.3496L13.3539 15.3532C13.1588 15.5487 12.8422 15.549 12.6468 15.3539C12.4513 15.1588 12.451 14.8422 12.6461 14.6468L13.7908 13.5L8.20918 13.5L9.35387 14.6468C9.54896 14.8422 9.54867 15.1588 9.35323 15.3539C9.15779 15.549 8.84121 15.5487 8.64613 15.3532L6.64613 13.3496L6.29289 12.9957L6.64677 12.6425L8.64677 10.6461C8.84221 10.451 9.15879 10.4513 9.35387 10.6468C9.54896 10.8422 9.54867 11.1588 9.35323 11.3539Z" fill="black"/>
</g>
</svg>
