<svg width="16" height="16" viewBox="0 0 16 16" fill="none" xmlns="http://www.w3.org/2000/svg">
<g id="shape-item">
<path id="Subtract" fill-rule="evenodd" clip-rule="evenodd" d="M1.5 1C1.22386 1 1 1.22386 1 1.5V3.5C1 3.77614 1.22386 4 1.5 4H2.07692V12H1.5C1.22386 12 1 12.2239 1 12.5V14.5C1 14.7761 1.22386 15 1.5 15H3.5C3.77614 15 4 14.7761 4 14.5V13.9231H12V14.5C12 14.7761 12.2239 15 12.5 15H14.5C14.7761 15 15 14.7761 15 14.5V12.5C15 12.2239 14.7761 12 14.5 12H13.9231V4H14.5C14.7761 4 15 3.77614 15 3.5V1.5C15 1.22386 14.7761 1 14.5 1H12.5C12.2239 1 12 1.22386 12 1.5V2.07692H4V1.5C4 1.22386 3.77614 1 3.5 1H1.5ZM12.5 12H13.0769V4H12.5C12.2239 4 12 3.77614 12 3.5V2.92308H4V3.5C4 3.77614 3.77614 4 3.5 4H2.92308V12H3.5C3.77614 12 4 12.2239 4 12.5V13.0769H12V12.5C12 12.2239 12.2239 12 12.5 12ZM2 2H3V3H2V2ZM2 13H3V14H2V13ZM14 2H13V3H14V2ZM13 13H14V14H13V13Z" fill="black"/>
</g>
</svg>
