<svg width="16" height="16" viewBox="0 0 16 16" fill="none" xmlns="http://www.w3.org/2000/svg">
<g id="shapebuilder-tool-union">
<path id="Union" fill-rule="evenodd" clip-rule="evenodd" d="M5.91742 10L6.08003 10.8011C6.45056 12.6264 8.066 14 10 14C12.2091 14 14 12.2091 14 10C14 8.066 12.6264 6.45056 10.8011 6.08003L10 5.91742V5.10002V3H3V10H5.10002H5.91742ZM2 2.83333C2 2.3731 2.3731 2 2.83333 2H10.1667C10.6269 2 11 2.3731 11 2.83333V5.10002C13.2822 5.56329 15 7.58104 15 10C15 12.7614 12.7614 15 10 15C7.58104 15 5.56329 13.2822 5.10002 11H2.83333C2.3731 11 2 10.6269 2 10.1667V2.83333ZM7.5 10C7.5 9.72386 7.72386 9.5 8 9.5H9.5V8C9.5 7.72386 9.72386 7.5 10 7.5C10.2761 7.5 10.5 7.72386 10.5 8V9.5H12C12.2761 9.5 12.5 9.72386 12.5 10C12.5 10.2761 12.2761 10.5 12 10.5H10.5V12C10.5 12.2761 10.2761 12.5 10 12.5C9.72386 12.5 9.5 12.2761 9.5 12V10.5H8C7.72386 10.5 7.5 10.2761 7.5 10Z" fill="black"/>
</g>
</svg>
