<svg width="16" height="16" viewBox="0 0 16 16" fill="none" xmlns="http://www.w3.org/2000/svg">
<g id="show-dialogs">
<path id="Union" fill-rule="evenodd" clip-rule="evenodd" d="M2.00098 1C1.44869 1 1.00098 1.44772 1.00098 2V4V14C1.00098 14.5523 1.44869 15 2.00098 15H4.00098C4.27712 15 4.50098 14.7761 4.50098 14.5C4.50098 14.2239 4.27712 14 4.00098 14H2.00098L2.00098 5H14.001V6.5C14.001 6.77614 14.2248 7 14.501 7C14.7771 7 15.001 6.77614 15.001 6.5V4V2C15.001 1.44772 14.5533 1 14.001 1H2.00098ZM14.001 4V2L2.00098 2V4H14.001Z" fill="black"/>
<path id="Union_2" fill-rule="evenodd" clip-rule="evenodd" d="M5.41456 11.5082L5.41437 11.5084C5.25597 11.7344 4.94436 11.7894 4.71822 11.6311C4.49198 11.4727 4.43695 11.161 4.5953 10.9347L5.00493 11.2214C4.5953 10.9347 4.59541 10.9346 4.59552 10.9344L4.5958 10.934L4.59648 10.933L4.5984 10.9303L4.60438 10.9219L4.62493 10.8937C4.64242 10.87 4.66748 10.8366 4.6999 10.7949C4.76472 10.7117 4.85919 10.5951 4.98173 10.4564C5.22632 10.1795 5.58548 9.81101 6.04672 9.44198C6.96431 8.70783 8.32199 7.94336 10.0049 7.94336C11.6879 7.94336 13.0455 8.70783 13.9631 9.44198C14.4244 9.81101 14.7835 10.1795 15.0281 10.4564C15.1507 10.5951 15.2451 10.7117 15.3099 10.7949C15.3424 10.8366 15.3674 10.87 15.3849 10.8937L15.4055 10.9219L15.4115 10.9303L15.4134 10.933L15.4141 10.934L15.4143 10.9344C15.4144 10.9346 15.4146 10.9347 15.0049 11.2214L15.4146 10.9347C15.5729 11.161 15.5179 11.4727 15.2916 11.6311C15.0656 11.7893 14.7541 11.7345 14.5957 11.5087L14.5956 11.5086L14.5955 11.5084L14.5953 11.5082L14.593 11.505L14.5798 11.4868C14.5673 11.4698 14.5476 11.4435 14.5209 11.4092C14.4674 11.3405 14.3861 11.2401 14.2786 11.1184C14.0631 10.8744 13.7452 10.5483 13.3384 10.2228C12.5199 9.56793 11.3775 8.94336 10.0049 8.94336C8.63231 8.94336 7.48999 9.56793 6.67146 10.2228C6.26465 10.5483 5.94673 10.8744 5.73124 11.1184C5.62375 11.2401 5.54244 11.3405 5.48898 11.4092C5.46227 11.4435 5.44257 11.4698 5.43009 11.4868L5.41681 11.505L5.41456 11.5082ZM10.0048 13.9958C10.9253 13.9958 11.6715 13.2495 11.6715 12.329C11.6715 11.4084 10.9253 10.6621 10.0048 10.6621C9.08437 10.6621 8.33818 11.4084 8.33818 12.329C8.33818 13.2495 9.08437 13.9958 10.0048 13.9958Z" fill="black"/>
<rect id="Rectangle 504" opacity="0.3" x="2" y="2" width="12" height="2" fill="black"/>
</g>
</svg>
