<svg width="16" height="16" viewBox="0 0 16 16" fill="none" xmlns="http://www.w3.org/2000/svg">
<g id="show-sources">
<path id="Union" fill-rule="evenodd" clip-rule="evenodd" d="M12.501 1C12.2248 1 12.001 1.22386 12.001 1.5C12.001 1.77614 12.2248 2 12.501 2H14.001V8V8.625C14.001 8.90114 14.2248 9.125 14.501 9.125C14.7771 9.125 15.001 8.90114 15.001 8.625V8V2C15.001 1.44772 14.5533 1 14.001 1H12.501ZM2.00098 9.5C2.00098 9.22386 1.77712 9 1.50098 9C1.22483 9 1.00098 9.22386 1.00098 9.5V14C1.00098 14.5523 1.44869 15 2.00098 15H3.75098C4.02712 15 4.25098 14.7761 4.25098 14.5C4.25098 14.2239 4.02712 14 3.75098 14H2.00098V9.5ZM8.07671 1.57564C8.31103 1.34132 8.69093 1.34132 8.92524 1.57564L11.4252 4.07564L11.8495 4.4999L11.4252 4.92417L8.92524 7.42417C8.69093 7.65848 8.31103 7.65848 8.07671 7.42417C7.8424 7.18985 7.8424 6.80995 8.07671 6.57564L9.55245 5.0999H5.00098C4.9768 5.0999 4.95297 5.09847 4.92954 5.09569C4.66231 6.18875 3.67637 6.9999 2.50098 6.9999C1.12026 6.9999 0.000976562 5.88061 0.000976562 4.4999C0.000976562 3.11919 1.12026 1.9999 2.50098 1.9999C3.67637 1.9999 4.66231 2.81106 4.92955 3.90411C4.95297 3.90133 4.9768 3.8999 5.00098 3.8999H9.55245L8.07671 2.42417C7.8424 2.18985 7.8424 1.80995 8.07671 1.57564ZM3.80098 4.4999C3.80098 5.21787 3.21895 5.7999 2.50098 5.7999C1.78301 5.7999 1.20098 5.21787 1.20098 4.4999C1.20098 3.78193 1.78301 3.1999 2.50098 3.1999C3.21895 3.1999 3.80098 3.78193 3.80098 4.4999Z" fill="black"/>
<path id="neutral" fill-rule="evenodd" clip-rule="evenodd" d="M6.78214 13.7195L6.78204 13.7197C6.65533 13.9005 6.40604 13.9444 6.22512 13.8178C6.04413 13.6911 6.0001 13.4417 6.12677 13.2607L6.45448 13.4901C6.12677 13.2607 6.12686 13.2606 6.12695 13.2605L6.12718 13.2602L6.12776 13.2593L6.1294 13.257L6.13465 13.2496L6.15294 13.2245C6.16857 13.2033 6.19105 13.1733 6.22022 13.1359C6.27852 13.061 6.36369 12.9559 6.47427 12.8307C6.69503 12.5807 7.01929 12.2481 7.43563 11.9149C8.26438 11.2518 9.48688 10.5645 10.9999 10.5645C12.5129 10.5645 13.7354 11.2518 14.5642 11.9149C14.9805 12.2481 15.3048 12.5807 15.5255 12.8307C15.6361 12.9559 15.7213 13.061 15.7796 13.1359C15.8087 13.1733 15.8312 13.2033 15.8469 13.2245L15.8651 13.2496L15.8704 13.257L15.872 13.2593L15.8726 13.2602L15.8728 13.2605C15.8729 13.2606 15.873 13.2607 15.5678 13.4744L15.873 13.2607C15.9997 13.4417 15.9557 13.6911 15.7747 13.8178C15.5938 13.9444 15.3447 13.9005 15.2179 13.7199L15.2179 13.7199L15.2178 13.7198L15.2178 13.7197L15.2177 13.7195L15.2176 13.7195L15.2152 13.7161L15.2027 13.699C15.1911 13.6832 15.1729 13.6589 15.1483 13.6273C15.0991 13.5641 15.0244 13.4718 14.9259 13.3603C14.7284 13.1367 14.4372 12.8379 14.0644 12.5396C13.3149 11.9399 12.2646 11.3645 10.9999 11.3645C9.73515 11.3645 8.68494 11.9399 7.93543 12.5396C7.56263 12.8379 7.27137 13.1367 7.07389 13.3603C6.97535 13.4718 6.90071 13.5641 6.8515 13.6273C6.8269 13.6589 6.8087 13.6832 6.79708 13.699L6.78461 13.7161L6.78219 13.7195L6.78214 13.7195ZM10.9999 15.9986C11.8283 15.9986 12.4999 15.3268 12.4999 14.4981C12.4999 13.6694 11.8283 12.9977 10.9999 12.9977C10.1715 12.9977 9.49989 13.6694 9.49989 14.4981C9.49989 15.3268 10.1715 15.9986 10.9999 15.9986Z" fill="black"/>
</g>
</svg>
