<svg width="16" height="16" viewBox="0 0 16 16" fill="none" xmlns="http://www.w3.org/2000/svg">
<g id="show-handles">
<path class="warning" fill-rule="evenodd" clip-rule="evenodd" d="M9.5 6C9.5 6.82843 8.82843 7.5 8 7.5C7.17157 7.5 6.5 6.82843 6.5 6C6.5 5.17157 7.17157 4.5 8 4.5C8.82843 4.5 9.5 5.17157 9.5 6ZM10.45 6.5C10.2184 7.64112 9.20948 8.5 8 8.5C6.79052 8.5 5.78164 7.64112 5.55001 6.5H2.91465C2.70873 7.0826 2.15311 7.5 1.5 7.5C0.671573 7.5 0 6.82843 0 6C0 5.17157 0.671573 4.5 1.5 4.5C2.15311 4.5 2.70873 4.9174 2.91465 5.5H5.55001C5.78164 4.35888 6.79052 3.5 8 3.5C9.20948 3.5 10.2184 4.35888 10.45 5.5H13.0854C13.2913 4.9174 13.8469 4.5 14.5 4.5C15.3284 4.5 16 5.17157 16 6C16 6.82843 15.3284 7.5 14.5 7.5C13.8469 7.5 13.2913 7.0826 13.0854 6.5H10.45ZM2 6C2 5.72386 1.77614 5.5 1.5 5.5C1.22386 5.5 1 5.72386 1 6C1 6.27614 1.22386 6.5 1.5 6.5C1.77614 6.5 2 6.27614 2 6ZM14.5 6.5C14.2239 6.5 14 6.27614 14 6C14 5.72386 14.2239 5.5 14.5 5.5C14.7761 5.5 15 5.72386 15 6C15 6.27614 14.7761 6.5 14.5 6.5Z" fill="black"/>
<path id="Subtract" fill-rule="evenodd" clip-rule="evenodd" d="M11.7159 7.48389C11.5907 7.79699 11.4272 8.09058 11.2311 8.35883C13.1844 9.47999 14.5 11.5864 14.5 14.0001C14.5 14.2763 14.7239 14.5001 15 14.5001C15.2761 14.5001 15.5 14.2763 15.5 14.0001C15.5 11.21 13.9764 8.77574 11.7159 7.48389ZM4.76893 8.35882C4.57279 8.09058 4.40925 7.79699 4.28414 7.48389C2.02357 8.77574 0.5 11.21 0.5 14.0001C0.5 14.2763 0.723858 14.5001 1 14.5001C1.27614 14.5001 1.5 14.2763 1.5 14.0001C1.5 11.5864 2.81564 9.47999 4.76893 8.35882Z" fill="#9E9E9E"/>
</g>
</svg>
