<svg width="16" height="16" viewBox="0 0 16 16" fill="none" xmlns="http://www.w3.org/2000/svg">
<g id="show-node-handles" clip-path="url(#clip0_241_9252)">
<path id="Union" fill-rule="evenodd" clip-rule="evenodd" d="M13.001 0L12.2939 0.707107L10.7081 2.29289L10.601 2.4H3.37616C3.1447 1.87023 2.61607 1.5 2.00098 1.5C1.17255 1.5 0.500977 2.17157 0.500977 3C0.500977 3.82843 1.17255 4.5 2.00098 4.5C2.61607 4.5 3.1447 4.12977 3.37616 3.6H6.81752C3.36928 5.32135 1.00098 8.8842 1.00098 13.0002V14.5002C1.00098 14.7763 1.22483 15.0002 1.50098 15.0002C1.77712 15.0002 2.00098 14.7763 2.00098 14.5002V13.0002C2.00098 8.2229 5.52725 4.26922 10.1189 3.6H10.601L10.7081 3.70711L12.2939 5.29289L13.001 6L13.7081 5.29289L15.2939 3.70711L16.001 3L15.2939 2.29289L13.7081 0.707107L13.001 0ZM13.001 4.58579L11.4152 3L13.001 1.41421L14.5868 3L13.001 4.58579Z" fill="black"/>
<path id="neutral" fill-rule="evenodd" clip-rule="evenodd" d="M6.78214 13.72L6.78204 13.7202C6.65533 13.901 6.40604 13.9449 6.22512 13.8183C6.04413 13.6916 6.0001 13.4422 6.12677 13.2612L6.45448 13.4906C6.12677 13.2612 6.12686 13.2611 6.12695 13.261L6.12718 13.2606L6.12776 13.2598L6.1294 13.2575L6.13465 13.2501L6.15294 13.225C6.16857 13.2038 6.19105 13.1738 6.22022 13.1364C6.27852 13.0615 6.36369 12.9564 6.47427 12.8312C6.69503 12.5812 7.01929 12.2486 7.43563 11.9154C8.26438 11.2523 9.48688 10.5649 10.9999 10.5649C12.5129 10.5649 13.7354 11.2523 14.5642 11.9154C14.9805 12.2486 15.3048 12.5812 15.5255 12.8312C15.6361 12.9564 15.7213 13.0615 15.7796 13.1364C15.8087 13.1738 15.8312 13.2038 15.8469 13.225L15.8651 13.2501L15.8704 13.2575L15.872 13.2598L15.8726 13.2606L15.8728 13.261C15.8729 13.2611 15.873 13.2612 15.5678 13.4749L15.873 13.2612C15.9997 13.4422 15.9557 13.6916 15.7747 13.8183C15.5938 13.9449 15.3447 13.901 15.2179 13.7204L15.2179 13.7204L15.2178 13.7203L15.2178 13.7202L15.2177 13.72L15.2176 13.7199L15.2152 13.7166L15.2027 13.6994C15.1911 13.6837 15.1729 13.6594 15.1483 13.6278C15.0991 13.5645 15.0244 13.4723 14.9259 13.3607C14.7284 13.1371 14.4372 12.8384 14.0644 12.5401C13.3149 11.9404 12.2646 11.3649 10.9999 11.3649C9.73515 11.3649 8.68494 11.9404 7.93543 12.5401C7.56263 12.8384 7.27137 13.1371 7.07389 13.3607C6.97535 13.4723 6.90071 13.5645 6.8515 13.6278C6.8269 13.6594 6.8087 13.6837 6.79708 13.6994L6.78461 13.7166L6.78219 13.7199L6.78214 13.72ZM10.9999 15.9991C11.8283 15.9991 12.4999 15.3273 12.4999 14.4986C12.4999 13.6699 11.8283 12.9981 10.9999 12.9981C10.1715 12.9981 9.49989 13.6699 9.49989 14.4986C9.49989 15.3273 10.1715 15.9991 10.9999 15.9991Z" fill="black"/>
</g>
<defs>
<clipPath id="clip0_241_9252">
<rect width="16" height="16" fill="white"/>
</clipPath>
</defs>
</svg>
