<svg width="16" height="16" viewBox="0 0 16 16" fill="none" xmlns="http://www.w3.org/2000/svg">
<g id="simplify" clip-path="url(#clip0_241_9668)">
<path id="Union" fill-rule="evenodd" clip-rule="evenodd" d="M8.50098 0.5C8.50098 0.223858 8.27712 0 8.00098 0C7.72483 0 7.50098 0.223858 7.50098 0.5V15.5C7.50098 15.7761 7.72483 16 8.00098 16C8.27712 16 8.50098 15.7761 8.50098 15.5V0.5ZM10.6408 15.0318C10.29 15.2925 9.90349 15.4812 9.50098 15.598V14.539C9.69093 14.4594 9.87351 14.3561 10.0444 14.2291C10.4796 13.9057 10.9868 13.6846 11.5178 13.5834C12.623 13.3726 13.4914 12.493 13.6764 11.3892L13.7078 11.2016C13.7982 10.6626 14.002 10.1445 14.3 9.68822C14.9644 8.67089 14.9644 7.32844 14.3 6.31112C14.002 5.85483 13.7982 5.33676 13.7078 4.79774L13.6764 4.61019C13.4914 3.50633 12.623 2.62673 11.5178 2.41596C10.9868 2.31469 10.4796 2.09364 10.0444 1.7702C9.87351 1.64325 9.69093 1.53995 9.50098 1.46031V0.401367C9.90349 0.518144 10.29 0.706872 10.6408 0.967552C10.9536 1.20001 11.3207 1.36033 11.7052 1.43366C13.2156 1.72172 14.4075 2.92262 14.6626 4.44487L14.6941 4.63243C14.7613 5.03384 14.9138 5.42224 15.1373 5.7643C16.0187 7.11388 16.0187 8.88546 15.1373 10.235C14.9138 10.5771 14.7613 10.9655 14.6941 11.3669L14.6626 11.5545C14.4075 13.0767 13.2156 14.2776 11.7052 14.5657C11.3207 14.639 10.9536 14.7993 10.6408 15.0318Z" fill="black"/>
<path class="warning" fill-rule="evenodd" clip-rule="evenodd" d="M0.000976562 8.00063V7.99937L2.65666 6.28558L1.90381 3.05025L4.90804 3.86102L6.5 1L6.50098 1.00176V14.9982L6.5 15L4.90804 12.139L1.90381 12.9497L2.65666 9.71442L0.000976562 8.00063Z" fill="#9E9E9E"/>
</g>
<defs>
<clipPath id="clip0_241_9668">
<rect width="16" height="16" fill="white"/>
</clipPath>
</defs>
</svg>
