<svg width="16" height="16" viewBox="0 0 16 16" fill="none" xmlns="http://www.w3.org/2000/svg">
<g id="skeletal" clip-path="url(#clip0_241_9249)">
<path class="warning" fill-rule="evenodd" clip-rule="evenodd" d="M13.501 5C14.8817 5 16.001 3.88071 16.001 2.5C16.001 1.11929 14.8817 0 13.501 0C12.1203 0 11.001 1.11929 11.001 2.5C11.001 3.88071 12.1203 5 13.501 5ZM12.0704 10.9651C12.1412 11.0492 12.2099 11.136 12.276 11.2249L11.0012 12.4996L12.6074 14.1058C12.4988 14.1872 12.3687 14.2573 12.2151 14.314C10.0772 15.1036 7.69484 14.7589 6.00103 12.5002C5.04011 11.2188 4.81788 10.1099 4.62453 9.14499C4.47222 8.38495 4.33782 7.7143 3.87441 7.1192C3.80264 7.02704 3.73305 6.93178 3.66638 6.83423L5.00098 5.49964L3.43945 3.93811C3.54752 3.86681 3.67518 3.80701 3.82421 3.76068C5.95249 3.09905 8.31705 3.64139 10.001 5.99953C10.9456 7.32227 11.1764 8.35929 11.3676 9.21858C11.5177 9.89277 11.6434 10.4575 12.0704 10.9651Z" fill="#9E9E9E"/>
<path id="Union" fill-rule="evenodd" clip-rule="evenodd" d="M3.35363 3.14652L3.00008 2.79297L2.64652 3.14652L0.646522 5.14652L0.292969 5.50008L0.646522 5.85363L2.64652 7.85363L3.00008 8.20718L3.35363 7.85363L5.15365 6.05361L5.33291 6.09843C6.1389 6.29993 6.79214 6.88865 7.07606 7.66943L8.12263 10.5475C8.35141 11.1766 8.75396 11.7223 9.27724 12.1251H2.92832C2.77999 11.7586 2.42068 11.5 2.00098 11.5C1.44869 11.5 1.00098 11.9477 1.00098 12.5C1.00098 13.0523 1.44869 13.5 2.00098 13.5C2.42062 13.5 2.77989 13.2415 2.92826 12.8751H10.633L10.7049 12.911L12.6475 14.8536L13.0011 15.2072L13.3546 14.8536L15.3546 12.8536L15.7082 12.5001L15.3546 12.1465L13.3546 10.1465L13.0011 9.79297L12.6475 10.1465L10.9023 11.8917L10.2939 11.5875C9.72174 11.3014 9.28102 10.8069 9.06242 10.2058L8.01585 7.32768C7.61837 6.2346 6.70383 5.41038 5.57545 5.12829L5.25537 5.04827L3.35363 3.14652ZM3.00008 6.79297L1.70718 5.50008L3.00008 4.20718L4.29297 5.50008L3.00008 6.79297ZM11.7082 12.5001L13.0011 13.793L14.2939 12.5001L13.0011 11.2072L11.7082 12.5001Z" fill="black"/>
</g>
<defs>
<clipPath id="clip0_241_9249">
<rect width="16" height="16" fill="white"/>
</clipPath>
</defs>
</svg>
