<svg width="16" height="16" viewBox="0 0 16 16" fill="none" xmlns="http://www.w3.org/2000/svg">
<g id="sketch" clip-path="url(#clip0_241_9741)">
<path class="warning" fill-rule="evenodd" clip-rule="evenodd" d="M-0.000197022 4.4526C-0.000197022 4.48227 0.0129833 4.51042 0.0357795 4.52942L1.95342 6.12767L0.00577706 11.4834C0.00179135 11.4944 -0.000246436 11.5059 -0.000244139 11.5176L-0.000165285 11.9206C-0.000156173 11.9671 0.0319814 12.0075 0.0773462 12.018L2.00013 12.4617V3.58288L0.0793961 3.98326C0.0330296 3.99293 -0.000197018 4.0338 -0.000197018 4.08116L-0.000197022 4.4526ZM5.97746 15.9315L5.33357 14.0001H12.4999L12.9689 15.8759C12.9847 15.939 12.937 16.0001 12.8719 16.0002L12.52 16.0003C12.5068 16.0003 12.4937 15.9977 12.4815 15.9926L8.64259 14.3931L6.52649 15.9801C6.50916 15.9931 6.48809 16.0001 6.46643 16.0001L6.07226 15.9999C6.02925 15.9998 5.99107 15.9723 5.97746 15.9315ZM15.9262 11.5202L14.0001 12.0454V8.24914L15.9813 10.9734C15.9938 10.9905 16.0005 11.0112 16.0004 11.0323L15.9999 11.4239C15.9998 11.4689 15.9697 11.5084 15.9262 11.5202ZM15.9773 4.52757L14.0001 6.94386V3.69268L15.9153 3.9874C15.9641 3.99491 16.0001 4.03691 16 4.08628L15.9999 4.46429C15.9998 4.48736 15.9919 4.50972 15.9773 4.52757ZM11.0162 0.0816372L11.3647 2.00008H3.50013H2.99995L3.48103 0.0760061C3.49216 0.0315023 3.53214 0.00027737 3.57801 0.000262978L3.97424 0.000138667C3.99098 0.000133414 4.00746 0.00433172 4.02216 0.0123486L7.10821 1.6956L10.4795 0.0104481C10.4934 0.00352351 10.5086 -8.87363e-05 10.5241 -0.00010386L10.9177 -0.000488233C10.9661 -0.000535419 11.0075 0.0340454 11.0162 0.0816372ZM5.00013 8.85709V11.0001H11.0001V5.00008H8.50013L11.0001 10.9999L5.00013 8.85709ZM5.00013 7.72209L8.49986 5.00008H5.00013V7.72209Z" fill="#9E9E9E"/>
<path id="Union" fill-rule="evenodd" clip-rule="evenodd" d="M3 3H3.5H12.5H13V3.5V12.5V13H12.5H3.5H3V12.5V3.5V3ZM4 4V12H12V4H4Z" fill="black"/>
</g>
<defs>
<clipPath id="clip0_241_9741">
<rect width="16" height="16" fill="white"/>
</clipPath>
</defs>
</svg>
