<svg width="16" height="16" viewBox="0 0 16 16" fill="none" xmlns="http://www.w3.org/2000/svg">
<g id="slice" clip-path="url(#clip0_241_9248)">
<path class="warning" fill-rule="evenodd" clip-rule="evenodd" d="M12.0817 10.0449L12.8934 14.7774C12.9354 15.0224 12.6782 15.2093 12.4581 15.0936L8.69067 13.113L12.0817 10.0449Z" fill="#9E9E9E"/>
<path id="Union" fill-rule="evenodd" clip-rule="evenodd" d="M10.4284 4.92031C10.4593 4.98289 10.5105 5.0319 10.5724 5.06027L9.86635 5.86723C9.70372 5.74205 9.56912 5.57999 9.47562 5.39054L8.00012 2.40084L6.52461 5.39054C6.32615 5.79267 5.94252 6.07139 5.49874 6.13588L2.19941 6.6153L4.56268 8.91892C4.94239 9.28904 5.07287 9.84584 4.89714 10.3461L4.1928 12.3513L2.31138 14.5015L2.33924 14.4222L2.46562 14.0624L2.48549 14.0058L3.89468 9.99401C3.93338 9.88385 3.90465 9.76125 3.82104 9.67976L0.874704 6.80779L0.854185 6.78779L0.631748 6.57097L0.351422 6.29772C0.173367 6.12416 0.271621 5.82177 0.517687 5.78601L0.905085 5.72972L1.21249 5.68505L1.24084 5.68093L5.34595 5.08442C5.44366 5.07022 5.52813 5.00885 5.57183 4.92031L7.40769 1.20045L7.42037 1.17476L7.55785 0.896204L7.7311 0.54516C7.84114 0.322186 8.15909 0.322187 8.26914 0.54516L8.44239 0.896203L8.57986 1.17476L8.59254 1.20045L10.4284 4.92031ZM14.8613 4.34561C15.0522 4.14606 15.0452 3.82956 14.8456 3.63868C14.6461 3.4478 14.3296 3.45484 14.1387 3.65439L13.7949 4.01376C13.6041 4.21332 13.6111 4.52982 13.8106 4.7207C14.0102 4.91157 14.3267 4.90454 14.5176 4.70499L14.8613 4.34561ZM12.4551 6.86124C12.6459 6.66168 12.6389 6.34518 12.4394 6.1543C12.2398 5.96343 11.9233 5.97046 11.7324 6.17001L11.0449 6.88876C10.8541 7.08832 10.8611 7.40482 11.0606 7.5957C11.2602 7.78657 11.5767 7.77954 11.7676 7.57999L12.4551 6.86124ZM9.70507 9.73624C9.89595 9.53668 9.88891 9.22018 9.68936 9.0293C9.48981 8.83843 9.17331 8.84546 8.98243 9.04501L8.29493 9.76376C8.10405 9.96332 8.11109 10.2798 8.31064 10.4707C8.51019 10.6616 8.8267 10.6545 9.01757 10.455L9.70507 9.73624ZM6.95507 12.6112C7.14595 12.4117 7.13891 12.0952 6.93936 11.9043C6.73981 11.7134 6.42331 11.7205 6.23243 11.92L5.54493 12.6388C5.35405 12.8383 5.36109 13.1548 5.56064 13.3457C5.76019 13.5366 6.0767 13.5295 6.26757 13.33L6.95507 12.6112ZM4.20507 15.4862C4.39595 15.2867 4.38891 14.9702 4.18936 14.7793C3.98981 14.5884 3.67331 14.5955 3.48243 14.795L3.13868 15.1544C2.9478 15.3539 2.95484 15.6704 3.15439 15.8613C3.35394 16.0522 3.67044 16.0452 3.86132 15.8456L4.20507 15.4862Z" fill="black"/>
</g>
<defs>
<clipPath id="clip0_241_9248">
<rect width="16" height="16" fill="white"/>
</clipPath>
</defs>
</svg>
