<svg width="16" height="16" viewBox="0 0 16 16" fill="none" xmlns="http://www.w3.org/2000/svg">
<g id="snap-nodes">
<path id="Subtract" fill-rule="evenodd" clip-rule="evenodd" d="M4.09631 8.59521C1.94012 9.91257 0.500977 12.2882 0.500977 14.9999C0.500977 15.276 0.724834 15.4999 1.00098 15.4999C1.27712 15.4999 1.50098 15.276 1.50098 14.9999C1.50098 12.5626 2.84237 10.4387 4.82717 9.32608L4.09631 8.59521ZM11.1748 9.32608C13.1596 10.4387 14.501 12.5626 14.501 14.9999C14.501 15.276 14.7248 15.4999 15.001 15.4999C15.2771 15.4999 15.501 15.276 15.501 14.9999C15.501 12.2882 14.0618 9.91257 11.9056 8.59521L11.1748 9.32608Z" fill="black"/>
<path id="base" d="M10.5 8L8 10.5L5.5 8L8 5.5L10.5 8Z" fill="black"/>
</g>
</svg>
