<svg width="16" height="16" viewBox="0 0 16 16" fill="none" xmlns="http://www.w3.org/2000/svg">
<g id="snap-text-baseline">
<path id="Union" d="M5.74698 11H3.29102L6.481 1.54541H9.52326L12.7132 11H10.2573L8.03675 3.92751H7.96289L5.74698 11ZM5.41921 7.27908H10.5527V9.01487H5.41921V7.27908Z" fill="black"/>
<path class="error" fill-rule="evenodd" clip-rule="evenodd" d="M2.5 15C3.32843 15 4 14.3284 4 13.5C4 12.6716 3.32843 12 2.5 12C1.67157 12 1 12.6716 1 13.5C1 14.3284 1.67157 15 2.5 15ZM5.00094 13.5C5.00094 13.6712 4.98372 13.8384 4.95093 14H14.4999C14.776 14 14.9999 13.7761 14.9999 13.5C14.9999 13.2239 14.776 13 14.4999 13H4.95093C4.98372 13.1616 5.00094 13.3288 5.00094 13.5Z" fill="black"/>
</g>
</svg>
