<svg width="16" height="16" viewBox="0 0 16 16" fill="none" xmlns="http://www.w3.org/2000/svg">
<g id="snap-nodes-midpoint" clip-path="url(#clip0_241_9239)">
<path id="Union" fill-rule="evenodd" clip-rule="evenodd" d="M15.4343 1.43431L16 2L15.4343 2.56569L14.5657 3.43431L14 4L13.4343 3.43431L12.5657 2.56569L12 2L12.5657 1.43431L13.4343 0.565685L14 0L14.5657 0.565685L15.4343 1.43431ZM14 1.13137L13.1314 2L14 2.86863L14.8686 2L14 1.13137ZM5.55561 9.73833L3.14746 12.1465L3.85457 12.8536L6.26271 10.4454C5.98945 10.2508 5.7502 10.0116 5.55561 9.73833ZM9.73924 5.55469C10.0125 5.74928 10.2518 5.98853 10.4464 6.26179L12.8546 3.85359L12.1474 3.14648L9.73924 5.55469ZM4 14L3.43431 13.4343L2.56569 12.5657L2 12L1.43431 12.5657L0.565685 13.4343L0 14L0.565685 14.5657L1.43431 15.4343L2 16L2.56569 15.4343L3.43431 14.5657L4 14ZM1.13137 14L2 13.1314L2.86863 14L2 14.8686L1.13137 14Z" fill="black"/>
<circle class="error" cx="8.00195" cy="8" r="2" fill="black"/>
</g>
<defs>
<clipPath id="clip0_241_9239">
<rect width="16" height="16" fill="white"/>
</clipPath>
</defs>
</svg>
