<svg width="16" height="16" viewBox="0 0 16 16" fill="none" xmlns="http://www.w3.org/2000/svg">
<g id="snap-bounding-box-midpoints" clip-path="url(#clip0_241_9411)">
<path id="Subtract" fill-rule="evenodd" clip-rule="evenodd" d="M15.002 2V3.8H14.502H14.002V2L12.202 2V1.5V1H14.002C14.5542 1 15.002 1.44772 15.002 2ZM14.002 15H12.202V14.5V14H14.002V12.2H14.502H15.002V14C15.002 14.5523 14.5542 15 14.002 15ZM3.80195 14.5V15H2.00195C1.44967 15 1.00195 14.5523 1.00195 14V12.2H1.50195H2.00195L2.00195 14H3.80195V14.5ZM1.50195 3.8H1.00195V2C1.00195 1.44772 1.44967 1 2.00195 1H3.80195V1.5V2L2.00195 2L2.00195 3.8H1.50195Z" fill="black"/>
<path class="error" fill-rule="evenodd" clip-rule="evenodd" d="M8 3C8.82843 3 9.5 2.32843 9.5 1.5C9.5 0.671573 8.82843 0 8 0C7.17157 0 6.5 0.671573 6.5 1.5C6.5 2.32843 7.17157 3 8 3ZM14.5 9.5C15.3284 9.5 16 8.82843 16 8C16 7.17157 15.3284 6.5 14.5 6.5C13.6716 6.5 13 7.17157 13 8C13 8.82843 13.6716 9.5 14.5 9.5ZM9.5 14.5C9.5 15.3284 8.82843 16 8 16C7.17157 16 6.5 15.3284 6.5 14.5C6.5 13.6716 7.17157 13 8 13C8.82843 13 9.5 13.6716 9.5 14.5ZM1.5 9.5C2.32843 9.5 3 8.82843 3 8C3 7.17157 2.32843 6.5 1.5 6.5C0.671573 6.5 0 7.17157 0 8C0 8.82843 0.671573 9.5 1.5 9.5Z" fill="black"/>
</g>
<defs>
<clipPath id="clip0_241_9411">
<rect width="16" height="16" fill="white"/>
</clipPath>
</defs>
</svg>
