<svg width="16" height="16" viewBox="0 0 16 16" fill="none" xmlns="http://www.w3.org/2000/svg">
<g id="snap-nodes-cusp">
<path id="Subtract" fill-rule="evenodd" clip-rule="evenodd" d="M5.02438 6.37695C4.08346 6.95396 3.26247 7.77417 2.59411 8.70988C1.28835 10.5379 0.500977 12.8883 0.500977 15.0005C0.500977 15.2766 0.724834 15.5005 1.00098 15.5005C1.27712 15.5005 1.50098 15.2766 1.50098 15.0005C1.50098 13.1127 2.2136 10.9631 3.40784 9.29112C3.9661 8.50956 4.6157 7.85003 5.33049 7.3687C5.17436 7.06458 5.06864 6.73032 5.02438 6.37695ZM8.00098 9.00037C8.23959 9.00037 8.4717 8.97251 8.69422 8.91987C8.96268 10.714 9.49987 11.9542 10.2366 12.7963C11.3042 14.0164 12.8818 14.5005 15.001 14.5005C15.2771 14.5005 15.501 14.7244 15.501 15.0005C15.501 15.2766 15.2771 15.5005 15.001 15.5005C12.7452 15.5005 10.8227 14.9846 9.48406 13.4548C8.57326 12.4138 7.97642 10.9516 7.69308 8.98477C7.79431 8.99509 7.89703 9.00037 8.00098 9.00037Z" fill="black"/>
<circle class="error" cx="8" cy="6" r="2" fill="black"/>
</g>
</svg>
