<svg width="16" height="16" viewBox="0 0 16 16" fill="none" xmlns="http://www.w3.org/2000/svg">
<g id="snap">
<path id="neutral" opacity="0.3" fill-rule="evenodd" clip-rule="evenodd" d="M7.55509 6.63236L4.43697 3.56299L3.03164 4.96832C0.810182 7.18978 0.824387 10.7958 3.06327 12.9997C5.27736 15.1792 8.8348 15.1652 11.0316 12.9683L12.5 11.5L9.38169 8.43041L7.55321 10.2589C7.05275 10.7593 6.24135 10.7593 5.74089 10.2589C5.24043 9.75842 5.24043 8.94702 5.74089 8.44656L7.55509 6.63236Z" fill="black"/>
<path id="Union" fill-rule="evenodd" clip-rule="evenodd" d="M10.2719 12.6018L11.5761 11.2976L9.68604 9.40754L8.38181 10.7118C7.52747 11.5661 6.14232 11.5661 5.28798 10.7118C4.43364 9.85744 4.43364 8.47228 5.28798 7.61794L6.59221 6.31371L4.70215 4.42365L3.39792 5.72788C1.49973 7.62607 1.49973 10.7036 3.39792 12.6018C5.29611 14.5 8.37368 14.5 10.2719 12.6018ZM5.3429 3.7829L7.23296 5.67296L9.17806 3.72786L7.288 1.8378L5.3429 3.7829ZM10.3268 8.76679L12.2169 10.6569L14.162 8.71176L12.2719 6.82169L10.3268 8.76679ZM14.8027 9.35251L10.9126 13.2426C8.66056 15.4947 5.00924 15.4947 2.75717 13.2426C0.505097 10.9905 0.505098 7.3392 2.75717 5.08713L6.64725 1.19705C7.00112 0.843171 7.57487 0.843171 7.92875 1.19705L9.81881 3.08711C10.1727 3.44099 10.1727 4.01474 9.81881 4.36862L5.92873 8.2587C5.42827 8.75915 5.42827 9.57056 5.92873 10.071C6.42919 10.5715 7.2406 10.5715 7.74106 10.071L11.6311 6.18094C11.985 5.82706 12.5588 5.82706 12.9126 6.18094L14.8027 8.071C15.1566 8.42488 15.1566 8.99863 14.8027 9.35251Z" fill="black"/>
</g>
</svg>
