<svg width="16" height="16" viewBox="0 0 16 16" fill="none" xmlns="http://www.w3.org/2000/svg">
<g id="snap-nodes-rotation-center" clip-path="url(#clip0_241_9700)">
<path id="Union" fill-rule="evenodd" clip-rule="evenodd" d="M11 3C10.7239 3 10.5 3.22386 10.5 3.5C10.5 3.77614 10.7239 4 11 4C12.3807 4 13.5 5.11929 13.5 6.5V6.79289L12.8536 6.14645C12.6583 5.95118 12.3417 5.95118 12.1464 6.14645C11.9512 6.34171 11.9512 6.65829 12.1464 6.85355L13.6464 8.35355L14 8.70711L14.3536 8.35355L15.8536 6.85355C16.0488 6.65829 16.0488 6.34171 15.8536 6.14645C15.6583 5.95118 15.3417 5.95118 15.1464 6.14645L14.5 6.79289V6.5C14.5 4.567 12.933 3 11 3ZM1.5057 9.70141L0.853553 10.3536C0.658291 10.5488 0.341709 10.5488 0.146447 10.3536C-0.0488155 10.1583 -0.0488155 9.84171 0.146447 9.64645L1.64645 8.14645L2 7.79289L2.35355 8.14645L3.85355 9.64645C4.04882 9.84171 4.04882 10.1583 3.85355 10.3536C3.65829 10.5488 3.34171 10.5488 3.14645 10.3536L2.50923 9.71634C2.6189 10.9958 3.69217 12 5 12C5.27614 12 5.5 12.2239 5.5 12.5C5.5 12.7761 5.27614 13 5 13C3.1346 13 1.61005 11.5407 1.5057 9.70141Z" fill="black"/>
<circle class="error" cx="8.00098" cy="8" r="2" fill="black"/>
</g>
<defs>
<clipPath id="clip0_241_9700">
<rect width="16" height="16" fill="white"/>
</clipPath>
</defs>
</svg>
