<svg width="16" height="16" viewBox="0 0 16 16" fill="none" xmlns="http://www.w3.org/2000/svg">
<g id="snap-others">
<path id="Union" fill-rule="evenodd" clip-rule="evenodd" d="M6.80127 4.40867C6.80127 5.30559 7.52884 6.03315 8.42627 6.03315C9.3237 6.03315 10.0513 5.30559 10.0513 4.40867C10.0513 3.51174 9.3237 2.78418 8.42627 2.78418C7.52884 2.78418 6.80127 3.51174 6.80127 4.40867ZM8.42627 1.78418C6.9768 1.78418 5.80127 2.9592 5.80127 4.40867C5.80127 5.85813 6.9768 7.03315 8.42627 7.03315C9.87573 7.03315 11.0513 5.85813 11.0513 4.40867C11.0513 2.9592 9.87573 1.78418 8.42627 1.78418ZM11.1665 10.1778L9.63445 12.8314H12.6985L11.1665 10.1778ZM11.6397 8.99739C11.4294 8.6331 10.9036 8.6331 10.6933 8.99739L8.37562 13.0118C8.1653 13.3761 8.4282 13.8314 8.84883 13.8314H13.4841C13.9048 13.8314 14.1677 13.3761 13.9574 13.0118L11.6397 8.99739ZM3.00146 11.8883V9.17773H5.71192V11.8883H3.00146ZM2.00146 8.64883C2.00146 8.38865 2.21238 8.17773 2.47256 8.17773H6.24083C6.501 8.17773 6.71192 8.38865 6.71192 8.64883V12.4172C6.71192 12.6774 6.501 12.8883 6.24083 12.8883H2.47256C2.21238 12.8883 2.00146 12.6774 2.00146 12.4172V8.64883Z" fill="black"/>
</g>
</svg>
