<svg width="16" height="16" viewBox="0 0 16 16" fill="none" xmlns="http://www.w3.org/2000/svg">
<g id="snap-alignment">
<path id="Union" fill-rule="evenodd" clip-rule="evenodd" d="M5.00092 4.41435L5.41527 4H9.00008V6H5.00041L5.00092 4.41435ZM5.00106 3H9.50008C9.77622 3 10.0001 3.22386 10.0001 3.5V6.5C10.0001 6.77614 9.77622 7 9.50008 7H4.50024C4.22404 7 4.00015 6.77604 4.00024 6.49984L4.00099 4.20701C4.00103 4.07446 4.05371 3.94735 4.14744 3.85362L5.00106 3ZM5.00092 11.5857L5.00041 10H15.0001V12H5.41527L5.00092 11.5857ZM4.85461 12.8536L4.00106 12L4.00024 9.50016C4.00015 9.22396 4.22404 9 4.50024 9H15.5001C15.7762 9 16.0001 9.22386 16.0001 9.5V12.5C16.0001 12.7761 15.7762 13 15.5001 13H5.20816C5.07556 13 4.94838 12.9473 4.85461 12.8536Z" fill="black"/>
<path class="error" fill-rule="evenodd" clip-rule="evenodd" d="M4 1.5C4 2.15567 3.57932 2.71308 2.99315 2.91705C2.99766 2.94403 3 2.97174 3 3V13C3 13.0283 2.99766 13.056 2.99315 13.083C3.57932 13.2869 4 13.8443 4 14.5C4 15.3284 3.32843 16 2.5 16C1.67157 16 1 15.3284 1 14.5C1 13.8443 1.42068 13.2869 2.00685 13.083C2.00234 13.056 2 13.0283 2 13V3C2 2.97174 2.00234 2.94403 2.00685 2.91705C1.42068 2.71308 1 2.15567 1 1.5C1 0.671573 1.67157 0 2.5 0C3.32843 0 4 0.671573 4 1.5Z" fill="black"/>
</g>
</svg>
