<svg width="16" height="16" viewBox="0 0 16 16" fill="none" xmlns="http://www.w3.org/2000/svg">
<g id="snap-nodes-smooth">
<path id="Subtract" fill-rule="evenodd" clip-rule="evenodd" d="M10.9997 6.08789C10.9895 6.44254 10.9178 6.78177 10.7948 7.09526C11.8178 7.59619 12.5762 8.37848 13.135 9.30767C14.1336 10.9681 14.501 13.1172 14.501 14.9997C14.501 15.2759 14.7248 15.4997 15.001 15.4997C15.2771 15.4997 15.501 15.2759 15.501 14.9997C15.501 13.0162 15.1184 10.6654 13.992 8.7923C13.2961 7.63528 12.3193 6.66835 10.9997 6.08789ZM5.20715 7.09526C5.08416 6.78177 5.01243 6.44254 5.00224 6.08789C3.68267 6.66835 2.7058 7.63528 2.00999 8.7923C0.883564 10.6654 0.500977 13.0162 0.500977 14.9997C0.500977 15.2759 0.724834 15.4997 1.00098 15.4997C1.27712 15.4997 1.50098 15.2759 1.50098 14.9997C1.50098 13.1172 1.86839 10.9681 2.86696 9.30767C3.42576 8.37848 4.18418 7.59618 5.20715 7.09526Z" fill="black"/>
<circle class="error" cx="8" cy="6" r="2" fill="black"/>
</g>
</svg>
