<svg width="16" height="16" viewBox="0 0 16 16" fill="none" xmlns="http://www.w3.org/2000/svg">
<g id="snap-bounding-box">
<path id="base" fill-rule="evenodd" clip-rule="evenodd" d="M14 4.5V3C14 2.44772 13.5523 2 13 2L11.5 2V2.5V3L13 3V4.5H13.5H14ZM14 6.5H13.5H13L13 9.5H13.5H14L14 6.5ZM14 11.5H13.5H13V13H11.5V13.5V14H13C13.5523 14 14 13.5523 14 13V11.5ZM9.5 14V13.5V13L6.5 13V13.5V14L9.5 14ZM4.5 14V13.5V13H3L3 11.5H2.5H2L2 13C2 13.5523 2.44771 14 3 14H4.5ZM2 9.5H2.5H3L3 6.5H2.5H2L2 9.5ZM2 4.5H2.5H3L3 3L4.5 3V2.5V2L3 2C2.44772 2 2 2.44771 2 3L2 4.5ZM6.5 2V2.5V3L9.5 3V2.5V2L6.5 2Z" fill="black"/>
</g>
</svg>
