<svg width="16" height="16" viewBox="0 0 16 16" fill="none" xmlns="http://www.w3.org/2000/svg">
<g id="snap-grid-guide-intersections" clip-path="url(#clip0_241_9614)">
<path id="Subtract" fill-rule="evenodd" clip-rule="evenodd" d="M6.00015 0.398926C6.33152 0.398926 6.60015 0.667555 6.60015 0.998926V5.06094C6.4062 5.02155 6.20547 5.00088 5.9999 5.00088C5.79451 5.00088 5.59394 5.02152 5.40015 5.06084V0.998926C5.40015 0.667555 5.66878 0.398926 6.00015 0.398926ZM3.06031 7.39893H1.00015C0.668776 7.39893 0.400146 7.66755 0.400146 7.99893C0.400146 8.3303 0.668776 8.59893 1.00015 8.59893H3.05952C3.02042 8.40567 2.9999 8.20567 2.9999 8.00088C2.9999 7.79471 3.0207 7.5934 3.06031 7.39893ZM5.40015 10.9409V14.9989C5.40015 15.3303 5.66878 15.5989 6.00015 15.5989C6.33152 15.5989 6.60015 15.3303 6.60015 14.9989V10.9408C6.4062 10.9802 6.20547 11.0009 5.9999 11.0009C5.79451 11.0009 5.59394 10.9802 5.40015 10.9409ZM8.94029 8.59893H15.0001C15.3315 8.59893 15.6001 8.3303 15.6001 7.99893C15.6001 7.66755 15.3315 7.39893 15.0001 7.39893H8.9395C8.97911 7.5934 8.9999 7.79471 8.9999 8.00088C8.9999 8.20567 8.97938 8.40567 8.94029 8.59893Z" fill="black"/>
<circle class="error" cx="6" cy="8" r="2" fill="black"/>
</g>
<defs>
<clipPath id="clip0_241_9614">
<rect width="16" height="16" fill="white"/>
</clipPath>
</defs>
</svg>
