<svg width="16" height="16" viewBox="0 0 16 16" fill="none" xmlns="http://www.w3.org/2000/svg">
<g id="snap-nodes-intersection" clip-path="url(#clip0_241_9240)">
<path id="Subtract" fill-rule="evenodd" clip-rule="evenodd" d="M10.1383 0.519367C10.4039 0.595229 10.5576 0.871972 10.4817 1.13749L9.2946 5.29247C8.99779 5.1504 8.67398 5.0557 8.33296 5.01816L9.52021 0.862768C9.59608 0.597251 9.87282 0.443505 10.1383 0.519367ZM5.04243 7.50013H1.00098C0.724834 7.50013 0.500977 7.72399 0.500977 8.00013C0.500977 8.27627 0.724834 8.50013 1.00098 8.50013H5.04248C5.01518 8.33748 5.00098 8.1704 5.00098 8C5.00098 7.82969 5.01517 7.66269 5.04243 7.50013ZM6.70742 10.7076L5.52021 14.8628C5.44435 15.1283 5.5981 15.405 5.86362 15.4809C6.12913 15.5568 6.40588 15.403 6.48174 15.1375L7.66906 10.9818C7.32804 10.9443 7.00423 10.8496 6.70742 10.7076ZM10.9595 8.50013H15.001C15.2771 8.50013 15.501 8.27627 15.501 8.00013C15.501 7.72399 15.2771 7.50013 15.001 7.50013H10.9595C10.9868 7.66269 11.001 7.82969 11.001 8C11.001 8.1704 10.9868 8.33748 10.9595 8.50013Z" fill="black"/>
<circle class="error" cx="8" cy="8" r="2" fill="black"/>
</g>
<defs>
<clipPath id="clip0_241_9240">
<rect width="16" height="16" fill="white"/>
</clipPath>
</defs>
</svg>
