<svg width="16" height="16" viewBox="0 0 16 16" fill="none" xmlns="http://www.w3.org/2000/svg">
<g id="snap-distribution">
<path id="Union" fill-rule="evenodd" clip-rule="evenodd" d="M2.00098 15C1.44869 15 1.00098 14.5523 1.00098 14V2C1.00098 1.44772 1.44869 1 2.00098 1H4.00098C4.55326 1 5.00098 1.44771 5.00098 2V4.75C5.00098 5.02614 4.77712 5.25 4.50098 5.25C4.22483 5.25 4.00098 5.02614 4.00098 4.75V2L2.00098 2V14H4.00098V11.25C4.00098 10.9739 4.22483 10.75 4.50098 10.75C4.77712 10.75 5.00098 10.9739 5.00098 11.25V14C5.00098 14.5523 4.55326 15 4.00098 15H2.00098ZM14.001 15C14.5533 15 15.001 14.5523 15.001 14V2C15.001 1.44772 14.5533 1 14.001 1H12.001C11.4487 1 11.001 1.44771 11.001 2V4.75C11.001 5.02614 11.2248 5.25 11.501 5.25C11.7771 5.25 12.001 5.02614 12.001 4.75V2L14.001 2V14H12.001V11.25C12.001 10.9739 11.7771 10.75 11.501 10.75C11.2248 10.75 11.001 10.9739 11.001 11.25V14C11.001 14.5523 11.4487 15 12.001 15H14.001Z" fill="black"/>
<path class="error" fill-rule="evenodd" clip-rule="evenodd" d="M4.5 9.5C5.15567 9.5 5.71308 9.07932 5.91705 8.49315C5.94403 8.49766 5.97174 8.5 6 8.5H10C10.0283 8.5 10.056 8.49766 10.083 8.49315C10.2869 9.07932 10.8443 9.5 11.5 9.5C12.3284 9.5 13 8.82843 13 8C13 7.17157 12.3284 6.5 11.5 6.5C10.8443 6.5 10.2869 6.92068 10.083 7.50685C10.056 7.50234 10.0283 7.5 10 7.5H6C5.97174 7.5 5.94403 7.50234 5.91705 7.50685C5.71308 6.92068 5.15567 6.5 4.5 6.5C3.67157 6.5 3 7.17157 3 8C3 8.82843 3.67157 9.5 4.5 9.5Z" fill="black"/>
</g>
</svg>
