<svg width="16" height="16" viewBox="0 0 16 16" fill="none" xmlns="http://www.w3.org/2000/svg">
<g id="snap-bounding-box-center">
<path id="Union" fill-rule="evenodd" clip-rule="evenodd" d="M15.002 3.8V2C15.002 1.44772 14.5542 1 14.002 1L12.202 1V1.5V2L14.002 2V3.8H14.502H15.002ZM12.202 15H14.002C14.5542 15 15.002 14.5523 15.002 14V12.2H14.502H14.002V14H12.202V14.5V15ZM15.002 6.2H14.502H14.002L14.002 9.8H14.502H15.002L15.002 6.2ZM9.80195 15V14.5V14L6.20195 14V14.5V15L9.80195 15ZM3.80195 15V14.5V14H2.00195L2.00195 12.2H1.50195H1.00195L1.00195 14C1.00195 14.5523 1.44967 15 2.00195 15H3.80195ZM1.00195 9.8H1.50195H2.00195L2.00195 6.2H1.50195L1.00195 6.2L1.00195 9.8ZM1.00195 3.8H1.50195H2.00195L2.00195 2L3.80195 2V1.5V1L2.00195 1C1.44967 1 1.00195 1.44772 1.00195 2L1.00195 3.8ZM6.20195 1L6.20195 1.5V2L9.80195 2V1.5V1L6.20195 1Z" fill="black"/>
<circle class="error" cx="8" cy="8" r="2" fill="black"/>
</g>
</svg>
