<svg width="16" height="16" viewBox="0 0 16 16" fill="none" xmlns="http://www.w3.org/2000/svg">
<g id="snap-nodes-center" clip-path="url(#clip0_241_9241)">
<path id="Union" fill-rule="evenodd" clip-rule="evenodd" d="M2.50008 0.292969L2.85363 0.646522L4.20718 2.00008L11.7939 2.00008L13.1475 0.646522L13.5011 0.292969L13.8546 0.646522L15.3546 2.14652L15.7082 2.50008L15.3546 2.85363L14.0011 4.20718V11.793L15.3546 13.1465L15.7082 13.5001L15.3546 13.8536L13.8546 15.3536L13.5011 15.7072L13.1475 15.3536L11.7939 14.0001H4.20718L2.85363 15.3536L2.50008 15.7072L2.14652 15.3536L0.646522 13.8536L0.292969 13.5001L0.646522 13.1465L2.00008 11.793V4.20718L0.646522 2.85363L0.292969 2.50008L0.646522 2.14652L2.14652 0.646522L2.50008 0.292969ZM11.7939 3.00008L4.20718 3.00008L3.00008 4.20718V11.793L4.20718 13.0001H11.7939L13.0011 11.793V4.20718L11.7939 3.00008ZM1.70718 2.50008L2.50008 3.29297L3.29297 2.50008L2.50008 1.70718L1.70718 2.50008ZM2.50008 14.293L1.70718 13.5001L2.50008 12.7072L3.29297 13.5001L2.50008 14.293ZM13.5011 14.293L12.7082 13.5001L13.5011 12.7072L14.2939 13.5001L13.5011 14.293ZM13.5011 3.29297L12.7082 2.50008L13.5011 1.70718L14.2939 2.50008L13.5011 3.29297Z" fill="black"/>
<circle class="error" cx="8.00098" cy="8" r="2" fill="black"/>
</g>
<defs>
<clipPath id="clip0_241_9241">
<rect width="16" height="16" fill="white"/>
</clipPath>
</defs>
</svg>
