<svg width="16" height="16" viewBox="0 0 16 16" fill="none" xmlns="http://www.w3.org/2000/svg">
<g id="snap-lines-tangential">
<path id="Union" fill-rule="evenodd" clip-rule="evenodd" d="M2.5 0.5C2.77614 0.5 3 0.723858 3 1V5C2.64935 5.00011 2.31276 5.06038 2 5.17105V1C2 0.723858 2.22386 0.5 2.5 0.5ZM2 10.8289V15C2 15.2761 2.22386 15.5 2.5 15.5C2.77614 15.5 3 15.2761 3 15V11C2.64935 10.9999 2.31276 10.9396 2 10.8289ZM3.72011 10.9133C4.7474 12.7711 6.72678 14.0292 9 14.0292C12.3298 14.0292 15.0292 11.3298 15.0292 8C15.0292 4.67018 12.3298 1.97083 9 1.97083C6.72678 1.97083 4.7474 3.22889 3.72011 5.08675C4.07216 5.17336 4.39977 5.32212 4.69063 5.52072C5.54923 4.03155 7.15756 3.02917 9 3.02917C11.7453 3.02917 13.9708 5.25468 13.9708 8C13.9708 10.7453 11.7453 12.9708 9 12.9708C7.15756 12.9708 5.54923 11.9684 4.69063 10.4793C4.39977 10.6779 4.07216 10.8266 3.72011 10.9133Z" fill="black"/>
<circle class="error" cx="3.00195" cy="8" r="2" fill="black"/>
</g>
</svg>
