<svg width="16" height="16" viewBox="0 0 16 16" fill="none" xmlns="http://www.w3.org/2000/svg">
<g id="snap-nodes-path">
<path id="Subtract" fill-rule="evenodd" clip-rule="evenodd" d="M1.5 3.5H12.5C13.6046 3.5 14.5 4.39543 14.5 5.5C14.5 6.60457 13.6046 7.5 12.5 7.5H10.9595C10.9868 7.6626 11.001 7.82964 11.001 8C11.001 8.17036 10.9868 8.3374 10.9595 8.5H12.5C14.1569 8.5 15.5 7.15685 15.5 5.5C15.5 3.84315 14.1569 2.5 12.5 2.5H1.5V3.5ZM5.04246 8.5C5.01518 8.3374 5.00098 8.17036 5.00098 8C5.00098 7.82964 5.01518 7.6626 5.04246 7.5H3.5C1.84315 7.5 0.5 8.84315 0.5 10.5C0.5 12.1569 1.84315 13.5 3.5 13.5H14.5V12.5H3.5C2.39543 12.5 1.5 11.6046 1.5 10.5C1.5 9.39543 2.39543 8.5 3.5 8.5H5.04246Z" fill="black"/>
<circle class="error" cx="8" cy="8" r="2" fill="black"/>
</g>
</svg>
