<svg width="16" height="16" viewBox="0 0 16 16" fill="none" xmlns="http://www.w3.org/2000/svg">
<g id="snap-page">
<path class="error" fill-rule="evenodd" clip-rule="evenodd" d="M2.5 5.5C2.77614 5.5 3 5.72386 3 6V10C3 10.2761 2.77614 10.5 2.5 10.5C2.22386 10.5 2 10.2761 2 10V6C2 5.72386 2.22386 5.5 2.5 5.5ZM6 14.5C6 14.2239 6.22386 14 6.5 14H9.5C9.77614 14 10 14.2239 10 14.5C10 14.7761 9.77614 15 9.5 15H6.5C6.22386 15 6 14.7761 6 14.5ZM3 12.5C3 12.2239 2.77614 12 2.5 12C2.22386 12 2 12.2239 2 12.5V14C2 14.5523 2.44772 15 3 15H4.5C4.77614 15 5 14.7761 5 14.5C5 14.2239 4.77614 14 4.5 14H3V12.5Z" fill="black"/>
<path id="Union" fill-rule="evenodd" clip-rule="evenodd" d="M2 2C2 1.44772 2.44772 1 3 1H8H9H9.58676C9.85198 1 10.1063 1.10536 10.2939 1.29289L13.7081 4.70711C13.8956 4.89464 14.001 5.149 14.001 5.41421V7H14V14C14 14.5523 13.5523 15 13 15H11.5C11.2239 15 11 14.7761 11 14.5C11 14.2239 11.2239 14 11.5 14H13V6H10.001C9.44869 6 9.00098 5.55228 9.00098 5V2H9H8H3V3.5C3 3.77614 2.77614 4 2.5 4C2.22386 4 2 3.77614 2 3.5V2ZM10.001 2.41421L12.5868 5H10.001V2.41421Z" fill="black"/>
</g>
</svg>
