<svg width="16" height="16" viewBox="0 0 16 16" fill="none" xmlns="http://www.w3.org/2000/svg">
<g id="snap-alignment-self">
<path id="Union" fill-rule="evenodd" clip-rule="evenodd" d="M14.001 13C14.001 13.5523 13.5533 14 13.001 14L3.00098 14C2.44869 14 2.00098 13.5523 2.00098 13L2.00098 11.5C2.00098 11.2239 2.22483 11 2.50098 11C2.77712 11 3.00098 11.2239 3.00098 11.5L3.00098 13L13.001 13V11.5C13.001 11.2239 13.2248 11 13.501 11C13.7771 11 14.001 11.2239 14.001 11.5V13ZM13.501 5C13.2248 5 13.001 4.77614 13.001 4.5L13.001 3L3.00098 3L3.00098 4.5C3.00098 4.77614 2.77712 5 2.50098 5C2.22483 5 2.00098 4.77614 2.00098 4.5L2.00098 3C2.00098 2.44772 2.44869 2 3.00098 2L13.001 2C13.5533 2 14.001 2.44772 14.001 3L14.001 4.5C14.001 4.77614 13.7771 5 13.501 5Z" fill="black"/>
<path class="error" fill-rule="evenodd" clip-rule="evenodd" d="M3.91465 8.5C3.70873 9.0826 3.15311 9.5 2.5 9.5C1.67157 9.5 1 8.82843 1 8C1 7.17157 1.67157 6.5 2.5 6.5C3.15311 6.5 3.70873 6.9174 3.91465 7.5H12.0854C12.2913 6.9174 12.8469 6.5 13.5 6.5C14.3284 6.5 15 7.17157 15 8C15 8.82843 14.3284 9.5 13.5 9.5C12.8469 9.5 12.2913 9.0826 12.0854 8.5H3.91465Z" fill="black"/>
</g>
</svg>
