<svg width="16" height="16" viewBox="0 0 16 16" fill="none" xmlns="http://www.w3.org/2000/svg">
<g id="spray-mode-copy">
<path id="Union" fill-rule="evenodd" clip-rule="evenodd" d="M10.0002 2H2.00024V10H5V6C5 5.44772 5.44772 5 6 5H10.0002V2ZM11.0002 5H14C14.5523 5 15 5.44772 15 6V14C15 14.5523 14.5523 15 14 15H6C5.44772 15 5 14.5523 5 14V11H2.00024C1.44796 11 1.00024 10.5523 1.00024 10V2C1.00024 1.44772 1.44796 1 2.00024 1H10.0002C10.5525 1 11.0002 1.44772 11.0002 2V5ZM6 6H14V14H6V6Z" fill="black"/>
</g>
</svg>
