<svg width="16" height="16" viewBox="0 0 16 16" fill="none" xmlns="http://www.w3.org/2000/svg">
<g id="sticky_zoom">
<g id="zoom">
<path id="Union" fill-rule="evenodd" clip-rule="evenodd" d="M10.8 7C10.8 9.09868 9.09868 10.8 7 10.8C4.90132 10.8 3.2 9.09868 3.2 7C3.2 4.90132 4.90132 3.2 7 3.2C9.09868 3.2 10.8 4.90132 10.8 7ZM10.0859 10.9344C9.236 11.6019 8.16449 12 7 12C4.23858 12 2 9.76142 2 7C2 4.23858 4.23858 2 7 2C9.76142 2 12 4.23858 12 7C12 8.16449 11.6019 9.236 10.9344 10.0859L14.4243 13.5757C14.6586 13.8101 14.6586 14.1899 14.4243 14.4243C14.1899 14.6586 13.8101 14.6586 13.5757 14.4243L10.0859 10.9344Z" fill="black"/>
</g>
</g>
</svg>
