<svg width="16" height="16" viewBox="0 0 16 16" fill="none" xmlns="http://www.w3.org/2000/svg">
<g id="stroke-to-path" clip-path="url(#clip0_241_9230)">
<path id="neutral" opacity="0.3" fill-rule="evenodd" clip-rule="evenodd" d="M14.999 3L13.0001 4.99951L11.0006 3C6.58248 3.00022 3.00098 6.58186 3.00098 11V11.0006L5.00049 13L3.00106 15L3.00098 14.9999V16H8.00098V14.9999L6.00098 12.9999L8.00041 11L8.10222 11.1018C8.44351 9.61428 9.61424 8.44325 11.1016 8.10151L11 7.99992L12.9994 6L14.9995 8H16.001V3H14.999Z" fill="black"/>
<path id="Union" fill-rule="evenodd" clip-rule="evenodd" d="M13.3535 0.646066L15.1076 2.40011H16.001V3.60011L15.1067 3.60011L13.3542 5.35313L13.2072 5.50022L13.3535 5.64655L15.1071 7.40011H16.001V8.60011H15.1072L13.3542 10.3536L13.0007 10.7073L12.647 10.3537L10.8014 8.50797C9.57971 8.6045 8.60515 9.5792 8.50883 10.8009L10.3546 12.6466L10.7081 13.0001L10.3546 13.3536L8.60101 15.1077V16.0001H7.40101V15.1067L5.64794 13.3536L5.50128 13.2069L5.35461 13.3536L3.60101 15.1077V16.0001H2.40101V15.1067L0.647944 13.3536L0.294434 13.0001L0.647901 12.6465L2.50354 10.7904C2.61316 6.26294 6.2629 2.61285 10.7902 2.50268L12.6464 0.646115L12.9999 0.29248L13.3535 0.646066ZM7.50742 10.7866C7.61352 9.02385 9.02423 7.61295 10.7869 7.50656L12.6464 5.6466L12.7934 5.49953L12.647 5.35318L10.7967 3.50284C6.8169 3.60927 3.61017 6.816 3.50374 10.7958L5.35456 12.6466L5.50122 12.7932L5.6479 12.6465L7.50742 10.7866ZM13 1.70677L14.293 2.9997L13.0006 4.29247L11.7076 2.9995L13 1.70677ZM13 6.70726L14.293 8.00019L13.0006 9.29296L11.7076 7.99999L13 6.70726ZM4.29395 13.0002L3.00098 11.7073L1.70856 13L3.00153 14.293L4.29395 13.0002ZM8.00098 11.7073L9.29395 13.0002L8.00153 14.293L6.70856 13L8.00098 11.7073Z" fill="black"/>
</g>
<defs>
<clipPath id="clip0_241_9230">
<rect width="16" height="16" fill="white"/>
</clipPath>
</defs>
</svg>
