<svg width="16" height="16" viewBox="0 0 16 16" fill="none" xmlns="http://www.w3.org/2000/svg">
<g id="swatches">
<path id="Union" opacity="0.5" fill-rule="evenodd" clip-rule="evenodd" d="M3 2C2.44772 2 2 2.44772 2 3V6C2 6.55228 2.44772 7 3 7H6C6.55228 7 7 6.55228 7 6V3C7 2.44772 6.55228 2 6 2H3ZM11 12V11H12V12H11ZM9 10C9 9.44772 9.44772 9 10 9H13C13.5523 9 14 9.44772 14 10V13C14 13.5523 13.5523 14 13 14H10C9.44772 14 9 13.5523 9 13V10Z" fill="black" fill-opacity="0.5"/>
<path id="Union_2" fill-rule="evenodd" clip-rule="evenodd" d="M6 3H3L3 6H6V3ZM3 2C2.44772 2 2 2.44772 2 3V6C2 6.55228 2.44772 7 3 7H6C6.55228 7 7 6.55228 7 6V3C7 2.44772 6.55228 2 6 2H3ZM6 10H3L3 13H6V10ZM3 9C2.44772 9 2 9.44772 2 10V13C2 13.5523 2.44772 14 3 14H6C6.55228 14 7 13.5523 7 13V10C7 9.44772 6.55228 9 6 9H3ZM10 10H13V13H10V10ZM9 10C9 9.44772 9.44772 9 10 9H13C13.5523 9 14 9.44772 14 10V13C14 13.5523 13.5523 14 13 14H10C9.44772 14 9 13.5523 9 13V10ZM12 4H11V5H12V4ZM10 3H13V6H10V3ZM9 3C9 2.44772 9.44772 2 10 2H13C13.5523 2 14 2.44772 14 3V6C14 6.55228 13.5523 7 13 7H10C9.44772 7 9 6.55228 9 6V3Z" fill="black"/>
</g>
</svg>
