<svg width="16" height="16" viewBox="0 0 16 16" fill="none" xmlns="http://www.w3.org/2000/svg">
<g id="switch-on" clip-path="url(#clip0_241_9307)">
<g id="on">
<path id="Union" fill-rule="evenodd" clip-rule="evenodd" d="M14 8C14 11.3137 11.3137 14 8 14C4.68629 14 2 11.3137 2 8C2 4.68629 4.68629 2 8 2C11.3137 2 14 4.68629 14 8ZM15 8C15 11.866 11.866 15 8 15C4.13401 15 1 11.866 1 8C1 4.13401 4.13401 1 8 1C11.866 1 15 4.13401 15 8ZM10.6464 5.64645C10.8417 5.45118 11.1583 5.45118 11.3536 5.64645C11.5488 5.84171 11.5488 6.15829 11.3536 6.35355L7.35355 10.3536L7 10.7071L6.64645 10.3536L4.64645 8.35355C4.45118 8.15829 4.45118 7.84171 4.64645 7.64645C4.84171 7.45118 5.15829 7.45118 5.35355 7.64645L7 9.29289L10.6464 5.64645Z" fill="black"/>
</g>
</g>
<defs>
<clipPath id="clip0_241_9307">
<rect width="16" height="16" fill="white"/>
</clipPath>
</defs>
</svg>
