<svg width="16" height="16" viewBox="0 0 16 16" fill="none" xmlns="http://www.w3.org/2000/svg">
<g id="symbols">
<path id="Union" fill-rule="evenodd" clip-rule="evenodd" d="M2.00091 1.03564C1.46835 1.03564 1.03662 1.46737 1.03662 1.99993V13.9999C1.03662 14.5325 1.46835 14.9642 2.00091 14.9642H14.0009C14.5335 14.9642 14.9652 14.5325 14.9652 13.9999V1.99993C14.9652 1.46737 14.5335 1.03564 14.0009 1.03564H2.00091ZM1.96519 1.99993C1.96519 1.98021 1.98118 1.96422 2.00091 1.96422H14.0009C14.0206 1.96422 14.0366 1.98021 14.0366 1.99993V13.9999C14.0366 14.0197 14.0206 14.0356 14.0009 14.0356H2.00091C1.98118 14.0356 1.96519 14.0197 1.96519 13.9999V1.99993ZM4.11406 5.1668C3.22489 6.05597 3.37144 7.37199 4.11406 8.38675C4.83273 9.3688 5.6334 10.0371 6.46505 10.7312C6.9694 11.1521 7.48515 11.5826 8.00091 12.0983C8.51672 11.5825 9.03255 11.1519 9.537 10.7309C10.3685 10.0369 11.1691 9.36865 11.8877 8.38675C12.6304 7.37204 12.7769 6.05597 11.8877 5.1668C10.9986 4.27764 9.55694 4.27764 8.66777 5.1668C8.22319 5.61139 8.00089 6.19408 8.00089 6.77678C8.00089 6.19408 7.7786 5.61139 7.33402 5.1668C6.44485 4.27764 5.00322 4.27764 4.11406 5.1668Z" fill="black"/>
</g>
</svg>
