<svg width="16" height="16" viewBox="0 0 16 16" fill="none" xmlns="http://www.w3.org/2000/svg">
<g id="taper-stroke">
<path class="warning" fill-rule="evenodd" clip-rule="evenodd" d="M10.1321 3H1V13H10.1321C8.77059 13 7.47298 12.4411 6.48761 11.5016C5.14261 10.2192 3.20773 8.50281 2.00098 8C3.20773 7.49719 5.14261 5.78083 6.48761 4.49843C7.47298 3.55893 8.77059 3 10.1321 3Z" fill="#9E9E9E"/>
<path id="Union" fill-rule="evenodd" clip-rule="evenodd" d="M12.4156 8.5C12.2097 9.0826 11.6541 9.5 11.001 9.5C10.1725 9.5 9.50098 8.82843 9.50098 8C9.50098 7.17157 10.1725 6.5 11.001 6.5C11.6541 6.5 12.2097 6.9174 12.4156 7.5H15.001V8.5H12.4156Z" fill="black"/>
<path id="Subtract" fill-rule="evenodd" clip-rule="evenodd" d="M2.00098 8C2.27172 7.86463 2.59743 7.65595 2.95828 7.39631C3.88732 6.72782 5.04923 5.72145 6.10531 4.7582C7.99758 3.03227 10.4398 2 13.001 2H14H15V3H14H13.001C10.7114 3 8.50436 3.92352 6.77919 5.49703C6.03855 6.17257 5.23802 6.87683 4.49441 7.47721C4.27044 7.65804 4.0459 7.8342 3.82516 8C4.0459 8.16581 4.27044 8.34196 4.49441 8.52279C5.23802 9.12317 6.03855 9.82743 6.77919 10.503C8.50436 12.0765 10.7114 13 13.001 13H14H15V14H14H13.001C10.4398 14 7.99758 12.9677 6.10531 11.2418C5.04923 10.2786 3.88732 9.27218 2.95828 8.60369C2.59743 8.34405 2.27172 8.13537 2.00098 8Z" fill="black"/>
</g>
</svg>
