<svg width="16" height="16" viewBox="0 0 16 16" fill="none" xmlns="http://www.w3.org/2000/svg">
<g id="text-remove-from-path">
<path id="neutral" fill-rule="evenodd" clip-rule="evenodd" d="M15.4988 5.953C15.5248 6.22792 15.323 6.47184 15.048 6.49782C10.5259 6.92506 6.92604 10.5249 6.49879 15.0471C6.47282 15.322 6.2289 15.5238 5.95398 15.4978C5.67906 15.4718 5.47725 15.2279 5.50323 14.953C5.97563 9.95289 9.95387 5.97465 14.954 5.50225C15.2289 5.47628 15.4728 5.67809 15.4988 5.953Z" fill="black"/>
<path id="neutral_2" fill-rule="evenodd" clip-rule="evenodd" d="M11.3546 10.6465C11.1593 10.4512 10.8427 10.4512 10.6474 10.6464C10.4522 10.8417 10.4522 11.1583 10.6474 11.3535L12.0438 12.7501L10.6474 14.1464C10.4522 14.3417 10.4522 14.6583 10.6474 14.8536C10.8427 15.0488 11.1593 15.0488 11.3545 14.8536L12.7508 13.4573L14.1469 14.8535C14.3422 15.0488 14.6587 15.0488 14.854 14.8536C15.0493 14.6583 15.0493 14.3417 14.8541 14.1465L13.4579 12.7501L14.8545 11.3536C15.0498 11.1583 15.0498 10.8417 14.8545 10.6464C14.6593 10.4512 14.3427 10.4512 14.1474 10.6464L12.7509 12.043L11.3546 10.6465Z" fill="black"/>
<path id="Union" fill-rule="evenodd" clip-rule="evenodd" d="M7.80085 6.38887L8.16267 7.0132L11.3359 5.17421L10.8516 4.3385L9.05236 5.38121L9.03669 5.35417L9.47861 2.11665L9.08403 1.43579L6.0386 3.2007L6.52291 4.03642L8.30741 3.00225L8.32308 3.02929L7.80085 6.38887ZM4.84467 12.2074L5.5441 11.0901L4.64856 10.0203L5.76319 8.23973L7.11629 8.57856L7.81572 7.46123L1.81988 6.07419L0.97876 7.41786L4.84467 12.2074ZM4.78385 7.9945L2.53833 7.43221L2.51421 7.47074L4.00039 9.24607L4.78385 7.9945Z" fill="black"/>
</g>
</svg>
