<svg width="16" height="16" viewBox="0 0 16 16" fill="none" xmlns="http://www.w3.org/2000/svg">
<g id="text-unflow" clip-path="url(#clip0_241_9453)">
<path id="Union" fill-rule="evenodd" clip-rule="evenodd" d="M3 2C2.44772 2 2 2.44772 2 3V4.25C2 4.52614 2.22386 4.75 2.5 4.75C2.77614 4.75 3 4.52614 3 4.25V3L4.25002 3C4.52616 3 4.75002 2.77614 4.75002 2.5C4.75002 2.22386 4.52616 2 4.25002 2H3ZM6.75007 2C6.47392 2 6.25007 2.22386 6.25007 2.5C6.25007 2.77614 6.47392 3 6.75007 3H9.25011C9.52625 3 9.75011 2.77614 9.75011 2.5C9.75011 2.22386 9.52625 2 9.25011 2H6.75007ZM11.7502 2C11.474 2 11.2502 2.22386 11.2502 2.5C11.2502 2.77614 11.474 3 11.7502 3H13.0002L13.0006 4.25004C13.0007 4.52619 13.2247 4.74996 13.5008 4.74987C13.7769 4.74977 14.0007 4.52583 14.0006 4.24969L14.0002 2.99964C14 2.4475 13.5523 2 13.0002 2H11.7502ZM14.0015 6.74978C14.0014 6.47364 13.7775 6.24986 13.5013 6.24996C13.2252 6.25005 13.0014 6.47399 13.0015 6.75013L13.002 8.00018C13.0021 8.27632 13.226 8.5001 13.5021 8.5C13.7783 8.4999 14.0021 8.27596 14.002 7.99982L14.0015 6.74978ZM3 6.75C3 6.47386 2.77614 6.25 2.5 6.25C2.22386 6.25 2 6.47386 2 6.75V9.25C2 9.52614 2.22386 9.75 2.5 9.75C2.77614 9.75 3 9.52614 3 9.25V6.75ZM3 11.75C3 11.4739 2.77614 11.25 2.5 11.25C2.22386 11.25 2 11.4739 2 11.75V13C2 13.5523 2.44772 14 3 14H4.25049C4.52663 14 4.75049 13.7761 4.75049 13.5C4.75049 13.2239 4.52663 13 4.25049 13H3V11.75ZM6.75146 13C6.47532 13 6.25146 13.2239 6.25146 13.5C6.25146 13.7761 6.47532 14 6.75146 14H8.00195C8.2781 14 8.50195 13.7761 8.50195 13.5C8.50195 13.2239 8.2781 13 8.00195 13H6.75146ZM5.20011 11H6.51829L6.94989 9.6733H9.0506L9.48136 11H10.7995L8.79386 5.18182H7.20863L5.20011 11ZM8.73883 8.71307L8.02397 6.51136H7.97852L7.26227 8.71307H8.73883Z" fill="black"/>
<path id="neutral" fill-rule="evenodd" clip-rule="evenodd" d="M15.1484 11.6464C15.3437 11.4512 15.6602 11.4512 15.8555 11.6464C16.0508 11.8417 16.0508 12.1583 15.8555 12.3536L14.4589 13.7501L15.855 15.1465C16.0503 15.3417 16.0503 15.6583 15.855 15.8536C15.6597 16.0488 15.3431 16.0488 15.1479 15.8535L13.7518 14.4573L12.3555 15.8536C12.1602 16.0488 11.8437 16.0488 11.6484 15.8536C11.4531 15.6583 11.4531 15.3417 11.6484 15.1464L13.0447 13.7501L11.6484 12.3535C11.4531 12.1583 11.4531 11.8417 11.6484 11.6464C11.8437 11.4512 12.1603 11.4512 12.3555 11.6465L13.7519 13.043L15.1484 11.6464Z" fill="black"/>
</g>
<defs>
<clipPath id="clip0_241_9453">
<rect width="16" height="16" fill="white"/>
</clipPath>
</defs>
</svg>
