<svg width="16" height="16" viewBox="0 0 16 16" fill="none" xmlns="http://www.w3.org/2000/svg">
<g id="text_horz_kern">
<path id="neutral" fill-rule="evenodd" clip-rule="evenodd" d="M5.32433 1.53173C5.58289 1.43477 5.8711 1.56577 5.96806 1.82433L10.4681 13.8243C10.565 14.0829 10.434 14.3711 10.1755 14.4681C9.91689 14.565 9.62869 14.434 9.53173 14.1755L5.03173 2.17545C4.93477 1.91689 5.06577 1.62869 5.32433 1.53173Z" fill="black"/>
<path id="Union" fill-rule="evenodd" clip-rule="evenodd" d="M0.698242 11.0001H2.01642L2.44802 9.67336H4.54873L4.97949 11.0001H6.29767L4.29199 5.18188H2.70676L0.698242 11.0001ZM4.23696 8.71313L3.52211 6.51143H3.47665L2.7604 8.71313H4.23696ZM12.471 9.60234L11.0647 5.18188H9.69824L11.7068 11.0001H13.292L15.2977 5.18188H13.934L12.5249 9.60234H12.471Z" fill="black"/>
</g>
</svg>
