<svg width="16" height="16" viewBox="0 0 16 16" fill="none" xmlns="http://www.w3.org/2000/svg">
<g id="text-convert-to-regular" clip-path="url(#clip0_241_9222)">
<path id="Union" fill-rule="evenodd" clip-rule="evenodd" d="M0.000976562 0.75C0.000976562 0.335786 0.336763 0 0.750977 0H8.25098C8.66519 0 9.00098 0.335786 9.00098 0.75V7C9.27712 7 9.50098 7.22386 9.50098 7.5C9.50098 7.77614 9.27712 8 9.00098 8H8.00098V9C8.00098 9.27614 7.77712 9.5 7.50098 9.5C7.22483 9.5 7.00098 9.27614 7.00098 9H0.750977C0.336764 9 0.000976562 8.66421 0.000976562 8.25V0.75ZM7.00098 8V7.75C7.00098 7.33579 7.33676 7 7.75098 7H8.00098V1H1.00098V8H7.00098ZM2.04936 7H3.20277L3.58042 5.83913H5.41854L5.79545 7H6.94886L5.19389 1.90909H3.80682L2.04936 7ZM5.14574 4.99893L4.52024 3.07244H4.48047L3.85375 4.99893H5.14574ZM9.04936 14H10.2028L10.5804 12.8391H12.4185L12.7955 14H13.9489L12.1939 8.90909H10.8068L9.04936 14ZM12.1457 11.9989L11.5202 10.0724H11.4805L10.8538 11.9989H12.1457ZM14.001 7C13.7248 7 13.501 7.22386 13.501 7.5C13.501 7.77614 13.7248 8 14.001 8H15.001V9C15.001 9.27614 15.2248 9.5 15.501 9.5C15.7771 9.5 16.001 9.27614 16.001 9V7.75C16.001 7.33579 15.6652 7 15.251 7H14.001ZM8.00098 14C8.00098 13.7239 7.77712 13.5 7.50098 13.5C7.22483 13.5 7.00098 13.7239 7.00098 14V15.25C7.00098 15.6642 7.33676 16 7.75098 16H9.00098C9.27712 16 9.50098 15.7761 9.50098 15.5C9.50098 15.2239 9.27712 15 9.00098 15H8.00098V14ZM16.001 14C16.001 13.7239 15.7771 13.5 15.501 13.5C15.2248 13.5 15.001 13.7239 15.001 14V15H14.001C13.7248 15 13.501 15.2239 13.501 15.5C13.501 15.7761 13.7248 16 14.001 16H15.251C15.6652 16 16.001 15.6642 16.001 15.25V14Z" fill="black"/>
</g>
<defs>
<clipPath id="clip0_241_9222">
<rect width="16" height="16" fill="white"/>
</clipPath>
</defs>
</svg>
