<svg width="16" height="16" viewBox="0 0 16 16" fill="none" xmlns="http://www.w3.org/2000/svg">
<g id="text-flow-into-frame" clip-path="url(#clip0_241_9221)">
<path id="Union" fill-rule="evenodd" clip-rule="evenodd" d="M3.00195 2C2.44967 2 2.00195 2.44772 2.00195 3V13C2.00195 13.5523 2.44967 14 3.00195 14H13.002C13.5542 14 14.002 13.5523 14.002 13V10C14.002 9.72386 13.7781 9.5 13.502 9.5C13.2258 9.5 13.002 9.72386 13.002 10V13H3.00195V3L8.00195 3C8.2781 3 8.50195 2.77614 8.50195 2.5C8.50195 2.22386 8.2781 2 8.00195 2H3.00195ZM5.20011 11H6.51829L6.94989 9.6733H9.0506L9.48136 11H10.7995L8.79386 5.18182H7.20863L5.20011 11ZM8.73883 8.71307L8.02397 6.51136H7.97852L7.26227 8.71307H8.73883Z" fill="black"/>
<path id="neutral" fill-rule="evenodd" clip-rule="evenodd" d="M14.002 1.5C14.002 1.22386 13.7781 1 13.502 1C13.2258 1 13.002 1.22386 13.002 1.5V5.29289L11.8555 4.14645C11.6602 3.95118 11.3437 3.95118 11.1484 4.14645C10.9531 4.34171 10.9531 4.65829 11.1484 4.85355L13.1484 6.85355L13.502 7.20711L13.8555 6.85355L15.8555 4.85355C16.0508 4.65829 16.0508 4.34171 15.8555 4.14645C15.6602 3.95118 15.3437 3.95118 15.1484 4.14645L14.002 5.29289V1.5Z" fill="black"/>
</g>
<defs>
<clipPath id="clip0_241_9221">
<rect width="16" height="16" fill="white"/>
</clipPath>
</defs>
</svg>
