<svg width="16" height="16" viewBox="0 0 16 16" fill="none" xmlns="http://www.w3.org/2000/svg">
<g id="text_outer_style" clip-path="url(#clip0_241_9485)">
<rect id="neutral" opacity="0.3" x="9.00098" y="9" width="7" height="7" rx="0.5" fill="black"/>
<path id="Union" fill-rule="evenodd" clip-rule="evenodd" d="M0.000976562 1C0.000976562 0.447716 0.448692 0 1.00098 0H11.001C11.5533 0 12.001 0.447715 12.001 1V9H15.501C15.7771 9 16.001 9.22386 16.001 9.5V15.5C16.001 15.7761 15.7771 16 15.501 16H9.50098C9.22483 16 9.00098 15.7761 9.00098 15.5V12H1.00098C0.448692 12 0.000976562 11.5523 0.000976562 11V1ZM9.00098 11V9.5C9.00098 9.22386 9.22483 9 9.50098 9H11.001V1L1.00098 1V11H9.00098ZM4.51731 9H3.19913L5.20765 3.18182H6.79288L8.79856 9H7.48038L7.04962 7.6733H4.94891L4.51731 9ZM6.02299 4.51136L6.73785 6.71307H5.26129L5.97754 4.51136H6.02299ZM10.001 15V10H15.001V15H10.001Z" fill="black"/>
</g>
<defs>
<clipPath id="clip0_241_9485">
<rect width="16" height="16" fill="white"/>
</clipPath>
</defs>
</svg>
