<svg width="16" height="16" viewBox="0 0 16 16" fill="none" xmlns="http://www.w3.org/2000/svg">
<g id="text-unkern" clip-path="url(#clip0_241_9216)">
<path id="Union" fill-rule="evenodd" clip-rule="evenodd" d="M7.00037 0.57433C6.90341 0.31577 6.6152 0.184767 6.35664 0.281727C6.09808 0.378687 5.96708 0.666893 6.06404 0.925453L8.87654 8.42545C8.9735 8.68401 9.26171 8.81502 9.52027 8.71806C9.77883 8.6211 9.90983 8.33289 9.81287 8.07433L7.00037 0.57433ZM1.33256 7.99989H-0.150391L2.1092 1.45444H3.89258L6.14897 7.99989H4.66602L4.18141 6.50735H1.81811L1.33256 7.99989ZM3.02646 2.95018L3.83067 5.42709H2.16954L2.97532 2.95018H3.02646ZM11.3869 1.45444L12.9689 6.42745H13.0297L14.6149 1.45444H16.149L13.8926 7.99989H12.1092L9.84961 1.45444H11.3869Z" fill="black"/>
<path id="neutral" fill-rule="evenodd" clip-rule="evenodd" d="M12.3555 11.6465C12.1603 11.4512 11.8437 11.4512 11.6484 11.6464C11.4531 11.8417 11.4531 12.1583 11.6484 12.3535L13.0447 13.7501L11.6484 15.1464C11.4531 15.3417 11.4531 15.6583 11.6484 15.8536C11.8437 16.0488 12.1602 16.0488 12.3555 15.8536L13.7518 14.4573L15.1479 15.8535C15.3431 16.0488 15.6597 16.0488 15.855 15.8536C16.0503 15.6583 16.0503 15.3417 15.855 15.1465L14.4589 13.7501L15.8555 12.3536C16.0508 12.1583 16.0508 11.8417 15.8555 11.6464C15.6602 11.4512 15.3437 11.4512 15.1484 11.6464L13.7519 13.043L12.3555 11.6465Z" fill="black"/>
</g>
<defs>
<clipPath id="clip0_241_9216">
<rect width="16" height="16" fill="white"/>
</clipPath>
</defs>
</svg>
