<svg width="16" height="16" viewBox="0 0 16 16" fill="none" xmlns="http://www.w3.org/2000/svg">
<g id="text_vert_kern">
<path id="neutral" fill-rule="evenodd" clip-rule="evenodd" d="M0.5 9.5C0.5 9.22386 0.723858 9 1 9H8C8.27614 9 8.5 9.22386 8.5 9.5V14H15C15.2761 14 15.5 14.2239 15.5 14.5C15.5 14.7761 15.2761 15 15 15H8C7.72386 15 7.5 14.7761 7.5 14.5V10H1C0.723858 10 0.5 9.77614 0.5 9.5Z" fill="black"/>
<path id="Union" fill-rule="evenodd" clip-rule="evenodd" d="M1.19824 7.00007H2.51642L2.94802 5.67336H5.04873L5.47949 7.00007H6.79767L4.79199 1.18188H3.20676L1.19824 7.00007ZM4.73696 4.71313L4.02211 2.51143H3.97665L3.2604 4.71313H4.73696ZM12.471 10.6023L11.0647 6.18188H9.69824L11.7068 12.0001H13.292L15.2977 6.18188H13.934L12.5249 10.6023H12.471Z" fill="black"/>
</g>
</svg>
