<svg width="16" height="16" viewBox="0 0 16 16" fill="none" xmlns="http://www.w3.org/2000/svg">
<g id="text_word_spacing">
<path id="neutral" fill-rule="evenodd" clip-rule="evenodd" d="M5.35363 10.3536C5.54889 10.1583 5.54889 9.84171 5.35363 9.64645C5.15837 9.45118 4.84178 9.45118 4.64652 9.64645L2.64699 11.646C2.64665 11.6463 2.64632 11.6466 2.64599 11.647L2.29297 12L2.64652 12.3536L4.64652 14.3536C4.84178 14.5488 5.15837 14.5488 5.35363 14.3536C5.54889 14.1583 5.54889 13.8417 5.35363 13.6464L4.20718 12.5L11.793 12.5L10.6465 13.6464C10.4513 13.8417 10.4513 14.1583 10.6465 14.3536C10.8418 14.5488 11.1584 14.5488 11.3536 14.3536L13.3536 12.3536L13.7072 12L13.3536 11.6464L11.3536 9.64645C11.1584 9.45118 10.8418 9.45118 10.6465 9.64645C10.4513 9.84171 10.4513 10.1583 10.6465 10.3536L11.793 11.5L4.20718 11.5L5.35363 10.3536Z" fill="black"/>
<path id="Union" fill-rule="evenodd" clip-rule="evenodd" d="M0.140625 7H1.27415L1.56121 6.08381H3.06817L3.35582 7H4.06768H4.48935H6.87805V6.19034H5.42067V6.16903L6.82692 4.37926V3.72727H4.12095V4.53693H5.58473V4.55824L4.22439 6.21472L3.01705 2.63636H1.61293L0.140625 7ZM2.81664 5.28267L2.33097 3.7358H2.29688L1.81221 5.28267H2.81664ZM8.91953 7H10.0531L10.3401 6.08381H11.8471L12.1347 7H12.8466H13.2683H15.657V6.19034H14.1996V6.16903L15.6058 4.37926V3.72727H12.8999V4.53693H14.3636V4.55824L13.0033 6.21472L11.796 2.63636H10.3918L8.91953 7ZM11.5955 5.28267L11.1099 3.7358H11.0758L10.5911 5.28267H11.5955Z" fill="black"/>
</g>
</svg>
