<svg width="16" height="16" viewBox="0 0 16 16" fill="none" xmlns="http://www.w3.org/2000/svg">
<g id="text_rotation" clip-path="url(#clip0_241_9492)">
<path id="Union" d="M5.40548 10.2469L4.01196 9.73971L8.37396 4.36182L10.0498 4.97177L9.93143 11.8942L8.5379 11.387L8.72433 6.08107L8.67627 6.06358L5.40548 10.2469ZM6.19834 7.79757L9.48993 8.99561L9.12046 10.0107L5.82887 8.81268L6.19834 7.79757Z" fill="black"/>
<path id="neutral" fill-rule="evenodd" clip-rule="evenodd" d="M11 1C10.7239 1 10.5 1.22386 10.5 1.5C10.5 1.77614 10.7239 2 11 2C12.3807 2 13.5 3.11929 13.5 4.5V4.79289L12.8536 4.14645C12.6583 3.95118 12.3417 3.95118 12.1464 4.14645C11.9512 4.34171 11.9512 4.65829 12.1464 4.85355L13.6464 6.35355L14 6.70711L14.3536 6.35355L15.8536 4.85355C16.0488 4.65829 16.0488 4.34171 15.8536 4.14645C15.6583 3.95118 15.3417 3.95118 15.1464 4.14645L14.5 4.79289V4.5C14.5 2.567 12.933 1 11 1ZM1.5057 11.7014L0.853553 12.3536C0.658291 12.5488 0.341709 12.5488 0.146447 12.3536C-0.0488156 12.1583 -0.0488155 11.8417 0.146447 11.6464L1.64645 10.1464L2 9.79289L2.35355 10.1464L3.85355 11.6464C4.04882 11.8417 4.04882 12.1583 3.85355 12.3536C3.65829 12.5488 3.34171 12.5488 3.14645 12.3536L2.50923 11.7163C2.61889 12.9958 3.69217 14 5 14C5.27614 14 5.5 14.2239 5.5 14.5C5.5 14.7761 5.27614 15 5 15C3.1346 15 1.61005 13.5407 1.5057 11.7014Z" fill="black"/>
</g>
<defs>
<clipPath id="clip0_241_9492">
<rect width="16" height="16" fill="white"/>
</clipPath>
</defs>
</svg>
