<svg width="16" height="16" viewBox="0 0 16 16" fill="none" xmlns="http://www.w3.org/2000/svg">
<g id="text-flow-subtract-frame" clip-path="url(#clip0_241_9710)">
<path id="Union" fill-rule="evenodd" clip-rule="evenodd" d="M3.00195 2C2.44967 2 2.00195 2.44772 2.00195 3V13C2.00195 13.5523 2.44967 14 3.00195 14H6.50195C6.7781 14 7.00195 13.7761 7.00195 13.5C7.00195 13.2239 6.7781 13 6.50195 13H3.00195V3L13.002 3V8C13.002 8.27614 13.2258 8.5 13.502 8.5C13.7781 8.5 14.002 8.27614 14.002 8V3C14.002 2.44772 13.5542 2 13.002 2H3.00195ZM5.20011 11H6.51829L6.94989 9.6733H9.0506L9.48136 11H10.7995L8.79386 5.18182H7.20863L5.20011 11ZM8.73883 8.71307L8.02397 6.51136H7.97852L7.26227 8.71307H8.73883Z" fill="black"/>
<path id="neutral" fill-rule="evenodd" clip-rule="evenodd" d="M12.6484 15.1464C12.4531 15.3417 12.4531 15.6583 12.6484 15.8536C12.8437 16.0488 13.1602 16.0488 13.3555 15.8536L15.3555 13.8536L15.7091 13.5L15.3555 13.1464L13.3555 11.1464C13.1602 10.9512 12.8437 10.9512 12.6484 11.1464C12.4531 11.3417 12.4531 11.6583 12.6484 11.8536L13.7948 13H10.002C9.72581 13 9.50195 13.2239 9.50195 13.5C9.50195 13.7761 9.72581 14 10.002 14H13.7948L12.6484 15.1464Z" fill="black"/>
</g>
<defs>
<clipPath id="clip0_241_9710">
<rect width="16" height="16" fill="white"/>
</clipPath>
</defs>
</svg>
