<svg width="16" height="16" viewBox="0 0 16 16" fill="none" xmlns="http://www.w3.org/2000/svg">
<g id="text_letter_spacing">
<path id="neutral" fill-rule="evenodd" clip-rule="evenodd" d="M8 1.5C8.27614 1.5 8.5 1.72386 8.5 2V14C8.5 14.2761 8.27614 14.5 8 14.5C7.72386 14.5 7.5 14.2761 7.5 14V2C7.5 1.72386 7.72386 1.5 8 1.5Z" fill="black"/>
<path id="Union" fill-rule="evenodd" clip-rule="evenodd" d="M0.698242 11.0001H2.01642L2.44802 9.67336H4.54873L4.97949 11.0001H6.29767L4.29199 5.18188H2.70676L0.698242 11.0001ZM4.23696 8.71313L3.52211 6.51143H3.47665L2.7604 8.71313H4.23696ZM12.471 9.60234L11.0647 5.18188H9.69824L11.7068 11.0001H13.292L15.2977 5.18188H13.934L12.5249 9.60234H12.471Z" fill="black"/>
</g>
</svg>
