<svg width="16" height="16" viewBox="0 0 16 16" fill="none" xmlns="http://www.w3.org/2000/svg">
<g id="text-orientation-upright">
<path id="Union" fill-rule="evenodd" clip-rule="evenodd" d="M13.2049 1.08398H9.98095H9.65295H8.99695V3.73198C8.99695 4.95598 8.88495 6.49998 7.66895 7.53198C7.87695 7.65998 8.26895 8.01998 8.41295 8.21999C9.15916 7.59299 9.55932 6.71497 9.76809 5.81998H13.2049V6.98798C13.2049 7.15598 13.1409 7.21198 12.9569 7.21998C12.9315 7.21998 12.8979 7.22012 12.8573 7.22029C12.591 7.2214 12.0258 7.22375 11.5329 7.19598C11.6929 7.45198 11.8769 7.91598 11.9329 8.20398C12.7649 8.20398 13.3329 8.18798 13.7169 8.01998C14.0849 7.85998 14.2209 7.57198 14.2209 7.00398V1.08398H13.6529H13.2049ZM13.2049 2.01998H9.98095V2.99598H13.2049V2.01998ZM13.2049 3.90798H9.97977C9.97557 4.217 9.95962 4.54961 9.92276 4.89198H13.2049V3.90798ZM8.1991 15H9.51728L9.94888 13.6733H12.0496L12.4803 15H13.7985L11.7928 9.1818H10.2076L8.1991 15ZM11.7378 12.7131L11.023 10.5113H10.9775L10.2613 12.7131H11.7378Z" fill="black"/>
<path id="neutral" fill-rule="evenodd" clip-rule="evenodd" d="M4.0999 1.9999C4.0999 1.66853 3.83127 1.3999 3.4999 1.3999C3.16853 1.3999 2.8999 1.66853 2.8999 1.9999L2.8999 12.5514L1.92417 11.5756C1.68985 11.3413 1.30995 11.3413 1.07564 11.5756C0.841324 11.81 0.841324 12.1899 1.07564 12.4242L3.07564 14.4242L3.4999 14.8484L3.92417 14.4242L5.92417 12.4242C6.15848 12.1899 6.15848 11.81 5.92417 11.5756C5.68985 11.3413 5.30995 11.3413 5.07564 11.5756L4.0999 12.5514V1.9999Z" fill="black"/>
</g>
</svg>
