<svg width="16" height="16" viewBox="0 0 16 16" fill="none" xmlns="http://www.w3.org/2000/svg">
<g id="text-orientation-sideways">
<path id="Union" fill-rule="evenodd" clip-rule="evenodd" d="M14.417 6.70397V3.47997V3.15197V2.49597L11.769 2.49597C10.545 2.49597 9.00101 2.38397 7.96901 1.16797C7.84101 1.37597 7.48101 1.76797 7.28101 1.91197C7.908 2.65819 8.78602 3.05834 9.68101 3.26712V6.70397H8.51301C8.34501 6.70397 8.28901 6.63997 8.28101 6.45597C8.28101 6.43057 8.28087 6.39692 8.2807 6.35632C8.27959 6.08998 8.27724 5.52484 8.30501 5.03197C8.04901 5.19197 7.58501 5.37597 7.29701 5.43197C7.29701 6.26397 7.31301 6.83197 7.48101 7.21597C7.64101 7.58397 7.92901 7.71997 8.49701 7.71997H14.417V7.15197V6.70397ZM13.481 6.70397V3.47997H12.505V6.70397H13.481ZM11.593 6.70397V3.47879C11.284 3.4746 10.9514 3.45865 10.609 3.42178V6.70397H11.593ZM8.00101 9.19812V10.5163L9.32771 10.9479L9.32771 13.0486L8.00101 13.4794L8.00101 14.7976L13.8192 12.7919V11.2066L8.00101 9.19812ZM10.2879 12.7368L12.4896 12.022V11.9765L10.2879 11.2603V12.7368Z" fill="black"/>
<path id="neutral" fill-rule="evenodd" clip-rule="evenodd" d="M4.0999 1.9999C4.0999 1.66853 3.83127 1.3999 3.4999 1.3999C3.16853 1.3999 2.8999 1.66853 2.8999 1.9999L2.8999 12.5514L1.92417 11.5756C1.68985 11.3413 1.30995 11.3413 1.07564 11.5756C0.841324 11.81 0.841324 12.1899 1.07564 12.4242L3.07564 14.4242L3.4999 14.8484L3.92417 14.4242L5.92417 12.4242C6.15848 12.1899 6.15848 11.81 5.92417 11.5756C5.68985 11.3413 5.30995 11.3413 5.07564 11.5756L4.0999 12.5514V1.9999Z" fill="black"/>
</g>
</svg>
