<svg width="16" height="16" viewBox="0 0 16 16" fill="none" xmlns="http://www.w3.org/2000/svg">
<g id="too-much-ink-icon">
<path id="Union" fill-rule="evenodd" clip-rule="evenodd" d="M3.46916 7.53508C3.57373 7.77037 3.46571 8.04573 3.22905 8.14715L2.1709 8.60065C1.48456 8.8765 1 9.54833 1 10.3333C1 11.3643 1.83573 12.2 2.86667 12.2C3.14247 12.2 3.4043 12.1402 3.6399 12.0328L4.21456 11.7865C4.3345 11.7351 4.46797 11.7244 4.59456 11.7561C4.93196 11.8404 5.12614 12.1942 5.01616 12.5241L4.81451 13.1291C4.76195 13.2762 4.73333 13.4348 4.73333 13.6C4.73333 14.3732 5.36013 15 6.13333 15C6.76407 15 7.29739 14.5829 7.4725 14.0095C7.72961 13.2382 8.57573 12.8345 9.337 13.12L11.5043 13.9327C11.7193 14.0191 11.9541 14.0667 12.2 14.0667C13.2309 14.0667 14.0667 13.2309 14.0667 12.2C14.0667 11.3844 13.5436 10.691 12.8146 10.4369C11.5145 9.94935 11.0323 8.35115 11.8227 7.20952C12.1221 6.77701 12.5974 6.49778 13.0339 6.20418C13.6568 5.78522 14.0667 5.0738 14.0667 4.26667C14.0667 2.978 13.022 1.93333 11.7333 1.93333C10.8818 1.93333 10.1369 2.38943 9.72942 3.07065C9.40061 3.62039 9.06282 4.21493 8.48988 4.50139L8.34513 4.57377C8.09526 4.69871 7.8127 4.73333 7.53333 4.73333C7.03474 4.73333 6.52071 4.41507 6.26159 3.98909C5.85223 3.31613 5.11194 2.86667 4.26667 2.86667C2.978 2.86667 1.93333 3.91134 1.93333 5.2C1.93333 6.11354 2.45833 6.90446 3.22307 7.28752C3.3302 7.34118 3.4205 7.42559 3.46916 7.53508ZM1.93333 15C2.4488 15 2.86667 14.5821 2.86667 14.0667C2.86667 13.5512 2.4488 13.1333 1.93333 13.1333C1.41787 13.1333 1 13.5512 1 14.0667C1 14.5821 1.41787 15 1.93333 15ZM8.46667 1.93333C8.46667 2.4488 8.0488 2.86667 7.53333 2.86667C7.01787 2.86667 6.6 2.4488 6.6 1.93333C6.6 1.41787 7.01787 1 7.53333 1C8.0488 1 8.46667 1.41787 8.46667 1.93333ZM14.0667 9.4C14.5821 9.4 15 8.98213 15 8.46667C15 7.9512 14.5821 7.53333 14.0667 7.53333C13.5512 7.53333 13.1333 7.9512 13.1333 8.46667C13.1333 8.98213 13.5512 9.4 14.0667 9.4Z" fill="black"/>
</g>
</svg>
