<svg width="16" height="16" viewBox="0 0 16 16" fill="none" xmlns="http://www.w3.org/2000/svg">
<g id="tool-tweak" clip-path="url(#clip0_241_9538)">
<path id="Union" fill-rule="evenodd" clip-rule="evenodd" d="M10.3629 0.843956C10.5529 0.643533 10.5444 0.327065 10.344 0.137103C10.1436 -0.0528579 9.82708 -0.044377 9.63712 0.156046L8.24613 1.62364C8.07104 1.80838 7.83864 1.92849 7.58667 1.96449L5.83567 2.21463C5.37976 2.27976 4.95727 2.49101 4.63162 2.81666L2.16561 5.28267C1.98775 5.46053 1.76061 5.76398 1.62307 6.13361C1.48364 6.50834 1.42069 7.00004 1.66483 7.48832C1.71901 7.59668 1.80069 7.85384 1.90657 8.25449C1.98211 8.54032 2.06258 8.86898 2.14844 9.21971C2.17803 9.34055 2.20825 9.46401 2.23914 9.58924C2.4362 10.3882 2.66562 11.287 2.91434 11.9109L1.9357 13.0333C1.72701 13.2726 1.61204 13.5794 1.61204 13.897V14.1858C1.61204 14.9116 2.20045 15.5 2.92628 15.5H3.4732C4.03771 15.5 4.5791 15.2758 4.97827 14.8766L6.39046 13.4644H9.92265C10.5364 13.4644 11.1203 13.1995 11.5245 12.7376L13.0819 10.9577C13.6812 10.2728 14.0115 9.39369 14.0115 8.48365V6.24545C14.0115 5.97322 14.1099 5.71016 14.2886 5.50477L14.8772 4.82818C15.0585 4.61984 15.0365 4.30402 14.8282 4.12278C14.6199 3.94153 14.304 3.96349 14.1228 4.17182L13.5342 4.84841C13.1972 5.23581 13.0115 5.73197 13.0115 6.24545V8.48365C13.0115 9.15147 12.7691 9.79658 12.3294 10.2992L10.7719 12.079C10.5576 12.3239 10.2481 12.4644 9.92265 12.4644H7.35426L8.30277 11.474L9.11919 11.4416C9.47129 11.4276 9.80303 11.2728 10.0399 11.012L10.6661 10.3225C10.9761 9.9812 10.9958 9.46647 10.7129 9.10244C10.3582 8.64599 9.68125 8.61015 9.28031 9.02658L9.14903 9.16294L9.13987 9.15417L5.82224 12.6183L5.82229 12.6184L4.27116 14.1695C4.05953 14.3811 3.77249 14.5 3.4732 14.5H2.92628C2.75273 14.5 2.61204 14.3593 2.61204 14.1858V13.897C2.61204 13.8211 2.63953 13.7477 2.68943 13.6905L3.87503 12.3307L7.37077 8.41143C7.55458 8.20535 7.53652 7.88928 7.33045 7.70547C7.12437 7.52167 6.8083 7.53972 6.62449 7.7458L3.67196 11.0561C3.59529 10.815 3.51823 10.5441 3.4414 10.2567L6.55566 6.78402C6.74003 6.57843 6.72282 6.26232 6.51724 6.07795C6.31166 5.89359 5.99554 5.91079 5.81118 6.11638L3.14586 9.08847L3.1218 8.99023L3.12171 8.98983C3.05786 8.72905 2.99558 8.47465 2.93596 8.24053L5.73912 5.15818C5.92491 4.95389 5.90991 4.63766 5.70562 4.45187C5.50132 4.26608 5.18509 4.28108 4.9993 4.48537L2.59829 7.12552C2.58533 7.09544 2.57232 7.06723 2.55925 7.0411C2.4777 6.87798 2.4826 6.69114 2.5603 6.48234C2.63989 6.26843 2.77916 6.08333 2.87271 5.98978L5.33873 3.52377C5.51138 3.35111 5.73538 3.23911 5.97709 3.20458L7.72809 2.95444C8.20334 2.88655 8.64168 2.65999 8.97193 2.31155L10.3629 0.843956Z" fill="black"/>
</g>
<defs>
<clipPath id="clip0_241_9538">
<rect width="16" height="16" fill="white"/>
</clipPath>
</defs>
</svg>
