<svg width="16" height="16" viewBox="0 0 16 16" fill="none" xmlns="http://www.w3.org/2000/svg">
<g id="tool-pages">
<path id="Vector 221" opacity="0.3" d="M8.5 6.5V1.5L13.5 6.5H8.5Z" fill="black"/>
<path id="Union" fill-rule="evenodd" clip-rule="evenodd" d="M13 14H4L4 2H8V6C8 6.55229 8.44772 7 9 7H13V14ZM12.5858 6L9 2.41421V6H12.5858ZM3 2C3 1.44772 3.44772 1 4 1H8.58579C8.851 1 9.10536 1.10536 9.29289 1.29289L13.7071 5.70711C13.8946 5.89464 14 6.149 14 6.41421V14C14 14.5523 13.5523 15 13 15H4C3.44771 15 3 14.5523 3 14V2Z" fill="black"/>
</g>
</svg>
