<svg width="16" height="16" viewBox="0 0 16 16" fill="none" xmlns="http://www.w3.org/2000/svg">
<g id="tool-measure">
<path id="neutral" opacity="0.3" d="M14 3.5L15.5 5L5 15.5L3.5 14L14 3.5Z" fill="black"/>
<path id="Union" fill-rule="evenodd" clip-rule="evenodd" d="M9.8737 2.54036L10.9999 1.41414L14.5857 4.99992L4.99992 14.5857L1.41414 10.9999L2.54036 9.8737L3.54036 10.8737L4.2737 10.1404L3.2737 9.14036L4.74037 7.6737L5.74037 8.6737L6.4737 7.94036L5.4737 6.94036L6.94036 5.4737L7.94036 6.4737L8.6737 5.74036L7.6737 4.74036L9.14037 3.2737L10.1404 4.2737L10.8737 3.54036L9.8737 2.54036ZM11.3532 0.353202C11.3533 0.353294 11.3534 0.353386 11.3535 0.353478L12.707 1.70703L15.6464 4.64637C15.8416 4.84163 15.8416 5.15822 15.6464 5.35348L5.35348 15.6464C5.15822 15.8416 4.84163 15.8416 4.64637 15.6464L1.70703 12.707L0.353478 11.3535L0.292818 11.2928L0.298002 11.2876C0.160406 11.0925 0.178898 10.821 0.353478 10.6464L10.6464 0.353478C10.8209 0.178899 11.0925 0.160406 11.2876 0.298001L11.2928 0.292817L11.3532 0.353202Z" fill="black"/>
</g>
</svg>
