<svg width="16" height="16" viewBox="0 0 16 16" fill="none" xmlns="http://www.w3.org/2000/svg">
<g id="tools-check-spelling">
<path id="Union" fill-rule="evenodd" clip-rule="evenodd" d="M1.86189 9.00004H3.56218L3.99276 7.62575H6.25321L6.68469 9.00004H8.38497L6.17652 2.45459H4.07034L1.86189 9.00004ZM5.87591 6.42405L5.1474 4.10374H5.09627L4.36928 6.42405H5.87591ZM9.0897 2.45459V9.00004H10.6366V8.20424H10.6845C10.7506 8.35551 10.8443 8.4972 10.9658 8.62931C11.0893 8.76141 11.2417 8.86794 11.4228 8.94891C11.6039 9.02987 11.818 9.07036 12.0652 9.07036C12.4274 9.07036 12.7566 8.97661 13.0528 8.78911C13.3511 8.60161 13.5876 8.32036 13.7623 7.94536C13.9391 7.57036 14.0276 7.1048 14.0276 6.5487C14.0276 5.97128 13.9359 5.49614 13.7527 5.12327C13.5695 4.7504 13.3287 4.47448 13.0304 4.2955C12.7342 4.11652 12.4157 4.02703 12.0748 4.02703C11.817 4.02703 11.5954 4.07178 11.41 4.16127C11.2268 4.24862 11.0755 4.36155 10.9562 4.50004C10.839 4.63854 10.7484 4.78236 10.6845 4.93151H10.6526V2.45459H9.0897ZM10.7261 7.23584C10.6557 7.03982 10.6206 6.8097 10.6206 6.5455C10.6206 6.27703 10.6557 6.04585 10.7261 5.85196C10.7985 5.65807 10.9018 5.50892 11.0361 5.40452C11.1703 5.30012 11.3333 5.24791 11.5251 5.24791C11.719 5.24791 11.882 5.30118 12.0141 5.40771C12.1483 5.51425 12.2495 5.66446 12.3177 5.85835C12.388 6.05225 12.4231 6.28129 12.4231 6.5455C12.4231 6.8097 12.388 7.03982 12.3177 7.23584C12.2495 7.43186 12.1483 7.58421 12.0141 7.69287C11.8798 7.79941 11.7168 7.85267 11.5251 7.85267C11.3354 7.85267 11.1724 7.79941 11.0361 7.69287C10.9018 7.58421 10.7985 7.43186 10.7261 7.23584ZM2.85461 12.8536L2.50105 13.2072L1.79395 12.5L2.1475 12.1465L3.6475 10.6465L4.00105 10.2929L4.35461 10.6465L5.50105 11.7929L6.6475 10.6465L7.00105 10.2929L7.35461 10.6465L8.50105 11.7929L9.6475 10.6465L10.0011 10.2929L10.3546 10.6465L11.5011 11.7929L12.6475 10.6465L13.0011 10.2929L13.7082 11L13.3546 11.3536L11.8546 12.8536L11.5011 13.2072L11.1475 12.8536L10.0011 11.7072L8.85461 12.8536L8.50105 13.2072L8.1475 12.8536L7.00105 11.7072L5.85461 12.8536L5.50105 13.2072L5.1475 12.8536L4.00105 11.7072L2.85461 12.8536Z" fill="black"/>
</g>
</svg>
