<svg width="16" height="16" viewBox="0 0 16 16" fill="none" xmlns="http://www.w3.org/2000/svg">
<g id="tool-spray">
<path id="neutral" opacity="0.3" d="M14.5 11H5.5V14.5H14.5V11Z" fill="black"/>
<path id="Union" fill-rule="evenodd" clip-rule="evenodd" d="M1 2C1.55228 2 2 1.55228 2 1C2 0.447715 1.55228 0 1 0C0.447715 0 0 0.447715 0 1C0 1.55228 0.447715 2 1 2ZM4 3C4 3.55228 3.55228 4 3 4C2.44772 4 2 3.55228 2 3C2 2.44772 2.44772 2 3 2C3.55228 2 4 2.44772 4 3ZM9 3.5C8.44772 3.5 8 3.94772 8 4.5V6.01863C7.33401 6.11015 6.75086 6.53289 6.46096 7.15294L5.09412 10.0765C5.03213 10.2091 5 10.3536 5 10.5V11V11.5V14.5V15H5.5H14.5H15V14.5V11.5V11V10.5C15 10.3536 14.9679 10.2091 14.9059 10.0765L13.539 7.15294C13.2491 6.53289 12.666 6.11015 12 6.01863V4.5C12 3.94772 11.5523 3.5 11 3.5H9ZM11.7273 7H11.5H8.5H8.27273C7.88446 7 7.53129 7.22475 7.36685 7.57647L6 10.5H14L12.6332 7.57647C12.4687 7.22475 12.1155 7 11.7273 7ZM11 6V4.5H9V6H11ZM6 11.5H14V14H6V11.5ZM6 5C6 5.55228 5.55228 6 5 6C4.44772 6 4 5.55228 4 5C4 4.44772 4.44772 4 5 4C5.55228 4 6 4.44772 6 5ZM1 6C1.55228 6 2 5.55228 2 5C2 4.44772 1.55228 4 1 4C0.447715 4 0 4.44772 0 5C0 5.55228 0.447715 6 1 6ZM4 7C4 7.55228 3.55228 8 3 8C2.44772 8 2 7.55228 2 7C2 6.44772 2.44772 6 3 6C3.55228 6 4 6.44772 4 7ZM1 10C1.55228 10 2 9.55228 2 9C2 8.44771 1.55228 8 1 8C0.447715 8 0 8.44771 0 9C0 9.55228 0.447715 10 1 10Z" fill="black"/>
</g>
</svg>
