<svg width="16" height="16" viewBox="0 0 16 16" fill="none" xmlns="http://www.w3.org/2000/svg">
<g id="transform-move-horizontal">
<path id="Union" fill-rule="evenodd" clip-rule="evenodd" d="M5.00056 5.5L5.00126 10.5L10.0016 10.5L10.0013 8.02818C10.0008 8.01885 10.0005 8.00946 10.0005 8C10.0005 7.99059 10.0007 7.98124 10.0013 7.97196L10.0009 5.5H5.00056ZM11.0016 10.6938L11.0013 8.5H13.7929L12.6464 9.64645C12.4512 9.84171 12.4512 10.1583 12.6464 10.3536C12.8417 10.5488 13.1583 10.5488 13.3536 10.3536L15.3536 8.35355L15.7071 8L15.3536 7.64645L13.3536 5.64645C13.1583 5.45118 12.8417 5.45118 12.6464 5.64645C12.4512 5.84171 12.4512 6.15829 12.6464 6.35355L13.7929 7.5H11.0012L11.0009 5.30601C11.0008 4.86084 10.6399 4.5 10.1948 4.5H4.80665C4.3614 4.5 4.00047 4.86098 4.00053 5.30623L4.00128 10.694C4.00134 11.1392 4.36224 11.5 4.80741 11.5L10.1955 11.5C10.6408 11.5 11.0017 11.139 11.0016 10.6938Z" fill="black"/>
</g>
</svg>
