<svg width="16" height="16" viewBox="0 0 16 16" fill="none" xmlns="http://www.w3.org/2000/svg">
<g id="transform-affect-stroke" clip-path="url(#clip0_241_9597)">
<path id="Union" fill-rule="evenodd" clip-rule="evenodd" d="M11 0.300049C10.6134 0.300049 10.3 0.613449 10.3 1.00005C10.3 1.38665 10.6134 1.70005 11 1.70005H13.2393L10.4697 4.46972C10.1768 4.76261 10.1768 5.23749 10.4697 5.53038C10.7626 5.82327 11.2374 5.82327 11.5303 5.53038L14.3 2.76071V5.00005C14.3 5.38665 14.6134 5.70005 15 5.70005C15.3866 5.70005 15.7 5.38665 15.7 5.00005V1.00005V0.300049H15H11ZM3.25 12.75H0V11.25H4H4.75V12V16H3.25V12.75ZM0 9.25005H6.75V16H10.25V7.50005L8.5 5.75005H0V9.25005Z" fill="black"/>
</g>
<defs>
<clipPath id="clip0_241_9597">
<rect width="16" height="16" fill="white"/>
</clipPath>
</defs>
</svg>
