<svg width="16" height="16" viewBox="0 0 16 16" fill="none" xmlns="http://www.w3.org/2000/svg">
<g id="transform-rotate" clip-path="url(#clip0_241_9444)">
<path id="Union" fill-rule="evenodd" clip-rule="evenodd" d="M10.5 3.5C10.5 3.22386 10.7239 3 11 3C12.933 3 14.5 4.567 14.5 6.5V6.79289L15.1464 6.14645C15.3417 5.95118 15.6583 5.95118 15.8536 6.14645C16.0488 6.34171 16.0488 6.65829 15.8536 6.85355L14.3536 8.35355L14 8.70711L13.6464 8.35355L12.1464 6.85355C11.9512 6.65829 11.9512 6.34171 12.1464 6.14645C12.3417 5.95118 12.6583 5.95118 12.8536 6.14645L13.5 6.79289V6.5C13.5 5.11929 12.3807 4 11 4C10.7239 4 10.5 3.77614 10.5 3.5ZM7.29289 4.5C7.68342 4.10947 8.31658 4.10948 8.70711 4.5L11.5 7.29289C11.8905 7.68342 11.8905 8.31658 11.5 8.70711L8.70711 11.5C8.31658 11.8905 7.68342 11.8905 7.29289 11.5L4.5 8.70711C4.10947 8.31658 4.10948 7.68342 4.5 7.29289L7.29289 4.5ZM8 5.20711L5.20711 8L8 10.7929L10.7929 8L8 5.20711ZM1.5057 9.70141L0.853553 10.3536C0.658291 10.5488 0.341709 10.5488 0.146447 10.3536C-0.0488155 10.1583 -0.0488155 9.84171 0.146447 9.64645L1.64645 8.14645L2 7.79289L2.35355 8.14645L3.85355 9.64645C4.04882 9.84171 4.04882 10.1583 3.85355 10.3536C3.65829 10.5488 3.34171 10.5488 3.14645 10.3536L2.50923 9.71634C2.6189 10.9958 3.69217 12 5 12C5.27614 12 5.5 12.2239 5.5 12.5C5.5 12.7761 5.27614 13 5 13C3.1346 13 1.61005 11.5407 1.5057 9.70141Z" fill="black"/>
</g>
<defs>
<clipPath id="clip0_241_9444">
<rect width="16" height="16" fill="white"/>
</clipPath>
</defs>
</svg>
