<svg width="16" height="16" viewBox="0 0 16 16" fill="none" xmlns="http://www.w3.org/2000/svg">
<g id="transform-skew-vertical">
<path id="Union" fill-rule="evenodd" clip-rule="evenodd" d="M11 0.5C11.2761 0.5 11.5 0.723858 11.5 1V3.79289L12.6464 2.64645C12.8417 2.45118 13.1583 2.45118 13.3536 2.64645C13.5488 2.84171 13.5488 3.15829 13.3536 3.35355L11.3536 5.35355L11 5.70711L10.6464 5.35355L8.64645 3.35355C8.45118 3.15829 8.45118 2.84171 8.64645 2.64645C8.84171 2.45118 9.15829 2.45118 9.35355 2.64645L10.5 3.79289V1C10.5 0.723858 10.7239 0.5 11 0.5ZM2.5 3C2.5 2.17595 3.44076 1.70557 4.1 2.2L13.1 8.95C13.3518 9.13885 13.5 9.43524 13.5 9.75V14C13.5 14.824 12.5592 15.2944 11.9 14.8L2.9 8.05C2.64819 7.86115 2.5 7.56476 2.5 7.25V3ZM12.5 9.75L3.5 3V7.25L12.5 14V9.75Z" fill="black"/>
</g>
</svg>
