<svg width="16" height="16" viewBox="0 0 16 16" fill="none" xmlns="http://www.w3.org/2000/svg">
<g id="transform-scale-vertical">
<path id="Union" fill-rule="evenodd" clip-rule="evenodd" d="M8.35355 0.646522L8 0.292969L7.64645 0.646522L5.64645 2.64652C5.45118 2.84178 5.45118 3.15837 5.64645 3.35363C5.84171 3.54889 6.15829 3.54889 6.35355 3.35363L7.5 2.20718V4.50008H3.5C2.94772 4.50008 2.5 4.94779 2.5 5.50008V10.5001C2.5 11.0524 2.94772 11.5001 3.5 11.5001H7.5V13.793L6.35355 12.6465C6.15829 12.4513 5.84171 12.4513 5.64645 12.6465C5.45118 12.8418 5.45118 13.1584 5.64645 13.3536L7.64645 15.3536L8 15.7072L8.35355 15.3536L10.3536 13.3536C10.5488 13.1584 10.5488 12.8418 10.3536 12.6465C10.1583 12.4513 9.84171 12.4513 9.64645 12.6465L8.5 13.793V11.5001H12.5C13.0523 11.5001 13.5 11.0524 13.5 10.5001V5.50008C13.5 4.94779 13.0523 4.50008 12.5 4.50008H8.5V2.20718L9.64645 3.35363C9.84171 3.54889 10.1583 3.54889 10.3536 3.35363C10.5488 3.15837 10.5488 2.84178 10.3536 2.64652L8.35355 0.646522ZM12.5 10.5001V5.50008H3.5V10.5001H12.5Z" fill="black"/>
</g>
</svg>
