<svg width="16" height="16" viewBox="0 0 16 16" fill="none" xmlns="http://www.w3.org/2000/svg">
<g id="transform-skew-horizontal">
<path id="Union" fill-rule="evenodd" clip-rule="evenodd" d="M2.2 4.1C1.70557 3.44076 2.17596 2.5 3 2.5H7.25C7.56476 2.5 7.86115 2.64819 8.05 2.9L14.8 11.9C15.2944 12.5592 14.824 13.5 14 13.5H9.75C9.43524 13.5 9.13885 13.3518 8.95 13.1L2.2 4.1ZM7.25 3.5H3L9.75 12.5H14L7.25 3.5ZM0.5 11C0.5 10.7239 0.723858 10.5 1 10.5H3.79289L2.64645 9.35355C2.45118 9.15829 2.45118 8.84171 2.64645 8.64645C2.84171 8.45118 3.15829 8.45118 3.35355 8.64645L5.35355 10.6464L5.70711 11L5.35355 11.3536L3.35355 13.3536C3.15829 13.5488 2.84171 13.5488 2.64645 13.3536C2.45118 13.1583 2.45118 12.8417 2.64645 12.6464L3.79289 11.5H1C0.723858 11.5 0.5 11.2761 0.5 11Z" fill="black"/>
</g>
</svg>
