<svg width="16" height="16" viewBox="0 0 16 16" fill="none" xmlns="http://www.w3.org/2000/svg">
<g id="transform-move-vertical">
<path id="Union" fill-rule="evenodd" clip-rule="evenodd" d="M4.5 4.80612C4.5 4.36091 4.86091 4 5.30612 4H10.6933C11.1385 4 11.4994 4.36091 11.4994 4.80612V10.1939C11.4994 10.6391 11.1385 11 10.6933 11H8.49829V13.7929L9.64474 12.6464C9.84 12.4512 10.1566 12.4512 10.3518 12.6464C10.5471 12.8417 10.5471 13.1583 10.3518 13.3536L8.35184 15.3536L7.99829 15.7071L7.64474 15.3536L5.64474 13.3536C5.44948 13.1583 5.44948 12.8417 5.64474 12.6464C5.84 12.4512 6.15658 12.4512 6.35184 12.6464L7.49829 13.7929V11H5.30612C4.86091 11 4.5 10.6391 4.5 10.1939V4.80612ZM5.5 5V10H10.4994V5H5.5Z" fill="black"/>
</g>
</svg>
