<svg width="16" height="16" viewBox="0 0 16 16" fill="none" xmlns="http://www.w3.org/2000/svg">
<g id="transform-scale-horizontal">
<path id="Union" fill-rule="evenodd" clip-rule="evenodd" d="M4.50008 3.5C4.50008 2.94772 4.94779 2.5 5.50008 2.5H10.5001C11.0524 2.5 11.5001 2.94772 11.5001 3.5V7.50049H13.7935L12.6465 6.35355C12.4513 6.15829 12.4513 5.84171 12.6465 5.64645C12.8418 5.45118 13.1584 5.45118 13.3536 5.64645L15.3536 7.64645L15.7072 8L15.3536 8.35355L13.3536 10.3536C13.1584 10.5488 12.8418 10.5488 12.6465 10.3536C12.4513 10.1583 12.4513 9.84171 12.6465 9.64645L13.7925 8.50049H11.5001V12.5C11.5001 13.0523 11.0524 13.5 10.5001 13.5H5.50008C4.94779 13.5 4.50008 13.0523 4.50008 12.5V8.5H2.20718L3.35363 9.64645C3.54889 9.84171 3.54889 10.1583 3.35363 10.3536C3.15837 10.5488 2.84178 10.5488 2.64652 10.3536L0.646522 8.35355L0.292969 8L0.646522 7.64645L2.64652 5.64645C2.84178 5.45118 3.15837 5.45118 3.35363 5.64645C3.54889 5.84171 3.54889 6.15829 3.35363 6.35355L2.20718 7.5H4.50008V3.5ZM10.5001 3.5L5.50008 3.5V12.5H10.5001V3.5Z" fill="black"/>
</g>
</svg>
