<svg width="16" height="16" viewBox="0 0 16 16" fill="none" xmlns="http://www.w3.org/2000/svg">
<g id="transform-2pts" clip-path="url(#clip0_241_9475)">
<path id="Union" fill-rule="evenodd" clip-rule="evenodd" d="M2.50008 1.29297L2.85363 1.64652L4.35363 3.14652L4.70718 3.50008L4.35363 3.85363L4.03106 4.1762L12.7408 11.0523L13.1465 10.6465L13.5001 10.293L13.8536 10.6465L15.3536 12.1465L15.7072 12.5001L15.3536 12.8536L13.8536 14.3536L13.5001 14.7072L13.1465 14.3536L11.6465 12.8536L11.293 12.5001L11.6465 12.1465L12.0288 11.7643L3.31907 4.88818L2.85363 5.35363L2.50008 5.70718L2.14652 5.35363L0.646522 3.85363L0.292969 3.50008L0.646522 3.14652L2.14652 1.64652L2.50008 1.29297ZM1.70718 3.50008L2.50008 4.29297L3.29297 3.50008L2.50008 2.70718L1.70718 3.50008ZM13.5001 13.293L12.7072 12.5001L13.5001 11.7072L14.293 12.5001L13.5001 13.293Z" fill="black"/>
<path class="warning" fill-rule="evenodd" clip-rule="evenodd" d="M12.3095 5.61525L13.8495 1.02977L9.60112 3.34265L5.3113 0.20459L6.18935 3.96886L12.6969 9.10643L16.1448 9.29498L12.3095 5.61525ZM9.81481 11.9274L3.60611 7.02576L0.0749512 9.19518L6.18285 10.1665L8.20008 16.013L9.81481 11.9274Z" fill="#9E9E9E"/>
</g>
<defs>
<clipPath id="clip0_241_9475">
<rect width="16" height="16" fill="white"/>
</clipPath>
</defs>
</svg>
