<svg width="16" height="16" viewBox="0 0 16 16" fill="none" xmlns="http://www.w3.org/2000/svg">
<g id="view-fullscreen">
<path id="Union" fill-rule="evenodd" clip-rule="evenodd" d="M8.5 3C8.22386 3 8 3.22386 8 3.5C8 3.77614 8.22386 4 8.5 4L11.2929 4L8.64645 6.64645C8.45118 6.84171 8.45118 7.15829 8.64645 7.35355C8.84171 7.54882 9.15829 7.54882 9.35355 7.35355L12 4.70711V7.5C12 7.77614 12.2239 8 12.5 8C12.7761 8 13 7.77614 13 7.5V3.5V3H12.5H8.5ZM4 8.5C4 8.22386 3.77614 8 3.5 8C3.22386 8 3 8.22386 3 8.5V12.5V13H3.5H7.5C7.77614 13 8 12.7761 8 12.5C8 12.2239 7.77614 12 7.5 12H4.70711L7.35355 9.35355C7.54882 9.15829 7.54882 8.84171 7.35355 8.64645C7.15829 8.45118 6.84171 8.45118 6.64645 8.64645L4 11.2929L4 8.5Z" fill="black"/>
</g>
</svg>
