<svg width="16" height="16" viewBox="0 0 16 16" fill="none" xmlns="http://www.w3.org/2000/svg">
<g id="vonkoch">
<path class="warning" opacity="0.9" fill-rule="evenodd" clip-rule="evenodd" d="M7.99987 1C8.27601 1 8.49987 1.22386 8.49987 1.5V2.80279L9.82098 2.14223C10.0186 2.04343 10.2588 2.12352 10.3576 2.32111C10.4564 2.51871 10.3763 2.75898 10.1788 2.85777L8.49987 3.69721V7.13389L11.4762 5.41552L11.3637 3.54184C11.3505 3.32132 11.5185 3.13183 11.739 3.11859C11.9595 3.10536 12.149 3.27339 12.1623 3.49391L12.2508 4.9683L13.379 4.31691C13.6182 4.17884 13.924 4.26078 14.062 4.49992C14.2001 4.73907 14.1182 5.04487 13.879 5.18294L12.7508 5.83433L13.9834 6.64817C14.1677 6.76989 14.2185 7.01802 14.0968 7.20237C13.9751 7.38673 13.727 7.4375 13.5426 7.31578L11.9762 6.28154L8.99977 7.99997L11.9763 9.71846L13.5427 8.68422C13.727 8.5625 13.9752 8.61327 14.0969 8.79763C14.2186 8.98198 14.1678 9.23011 13.9835 9.35183L12.7509 10.1657L13.8791 10.8171C14.1183 10.9551 14.2002 11.2609 14.0621 11.5001C13.9241 11.7392 13.6183 11.8212 13.3791 11.6831L12.2509 11.0317L12.1624 12.5061C12.1491 12.7266 11.9596 12.8946 11.7391 12.8814C11.5186 12.8682 11.3506 12.6787 11.3638 12.4582L11.4763 10.5845L8.49987 8.86606V12.3028L10.1788 13.1422C10.3763 13.241 10.4564 13.4813 10.3576 13.6789C10.2588 13.8765 10.0186 13.9566 9.82098 13.8578L8.49987 13.1972V14.5C8.49987 14.7761 8.27601 15 7.99987 15C7.72373 15 7.49987 14.7761 7.49987 14.5V13.1972L6.17875 13.8578C5.98116 13.9566 5.74089 13.8765 5.6421 13.6789C5.5433 13.4813 5.62339 13.241 5.82098 13.1422L7.49987 12.3028V8.86594L4.52353 10.5843L4.636 12.458C4.64923 12.6785 4.4812 12.868 4.26068 12.8813C4.04016 12.8945 3.85067 12.7265 3.83743 12.5059L3.74894 11.0315L2.62069 11.6829C2.38154 11.821 2.07575 11.7391 1.93768 11.4999C1.7996 11.2608 1.88154 10.955 2.12069 10.8169L3.24894 10.1655L2.01632 9.35168C1.83196 9.22996 1.78119 8.98183 1.90291 8.79748C2.02463 8.61312 2.27275 8.56235 2.45711 8.68407L4.02353 9.7183L6.99977 7.99997L4.02362 6.2817L2.4572 7.31593C2.27284 7.43765 2.02472 7.38688 1.903 7.20252C1.78128 7.01817 1.83205 6.77004 2.01641 6.64832L3.24902 5.83448L2.12078 5.18309C1.88163 5.04502 1.79969 4.73922 1.93776 4.50008C2.07584 4.26093 2.38163 4.17899 2.62078 4.31706L3.74902 4.96846L3.83752 3.49406C3.85076 3.27354 4.04025 3.10551 4.26077 3.11874C4.48129 3.13198 4.64932 3.32147 4.63608 3.54199L4.52362 5.41567L7.49987 7.13401V3.69721L5.82098 2.85777C5.62339 2.75898 5.5433 2.51871 5.6421 2.32111C5.74089 2.12352 5.98116 2.04343 6.17875 2.14223L7.49987 2.80279V1.5C7.49987 1.22386 7.72373 1 7.99987 1Z" fill="#505050"/>
</g>
</svg>
