<svg width="16" height="16" viewBox="0 0 16 16" fill="none" xmlns="http://www.w3.org/2000/svg">
<g id="window-previous">
<path id="Union" fill-rule="evenodd" clip-rule="evenodd" d="M11.8534 9.35346C12.0487 9.15819 12.0487 8.84161 11.8534 8.64635C11.6582 8.45109 11.3416 8.45109 11.1463 8.64635L8.65684 11.1359C8.64953 11.1427 8.64242 11.1498 8.63553 11.1572L8.29279 11.4999L8.63551 11.8426C8.64241 11.85 8.64953 11.8571 8.65685 11.864L11.1463 14.3535C11.3416 14.5487 11.6582 14.5487 11.8534 14.3535C12.0487 14.1582 12.0487 13.8416 11.8534 13.6463L10.207 11.9999H14.4998C14.776 11.9999 14.9998 11.776 14.9998 11.4999C14.9998 11.2238 14.776 10.9999 14.4998 10.9999H10.207L11.8534 9.35346Z" fill="black"/>
<path id="Union_2" fill-rule="evenodd" clip-rule="evenodd" d="M2.00098 1C1.44869 1 1.00098 1.44772 1.00098 2V4V14C1.00098 14.5523 1.44869 15 2.00098 15H6.5C6.77614 15 7 14.7761 7 14.5C7 14.2239 6.77614 14 6.5 14H2.00098L2.00098 5H14.001V6.5C14.001 6.77614 14.2248 7 14.501 7C14.7771 7 15.001 6.77614 15.001 6.5V4V2C15.001 1.44772 14.5533 1 14.001 1H2.00098ZM14.001 4V2L2.00098 2V4H14.001Z" fill="black"/>
<rect id="Rectangle 504" opacity="0.3" x="2" y="2" width="12" height="2" fill="black"/>
</g>
</svg>
