<svg width="16" height="16" viewBox="0 0 16 16" fill="none" xmlns="http://www.w3.org/2000/svg">
<g id="window-next">
<path id="Union" fill-rule="evenodd" clip-rule="evenodd" d="M12.3535 8.64635C12.1582 8.45109 11.8416 8.45109 11.6463 8.64635C11.4511 8.84161 11.4511 9.15819 11.6463 9.35346L13.2928 10.9999H8.99966C8.72352 10.9999 8.49966 11.2238 8.49966 11.4999C8.49966 11.776 8.72352 11.9999 8.99966 11.9999H13.2928L11.6463 13.6463C11.4511 13.8416 11.4511 14.1582 11.6463 14.3535C11.8416 14.5487 12.1582 14.5487 12.3535 14.3535L14.8529 11.854C14.8533 11.8536 14.8536 11.8533 14.854 11.8529L15.207 11.4999L14.8535 11.1463L12.3535 8.64635Z" fill="black"/>
<path id="Union_2" fill-rule="evenodd" clip-rule="evenodd" d="M2.00098 1C1.44869 1 1.00098 1.44772 1.00098 2V4V14C1.00098 14.5523 1.44869 15 2.00098 15H6.5C6.77614 15 7 14.7761 7 14.5C7 14.2239 6.77614 14 6.5 14H2.00098L2.00098 5H14.001V6.5C14.001 6.77614 14.2248 7 14.501 7C14.7771 7 15.001 6.77614 15.001 6.5V4V2C15.001 1.44772 14.5533 1 14.001 1H2.00098ZM14.001 4V2L2.00098 2V4H14.001Z" fill="black"/>
<rect id="Rectangle 504" opacity="0.3" x="2" y="2" width="12" height="2" fill="black"/>
</g>
</svg>
