<svg width="16" height="16" viewBox="0 0 16 16" fill="none" xmlns="http://www.w3.org/2000/svg">
<g id="window-new">
<path id="Union" fill-rule="evenodd" clip-rule="evenodd" d="M1.00098 2C1.00098 1.44772 1.44869 1 2.00098 1H14.001C14.5533 1 15.001 1.44772 15.001 2V4V6.5C15.001 6.77614 14.7771 7 14.501 7C14.2248 7 14.001 6.77614 14.001 6.5V5H2.00098L2.00098 14H6.5C6.77614 14 7 14.2239 7 14.5C7 14.7761 6.77614 15 6.5 15H2.00098C1.44869 15 1.00098 14.5523 1.00098 14V4V2ZM14.001 2V4H2.00098V2L14.001 2ZM11.4989 8.4999C11.7751 8.4999 11.9989 8.72376 11.9989 8.9999V10.9999H13.9999C14.276 10.9999 14.4999 11.2238 14.4999 11.4999C14.4999 11.776 14.276 11.9999 13.9999 11.9999H11.9989V14.0019C11.9989 14.278 11.7751 14.5019 11.4989 14.5019C11.2228 14.5019 10.9989 14.278 10.9989 14.0019V11.9999H8.9999C8.72376 11.9999 8.4999 11.776 8.4999 11.4999C8.4999 11.2238 8.72376 10.9999 8.9999 10.9999H10.9989V8.9999C10.9989 8.72376 11.2228 8.4999 11.4989 8.4999Z" fill="black"/>
<rect id="Rectangle 504" opacity="0.3" x="2" y="2" width="12" height="2" fill="black"/>
</g>
</svg>
