<svg width="16" height="16" viewBox="0 0 16 16" fill="none" xmlns="http://www.w3.org/2000/svg">
<g id="xml-node-duplicate" clip-path="url(#clip0_241_9394)">
<g id="edit-duplicate">
<path id="Union" fill-rule="evenodd" clip-rule="evenodd" d="M2.00098 2H11.001V4H5.00098C4.44869 4 4.00098 4.44772 4.00098 5V11H2.00098L2.00098 2ZM12.001 2V4H14.001C14.5533 4 15.001 4.44772 15.001 5V14C15.001 14.5523 14.5533 15 14.001 15H5.00098C4.44869 15 4.00098 14.5523 4.00098 14V12H2.00098C1.44869 12 1.00098 11.5523 1.00098 11V2C1.00098 1.44771 1.44869 1 2.00098 1H11.001C11.5533 1 12.001 1.44772 12.001 2ZM11.001 5H12.001H14.001V14H5.00098L5.00098 12V11V5H11.001ZM9.00195 12.0001L9.00156 10H7.00195C6.72581 10 6.50195 9.77614 6.50195 9.5C6.50195 9.22386 6.72581 9 7.00195 9H9.00137L9.00098 7.0001C9.00092 6.72396 9.22474 6.50005 9.50088 6.5C9.77702 6.49995 10.0009 6.72376 10.001 6.9999L10.0014 9L12.002 9C12.2781 9 12.502 9.22386 12.502 9.5C12.502 9.77614 12.2781 10 12.002 10L10.0016 10L10.002 11.9999C10.002 12.276 9.77819 12.4999 9.50205 12.5C9.22591 12.5001 9.00201 12.2762 9.00195 12.0001Z" fill="black"/>
</g>
</g>
<defs>
<clipPath id="clip0_241_9394">
<rect width="16" height="16" fill="white"/>
</clipPath>
</defs>
</svg>
