<svg width="16" height="16" viewBox="0 0 16 16" fill="none" xmlns="http://www.w3.org/2000/svg">
<g id="xml-text-new" clip-path="url(#clip0_241_9406)">
<path id="Union" fill-rule="evenodd" clip-rule="evenodd" d="M5.25098 1.5H1.50098V2.25V2.625V4.125V4.5H2.25098V4.125C2.25098 3.29657 2.92255 2.625 3.75098 2.625H5.25098V8.25C5.25098 9.07843 4.5794 9.75 3.75098 9.75H3.00098V10.5H3.75098H5.25098H6.75098H8.25098H9.00098V9.75H8.25098C7.42255 9.75 6.75098 9.07843 6.75098 8.25V2.625H8.25098C9.0794 2.625 9.75098 3.29657 9.75098 4.125V4.5H10.501V4.125V2.625V2.25V1.5H6.75098H5.25098ZM12.501 9C12.7771 9 13.001 9.22386 13.001 9.5V12H15.501C15.7771 12 16.001 12.2239 16.001 12.5C16.001 12.7761 15.7771 13 15.501 13H13.001V15.5C13.001 15.7761 12.7771 16 12.501 16C12.2248 16 12.001 15.7761 12.001 15.5V13H9.50098C9.22483 13 9.00098 12.7761 9.00098 12.5C9.00098 12.2239 9.22483 12 9.50098 12H12.001V9.5C12.001 9.22386 12.2248 9 12.501 9Z" fill="black"/>
</g>
<defs>
<clipPath id="clip0_241_9406">
<rect width="16" height="16" fill="white"/>
</clipPath>
</defs>
</svg>
