<svg width="16" height="16" viewBox="0 0 16 16" fill="none" xmlns="http://www.w3.org/2000/svg">
<g id="xml-element-new">
<g id=".plus">
<path id="Union" fill-rule="evenodd" clip-rule="evenodd" d="M8.00098 14C11.3147 14 14.001 11.3137 14.001 8C14.001 4.68629 11.3147 2 8.00098 2C4.68727 2 2.00098 4.68629 2.00098 8C2.00098 11.3137 4.68727 14 8.00098 14ZM8.00098 15C11.867 15 15.001 11.866 15.001 8C15.001 4.13401 11.867 1 8.00098 1C4.13498 1 1.00098 4.13401 1.00098 8C1.00098 11.866 4.13498 15 8.00098 15ZM4.35098 8C4.35098 7.64102 4.64199 7.35 5.00098 7.35H7.35098V5C7.35098 4.64102 7.64199 4.35 8.00098 4.35C8.35996 4.35 8.65098 4.64101 8.65098 5V7.35H11.001C11.36 7.35 11.651 7.64102 11.651 8C11.651 8.35899 11.36 8.65 11.001 8.65H8.65098V11C8.65098 11.359 8.35996 11.65 8.00098 11.65C7.64199 11.65 7.35098 11.359 7.35098 11V8.65H5.00098C4.64199 8.65 4.35098 8.35898 4.35098 8Z" fill="black"/>
</g>
</g>
</svg>
