<svg width="16" height="16" viewBox="0 0 16 16" fill="none" xmlns="http://www.w3.org/2000/svg">
<g id="xml-node-delete">
<g id=".minus">
<path id="Union" fill-rule="evenodd" clip-rule="evenodd" d="M14.001 8C14.001 11.3137 11.3147 14 8.00098 14C4.68727 14 2.00098 11.3137 2.00098 8C2.00098 4.68629 4.68727 2 8.00098 2C11.3147 2 14.001 4.68629 14.001 8ZM15.001 8C15.001 11.866 11.867 15 8.00098 15C4.13498 15 1.00098 11.866 1.00098 8C1.00098 4.13401 4.13498 1 8.00098 1C11.867 1 15.001 4.13401 15.001 8ZM5.00098 7.35C4.64199 7.35 4.35098 7.64102 4.35098 8C4.35098 8.35898 4.64199 8.65 5.00098 8.65H11.001C11.36 8.65 11.651 8.35898 11.651 8C11.651 7.64102 11.36 7.35 11.001 7.35H5.00098Z" fill="black"/>
</g>
</g>
</svg>
