<svg width="16" height="16" viewBox="0 0 16 16" fill="none" xmlns="http://www.w3.org/2000/svg">
<g id="zoom-center-page" clip-path="url(#clip0_241_9397)">
<path id="Union" fill-rule="evenodd" clip-rule="evenodd" d="M0 0H0.5H3C3.27614 0 3.5 0.223858 3.5 0.5C3.5 0.776142 3.27614 1 3 1H1V3C1 3.27614 0.776142 3.5 0.5 3.5C0.223858 3.5 0 3.27614 0 3V0.5V0ZM12 13.0005V5.41423L9.58582 3.00004L4 3.00043V13.0005H12ZM3.49997 2.00047C3.22384 2.00049 3 2.22434 3 2.50047V13.5005C3 13.7766 3.22386 14.0005 3.5 14.0005H12.5C12.7761 14.0005 13 13.7766 13 13.5005V5.20712C13 5.07451 12.9473 4.94734 12.8536 4.85357L10.1465 2.14648C10.0527 2.0527 9.92549 2.00002 9.79287 2.00003L3.49997 2.00047ZM8 8.50003C8.27614 8.50003 8.5 8.72389 8.5 9.00003V11C8.5 11.2762 8.27614 11.5 8 11.5C7.72386 11.5 7.5 11.2762 7.5 11V9.00003C7.5 8.72389 7.72386 8.50003 8 8.50003ZM8.5 5.00003C8.5 4.72389 8.27614 4.50003 8 4.50003C7.72386 4.50003 7.5 4.72389 7.5 5.00003V7.00003C7.5 7.27617 7.72386 7.50003 8 7.50003C8.27614 7.50003 8.5 7.27617 8.5 7.00003V5.00003ZM11.5 8.00003C11.5 8.27617 11.2761 8.50003 11 8.50003H9C8.72386 8.50003 8.5 8.27617 8.5 8.00003C8.5 7.72389 8.72386 7.50003 9 7.50003H11C11.2761 7.50003 11.5 7.72389 11.5 8.00003ZM7 8.50003C7.27614 8.50003 7.5 8.27617 7.5 8.00003C7.5 7.72389 7.27614 7.50003 7 7.50003H5C4.72386 7.50003 4.5 7.72389 4.5 8.00003C4.5 8.27617 4.72386 8.50003 5 8.50003H7ZM0.5 16H0V15.5V13C0 12.7239 0.223858 12.5 0.5 12.5C0.776142 12.5 1 12.7239 1 13V15H3C3.27614 15 3.5 15.2239 3.5 15.5C3.5 15.7761 3.27614 16 3 16H0.5ZM16 0H15.5H13C12.7239 0 12.5 0.223858 12.5 0.5C12.5 0.776142 12.7239 1 13 1H15V3C15 3.27614 15.2239 3.5 15.5 3.5C15.7761 3.5 16 3.27614 16 3V0.5V0ZM15.5 16H16V15.5V13C16 12.7239 15.7761 12.5 15.5 12.5C15.2239 12.5 15 12.7239 15 13V15H13C12.7239 15 12.5 15.2239 12.5 15.5C12.5 15.7761 12.7239 16 13 16H15.5Z" fill="black"/>
</g>
<defs>
<clipPath id="clip0_241_9397">
<rect width="16" height="16" fill="white"/>
</clipPath>
</defs>
</svg>
