<svg width="16" height="16" viewBox="0 0 16 16" fill="none" xmlns="http://www.w3.org/2000/svg">
<g id="zoom-fit-width" clip-path="url(#clip0_241_9402)">
<path id="Union" fill-rule="evenodd" clip-rule="evenodd" d="M0.5 0H0V0.5V3C0 3.27614 0.223858 3.5 0.5 3.5C0.776142 3.5 1 3.27614 1 3V1H3C3.27614 1 3.5 0.776142 3.5 0.5C3.5 0.223858 3.27614 0 3 0H0.5ZM5.85363 11.3536C6.04889 11.1583 6.04889 10.8417 5.85363 10.6464C5.65837 10.4512 5.34178 10.4512 5.14652 10.6464L3.64652 12.1464L3.29297 12.5L3.64652 12.8536L5.14652 14.3536C5.34178 14.5488 5.65837 14.5488 5.85363 14.3536C6.04889 14.1583 6.04889 13.8417 5.85363 13.6464L5.20732 13.0001L10.7892 13.0038L10.1465 13.6464C9.95126 13.8417 9.95126 14.1583 10.1465 14.3536C10.3418 14.5488 10.6584 14.5488 10.8536 14.3536L12.3536 12.8536L12.7072 12.5L12.3536 12.1464L10.8536 10.6464C10.6584 10.4512 10.3418 10.4512 10.1465 10.6464C9.95126 10.8417 9.95126 11.1583 10.1465 11.3536L10.7967 12.0038L5.20705 12.0001L5.85363 11.3536ZM0 16H0.5H3C3.27614 16 3.5 15.7761 3.5 15.5C3.5 15.2239 3.27614 15 3 15H1V13C1 12.7239 0.776142 12.5 0.5 12.5C0.223858 12.5 0 12.7239 0 13V15.5V16ZM15.5 0H16V0.5V3C16 3.27614 15.7761 3.5 15.5 3.5C15.2239 3.5 15 3.27614 15 3V1H13C12.7239 1 12.5 0.776142 12.5 0.5C12.5 0.223858 12.7239 0 13 0H15.5ZM16 16H15.5H13C12.7239 16 12.5 15.7761 12.5 15.5C12.5 15.2239 12.7239 15 13 15H15V13C15 12.7239 15.2239 12.5 15.5 12.5C15.7761 12.5 16 12.7239 16 13V15.5V16ZM11.2 6.17304V9H12V5.55778C12 5.43244 11.9529 5.31167 11.8681 5.2194L9.05766 2.16211C8.96298 2.05911 8.82947 2.00049 8.68956 2.00049H4.5C4.22386 2.00049 4 2.22435 4 2.50049V9H4.8V2.80049H8.1V5.27304C8.1 5.77009 8.50294 6.17304 9 6.17304H11.2ZM10.9227 5.37304L8.9 3.1727V5.27304C8.9 5.32827 8.94477 5.37304 9 5.37304H10.9227Z" fill="black"/>
</g>
<defs>
<clipPath id="clip0_241_9402">
<rect width="16" height="16" fill="white"/>
</clipPath>
</defs>
</svg>
