<svg width="16" height="16" viewBox="0 0 16 16" fill="none" xmlns="http://www.w3.org/2000/svg">
<g id="zoom-next" clip-path="url(#clip0_241_9381)">
<g id=".next">
<path id="Union" fill-rule="evenodd" clip-rule="evenodd" d="M13.0004 3.3999C13.3318 3.3999 13.6004 3.66853 13.6004 3.9999V11.9999C13.6004 12.3313 13.3318 12.5999 13.0004 12.5999C12.669 12.5999 12.4004 12.3313 12.4004 11.9999V8.44843L8.42465 12.4242C8.19034 12.6585 7.81044 12.6585 7.57613 12.4242C7.34181 12.1899 7.34181 11.81 7.57613 11.5756L10.5519 8.5999H3.00039C2.66902 8.5999 2.40039 8.33127 2.40039 7.9999C2.40039 7.66853 2.66902 7.3999 3.00039 7.3999H10.5519L7.57613 4.42417C7.34181 4.18985 7.34181 3.80995 7.57613 3.57564C7.81044 3.34132 8.19034 3.34132 8.42465 3.57564L12.4004 7.55137V3.9999C12.4004 3.66853 12.669 3.3999 13.0004 3.3999Z" fill="black"/>
</g>
</g>
<defs>
<clipPath id="clip0_241_9381">
<rect width="16" height="16" fill="white"/>
</clipPath>
</defs>
</svg>
