<svg width="16" height="16" viewBox="0 0 16 16" fill="none" xmlns="http://www.w3.org/2000/svg">
<g id="zoom-half-size">
<path id="Union" d="M3.11477 8.22721V4.20519H3.07997L1.78735 5.00064V3.70306L3.21917 2.81812H4.59133V8.22721H3.11477ZM3.2142 12.9999L10.2142 2.81812H11.5714L4.57144 12.9999H3.2142ZM9.82642 12.9999V11.9261L12.0537 10.2457C12.2592 10.0899 12.4382 9.94075 12.5906 9.79823C12.7464 9.65571 12.8243 9.48668 12.8243 9.29113C12.8243 9.09889 12.7398 8.95472 12.5707 8.8586C12.405 8.75917 12.2012 8.70945 11.9592 8.70945C11.7106 8.70945 11.5101 8.76414 11.3577 8.87351C11.2052 8.98289 11.129 9.15192 11.129 9.38062H9.7071C9.7071 8.79397 9.92253 8.33658 10.3534 8.00846C10.7843 7.67702 11.3312 7.5113 11.994 7.5113C12.6768 7.5113 13.2204 7.68199 13.6247 8.02337C14.0291 8.36475 14.2312 8.78071 14.2312 9.27124C14.2312 9.54302 14.1732 9.79326 14.0572 10.022C13.9446 10.2506 13.7705 10.4694 13.5352 10.6782C13.3032 10.8837 13.0099 11.0892 12.6553 11.2947L11.9741 11.7123V11.767H14.2412V12.9999H9.82642Z" fill="black"/>
</g>
</svg>
