<svg width="16" height="16" viewBox="0 0 16 16" fill="none" xmlns="http://www.w3.org/2000/svg">
<g id="zoom-fit-selection" clip-path="url(#clip0_241_9390)">
<path id="Union" fill-rule="evenodd" clip-rule="evenodd" d="M0 0H0.5H3C3.27614 0 3.5 0.223858 3.5 0.5C3.5 0.776142 3.27614 1 3 1H1V3C1 3.27614 0.776142 3.5 0.5 3.5C0.223858 3.5 0 3.27614 0 3V0.5V0ZM3.3 3C3.13431 3 3 3.13431 3 3.3V5.7C3 5.86569 3.13431 6 3.3 6H5.7C5.86569 6 6 5.86569 6 5.7V3.3C6 3.13431 5.86569 3 5.7 3H3.3ZM10.3 3C10.1343 3 10 3.13431 10 3.3V5.7C10 5.86569 10.1343 6 10.3 6H12.7C12.8657 6 13 5.86569 13 5.7V3.3C13 3.13431 12.8657 3 12.7 3H10.3ZM10 10.3C10 10.1343 10.1343 10 10.3 10H12.7C12.8657 10 13 10.1343 13 10.3V12.7C13 12.8657 12.8657 13 12.7 13H10.3C10.1343 13 10 12.8657 10 12.7V10.3ZM3.3 10C3.13431 10 3 10.1343 3 10.3V12.7C3 12.8657 3.13431 13 3.3 13H5.7C5.86569 13 6 12.8657 6 12.7V10.3C6 10.1343 5.86569 10 5.7 10H3.3ZM6.91667 4.5C6.91667 4.22386 7.14052 4 7.41667 4H8.58333C8.85948 4 9.08333 4.22386 9.08333 4.5C9.08333 4.77614 8.85948 5 8.58333 5H7.41667C7.14052 5 6.91667 4.77614 6.91667 4.5ZM11.5 6.91667C11.7761 6.91667 12 7.14052 12 7.41667V8.58333C12 8.85948 11.7761 9.08333 11.5 9.08333C11.2239 9.08333 11 8.85948 11 8.58333V7.41667C11 7.14052 11.2239 6.91667 11.5 6.91667ZM4.5 6.91667C4.77614 6.91667 5 7.14052 5 7.41667V8.58333C5 8.85948 4.77614 9.08333 4.5 9.08333C4.22386 9.08333 4 8.85948 4 8.58333V7.41667C4 7.14052 4.22386 6.91667 4.5 6.91667ZM6.91667 11.5C6.91667 11.2239 7.14052 11 7.41667 11H8.58333C8.85948 11 9.08333 11.2239 9.08333 11.5C9.08333 11.7761 8.85948 12 8.58333 12H7.41667C7.14052 12 6.91667 11.7761 6.91667 11.5ZM4 4H5V5H4V4ZM11 4H12V5H11V4ZM5 11V12H4V11H5ZM0.5 16H0V15.5V13C0 12.7239 0.223858 12.5 0.5 12.5C0.776142 12.5 1 12.7239 1 13V15H3C3.27614 15 3.5 15.2239 3.5 15.5C3.5 15.7761 3.27614 16 3 16H0.5ZM16 0H15.5H13C12.7239 0 12.5 0.223858 12.5 0.5C12.5 0.776142 12.7239 1 13 1H15V3C15 3.27614 15.2239 3.5 15.5 3.5C15.7761 3.5 16 3.27614 16 3V0.5V0ZM15.5 16H16V15.5V13C16 12.7239 15.7761 12.5 15.5 12.5C15.2239 12.5 15 12.7239 15 13V15H13C12.7239 15 12.5 15.2239 12.5 15.5C12.5 15.7761 12.7239 16 13 16H15.5ZM12 11H11V12H12V11Z" fill="black"/>
</g>
<defs>
<clipPath id="clip0_241_9390">
<rect width="16" height="16" fill="white"/>
</clipPath>
</defs>
</svg>
