<svg width="16" height="16" viewBox="0 0 16 16" fill="none" xmlns="http://www.w3.org/2000/svg">
<g id="zoom-fit-drawing" clip-path="url(#clip0_241_9379)">
<path id="Union" fill-rule="evenodd" clip-rule="evenodd" d="M0 0H0.5H3C3.27614 0 3.5 0.223858 3.5 0.5C3.5 0.776142 3.27614 1 3 1H1V3C1 3.27614 0.776142 3.5 0.5 3.5C0.223858 3.5 0 3.27614 0 3V0.5V0ZM7 4.95734C7 5.70667 7.60786 6.31458 8.3577 6.31458C9.10753 6.31458 9.71539 5.70667 9.71539 4.95734C9.71539 4.20801 9.10753 3.6001 8.3577 3.6001C7.60786 3.6001 7 4.20801 7 4.95734ZM8.3577 2.6001C7.05583 2.6001 6 3.65547 6 4.95734C6 6.2592 7.05583 7.31458 8.3577 7.31458C9.65956 7.31458 10.7154 6.2592 10.7154 4.95734C10.7154 3.65547 9.65956 2.6001 8.3577 2.6001ZM10.6431 10.1L9.65318 11.8146H11.633L10.6431 10.1ZM11.0377 8.78356C10.8623 8.47979 10.4239 8.47979 10.2485 8.78356L8.31573 12.1311C8.14034 12.4349 8.35957 12.8146 8.71034 12.8146H12.5759C12.9266 12.8146 13.1459 12.4349 12.9705 12.1311L11.0377 8.78356ZM4 11.0281V9.1001H5.92818V11.0281H4ZM3 8.49294C3 8.27598 3.17588 8.1001 3.39285 8.1001H6.53534C6.7523 8.1001 6.92818 8.27598 6.92818 8.49294V11.6353C6.92818 11.8523 6.7523 12.0281 6.53534 12.0281H3.39285C3.17588 12.0281 3 11.8523 3 11.6353V8.49294ZM0.5 16H0V15.5V13C0 12.7239 0.223858 12.5 0.5 12.5C0.776142 12.5 1 12.7239 1 13V15H3C3.27614 15 3.5 15.2239 3.5 15.5C3.5 15.7761 3.27614 16 3 16H0.5ZM16 0H15.5H13C12.7239 0 12.5 0.223858 12.5 0.5C12.5 0.776142 12.7239 1 13 1H15V3C15 3.27614 15.2239 3.5 15.5 3.5C15.7761 3.5 16 3.27614 16 3V0.5V0ZM15.5 16H16V15.5V13C16 12.7239 15.7761 12.5 15.5 12.5C15.2239 12.5 15 12.7239 15 13V15H13C12.7239 15 12.5 15.2239 12.5 15.5C12.5 15.7761 12.7239 16 13 16H15.5Z" fill="black"/>
</g>
<defs>
<clipPath id="clip0_241_9379">
<rect width="16" height="16" fill="white"/>
</clipPath>
</defs>
</svg>
