<svg width="16" height="16" viewBox="0 0 16 16" fill="none" xmlns="http://www.w3.org/2000/svg">
<g id="zoom-double-size">
<path id="Union" d="M1.89666 8.22716V7.1533L4.12393 5.4729C4.32943 5.31712 4.5084 5.16798 4.66087 5.02546C4.81664 4.88294 4.89453 4.7139 4.89453 4.51836C4.89453 4.32612 4.81001 4.18194 4.64098 4.08583C4.47526 3.98639 4.27143 3.93668 4.02947 3.93668C3.78089 3.93668 3.58037 3.99137 3.42791 4.10074C3.27545 4.21012 3.19922 4.37915 3.19922 4.60784H1.77734C1.77734 4.0212 1.99278 3.56381 2.42365 3.23568C2.85452 2.90425 3.4014 2.73853 4.06428 2.73853C4.74704 2.73853 5.2906 2.90922 5.69496 3.2506C6.09931 3.59198 6.30149 4.00794 6.30149 4.49847C6.30149 4.77025 6.24349 5.02049 6.12749 5.24918C6.0148 5.47787 5.84079 5.69662 5.60547 5.90543C5.37346 6.11092 5.08014 6.31641 4.7255 6.52191L4.04439 6.93952V6.99421H6.31143V8.22716H1.89666ZM4.40359 12.9999L11.4036 2.81807H12.7608L5.76083 12.9999H4.40359ZM12.2338 12.9999V8.97787H12.199L10.9064 9.77333V8.47574L12.3382 7.5908H13.7104V12.9999H12.2338Z" fill="black"/>
</g>
</svg>
