<svg width="16" height="16" viewBox="0 0 16 16" fill="none" xmlns="http://www.w3.org/2000/svg">
<g id="zoom-previous" clip-path="url(#clip0_241_9210)">
<g id=".previous">
<path id="Union" fill-rule="evenodd" clip-rule="evenodd" d="M3.00039 3.3999C3.33176 3.3999 3.60039 3.66853 3.60039 3.9999L3.60039 7.55137L7.57613 3.57564C7.81044 3.34132 8.19034 3.34132 8.42465 3.57564C8.65897 3.80995 8.65897 4.18985 8.42465 4.42417L5.44892 7.3999L13.0004 7.3999C13.3318 7.3999 13.6004 7.66853 13.6004 7.9999C13.6004 8.33127 13.3318 8.5999 13.0004 8.5999L5.44892 8.5999L8.42465 11.5756C8.65897 11.81 8.65897 12.1899 8.42465 12.4242C8.19034 12.6585 7.81044 12.6585 7.57613 12.4242L3.60039 8.44843L3.60039 11.9999C3.60039 12.3313 3.33176 12.5999 3.00039 12.5999C2.66902 12.5999 2.40039 12.3313 2.40039 11.9999V3.9999C2.40039 3.66853 2.66902 3.3999 3.00039 3.3999Z" fill="black"/>
</g>
</g>
<defs>
<clipPath id="clip0_241_9210">
<rect width="16" height="16" fill="white"/>
</clipPath>
</defs>
</svg>
