<svg width="16" height="16" viewBox="0 0 16 16" fill="none" xmlns="http://www.w3.org/2000/svg">
<g id="zoom-fit-page" clip-path="url(#clip0_241_9392)">
<path id="Union" fill-rule="evenodd" clip-rule="evenodd" d="M0.5 0H0V0.5V3C0 3.27614 0.223858 3.5 0.5 3.5C0.776142 3.5 1 3.27614 1 3V1H3C3.27614 1 3.5 0.776142 3.5 0.5C3.5 0.223858 3.27614 0 3 0H0.5ZM4.85355 3.14652L4.5 2.79297L4.14645 3.14652L2.64645 4.64652C2.45118 4.84178 2.45118 5.15837 2.64645 5.35363C2.84171 5.54889 3.15829 5.54889 3.35355 5.35363L4.00506 4.70212L4.00015 11.293L3.35355 10.6464C3.15829 10.4512 2.84171 10.4512 2.64645 10.6464C2.45118 10.8417 2.45118 11.1583 2.64645 11.3536L4.14645 12.8536L4.5 13.2071L4.85355 12.8536L6.35355 11.3536C6.54882 11.1583 6.54882 10.8417 6.35355 10.6464C6.15829 10.4512 5.84171 10.4512 5.64645 10.6464L5.00015 11.2927L5.00505 4.71223L5.64645 5.35363C5.84171 5.54889 6.15829 5.54889 6.35355 5.35363C6.54882 5.15837 6.54882 4.84178 6.35355 4.64652L4.85355 3.14652ZM0 16H0.5H3C3.27614 16 3.5 15.7761 3.5 15.5C3.5 15.2239 3.27614 15 3 15H1V13C1 12.7239 0.776142 12.5 0.5 12.5C0.223858 12.5 0 12.7239 0 13V15.5V16ZM15.5 0H16V0.5V3C16 3.27614 15.7761 3.5 15.5 3.5C15.2239 3.5 15 3.27614 15 3V1H13C12.7239 1 12.5 0.776142 12.5 0.5C12.5 0.223858 12.7239 0 13 0H15.5ZM16 16H15.5H13C12.7239 16 12.5 15.7761 12.5 15.5C12.5 15.2239 12.7239 15 13 15H15V13C15 12.7239 15.2239 12.5 15.5 12.5C15.7761 12.5 16 12.7239 16 13V15.5V16ZM13 12.5005C13 12.7766 12.7761 13.0005 12.5 13.0005H7.5V12.2005H12.2V7.17304H10C9.50294 7.17304 9.1 6.77009 9.1 6.27304V3.80049H7.5V3.00049H9.68956C9.82947 3.00049 9.96298 3.05911 10.0577 3.16211L12.8681 6.2194C12.9529 6.31167 13 6.43244 13 6.55778V12.5005ZM11.9227 6.37304L9.9 4.1727V6.27304C9.9 6.32827 9.94477 6.37304 10 6.37304H11.9227Z" fill="black"/>
</g>
<defs>
<clipPath id="clip0_241_9392">
<rect width="16" height="16" fill="white"/>
</clipPath>
</defs>
</svg>
