<svg width="16" height="16" viewBox="0 0 16 16" fill="none" xmlns="http://www.w3.org/2000/svg">
<g id="zoom-in" clip-path="url(#clip0_241_9621)">
<g id="zoom">
<path id="Union" fill-rule="evenodd" clip-rule="evenodd" d="M10.8 7C10.8 9.09868 9.09868 10.8 7 10.8C4.90132 10.8 3.2 9.09868 3.2 7C3.2 4.90132 4.90132 3.2 7 3.2C9.09868 3.2 10.8 4.90132 10.8 7ZM10.0859 10.9344C9.236 11.6019 8.16449 12 7 12C4.23858 12 2 9.76142 2 7C2 4.23858 4.23858 2 7 2C9.76142 2 12 4.23858 12 7C12 8.16449 11.6019 9.236 10.9344 10.0859L14.4243 13.5757C14.6586 13.8101 14.6586 14.1899 14.4243 14.4243C14.1899 14.6586 13.8101 14.6586 13.5757 14.4243L10.0859 10.9344Z" fill="black"/>
</g>
<g id="list-add">
<path id="Union_2" fill-rule="evenodd" clip-rule="evenodd" d="M7.5 4.75C7.5 4.47386 7.27614 4.25 7 4.25C6.72386 4.25 6.5 4.47386 6.5 4.75V6.5L4.75 6.5C4.47386 6.5 4.25 6.72386 4.25 7C4.25 7.27614 4.47386 7.5 4.75 7.5L6.5 7.5V9.25C6.5 9.52614 6.72386 9.75 7 9.75C7.27614 9.75 7.5 9.52614 7.5 9.25V7.5L9.25 7.5C9.52614 7.5 9.75 7.27614 9.75 7C9.75 6.72386 9.52614 6.5 9.25 6.5L7.5 6.5V4.75Z" fill="black"/>
</g>
</g>
<defs>
<clipPath id="clip0_241_9621">
<rect width="16" height="16" fill="white"/>
</clipPath>
</defs>
</svg>
