<?xml version="1.0" encoding="UTF-8" standalone="no"?>
<svg width="100" height="100" viewBox="0 0 26.458334 26.458334" version="1.1" id="svg10012" inkscape:version="1.3 (1:1.3+202307231459+0e150ed6c4)" sodipodi:docname="booklet.svg" xml:space="preserve" xmlns:inkscape="http://www.inkscape.org/namespaces/inkscape" xmlns:sodipodi="http://sodipodi.sourceforge.net/DTD/sodipodi-0.dtd" xmlns="http://www.w3.org/2000/svg" xmlns:svg="http://www.w3.org/2000/svg" xmlns:rdf="http://www.w3.org/1999/02/22-rdf-syntax-ns#" xmlns:cc="http://creativecommons.org/ns#" xmlns:dc="http://purl.org/dc/elements/1.1/"><defs id="defs10006" /><sodipodi:namedview id="base" pagecolor="#ffffff" bordercolor="#666666" borderopacity="1.0" inkscape:pageopacity="0.0" inkscape:pageshadow="2" inkscape:zoom="3.8556" inkscape:cx="50.186741" inkscape:cy="64.062662" inkscape:document-units="px" inkscape:current-layer="layer1" inkscape:document-rotation="0" showgrid="false" units="px" inkscape:window-width="2560" inkscape:window-height="1295" inkscape:window-x="0" inkscape:window-y="32" inkscape:window-maximized="1" inkscape:showpageshadow="2" inkscape:pagecheckerboard="0" inkscape:deskcolor="#d1d1d1" /><metadata id="metadata10009"><rdf:RDF><cc:Work rdf:about=""><dc:format>image/svg+xml</dc:format><dc:type rdf:resource="http://purl.org/dc/dcmitype/StillImage" /><dc:title /></cc:Work></rdf:RDF></metadata><g inkscape:label="Layer 1" inkscape:groupmode="layer" id="layer1" transform="translate(-93.848627,-49.584595)"><path id="path9640" style="color:#000000;font-style:normal;font-variant:normal;font-weight:normal;font-stretch:normal;font-size:medium;line-height:normal;font-family:sans-serif;font-variant-ligatures:normal;font-variant-position:normal;font-variant-caps:normal;font-variant-numeric:normal;font-variant-alternates:normal;font-variant-east-asian:normal;font-feature-settings:normal;font-variation-settings:normal;text-indent:0;text-align:start;text-decoration:none;text-decoration-line:none;text-decoration-style:solid;text-decoration-color:#000000;letter-spacing:normal;word-spacing:normal;text-transform:none;writing-mode:lr-tb;direction:ltr;text-orientation:mixed;dominant-baseline:auto;baseline-shift:baseline;text-anchor:start;white-space:normal;shape-padding:0;shape-margin:0;inline-size:0;clip-rule:nonzero;display:inline;overflow:visible;visibility:visible;opacity:0.2;isolation:auto;mix-blend-mode:normal;color-interpolation:sRGB;color-interpolation-filters:linearRGB;solid-color:#000000;solid-opacity:1;vector-effect:none;fill:#000000;fill-opacity:1;fill-rule:nonzero;stroke:none;stroke-width:0.0772846px;stroke-linecap:butt;stroke-linejoin:miter;stroke-miterlimit:4;stroke-dasharray:none;stroke-dashoffset:0;stroke-opacity:1;paint-order:stroke markers fill;color-rendering:auto;image-rendering:auto;shape-rendering:auto;text-rendering:auto;enable-background:accumulate;stop-color:#000000" d="m 117.92825,52.896584 -0.4636,0.001 v 17.809049 h -0.34352 -11.23244 v 0.454 h 12.11025 V 52.896604 Z" /><path style="color:#000000;font-style:normal;font-variant:normal;font-weight:normal;font-stretch:normal;font-size:medium;line-height:normal;font-family:sans-serif;font-variant-ligatures:normal;font-variant-position:normal;font-variant-caps:normal;font-variant-numeric:normal;font-variant-alternates:normal;font-variant-east-asian:normal;font-feature-settings:normal;font-variation-settings:normal;text-indent:0;text-align:start;text-decoration:none;text-decoration-line:none;text-decoration-style:solid;text-decoration-color:#000000;letter-spacing:normal;word-spacing:normal;text-transform:none;writing-mode:lr-tb;direction:ltr;text-orientation:mixed;dominant-baseline:auto;baseline-shift:baseline;text-anchor:start;white-space:normal;shape-padding:0;shape-margin:0;inline-size:0;clip-rule:nonzero;display:inline;overflow:visible;visibility:visible;opacity:0.7;isolation:auto;mix-blend-mode:normal;color-interpolation:sRGB;color-interpolation-filters:linearRGB;solid-color:#000000;solid-opacity:1;fill:#ffffff;fill-opacity:1;fill-rule:nonzero;stroke:none;stroke-width:0.346076;stroke-linecap:butt;stroke-linejoin:miter;stroke-miterlimit:4;stroke-dasharray:none;stroke-dashoffset:0;stroke-opacity:1;paint-order:stroke markers fill;color-rendering:auto;image-rendering:auto;shape-rendering:auto;text-rendering:auto;enable-background:accumulate;stop-color:#000000" d="m 105.15175,52.267929 v 18.122812 h 0.0279 11.94137 0.0276 V 52.267929 Z" id="path9554" /><path d="m 104.84971,51.951238 -0.1266,0.05581 -8.627897,3.786849 0.06253,18.224728 0.336414,0.447001 3.153297,-1.397848 0.005,2.351795 0.32918,-0.0052 2.684066,-2.531112 0.005,2.409156 0.32918,-0.0052 1.97507,-4.581116 5.2e-4,-5.16e-4 h 5.2e-4 v -5.17e-4 l 0.007,0.0015 h 0.19792 11.94139 0.34313 V 51.951755 h -12.361 -0.12195 z m 0.30179,0.316777 h 11.9972 V 70.39094 h -0.0279 -11.94139 -0.0279 z m -0.31574,0.349804 V 70.4638 l -1.85985,4.292638 0.0905,-2.251415 V 72.147939 71.55211 71.232749 56.760247 Z m -0.6472,-0.05853 -4.573146,4.262447 0.0315,15.897221 -3.063896,1.331702 -0.0217,0.01085 -0.07963,-17.941812 z m 0.39886,-0.02925 -1.95359,4.164573 0.0284,14.713831 0.001,0.322461 0.002,0.799434 -2.66292,2.442465 0.0466,-2.082793 V 72.544297 56.887371 Z" style="baseline-shift:baseline;display:inline;overflow:visible;opacity:0.4;stroke-width:0.346076;paint-order:stroke markers fill;enable-background:accumulate;stop-color:#000000" id="path4" sodipodi:nodetypes="cccccccccccccccccccccccccccccccccccccccccccccccccccccccc" /><path id="path53" style="font-variation-settings:normal;display:inline;opacity:0.2;vector-effect:none;fill:#000000;fill-opacity:1;stroke:none;stroke-width:0.20432;stroke-linecap:butt;stroke-linejoin:miter;stroke-miterlimit:4;stroke-dasharray:none;stroke-dashoffset:0;stroke-opacity:1;paint-order:stroke markers fill;stop-color:#000000" d="m 107.50002,68.376895 c -0.29283,0 -0.52865,-0.189528 -0.52865,-0.425297 0,-0.235775 0.23583,-0.425297 0.52865,-0.425297 h 7.28276 c 0.2928,0 0.52865,0.189522 0.52865,0.425297 0,0.235769 -0.23585,0.425297 -0.52865,0.425297 z m 0,-1.732194 c -0.29283,0 -0.52865,-0.189522 -0.52865,-0.425297 0,-0.23577 0.23583,-0.425814 0.52865,-0.425814 h 7.28276 c 0.2928,0 0.52865,0.190044 0.52865,0.425814 0,0.235775 -0.23585,0.425297 -0.52865,0.425297 z m 0,-1.732194 c -0.29283,0 -0.52865,-0.189528 -0.52865,-0.425297 0,-0.235776 0.23583,-0.425814 0.52865,-0.425814 h 7.28276 c 0.2928,0 0.52865,0.190038 0.52865,0.425814 0,0.235769 -0.23585,0.425297 -0.52865,0.425297 z m 0,-1.732194 c -0.29283,0 -0.52865,-0.189528 -0.52865,-0.425297 0,-0.235776 0.23583,-0.425814 0.52865,-0.425814 h 7.28276 c 0.2928,0 0.52865,0.190038 0.52865,0.425814 0,0.235769 -0.23585,0.425297 -0.52865,0.425297 z m 0,-1.732194 c -0.29283,0 -0.52865,-0.190044 -0.52865,-0.425814 0,-0.235775 0.23583,-0.425297 0.52865,-0.425297 h 7.28276 c 0.2928,0 0.52865,0.189522 0.52865,0.425297 0,0.23577 -0.23585,0.425814 -0.52865,0.425814 z m -0.10852,-1.748731 c -0.29279,0 -0.52813,-0.235844 -0.52813,-0.528649 v -1.367876 c 0,-0.2928 0.23533,-0.528133 0.52813,-0.528133 h 2.22519 c 0.29281,0 0.52865,0.235333 0.52865,0.528133 v 1.367876 c 0,0.292805 -0.23584,0.528649 -0.52865,0.528649 z" sodipodi:nodetypes="ssssssssssssssssssssssssssssssssssssssssssss" /><g id="g4" transform="matrix(0.9322593,0,0,1,7.0083182,-12.992008)"><path style="font-variation-settings:normal;display:inline;opacity:0.2;vector-effect:none;fill:#000000;fill-opacity:1;stroke:none;stroke-width:0.184816;stroke-linecap:butt;stroke-linejoin:miter;stroke-miterlimit:4;stroke-dasharray:none;stroke-dashoffset:0;stroke-opacity:1;paint-order:stroke markers fill;stop-color:#000000" d="m 106.97425,67.492811 c -0.23959,0 -0.43246,0.189992 -0.43246,0.425761 0,0.235776 0.19287,0.425497 0.43246,0.425497 h 9.46976 c 0.23956,0 0.43245,-0.189721 0.43245,-0.425497 0,-0.235769 -0.19289,-0.425761 -0.43245,-0.425761 z" id="path24" /></g><path id="path6" style="baseline-shift:baseline;display:inline;overflow:visible;opacity:0.7;stroke-width:0.346076;paint-order:stroke markers fill;enable-background:accumulate;stop-color:#000000;font-variation-settings:normal;vector-effect:none;fill:#ffffff;fill-opacity:1;stroke:none;stroke-linecap:butt;stroke-linejoin:miter;stroke-miterlimit:4;stroke-dasharray:none;stroke-dashoffset:0;stroke-opacity:1;-inkscape-stroke:none;stop-opacity:1" d="M 104.58751 52.530152 L 100.04877 56.887509 L 100.04877 72.544434 L 100.04877 72.89015 L 100.00226 74.97271 L 102.66514 72.530482 L 102.66308 71.731047 L 102.66204 71.408586 L 102.63362 56.694755 L 104.58751 52.530152 z M 104.18856 52.559091 L 96.481541 56.119597 L 96.561123 74.061655 L 96.582827 74.050802 L 99.646723 72.719101 L 99.6152 56.82188 L 104.18856 52.559091 z M 104.83555 52.618002 L 103.06615 56.760385 L 103.06615 71.232887 L 103.06615 71.552247 L 103.06615 72.148076 L 103.06615 72.50516 L 102.97572 74.756186 L 104.83555 70.463941 L 104.83555 52.618002 z " /></g></svg>
